<svg width="253" height="252" viewBox="0 0 253 252" fill="none" xmlns="http://www.w3.org/2000/svg">
<g opacity="0.05">
<path d="M123.661 57.3842C121.073 59.2753 118.65 60.2776 116.16 61.2619C114.636 61.8588 114.117 62.7248 114.173 64.3913C114.382 68.9708 114.372 73.5634 114.455 78.6117C111.936 74.3467 109.578 70.5554 107.456 66.684C106.493 64.9182 105.529 64.229 103.419 64.5973C96.9761 65.5993 90.5126 64.8008 84.1064 64.5921C73.0945 64.1545 68.8378 67.1784 65.8187 77.6421C64.8542 80.9738 61.4411 80.8491 58.8031 82.6552C58.5141 77.8389 58.7022 73.6531 60.82 69.7689C62.0692 67.5187 61.7092 65.9145 60.4832 63.7909C58.3565 60.2054 56.6365 56.4417 55.0098 53.1338C58.1571 55.0542 62.0234 57.2389 65.7688 59.6067C67.3669 60.6094 68.6577 60.8834 70.5085 59.8715C75.654 57.014 81.4034 57.2621 87.099 57.7112C96.8595 58.5315 106.42 58.2213 115.575 54.0685C119.053 52.3438 120.616 56.4245 123.661 57.3842Z" fill="white"/>
<path d="M174.454 113.286C178.652 110.749 182.546 108.274 186.538 105.969C187.727 105.283 188.497 104.555 188.271 102.987C187.073 96.204 187.961 89.4055 188.192 82.6464C188.625 71.9204 185.387 67.391 175.204 64.6625C173.128 64.1061 172.356 62.9659 170.477 57.6518C175.093 57.3089 179.528 57.6358 183.511 59.9235C185.328 60.913 186.561 60.5973 188.242 59.6834C192.046 57.5436 195.998 55.6586 199.561 53.8848C197.846 56.8 195.867 60.4342 193.638 63.9296C192.309 65.9428 191.963 67.5016 193.202 69.844C195.859 74.9357 195.562 80.6002 195.081 86.1438C194.297 95.7704 194.473 105.295 198.814 114.285C199.366 115.438 199.316 116.43 198.591 117.528C197.454 119.09 196.434 120.755 195.243 122.518C193.629 120.506 192.67 118.454 191.9 116.238C191.081 113.936 189.885 113.041 187.325 113.217C183.049 113.363 178.778 113.224 174.454 113.286Z" fill="white"/>
<path d="M163.8 183.093C165.147 181.013 166.002 179.16 167.286 177.852C169.818 175.371 169.231 173.275 167.491 170.655C165.427 167.374 163.72 163.829 161.861 160.315C165.759 162.652 169.723 165.007 173.62 167.343C174.602 167.965 175.566 168.655 176.76 167.682C182.766 162.686 190.114 159.916 196.758 156.024C204.572 151.512 206.773 145.711 204.058 137.086C203.386 135.039 204.152 133.521 207.74 129.241C210.451 133.055 212.166 137.104 212.308 141.666C212.342 143.685 213.131 144.758 214.832 145.645C218.551 147.575 222.217 149.706 225.769 152.524C221.749 152.524 217.643 152.573 213.676 152.371C211.407 152.266 209.936 152.662 208.62 154.894C206.127 159.108 202.014 161.596 197.722 163.678C188.138 168.361 178.903 173.354 172.441 182.464C170.615 184.991 167.151 182.914 163.8 183.093Z" fill="white"/>
<path d="M79.3993 138.147C75.541 140.488 71.8837 142.882 68.0793 145.022C66.2286 146.034 65.4545 147.047 65.8359 149.375C66.851 156.038 65.9986 162.702 65.7181 169.376C65.3309 179.397 68.9169 184.235 78.6486 186.77C80.1224 187.165 83.4633 191.579 83.3543 193.057C83.2812 194.402 82.2632 193.914 81.5395 193.935C77.8226 193.873 74.0566 193.725 70.8423 191.787C68.7441 190.507 67.1219 190.934 65.1503 192.129C61.4978 194.238 57.6312 196.073 54.2025 197.883C56.1587 194.602 58.3076 190.87 60.5904 187.173C61.611 185.508 62.055 184.119 60.927 182.166C58.1185 177.105 58.3308 171.49 58.744 165.928C59.5332 156.016 59.4108 146.29 54.9721 137.13C54.4686 136.062 54.568 135.155 55.1722 134.24C56.2598 132.593 57.3294 131.013 58.5378 129.182C60.3847 131.401 61.369 133.89 62.3043 136.295C62.9992 137.989 63.9502 138.459 65.6837 138.421C70.2631 138.212 74.7038 138.253 79.3993 138.147Z" fill="white"/>
<path d="M130.118 193.811C132.121 192.768 133.552 191.716 135.174 191.289C139.026 190.31 140.007 187.989 139.583 184.213C139.123 180.571 139.386 176.908 139.4 173.106C141.839 177.135 144.265 180.944 146.453 184.833C147.416 186.599 148.483 187.172 150.575 186.871C157.237 185.856 163.901 186.708 170.575 186.989C180.663 187.394 185.568 183.826 188.019 174.143C188.849 170.776 192.03 170.695 194.373 169.455C195.526 168.903 195.265 170.412 195.219 171.118C195.206 174.92 194.956 178.802 192.914 182.132C191.84 183.999 192.12 185.366 193.15 187.15C195.374 190.905 197.259 194.857 199.1 198.437C195.752 196.463 191.904 194.211 188.158 191.844C186.56 190.841 185.251 190.634 183.468 191.664C178.255 194.503 172.573 194.273 166.877 193.824C157.117 193.004 147.458 193.144 138.432 197.619C137.194 198.22 136.256 197.969 135.225 197.262C133.663 196.125 132.132 195.141 130.118 193.811Z" fill="white"/>
<path d="M92.1663 160.955C90.0534 164.553 87.6987 168.518 85.362 172.415C84.686 173.598 84.0818 174.513 85.1703 175.81C90.1177 181.731 92.7716 188.976 96.6148 195.535C101.127 203.349 106.927 205.55 115.535 202.902C118.985 201.816 120.715 205.008 123.671 206.302C119.584 209.228 115.516 211.01 110.906 211.067C108.819 211.083 107.795 211.957 106.909 213.658C104.912 217.359 102.848 221.043 99.9619 224.577C100.034 220.289 100.021 216.049 100.16 211.778C100.225 209.929 99.7085 208.641 97.9763 207.603C93.579 204.989 90.9259 200.688 88.7467 196.226C84.1118 186.727 79.1503 177.644 70.1559 171.284C67.5625 169.441 69.7065 165.994 69.4114 162.541C71.6746 164.009 73.5097 164.931 74.9332 166.318C77.2179 168.51 79.1081 168.154 81.5403 166.58C85.0768 164.369 88.8225 162.716 92.1663 160.955Z" fill="white"/>
<path d="M153.877 26.9225C153.805 31.2112 153.715 35.567 153.642 39.8557C153.636 41.2183 153.563 42.5629 155.063 43.3957C160.198 46.2074 162.993 51.0491 165.467 56.0199C169.954 65.2641 174.889 73.9102 183.567 80.1125C186.276 82.0592 184.016 85.4026 184.517 88.6243C181.61 87.4146 179.499 85.9154 177.575 84.2512C176.281 83.1864 175.271 83.2031 173.912 83.9877C169.92 86.2926 165.83 88.4277 161.637 90.6788C163.955 86.8484 166.225 82.9331 168.544 79.1028C169.202 77.9867 170.025 77.0584 168.954 75.6945C164.056 69.8586 161.366 62.7475 157.639 56.292C152.851 47.9007 147.452 45.8079 138.304 48.5981C136.901 49.0119 131.806 46.8569 131.088 45.5158C130.402 44.3266 131.532 44.127 132.109 43.8507C135.573 41.907 139.167 40.2851 143.17 40.3525C145.104 40.3682 146.111 39.5607 146.961 37.9937C148.976 34.2255 151.125 30.4932 153.225 26.676C153.341 26.7789 153.609 26.8507 153.877 26.9225Z" fill="white"/>
<path d="M89.7163 68.3203C89.039 70.58 87.9514 72.2272 86.5827 73.5837C84.1181 76.0826 84.6383 78.1606 86.3105 80.7627C88.442 84.0623 90.0819 87.5891 92.0076 91.1207C88.0433 88.7661 84.1459 86.4294 80.1816 84.0747C79.1995 83.4526 78.2533 82.6964 77.0593 83.6689C70.9505 88.7814 63.5356 91.5334 56.7403 95.4567C49.1626 99.8883 47.0111 105.774 49.7128 114.181C50.385 116.227 49.6683 117.83 46.0802 122.111C43.3685 118.296 41.6534 114.247 41.5114 109.685C41.4111 107.648 40.6886 106.593 38.9876 105.706C35.2864 103.709 31.6032 101.645 27.1029 99.1471C32.0269 98.4561 36.056 98.9613 40.1438 98.9796C42.3641 99.0001 43.8834 98.6892 45.1996 96.457C47.7289 92.1087 52.0609 89.6076 56.4372 87.4774C65.9362 82.8425 75.0381 77.814 81.3792 68.8866C83.254 66.4451 86.7183 68.5222 89.7163 68.3203Z" fill="white"/>
<path d="M187.836 156.576C187.28 154.632 187.484 152.533 187.951 150.791C188.866 147.374 187.563 145.805 184.625 144.443C181.236 142.889 178.125 140.835 175.072 138.293C179.361 138.366 183.717 138.456 188.005 138.528C189.435 138.552 190.713 138.607 191.331 136.834C193.801 130.029 198.204 124.315 202.04 118.307C205.289 113.146 206.676 107.702 203.61 101.998C202.892 100.657 202.058 99.2126 200.893 98.4696C196.733 95.7752 198.256 92.2343 198.622 88.4552C203.109 90.7345 206.734 93.2853 209.106 97.2955C210.055 98.8424 211.176 99.2146 212.758 99.2076C217.319 99.0656 221.845 99.0576 225.75 98.955C222.28 101.185 218.538 103.628 214.747 105.987C213.625 106.692 212.422 107.159 212.424 109.027C212.444 114.848 209.722 119.647 206.598 124.339C203.094 129.647 199.407 134.833 197.286 140.871C196.457 143.162 195.762 145.489 195.401 147.905C194.487 154.266 194.402 154.315 187.836 156.576Z" fill="white"/>
<path d="M95.6257 186.653C98.5615 186.147 100.947 186.356 103.327 186.85C105.355 187.321 106.544 186.635 107.449 184.867C109.482 181.032 111.631 177.299 114.449 173.747C114.377 178.035 114.305 182.324 114.148 186.662C114.088 188.225 114.1 189.521 115.989 190.243C121.825 192.309 126.811 195.943 131.887 199.241C134.699 201.072 137.512 202.902 140.83 203.648C146.042 204.829 150.855 203.749 154.018 199.714C157.043 195.93 160.272 197.01 164.1 197.462C162.026 201.717 159.542 205.359 155.702 207.633C153.748 208.761 153.389 210.101 153.423 212.12C153.619 216.481 153.596 220.854 153.631 224.741C151.303 221.102 148.896 217.226 146.421 213.331C145.814 212.379 145.548 211.231 143.966 211.238C137.001 211.238 131.426 207.662 125.971 203.903C118.271 198.608 110.095 194.551 100.59 193.584C97.1995 193.106 97.7406 188.943 95.6257 186.653Z" fill="white"/>
<path d="M78.8852 113.31C74.5295 113.22 70.2408 113.148 65.885 113.057C64.5225 113.051 63.1778 112.978 62.4922 114.733C60.0224 121.539 55.6196 127.252 51.8507 133.278C48.4623 138.689 47.1734 144.303 50.6063 150.249C51.1948 151.268 51.8323 152.373 52.7474 152.977C56.9618 155.47 55.7735 159.101 55.2683 163.13C50.9463 161.039 47.3217 158.488 44.9988 154.562C43.902 152.761 42.6471 152.353 40.7617 152.422C36.4192 152.551 32.0276 152.595 27.484 152.67C31.3423 150.329 34.8967 148.05 38.6162 145.959C40.4669 144.947 41.5628 143.805 41.6013 141.518C41.7513 135.598 44.8442 130.755 48.1021 126.099C53.7051 118.051 58.2721 109.582 59.0793 99.6021C59.2014 98.3424 59.7828 97.7802 60.7662 97.3256C62.4112 96.5458 64.0071 95.681 65.9919 94.705C66.6413 97.1048 66.3528 99.2534 65.8813 101.281C65.1764 104.18 66.144 105.66 68.765 106.864C72.2701 108.522 75.5824 110.63 79.0157 112.555C78.9618 112.756 78.89 113.024 78.8852 113.31Z" fill="white"/>
<path d="M157.765 64.8704C155.437 65.2518 153.253 65.0973 151.158 64.6078C148.728 64.0286 147.32 64.7283 146.223 66.9474C144.378 70.6175 142.265 74.2158 139.803 78.582C139.129 73.591 139.537 69.3921 139.707 65.2732C139.799 62.7849 139.046 61.5778 136.688 60.7306C130.485 58.4224 125.272 54.2971 119.745 50.8058C115.085 47.8338 110.217 46.1706 104.679 48.3485C102.833 49.0745 100.818 49.8986 99.797 51.5638C97.2725 55.6262 93.655 54.6569 89.7108 54.1026C91.6683 49.7447 94.2682 46.2051 98.1934 43.8822C99.9952 42.7853 100.403 41.5305 100.334 39.6451C100.223 35.2355 100.197 30.7769 100.108 27.0911C102.386 30.6455 104.879 34.4727 107.287 38.3489C107.992 39.4711 108.549 40.3384 110.13 40.3314C115.8 40.3427 120.55 42.9797 125.126 46.0008C130.616 49.626 135.986 53.4343 142.31 55.5595C144.35 56.2499 146.538 57.1952 148.625 57.1798C153.91 57.0164 156.52 59.8698 157.765 64.8704Z" fill="white"/>
</g>
</svg>
