<svg width="70" height="69" viewBox="0 0 70 69" fill="none" xmlns="http://www.w3.org/2000/svg">
<g opacity="0.1">
<path d="M27.6792 12.5258C27.004 13.3639 26.3056 13.8994 25.5839 14.4348C25.1416 14.7607 25.0485 15.0867 25.2115 15.6221C25.6771 17.0888 26.0728 18.5787 26.5384 20.2083C25.3511 19.0443 24.257 18.02 23.2326 16.9491C22.767 16.4602 22.3945 16.3205 21.7427 16.6232C19.7406 17.5078 17.5755 17.8105 15.4803 18.2993C11.8719 19.1141 10.7544 20.4644 10.6846 24.1194C10.6613 25.2834 9.54386 25.5395 8.84546 26.3543C8.33329 24.8178 8.03065 23.4443 8.37985 22.0009C8.58937 21.1628 8.33329 20.6739 7.75128 20.0919C6.75023 19.1141 5.86559 18.0433 5.05078 17.112C6.23807 17.4612 7.68144 17.8337 9.10153 18.2761C9.70682 18.4623 10.1491 18.439 10.6613 17.9501C12.0814 16.5766 13.9671 16.1576 15.8528 15.8084C19.0888 15.2263 22.1617 14.2951 24.7691 12.1534C25.7469 11.292 26.6083 12.4793 27.6792 12.5258Z" fill="black"/>
<path d="M49.0055 26.238C50.1462 25.0507 51.1939 23.9099 52.288 22.8158C52.614 22.4898 52.8002 22.1872 52.5907 21.6983C51.6129 19.6031 51.3103 17.3216 50.7981 15.11C50.0066 11.5947 48.5632 10.4074 45.0246 10.4074C44.3029 10.4074 43.9537 10.1048 42.8828 8.54499C44.3495 8.03283 45.8161 7.75346 47.3061 8.14923C47.9812 8.31219 48.3537 8.10266 48.8193 7.66034C49.8669 6.63601 50.9843 5.68152 51.9854 4.79688C51.6827 5.89105 51.3568 7.2413 50.9378 8.56827C50.6817 9.33652 50.705 9.87197 51.3102 10.5238C52.6139 11.9439 53.0097 13.8063 53.3356 15.6455C53.9176 18.8349 54.8023 21.9078 56.9906 24.4454C57.27 24.7713 57.3398 25.0972 57.2002 25.5163C56.9674 26.1216 56.7811 26.7501 56.5483 27.4253C55.8499 26.9131 55.361 26.3311 54.9187 25.6792C54.4531 25.0041 53.9875 24.8179 53.1727 25.0972C51.7991 25.5163 50.4023 25.8422 49.0055 26.238Z" fill="black"/>
<path d="M51.6152 49.7967C51.8713 49.0052 51.9877 48.33 52.2903 47.7946C52.8956 46.7703 52.5231 46.1417 51.7316 45.4433C50.7771 44.5586 49.9157 43.5576 49.0078 42.5798C50.4745 42.9989 51.9644 43.4179 53.4311 43.8369C53.8035 43.9533 54.176 44.093 54.4787 43.674C55.9919 41.5322 58.1337 39.9957 59.9495 38.1566C62.0913 36.0148 62.3008 33.9429 60.6712 31.382C60.2755 30.7767 60.3919 30.218 61.1834 28.5186C62.394 29.5196 63.3019 30.6836 63.7442 32.1503C63.9304 32.8021 64.2797 33.0815 64.9082 33.2212C66.2818 33.5238 67.6553 33.8963 69.0521 34.5016C67.7484 34.8508 66.4214 35.2233 65.1177 35.5026C64.3728 35.6656 63.9305 35.9217 63.6977 36.7598C63.2553 38.3428 62.1379 39.5068 60.9273 40.5544C58.2268 42.9057 55.666 45.3269 54.3623 48.8422C53.9898 49.82 52.6861 49.4475 51.6152 49.7967Z" fill="black"/>
<path d="M20.3449 42.5561C19.2972 43.6503 18.3195 44.7444 17.2719 45.7688C16.7597 46.2576 16.5968 46.6534 16.9227 47.3751C17.8306 49.447 18.1332 51.6819 18.6221 53.8703C19.3671 57.1528 20.9502 58.4099 24.3258 58.3866C24.8379 58.3866 26.3046 59.5274 26.3977 60.0163C26.4908 60.4586 26.1184 60.3887 25.8856 60.4586C24.675 60.7612 23.4411 61.0406 22.2306 60.6914C21.439 60.4586 20.9502 60.7379 20.4147 61.2967C19.4137 62.2977 18.3195 63.2289 17.365 64.1136C17.7142 62.8797 18.0867 61.4829 18.5057 60.0861C18.692 59.4575 18.7152 58.9686 18.1798 58.4332C16.8295 57.0364 16.4105 55.1972 16.0613 53.3581C15.456 50.0756 14.5714 46.9328 12.3365 44.3487C12.0804 44.046 12.0338 43.7434 12.1502 43.3942C12.3598 42.7656 12.5693 42.1603 12.8021 41.4619C13.5936 42.0206 14.129 42.7423 14.6412 43.4407C15.0137 43.9296 15.3629 43.9995 15.9216 43.8365C17.3883 43.3709 18.8316 42.9984 20.3449 42.5561Z" fill="black"/>
<path d="M41.625 56.1972C42.1837 55.685 42.5562 55.2194 43.0451 54.9401C44.2091 54.2882 44.3255 53.4502 43.8599 52.2629C43.3943 51.1221 43.1615 49.9116 42.8356 48.6777C43.9763 49.7719 45.0938 50.7962 46.1414 51.8671C46.607 52.356 47.0027 52.4491 47.6546 52.1697C49.7265 51.2618 51.9614 50.9592 54.1498 50.4703C57.4556 49.7253 58.736 48.1423 58.6894 44.7899C58.6661 43.6259 59.6905 43.3232 60.3423 42.718C60.6682 42.4386 60.7148 42.9508 60.7613 43.1836C61.0873 44.4174 61.3433 45.6978 60.9709 46.955C60.7846 47.6534 60.9942 48.0724 61.483 48.5613C62.5307 49.5856 63.4851 50.7031 64.3931 51.7041C63.1359 51.3549 61.6926 50.9592 60.2725 50.5168C59.6672 50.3306 59.2249 50.3772 58.736 50.866C57.2926 52.2396 55.4302 52.6586 53.5445 53.0078C50.3085 53.5898 47.189 54.4745 44.6514 56.7094C44.3022 57.012 43.9763 57.012 43.5805 56.8723C42.9753 56.6395 42.3932 56.4533 41.625 56.1972Z" fill="black"/>
<path d="M26.4667 48.8418C26.0942 50.192 25.6752 51.682 25.2561 53.1486C25.1397 53.591 25.0233 53.9402 25.4889 54.2661C27.6075 55.756 29.0974 57.8745 30.9132 59.6671C33.055 61.8089 35.127 62.0184 37.6878 60.4121C38.7121 59.7602 39.5502 60.6449 40.6211 60.8078C39.5502 62.1115 38.3862 63.0427 36.8963 63.4618C36.2211 63.648 35.965 64.0205 35.8254 64.6491C35.4994 66.0226 35.1502 67.3961 34.5217 68.793C34.1725 67.3961 33.8 66.0226 33.4741 64.6258C33.3344 64.0205 33.055 63.648 32.4032 63.4618C30.7503 62.9962 29.5164 61.8322 28.4223 60.575C26.0942 57.8978 23.6964 55.3835 20.2276 54.1031C19.2266 53.7306 19.6223 52.427 19.2266 51.3328C20.0879 51.6121 20.7631 51.7518 21.3451 52.0777C22.2763 52.5899 22.8583 52.3105 23.5101 51.5889C24.4646 50.5645 25.5355 49.7032 26.4667 48.8418Z" fill="black"/>
<path d="M34.8297 0.0232816C35.1789 1.4201 35.5281 2.84019 35.8773 4.237C35.9937 4.67933 36.0868 5.12165 36.6455 5.26133C38.5545 5.72694 39.8815 7.05391 41.1153 8.45073C43.3735 11.0581 45.7248 13.4327 49.0772 14.6898C50.1248 15.0856 49.6825 16.366 50.1248 17.3671C49.0772 17.2274 48.2624 16.9247 47.4941 16.5522C46.9819 16.3194 46.656 16.4126 46.2836 16.785C45.1894 17.8792 44.0487 18.9268 42.8846 20.021C43.3037 18.5776 43.6994 17.111 44.1185 15.6676C44.2349 15.2486 44.4211 14.8761 43.9555 14.5269C41.8603 13.0602 40.3704 10.9883 38.6011 9.21897C36.3196 6.91423 34.3874 6.70471 31.6636 8.40416C31.2445 8.66024 29.4054 8.40416 29.0562 8.03168C28.7303 7.70575 29.0795 7.5428 29.2424 7.40312C30.1969 6.47191 31.2213 5.63382 32.5249 5.3079C33.1535 5.14493 33.4096 4.79573 33.5493 4.21372C33.8752 2.81691 34.2477 1.42009 34.5969 0C34.6434 0.0232802 34.7366 0.0232816 34.8297 0.0232816Z" fill="black"/>
<path d="M17.6231 19.02C17.5999 19.8115 17.3903 20.4401 17.0644 20.9988C16.4824 22.0232 16.8316 22.6517 17.5998 23.3501C18.5776 24.2348 19.4157 25.2358 20.3469 26.2136C18.857 25.7946 17.3903 25.3755 15.9004 24.9565C15.5279 24.8401 15.1554 24.6771 14.8528 25.0962C13.3163 27.2845 11.1512 28.821 9.2888 30.6834C7.21686 32.7786 7.03062 34.8739 8.63696 37.3648C9.03272 37.9701 8.93961 38.5521 8.14808 40.2516C6.93751 39.2505 6.02958 38.0865 5.58725 36.6199C5.37773 35.968 5.05181 35.6887 4.42324 35.549C3.04971 35.2231 1.67618 34.8739 0 34.4548C1.53649 33.803 2.88674 33.6167 4.21372 33.2675C4.9354 33.0813 5.40102 32.8485 5.63382 32.0104C6.07614 30.3808 7.26343 29.1935 8.49728 28.1226C11.1745 25.7946 13.6888 23.3734 14.9692 19.9279C15.3649 18.9735 16.6686 19.3459 17.6231 19.02Z" fill="black"/>
<path d="M57.1058 39.1101C56.7566 38.5281 56.6402 37.8297 56.6402 37.2244C56.6402 36.0371 56.0815 35.6413 55.0106 35.4551C53.7768 35.2456 52.5895 34.8498 51.3789 34.2911C52.7757 33.9419 54.1958 33.5927 55.5926 33.2435C56.0582 33.1271 56.4773 33.0339 56.5238 32.4054C56.7334 29.9842 57.6646 27.7493 58.3862 25.4679C58.9915 23.5123 58.9682 21.6266 57.4783 20.0436C57.1291 19.6711 56.7334 19.2753 56.291 19.1356C54.708 18.6235 54.8942 17.3431 54.6847 16.0859C56.3376 16.4351 57.7344 16.9473 58.8519 18.0415C59.2942 18.4605 59.69 18.4838 60.2021 18.3441C61.6688 17.9018 63.1354 17.506 64.3926 17.1335C63.4613 18.1579 62.4603 19.2753 61.436 20.3695C61.1333 20.6954 60.7841 20.9515 60.9471 21.5568C61.4592 23.4425 60.9936 25.2351 60.3883 27.0276C59.7132 29.053 58.9683 31.0551 58.8053 33.1969C58.7355 34.0117 58.7122 34.8265 58.8053 35.6413C59.0614 37.7831 59.0381 37.8064 57.1058 39.1101Z" fill="black"/>
<path d="M29.8203 56.8738C30.7282 56.4547 31.5198 56.315 32.3346 56.2685C33.033 56.2452 33.3589 55.9193 33.4986 55.2674C33.8245 53.8473 34.197 52.4505 34.8023 51.0537C35.1515 52.4505 35.5007 53.8473 35.8266 55.2674C35.943 55.7796 36.0594 56.1986 36.7345 56.2685C38.8065 56.4314 40.7387 57.1764 42.671 57.805C43.7419 58.1542 44.8128 58.5034 45.9535 58.4568C47.7461 58.387 49.2127 57.6187 49.8879 56.0357C50.5397 54.5457 51.6804 54.6156 52.9608 54.4293C52.6582 55.9891 52.1693 57.3859 51.1217 58.4568C50.5863 58.9923 50.5863 59.4579 50.7725 60.1097C51.2149 61.5065 51.5873 62.9266 51.9365 64.1838C50.8657 63.206 49.7482 62.1584 48.6075 61.1108C48.3281 60.8547 48.1419 60.5055 47.6297 60.6452C45.3715 61.2505 43.253 60.5753 41.1578 59.8304C38.2012 58.7827 35.198 58.1775 32.0319 58.6896C30.8912 58.8293 30.705 57.4325 29.8203 56.8738Z" fill="black"/>
<path d="M18.0199 34.5488C16.5998 34.898 15.203 35.2472 13.7829 35.5965C13.3406 35.7129 12.8982 35.806 12.8284 36.4345C12.6189 38.8557 11.6877 41.0906 10.9893 43.3721C10.3607 45.4207 10.4305 47.353 12.0601 48.9826C12.3395 49.2619 12.6422 49.5646 12.9914 49.681C14.5744 50.1233 14.5046 51.4037 14.6908 52.754C13.1078 52.4513 11.7109 51.9392 10.6168 50.8683C10.1046 50.3794 9.66228 50.3561 9.05699 50.5424C7.66018 50.9614 6.24009 51.3572 4.77344 51.7762C5.82105 50.682 6.77554 49.6344 7.79987 48.6334C8.31203 48.1445 8.56811 47.6789 8.38187 46.9339C7.91627 45.0017 8.49827 43.1625 9.15012 41.37C10.2676 38.2737 11.0125 35.1309 10.4073 31.8251C10.3374 31.406 10.4771 31.1732 10.7565 30.9404C11.2221 30.5446 11.6644 30.1256 12.2231 29.6367C12.6422 30.3584 12.7353 31.0801 12.7586 31.7785C12.7818 32.7795 13.2242 33.1753 14.1786 33.3383C15.4591 33.5711 16.7162 33.9668 17.9966 34.2928C17.9966 34.3626 17.9966 34.4557 18.0199 34.5488Z" fill="black"/>
<path d="M39.3876 11.9892C38.6659 12.3151 37.9442 12.4548 37.2225 12.4781C36.3844 12.5013 35.9887 12.8505 35.8257 13.6654C35.5463 15.0156 35.1739 16.3659 34.7548 17.9955C34.103 16.4357 33.8702 15.0389 33.5675 13.6886C33.3813 12.8738 33.0321 12.5479 32.194 12.4781C29.9824 12.2685 27.9337 11.3839 25.8385 10.732C24.0692 10.1733 22.3465 10.0569 20.7401 11.2442C20.2047 11.64 19.6227 12.0823 19.4364 12.7109C18.9708 14.2474 17.7137 14.2474 16.3867 14.4103C16.6428 12.8273 17.1782 11.4537 18.2491 10.3596C18.738 9.84739 18.7613 9.40507 18.5751 8.79979C18.156 7.37969 17.7603 5.93631 17.4111 4.74902C18.4587 5.70351 19.5994 6.72784 20.7168 7.77545C21.0428 8.0781 21.2989 8.3109 21.811 8.17122C23.6502 7.68233 25.4195 8.12466 27.1655 8.70666C29.2607 9.40507 31.3326 10.1733 33.5675 10.313C34.2892 10.3596 35.0807 10.476 35.7559 10.2897C37.4553 9.77756 38.5495 10.476 39.3876 11.9892Z" fill="black"/>
</g>
</svg>
