<svg width="253" height="252" viewBox="0 0 253 252" fill="none" xmlns="http://www.w3.org/2000/svg">
<g opacity="0.05">
<path d="M123.661 57.383C121.073 59.2741 118.65 60.2764 116.16 61.2607C114.636 61.8575 114.117 62.7236 114.173 64.3901C114.382 68.9695 114.372 73.5621 114.455 78.6105C111.936 74.3455 109.578 70.5542 107.456 66.6828C106.493 64.917 105.529 64.2278 103.419 64.5961C96.9761 65.598 90.5126 64.7996 84.1064 64.5909C73.0945 64.1533 68.8378 67.1771 65.8187 77.6409C64.8542 80.9725 61.4411 80.8478 58.8031 82.654C58.5141 77.8377 58.7022 73.6519 60.82 69.7676C62.0692 67.5175 61.7092 65.9133 60.4832 63.7897C58.3565 60.2042 56.6365 56.4405 55.0098 53.1326C58.1571 55.0529 62.0234 57.2377 65.7688 59.6055C67.3669 60.6081 68.6577 60.8822 70.5085 59.8703C75.654 57.0128 81.4034 57.2609 87.099 57.71C96.8595 58.5303 106.42 58.2201 115.575 54.0673C119.053 52.3426 120.616 56.4233 123.661 57.383Z" fill="white"/>
<path d="M174.454 113.284C178.652 110.747 182.546 108.273 186.538 105.968C187.727 105.281 188.497 104.554 188.271 102.985C187.073 96.2023 187.961 89.4038 188.192 82.6447C188.625 71.9187 185.387 67.3892 175.204 64.6608C173.128 64.1044 172.356 62.9642 170.477 57.6501C175.093 57.3072 179.528 57.6341 183.511 59.9218C185.328 60.9113 186.561 60.5956 188.242 59.6817C192.046 57.5419 195.998 55.6569 199.561 53.883C197.846 56.7983 195.867 60.4325 193.638 63.9279C192.309 65.9411 191.963 67.4999 193.202 69.8423C195.859 74.934 195.562 80.5985 195.081 86.1421C194.297 95.7686 194.473 105.294 198.814 114.283C199.366 115.436 199.316 116.428 198.591 117.526C197.454 119.088 196.434 120.754 195.243 122.517C193.629 120.504 192.67 118.453 191.9 116.236C191.081 113.934 189.885 113.039 187.325 113.215C183.049 113.362 178.778 113.223 174.454 113.284Z" fill="white"/>
<path d="M163.8 183.091C165.147 181.011 166.002 179.158 167.286 177.851C169.818 175.37 169.231 173.274 167.491 170.654C165.427 167.372 163.72 163.827 161.861 160.314C165.759 162.65 169.723 165.005 173.62 167.342C174.602 167.964 175.566 168.653 176.76 167.68C182.766 162.684 190.114 159.914 196.758 156.022C204.572 151.51 206.773 145.709 204.058 137.084C203.386 135.037 204.152 133.519 207.74 129.239C210.451 133.053 212.166 137.102 212.308 141.664C212.342 143.683 213.131 144.756 214.832 145.643C218.551 147.573 222.217 149.704 225.769 152.523C221.749 152.522 217.643 152.571 213.676 152.37C211.407 152.264 209.936 152.66 208.62 154.892C206.127 159.107 202.014 161.595 197.722 163.676C188.138 168.36 178.903 173.352 172.441 182.463C170.615 184.989 167.151 182.912 163.8 183.091Z" fill="white"/>
<path d="M79.3993 138.146C75.541 140.487 71.8837 142.881 68.0793 145.021C66.2286 146.033 65.4545 147.046 65.8359 149.374C66.851 156.037 65.9986 162.701 65.7181 169.375C65.3309 179.395 68.9169 184.233 78.6486 186.769C80.1224 187.164 83.4633 191.578 83.3543 193.056C83.2812 194.401 82.2632 193.913 81.5395 193.934C77.8226 193.872 74.0566 193.724 70.8423 191.786C68.7441 190.506 67.1219 190.933 65.1503 192.128C61.4978 194.236 57.6312 196.072 54.2025 197.882C56.1587 194.601 58.3076 190.868 60.5904 187.172C61.611 185.507 62.055 184.118 60.927 182.164C58.1185 177.104 58.3308 171.488 58.744 165.927C59.5332 156.014 59.4108 146.288 54.9721 137.129C54.4686 136.061 54.568 135.154 55.1722 134.239C56.2598 132.592 57.3294 131.011 58.5378 129.181C60.3847 131.399 61.369 133.889 62.3043 136.294C62.9992 137.988 63.9502 138.458 65.6837 138.42C70.2631 138.211 74.7038 138.252 79.3993 138.146Z" fill="white"/>
<path d="M130.118 193.81C132.121 192.767 133.552 191.714 135.174 191.287C139.026 190.309 140.007 187.987 139.583 184.212C139.123 180.57 139.386 176.907 139.4 173.105C141.839 177.133 144.265 180.943 146.453 184.832C147.416 186.598 148.483 187.171 150.575 186.87C157.237 185.855 163.901 186.707 170.575 186.987C180.663 187.393 185.568 183.825 188.019 174.142C188.849 170.774 192.03 170.693 194.373 169.454C195.526 168.902 195.265 170.411 195.219 171.117C195.206 174.919 194.956 178.801 192.914 182.131C191.84 183.997 192.12 185.365 193.15 187.148C195.374 190.904 197.259 194.855 199.1 198.436C195.752 196.462 191.904 194.21 188.158 191.842C186.56 190.84 185.251 190.633 183.468 191.663C178.255 194.502 172.573 194.272 166.877 193.823C157.117 193.002 147.458 193.143 138.432 197.617C137.194 198.219 136.256 197.968 135.225 197.261C133.663 196.124 132.132 195.139 130.118 193.81Z" fill="white"/>
<path d="M92.1663 160.954C90.0534 164.552 87.6987 168.516 85.362 172.414C84.686 173.597 84.0818 174.512 85.1703 175.809C90.1177 181.73 92.7716 188.975 96.6148 195.533C101.127 203.348 106.927 205.548 115.535 202.901C118.985 201.815 120.715 205.006 123.671 206.301C119.584 209.227 115.516 211.009 110.906 211.066C108.819 211.081 107.795 211.956 106.909 213.657C104.912 217.358 102.848 221.041 99.9619 224.576C100.034 220.287 100.021 216.048 100.16 211.777C100.225 209.927 99.7085 208.64 97.9763 207.602C93.579 204.987 90.9259 200.686 88.7467 196.225C84.1118 186.726 79.1503 177.642 70.1559 171.283C67.5625 169.439 69.7065 165.993 69.4114 162.539C71.6746 164.007 73.5097 164.93 74.9332 166.317C77.2179 168.508 79.1081 168.153 81.5403 166.579C85.0768 164.367 88.8225 162.715 92.1663 160.954Z" fill="white"/>
<path d="M153.877 26.9213C153.805 31.21 153.715 35.5657 153.642 39.8545C153.636 41.217 153.563 42.5617 155.063 43.3944C160.198 46.2062 162.993 51.0479 165.467 56.0187C169.954 65.2629 174.889 73.909 183.567 80.1113C186.276 82.0579 184.016 85.4014 184.517 88.6231C181.61 87.4134 179.499 85.9142 177.575 84.25C176.281 83.1852 175.271 83.2018 173.912 83.9865C169.92 86.2914 165.83 88.4265 161.637 90.6775C163.955 86.8472 166.225 82.9319 168.544 79.1015C169.202 77.9855 170.025 77.0572 168.954 75.6933C164.056 69.8573 161.366 62.7463 157.639 56.2908C152.851 47.8995 147.452 45.8067 138.304 48.5969C136.901 49.0107 131.806 46.8557 131.088 45.5146C130.402 44.3254 131.532 44.1258 132.109 43.8495C135.573 41.9058 139.167 40.2839 143.17 40.3512C145.104 40.367 146.111 39.5595 146.961 37.9924C148.976 34.2243 151.125 30.492 153.225 26.6748C153.341 26.7777 153.609 26.8495 153.877 26.9213Z" fill="white"/>
<path d="M89.7163 68.3191C89.039 70.5788 87.9514 72.226 86.5827 73.5825C84.1181 76.0814 84.6383 78.1594 86.3105 80.7615C88.442 84.061 90.0819 87.5879 92.0076 91.1195C88.0433 88.7649 84.1459 86.4282 80.1816 84.0735C79.1995 83.4513 78.2533 82.6952 77.0593 83.6677C70.9505 88.7801 63.5356 91.5322 56.7403 95.4555C49.1626 99.8871 47.0111 105.773 49.7128 114.179C50.385 116.226 49.6683 117.829 46.0802 122.109C43.3685 118.295 41.6534 114.246 41.5114 109.684C41.4111 107.647 40.6886 106.592 38.9876 105.705C35.2864 103.708 31.6032 101.644 27.1029 99.1459C32.0269 98.4549 36.056 98.96 40.1438 98.9783C42.3641 98.9989 43.8834 98.688 45.1996 96.4558C47.7289 92.1074 52.0609 89.6064 56.4372 87.4761C65.9362 82.8413 75.0381 77.8128 81.3792 68.8854C83.254 66.4439 86.7183 68.521 89.7163 68.3191Z" fill="white"/>
<path d="M187.836 156.576C187.28 154.632 187.484 152.532 187.951 150.79C188.866 147.374 187.563 145.804 184.625 144.442C181.236 142.888 178.125 140.834 175.072 138.293C179.361 138.365 183.717 138.455 188.005 138.527C189.435 138.551 190.713 138.606 191.331 136.833C193.801 130.028 198.204 124.315 202.04 118.306C205.289 113.145 206.676 107.701 203.61 101.997C202.892 100.656 202.058 99.2119 200.893 98.4689C196.733 95.7744 198.256 92.2335 198.622 88.4544C203.109 90.7338 206.734 93.2846 209.106 97.2948C210.055 98.8417 211.176 99.2139 212.758 99.2068C217.319 99.0649 221.845 99.0569 225.75 98.9543C222.28 101.184 218.538 103.628 214.747 105.986C213.625 106.691 212.422 107.159 212.424 109.026C212.444 114.847 209.722 119.647 206.598 124.338C203.094 129.646 199.407 134.833 197.286 140.87C196.457 143.161 195.762 145.488 195.401 147.904C194.487 154.265 194.402 154.314 187.836 156.576Z" fill="white"/>
<path d="M95.6257 186.652C98.5615 186.147 100.947 186.355 103.327 186.849C105.355 187.321 106.544 186.634 107.449 184.866C109.482 181.031 111.631 177.299 114.449 173.746C114.377 178.035 114.305 182.323 114.148 186.661C114.088 188.225 114.1 189.52 115.989 190.242C121.825 192.308 126.811 195.942 131.887 199.241C134.699 201.071 137.512 202.902 140.83 203.647C146.042 204.828 150.855 203.749 154.018 199.714C157.043 195.929 160.272 197.009 164.1 197.461C162.026 201.716 159.542 205.358 155.702 207.632C153.748 208.76 153.389 210.1 153.423 212.119C153.619 216.48 153.596 220.854 153.631 224.74C151.303 221.101 148.896 217.225 146.421 213.331C145.814 212.378 145.548 211.23 143.966 211.237C137.001 211.237 131.426 207.661 125.971 203.902C118.271 198.608 110.095 194.55 100.59 193.583C97.1995 193.105 97.7406 188.942 95.6257 186.652Z" fill="white"/>
<path d="M78.8852 113.309C74.5295 113.219 70.2408 113.147 65.885 113.057C64.5225 113.051 63.1778 112.978 62.4922 114.732C60.0224 121.538 55.6196 127.251 51.8507 133.278C48.4623 138.688 47.1734 144.302 50.6063 150.248C51.1948 151.268 51.8323 152.372 52.7474 152.976C56.9618 155.47 55.7735 159.1 55.2683 163.129C50.9463 161.038 47.3217 158.487 44.9988 154.562C43.902 152.76 42.6471 152.352 40.7617 152.421C36.4192 152.55 32.0276 152.594 27.484 152.669C31.3423 150.328 34.8967 148.049 38.6162 145.959C40.4669 144.947 41.5628 143.804 41.6013 141.517C41.7513 135.598 44.8442 130.754 48.1021 126.098C53.7051 118.05 58.2721 109.581 59.0793 99.6013C59.2014 98.3416 59.7828 97.7794 60.7662 97.3249C62.4112 96.5451 64.0071 95.6803 65.9919 94.7043C66.6413 97.1041 66.3528 99.2526 65.8813 101.28C65.1764 104.179 66.144 105.659 68.765 106.864C72.2701 108.521 75.5824 110.629 79.0157 112.554C78.9618 112.755 78.89 113.023 78.8852 113.309Z" fill="white"/>
<path d="M157.765 64.8692C155.437 65.2506 153.253 65.0961 151.158 64.6066C148.728 64.0274 147.32 64.7271 146.223 66.9462C144.378 70.6163 142.265 74.2145 139.803 78.5808C139.129 73.5898 139.537 69.3908 139.707 65.272C139.799 62.7837 139.046 61.5766 136.688 60.7294C130.485 58.4212 125.272 54.2959 119.745 50.8046C115.085 47.8326 110.217 46.1693 104.679 48.3473C102.833 49.0733 100.818 49.8974 99.797 51.5625C97.2725 55.625 93.655 54.6556 89.7108 54.1014C91.6683 49.7435 94.2682 46.2038 98.1934 43.881C99.9952 42.7841 100.403 41.5292 100.334 39.6439C100.223 35.2343 100.197 30.7757 100.108 27.0899C102.386 30.6443 104.879 34.4714 107.287 38.3477C107.992 39.4699 108.549 40.3372 110.13 40.3302C115.8 40.3414 120.55 42.9785 125.126 45.9995C130.616 49.6248 135.986 53.4331 142.31 55.5583C144.35 56.2487 146.538 57.194 148.625 57.1786C153.91 57.0151 156.52 59.8685 157.765 64.8692Z" fill="white"/>
</g>
</svg>
