<svg width="252" height="251" viewBox="0 0 252 251" fill="none" xmlns="http://www.w3.org/2000/svg">
<g opacity="0.1">
<path d="M122.716 57.2344C120.134 59.1206 117.717 60.1203 115.234 61.1021C113.714 61.6973 113.196 62.5612 113.252 64.2233C113.46 68.7908 113.451 73.3714 113.534 78.4066C111.021 74.1527 108.668 70.3713 106.552 66.51C105.592 64.7488 104.63 64.0614 102.527 64.4288C96.0999 65.4281 89.6533 64.6317 83.2638 64.4235C72.2806 63.9871 68.035 67.0031 65.0237 77.4396C64.0617 80.7625 60.6576 80.6381 58.0265 82.4396C57.7382 77.6358 57.9259 73.4609 60.0381 69.5868C61.284 67.3426 60.925 65.7425 59.7021 63.6245C57.581 60.0483 55.8655 56.2944 54.2431 52.9952C57.3822 54.9105 61.2383 57.0895 64.974 59.4512C66.568 60.4512 67.8554 60.7245 69.7013 59.7153C74.8335 56.8652 80.5678 57.1127 86.2485 57.5606C95.9836 58.3788 105.52 58.0694 114.65 53.9274C118.119 52.2072 119.678 56.2772 122.716 57.2344Z" fill="black"/>
<path d="M173.377 112.991C177.564 110.46 181.448 107.992 185.43 105.693C186.616 105.008 187.383 104.283 187.158 102.719C185.963 95.9533 186.849 89.1725 187.079 82.431C187.511 71.733 184.281 67.2154 174.125 64.494C172.054 63.939 171.285 62.8019 169.411 57.5016C174.014 57.1596 178.438 57.4857 182.41 59.7674C184.222 60.7543 185.453 60.4394 187.129 59.5279C190.924 57.3937 194.865 55.5136 198.418 53.7444C196.708 56.652 194.734 60.2767 192.511 63.763C191.185 65.771 190.84 67.3257 192.076 69.6621C194.726 74.7405 194.43 80.3902 193.951 85.9193C193.168 95.5208 193.344 105.021 197.673 113.987C198.224 115.137 198.174 116.126 197.451 117.222C196.317 118.78 195.299 120.441 194.112 122.199C192.501 120.192 191.546 118.146 190.778 115.935C189.961 113.639 188.767 112.746 186.214 112.922C181.95 113.068 177.69 112.929 173.377 112.991Z" fill="black"/>
<path d="M162.753 182.616C164.096 180.541 164.95 178.693 166.23 177.389C168.755 174.914 168.169 172.824 166.435 170.21C164.375 166.937 162.673 163.402 160.819 159.897C164.706 162.228 168.66 164.576 172.547 166.907C173.527 167.528 174.489 168.215 175.68 167.245C181.67 162.262 188.999 159.499 195.625 155.617C203.419 151.117 205.614 145.331 202.906 136.728C202.235 134.687 202.999 133.172 206.578 128.904C209.283 132.708 210.993 136.747 211.135 141.296C211.168 143.31 211.955 144.381 213.652 145.265C217.361 147.19 221.017 149.315 224.561 152.127C220.55 152.126 216.455 152.175 212.499 151.974C210.235 151.869 208.769 152.264 207.456 154.49C204.969 158.694 200.867 161.175 196.587 163.251C187.028 167.922 177.816 172.902 171.371 181.989C169.55 184.509 166.095 182.437 162.753 182.616Z" fill="black"/>
<path d="M78.57 137.786C74.7218 140.12 71.0741 142.509 67.2796 144.643C65.4336 145.652 64.6616 146.663 65.042 148.985C66.0544 155.63 65.2043 162.277 64.9245 168.934C64.5383 178.928 68.115 183.753 77.8213 186.282C79.2913 186.676 82.6234 191.078 82.5147 192.553C82.4418 193.894 81.4265 193.407 80.7046 193.429C76.9974 193.366 73.2413 193.219 70.0354 191.286C67.9427 190.009 66.3247 190.435 64.3582 191.627C60.7152 193.73 56.8587 195.561 53.4389 197.366C55.39 194.093 57.5333 190.371 59.8102 186.684C60.8281 185.023 61.2709 183.638 60.1459 181.69C57.3448 176.642 57.5565 171.041 57.9686 165.494C58.7557 155.608 58.6337 145.907 54.2066 136.772C53.7043 135.706 53.8034 134.802 54.4061 133.889C55.4908 132.246 56.5576 130.67 57.7629 128.845C59.605 131.057 60.5867 133.54 61.5196 135.938C62.2127 137.628 63.1612 138.097 64.8902 138.059C69.4577 137.851 73.8868 137.891 78.57 137.786Z" fill="black"/>
<path d="M129.157 193.306C131.155 192.266 132.582 191.216 134.2 190.79C138.042 189.815 139.021 187.499 138.597 183.733C138.138 180.101 138.401 176.447 138.415 172.655C140.847 176.673 143.267 180.472 145.45 184.352C146.41 186.113 147.474 186.684 149.56 186.384C156.205 185.371 162.852 186.222 169.509 186.501C179.57 186.906 184.462 183.347 186.907 173.689C187.735 170.331 190.908 170.25 193.244 169.014C194.394 168.463 194.134 169.968 194.089 170.672C194.075 174.464 193.825 178.336 191.79 181.658C190.718 183.519 190.997 184.883 192.024 186.662C194.243 190.408 196.123 194.349 197.959 197.92C194.62 195.951 190.781 193.705 187.046 191.344C185.452 190.344 184.147 190.137 182.367 191.164C177.168 193.996 171.501 193.767 165.82 193.319C156.085 192.501 146.451 192.641 137.45 197.104C136.215 197.704 135.279 197.453 134.251 196.748C132.693 195.614 131.165 194.632 129.157 193.306Z" fill="black"/>
<path d="M91.3073 160.535C89.1999 164.124 86.8513 168.078 84.5207 171.965C83.8465 173.145 83.2438 174.058 84.3295 175.352C89.264 181.257 91.911 188.483 95.7442 195.025C100.244 202.819 106.03 205.014 114.615 202.373C118.056 201.289 119.781 204.473 122.729 205.764C118.653 208.682 114.596 210.46 109.998 210.517C107.917 210.532 106.895 211.404 106.011 213.101C104.019 216.792 101.961 220.466 99.0826 223.992C99.1545 219.714 99.1418 215.485 99.2806 211.226C99.3452 209.381 98.8298 208.097 97.1022 207.061C92.7163 204.454 90.0702 200.164 87.8966 195.715C83.2738 186.24 78.3253 177.18 69.3543 170.838C66.7676 168.999 68.9061 165.561 68.6117 162.117C70.869 163.581 72.6993 164.501 74.1191 165.884C76.3979 168.07 78.2831 167.716 80.709 166.146C84.2362 163.94 87.9722 162.291 91.3073 160.535Z" fill="black"/>
<path d="M152.852 26.8523C152.78 31.1299 152.69 35.4743 152.618 39.7518C152.612 41.1108 152.539 42.452 154.036 43.2825C159.156 46.087 161.944 50.916 164.412 55.8739C168.888 65.094 173.81 73.7175 182.465 79.9037C185.167 81.8452 182.913 85.18 183.413 88.3932C180.513 87.1867 178.407 85.6914 176.489 84.0316C175.198 82.9695 174.191 82.9862 172.835 83.7688C168.854 86.0677 164.774 88.1972 160.592 90.4424C162.904 86.622 165.168 82.7169 167.481 78.8966C168.137 77.7834 168.958 76.8575 167.89 75.4972C163.005 69.6765 160.322 62.584 156.605 56.1452C151.829 47.7759 146.444 45.6885 137.32 48.4714C135.92 48.8842 130.839 46.7348 130.123 45.3972C129.438 44.2111 130.566 44.012 131.141 43.7364C134.596 41.7978 138.181 40.1801 142.173 40.2473C144.103 40.263 145.106 39.4576 145.955 37.8946C147.964 34.1363 150.108 30.4138 152.202 26.6065C152.318 26.7091 152.585 26.7807 152.852 26.8523Z" fill="black"/>
<path d="M88.8575 68.1423C88.182 70.3961 87.0972 72.039 85.7321 73.392C83.2739 75.8843 83.7928 77.9569 85.4606 80.5522C87.5866 83.8432 89.2221 87.3608 91.1428 90.8833C87.1888 88.5348 83.3017 86.2041 79.3477 83.8556C78.3681 83.2351 77.4244 82.4809 76.2335 83.4509C70.1407 88.55 62.7451 91.2949 55.9675 95.2079C48.4095 99.628 46.2637 105.498 48.9584 113.883C49.6287 115.925 48.9139 117.523 45.3352 121.792C42.6306 117.988 40.9199 113.949 40.7783 109.4C40.6783 107.368 39.9577 106.315 38.261 105.431C34.5695 103.439 30.8959 101.38 26.4074 98.8887C31.3186 98.1995 35.3371 98.7034 39.4142 98.7216C41.6288 98.7421 43.1441 98.432 44.4568 96.2056C46.9796 91.8686 51.3003 89.3741 55.6651 87.2494C65.1394 82.6266 74.2175 77.6113 80.5421 68.7071C82.4121 66.272 85.8674 68.3437 88.8575 68.1423Z" fill="black"/>
<path d="M186.726 156.168C186.172 154.229 186.375 152.135 186.84 150.398C187.753 146.991 186.454 145.425 183.524 144.067C180.144 142.517 177.04 140.468 173.996 137.933C178.273 138.005 182.617 138.095 186.895 138.167C188.321 138.191 189.595 138.246 190.212 136.478C192.676 129.69 197.067 123.992 200.893 117.999C204.134 112.852 205.517 107.421 202.458 101.732C201.743 100.395 200.911 98.9543 199.749 98.2132C195.599 95.5258 197.119 91.9941 197.484 88.2249C201.959 90.4983 205.575 93.0425 207.94 97.0422C208.888 98.5851 210.006 98.9563 211.583 98.9492C216.133 98.8076 220.646 98.7997 224.541 98.6974C221.08 100.921 217.348 103.359 213.567 105.711C212.447 106.414 211.248 106.88 211.25 108.743C211.27 114.549 208.555 119.336 205.439 124.015C201.944 129.309 198.266 134.482 196.152 140.504C195.324 142.789 194.631 145.11 194.272 147.52C193.36 153.864 193.275 153.913 186.726 156.168Z" fill="black"/>
<path d="M94.7546 186.166C97.6827 185.662 100.062 185.869 102.436 186.362C104.459 186.833 105.645 186.148 106.547 184.384C108.575 180.559 110.718 176.837 113.529 173.293C113.457 177.571 113.385 181.848 113.229 186.175C113.169 187.734 113.181 189.026 115.065 189.746C120.886 191.807 125.859 195.431 130.921 198.721C133.726 200.547 136.531 202.373 139.841 203.117C145.04 204.295 149.84 203.218 152.995 199.193C156.012 195.418 159.232 196.496 163.05 196.946C160.982 201.19 158.505 204.823 154.674 207.091C152.726 208.216 152.368 209.553 152.401 211.567C152.596 215.916 152.573 220.278 152.609 224.155C150.287 220.525 147.886 216.659 145.417 212.775C144.812 211.825 144.546 210.679 142.969 210.686C136.022 210.687 130.461 207.12 125.021 203.371C117.34 198.09 109.187 194.043 99.7057 193.079C96.3243 192.602 96.864 188.45 94.7546 186.166Z" fill="black"/>
<path d="M78.0574 113.013C73.713 112.923 69.4355 112.852 65.0911 112.762C63.7321 112.756 62.391 112.683 61.7071 114.433C59.2438 121.221 54.8524 126.919 51.0934 132.93C47.7139 138.326 46.4283 143.926 49.8522 149.856C50.4392 150.873 51.0751 151.974 51.9878 152.577C56.1911 155.064 55.006 158.685 54.5021 162.704C50.1913 160.618 46.5762 158.074 44.2594 154.158C43.1654 152.361 41.9138 151.954 40.0333 152.024C35.7021 152.152 31.3219 152.196 26.7902 152.271C30.6384 149.936 34.1836 147.663 37.8934 145.578C39.7393 144.568 40.8323 143.429 40.8707 141.148C41.0204 135.244 44.1051 130.413 47.3546 125.769C52.9429 117.742 57.498 109.295 58.3031 99.3414C58.4249 98.085 59.0048 97.5242 59.9857 97.0709C61.6264 96.2931 63.2181 95.4306 65.1977 94.4571C65.8454 96.8507 65.5577 98.9936 65.0874 101.016C64.3843 103.907 65.3495 105.383 67.9636 106.585C71.4595 108.238 74.7633 110.34 78.1875 112.26C78.1338 112.461 78.0622 112.728 78.0574 113.013Z" fill="black"/>
<path d="M156.732 64.7C154.41 65.0804 152.231 64.9263 150.142 64.4381C147.719 63.8604 146.314 64.5583 145.22 66.7716C143.38 70.4321 141.272 74.021 138.816 78.3759C138.145 73.3979 138.551 69.2099 138.721 65.1018C138.813 62.62 138.061 61.416 135.71 60.571C129.523 58.2688 124.324 54.1543 118.812 50.6721C114.163 47.7079 109.308 46.0489 103.785 48.2212C101.944 48.9453 99.9331 49.7673 98.9152 51.4281C96.3972 55.4799 92.7891 54.5131 88.8552 53.9603C90.8076 49.6137 93.4007 46.0833 97.3158 43.7665C99.1128 42.6725 99.5198 41.4209 99.4507 39.5405C99.3401 35.1424 99.3143 30.6954 99.2251 27.0192C101.498 30.5643 103.984 34.3815 106.386 38.2476C107.088 39.3669 107.644 40.232 109.222 40.225C114.876 40.2362 119.614 42.8664 124.178 45.8796C129.654 49.4954 135.01 53.2937 141.317 55.4134C143.352 56.102 145.535 57.0448 147.616 57.0295C152.887 56.8665 155.49 59.7124 156.732 64.7Z" fill="black"/>
</g>
</svg>
