<svg width="553" height="552" viewBox="0 0 553 552" fill="none" xmlns="http://www.w3.org/2000/svg">
<g opacity="0.1">
<path d="M305.349 144.669C299.467 146.944 294.353 147.615 289.122 148.218C285.922 148.576 284.494 149.957 283.752 153.152C281.818 161.96 279.461 170.681 277.049 180.316C274.433 170.93 271.882 162.525 269.821 154.088C268.89 150.243 267.409 148.442 263.214 148.068C250.461 146.692 238.586 141.884 226.52 138.225C205.818 131.787 196.19 135.366 185.126 153.711C181.597 159.551 175.175 157.576 169.243 159.665C171.146 150.366 173.635 142.508 179.637 136.206C183.156 132.566 183.289 129.335 182.04 124.676C179.825 116.78 178.473 108.753 177.066 101.639C182.069 106.89 188.303 113.01 194.214 119.416C196.74 122.135 199.053 123.313 203.085 122.333C214.317 119.523 225.115 122.921 235.709 126.675C253.838 133.203 272.162 137.481 291.671 134.251C299.158 132.744 300.051 141.294 305.349 144.669Z" fill="black"/>
<path d="M373.408 276.751C382.676 274.068 391.336 271.348 400.095 269.001C402.704 268.302 404.536 267.312 404.905 264.217C406.082 250.718 411.232 238.252 415.113 225.527C421.396 205.366 417.549 195.111 399.59 184.742C395.927 182.628 395.042 180.069 394.177 169.014C403.122 170.713 411.384 173.592 417.786 179.967C420.735 182.772 423.239 182.8 426.899 181.92C435.217 179.79 443.685 178.221 451.358 176.664C446.616 181.33 441.005 187.228 434.99 192.735C431.439 195.884 429.988 198.67 431.15 203.751C433.606 214.779 430.157 225.391 426.422 235.68C420.031 253.572 415.516 271.761 419.187 291.052C419.65 293.524 419.049 295.383 417.112 297.101C414.157 299.49 411.37 302.135 408.21 304.879C406.166 300.233 405.391 295.847 405.056 291.242C404.671 286.452 402.854 284.142 397.9 283.172C389.701 281.275 381.657 278.836 373.408 276.751Z" fill="black"/>
<path d="M317.618 403.971C321.237 400.705 323.807 397.619 326.911 395.789C332.985 392.363 332.936 388.082 330.966 382.218C328.713 374.931 327.275 367.327 325.532 359.704C331.748 366.128 338.082 372.621 344.298 379.045C345.847 380.727 347.328 382.528 350.092 381.288C364.048 374.852 379.42 373.329 394.025 369.316C411.171 364.722 418.306 354.82 417.539 337.048C417.304 332.817 419.532 330.322 428.528 324.016C431.739 332.644 432.936 341.212 430.884 349.952C429.919 353.806 430.873 356.247 433.653 358.798C439.738 364.358 445.617 370.274 450.933 377.438C443.293 375.391 435.467 373.393 428.032 370.991C423.773 369.635 420.778 369.638 417.141 373.21C410.257 379.948 401.175 382.581 391.961 384.351C371.366 388.371 351.274 393.156 334.357 407.177C329.602 411.048 324.077 405.337 317.618 403.971Z" fill="black"/>
<path d="M180.124 275.594C171.601 278.077 163.432 280.765 155.114 282.894C151.082 283.875 149.095 285.406 148.635 290.024C147.171 303.2 142.159 315.429 138.228 327.968C132.39 346.81 136.741 357.829 153.941 367.603C156.541 369.103 160.642 379.19 159.682 381.944C158.858 384.462 157.173 383.016 155.786 382.689C148.756 380.677 141.675 378.48 136.554 373.16C133.219 369.659 129.919 369.645 125.565 370.911C117.551 373.059 109.269 374.579 101.832 376.272C107.22 371.033 113.204 365.035 119.423 359.174C122.21 356.529 123.761 354.116 122.612 349.83C119.852 338.784 123.115 328.222 126.732 317.865C133.278 299.432 137.997 280.889 134.227 261.225C133.814 258.939 134.464 257.266 136.078 255.835C138.983 253.259 141.82 250.801 145.048 247.939C147.428 253.094 148.031 258.325 148.584 263.371C149.042 266.943 150.61 268.321 153.923 269.131C162.731 271.066 171.148 273.404 180.124 275.594Z" fill="black"/>
<path d="M248.156 407.186C252.492 406.224 255.747 404.952 259.047 404.967C266.864 405.07 269.911 401.157 271.027 393.767C272.006 386.613 274.372 379.787 276.333 372.57C278.917 381.466 281.587 389.939 283.766 398.444C284.696 402.289 286.432 403.921 290.559 404.414C303.735 405.877 315.964 410.89 328.503 414.821C347.464 420.726 358.601 416.444 368.188 399.293C371.48 393.317 377.566 394.783 382.648 393.621C385.12 393.158 383.856 395.894 383.41 397.212C381.449 404.429 378.997 411.678 373.422 416.967C370.431 419.966 370.266 422.706 371.315 426.62C373.63 434.888 375.2 443.357 376.875 451.098C371.518 445.642 365.352 439.404 359.441 432.998C356.915 430.279 354.533 429.219 350.62 430.268C339.269 433.009 328.589 429.679 317.996 425.926C299.867 419.397 281.442 414.746 262.015 418.654C259.356 419.166 257.702 418.211 256.102 416.343C253.712 413.388 251.304 410.737 248.156 407.186Z" fill="black"/>
<path d="M192.785 325.434C186.938 331.196 180.445 337.53 174.021 343.745C172.134 345.649 170.52 347.08 171.928 350.099C178.314 363.868 179.668 378.986 183.632 393.405C188.226 410.551 198.127 417.685 215.831 417.036C222.94 416.73 224.601 423.675 229.559 427.64C220.304 431.119 211.667 432.434 202.878 430.195C198.906 429.162 196.514 430.302 193.964 433.083C188.285 439.099 182.488 445.047 175.205 450.294C177.525 442.182 179.66 434.119 182.099 426.075C183.163 422.594 182.837 419.885 180.074 417.029C173.05 409.823 170.198 400.3 168.329 390.714C164.358 370.304 159.556 350.518 145.703 333.855C141.714 329.031 147.542 323.574 148.74 316.862C152.293 320.803 155.31 323.491 157.309 326.85C160.534 332.178 164.307 332.466 169.73 330.713C177.576 328.311 185.535 327.077 192.785 325.434Z" fill="black"/>
<path d="M378.271 102.173C375.95 110.286 373.561 118.516 371.241 126.629C370.535 129.215 369.712 131.732 372.138 134.079C380.462 142.035 383.309 152.658 385.478 163.363C389.299 183.213 394.274 202.154 407.605 218.358C411.762 223.436 405.765 228.638 405.077 235.015C400.169 231.236 396.921 227.313 394.113 223.171C392.196 220.489 390.269 220.007 387.287 220.806C378.528 223.153 369.668 225.127 360.555 227.269C366.911 221.172 373.217 214.888 379.573 208.79C381.392 207.005 383.428 205.66 382.088 202.523C375.752 188.94 374.262 174.059 370.466 159.895C365.641 141.512 356.448 134.787 337.644 135.431C334.767 135.503 326.184 128.814 325.503 125.9C324.804 123.291 327.053 123.488 328.29 123.256C335.863 121.327 343.517 120.075 351.089 122.241C354.756 123.256 357.079 122.234 359.494 119.689C365.241 113.555 371.224 107.557 377.158 101.373C377.326 101.628 377.798 101.9 378.271 102.173Z" fill="black"/>
<path d="M235.286 148.168C232.848 152.117 229.943 154.693 226.652 156.573C220.696 160.067 220.627 164.28 222.479 170.076C224.85 177.431 226.17 184.967 228.031 192.658C221.697 186.166 215.481 179.741 209.147 173.249C207.598 171.566 206.185 169.648 203.421 170.888C189.211 177.492 173.72 178.946 158.811 182.941C142.156 187.504 135.071 197.592 135.925 214.941C136.16 219.173 133.982 221.854 124.985 228.159C121.774 219.532 120.577 210.964 122.629 202.224C123.476 198.302 122.641 195.929 119.86 193.378C113.844 187.699 107.896 181.902 100.617 174.864C110.325 176.058 117.723 179.069 125.481 181.185C129.69 182.354 132.735 182.537 136.372 178.966C143.392 171.991 152.897 169.445 162.297 167.625C182.706 163.654 202.561 158.734 219.156 144.999C223.961 141.314 229.486 147.025 235.286 148.168Z" fill="black"/>
<path d="M376.8 365.825C376.733 361.848 378.188 357.963 379.962 354.891C383.441 348.865 381.765 345.219 376.876 341.136C371.227 336.457 366.361 330.97 361.855 324.587C369.967 326.907 378.197 329.296 386.31 331.617C389.014 332.39 391.414 333.146 393.492 330.092C401.65 318.418 412.924 309.804 423.272 300.339C432.074 292.188 437.482 282.55 434.559 270.149C433.878 267.236 433.029 264.067 431.193 262.062C424.66 254.824 429.357 248.872 431.977 241.878C439.343 248.493 444.931 255.185 447.396 264.013C448.413 267.436 450.354 268.714 453.362 269.506C462.102 271.558 470.705 273.847 478.177 275.64C470.449 278.11 462.094 280.849 453.69 283.4C451.199 284.168 448.676 284.444 447.729 287.994C444.803 299.065 437.188 306.798 428.863 314.122C419.502 322.423 409.854 330.402 402.752 340.794C400.01 344.725 397.504 348.792 395.589 353.2C390.613 364.821 390.426 364.871 376.8 365.825Z" fill="black"/>
<path d="M186.266 376.025C192.102 376.559 196.529 378.169 200.801 380.32C204.413 382.249 207.022 381.55 209.641 378.651C215.457 372.398 221.44 366.401 228.605 361.085C226.284 369.197 223.964 377.31 221.457 385.472C220.547 388.413 219.91 390.88 223.131 393.213C233.17 400.111 240.793 409.554 248.758 418.406C253.17 423.316 257.582 428.227 263.508 431.333C272.81 436.231 282.505 436.63 290.57 430.573C298.244 424.922 303.829 428.619 310.873 431.425C304.767 438.455 298.193 444.112 289.738 446.477C285.451 447.625 284.087 449.988 283.122 453.842C281.274 462.228 279.004 470.527 277.092 477.93C274.522 469.83 271.92 461.238 269.201 452.579C268.533 450.461 268.611 448.143 265.603 447.351C252.368 443.806 243.594 434.172 235.144 424.252C223.208 410.271 209.74 398.399 192.17 391.721C185.971 389.088 189.119 381.453 186.266 376.025Z" fill="black"/>
<path d="M191.796 228.138C183.566 225.749 175.454 223.428 167.223 221.039C164.637 220.334 162.119 219.51 159.923 222.496C151.765 234.17 140.49 242.784 130.261 252.316C121.067 260.872 115.76 270.883 119.256 283.929C119.855 286.166 120.504 288.588 121.935 290.202C128.674 297.086 124.567 303.38 121.556 310.778C114.408 304.604 108.82 297.911 106.405 289.27C105.238 285.288 103.061 283.874 99.4434 283.046C91.1263 281.079 82.7594 278.927 74.0878 276.756C82.6109 274.273 90.5248 271.753 98.6568 269.673C102.689 268.693 105.353 267.08 106.59 262.754C109.889 251.583 118.232 243.954 126.793 236.766C141.537 224.326 154.527 210.559 161.142 192.007C162.015 189.676 163.406 188.904 165.506 188.541C169.029 187.896 172.502 187.066 176.77 186.222C176.782 191.112 175.14 195.048 173.212 198.661C170.396 203.809 171.482 207.114 175.848 210.738C181.665 215.671 186.885 221.364 192.429 226.77C192.224 227.124 191.951 227.597 191.796 228.138Z" fill="black"/>
<path d="M366.344 176.259C361.727 175.799 357.655 174.393 353.924 172.397C349.602 170.059 346.57 170.672 343.355 174.329C337.981 180.364 332.134 186.125 325.232 193.168C326.494 183.342 329.406 175.57 331.826 167.831C333.269 163.15 332.451 160.472 328.403 157.662C317.792 150.118 309.987 139.625 301.263 130.178C293.921 122.158 285.518 116.519 273.887 117.838C270.009 118.277 265.76 118.817 262.973 121.461C256.107 127.895 249.727 124.211 242.515 121.15C248.453 113.866 255.195 108.464 263.836 106.049C267.818 104.882 269.233 102.705 270.061 99.0876C272.095 90.6524 274.316 82.1672 276.023 75.1182C278.543 83.0322 281.331 91.5735 283.933 100.165C284.7 102.656 285.318 104.588 288.326 105.379C299.093 108.287 306.776 115.717 313.932 123.787C322.52 133.471 330.784 143.441 341.718 150.699C345.244 153.05 348.92 155.96 352.892 156.993C363.018 159.373 366.525 166.124 366.344 176.259Z" fill="black"/>
</g>
</svg>
