<svg width="1941" height="111" viewBox="0 0 1941 111" fill="none" xmlns="http://www.w3.org/2000/svg">
<path d="M499.974 75.8233C499.117 74.4318 497.807 74.8915 497.658 75.8874C497.21 78.8259 495.183 77.7389 493.837 77.4589C490.298 76.7425 486.958 77.0546 483.62 78.4047C481.539 79.2482 479.559 78.1094 477.528 77.9618C473.217 77.58 468.986 77.8368 464.859 79.2255C464.47 79.3435 464.244 79.75 463.438 80.4322C467.459 80.9271 471.08 80.3047 474.735 82.3994C470.88 83.2804 467.49 81.5682 463.755 82.8882C467.463 84.0411 470.982 84.3629 474.308 83.755C477.976 83.0808 481.518 82.8578 485.246 83.4165C488.625 83.8935 492.046 83.2314 495.154 82.1893C497.434 81.3854 497.381 82.3272 497.556 83.9005C497.727 85.3751 498.046 86.8424 498.315 88.3122C498.849 88.1377 499.191 88.0715 499.236 87.9705C499.819 82.7514 502.941 82.0052 507.252 83.3757C508.253 83.6727 509.383 83.5678 509.792 82.8557C511.378 79.9603 513.735 80.7346 516.075 81.1636C516.173 81.1588 516.326 81.2501 516.424 81.2453C525.652 80.2491 535.036 81.4204 544.728 78.8196C544.805 80.3977 544.887 82.0744 544.967 83.7017C544.998 84.3428 544.748 85.2943 545.689 85.3471C546.53 85.4047 546.686 84.5567 546.953 83.9504C546.997 83.8494 546.99 83.7014 547.034 83.6004C548.88 78.9621 548.969 78.76 553.833 80.3506C556.19 81.1248 557.108 80.7337 557.19 78.357C557.223 77.0207 557.6 76.6562 559.096 76.9783C564.335 78.155 569.546 77.7512 574.902 77.2909C579.667 76.8596 584.556 77.9545 589.32 76.4852C590.925 76.011 591.138 77.3353 591.346 78.5609C591.667 80.0776 590.917 81.8939 592.552 83.0495C594.471 81.9174 593.468 78.5557 595.919 78.2378C597.881 77.9933 599.982 78.5824 601.976 78.979C603.223 79.2639 604.245 78.9666 604.536 77.8648C605.169 75.6587 606.306 75.7019 608.297 76.0492C611.828 76.6175 615.391 76.8383 618.939 75.7251C621.758 74.8455 624.681 76.0863 627.585 75.9439C628.274 75.9101 629.005 75.726 629.653 75.8425C631.742 76.185 633.94 73.7045 635.548 75.3064C636.691 76.4861 636.612 78.9122 637.105 80.9148C637.536 80.6465 637.925 80.5285 638.06 80.2747C638.918 78.6508 638.491 75.953 640.187 75.3261C641.787 74.7533 644.044 75.483 645.891 75.9362C647.04 76.2259 648.335 76.459 648.683 75.5027C649.722 72.5353 651.606 73.7282 653.637 73.8758C656.26 74.0438 658.888 74.3104 661.579 73.8324C664.562 73.2907 667.614 73.1411 670.796 73.6277C674.576 74.2333 678.544 73.6433 682.609 72.0105C682.727 74.4269 682.826 76.4488 682.925 78.4707C684.453 78.4452 684.25 77.3182 684.514 76.6626C686.337 72.5692 687.345 71.9761 691.84 73.0903C693.489 73.5038 694.785 73.7863 695.376 71.7306C695.971 69.7736 697.575 70.2881 698.825 70.6223C703.675 71.9169 708.393 71.5373 713.228 70.5094C716.401 69.81 719.627 71.1843 722.901 70.5295C724.806 70.1395 726.672 69.9491 728.182 68.5404C725.114 69.3829 721.996 69.1897 718.827 68.9497C721.695 68.0675 724.516 67.2372 727.481 66.3009C725.732 64.8542 724.123 64.2411 721.098 64.9331C715.241 66.2584 709.442 66.7404 703.482 65.9451C701.496 65.6964 699.487 65.9926 697.761 67.0165C695.458 68.3652 694.908 67.2058 694.76 65.1863C694.607 63.0682 694.408 61.0018 693.472 59.0209C692.031 59.833 692.106 61.3618 691.871 62.6091C691.163 66.3018 689.257 67.6806 685.734 66.2714C684.324 65.6979 683.623 65.4851 683.1 66.8949C682.702 67.8536 682.196 67.5818 681.448 67.4208C676.46 66.3306 671.603 66.9147 666.851 68.6307C666.172 68.8617 665.642 69.1349 664.89 68.8752C660.326 67.3688 655.762 67.8891 651.237 69.1985C649.388 69.734 648.874 69.3143 648.78 67.391C648.679 65.3198 648.085 63.2728 647.684 61.1174C645.712 62.1533 646.101 64.0621 645.733 65.6126C644.956 68.9132 643.043 70.144 640.059 68.659C638.541 67.893 637.633 67.4926 636.676 69.1214C635.994 70.2918 634.751 70.1056 633.853 69.9024C629.958 68.9564 626.255 69.9289 622.604 70.9482C620.9 71.4272 619.39 70.8092 617.898 70.5857C614.121 70.0294 610.471 70.0601 606.992 71.5653C604.963 72.4557 604.75 71.1315 604.446 69.96C603.895 67.7626 603.538 65.5062 603.026 63.1091C600.807 64.1571 601.157 66.2655 601.079 67.7029C600.943 70.9721 599.016 70.9183 596.781 70.6324C594.697 70.3885 592.668 69.2522 590.741 71.2251C590.27 71.6931 588.932 71.561 588.036 71.4071C584.101 70.6608 580.217 70.9501 576.369 71.9791C574.373 72.5219 572.237 72.2312 570.15 71.938C566.08 71.4455 562.17 72.2303 558.513 74.1398C562.682 74.6274 566.662 72.2573 571.352 73.3126C567.233 74.8492 563.304 75.2396 559.324 75.583C557.653 75.7144 558.732 74.5739 558.605 73.987C556.629 72.9469 557.919 71.0547 557.504 69.6414C557.094 68.3268 556.83 66.9557 556.514 65.5376C554.441 66.5291 554.69 68.593 554.22 70.099C553.188 73.2144 551.467 74.3369 548.628 72.7954C546.955 71.8887 545.846 71.3994 544.817 73.5754C544.104 75.1428 542.384 75.2765 540.834 74.8582C538.186 74.1971 535.612 74.0267 532.983 74.7488C528.891 75.8392 524.825 76.434 520.531 75.4087C517.485 74.6682 514.324 74.6254 511.615 76.7356C510.235 73.7384 510.77 70.5485 509.003 67.7186C507.791 69.1621 507.617 70.6536 507.244 72.1055C506.161 76.212 504.135 77.1517 499.812 75.5346C499.753 78.3552 500.98 81.261 498.907 84.2791C498.523 82.469 498.108 81.0558 497.989 79.628C497.87 78.2003 497.429 76.2447 499.974 75.8233ZM677.241 68.1708C670.385 71.2751 663.106 72.7689 655.609 72.8399C662.962 71.8368 669.687 68.0962 677.241 68.1708ZM565.048 76.5876C571.573 75.8228 577.381 71.4846 584.796 72.7524C578.035 74.7645 571.828 76.9967 565.048 76.5876ZM610.316 74.9615C613.771 74.9898 616.97 73.795 620.286 72.9898C623.506 72.2387 626.589 70.7034 630.556 71.1022C623.865 74.5444 617.175 74.9713 610.316 74.9615ZM723.073 65.9733C717.44 67.8313 711.988 70.3724 705.838 69.7347C711.491 68.2712 717.062 66.1691 723.073 65.9733ZM522.36 77.4941C518.746 78.2644 515.222 79.8707 510.694 79.104C514.631 75.8462 518.514 76.5457 522.36 77.4941ZM487.394 81.9271C482.063 81.8918 476.806 81.3586 471.391 79.5974C477.248 78.2722 482.241 80.499 487.394 81.9271ZM508.375 82.1343C507.505 78.4695 507.231 74.8743 509.09 71.5206C509.613 75.153 511.125 78.8357 508.375 82.1343ZM671.544 71.762C674.363 70.8823 677.182 70.0027 680.055 69.2192C680.737 69.0375 681.902 68.6343 682.243 69.5568C682.697 70.7704 681.424 70.9811 680.604 71.3673C677.706 72.6463 674.665 72.0045 671.544 71.762ZM602.288 67.1987C604.345 69.9155 603.461 73.0237 604.283 75.7022C604.513 76.3829 603.685 77.6099 602.649 77.6113C601.418 77.6716 601.803 76.4664 601.72 75.7784C601.391 73.0757 601.948 70.3297 602.288 67.1987ZM496.758 79.6884C490.848 80.9174 488.822 80.8684 485.349 79.4568C489.461 77.7723 493.097 78.4838 496.758 79.6884ZM537.739 76.1469C532.714 77.3324 527.643 78.5697 522.618 79.7553C527.285 77.302 532.312 76.1658 537.739 76.1469ZM579.678 76.0681C583.221 74.8563 586.57 72.7148 591.432 74.256C587.022 75.9058 583.389 76.2816 579.678 76.0681ZM650.112 71.4286C653.597 69.0333 657.574 69.6293 661.468 69.5372C657.834 70.9018 654.065 71.5315 650.112 71.4286ZM532.189 78.6929C536.241 77.8022 540.29 76.8622 544.392 75.969C541.021 79.6934 536.532 78.7271 532.189 78.6929ZM646.914 65.5547C648.671 68.1873 648.21 70.8793 648.338 73.4929C648.374 74.2326 647.911 74.8485 647.067 74.7416C646.225 74.684 646.386 73.9347 646.312 73.4439C645.993 70.9385 646.411 68.397 646.914 65.5547ZM592.302 79.9476C592.155 76.9394 592.002 74.8213 591.995 72.6466C592.01 71.9538 592.523 71.3355 593.308 71.2475C593.8 71.2234 594.218 71.6973 594.141 72.1459C593.713 74.4902 595.074 77.0929 592.302 79.9476ZM692.934 63.1502C693.327 63.1309 693.674 63.1633 694.068 63.144C694.179 65.4125 694.339 67.6785 694.401 69.9494C694.437 70.6891 694.787 71.8089 693.606 71.8668C692.769 71.9078 692.234 71.0443 692.289 70.1518C692.468 67.7703 692.702 65.4849 692.934 63.1502ZM546.333 81.3609C544.923 78.7607 545.506 76.557 545.843 74.3655C545.962 73.7665 546.273 73.0592 546.819 73.1312C547.464 73.1985 548.09 73.9093 547.88 74.661C547.388 76.7119 547.647 78.9731 546.333 81.3609ZM696.083 69.0266C700.328 67.0389 703.373 66.7413 708.442 67.4815C704.576 69.154 700.752 68.6494 696.083 69.0266ZM556.03 69.7632C555.886 72.8844 557.325 76.0765 555.301 79.0922C554.455 75.9205 554.946 72.8317 556.03 69.7632ZM627.062 74.3382C629.609 72.9281 631.943 72.2205 634.437 71.7523C634.976 71.6764 635.643 71.1988 635.876 71.9288C636.104 72.5603 635.894 73.3121 634.912 73.4096C632.463 73.7769 630.099 74.8814 627.062 74.3382ZM605.867 73.7955C609.079 71.8585 612.5 71.1964 616.129 72.7487C612.693 73.1148 609.306 73.4786 605.867 73.7955ZM637.47 77.2883C637.506 73.9745 636.44 71.3574 638.626 68.6303C639.871 71.8813 638.948 74.2004 637.47 77.2883ZM599.059 71.8059C600.04 72.6971 600.093 73.782 600.237 74.7141C600.431 75.6439 600.892 77.0054 599.423 77.2257C597.709 77.5074 598.272 75.898 598.231 75.0596C598.232 74.0709 597.68 72.8622 599.059 71.8059ZM505.377 82.3801C505.002 80.7672 503.31 79.466 504.747 77.5666C504.932 77.3104 505.525 77.3307 505.914 77.2128C506.39 78.8702 506.716 80.4855 506.008 82.1515C506.012 82.2501 505.813 82.2104 505.377 82.3801Z" fill="white"/>
<path d="M37.2706 98.5088C36.3974 97.1181 35.0609 97.5791 34.9083 98.5752C34.4478 101.514 32.3815 100.429 31.009 100.151C27.4005 99.4376 23.9934 99.753 20.5865 101.106C18.4636 101.952 16.4451 100.815 14.3743 100.669C9.97698 100.292 5.66115 100.553 1.45095 101.946C1.05407 102.064 0.822286 102.471 0 103.154C4.1009 103.645 7.79491 103.019 11.521 105.11C7.58797 105.995 4.13222 104.286 0.321301 105.61C4.10203 106.759 7.69118 107.077 11.0839 106.466C14.8257 105.788 18.4386 105.562 22.2406 106.117C25.6863 106.591 29.1771 105.925 32.3473 104.88C34.6735 104.074 34.6189 105.016 34.7964 106.589C34.9691 108.063 35.2924 109.53 35.5656 111C36.1107 110.825 36.4597 110.758 36.5051 110.657C37.1058 105.437 40.2904 104.688 44.6858 106.055C45.7069 106.35 46.8593 106.245 47.2775 105.532C48.8976 102.635 51.3009 103.407 53.6874 103.834C53.7878 103.829 53.9433 103.92 54.0437 103.915C63.4571 102.91 73.0266 104.072 82.9152 101.462C82.9923 103.04 83.0742 104.716 83.1537 106.344C83.1851 106.985 82.9296 107.936 83.8884 107.988C84.7468 108.045 84.9067 107.197 85.1791 106.59C85.2245 106.489 85.2172 106.341 85.2626 106.24C87.1499 101.6 87.2407 101.398 92.2004 102.984C94.6037 103.756 95.5409 103.364 95.6261 100.987C95.6615 99.6502 96.0463 99.2853 97.5719 99.606C102.914 100.778 108.229 100.369 113.693 99.9032C118.554 99.4671 123.54 100.557 128.4 99.0833C130.038 98.6075 130.253 99.9316 130.464 101.157C130.79 102.674 130.023 104.491 131.69 105.645C133.648 104.511 132.628 101.15 135.129 100.83C137.131 100.583 139.273 101.17 141.306 101.565C142.578 101.848 143.62 101.55 143.919 100.448C144.566 98.2413 145.726 98.2833 147.756 98.6287C151.357 99.1936 154.992 99.4109 158.611 98.2942C161.487 97.4117 164.467 98.6497 167.43 98.5045C168.133 98.47 168.879 98.2852 169.539 98.4011C171.669 98.7416 173.913 96.2588 175.552 97.8591C176.717 99.0378 176.634 101.464 177.135 103.466C177.574 103.198 177.971 103.079 178.11 102.825C178.987 101.2 178.553 98.5029 180.284 97.8743C181.917 97.2999 184.217 98.0275 186.102 98.4789C187.273 98.7675 188.593 98.9994 188.949 98.0427C190.012 95.0741 191.933 96.2651 194.003 96.4108C196.679 96.5762 199.36 96.8403 202.104 96.3597C205.148 95.815 208.261 95.6624 211.506 96.1459C215.361 96.7478 219.409 96.1539 223.557 94.517C223.675 96.9334 223.773 98.9553 223.872 100.977C225.431 100.95 225.225 99.8234 225.495 99.1675C227.359 95.0721 228.387 94.478 232.971 95.5879C234.652 95.9998 235.974 96.281 236.578 94.2247C237.187 92.2669 238.823 92.7799 240.098 93.1129C245.043 94.4029 249.856 94.0186 254.789 92.9859C258.026 92.2834 261.314 93.6546 264.654 92.9965C266.598 92.6046 268.501 92.4125 270.043 91.0022C266.913 91.8477 263.733 91.6576 260.5 91.4206C263.427 90.5356 266.305 89.7025 269.33 88.7633C267.548 87.3182 265.907 86.7066 262.821 87.4017C256.846 88.7327 250.93 89.2204 244.852 88.4309C242.827 88.1842 240.777 88.4824 239.016 89.5079C236.666 90.859 236.106 89.7 235.957 87.6806C235.803 85.5626 235.601 83.4963 234.649 81.5162C233.179 82.3298 233.253 83.8585 233.012 85.1062C232.287 88.7998 230.341 90.1804 226.749 88.7746C225.312 88.2025 224.597 87.9904 224.062 89.4007C223.656 90.3599 223.139 90.0886 222.376 89.9282C217.29 88.8429 212.336 89.4318 207.487 91.1525C206.794 91.3842 206.254 91.6579 205.486 91.3989C200.832 89.8969 196.177 90.4217 191.56 91.7356C189.674 92.273 189.15 91.8538 189.056 89.9305C188.955 87.8593 188.352 85.8127 187.945 83.6576C185.932 84.6955 186.327 86.604 185.95 88.1549C185.155 91.4565 183.202 92.6892 180.16 91.207C178.612 90.4425 177.687 90.043 176.709 91.6728C176.012 92.8439 174.744 92.6589 173.828 92.4566C169.856 91.5144 166.079 92.4905 162.354 93.5135C160.616 93.9942 159.076 93.3776 157.555 93.1556C153.703 92.603 149.98 92.6372 146.43 94.1459C144.359 95.0383 144.143 93.7142 143.835 92.543C143.274 90.346 142.912 88.0898 142.393 85.6931C140.129 86.7433 140.483 88.8515 140.403 90.2891C140.26 93.5586 138.295 93.5066 136.016 93.2229C133.89 92.9811 131.821 91.8467 129.854 93.8216C129.374 94.29 128.009 94.1592 127.095 94.0063C123.083 93.2638 119.121 93.5569 115.195 94.5897C113.158 95.1345 110.979 94.8458 108.851 94.5547C104.7 94.0661 100.712 94.8548 96.9803 96.7679C101.232 97.2515 105.293 94.8774 110.076 95.9282C105.873 97.4689 101.866 97.8631 97.8058 98.2104C96.101 98.3434 97.2028 97.2019 97.0735 96.615C95.0598 95.5768 96.3766 93.6833 95.9553 92.2704C95.5388 90.9561 95.2705 89.5852 94.9495 88.1673C92.8338 89.1609 93.0856 91.2247 92.6055 92.7312C91.5498 95.8478 89.7928 96.972 86.899 95.4332C85.1938 94.5281 84.0627 94.0398 83.0114 96.2169C82.2827 97.7851 80.5276 97.9205 78.947 97.5037C76.2472 96.8451 73.6217 96.6773 70.9392 97.402C66.7647 98.4964 62.6164 99.0952 58.2379 98.0741C55.1316 97.3366 51.9084 97.2969 49.1427 99.4098C47.7381 96.4138 48.2869 93.2232 46.4877 90.3949C45.2497 91.8397 45.0709 93.3315 44.6888 94.7837C43.5809 98.8915 41.5129 99.8333 37.1055 98.2203C37.042 101.041 38.2912 103.946 36.1738 106.966C35.7834 105.156 35.3621 103.743 35.242 102.316C35.1219 100.888 34.6741 98.9327 37.2706 98.5088ZM218.084 90.6824C211.089 93.7936 203.663 95.2946 196.016 95.3729C203.517 94.3625 210.38 90.6152 218.084 90.6824ZM103.643 99.2095C110.299 98.4383 116.228 94.0942 123.789 95.3548C116.891 97.3736 110.558 99.612 103.643 99.2095ZM149.817 97.539C153.341 97.5639 156.604 96.3659 159.988 95.5574C163.273 94.8031 166.419 93.2648 170.465 93.6596C163.637 97.1086 156.813 97.542 149.817 97.539ZM264.834 88.4399C259.087 90.3035 253.524 92.8502 247.252 92.2184C253.018 90.7493 258.704 88.6416 264.834 88.4399ZM60.1014 100.158C56.4146 100.932 52.819 102.542 48.2015 101.779C52.2197 98.5174 56.1796 99.2131 60.1014 100.158ZM24.4327 104.625C18.9954 104.595 13.6343 104.067 8.11266 102.311C14.0875 100.98 19.179 103.202 24.4327 104.625ZM45.833 104.812C44.9494 101.148 44.6731 97.5527 46.5728 94.1971C47.1025 97.8291 48.6414 101.511 45.833 104.812ZM212.271 94.2794C215.147 93.3969 218.023 92.5144 220.954 91.7281C221.65 91.5457 222.838 91.1414 223.185 92.0636C223.647 93.2768 222.349 93.4887 221.512 93.8758C218.555 95.1577 215.453 94.5188 212.271 94.2794ZM141.636 89.7837C143.732 92.4986 142.827 95.6078 143.662 98.2856C143.897 98.9662 143.051 100.194 141.994 100.196C140.739 100.258 141.133 99.0523 141.049 98.3643C140.715 95.6619 141.286 92.9151 141.636 89.7837ZM33.9867 102.377C27.9568 103.612 25.8909 103.565 22.3492 102.157C26.5449 100.468 30.2537 101.176 33.9867 102.377ZM75.7888 98.7955C70.6628 99.986 65.4889 101.228 60.3628 102.419C65.125 99.9609 70.2535 98.8197 75.7888 98.7955ZM118.565 98.6756C122.18 97.4603 125.599 95.3154 130.556 96.852C126.057 98.5061 122.351 98.8855 118.565 98.6756ZM190.411 93.967C193.968 91.5681 198.024 92.1602 201.995 92.0644C198.287 93.4326 194.443 94.0659 190.411 93.967ZM70.1253 101.347C74.2591 100.452 78.3906 99.5083 82.5747 98.6111C79.1328 102.339 74.556 101.377 70.1253 101.347ZM187.155 88.0959C188.944 90.7269 188.472 93.4194 188.599 96.0331C188.636 96.7728 188.162 97.3892 187.302 97.2831C186.443 97.2263 186.608 96.4768 186.534 95.9861C186.21 93.4809 186.639 90.9388 187.155 88.0959ZM131.438 102.543C131.291 99.5347 131.137 97.4167 131.132 95.2419C131.148 94.5491 131.672 93.9302 132.473 93.8415C132.975 93.8169 133.401 94.2903 133.322 94.7391C132.883 97.0839 134.268 99.6854 131.438 102.543ZM234.096 85.6462C234.497 85.6266 234.851 85.6586 235.253 85.6389C235.364 87.9074 235.525 90.1734 235.585 92.4443C235.622 93.1841 235.978 94.3035 234.773 94.3626C233.92 94.4044 233.374 93.5414 233.431 92.6488C233.617 90.267 233.857 87.9813 234.096 85.6462ZM84.5493 104.001C83.1137 101.402 83.7106 99.198 84.0566 97.0061C84.1783 96.4069 84.496 95.6993 85.0532 95.7708C85.7108 95.8374 86.3494 96.5476 86.1345 97.2996C85.6307 99.3511 85.8922 101.612 84.5493 104.001ZM237.302 91.5198C241.634 89.5279 244.74 89.2273 249.91 89.9625C245.965 91.6389 242.065 91.138 237.302 91.5198ZM94.4513 92.3935C94.3018 95.5151 95.7663 98.7059 93.6992 101.724C92.8396 98.5528 93.343 95.4633 94.4513 92.3935ZM166.898 96.8993C169.497 95.4866 171.878 94.7767 174.422 94.306C174.972 94.2296 175.653 93.7513 175.89 94.4811C176.122 95.1124 175.908 95.8644 174.906 95.963C172.407 96.3326 169.995 97.4395 166.898 96.8993ZM145.28 96.3773C148.558 94.437 152.048 93.7716 155.748 95.3203C152.243 95.6899 148.788 96.057 145.28 96.3773ZM177.511 99.8393C177.55 96.5254 176.466 93.9091 178.699 91.1798C179.965 94.4297 179.021 96.7499 177.511 99.8393ZM138.338 94.3943C139.338 95.2845 139.391 96.3694 139.537 97.3015C139.734 98.2311 140.203 99.5922 138.704 99.814C136.956 100.097 137.531 98.4873 137.491 97.649C137.493 96.6602 136.93 95.452 138.338 94.3943ZM42.7749 105.061C42.3941 103.448 40.6697 102.149 42.1371 100.248C42.3259 99.9911 42.9309 100.011 43.3278 99.8926C43.8114 101.55 44.1419 103.165 43.418 104.831C43.4229 104.93 43.2196 104.891 42.7749 105.061Z" fill="white"/>
<path d="M469.735 77.3073C470.469 75.8378 471.844 76.1659 472.093 77.1423C472.837 80.0223 474.788 78.7403 476.127 78.3287C479.649 77.2662 483.07 77.2468 486.593 78.2605C488.788 78.8943 490.686 77.5655 492.733 77.218C497.072 76.412 501.393 76.2496 505.719 77.2239C506.125 77.3029 506.395 77.6851 507.28 78.2843C503.247 79.1741 499.51 78.9124 496.005 81.3581C500.006 81.8541 503.278 79.8152 507.2 80.7599C503.549 82.2735 500.008 82.9415 496.572 82.665C492.782 82.3565 489.165 82.4844 485.435 83.4088C482.052 84.2172 478.513 83.8964 475.256 83.1663C472.862 82.5916 473.008 83.5237 472.985 85.1066C472.957 86.591 472.778 88.0827 472.65 89.572C472.09 89.4512 471.736 89.4191 471.681 89.3229C470.575 84.1867 467.332 83.7525 463.091 85.5423C462.104 85.9367 460.946 85.944 460.461 85.2758C458.566 82.551 456.249 83.5544 453.916 84.2125C453.815 84.2174 453.67 84.3235 453.569 84.3284C444.103 84.2487 434.692 86.3414 424.596 84.7107C424.674 86.2888 424.755 87.9655 424.835 89.5928C424.866 90.2339 425.213 91.1561 424.264 91.3015C423.415 91.442 423.174 90.6135 422.843 90.0365C422.788 89.9403 422.781 89.7924 422.726 89.6962C420.395 85.2627 420.285 85.0704 415.504 87.1338C413.187 88.1371 412.217 87.8387 411.9 85.4815C411.735 84.1549 411.316 83.8294 409.829 84.2977C404.627 85.9863 399.297 86.0993 393.814 86.1704C388.934 86.2119 384.078 87.7847 379.097 86.793C377.421 86.4798 377.335 87.8186 377.245 89.0589C377.068 90.5999 378.009 92.3334 376.462 93.645C374.403 92.7079 375.091 89.2634 372.57 89.1892C370.555 89.1397 368.479 89.9335 366.495 90.5251C365.257 90.9319 364.19 90.737 363.786 89.6693C362.926 87.5364 361.776 87.6916 359.79 88.2339C356.261 89.1484 352.665 89.7202 348.953 88.9629C346.005 88.366 343.16 89.8895 340.198 90.0348C339.495 90.0693 338.734 89.9582 338.089 90.1382C336.002 90.6854 333.526 88.434 332.051 90.187C331.007 91.474 331.326 93.8806 331.023 95.9222C330.559 95.6978 330.152 95.6188 329.99 95.3796C328.959 93.8483 329.127 91.1213 327.343 90.665C325.662 90.2531 323.444 91.2022 321.612 91.8357C320.474 92.2376 319.183 92.5974 318.736 91.6802C317.389 88.8297 315.593 90.2029 313.547 90.5504C310.9 90.9768 308.258 91.5018 305.48 91.292C302.397 91.0476 299.284 91.2002 296.102 91.9989C292.324 92.975 288.238 92.7799 283.95 91.5565C284.068 93.973 284.167 95.9948 284.266 98.0167C282.712 98.1424 282.807 97.0007 282.474 96.3744C280.22 92.4809 279.139 91.9901 274.685 93.5432C273.053 94.1175 271.764 94.5267 270.962 92.5393C270.165 90.6505 268.587 91.3211 267.351 91.7771C262.555 93.5447 257.728 93.633 252.718 93.0877C249.428 92.7053 246.289 94.3916 242.901 94.0633C240.928 93.8635 239.015 93.8584 237.343 92.6057C240.541 93.141 243.687 92.6407 246.881 92.0886C243.883 91.4941 240.937 90.9465 237.835 90.3077C239.468 88.6952 241.041 87.926 244.18 88.3159C250.256 89.0561 256.191 88.9628 262.164 87.5825C264.155 87.1389 266.223 87.2352 268.077 88.0836C270.547 89.1983 270.992 87.9901 270.943 85.9657C270.89 83.8427 270.889 81.7666 271.644 79.7029C273.186 80.3687 273.261 81.8975 273.622 83.1156C274.704 86.7205 276.776 87.9043 280.213 86.1539C281.588 85.4439 282.279 85.1628 282.949 86.5141C283.447 87.4289 283.934 87.1084 284.678 86.8742C289.634 85.2966 294.622 85.3981 299.615 86.6362C300.327 86.799 300.892 87.0185 301.631 86.6857C306.116 84.7357 310.8 84.8027 315.522 85.6586C317.452 86.0089 317.933 85.5405 317.839 83.6172C317.737 81.546 318.138 79.4502 318.334 77.2656C320.438 78.1016 320.231 80.0397 320.757 81.5462C321.87 84.7542 323.934 85.79 326.817 84.0174C328.283 83.1052 329.165 82.617 330.296 84.1434C331.105 85.2407 332.348 84.9326 333.24 84.6417C337.101 83.3155 340.956 83.9174 344.763 84.5711C346.539 84.8795 348.012 84.1152 349.504 83.7455C353.284 82.8187 356.992 82.4886 360.673 83.6428C362.82 84.3285 362.906 82.9896 363.099 81.7938C363.442 79.5525 363.583 77.2717 363.866 74.8356C366.222 75.6593 366.074 77.7921 366.295 79.2149C366.755 82.4549 368.706 82.2109 370.946 81.7056C373.038 81.257 374.987 79.9257 377.137 81.6987C377.661 82.1179 379.007 81.8542 379.901 81.6126C383.822 80.4812 387.794 80.3854 391.801 81.0292C393.882 81.3721 396.022 80.8718 398.111 80.3739C402.195 79.4816 406.241 79.8764 410.141 81.4154C405.957 82.3125 401.683 80.347 397.026 81.8606C401.359 82.9828 405.386 82.9832 409.46 82.9317C411.17 82.8973 409.962 81.869 410.033 81.2723C411.936 80.0421 410.441 78.2864 410.723 76.839C411.009 75.4903 411.143 74.0997 411.324 72.6572C413.526 73.439 413.477 75.5176 414.102 76.97C415.456 79.9684 417.314 80.9154 420.044 79.1008C421.653 78.0333 422.731 77.4367 423.99 79.5006C424.868 80.99 426.628 80.9531 428.16 80.3837C430.783 79.4642 433.379 79.0403 436.12 79.4991C440.381 80.18 444.568 80.3702 448.826 78.9256C451.845 77.8878 455.049 77.533 458.008 79.3653C459.114 76.2462 458.256 73.1246 459.771 70.1338C461.144 71.4506 461.468 72.9177 461.989 74.3257C463.492 78.3054 465.642 79.0404 469.871 77.0041C470.21 79.8051 469.249 82.8182 471.651 85.6169C471.863 83.7775 472.145 82.3302 472.125 80.8976C472.106 79.465 472.361 77.4752 469.735 77.3073ZM289.023 87.205C296.288 89.617 303.825 90.3845 311.442 89.7144C303.879 89.4426 296.683 86.3845 289.023 87.205ZM403.748 84.497C397.049 84.3806 390.725 80.6371 383.323 82.6313C390.384 83.9658 396.906 85.5739 403.748 84.497ZM357.633 87.351C354.127 87.7206 350.763 86.8475 347.317 86.3738C343.974 85.9445 340.693 84.7212 336.705 85.5099C343.836 88.2746 350.67 88.0384 357.633 87.351ZM242.278 89.5461C248.179 90.8386 253.964 92.8289 260.145 91.5867C254.262 90.6887 248.399 89.1471 242.278 89.5461ZM447.174 81.1816C450.919 81.5912 454.654 82.8416 459.175 81.6313C454.858 78.7782 450.985 79.8578 447.174 81.1816ZM483.108 82.1387C488.516 81.577 493.8 80.527 499.124 78.2393C493.048 77.4991 488.198 80.2085 483.108 82.1387ZM461.828 84.4178C462.35 80.6848 462.275 77.0799 460.057 73.9261C459.884 77.5926 458.711 81.4069 461.828 84.4178ZM295.159 90.2161C292.211 89.6192 289.262 89.0222 286.268 88.5264C285.558 88.4129 284.336 88.1268 284.081 89.0785C283.739 90.3311 285.052 90.415 285.923 90.7184C288.991 91.7049 292.015 90.7657 295.159 90.2161ZM365.018 78.8326C363.197 81.7395 364.401 84.7453 363.83 87.4921C363.663 88.1923 364.625 89.3316 365.677 89.2306C366.932 89.169 366.422 88.0076 366.439 87.3148C366.507 84.5926 365.672 81.9148 365.018 78.8326ZM473.38 80.8361C479.502 81.4752 481.553 81.2263 484.941 79.4784C480.601 78.2082 476.978 79.2756 473.38 80.8361ZM431.429 81.3604C436.647 82.0438 441.917 82.7741 447.134 83.4575C442.155 81.4771 436.94 80.843 431.429 81.3604ZM388.845 85.4253C385.129 84.5694 381.518 82.7692 376.734 84.7833C381.373 85.9894 385.099 86.0045 388.845 85.4253ZM316.884 87.7669C313.11 85.7275 309.131 86.7134 305.169 87.0065C308.993 88.0055 312.881 88.2597 316.884 87.7669ZM437.314 83.3457C433.113 82.8596 428.909 82.3242 424.658 81.8406C428.446 85.214 432.908 83.8089 437.314 83.3457ZM319.552 81.6053C318.028 84.3989 318.76 87.0323 318.888 89.646C318.924 90.3857 319.455 90.9528 320.302 90.763C321.15 90.6226 320.913 89.8927 320.94 89.3971C321.018 86.8722 320.342 84.3843 319.552 81.6053ZM376.411 90.5333C376.264 87.5251 376.211 85.4021 376.004 83.2372C375.92 82.5493 375.339 81.9846 374.533 81.9747C374.031 81.9993 373.653 82.5121 373.776 82.951C374.441 85.2417 373.316 87.9663 376.411 90.5333ZM272.597 83.7591C272.195 83.7787 271.846 83.8453 271.444 83.865C271.555 86.1335 271.616 88.4044 271.777 90.6704C271.813 91.4101 271.567 92.5591 272.772 92.5C273.626 92.4582 274.085 91.5459 273.941 90.6632C273.524 88.3108 273.062 86.0596 272.597 83.7591ZM423.218 87.3982C424.393 84.6712 423.584 82.5359 423.026 80.3882C422.847 79.8038 422.462 79.1306 421.914 79.2563C421.266 79.387 420.7 80.1562 420.987 80.8836C421.688 82.876 421.648 85.1518 423.218 87.3982ZM269.978 89.9182C265.473 88.3595 262.353 88.3642 257.279 89.6016C261.369 90.8841 265.201 90.0041 269.978 89.9182ZM412.232 76.8145C412.685 79.9065 411.538 83.2253 413.89 86.0265C414.436 82.7866 413.634 79.7611 412.232 76.8145ZM340.57 88.3853C337.846 87.2335 335.407 86.7599 332.829 86.5403C332.275 86.518 331.55 86.1087 331.385 86.8582C331.216 87.5092 331.503 88.2366 332.51 88.2367C335.032 88.3602 337.541 89.2258 340.57 88.3853ZM362.034 85.7511C358.583 84.1408 355.044 83.8199 351.513 85.7232C355.038 85.7481 358.512 85.7755 362.034 85.7511ZM330.295 92.3493C329.932 89.0551 330.756 86.3453 328.269 83.8474C327.325 87.2056 328.491 89.4223 330.295 92.3493ZM368.75 83.0986C367.841 84.0823 367.894 85.1672 367.84 86.1091C367.735 87.0535 367.401 88.454 368.914 88.5281C370.681 88.6392 369.951 87.0931 369.91 86.2548C369.812 85.271 370.254 84.0135 368.75 83.0986ZM464.896 84.3663C465.118 82.7241 466.707 81.2621 465.061 79.5138C464.848 79.277 464.248 79.3559 463.842 79.277C463.522 80.9733 463.351 82.613 464.233 84.201C464.238 84.2996 464.437 84.2405 464.896 84.3663Z" fill="white"/>
<path d="M942.453 54.1317C943.187 52.6622 944.562 52.9902 944.811 53.9667C945.556 56.8467 947.506 55.5647 948.845 55.153C952.367 54.0906 955.789 54.0711 959.311 55.0848C961.506 55.7187 963.404 54.3898 965.451 54.0423C969.79 53.2363 974.111 53.074 978.437 54.0483C978.843 54.1272 979.114 54.5094 979.999 55.1087C975.965 55.9984 972.228 55.7368 968.723 58.1825C972.724 58.6784 975.997 56.6395 979.918 57.5842C976.268 59.0979 972.727 59.7658 969.291 59.4894C965.501 59.1808 961.883 59.3088 958.153 60.2331C954.77 61.0416 951.231 60.7208 947.974 59.9907C945.58 59.4159 945.727 60.348 945.703 61.931C945.675 63.4153 945.496 64.9071 945.368 66.3964C944.808 66.2755 944.454 66.2434 944.399 66.1472C943.293 61.0111 940.05 60.5768 935.809 62.3666C934.822 62.761 933.665 62.7684 933.179 62.1001C931.284 59.3753 928.968 60.3787 926.634 61.0369C926.534 61.0418 926.388 61.1478 926.287 61.1527C916.821 61.0731 907.411 63.1657 897.315 61.535C897.392 63.1131 897.474 64.7898 897.553 66.4172C897.585 67.0583 897.932 67.9805 896.982 68.1259C896.134 68.2663 895.892 67.4378 895.562 66.8608C895.507 66.7647 895.499 66.6167 895.444 66.5206C893.114 62.087 893.004 61.8947 888.222 63.9581C885.906 64.9615 884.935 64.663 884.618 62.3058C884.453 60.9792 884.034 60.6537 882.547 61.1221C877.345 62.8107 872.015 62.9237 866.532 62.9947C861.652 63.0363 856.796 64.609 851.815 63.6174C850.139 63.3041 850.054 64.643 849.963 65.8832C849.787 67.4243 850.727 69.1577 849.181 70.4694C847.121 69.5322 847.809 66.0877 845.289 66.0135C843.273 65.964 841.198 66.7578 839.213 67.3495C837.975 67.7562 836.908 67.5613 836.504 66.4936C835.645 64.3607 834.495 64.516 832.508 65.0583C828.979 65.9728 825.383 66.5445 821.672 65.7872C818.723 65.1903 815.878 66.7139 812.916 66.8591C812.213 66.8936 811.453 66.7826 810.807 66.9625C808.72 67.5097 806.244 65.2583 804.77 67.0113C803.725 68.2984 804.044 70.7049 803.741 72.7465C803.277 72.5221 802.871 72.4432 802.708 72.204C801.677 70.6727 801.846 67.9456 800.062 67.4893C798.381 67.0774 796.162 68.0265 794.331 68.6601C793.193 69.0619 791.902 69.4218 791.454 68.5045C790.107 65.654 788.312 67.0273 786.265 67.3748C783.618 67.8011 780.976 68.3261 778.198 68.1163C775.116 67.872 772.002 68.0246 768.82 68.8232C765.043 69.7993 760.956 69.6042 756.668 68.3809C756.787 70.7973 756.885 72.8192 756.984 74.8411C755.43 74.9667 755.525 73.8251 755.193 73.1988C752.939 69.3052 751.858 68.8145 747.404 70.3675C745.771 70.9419 744.482 71.3511 743.68 69.3637C742.884 67.4749 741.306 68.1454 740.07 68.6015C735.274 70.369 730.446 70.4574 725.437 69.912C722.146 69.5296 719.007 71.2159 715.619 70.8877C713.646 70.6878 711.734 70.6827 710.062 69.43C713.259 69.9653 716.405 69.465 719.6 68.913C716.601 68.3185 713.655 67.7709 710.553 67.132C712.186 65.5195 713.759 64.7504 716.899 65.1402C722.975 65.8804 728.909 65.7872 734.882 64.4069C736.873 63.9632 738.942 64.0595 740.795 64.9079C743.266 66.0226 743.71 64.8144 743.661 62.7901C743.608 60.6671 743.607 58.591 744.362 56.5272C745.904 57.1931 745.979 58.7218 746.341 59.9399C747.423 63.5449 749.494 64.7286 752.932 62.9782C754.306 62.2682 754.997 61.9872 755.667 63.3384C756.165 64.2532 756.652 63.9327 757.396 63.6986C762.352 62.1209 767.34 62.2224 772.333 63.4606C773.046 63.6234 773.61 63.8429 774.349 63.5101C778.834 61.56 783.518 61.627 788.241 62.483C790.17 62.8333 790.651 62.3648 790.557 60.4415C790.456 58.3703 790.857 56.2745 791.052 54.0899C793.156 54.926 792.949 56.864 793.476 58.3706C794.589 61.5786 796.653 62.6143 799.536 60.8417C801.001 59.9295 801.883 59.4414 803.015 60.9677C803.823 62.0651 805.067 61.7569 805.958 61.4661C809.819 60.1398 813.674 60.7418 817.481 61.3955C819.258 61.7038 820.73 60.9396 822.222 60.5698C826.002 59.643 829.711 59.3129 833.391 60.4672C835.538 61.1528 835.624 59.8139 835.817 58.6181C836.161 56.3768 836.301 54.096 836.585 51.6599C838.94 52.4837 838.793 54.6165 839.013 56.0392C839.473 59.2792 841.424 59.0352 843.665 58.53C845.757 58.0814 847.705 56.75 849.855 58.5231C850.379 58.9423 851.725 58.6786 852.619 58.437C856.54 57.3055 860.512 57.2097 864.52 57.8536C866.6 58.1965 868.74 57.6961 870.829 57.1982C874.913 56.3059 878.959 56.7008 882.859 58.2397C878.675 59.1369 874.402 57.1714 869.744 58.6849C874.077 59.8072 878.104 59.8075 882.178 59.756C883.888 59.7217 882.68 58.6934 882.752 58.0967C884.655 56.8664 883.159 55.1107 883.441 53.6634C883.728 52.3147 883.861 50.924 884.042 49.4816C886.245 50.2634 886.195 52.342 886.82 53.7943C888.174 56.7927 890.032 57.7397 892.762 55.9252C894.371 54.8577 895.449 54.261 896.708 56.3249C897.586 57.8143 899.346 57.7775 900.878 57.208C903.501 56.2885 906.098 55.8646 908.838 56.3235C913.099 57.0043 917.286 57.1945 921.544 55.75C924.564 54.7121 927.767 54.3573 930.726 56.1896C931.832 53.0706 930.975 49.9489 932.49 46.9581C933.862 48.2749 934.186 49.742 934.708 51.15C936.211 55.1298 938.361 55.8647 942.59 53.8284C942.928 56.6295 941.968 59.6425 944.369 62.4413C944.581 60.6019 944.863 59.1545 944.843 57.7219C944.824 56.2894 945.079 54.2996 942.453 54.1317ZM761.741 64.0293C769.006 66.4414 776.543 67.2088 784.161 66.5387C776.597 66.2669 769.402 63.2088 761.741 64.0293ZM876.467 61.3213C869.767 61.2049 863.443 57.4614 856.041 59.4556C863.103 60.7901 869.624 62.3983 876.467 61.3213ZM830.351 64.1754C826.846 64.5449 823.481 63.6718 820.035 63.1981C816.692 62.7688 813.411 61.5456 809.423 62.3343C816.555 65.0989 823.388 64.8627 830.351 64.1754ZM714.996 66.3704C720.898 67.663 726.682 69.6532 732.863 68.411C726.98 67.513 721.117 65.9715 714.996 66.3704ZM919.893 58.006C923.637 58.4156 927.372 59.666 931.894 58.4557C927.577 55.6025 923.703 56.6822 919.893 58.006ZM955.826 58.9631C961.235 58.4013 966.519 57.3514 971.843 55.0636C965.767 54.3234 960.916 57.0328 955.826 58.9631ZM934.546 61.2422C935.069 57.5091 934.993 53.9042 932.775 50.7504C932.602 54.4169 931.43 58.2313 934.546 61.2422ZM767.877 67.0404C764.929 66.4435 761.981 65.8466 758.987 65.3507C758.277 65.2372 757.055 64.9511 756.799 65.9029C756.458 67.1554 757.77 67.2393 758.641 67.5427C761.709 68.5292 764.733 67.59 767.877 67.0404ZM837.736 55.6569C835.915 58.5639 837.119 61.5697 836.549 64.3164C836.381 65.0167 837.343 66.1559 838.395 66.0549C839.65 65.9933 839.141 64.832 839.157 64.1391C839.225 61.417 838.39 58.7391 837.736 55.6569ZM946.099 57.6604C952.22 58.2995 954.272 58.0506 957.659 56.3027C953.319 55.0325 949.697 56.0999 946.099 57.6604ZM904.147 58.1847C909.365 58.8681 914.635 59.5984 919.853 60.2818C914.874 58.3014 909.658 57.6673 904.147 58.1847ZM861.563 62.2497C857.847 61.3938 854.236 59.5935 849.452 61.6076C854.091 62.8137 857.817 62.8288 861.563 62.2497ZM789.602 64.5913C785.828 62.5518 781.85 63.5378 777.888 63.8309C781.711 64.8298 785.599 65.0841 789.602 64.5913ZM910.032 60.1701C905.831 59.684 901.627 59.1486 897.376 58.665C901.165 62.0384 905.626 60.6333 910.032 60.1701ZM792.271 58.4297C790.746 61.2232 791.479 63.8566 791.606 66.4703C791.643 67.21 792.174 67.7772 793.02 67.5874C793.869 67.4469 793.632 66.717 793.658 66.2214C793.736 63.6965 793.061 61.2086 792.271 58.4297ZM849.129 67.3576C848.982 64.3495 848.929 62.2265 848.722 60.0616C848.638 59.3736 848.057 58.8089 847.251 58.799C846.749 58.8236 846.372 59.3365 846.494 59.7754C847.159 62.0661 846.034 64.7906 849.129 67.3576ZM745.315 60.5834C744.913 60.6031 744.564 60.6696 744.163 60.6893C744.273 62.9578 744.334 65.2287 744.495 67.4947C744.531 68.2344 744.285 69.3834 745.491 69.3243C746.344 69.2825 746.803 68.3702 746.659 67.4875C746.242 65.1352 745.78 62.8839 745.315 60.5834ZM895.936 64.2226C897.111 61.4956 896.303 59.3602 895.745 57.2125C895.565 56.6281 895.18 55.955 894.632 56.0807C893.984 56.2113 893.418 56.9806 893.705 57.708C894.406 59.7003 894.367 61.9762 895.936 64.2226ZM742.697 66.7425C738.191 65.1838 735.071 65.1885 729.998 66.4259C734.087 67.7084 737.919 66.8284 742.697 66.7425ZM884.95 53.6388C885.403 56.7309 884.256 60.0496 886.608 62.8509C887.154 59.611 886.352 56.5855 884.95 53.6388ZM813.288 65.2096C810.564 64.0579 808.125 63.5843 805.548 63.3646C804.993 63.3424 804.268 62.933 804.104 63.6826C803.934 64.3335 804.221 65.0609 805.228 65.061C807.751 65.1845 810.259 66.0502 813.288 65.2096ZM834.752 62.5755C831.301 60.9651 827.762 60.6443 824.231 62.5475C827.756 62.5724 831.23 62.5998 834.752 62.5755ZM803.013 69.1736C802.651 65.8794 803.475 63.1697 800.987 60.6717C800.044 64.0299 801.209 66.2467 803.013 69.1736ZM841.468 59.9229C840.56 60.9067 840.613 61.9916 840.558 62.9335C840.453 63.8778 840.119 65.2783 841.632 65.3524C843.399 65.4635 842.67 63.9175 842.629 63.0791C842.53 62.0953 842.972 60.8378 841.468 59.9229ZM937.614 61.1906C937.836 59.5485 939.425 58.0864 937.78 56.3381C937.567 56.1014 936.967 56.1802 936.56 56.1013C936.24 57.7977 936.069 59.4374 936.952 61.0254C936.956 61.124 937.155 61.0648 937.614 61.1906Z" fill="white"/>
<path d="M1460.98 28.8652C1460.12 27.4737 1458.81 27.9333 1458.66 28.9293C1458.21 31.8678 1456.18 30.7808 1454.84 30.5007C1451.3 29.7844 1447.96 30.0965 1444.62 31.4465C1442.54 32.29 1440.56 31.1513 1438.53 31.0037C1434.22 30.6219 1429.99 30.8787 1425.86 32.2674C1425.47 32.3853 1425.24 32.7919 1424.44 33.474C1428.46 33.969 1432.08 33.3465 1435.74 35.4412C1431.88 36.3223 1428.49 34.6101 1424.76 35.9301C1428.46 37.083 1431.98 37.4048 1435.31 36.7969C1438.98 36.1227 1442.52 35.8996 1446.25 36.4584C1449.63 36.9353 1453.05 36.2733 1456.15 35.2311C1458.43 34.4273 1458.38 35.3691 1458.56 36.9423C1458.73 38.417 1459.05 39.8843 1459.32 41.3541C1459.85 41.1796 1460.19 41.1134 1460.24 41.0124C1460.82 35.7933 1463.94 35.0471 1468.25 36.4176C1469.25 36.7145 1470.38 36.6097 1470.79 35.8976C1472.38 33.0022 1474.74 33.7764 1477.08 34.2055C1477.17 34.2006 1477.33 34.292 1477.43 34.2872C1486.65 33.291 1496.04 34.4623 1505.73 31.8615C1505.81 33.4396 1505.89 35.1163 1505.97 36.7436C1506 37.3847 1505.75 38.3362 1506.69 38.3889C1507.53 38.4465 1507.69 37.5986 1507.95 36.9923C1508 36.8913 1507.99 36.7433 1508.04 36.6423C1509.88 32.004 1509.97 31.8019 1514.83 33.3924C1517.19 34.1667 1518.11 33.7756 1518.19 31.3989C1518.22 30.0625 1518.6 29.698 1520.1 30.0202C1525.34 31.1969 1530.55 30.7931 1535.9 30.3328C1540.67 29.9014 1545.56 30.9964 1550.32 29.5271C1551.93 29.0529 1552.14 30.3771 1552.35 31.6028C1552.67 33.1194 1551.92 34.9358 1553.55 36.0914C1555.47 34.9593 1554.47 31.5976 1556.92 31.2797C1558.88 31.0352 1560.98 31.6243 1562.98 32.0209C1564.22 32.3057 1565.25 32.0085 1565.54 30.9067C1566.17 28.7006 1567.31 28.7438 1569.3 29.0911C1572.83 29.6594 1576.39 29.8802 1579.94 28.767C1582.76 27.8873 1585.68 29.1282 1588.59 28.9858C1589.28 28.952 1590.01 28.7678 1590.65 28.8844C1592.74 29.2269 1594.94 26.7464 1596.55 28.3482C1597.69 29.528 1597.61 31.9541 1598.11 33.9566C1598.54 33.6884 1598.93 33.5704 1599.06 33.3166C1599.92 31.6927 1599.49 28.9949 1601.19 28.368C1602.79 27.7952 1605.04 28.5249 1606.89 28.9781C1608.04 29.2678 1609.34 29.5009 1609.68 28.5446C1610.72 25.5772 1612.61 26.77 1614.64 26.9177C1617.26 27.0856 1619.89 27.3522 1622.58 26.8743C1625.56 26.3326 1628.62 26.183 1631.8 26.6696C1635.58 27.2752 1639.55 26.6852 1643.61 25.0524C1643.73 27.4688 1643.83 29.4907 1643.93 31.5126C1645.45 31.487 1645.25 30.3601 1645.52 29.7045C1647.34 25.6111 1648.35 25.0179 1652.84 26.1322C1654.49 26.5457 1655.79 26.8282 1656.38 24.7725C1656.97 22.8155 1658.58 23.33 1659.83 23.6642C1664.68 24.9588 1669.39 24.5792 1674.23 23.5512C1677.4 22.8519 1680.63 24.2262 1683.9 23.5714C1685.81 23.1814 1687.67 22.991 1689.18 21.5823C1686.12 22.4248 1683 22.2316 1679.83 21.9915C1682.7 21.1094 1685.52 20.2791 1688.48 19.3428C1686.73 17.8961 1685.12 17.2829 1682.1 17.975C1676.24 19.3002 1670.44 19.7823 1664.48 18.987C1662.5 18.7383 1660.49 19.0345 1658.76 20.0584C1656.46 21.4071 1655.91 20.2476 1655.76 18.2282C1655.61 16.1101 1655.41 14.0437 1654.47 12.0628C1653.03 12.8749 1653.11 14.4037 1652.87 15.651C1652.16 19.3437 1650.26 20.7224 1646.73 19.3133C1645.33 18.7398 1644.62 18.527 1644.1 19.9368C1643.7 20.8955 1643.2 20.6237 1642.45 20.4627C1637.46 19.3725 1632.6 19.9566 1627.85 21.6726C1627.17 21.9036 1626.64 22.1767 1625.89 21.917C1621.33 20.4107 1616.76 20.931 1612.24 22.2403C1610.39 22.7759 1609.88 22.3562 1609.78 20.4329C1609.68 18.3617 1609.09 16.3147 1608.69 14.1593C1606.71 15.1952 1607.1 17.104 1606.73 18.6545C1605.96 21.9551 1604.04 23.1858 1601.06 21.7009C1599.54 20.9349 1598.63 20.5345 1597.68 22.1633C1596.99 23.3337 1595.75 23.1475 1594.85 22.9443C1590.96 21.9983 1587.26 22.9708 1583.61 23.9901C1581.9 24.4691 1580.39 23.8511 1578.9 23.6276C1575.12 23.0713 1571.47 23.102 1567.99 24.6072C1565.96 25.4976 1565.75 24.1734 1565.45 23.0019C1564.9 20.8045 1564.54 18.5481 1564.03 16.151C1561.81 17.1989 1562.16 19.3074 1562.08 20.7448C1561.94 24.014 1560.02 23.9602 1557.78 23.6743C1555.7 23.4304 1553.67 22.2941 1551.74 24.267C1551.27 24.7349 1549.93 24.6028 1549.04 24.449C1545.1 23.7027 1541.22 23.992 1537.37 25.021C1535.37 25.5638 1533.24 25.273 1531.15 24.9799C1527.08 24.4874 1523.17 25.2722 1519.51 27.1816C1523.68 27.6693 1527.66 25.2992 1532.35 26.3545C1528.23 27.8911 1524.31 28.2814 1520.33 28.6249C1518.65 28.7562 1519.73 27.6158 1519.61 27.0289C1517.63 25.9888 1518.92 24.0965 1518.51 22.6833C1518.1 21.3687 1517.83 19.9976 1517.52 18.5795C1515.44 19.571 1515.69 21.6349 1515.22 23.1409C1514.19 26.2563 1512.47 27.3788 1509.63 25.8373C1507.96 24.9306 1506.85 24.4413 1505.82 26.6173C1505.11 28.1846 1503.39 28.3184 1501.84 27.9001C1499.19 27.239 1496.61 27.0686 1493.98 27.7907C1489.89 28.8811 1485.83 29.4759 1481.53 28.4506C1478.49 27.7101 1475.33 27.6673 1472.62 29.7775C1471.24 26.7803 1471.77 23.5904 1470 20.7605C1468.79 22.204 1468.62 23.6955 1468.25 25.1474C1467.16 29.2539 1465.14 30.1936 1460.81 28.5765C1460.75 31.3971 1461.98 34.3029 1459.91 37.321C1459.52 35.5109 1459.11 34.0976 1458.99 32.6699C1458.87 31.2422 1458.43 29.2865 1460.98 28.8652ZM1638.24 21.2127C1631.39 24.317 1624.11 25.8108 1616.61 25.8817C1623.96 24.8786 1630.69 21.1381 1638.24 21.2127ZM1526.05 29.6295C1532.57 28.8647 1538.38 24.5265 1545.8 25.7943C1539.04 27.8064 1532.83 30.0386 1526.05 29.6295ZM1571.32 28.0034C1574.77 28.0317 1577.97 26.8368 1581.29 26.0316C1584.51 25.2806 1587.59 23.7453 1591.56 24.144C1584.87 27.5863 1578.18 28.0131 1571.32 28.0034ZM1684.07 19.0151C1678.44 20.8732 1672.99 23.4143 1666.84 22.7766C1672.49 21.3131 1678.06 19.2109 1684.07 19.0151ZM1483.36 30.5359C1479.75 31.3063 1476.22 32.9126 1471.7 32.1459C1475.63 28.8881 1479.52 29.5875 1483.36 30.5359ZM1448.4 34.969C1443.06 34.9337 1437.81 34.4005 1432.39 32.6392C1438.25 31.314 1443.24 33.5408 1448.4 34.969ZM1469.38 35.1761C1468.51 31.5113 1468.23 27.9162 1470.09 24.5625C1470.61 28.1949 1472.13 31.8776 1469.38 35.1761ZM1632.55 24.8039C1635.36 23.9242 1638.18 23.0445 1641.06 22.2611C1641.74 22.0793 1642.9 21.6762 1643.24 22.5987C1643.7 23.8123 1642.43 24.0229 1641.61 24.4092C1638.71 25.6882 1635.67 25.0464 1632.55 24.8039ZM1563.29 20.2406C1565.35 22.9574 1564.46 26.0656 1565.28 28.7441C1565.51 29.4248 1564.69 30.6518 1563.65 30.6532C1562.42 30.7135 1562.8 29.5082 1562.72 28.8203C1562.39 26.1176 1562.95 23.3715 1563.29 20.2406ZM1457.76 32.7303C1451.85 33.9593 1449.82 33.9103 1446.35 32.4987C1450.46 30.8142 1454.1 31.5256 1457.76 32.7303ZM1498.74 29.1888C1493.72 30.3743 1488.64 31.6116 1483.62 32.7972C1488.29 30.3439 1493.31 29.2077 1498.74 29.1888ZM1540.68 29.11C1544.22 27.8982 1547.57 25.7567 1552.43 27.2979C1548.02 28.9477 1544.39 29.3235 1540.68 29.11ZM1611.11 24.4705C1614.6 22.0752 1618.58 22.6712 1622.47 22.5791C1618.83 23.9437 1615.07 24.5733 1611.11 24.4705ZM1493.19 31.7348C1497.24 30.8441 1501.29 29.904 1505.39 29.0109C1502.02 32.7353 1497.53 31.769 1493.19 31.7348ZM1607.92 18.5965C1609.67 21.2292 1609.21 23.9211 1609.34 26.5348C1609.38 27.2745 1608.91 27.8904 1608.07 27.7835C1607.23 27.7259 1607.39 26.9765 1607.31 26.4858C1606.99 23.9804 1607.41 21.4388 1607.92 18.5965ZM1553.3 32.9894C1553.16 29.9813 1553 27.8632 1553 25.6885C1553.01 24.9957 1553.52 24.3774 1554.31 24.2894C1554.8 24.2653 1555.22 24.7391 1555.14 25.1878C1554.71 27.5321 1556.08 30.1348 1553.3 32.9894ZM1653.93 16.1921C1654.33 16.1728 1654.68 16.2052 1655.07 16.1859C1655.18 18.4544 1655.34 20.7204 1655.4 22.9913C1655.44 23.731 1655.79 24.8508 1654.61 24.9087C1653.77 24.9497 1653.23 24.0862 1653.29 23.1937C1653.47 20.8121 1653.7 18.5268 1653.93 16.1921ZM1507.33 34.4028C1505.92 31.8025 1506.51 29.5989 1506.84 27.4074C1506.96 26.8083 1507.27 26.101 1507.82 26.1731C1508.46 26.2404 1509.09 26.9511 1508.88 27.7029C1508.39 29.7538 1508.65 32.015 1507.33 34.4028ZM1657.08 22.0685C1661.33 20.0808 1664.37 19.7832 1669.44 20.5234C1665.58 22.1959 1661.75 21.6913 1657.08 22.0685ZM1517.03 22.805C1516.89 25.9263 1518.33 29.1183 1516.3 32.1341C1515.46 28.9624 1515.95 25.8736 1517.03 22.805ZM1588.06 27.3801C1590.61 25.97 1592.94 25.2624 1595.44 24.7941C1595.98 24.7183 1596.64 24.2407 1596.88 24.9707C1597.11 25.6022 1596.9 26.3539 1595.91 26.4515C1593.46 26.8188 1591.1 27.9233 1588.06 27.3801ZM1566.87 26.8374C1570.08 24.9004 1573.5 24.2383 1577.13 25.7905C1573.69 26.1567 1570.31 26.5205 1566.87 26.8374ZM1598.47 30.3301C1598.51 27.0164 1597.44 24.3993 1599.63 21.6722C1600.87 24.9232 1599.95 27.2423 1598.47 30.3301ZM1560.06 24.8478C1561.04 25.7389 1561.09 26.8239 1561.24 27.756C1561.43 28.6857 1561.89 30.0472 1560.42 30.2676C1558.71 30.5493 1559.27 28.9399 1559.23 28.1015C1559.23 27.1128 1558.68 25.9041 1560.06 24.8478ZM1466.38 35.422C1466 33.8091 1464.31 32.5079 1465.75 30.6085C1465.93 30.3522 1466.53 30.3726 1466.92 30.2547C1467.39 31.9121 1467.72 33.5274 1467.01 35.1933C1467.01 35.292 1466.81 35.2523 1466.38 35.422Z" fill="white"/>
<path d="M998.272 51.5507C997.399 50.16 996.062 50.621 995.909 51.6171C995.449 54.5562 993.383 53.4711 992.01 53.1924C988.402 52.4795 984.995 52.7948 981.588 54.1482C979.465 54.9938 977.446 53.857 975.376 53.7113C970.978 53.3337 966.662 53.5947 962.452 54.9875C962.055 55.1058 961.824 55.5127 961.001 56.1956C965.102 56.6866 968.796 56.0606 972.522 58.1518C968.589 59.0367 965.133 57.3277 961.323 58.6515C965.103 59.8008 968.692 60.1192 972.085 59.5079C975.827 58.8302 979.44 58.6036 983.242 59.1587C986.688 59.6324 990.178 58.9669 993.349 57.9217C995.675 57.1156 995.62 58.0575 995.798 59.6307C995.97 61.1052 996.294 62.5723 996.567 64.0419C997.112 63.8669 997.461 63.8003 997.506 63.6992C998.107 58.4794 1001.29 57.73 1005.69 59.0964C1006.71 59.3924 1007.86 59.2864 1008.28 58.5739C1009.9 55.6768 1012.3 56.4488 1014.69 56.8755C1014.79 56.8706 1014.94 56.9618 1015.04 56.9569C1024.46 55.9517 1034.03 57.1138 1043.92 54.5034C1043.99 56.0814 1044.08 57.7581 1044.15 59.3855C1044.19 60.0266 1043.93 60.9783 1044.89 61.0302C1045.75 61.087 1045.91 60.2388 1046.18 59.6322C1046.23 59.5312 1046.22 59.3832 1046.26 59.2821C1048.15 54.6418 1048.24 54.4396 1053.2 56.0255C1055.6 56.7974 1056.54 56.4055 1056.63 54.0285C1056.66 52.6921 1057.05 52.3272 1058.57 52.6479C1063.92 53.8195 1069.23 53.4106 1074.69 52.9451C1079.55 52.509 1084.54 53.5993 1089.4 52.1252C1091.04 51.6494 1091.25 52.9735 1091.47 54.199C1091.79 55.7154 1091.02 57.5326 1092.69 58.6867C1094.65 57.5526 1093.63 54.1918 1096.13 53.8714C1098.13 53.625 1100.27 54.212 1102.31 54.6067C1103.58 54.8904 1104.62 54.5921 1104.92 53.4899C1105.57 51.2832 1106.73 51.3252 1108.76 51.6706C1112.36 52.2355 1115.99 52.4528 1119.61 51.3361C1122.49 50.4536 1125.47 51.6916 1128.43 51.5464C1129.13 51.5119 1129.88 51.3271 1130.54 51.443C1132.67 51.7834 1134.91 49.3006 1136.55 50.901C1137.72 52.0797 1137.64 54.506 1138.14 56.5082C1138.58 56.2395 1138.97 56.1211 1139.11 55.8672C1139.99 54.2423 1139.55 51.5448 1141.29 50.9162C1142.92 50.3418 1145.22 51.0694 1147.1 51.5208C1148.27 51.8094 1149.59 52.0412 1149.95 51.0846C1151.01 48.1159 1152.93 49.307 1155 49.4527C1157.68 49.6181 1160.36 49.8821 1163.11 49.4015C1166.15 48.8569 1169.26 48.7042 1172.51 49.1878C1176.36 49.7897 1180.41 49.1958 1184.56 47.5589C1184.68 49.9753 1184.77 51.9972 1184.87 54.0191C1186.43 53.9921 1186.23 52.8653 1186.5 52.2094C1188.36 48.114 1189.39 47.5198 1193.97 48.6298C1195.65 49.0417 1196.98 49.3229 1197.58 47.2665C1198.19 45.3088 1199.82 45.8218 1201.1 46.1548C1206.04 47.4448 1210.86 47.0605 1215.79 46.0278C1219.03 45.3253 1222.32 46.6965 1225.66 46.0384C1227.6 45.6465 1229.5 45.4543 1231.04 44.0441C1227.91 44.8896 1224.73 44.6995 1221.5 44.4625C1224.43 43.5775 1227.31 42.7444 1230.33 41.8052C1228.55 40.3601 1226.91 39.7485 1223.82 40.4436C1217.85 41.7746 1211.93 42.2623 1205.85 41.4728C1203.83 41.226 1201.78 41.5242 1200.02 42.5498C1197.67 43.9009 1197.11 42.7419 1196.96 40.7225C1196.8 38.6044 1196.6 36.5382 1195.65 34.5581C1194.18 35.3717 1194.25 36.9004 1194.01 38.1481C1193.29 41.8416 1191.34 43.2223 1187.75 41.8165C1186.31 41.2444 1185.6 41.0323 1185.06 42.4426C1184.66 43.4017 1184.14 43.1305 1183.38 42.9701C1178.29 41.8848 1173.34 42.4737 1168.49 44.1944C1167.8 44.4261 1167.25 44.6998 1166.49 44.4408C1161.83 42.9388 1157.18 43.4636 1152.56 44.7775C1150.68 45.3149 1150.15 44.8956 1150.06 42.9724C1149.96 40.9012 1149.35 38.8546 1148.95 36.6995C1146.93 37.7374 1147.33 39.6459 1146.95 41.1968C1146.16 44.4983 1144.2 45.731 1141.16 44.2489C1139.61 43.4844 1138.69 43.0849 1137.71 44.7147C1137.01 45.8858 1135.75 45.7008 1134.83 45.4985C1130.86 44.5563 1127.08 45.5324 1123.36 46.5554C1121.62 47.0361 1120.08 46.4195 1118.56 46.1975C1114.7 45.6448 1110.98 45.6791 1107.43 47.1878C1105.36 48.0802 1105.14 46.7561 1104.84 45.5849C1104.28 43.3879 1103.91 41.1317 1103.39 38.735C1101.13 39.7852 1101.48 41.8934 1101.4 43.3309C1101.26 46.6005 1099.3 46.5485 1097.02 46.2648C1094.89 46.023 1092.82 44.8886 1090.86 46.8634C1090.38 47.3319 1089.01 47.2011 1088.1 47.0482C1084.08 46.3057 1080.12 46.5988 1076.2 47.6316C1074.16 48.1763 1071.98 47.8877 1069.85 47.5965C1065.7 47.108 1061.71 47.8967 1057.98 49.8098C1062.23 50.2934 1066.29 47.9193 1071.08 48.97C1066.87 50.5108 1062.87 50.905 1058.81 51.2523C1057.1 51.3853 1058.2 50.2438 1058.07 49.6569C1056.06 48.6187 1057.38 46.7251 1056.96 45.3123C1056.54 43.998 1056.27 42.627 1055.95 41.2092C1053.84 42.2027 1054.09 44.2666 1053.61 45.7731C1052.55 48.8896 1050.79 50.0139 1047.9 48.475C1046.2 47.57 1045.06 47.0817 1044.01 49.2588C1043.28 50.827 1041.53 50.9624 1039.95 50.5456C1037.25 49.887 1034.62 49.7192 1031.94 50.4439C1027.77 51.5383 1023.62 52.1371 1019.24 51.116C1016.13 50.3785 1012.91 50.3388 1010.14 52.4517C1008.74 49.4557 1009.29 46.2651 1007.49 43.4368C1006.25 44.8816 1006.07 46.3734 1005.69 47.8256C1004.58 51.9334 1002.51 52.8752 998.107 51.2622C998.043 54.083 999.292 56.9877 997.175 60.008C996.785 58.1982 996.363 56.7853 996.243 55.3576C996.123 53.93 995.675 51.9746 998.272 51.5507ZM1179.09 43.7243C1172.09 46.8355 1164.66 48.3365 1157.02 48.4148C1164.52 47.4044 1171.38 43.6571 1179.09 43.7243ZM1064.64 52.2514C1071.3 51.4802 1077.23 47.136 1084.79 48.3966C1077.89 50.4155 1071.56 52.6539 1064.64 52.2514ZM1110.82 50.5809C1114.34 50.6058 1117.61 49.4077 1120.99 48.5993C1124.27 47.845 1127.42 46.3067 1131.47 46.7015C1124.64 50.1505 1117.81 50.5839 1110.82 50.5809ZM1225.84 41.4818C1220.09 43.3454 1214.52 45.892 1208.25 45.2603C1214.02 43.7912 1219.7 41.6835 1225.84 41.4818ZM1021.1 53.1997C1017.42 53.9736 1013.82 55.5834 1009.2 54.8211C1013.22 51.5593 1017.18 52.255 1021.1 53.1997ZM985.434 57.6671C979.997 57.6371 974.636 57.109 969.114 55.353C975.089 54.022 980.18 56.244 985.434 57.6671ZM1006.83 57.8538C1005.95 54.1896 1005.67 50.5946 1007.57 47.2389C1008.1 50.871 1009.64 54.5524 1006.83 57.8538ZM1173.27 47.3213C1176.15 46.4388 1179.02 45.5563 1181.96 44.77C1182.65 44.5876 1183.84 44.1833 1184.19 45.1055C1184.65 46.3187 1183.35 46.5306 1182.51 46.9177C1179.56 48.1996 1176.45 47.5607 1173.27 47.3213ZM1102.64 42.8256C1104.73 45.5405 1103.83 48.6497 1104.66 51.3275C1104.9 52.0081 1104.05 53.2359 1103 53.2383C1101.74 53.2998 1102.13 52.0941 1102.05 51.4062C1101.72 48.7037 1102.29 45.957 1102.64 42.8256ZM994.988 55.4192C988.958 56.654 986.892 56.607 983.35 55.1988C987.546 53.5101 991.255 54.2181 994.988 55.4192ZM1036.79 51.8374C1031.66 53.0279 1026.49 54.2702 1021.36 55.4607C1026.13 53.0028 1031.25 51.8616 1036.79 51.8374ZM1079.57 51.7175C1083.18 50.5022 1086.6 48.3573 1091.56 49.8939C1087.06 51.548 1083.35 51.9274 1079.57 51.7175ZM1151.41 47.0089C1154.97 44.61 1159.02 45.2021 1163 45.1063C1159.29 46.4744 1155.44 47.1078 1151.41 47.0089ZM1031.13 54.3889C1035.26 53.4942 1039.39 52.5502 1043.58 51.653C1040.13 55.3809 1035.56 54.4189 1031.13 54.3889ZM1148.16 41.1377C1149.95 43.7688 1149.47 46.4613 1149.6 49.075C1149.64 49.8147 1149.16 50.4311 1148.3 50.325C1147.44 50.2682 1147.61 49.5187 1147.53 49.028C1147.21 46.5228 1147.64 43.9807 1148.16 41.1377ZM1092.44 55.5848C1092.29 52.5766 1092.14 50.4586 1092.13 48.2838C1092.15 47.5909 1092.67 46.9721 1093.47 46.8834C1093.98 46.8588 1094.4 47.3322 1094.32 47.781C1093.88 50.1258 1095.27 52.7273 1092.44 55.5848ZM1195.1 38.6881C1195.5 38.6684 1195.85 38.7005 1196.25 38.6808C1196.37 40.9493 1196.53 43.2153 1196.59 45.4862C1196.62 46.2259 1196.98 47.3454 1195.77 47.4045C1194.92 47.4463 1194.38 46.5833 1194.43 45.6907C1194.62 43.3088 1194.86 41.0231 1195.1 38.6881ZM1045.55 57.0432C1044.11 54.4442 1044.71 52.2399 1045.06 50.0479C1045.18 49.4488 1045.5 48.7411 1046.05 48.8127C1046.71 48.8793 1047.35 49.5895 1047.14 50.3415C1046.63 52.393 1046.89 54.654 1045.55 57.0432ZM1198.3 44.5617C1202.64 42.5698 1205.74 42.2692 1210.91 43.0044C1206.97 44.6808 1203.07 44.1799 1198.3 44.5617ZM1055.45 45.4354C1055.3 48.557 1056.77 51.7477 1054.7 54.7656C1053.84 51.5946 1054.34 48.5051 1055.45 45.4354ZM1127.9 49.9412C1130.5 48.5285 1132.88 47.8186 1135.42 47.3478C1135.97 47.2715 1136.65 46.7932 1136.89 47.523C1137.12 48.1543 1136.91 48.9063 1135.91 49.0048C1133.41 49.3745 1131 50.4814 1127.9 49.9412ZM1106.28 49.4192C1109.56 47.4789 1113.05 46.8135 1116.75 48.3622C1113.24 48.7318 1109.79 49.0989 1106.28 49.4192ZM1138.51 52.8812C1138.55 49.5672 1137.47 46.951 1139.7 44.2217C1140.97 47.4716 1140.02 49.7917 1138.51 52.8812ZM1099.34 47.4362C1100.34 48.3264 1100.39 49.4113 1100.54 50.3433C1100.73 51.2729 1101.2 52.634 1099.7 52.8558C1097.96 53.1393 1098.53 51.5292 1098.49 50.6908C1098.49 49.7021 1097.93 48.4939 1099.34 47.4362ZM1003.78 58.1026C1003.4 56.49 1001.67 55.1904 1003.14 53.2894C1003.33 53.033 1003.93 53.0528 1004.33 52.9345C1004.81 54.5915 1005.14 56.2065 1004.42 57.8733C1004.42 57.9719 1004.22 57.9325 1003.78 58.1026Z" fill="white"/>
<path d="M1430.74 30.3492C1431.47 28.8797 1432.84 29.2078 1433.09 30.1842C1433.84 33.0642 1435.79 31.7822 1437.13 31.3705C1440.65 30.3081 1444.07 30.2886 1447.59 31.3023C1449.79 31.9362 1451.69 30.6073 1453.73 30.2598C1458.07 29.4539 1462.39 29.2915 1466.72 30.2658C1467.13 30.3447 1467.4 30.727 1468.28 31.3262C1464.25 32.216 1460.51 31.9543 1457.01 34.4C1461.01 34.896 1464.28 32.8571 1468.2 33.8018C1464.55 35.3154 1461.01 35.9833 1457.57 35.7069C1453.78 35.3984 1450.17 35.5263 1446.44 36.4507C1443.05 37.2591 1439.51 36.9383 1436.26 36.2082C1433.86 35.6335 1434.01 36.5655 1433.99 38.1485C1433.96 39.6329 1433.78 41.1246 1433.65 42.6139C1433.09 42.493 1432.74 42.461 1432.68 42.3648C1431.58 37.2286 1428.33 36.7944 1424.09 38.5842C1423.1 38.9786 1421.95 38.9859 1421.46 38.3177C1419.57 35.5929 1417.25 36.5962 1414.92 37.2544C1414.82 37.2593 1414.67 37.3653 1414.57 37.3703C1405.1 37.2906 1395.69 39.3832 1385.6 37.7526C1385.67 39.3306 1385.76 41.0073 1385.84 42.6347C1385.87 43.2758 1386.21 44.198 1385.27 44.3434C1384.42 44.4839 1384.17 43.6554 1383.84 43.0784C1383.79 42.9822 1383.78 42.8343 1383.73 42.7381C1381.4 38.3046 1381.29 38.1122 1376.51 40.1757C1374.19 41.179 1373.22 40.8806 1372.9 38.5233C1372.74 37.1968 1372.32 36.8713 1370.83 37.3396C1365.63 39.0282 1360.3 39.1412 1354.82 39.2123C1349.94 39.2538 1345.08 40.8265 1340.1 39.8349C1338.42 39.5216 1338.34 40.8605 1338.25 42.1008C1338.07 43.6418 1339.01 45.3753 1337.46 46.6869C1335.4 45.7498 1336.09 42.3052 1333.57 42.2311C1331.56 42.1816 1329.48 42.9754 1327.5 43.567C1326.26 43.9737 1325.19 43.7789 1324.79 42.7112C1323.93 40.5783 1322.78 40.7335 1320.79 41.2758C1317.26 42.1903 1313.67 42.7621 1309.95 42.0048C1307.01 41.4079 1304.16 42.9314 1301.2 43.0767C1300.5 43.1111 1299.74 43.0001 1299.09 43.1801C1297 43.7273 1294.53 41.4759 1293.05 43.2289C1292.01 44.5159 1292.33 46.9225 1292.02 48.9641C1291.56 48.7396 1291.15 48.6607 1290.99 48.4215C1289.96 46.8902 1290.13 44.1632 1288.34 43.7069C1286.66 43.295 1284.44 44.2441 1282.61 44.8776C1281.48 45.2794 1280.18 45.6393 1279.74 44.722C1278.39 41.8716 1276.59 43.2448 1274.55 43.5923C1271.9 44.0187 1269.26 44.5437 1266.48 44.3339C1263.4 44.0895 1260.29 44.2421 1257.1 45.0408C1253.33 46.0169 1249.24 45.8218 1244.95 44.5984C1245.07 47.0148 1245.17 49.0367 1245.27 51.0586C1243.71 51.1842 1243.81 50.0426 1243.48 49.4163C1241.22 45.5228 1240.14 45.032 1235.69 46.585C1234.05 47.1594 1232.77 47.5686 1231.96 45.5812C1231.17 43.6924 1229.59 44.3629 1228.35 44.819C1223.56 46.5865 1218.73 46.6749 1213.72 46.1296C1210.43 45.7471 1207.29 47.4334 1203.9 47.1052C1201.93 46.9053 1200.02 46.9003 1198.34 45.6475C1201.54 46.1829 1204.69 45.6826 1207.88 45.1305C1204.88 44.536 1201.94 43.9884 1198.84 43.3495C1200.47 41.7371 1202.04 40.9679 1205.18 41.3578C1211.26 42.098 1217.19 42.0047 1223.16 40.6244C1225.16 40.1807 1227.22 40.2771 1229.08 41.1254C1231.55 42.2401 1231.99 41.032 1231.94 39.0076C1231.89 36.8846 1231.89 34.8085 1232.65 32.7448C1234.19 33.4106 1234.26 34.9394 1234.62 36.1575C1235.71 39.7624 1237.78 40.9461 1241.21 39.1958C1242.59 38.4857 1243.28 38.2047 1243.95 39.556C1244.45 40.4708 1244.94 40.1503 1245.68 39.9161C1250.64 38.3384 1255.62 38.4399 1260.62 39.6781C1261.33 39.8409 1261.89 40.0604 1262.63 39.7276C1267.12 37.7776 1271.8 37.8445 1276.52 38.7005C1278.45 39.0508 1278.93 38.5824 1278.84 36.6591C1278.74 34.5879 1279.14 32.4921 1279.33 30.3075C1281.44 31.1435 1281.23 33.0815 1281.76 34.5881C1282.87 37.7961 1284.94 38.8319 1287.82 37.0593C1289.28 36.1471 1290.17 35.6589 1291.3 37.1853C1292.11 38.2826 1293.35 37.9745 1294.24 37.6836C1298.1 36.3574 1301.96 36.9593 1305.76 37.613C1307.54 37.9214 1309.01 37.1571 1310.51 36.7874C1314.29 35.8606 1317.99 35.5305 1321.67 36.6847C1323.82 37.3704 1323.91 36.0315 1324.1 34.8356C1324.44 32.5943 1324.58 30.3136 1324.87 27.8775C1327.22 28.7012 1327.08 30.834 1327.3 32.2568C1327.76 35.4967 1329.71 35.2528 1331.95 34.7475C1334.04 34.2989 1335.99 32.9676 1338.14 34.7406C1338.66 35.1598 1340.01 34.8961 1340.9 34.6545C1344.82 33.5231 1348.79 33.4272 1352.8 34.0711C1354.88 34.414 1357.02 33.9136 1359.11 33.4157C1363.2 32.5235 1367.24 32.9183 1371.14 34.4572C1366.96 35.3544 1362.68 33.3889 1358.03 34.9025C1362.36 36.0247 1366.39 36.025 1370.46 35.9736C1372.17 35.9392 1370.96 34.9109 1371.03 34.3142C1372.94 33.084 1371.44 31.3283 1371.72 29.8809C1372.01 28.5322 1372.14 27.1415 1372.33 25.6991C1374.53 26.4809 1374.48 28.5595 1375.1 30.0119C1376.46 33.0103 1378.32 33.9573 1381.05 32.1427C1382.65 31.0752 1383.73 30.4786 1384.99 32.5425C1385.87 34.0319 1387.63 33.995 1389.16 33.4255C1391.78 32.506 1394.38 32.0822 1397.12 32.541C1401.38 33.2219 1405.57 33.4121 1409.83 31.9675C1412.85 30.9297 1416.05 30.5749 1419.01 32.4071C1420.11 29.2881 1419.26 26.1664 1420.77 23.1757C1422.15 24.4925 1422.47 25.9596 1422.99 27.3675C1424.49 31.3473 1426.64 32.0823 1430.87 30.0459C1431.21 32.847 1430.25 35.86 1432.65 38.6588C1432.86 36.8194 1433.15 35.3721 1433.13 33.9395C1433.11 32.5069 1433.36 30.5171 1430.74 30.3492ZM1250.02 40.2469C1257.29 42.6589 1264.83 43.4263 1272.44 42.7563C1264.88 42.4844 1257.68 39.4264 1250.02 40.2469ZM1364.75 37.5389C1358.05 37.4224 1351.73 33.679 1344.32 35.6731C1351.39 37.0077 1357.91 38.6158 1364.75 37.5389ZM1318.63 40.3929C1315.13 40.7625 1311.76 39.8894 1308.32 39.4157C1304.98 38.9864 1301.69 37.7631 1297.71 38.5518C1304.84 41.3164 1311.67 41.0803 1318.63 40.3929ZM1203.28 42.588C1209.18 43.8805 1214.97 45.8708 1221.15 44.6286C1215.26 43.7306 1209.4 42.189 1203.28 42.588ZM1408.18 34.2235C1411.92 34.6331 1415.66 35.8835 1420.18 34.6732C1415.86 31.8201 1411.99 32.8997 1408.18 34.2235ZM1444.11 35.1806C1449.52 34.6189 1454.8 33.5689 1460.13 31.2812C1454.05 30.541 1449.2 33.2504 1444.11 35.1806ZM1422.83 37.4597C1423.35 33.7266 1423.28 30.1218 1421.06 26.9679C1420.89 30.6344 1419.71 34.4488 1422.83 37.4597ZM1256.16 43.258C1253.21 42.661 1250.26 42.0641 1247.27 41.5683C1246.56 41.4548 1245.34 41.1687 1245.08 42.1204C1244.74 43.3729 1246.05 43.4569 1246.92 43.7602C1249.99 44.7468 1253.02 43.8076 1256.16 43.258ZM1326.02 31.8745C1324.2 34.7814 1325.4 37.7872 1324.83 40.534C1324.66 41.2342 1325.63 42.3734 1326.68 42.2724C1327.93 42.2109 1327.42 41.0495 1327.44 40.3566C1327.51 37.6345 1326.67 34.9567 1326.02 31.8745ZM1434.38 33.8779C1440.5 34.5171 1442.55 34.2682 1445.94 32.5203C1441.6 31.2501 1437.98 32.3174 1434.38 33.8779ZM1392.43 34.4022C1397.65 35.0857 1402.92 35.8159 1408.14 36.4994C1403.16 34.519 1397.94 33.8849 1392.43 34.4022ZM1349.85 38.4672C1346.13 37.6113 1342.52 35.8111 1337.74 37.8252C1342.37 39.0313 1346.1 39.0464 1349.85 38.4672ZM1277.89 40.8088C1274.11 38.7694 1270.13 39.7553 1266.17 40.0484C1269.99 41.0473 1273.88 41.3016 1277.89 40.8088ZM1398.32 36.3876C1394.11 35.9015 1389.91 35.3661 1385.66 34.8825C1389.45 38.2559 1393.91 36.8508 1398.32 36.3876ZM1280.55 34.6472C1279.03 37.4407 1279.76 40.0742 1279.89 42.6878C1279.93 43.4276 1280.46 43.9947 1281.3 43.8049C1282.15 43.6644 1281.91 42.9346 1281.94 42.439C1282.02 39.9141 1281.34 37.4261 1280.55 34.6472ZM1337.41 43.5752C1337.27 40.567 1337.21 38.444 1337.01 36.2791C1336.92 35.5912 1336.34 35.0265 1335.53 35.0166C1335.03 35.0412 1334.65 35.554 1334.78 35.9929C1335.44 38.2836 1334.32 41.0081 1337.41 43.5752ZM1233.6 36.8009C1233.2 36.8206 1232.85 36.8872 1232.45 36.9069C1232.56 39.1753 1232.62 41.4463 1232.78 43.7123C1232.81 44.452 1232.57 45.601 1233.77 45.5419C1234.63 45.5 1235.09 44.5878 1234.94 43.705C1234.53 41.3527 1234.06 39.1015 1233.6 36.8009ZM1384.22 40.4401C1385.39 37.7131 1384.59 35.5777 1384.03 33.4301C1383.85 32.8457 1383.46 32.1725 1382.92 32.2982C1382.27 32.4288 1381.7 33.1981 1381.99 33.9255C1382.69 35.9179 1382.65 38.1937 1384.22 40.4401ZM1230.98 42.9601C1226.47 41.4014 1223.35 41.4061 1218.28 42.6434C1222.37 43.9259 1226.2 43.046 1230.98 42.9601ZM1373.23 29.8564C1373.69 32.9484 1372.54 36.2672 1374.89 39.0684C1375.44 35.8285 1374.64 32.803 1373.23 29.8564ZM1301.57 41.4271C1298.85 40.2754 1296.41 39.8018 1293.83 39.5822C1293.28 39.5599 1292.55 39.1506 1292.39 39.9001C1292.22 40.5511 1292.5 41.2785 1293.51 41.2786C1296.03 41.402 1298.54 42.2677 1301.57 41.4271ZM1323.04 38.793C1319.58 37.1826 1316.05 36.8618 1312.51 38.7651C1316.04 38.79 1319.51 38.8174 1323.04 38.793ZM1291.3 45.3912C1290.93 42.097 1291.76 39.3872 1289.27 36.8892C1288.33 40.2475 1289.49 42.4642 1291.3 45.3912ZM1329.75 36.1405C1328.84 37.1242 1328.9 38.2091 1328.84 39.151C1328.74 40.0954 1328.4 41.4959 1329.92 41.57C1331.68 41.6811 1330.95 40.135 1330.91 39.2967C1330.81 38.3128 1331.26 37.0554 1329.75 36.1405ZM1425.9 37.4082C1426.12 35.766 1427.71 34.304 1426.06 32.5557C1425.85 32.3189 1425.25 32.3978 1424.84 32.3188C1424.52 34.0152 1424.35 35.6549 1425.23 37.2429C1425.24 37.3415 1425.44 37.2824 1425.9 37.4082Z" fill="white"/>
<path d="M1903.45 7.17356C1904.19 5.70405 1905.56 6.0321 1905.81 7.00854C1906.56 9.88855 1908.51 8.60654 1909.85 8.19487C1913.37 7.13244 1916.79 7.11299 1920.31 8.12668C1922.51 8.76054 1924.41 7.43167 1926.45 7.08417C1930.79 6.27823 1935.11 6.11584 1939.44 7.09015C1939.84 7.16908 1940.12 7.55129 1941 8.15053C1936.97 9.04033 1933.23 8.77866 1929.72 11.2244C1933.73 11.7203 1937 9.68142 1940.92 10.6261C1937.27 12.1398 1933.73 12.8077 1930.29 12.5312C1926.5 12.2227 1922.88 12.3506 1919.15 13.275C1915.77 14.0835 1912.23 13.7626 1908.98 13.0325C1906.58 12.4578 1906.73 13.3899 1906.7 14.9729C1906.68 16.4572 1906.5 17.949 1906.37 19.4382C1905.81 19.3174 1905.46 19.2853 1905.4 19.1891C1904.29 14.053 1901.05 13.6187 1896.81 15.4085C1895.82 15.8029 1894.67 15.8102 1894.18 15.142C1892.29 12.4172 1889.97 13.4206 1887.64 14.0787C1887.53 14.0837 1887.39 14.1897 1887.29 14.1946C1877.82 14.1149 1868.41 16.2076 1858.32 14.5769C1858.39 16.155 1858.47 17.8317 1858.55 19.4591C1858.59 20.1001 1858.93 21.0223 1857.98 21.1677C1857.13 21.3082 1856.89 20.4797 1856.56 19.9027C1856.51 19.8066 1856.5 19.6586 1856.45 19.5624C1854.12 15.1289 1854 14.9366 1849.22 17C1846.91 18.0033 1845.94 17.7049 1845.62 15.3477C1845.45 14.0211 1845.04 13.6956 1843.55 14.164C1838.35 15.8526 1833.02 15.9656 1827.53 16.0366C1822.65 16.0781 1817.8 17.6509 1812.82 16.6593C1811.14 16.346 1811.05 17.6849 1810.96 18.9251C1810.79 20.4662 1811.73 22.1996 1810.18 23.5113C1808.12 22.5741 1808.81 19.1296 1806.29 19.0554C1804.27 19.0059 1802.2 19.7997 1800.21 20.3913C1798.98 20.7981 1797.91 20.6032 1797.51 19.5355C1796.65 17.4026 1795.5 17.5579 1793.51 18.1001C1789.98 19.0146 1786.38 19.5864 1782.67 18.8291C1779.72 18.2322 1776.88 19.7558 1773.92 19.901C1773.21 19.9355 1772.45 19.8245 1771.81 20.0044C1769.72 20.5516 1767.25 18.3002 1765.77 20.0532C1764.73 21.3402 1765.05 23.7468 1764.74 25.7884C1764.28 25.564 1763.87 25.485 1763.71 25.2459C1762.68 23.7146 1762.85 20.9875 1761.06 20.5312C1759.38 20.1193 1757.16 21.0684 1755.33 21.702C1754.19 22.1038 1752.9 22.4637 1752.46 21.5464C1751.11 18.6959 1749.31 20.0692 1747.27 20.4167C1744.62 20.843 1741.98 21.368 1739.2 21.1582C1736.12 20.9138 1733 21.0665 1729.82 21.8651C1726.04 22.8412 1721.96 22.6461 1717.67 21.4228C1717.79 23.8392 1717.89 25.8611 1717.99 27.883C1716.43 28.0086 1716.53 26.867 1716.19 26.2406C1713.94 22.3471 1712.86 21.8563 1708.4 23.4094C1706.77 23.9838 1705.48 24.393 1704.68 22.4055C1703.88 20.5167 1702.31 21.1873 1701.07 21.6433C1696.28 23.4109 1691.45 23.4993 1686.44 22.9539C1683.15 22.5715 1680.01 24.2578 1676.62 23.9296C1674.65 23.7297 1672.73 23.7246 1671.06 22.4719C1674.26 23.0072 1677.41 22.5069 1680.6 21.9548C1677.6 21.3604 1674.66 20.8127 1671.55 20.1739C1673.19 18.5614 1674.76 17.7923 1677.9 18.1821C1683.98 18.9223 1689.91 18.8291 1695.88 17.4488C1697.87 17.0051 1699.94 17.1014 1701.8 17.9498C1704.27 19.0645 1704.71 17.8563 1704.66 15.8319C1704.61 13.709 1704.61 11.6328 1705.36 9.5691C1706.91 10.235 1706.98 11.7637 1707.34 12.9818C1708.42 16.5868 1710.5 17.7705 1713.93 16.0201C1715.31 15.3101 1716 15.029 1716.67 16.3803C1717.17 17.2951 1717.65 16.9746 1718.4 16.7404C1723.35 15.1628 1728.34 15.2643 1733.33 16.5025C1734.05 16.6653 1734.61 16.8848 1735.35 16.5519C1739.84 14.6019 1744.52 14.6689 1749.24 15.5249C1751.17 15.8751 1751.65 15.4067 1751.56 13.4834C1751.46 11.4122 1751.86 9.3164 1752.05 7.1318C1754.16 7.96784 1753.95 9.90587 1754.48 11.4125C1755.59 14.6204 1757.65 15.6562 1760.54 13.8836C1762 12.9714 1762.88 12.4833 1764.02 14.0096C1764.82 15.1069 1766.07 14.7988 1766.96 14.5079C1770.82 13.1817 1774.68 13.7836 1778.48 14.4374C1780.26 14.7457 1781.73 13.9815 1783.22 13.6117C1787 12.6849 1790.71 12.3548 1794.39 13.5091C1796.54 14.1947 1796.63 12.8558 1796.82 11.66C1797.16 9.41867 1797.3 7.1379 1797.59 4.7018C1799.94 5.52554 1799.79 7.65837 1800.01 9.0811C1800.47 12.3211 1802.43 12.0771 1804.67 11.5718C1806.76 11.1233 1808.71 9.79192 1810.86 11.5649C1811.38 11.9842 1812.73 11.7204 1813.62 11.4789C1817.54 10.3474 1821.51 10.2516 1825.52 10.8954C1827.6 11.2383 1829.74 10.738 1831.83 10.2401C1835.91 9.34782 1839.96 9.74266 1843.86 11.2816C1839.68 12.1788 1835.4 10.2132 1830.75 11.7268C1835.08 12.8491 1839.11 12.8494 1843.18 12.7979C1844.89 12.7635 1843.68 11.7353 1843.75 11.1386C1845.66 9.90832 1844.16 8.15261 1844.44 6.70526C1844.73 5.35654 1844.86 3.96589 1845.04 2.52346C1847.25 3.30527 1847.2 5.38386 1847.82 6.83621C1849.18 9.83463 1851.03 10.7816 1853.76 8.96707C1855.37 7.89954 1856.45 7.30293 1857.71 9.36683C1858.59 10.8562 1860.35 10.8193 1861.88 10.2499C1864.5 9.33039 1867.1 8.9065 1869.84 9.36534C1874.1 10.0462 1878.29 10.2364 1882.55 8.79185C1885.56 7.75403 1888.77 7.39922 1891.73 9.23148C1892.83 6.11245 1891.98 2.99079 1893.49 0C1894.86 1.3168 1895.19 2.78393 1895.71 4.19189C1897.21 8.17167 1899.36 8.90662 1903.59 6.87028C1903.93 9.67136 1902.97 12.6844 1905.37 15.4832C1905.58 13.6438 1905.86 12.1964 1905.84 10.7638C1905.83 9.33124 1906.08 7.34144 1903.45 7.17356ZM1722.74 17.0712C1730.01 19.4832 1737.54 20.2507 1745.16 19.5806C1737.6 19.3088 1730.4 16.2507 1722.74 17.0712ZM1837.47 14.3632C1830.77 14.2468 1824.44 10.5033 1817.04 12.4975C1824.1 13.832 1830.63 15.4402 1837.47 14.3632ZM1791.35 17.2173C1787.85 17.5868 1784.48 16.7137 1781.04 16.24C1777.69 15.8107 1774.41 14.5874 1770.42 15.3761C1777.56 18.1408 1784.39 17.9046 1791.35 17.2173ZM1676 19.4123C1681.9 20.7048 1687.68 22.6951 1693.86 21.4529C1687.98 20.5549 1682.12 19.0134 1676 19.4123ZM1880.89 11.0478C1884.64 11.4575 1888.37 12.7079 1892.89 11.4976C1888.58 8.64439 1884.7 9.72406 1880.89 11.0478ZM1916.83 12.005C1922.24 11.4432 1927.52 10.3932 1932.84 8.10549C1926.77 7.36529 1921.92 10.0747 1916.83 12.005ZM1895.55 14.284C1896.07 10.551 1895.99 6.94611 1893.78 3.79229C1893.6 7.45879 1892.43 11.2731 1895.55 14.284ZM1728.88 20.0823C1725.93 19.4854 1722.98 18.8884 1719.99 18.3926C1719.28 18.2791 1718.06 17.993 1717.8 18.9447C1717.46 20.1973 1718.77 20.2812 1719.64 20.5846C1722.71 21.5711 1725.73 20.6319 1728.88 20.0823ZM1798.74 8.69881C1796.92 11.6057 1798.12 14.6115 1797.55 17.3583C1797.38 18.0585 1798.34 19.1978 1799.4 19.0968C1800.65 19.0352 1800.14 17.8738 1800.16 17.181C1800.23 14.4588 1799.39 11.781 1798.74 8.69881ZM1907.1 10.7023C1913.22 11.3414 1915.27 11.0925 1918.66 9.3446C1914.32 8.07441 1910.7 9.14178 1907.1 10.7023ZM1865.15 11.2266C1870.37 11.91 1875.64 12.6403 1880.85 13.3237C1875.87 11.3433 1870.66 10.7092 1865.15 11.2266ZM1822.56 15.2916C1818.85 14.4357 1815.24 12.6354 1810.45 14.6495C1815.09 15.8556 1818.82 15.8707 1822.56 15.2916ZM1750.6 17.6331C1746.83 15.5937 1742.85 16.5797 1738.89 16.8728C1742.71 17.8717 1746.6 18.126 1750.6 17.6331ZM1871.03 13.2119C1866.83 12.7259 1862.63 12.1905 1858.38 11.7068C1862.17 15.0802 1866.63 13.6751 1871.03 13.2119ZM1753.27 11.4715C1751.75 14.2651 1752.48 16.8985 1752.61 19.5122C1752.64 20.2519 1753.17 20.8191 1754.02 20.6293C1754.87 20.4888 1754.63 19.7589 1754.66 19.2633C1754.74 16.7384 1754.06 14.2505 1753.27 11.4715ZM1810.13 20.3995C1809.98 17.3913 1809.93 15.2684 1809.72 13.1035C1809.64 12.4155 1809.06 11.8508 1808.25 11.8409C1807.75 11.8655 1807.37 12.3783 1807.5 12.8173C1808.16 15.108 1807.04 17.8325 1810.13 20.3995ZM1706.32 13.6253C1705.91 13.645 1705.57 13.7115 1705.16 13.7312C1705.27 15.9997 1705.34 18.2706 1705.5 20.5366C1705.53 21.2763 1705.29 22.4253 1706.49 22.3662C1707.35 22.3244 1707.8 21.4121 1707.66 20.5294C1707.24 18.177 1706.78 15.9258 1706.32 13.6253ZM1856.94 17.2644C1858.11 14.5375 1857.3 12.4021 1856.75 10.2544C1856.57 9.67002 1856.18 8.99685 1855.63 9.12256C1854.99 9.25319 1854.42 10.0224 1854.71 10.7499C1855.41 12.7422 1855.37 15.0181 1856.94 17.2644ZM1703.7 19.7844C1699.19 18.2257 1696.07 18.2304 1691 19.4678C1695.09 20.7503 1698.92 19.8703 1703.7 19.7844ZM1845.95 6.68072C1846.4 9.77276 1845.26 13.0915 1847.61 15.8928C1848.16 12.6529 1847.35 9.62736 1845.95 6.68072ZM1774.29 18.2515C1771.57 17.0998 1769.13 16.6262 1766.55 16.4065C1765.99 16.3843 1765.27 15.9749 1765.1 16.7245C1764.94 17.3754 1765.22 18.1028 1766.23 18.1029C1768.75 18.2264 1771.26 19.092 1774.29 18.2515ZM1795.75 15.6174C1792.3 14.007 1788.76 13.6861 1785.23 15.5894C1788.76 15.6143 1792.23 15.6417 1795.75 15.6174ZM1764.01 22.2155C1763.65 18.9213 1764.48 16.2115 1761.99 13.7136C1761.04 17.0718 1762.21 19.2886 1764.01 22.2155ZM1802.47 12.9648C1801.56 13.9485 1801.61 15.0335 1801.56 15.9754C1801.45 16.9197 1801.12 18.3202 1802.63 18.3943C1804.4 18.5054 1803.67 16.9593 1803.63 16.121C1803.53 15.1372 1803.97 13.8797 1802.47 12.9648ZM1898.62 14.2325C1898.84 12.5904 1900.43 11.1283 1898.78 9.37999C1898.57 9.14327 1897.97 9.22212 1897.56 9.14319C1897.24 10.8396 1897.07 12.4793 1897.95 14.0672C1897.96 14.1659 1898.16 14.1067 1898.62 14.2325Z" fill="white"/>
</svg>
