<svg width="41" height="630" viewBox="0 0 41 630" fill="none" xmlns="http://www.w3.org/2000/svg">
<path d="M29.4688 195.029C25.6944 198 22.2695 200.688 18.7746 203.376C18.1456 203.871 17.5165 204.437 16.8175 204.861C13.8119 206.913 12.2742 209.106 13.4624 213.279C14.441 216.816 13.8119 220.706 12.9732 224.455C11.7849 229.689 12.9033 231.882 17.5864 234.358C22.6189 237.045 27.6515 239.733 32.6142 242.492C33.3131 242.916 34.5014 243.341 34.082 244.543C33.7325 245.463 32.6841 245.18 31.9152 245.109C27.2321 244.897 22.6888 244.048 18.1455 243.199C15.4196 242.633 14.0216 243.199 14.3012 246.382C14.441 248.858 14.2313 251.334 13.8819 253.809C12.7635 260.954 15.4895 267.744 15.839 274.747C15.9788 278.708 17.796 280.264 21.0113 281.537C26.9525 283.942 32.7539 286.559 38.6253 289.106C39.7436 289.601 41.3512 290.025 40.9319 291.723C40.5125 293.35 38.9748 292.642 37.9263 292.501C31.4958 291.794 24.9954 291.016 18.5649 290.025C16.7476 289.742 15.9787 290.025 15.769 291.935C15.14 296.533 13.6023 300.848 11.4355 304.879C10.5967 306.436 11.086 307.497 11.785 308.77C15.7691 316.055 19.4037 323.553 22.549 331.263C22.8985 332.183 24.1567 333.527 22.8286 334.305C21.5705 335.012 20.9414 333.314 20.2425 332.536C16.2583 327.939 12.2742 323.341 8.01052 318.248C6.75238 321.007 5.14477 323.058 3.04787 324.614C1.58005 325.675 2.06932 327.444 2.34891 328.858C3.18767 332.89 2.55856 336.356 -1.35565 338.478C-2.54389 339.115 -2.33418 340.246 -2.33418 341.237C-2.33418 344.278 -2.26428 347.391 -2.33418 350.432C-2.33418 351.422 -2.40408 352.766 -3.73211 352.979C-5.06015 353.191 -4.92038 351.776 -5.19997 350.998C-6.5979 347.744 -7.92592 344.561 -9.32385 341.307C-9.39375 341.166 -9.39375 341.024 -9.46365 341.024C-12.6789 338.761 -16.0339 336.71 -18.69 333.668C-19.3191 333.032 -20.7869 334.163 -21.3461 335.366C-23.5828 340.034 -27.7766 340.742 -32.1801 340.459C-35.3953 340.246 -35.8147 336.922 -37.5621 334.8C-41.8957 338.337 -46.1594 341.873 -50.5629 345.339C-52.5899 346.895 -54.7567 348.239 -56.9934 349.513C-57.6924 349.937 -58.6709 350.715 -59.5796 349.866C-60.7678 348.876 -59.7194 347.815 -59.3 347.037C-56.9934 342.227 -53.5685 338.195 -50.2833 334.093C-47.2079 330.273 -43.9926 326.524 -40.7774 322.775C-40.0784 321.997 -39.0999 321.29 -39.3096 320.087C-40.6376 313.438 -36.4438 308.699 -33.4382 303.677C-32.5296 302.192 -32.5296 301.413 -33.0887 300.14C-35.8846 293.703 -38.7504 287.267 -41.4763 280.759C-45.0411 272.13 -45.81 263.005 -45.0411 253.739C-44.5518 248.363 -44.2023 242.916 -43.8528 237.541C-43.7829 236.763 -43.2238 235.843 -44.2722 235.348C-44.9712 234.994 -45.5304 235.772 -46.0895 236.126C-52.6598 239.663 -59.1602 243.27 -66.08 246.029C-66.7091 246.241 -67.408 246.382 -68.3167 246.595C-68.1769 244.897 -67.1284 244.19 -66.2897 243.27C-59.6495 235.914 -52.3802 229.335 -44.6916 223.182C-41.8957 220.989 -41.1269 217.947 -42.5947 214.693C-45.3207 208.823 -44.8314 202.739 -43.713 196.656C-42.385 189.441 -41.6161 182.227 -41.3365 174.941C-41.2666 172.96 -39.03 170.909 -40.7075 169.282C-42.0355 167.938 -44.2023 167.585 -46.0196 166.736C-54.1975 162.845 -61.8163 157.753 -70.2039 154.357C-70.6932 154.145 -71.1125 153.65 -70.9728 152.235C-61.1872 153.438 -51.6114 155.348 -42.1054 158.036C-42.0355 156.479 -42.8743 155.56 -43.5732 154.711C-50.0736 145.94 -50.7726 135.825 -50.0037 125.427C-49.165 114.393 -47.2778 103.5 -44.5518 92.8187C-43.9926 90.6259 -44.0625 88.7162 -45.0411 86.7356C-49.3048 78.6012 -52.1705 70.1838 -49.3048 60.3517C-53.0792 61.5542 -56.0847 62.4738 -59.1602 63.4641C-59.8592 63.6763 -60.698 64.4543 -61.327 63.4641C-61.8163 62.6153 -61.1872 61.908 -60.6979 61.2006C-58.8107 58.7249 -56.2246 56.9565 -53.4986 55.7541C-49.0252 53.7028 -47.8369 50.1661 -47.4176 45.6391C-46.0196 30.4313 -43.5732 15.365 -36.9331 1.35962C-36.0943 -0.479463 -36.2341 -1.82343 -37.5621 -3.45032C-41.1968 -7.90656 -44.6916 -12.4335 -48.1865 -16.9605C-49.5145 -18.7288 -50.9823 -20.4264 -51.6114 -22.6899C-49.7941 -23.6095 -48.6058 -22.2656 -47.4875 -21.4875C-43.4335 -18.7996 -39.4493 -15.8994 -35.3953 -13.1408C-31.7607 -10.6651 -28.4756 -7.83588 -23.6527 -7.55292C-20.0181 -7.34073 -17.0125 -4.86496 -14.4962 -2.17707C-13.3779 -0.974581 -12.3294 0.227811 -10.7917 1.99615C-9.60348 -1.82349 -8.62492 -5.00644 -7.64637 -8.11875C-6.66782 -11.2311 -5.75913 -14.4141 -4.78058 -17.5264C-4.43109 -18.6581 -3.87191 -19.9314 -2.54388 -19.9314C-1.00615 -19.9314 -1.00617 -18.3044 -0.86638 -17.2434C-0.0975196 -12.2921 -1.14595 -7.34067 -1.63522 -2.46003C-2.1245 2.06695 -2.47401 6.02804 1.58 9.56476C5.70391 13.1722 6.05342 18.3357 4.79528 23.57C4.58559 24.4896 4.02639 25.6214 4.37587 26.258C6.61257 31.0679 5.63403 35.9485 5.00496 40.8292C4.1662 46.983 8.5697 52.4296 14.7905 52.7125C20.1725 52.9247 25.4847 52.7832 30.8667 52.854C31.7754 52.854 32.754 52.7832 33.6626 52.854C34.9208 52.9247 36.3187 52.9247 36.4585 54.7638C36.5983 56.3907 35.3401 56.6736 34.2218 56.9566C28.6999 58.442 23.248 59.9274 17.7262 61.2713C15.2099 61.9079 14.0216 62.6153 14.7905 65.7276C16.6777 73.2961 16.3981 81.1476 16.8175 88.9283C17.0272 93.1724 16.8175 97.4164 17.5164 101.59C18.7047 108.38 15.0701 113.544 11.9946 118.92C8.98908 124.225 8.91916 124.225 13.6721 128.327C17.167 131.298 20.5919 134.269 24.0169 137.31C25.1352 138.301 26.2536 139.362 26.8826 140.776C27.1622 141.342 28.0709 141.767 27.3719 142.545C26.7428 143.252 26.0439 142.757 25.4847 142.545C23.0383 141.484 20.6618 140.281 18.2154 139.22C16.3981 138.371 14.5808 137.664 12.7635 136.815C10.5967 135.825 9.54822 136.603 9.82781 138.867C12.1344 155.206 8.35999 171.263 8.0804 187.532C8.0105 191.493 9.68803 194.746 10.6666 198.283C11.1559 199.91 12.5538 199.203 13.6023 198.92C17.6563 197.647 21.7802 196.232 25.8342 194.888C26.6729 194.534 27.7214 193.827 29.4688 195.029ZM6.19323 311.033C7.31157 307.284 7.45134 303.606 5.42434 300.211C1.9295 294.269 0.11221 287.62 -4.99025 282.386C-10.5121 276.586 -11.98 268.098 -15.6845 260.954C-17.4319 257.488 -16.8028 253.456 -18.8298 249.99C-19.4589 248.929 -19.9482 248.151 -21.1364 248.646C-22.5343 249.212 -21.6257 250.202 -21.416 251.051C-20.9966 252.89 -20.3676 254.658 -19.8783 256.427C-18.8997 259.822 -17.362 263.005 -16.8727 266.471C-16.7329 267.39 -16.8028 269.088 -17.9911 268.168C-21.5558 265.339 -23.3032 269.229 -25.8195 269.937C-26.5185 270.149 -27.2174 270.856 -26.5185 271.847C-25.8195 272.908 -25.47 272.483 -24.7011 271.847C-23.7925 271.069 -22.3946 270.927 -21.2762 270.503C-16.663 268.593 -15.2651 269.229 -13.2381 274.11C-11.1412 279.061 -9.25396 284.084 -7.22695 289.106C-3.8719 297.169 -0.0974981 305.162 -1.07605 314.287C-1.28574 316.055 -1.70511 316.833 -3.38263 317.541C-8.06571 319.38 -12.8187 320.724 -17.6416 322.138C-19.3191 322.634 -20.4374 323.695 -19.9482 325.463C-19.5288 327.161 -18.061 327.09 -16.5931 326.736C-7.29686 324.331 1.99939 321.926 5.28454 310.963C5.49422 318.39 0.881079 322.704 -4.99024 326.1C2.20911 323.553 6.61261 319.026 6.19323 311.033ZM-3.03315 90.2723C-3.45253 90.2016 -3.87191 90.1308 -4.29129 90.0601C-4.57087 93.1724 -5.82904 96.2847 -3.52244 99.1848C-1.63523 101.59 -1.21583 104.561 -0.796451 107.39C-0.586765 109.229 -0.796489 111.21 0.0422716 113.19C1.71979 111.563 1.30043 109.795 1.37033 108.027C1.64991 103.075 0.601445 98.336 -1.00618 93.6676C1.23052 95.153 1.51011 98.1945 4.02639 100.246C2.06929 93.809 -1.42553 88.9284 -4.78058 83.8355C-8.97438 77.5402 -14.9156 72.6595 -18.8298 66.152C-20.4375 63.4641 -21.6257 60.4225 -23.9323 58.2297C-27.0077 55.2589 -28.0562 51.5808 -28.2659 47.4782C-28.3358 46.1342 -28.4057 44.7903 -28.6154 42.5975C-30.1531 45.2147 -28.1261 47.6197 -30.1531 49.1758C-30.9918 48.8222 -30.9219 47.9734 -30.852 47.3368C-30.1531 43.4464 -29.9434 39.7682 -30.922 35.8071C-31.6209 32.6948 -29.0348 29.2288 -31.0618 25.975C-27.9863 25.5506 -28.9649 22.9334 -28.4756 21.0944C-28.4057 20.8822 -28.8949 20.387 -29.0347 20.387C-30.9918 20.8114 -30.9919 22.792 -31.7607 24.136C-32.0403 24.6311 -32.0403 25.2677 -32.1801 25.8336C-34.6265 31.9875 -35.605 38.495 -35.9545 45.0025C-36.0943 47.6904 -37.0729 49.2465 -39.4494 50.3783C-43.9926 52.6418 -48.3961 55.1175 -52.4501 58.3712C-48.1165 55.7541 -43.2937 55.7541 -38.6106 54.7638C-35.1857 54.0565 -33.578 55.4712 -32.25 58.3005C-26.5184 70.3253 -17.7115 80.1573 -9.11418 90.2723C-8.83459 89.7772 -8.7647 89.4235 -8.55501 89.1406C-7.78615 88.0796 -8.20554 85.8867 -6.59791 85.816C-5.33977 85.816 -4.50101 87.5137 -3.80204 88.7162C-3.31277 89.1406 -3.24285 89.7772 -3.03315 90.2723ZM-14.9855 182.934C-15.8942 184.914 -14.2865 185.551 -13.2381 186.612C-10.2325 189.512 -8.13561 193.049 -6.1785 196.727C-8.55499 193.19 -13.0284 191.705 -14.7059 187.815C-16.1038 184.632 -21.3461 185.48 -21.1364 180.953C-24.2818 182.439 -24.142 177.983 -26.4485 177.983C-27.4271 177.983 -26.169 175.931 -27.6368 176.78C-28.4756 177.275 -28.4057 178.265 -28.1261 178.973C-27.8465 179.68 -27.2174 180.317 -26.6582 180.953C-22.6042 185.905 -18.6201 191.068 -14.3564 195.878C1.85961 214.128 8.08041 235.206 3.32743 259.468C2.06929 265.905 2.279 272.554 0.46169 278.92C0.182103 279.84 0.25198 280.901 1.58001 280.971C2.76826 281.042 3.39734 280.476 3.11775 279.274C2.55858 277.01 4.23609 275.383 4.72537 273.403C5.00496 272.271 6.61257 270.927 6.33298 270.29C4.86515 267.249 6.75237 264.632 6.82227 261.873C6.96206 258.195 7.24165 254.446 8.91917 250.98C9.12886 251.97 11.2258 252.465 10.6666 252.819C8.08041 254.587 10.8064 256.78 9.68806 258.832C8.36002 261.307 8.84926 261.59 11.2257 265.268C11.5752 260.6 11.9946 256.427 12.0645 252.253C12.3441 240.016 10.6666 228.133 6.47278 216.603C5.63402 214.198 3.46724 211.44 7.45136 209.601C6.33301 208.61 4.79527 209.671 4.1662 208.257C8.63959 204.296 15.4895 204.437 20.1726 198.92C16.3981 200.122 13.3926 200.971 10.4569 202.103C3.81671 204.649 3.46722 204.578 -1.35566 199.627C-2.47401 198.425 -3.31276 197.081 -4.36121 195.807C-7.92594 191.563 -10.5121 186.4 -15.0554 183.005C-15.8942 179.468 -18.6201 177.346 -21.1364 175.082C-20.7869 176.143 -20.5073 177.346 -19.7385 177.912C-17.8513 179.397 -18.1309 182.863 -14.9855 182.934ZM-34.4867 188.734C-32.3898 181.095 -29.4541 173.88 -25.4001 166.948C-18.2007 154.64 -9.32387 143.606 -0.377092 132.642C1.37033 130.52 2.90807 129.954 5.49425 131.51C10.5967 134.552 16.1185 136.886 22.4092 139.15C20.4521 136.886 18.7746 135.896 16.5379 135.047C12.6237 133.562 8.7095 131.51 5.49425 128.752C2.90807 126.559 1.51013 126.771 0.112196 129.176C-3.94181 135.896 -9.74325 141.059 -14.7059 146.93C-17.0824 149.689 -19.1094 152.73 -21.416 155.843C-21.6257 155.277 -21.8354 154.994 -21.8354 154.852C-21.6956 154.428 -21.4859 154.004 -21.2063 153.65C-16.7329 146.718 -9.88306 141.484 -6.9474 133.491C-6.66781 132.783 -4.99025 132.996 -5.68922 132.005C-7.22695 129.883 -5.33975 128.893 -4.43109 127.691C-1.42553 123.659 1.58 119.698 4.58556 115.666C6.19318 113.544 7.73094 111.351 11.6452 110.927C8.5697 114.11 7.80082 117.859 5.56413 120.759C5.07485 121.395 3.6769 122.951 4.93504 123.8C6.47277 124.791 6.61259 122.668 7.10187 121.89C9.19877 118.212 11.1559 114.463 13.0431 110.714C14.0216 108.734 15.9089 106.4 11.785 105.551C10.7365 105.339 11.5054 104.419 11.4355 103.782C10.8763 97.0627 9.96761 90.343 10.3171 83.5525C10.387 82.2794 10.4569 81.3598 9.89773 80.1573C8.70949 77.5401 10.387 74.7108 9.75793 71.8814C9.47834 70.7497 11.4355 71.5985 12.2043 70.8911C12.9033 70.2545 13.0431 69.4765 12.5538 69.1228C10.387 67.2837 12.6237 63.6763 9.68805 62.2616C10.7365 60.7055 8.70947 57.3809 12.414 57.1687C11.1559 57.0272 9.96762 56.9565 8.70947 56.8151C14.441 55.4711 20.1026 58.7249 25.6944 56.3199C25.3449 55.1882 24.4362 55.0467 23.248 55.1882C19.7532 55.6833 16.2583 54.9053 12.8334 54.7638C10.8064 54.6931 8.56967 54.4809 6.68246 53.7028C2.13917 51.793 -0.167387 47.0537 -3.94181 44.0829C-5.54943 42.8804 -6.03873 40.334 -8.06573 39.1315C-8.6249 38.7779 -8.7647 37.2924 -9.81315 38.0705C-10.582 38.6364 -10.0927 39.556 -9.60346 40.2634C-7.71625 43.3756 -5.82904 46.4172 -3.87193 49.5295C-0.586782 54.7638 3.81671 59.7152 4.51567 65.9398C5.49423 75.1352 7.31153 84.2599 7.52123 93.5968C7.80082 106.612 2.41876 116.727 -6.24843 125.569C-13.0284 132.501 -20.0879 139.15 -25.2603 147.567C-27.9863 152.023 -31.0618 156.196 -33.5081 160.865C-34.9061 163.482 -36.7933 165.038 -40.2182 163.341C-43.713 161.572 -47.7671 161.714 -51.6813 161.219C-47.9069 163.836 -43.7829 165.604 -39.659 167.372C-38.5407 167.868 -37.2825 168.009 -37.8417 169.99C-40.0784 178.407 -40.9871 187.036 -42.1054 195.666C-42.9442 202.456 -44.4819 209.318 -40.2881 215.755C-38.4708 214.411 -36.5836 212.642 -37.2127 210.308C-38.4708 205.781 -38.5407 201.395 -37.632 196.798C-37.5621 198.849 -37.4224 200.971 -37.3525 203.022C-37.2127 203.022 -37.1428 203.022 -37.003 203.022C-36.3739 196.939 -35.8147 190.927 -35.1856 184.844C-35.0458 184.844 -34.8361 184.844 -34.6963 184.844C-34.4867 186.188 -34.4867 187.461 -34.4867 188.734ZM-35.5351 90.7674C-36.0244 89.7064 -35.605 89.1406 -35.3254 88.5039C-33.2285 83.9062 -30.9919 79.3793 -27.4271 75.7011C-26.3088 74.5694 -25.6797 73.4376 -27.0077 72.0937C-28.2659 70.8205 -29.5939 71.74 -30.3628 72.5888C-34.976 77.6816 -39.8687 82.4915 -41.5463 89.7064C-42.7345 94.7285 -43.084 99.9628 -44.5518 104.914C-48.3262 117.434 -48.1864 130.237 -46.9283 143.04C-46.7186 144.95 -46.7885 147.425 -44.412 148.84C-44.8314 145.516 -46.7186 142.686 -46.1594 139.291C-43.3636 146.647 -42.0355 154.499 -35.7448 160.299C-33.9974 155.984 -37.5621 153.791 -38.331 150.679C-39.0999 147.708 -40.2182 143.889 -39.5192 142.403C-36.5836 146.435 -35.7448 151.669 -32.7393 156.126C-31.7607 154.074 -32.8091 152.801 -33.2984 151.457C-35.4652 145.586 -39.7289 140.635 -39.7988 133.844C-39.8687 129.105 -39.659 124.437 -39.2396 119.768C-37.7718 105.268 -36.7234 90.5552 -25.9593 79.0963C-24.9807 78.0353 -24.0022 76.7621 -24.9807 74.8522C-28.2659 80.3695 -32.6694 84.8965 -35.5351 90.7674ZM-30.9918 221.625C-30.4327 217.311 -26.8679 216.603 -24.9108 214.693C-21.2063 211.015 -17.2921 207.196 -12.5391 204.649C-10.7218 203.659 -12.3294 202.739 -12.6789 201.82C-13.0284 200.9 -13.4478 200.334 -14.636 201.325C-20.4375 206.064 -27.0776 209.459 -33.5081 213.208C-37.3525 215.472 -40.5677 218.159 -41.8258 222.686C-42.1753 223.96 -43.084 224.808 -44.2023 225.587C-49.7242 229.548 -54.4072 234.428 -59.3699 239.097C-58.6011 239.592 -57.7623 239.733 -57.273 239.238C-54.4771 236.48 -50.5629 235.277 -47.9767 232.236C-46.5788 230.679 -44.6916 230.962 -43.0839 231.316C-41.3365 231.74 -41.8957 233.367 -42.1054 234.782C-42.5248 238.036 -42.6646 241.36 -43.0141 244.614C-44.7615 259.539 -42.8743 273.898 -37.003 287.691C-34.2071 294.199 -31.2015 300.635 -27.1475 306.648C-26.2389 305.516 -26.5883 304.738 -26.9378 303.818C-28.1261 300.706 -30.6423 298.23 -30.6423 294.623C-30.6423 291.723 -30.7822 288.681 -34.4168 287.691C-34.6964 287.62 -34.8362 286.913 -35.1157 286.559C-37.003 284.367 -34.4168 279.698 -39.1697 279.132C-39.2396 279.132 -39.2396 278.283 -39.2396 277.788C-39.0299 272.978 -38.9601 268.168 -38.2611 263.288C-37.2127 255.578 -37.2127 247.656 -37.2127 239.733C-37.2127 234.57 -36.2341 229.265 -32.1801 225.304C-29.7337 222.828 -27.2873 220.352 -24.9108 217.877C-24.9807 217.735 -25.1205 217.664 -25.1904 217.523C-27.0077 218.867 -28.6852 220.069 -30.9918 221.625ZM-14.5661 300.706C-14.8457 300.848 -15.1253 300.918 -15.335 301.13C-16.1039 301.767 -16.8028 302.333 -17.7115 301.484C-19.0395 300.282 -17.2222 299.999 -16.9426 299.433C-15.7544 296.462 -14.007 293.916 -10.7917 292.784C-9.04429 292.147 -9.18408 290.662 -10.0927 289.318C-11.1412 287.691 -11.8402 289.318 -12.5391 289.813C-14.2166 290.874 -15.7543 292.147 -17.362 293.279C-21.6257 296.108 -23.7226 300.069 -24.142 305.304C-24.6312 312.165 -26.9378 318.602 -30.1531 324.614C-30.5025 325.322 -30.7122 326.453 -31.6908 326.17C-32.9489 325.817 -32.7393 324.543 -32.3199 323.765C-31.4112 322.068 -31.9005 320.37 -32.8092 319.168C-33.7877 317.753 -33.2984 316.904 -32.5296 315.985C-32.25 315.702 -31.551 315.277 -31.9704 315.065C-35.8846 313.509 -32.1102 312.094 -32.0403 310.538C-31.9005 308.699 -29.3143 307.072 -31.4811 304.809C-34.0673 309.053 -37.1428 313.226 -37.003 318.036C-36.8632 321.856 -38.1912 324.19 -40.4279 326.665C-43.7829 330.344 -47.138 333.951 -49.5844 338.407C-46.3691 335.719 -43.084 332.961 -39.4494 329.919C-40.0784 332.324 -42.1054 333.032 -42.8044 335.154C-42.1054 334.729 -41.8258 334.588 -41.5463 334.446C-39.9386 333.385 -38.8902 330.627 -37.003 330.98C-34.976 331.334 -35.5351 334.375 -34.3469 335.932C-33.6479 336.851 -33.2984 338.973 -31.9005 337.983C-30.9219 337.276 -27.4271 337.771 -29.1745 334.588C-29.4541 334.093 -29.524 333.88 -28.825 333.668C-25.8894 332.89 -25.8894 330.061 -24.8409 327.868C-24.3516 326.736 -25.0506 325.958 -24.771 324.897C-24.0022 321.785 -22.1849 318.743 -22.744 315.277C-22.9537 314.146 -22.3946 313.226 -21.6257 313.014C-19.7385 312.448 -21.2063 314.853 -19.9482 315.207C-19.8783 309.76 -17.5018 305.304 -14.5661 300.706ZM-46.5788 50.7319C-38.9601 48.327 -37.9815 46.983 -38.4708 39.8389C-38.4708 39.4852 -38.7504 39.0609 -38.6106 38.8487C-36.5836 35.5242 -37.4224 31.563 -36.304 27.9556C-35.3255 24.6311 -34.8362 21.1652 -34.6265 17.6992C-34.277 13.1015 -30.922 9.42325 -30.922 4.75482C-30.922 3.83526 -30.1531 4.82553 -30.0133 4.47186C-29.4541 3.26938 -27.8465 3.12793 -27.3572 1.57178C-27.0077 0.510771 -25.1205 -1.04538 -24.9108 -0.903902C-23.2333 0.298551 -21.3461 -0.833193 -19.7385 -0.196566C-18.8298 0.157102 -18.4803 0.369291 -17.8513 -0.550234C-17.0824 -1.68198 -17.9911 -1.96491 -18.5502 -2.38932C-21.4859 -4.86499 -24.7711 -5.926 -28.6154 -4.93573C-29.3143 -4.79425 -30.852 -3.2381 -30.852 -5.71378C-32.8091 -5.50159 -33.1587 -7.6236 -34.2071 -8.18945C-36.9331 -9.6749 -39.8687 -10.7359 -41.4763 -13.5653C-41.9656 -14.4141 -42.5947 -14.5556 -43.084 -14.3434C-44.412 -13.7068 -43.2238 -12.9994 -42.8743 -12.5043C-40.9871 -9.95786 -39.1698 -7.41147 -37.003 -5.07724C-34.4168 -2.31861 -32.7393 0.298552 -35.9545 3.76452C-36.7933 4.61334 -37.003 6.09875 -37.4223 7.30121C-40.0784 15.5771 -41.1269 24.2067 -42.9442 32.6948C-44.2023 38.6364 -45.3207 44.5781 -46.5788 50.7319ZM-37.4223 128.539C-37.7019 133.632 -36.9331 138.088 -34.9061 142.333C-33.9974 144.242 -33.1586 145.02 -30.9918 143.889C-28.5454 142.615 -26.169 141.272 -23.443 140.423C-20.8568 139.715 -19.4589 135.684 -19.9482 133.066C-21.4859 124.437 -28.1261 120.476 -34.6265 116.302C-36.5137 115.1 -36.5137 116.656 -36.5836 117.788C-36.7234 121.466 -37.7019 125.144 -37.4223 128.539ZM-32.879 271.847C-29.8036 270.22 -27.7766 268.239 -27.3572 264.844C-27.1475 263.005 -26.5884 260.883 -25.3302 259.68C-23.0236 257.417 -23.7925 255.012 -24.142 252.607C-24.6312 249.565 -25.3302 246.595 -24.4216 243.553C-24.2119 242.916 -24.4215 242.421 -24.8409 241.997C-26.8679 239.733 -28.825 237.399 -30.852 235.065C-31.2714 234.57 -31.7607 233.792 -32.5296 234.075C-33.4382 234.358 -33.0189 235.277 -33.1587 235.914C-35.7448 247.726 -34.3469 259.68 -32.879 271.847ZM-16.1038 45.4976C-16.3135 46.5586 -16.4533 47.6904 -16.663 48.7514C-16.8727 49.7417 -17.7115 51.0149 -16.2437 51.4393C-14.9855 51.8637 -13.8671 50.3783 -13.7273 49.6002C-12.8886 45.6391 -11.7003 41.678 -12.3294 37.434C-13.0983 32.2704 -13.308 27.1068 -14.9156 22.0139C-15.6146 19.7505 -15.2651 19.6797 -17.2222 20.0334C-17.4319 20.1041 -17.8513 20.0334 -17.8513 19.9626C-18.6201 17.4869 -20.0181 16.0016 -22.8139 16.2138C-23.0236 16.2138 -23.6527 15.2942 -23.5828 15.1528C-21.9053 13.0308 -24.6313 13.3843 -25.1205 12.6063C-25.7496 11.616 -27.0776 11.1916 -28.0562 12.3234C-29.1046 13.4551 -27.8465 14.304 -27.1475 14.8698C-22.1849 19.0431 -20.0181 24.3481 -20.018 30.9264C-20.0879 38.9901 -18.4803 47.1245 -22.2548 54.8346C-22.9537 56.32 -21.5558 57.0273 -20.5773 58.0883C-18.6201 53.915 -18.2008 49.5294 -16.1038 45.4976ZM2.76826 133.632C2.41878 138.159 2.06928 142.686 1.78969 147.213C1.44021 152.872 1.85962 158.601 0.811164 164.119C-0.167389 169.141 2.69839 174.799 -1.49541 179.256C-0.516861 183.57 -2.68368 186.895 -4.71069 190.29C-5.19997 191.139 -5.26987 191.776 -4.50101 192.483C-3.80204 193.12 -3.31274 192.766 -2.68367 192.2C-1.21584 190.927 0.391778 189.795 1.71981 188.38C2.76827 187.319 3.8866 186.117 3.67691 184.49C2.55856 175.365 3.60702 166.382 4.37588 157.257C4.58557 162.492 4.65546 167.655 5.77381 173.738C5.9136 172.324 6.05342 171.899 6.05342 171.404C6.19321 168.363 5.98353 165.392 5.49425 162.35C4.86518 158.106 7.38144 154.145 7.17174 149.83C6.96206 144.808 7.10187 139.715 7.10187 134.693C6.82228 134.693 6.5427 134.693 6.19322 134.693C5.49425 137.664 6.40289 140.918 4.86516 143.747C5.28454 140.211 3.9565 137.028 2.76826 133.632ZM-29.3143 181.095C-33.2286 190.361 -31.8306 199.273 -30.0133 208.61C-25.3302 205.781 -20.9267 203.022 -16.8028 199.839C-15.6845 198.92 -15.0554 198.142 -16.3135 196.656C-20.6471 191.634 -24.8409 186.471 -29.3143 181.095ZM-27.9863 97.5579C-28.196 101.661 -23.443 103.924 -25.8195 108.027C-27.8465 104.702 -30.9918 102.792 -32.5296 99.397C-33.0188 98.2653 -33.9974 99.1848 -34.4168 99.8214C-35.2555 101.165 -35.5351 102.509 -34.3469 103.995C-32.6693 106.046 -31.0617 108.239 -29.5939 110.502C-26.6582 114.958 -22.9537 118.212 -17.5717 119.344C-15.2651 119.839 -13.4478 120.263 -12.8187 116.939C-11.9799 112.341 -11.0014 107.673 -9.32386 103.358C-8.20551 100.529 -7.50654 97.9115 -7.43664 94.3041C-9.81313 97.4164 -10.3723 100.529 -11.3509 103.429C-12.6789 107.178 -13.7274 110.997 -14.9156 114.817C-15.6845 117.363 -16.8727 117.08 -18.1309 115.171C-18.7599 114.18 -19.2492 113.119 -19.8084 112.129C-22.3945 107.39 -24.9807 102.792 -27.9863 97.5579ZM4.1662 93.809C5.42434 87.0893 2.48869 65.5861 -0.0974859 61.4128C-2.40408 65.5861 -4.71069 69.7594 -7.01728 73.9327C-7.43666 74.7108 -8.13564 75.4889 -7.29688 76.4792C-2.6837 81.5013 0.950947 87.3014 4.1662 93.809ZM-30.7821 228.557C-22.6741 242.421 -10.3723 252.253 0.811169 263.217C-0.167385 261.944 0.881069 260.175 -1.28573 258.832C-3.94181 257.134 -5.82904 253.809 -7.15707 250.697C-7.50655 249.848 -9.25397 249.99 -8.555 248.504C-7.78614 247.019 -6.73768 249.282 -7.01727 249.353C-10.9315 244.755 -14.8457 240.087 -18.69 235.489C-18.8298 235.631 -18.9696 235.772 -19.1094 235.914C-17.991 237.399 -16.8727 238.814 -15.6845 240.299C-20.7869 236.197 -25.3302 231.811 -30.7821 228.557ZM-0.586767 224.243C-2.89335 230.043 -5.06016 235.206 -8.4152 239.733C-8.90448 240.441 -9.39377 241.077 -8.55501 241.855C-5.06017 245.109 -1.49544 248.363 2.27898 251.829C3.32743 242.209 3.04786 233.297 -0.586767 224.243ZM-1.77502 165.604C-3.73213 158.389 -2.96326 150.608 -6.17851 142.757C-7.15706 145.94 -5.82905 148.062 -5.89894 150.255C-5.89894 150.821 -4.64077 151.528 -6.03871 151.952C-7.43664 152.448 -7.78613 151.882 -7.92592 150.538C-7.99582 149.547 -9.74324 149.76 -9.67334 148.486C-10.3723 148.769 -9.60347 150.043 -11.1412 150.255C-12.1198 150.325 -11.4208 152.306 -11.1412 153.367C-8.76471 161.997 -7.01729 170.697 -7.29688 179.751C-7.36678 181.873 -7.71623 183.995 -7.92592 186.046C-7.99582 187.249 -7.99581 188.876 -6.73767 189.017C-5.26984 189.229 -5.26987 187.39 -5.19997 186.4C-4.99029 183.217 -4.78059 180.034 -5.06017 176.851C-5.54945 170.485 -4.43111 164.048 -5.40966 157.682C-4.99028 159.945 -4.57088 162.209 -4.0816 164.967C-3.80202 163.836 -3.66223 163.199 -3.52244 162.421C-2.61379 163.482 -3.59234 164.897 -1.77502 165.604ZM-13.5876 153.65C-16.5232 156.409 -18.061 159.592 -20.088 162.35C-23.9323 167.514 -23.9323 167.585 -19.9482 172.253C-19.2492 173.031 -18.8997 175.012 -17.1523 173.88C-14.9855 172.465 -11.0014 172.324 -11.0014 169.636C-10.9315 164.472 -12.0499 159.167 -13.5876 153.65ZM-43.2238 85.3209C-41.9656 83.4818 -42.1054 78.1768 -43.3636 76.8328C-45.6003 74.3571 -45.81 70.8205 -43.2937 68.557C-42.385 67.7082 -42.5947 67.3544 -42.9442 66.7178C-43.2937 65.9398 -43.783 65.2324 -42.9442 64.5958C-42.7345 64.3836 -42.3151 64.1714 -42.1054 64.2421C-41.1269 64.7373 -41.6161 65.7276 -41.6161 66.435C-41.7559 70.679 -41.4065 74.8523 -39.3096 78.6719C-38.1213 78.0353 -38.0514 77.2572 -38.4009 76.2669C-40.4279 70.8911 -40.8473 65.3739 -39.659 59.7152C-39.5193 59.0786 -39.5891 58.6542 -40.358 58.3712C-42.6646 57.5932 -47.4176 60.2103 -48.0466 62.6153C-49.9339 70.8912 -47.4875 78.2475 -43.2238 85.3209ZM-10.0228 212.076C-13.5177 213.42 -16.2436 215.401 -18.9696 217.311C-25.2603 221.696 -25.2603 221.767 -20.7869 227.921C-20.2977 228.557 -19.8084 229.265 -19.389 229.972C-18.6201 231.245 -17.7814 231.104 -16.9426 230.043C-13.0284 224.808 -10.5121 219.008 -10.0228 212.076ZM-5.13006 31.4923C-3.31274 29.2996 -0.0974877 20.8822 -0.446975 18.1236C-0.796455 15.4357 -3.10306 13.8088 -5.13006 12.1819C-5.47955 11.899 -5.89892 11.5453 -6.03871 11.1916C-7.08716 8.43295 -8.83461 9.56473 -10.4422 10.4135C-10.9315 10.6965 -10.6519 11.9697 -11.7702 11.6161C-14.2166 10.838 -14.0769 12.7477 -13.9371 14.021C-13.6575 16.2137 -12.1896 15.082 -11.0014 14.7991C-6.87749 13.9503 -4.22141 16.0723 -4.22141 20.3163C-4.22141 22.5798 -4.92037 24.7019 -5.47954 26.8239C-5.89892 28.38 -6.3183 30.0069 -5.13006 31.4923ZM-36.2341 75.7718C-34.2071 73.1547 -32.5296 71.0326 -30.7822 68.8398C-30.0832 67.9203 -30.0133 67.0008 -30.5725 65.9398C-31.8306 63.6055 -33.0189 61.2006 -34.2071 58.7957C-34.5566 58.159 -34.7663 57.4517 -35.605 57.5224C-36.4438 57.6638 -37.0729 58.0883 -37.2127 59.0786C-38.0514 64.5251 -39.03 69.9716 -36.2341 75.7718ZM-23.6527 53.2076C-21.4859 49.5295 -21.2063 34.6753 -23.0935 28.38C-27.1475 34.8168 -27.497 49.1051 -23.6527 53.2076ZM-13.4478 236.621C-10.5121 231.387 -6.52797 226.718 -4.29128 221.13C-2.61376 216.886 -3.66225 213.279 -7.64636 210.379C-9.53357 219.15 -8.48511 228.487 -13.4478 236.621ZM-5.33974 101.448C-6.45809 107.744 -7.57644 113.968 -8.62489 120.264C-8.83458 121.466 -8.2754 122.315 -7.08716 122.598C-5.89891 122.951 -5.47953 121.961 -4.99025 121.183C-1.21583 114.676 -1.84491 108.097 -5.33974 101.448ZM-1.8449 277.647C1.78973 269.937 -0.656658 263.712 -9.32385 258.053C-8.2754 265.198 -5.40963 271.351 -1.8449 277.647ZM-16.2436 333.173C-14.0768 338.973 -7.92592 338.62 -2.33418 336.71C0.741279 335.649 1.02084 333.244 -0.866365 327.585C-2.61379 330.131 0.391776 334.941 -4.71069 335.578C-4.50099 334.658 -3.59231 333.88 -4.29128 332.678C-4.99024 333.102 -5.54945 333.456 -6.10862 333.88C-6.31831 334.093 -6.45811 334.446 -6.5979 334.8C-7.92594 337.629 -8.1356 337.629 -10.582 334.941C-9.11415 335.012 -7.22696 335.578 -7.85603 333.173C-8.34531 331.405 -9.32386 331.122 -11.0014 331.829C-12.609 332.466 -14.3564 332.678 -16.2436 333.173ZM-4.5709 -9.60413C-4.78059 -9.60413 -5.06017 -9.67493 -5.26987 -9.67493C-6.24842 -6.56262 -7.08716 -3.45032 -8.13561 -0.338015C-9.18406 2.63281 -8.90451 6.73538 -11.4907 6.80612C-8.97441 5.74511 -5.61935 8.85742 -1.77503 10.2721C-2.19441 9.42331 -2.68369 8.71591 -3.31277 8.2915C-5.96884 6.38168 -6.52801 4.18893 -5.61935 0.864438C-4.64079 -2.5308 -4.85049 -6.13816 -4.5709 -9.60413ZM-22.8838 101.66C-22.6741 101.59 -22.3946 101.519 -22.1849 101.378C-23.6527 95.648 -25.0506 89.9186 -26.6582 83.694C-28.196 86.0989 -30.7822 87.6552 -29.3842 90.4845C-27.3572 94.3749 -25.0506 97.9823 -22.8838 101.66ZM-16.663 109.512C-17.5018 102.156 -17.8513 94.7285 -22.1849 88.1503C-23.1634 92.2528 -18.8298 108.663 -16.663 109.512ZM-21.6956 280.83C-21.2063 280.264 -19.5987 281.254 -20.018 279.415C-20.5073 277.435 -22.1149 278.354 -23.1634 278.142C-24.5613 277.859 -24.0721 279.274 -23.9323 279.769C-22.8838 283.376 -21.6956 286.913 -19.9482 290.237C-19.1094 291.794 -18.3405 291.44 -17.7115 289.884C-16.5931 287.267 -19.1094 281.537 -21.6956 280.83ZM-8.13561 28.0263C-7.22695 24.7018 -6.38821 22.2261 -6.6678 19.6089C-6.87749 17.1333 -8.55503 17.0626 -10.4422 17.4162C-12.3993 17.7699 -13.1682 18.6187 -12.6789 20.8115C-12.1197 23.5701 -9.74324 24.8433 -8.13561 28.0263ZM-35.605 104.985C-36.0943 107.956 -36.5137 110.29 -36.9331 112.554C-37.003 113.19 -37.0729 114.463 -36.304 114.11C-33.578 112.766 -31.6209 115.595 -28.8251 115.1C-30.5026 111.492 -32.8791 108.522 -35.605 104.985ZM-25.5399 290.874C-24.7011 288.964 -23.2333 288.115 -23.9323 286.276C-24.9108 283.801 -26.0292 281.325 -26.7281 278.779C-27.3572 276.303 -28.8949 277.576 -29.9434 277.788C-31.8306 278.283 -30.4327 279.627 -30.0832 280.193C-28.4057 283.447 -27.0077 286.701 -25.5399 290.874ZM-25.6797 119.132C-25.7496 119.344 -25.7496 119.627 -25.8195 119.839C-21.8354 121.89 -17.5717 123.659 -13.8671 126.064C-10.9315 127.974 -9.60345 126.771 -8.06573 124.578C-14.0069 122.668 -19.8084 120.9 -25.6797 119.132ZM-5.33974 52.0052C-8.06571 56.4614 -7.78613 61.9787 -11.281 65.7983C-11.4208 65.9398 -11.3509 66.5764 -11.1412 66.7178C-10.5121 67.2837 -10.1626 66.6471 -9.81315 66.2227C-8.41521 64.1714 -7.15706 61.9787 -5.47954 60.2103C-2.2643 56.7444 -2.05459 55.8956 -5.33974 52.0052ZM12.5538 280.759C14.5109 280.971 13.8818 284.72 16.468 283.588C16.2583 284.508 15.0002 283.376 15.0002 284.579C18.7746 285.64 22.4792 286.63 26.673 287.762C22.1996 284.225 17.7262 281.749 12.5538 280.759ZM-9.81315 29.5825C-10.0927 29.7239 -10.3723 29.9362 -10.6519 30.0776C-6.10863 36.3022 -1.49542 42.5269 3.04786 48.7514C3.32745 48.5392 3.607 48.327 3.88659 48.1148C-0.167418 41.6073 -5.06017 35.5948 -9.81315 29.5825ZM-12.8886 129.176C-15.5447 127.761 -17.9211 126.488 -20.717 125.003C-19.4589 128.186 -18.4104 130.732 -17.362 133.349C-15.5447 132.288 -14.3564 130.944 -12.8886 129.176ZM-0.656694 137.664C-5.19998 139.645 -4.08161 142.05 -1.28574 149.406C-1.00615 145.091 -0.796488 141.484 -0.656694 137.664ZM-17.2921 276.798C-15.9641 279.84 -14.7059 283.023 -13.3779 286.064C-13.2381 286.418 -12.8187 286.842 -12.2595 286.489C-11.4208 285.993 -11.7003 285.428 -11.9799 284.72C-13.0983 281.891 -14.1467 279.061 -15.2651 276.232C-15.4748 275.596 -15.6845 274.676 -16.5931 275.1C-16.9426 275.313 -17.0125 276.091 -17.2921 276.798ZM-11.9799 304.596C-12.5391 304.95 -12.6789 305.233 -12.609 306.153C-12.3294 308.911 -10.1626 310.75 -9.74326 313.367C-9.60346 314.075 -8.55499 313.933 -7.92592 313.863C-7.01726 313.721 -7.50656 313.085 -7.64636 312.519C-8.06574 310.114 -9.39376 307.992 -10.3024 305.728C-10.5121 305.092 -11.2111 304.809 -11.9799 304.596ZM16.0486 324.19C14.1614 320.865 13.113 317.187 10.4569 314.499C9.82783 313.792 9.26865 313.226 8.56969 313.792C7.94062 314.358 8.49979 315.136 8.91917 315.631C11.2258 318.602 13.6722 321.36 16.0486 324.19ZM8.77937 278.213C9.33854 275.666 9.82785 273.12 10.387 270.644C10.8763 268.451 10.8763 268.451 8.77937 264.632C10.2472 269.229 8.0105 273.615 8.77937 278.213ZM-9.67334 185.127C-8.90448 178.478 -9.39375 177.841 -14.0768 179.609C-12.9585 181.519 -11.6304 183.288 -9.67334 185.127ZM-31.9704 283.164C-30.6424 288.257 -28.4755 292.855 -25.0506 296.886C-27.3572 292.289 -29.6638 287.762 -31.9704 283.164ZM-21.9752 88.1503C-22.1849 85.7453 -22.3945 84.4014 -22.4644 83.0575C-22.5343 82.0672 -23.2333 81.0061 -22.4644 80.0866C-22.2547 79.8036 -20.9966 81.8549 -21.3461 79.6622C-21.4859 78.8841 -22.2547 79.167 -22.8139 79.0256C-24.0721 78.8134 -24.6312 79.8744 -24.5613 80.6525C-24.2817 82.9867 -24.0721 85.3916 -21.9752 88.1503ZM9.89774 286.559C10.8064 287.762 8.01053 289.813 10.9462 290.45C13.8819 291.086 13.6023 288.045 15.2798 286.984C13.3227 287.55 11.6452 287.337 9.89774 286.559ZM-3.52243 306.789C-3.31275 306.718 -3.17296 306.648 -2.96327 306.577C-3.94182 304.031 -4.92037 301.413 -5.96882 298.867C-6.17851 298.301 -6.52799 297.311 -7.36675 297.806C-8.06572 298.16 -7.99581 298.938 -7.57643 299.645C-6.24839 302.05 -4.92037 304.384 -3.52243 306.789ZM10.387 300.777C11.3656 297.735 12.2043 295.26 12.9732 292.784C13.2528 291.935 13.0431 291.086 11.8548 291.298C10.2472 291.581 11.5752 292.218 11.715 292.784C11.8548 293.633 11.3656 294.411 10.8064 295.189C9.68804 296.604 8.91919 298.23 10.387 300.777ZM0.60148 25.7629C3.18765 21.0237 3.18764 18.3358 0.671357 16.3552C0.74125 19.609 1.09075 22.6506 0.60148 25.7629ZM-24.9807 266.259C-23.0935 264.561 -22.1849 262.368 -22.0451 259.327C-24.2119 261.449 -24.8409 263.712 -24.9807 266.259ZM-15.4049 307.567C-15.1952 310.255 -14.2166 312.66 -12.3294 314.711C-12.6789 312.094 -13.6575 309.76 -15.4049 307.567Z" fill="#252525"/>
<path d="M29.4688 508.029C25.6944 511 22.2695 513.688 18.7746 516.376C18.1456 516.871 17.5165 517.437 16.8175 517.861C13.8119 519.913 12.2742 522.106 13.4624 526.279C14.441 529.816 13.8119 533.706 12.9732 537.455C11.7849 542.689 12.9033 544.882 17.5864 547.358C22.6189 550.045 27.6515 552.733 32.6142 555.492C33.3131 555.916 34.5014 556.341 34.082 557.543C33.7325 558.463 32.6841 558.18 31.9152 558.109C27.2321 557.897 22.6888 557.048 18.1455 556.199C15.4196 555.633 14.0216 556.199 14.3012 559.382C14.441 561.858 14.2313 564.334 13.8819 566.809C12.7635 573.954 15.4895 580.744 15.839 587.747C15.9788 591.708 17.796 593.264 21.0113 594.537C26.9525 596.942 32.7539 599.559 38.6253 602.106C39.7436 602.601 41.3512 603.025 40.9319 604.723C40.5125 606.35 38.9748 605.642 37.9263 605.501C31.4958 604.794 24.9954 604.016 18.5649 603.025C16.7476 602.742 15.9787 603.025 15.769 604.935C15.14 609.533 13.6023 613.848 11.4355 617.879C10.5967 619.436 11.086 620.497 11.785 621.77C15.7691 629.055 19.4037 636.553 22.549 644.263C22.8985 645.183 24.1567 646.527 22.8286 647.305C21.5705 648.012 20.9414 646.314 20.2425 645.536C16.2583 640.939 12.2742 636.341 8.01052 631.248C6.75238 634.007 5.14477 636.058 3.04787 637.614C1.58005 638.675 2.06932 640.444 2.34891 641.858C3.18767 645.89 2.55856 649.356 -1.35565 651.478C-2.54389 652.115 -2.33418 653.246 -2.33418 654.237C-2.33418 657.278 -2.26428 660.391 -2.33418 663.432C-2.33418 664.422 -2.40408 665.766 -3.73211 665.979C-5.06015 666.191 -4.92038 664.776 -5.19997 663.998C-6.5979 660.744 -7.92592 657.561 -9.32385 654.307C-9.39375 654.166 -9.39375 654.024 -9.46365 654.024C-12.6789 651.761 -16.0339 649.71 -18.69 646.668C-19.3191 646.032 -20.7869 647.163 -21.3461 648.366C-23.5828 653.034 -27.7766 653.742 -32.1801 653.459C-35.3953 653.246 -35.8147 649.922 -37.5621 647.8C-41.8957 651.337 -46.1594 654.873 -50.5629 658.339C-52.5899 659.895 -54.7567 661.239 -56.9934 662.513C-57.6924 662.937 -58.6709 663.715 -59.5796 662.866C-60.7678 661.876 -59.7194 660.815 -59.3 660.037C-56.9934 655.227 -53.5685 651.195 -50.2833 647.093C-47.2079 643.273 -43.9926 639.524 -40.7774 635.775C-40.0784 634.997 -39.0999 634.29 -39.3096 633.087C-40.6376 626.438 -36.4438 621.699 -33.4382 616.677C-32.5296 615.192 -32.5296 614.413 -33.0887 613.14C-35.8846 606.703 -38.7504 600.267 -41.4763 593.759C-45.0411 585.13 -45.81 576.005 -45.0411 566.739C-44.5518 561.363 -44.2023 555.916 -43.8528 550.541C-43.7829 549.763 -43.2238 548.843 -44.2722 548.348C-44.9712 547.994 -45.5304 548.772 -46.0895 549.126C-52.6598 552.663 -59.1602 556.27 -66.08 559.029C-66.7091 559.241 -67.408 559.382 -68.3167 559.595C-68.1769 557.897 -67.1284 557.19 -66.2897 556.27C-59.6495 548.914 -52.3802 542.335 -44.6916 536.182C-41.8957 533.989 -41.1269 530.947 -42.5947 527.693C-45.3207 521.823 -44.8314 515.739 -43.713 509.656C-42.385 502.441 -41.6161 495.227 -41.3365 487.941C-41.2666 485.96 -39.03 483.909 -40.7075 482.282C-42.0355 480.938 -44.2023 480.585 -46.0196 479.736C-54.1975 475.845 -61.8163 470.753 -70.2039 467.357C-70.6932 467.145 -71.1125 466.65 -70.9728 465.235C-61.1872 466.438 -51.6114 468.348 -42.1054 471.036C-42.0355 469.479 -42.8743 468.56 -43.5732 467.711C-50.0736 458.94 -50.7726 448.825 -50.0037 438.427C-49.165 427.393 -47.2778 416.5 -44.5518 405.819C-43.9926 403.626 -44.0625 401.716 -45.0411 399.736C-49.3048 391.601 -52.1705 383.184 -49.3048 373.352C-53.0792 374.554 -56.0847 375.474 -59.1602 376.464C-59.8592 376.676 -60.698 377.454 -61.327 376.464C-61.8163 375.615 -61.1872 374.908 -60.6979 374.201C-58.8107 371.725 -56.2246 369.957 -53.4986 368.754C-49.0252 366.703 -47.8369 363.166 -47.4176 358.639C-46.0196 343.431 -43.5732 328.365 -36.9331 314.36C-36.0943 312.521 -36.2341 311.177 -37.5621 309.55C-41.1968 305.093 -44.6916 300.566 -48.1865 296.04C-49.5145 294.271 -50.9823 292.574 -51.6114 290.31C-49.7941 289.391 -48.6058 290.734 -47.4875 291.513C-43.4335 294.2 -39.4493 297.101 -35.3953 299.859C-31.7607 302.335 -28.4756 305.164 -23.6527 305.447C-20.0181 305.659 -17.0125 308.135 -14.4962 310.823C-13.3779 312.025 -12.3294 313.228 -10.7917 314.996C-9.60348 311.177 -8.62492 307.994 -7.64637 304.881C-6.66782 301.769 -5.75913 298.586 -4.78058 295.474C-4.43109 294.342 -3.87191 293.069 -2.54388 293.069C-1.00615 293.069 -1.00617 294.696 -0.86638 295.757C-0.0975196 300.708 -1.14595 305.659 -1.63522 310.54C-2.1245 315.067 -2.47401 319.028 1.58 322.565C5.70391 326.172 6.05342 331.336 4.79528 336.57C4.58559 337.49 4.02639 338.621 4.37587 339.258C6.61257 344.068 5.63403 348.949 5.00496 353.829C4.1662 359.983 8.5697 365.43 14.7905 365.713C20.1725 365.925 25.4847 365.783 30.8667 365.854C31.7754 365.854 32.754 365.783 33.6626 365.854C34.9208 365.925 36.3187 365.925 36.4585 367.764C36.5983 369.391 35.3401 369.674 34.2218 369.957C28.6999 371.442 23.248 372.927 17.7262 374.271C15.2099 374.908 14.0216 375.615 14.7905 378.728C16.6777 386.296 16.3981 394.148 16.8175 401.928C17.0272 406.172 16.8175 410.416 17.5164 414.59C18.7047 421.38 15.0701 426.544 11.9946 431.92C8.98908 437.225 8.91916 437.225 13.6721 441.327C17.167 444.298 20.5919 447.269 24.0169 450.31C25.1352 451.301 26.2536 452.362 26.8826 453.776C27.1622 454.342 28.0709 454.767 27.3719 455.545C26.7428 456.252 26.0439 455.757 25.4847 455.545C23.0383 454.484 20.6618 453.281 18.2154 452.22C16.3981 451.371 14.5808 450.664 12.7635 449.815C10.5967 448.825 9.54822 449.603 9.82781 451.867C12.1344 468.206 8.35999 484.263 8.0804 500.532C8.0105 504.493 9.68803 507.746 10.6666 511.283C11.1559 512.91 12.5538 512.203 13.6023 511.92C17.6563 510.647 21.7802 509.232 25.8342 507.888C26.6729 507.534 27.7214 506.827 29.4688 508.029ZM6.19323 624.033C7.31157 620.284 7.45134 616.606 5.42434 613.211C1.9295 607.269 0.11221 600.62 -4.99025 595.386C-10.5121 589.586 -11.98 581.098 -15.6845 573.954C-17.4319 570.488 -16.8028 566.456 -18.8298 562.99C-19.4589 561.929 -19.9482 561.151 -21.1364 561.646C-22.5343 562.212 -21.6257 563.202 -21.416 564.051C-20.9966 565.89 -20.3676 567.658 -19.8783 569.427C-18.8997 572.822 -17.362 576.005 -16.8727 579.471C-16.7329 580.39 -16.8028 582.088 -17.9911 581.168C-21.5558 578.339 -23.3032 582.229 -25.8195 582.937C-26.5185 583.149 -27.2174 583.856 -26.5185 584.847C-25.8195 585.908 -25.47 585.483 -24.7011 584.847C-23.7925 584.069 -22.3946 583.927 -21.2762 583.503C-16.663 581.593 -15.2651 582.229 -13.2381 587.11C-11.1412 592.061 -9.25396 597.084 -7.22695 602.106C-3.8719 610.169 -0.0974981 618.162 -1.07605 627.287C-1.28574 629.055 -1.70511 629.833 -3.38263 630.541C-8.06571 632.38 -12.8187 633.724 -17.6416 635.138C-19.3191 635.634 -20.4374 636.695 -19.9482 638.463C-19.5288 640.161 -18.061 640.09 -16.5931 639.736C-7.29686 637.331 1.99939 634.926 5.28454 623.963C5.49422 631.39 0.881079 635.704 -4.99024 639.1C2.20911 636.553 6.61261 632.026 6.19323 624.033ZM-3.03315 403.272C-3.45253 403.202 -3.87191 403.131 -4.29129 403.06C-4.57087 406.172 -5.82904 409.285 -3.52244 412.185C-1.63523 414.59 -1.21583 417.561 -0.796451 420.39C-0.586765 422.229 -0.796489 424.21 0.0422716 426.19C1.71979 424.563 1.30043 422.795 1.37033 421.027C1.64991 416.075 0.601445 411.336 -1.00618 406.668C1.23052 408.153 1.51011 411.194 4.02639 413.246C2.06929 406.809 -1.42553 401.928 -4.78058 396.836C-8.97438 390.54 -14.9156 385.66 -18.8298 379.152C-20.4375 376.464 -21.6257 373.422 -23.9323 371.23C-27.0077 368.259 -28.0562 364.581 -28.2659 360.478C-28.3358 359.134 -28.4057 357.79 -28.6154 355.598C-30.1531 358.215 -28.1261 360.62 -30.1531 362.176C-30.9918 361.822 -30.9219 360.973 -30.852 360.337C-30.1531 356.446 -29.9434 352.768 -30.922 348.807C-31.6209 345.695 -29.0348 342.229 -31.0618 338.975C-27.9863 338.551 -28.9649 335.933 -28.4756 334.094C-28.4057 333.882 -28.8949 333.387 -29.0347 333.387C-30.9918 333.811 -30.9919 335.792 -31.7607 337.136C-32.0403 337.631 -32.0403 338.268 -32.1801 338.834C-34.6265 344.987 -35.605 351.495 -35.9545 358.003C-36.0943 360.69 -37.0729 362.247 -39.4494 363.378C-43.9926 365.642 -48.3961 368.117 -52.4501 371.371C-48.1165 368.754 -43.2937 368.754 -38.6106 367.764C-35.1857 367.056 -33.578 368.471 -32.25 371.301C-26.5184 383.325 -17.7115 393.157 -9.11418 403.272C-8.83459 402.777 -8.7647 402.423 -8.55501 402.141C-7.78615 401.08 -8.20554 398.887 -6.59791 398.816C-5.33977 398.816 -4.50101 400.514 -3.80204 401.716C-3.31277 402.141 -3.24285 402.777 -3.03315 403.272ZM-14.9855 495.934C-15.8942 497.914 -14.2865 498.551 -13.2381 499.612C-10.2325 502.512 -8.13561 506.049 -6.1785 509.727C-8.55499 506.19 -13.0284 504.705 -14.7059 500.815C-16.1038 497.632 -21.3461 498.48 -21.1364 493.953C-24.2818 495.439 -24.142 490.983 -26.4485 490.983C-27.4271 490.983 -26.169 488.931 -27.6368 489.78C-28.4756 490.275 -28.4057 491.265 -28.1261 491.973C-27.8465 492.68 -27.2174 493.317 -26.6582 493.953C-22.6042 498.905 -18.6201 504.068 -14.3564 508.878C1.85961 527.128 8.08041 548.206 3.32743 572.468C2.06929 578.905 2.279 585.554 0.46169 591.92C0.182103 592.84 0.25198 593.901 1.58001 593.971C2.76826 594.042 3.39734 593.476 3.11775 592.274C2.55858 590.01 4.23609 588.383 4.72537 586.403C5.00496 585.271 6.61257 583.927 6.33298 583.29C4.86515 580.249 6.75237 577.632 6.82227 574.873C6.96206 571.195 7.24165 567.446 8.91917 563.98C9.12886 564.97 11.2258 565.465 10.6666 565.819C8.08041 567.587 10.8064 569.78 9.68806 571.832C8.36002 574.307 8.84926 574.59 11.2257 578.268C11.5752 573.6 11.9946 569.427 12.0645 565.253C12.3441 553.016 10.6666 541.133 6.47278 529.603C5.63402 527.198 3.46724 524.44 7.45136 522.601C6.33301 521.61 4.79527 522.671 4.1662 521.257C8.63959 517.296 15.4895 517.437 20.1726 511.92C16.3981 513.122 13.3926 513.971 10.4569 515.103C3.81671 517.649 3.46722 517.578 -1.35566 512.627C-2.47401 511.425 -3.31276 510.081 -4.36121 508.807C-7.92594 504.563 -10.5121 499.4 -15.0554 496.005C-15.8942 492.468 -18.6201 490.346 -21.1364 488.082C-20.7869 489.143 -20.5073 490.346 -19.7385 490.912C-17.8513 492.397 -18.1309 495.863 -14.9855 495.934ZM-34.4867 501.734C-32.3898 494.095 -29.4541 486.88 -25.4001 479.948C-18.2007 467.64 -9.32387 456.606 -0.377092 445.642C1.37033 443.52 2.90807 442.954 5.49425 444.51C10.5967 447.552 16.1185 449.886 22.4092 452.15C20.4521 449.886 18.7746 448.896 16.5379 448.047C12.6237 446.562 8.7095 444.51 5.49425 441.752C2.90807 439.559 1.51013 439.771 0.112196 442.176C-3.94181 448.896 -9.74325 454.059 -14.7059 459.93C-17.0824 462.689 -19.1094 465.73 -21.416 468.843C-21.6257 468.277 -21.8354 467.994 -21.8354 467.852C-21.6956 467.428 -21.4859 467.004 -21.2063 466.65C-16.7329 459.718 -9.88306 454.484 -6.9474 446.491C-6.66781 445.783 -4.99025 445.996 -5.68922 445.005C-7.22695 442.883 -5.33975 441.893 -4.43109 440.691C-1.42553 436.659 1.58 432.698 4.58556 428.666C6.19318 426.544 7.73094 424.351 11.6452 423.927C8.5697 427.11 7.80082 430.859 5.56413 433.759C5.07485 434.395 3.6769 435.951 4.93504 436.8C6.47277 437.791 6.61259 435.668 7.10187 434.89C9.19877 431.212 11.1559 427.463 13.0431 423.714C14.0216 421.734 15.9089 419.4 11.785 418.551C10.7365 418.339 11.5054 417.419 11.4355 416.782C10.8763 410.063 9.96761 403.343 10.3171 396.553C10.387 395.279 10.4569 394.36 9.89773 393.157C8.70949 390.54 10.387 387.711 9.75793 384.881C9.47834 383.75 11.4355 384.598 12.2043 383.891C12.9033 383.255 13.0431 382.476 12.5538 382.123C10.387 380.284 12.6237 376.676 9.68805 375.262C10.7365 373.705 8.70947 370.381 12.414 370.169C11.1559 370.027 9.96762 369.957 8.70947 369.815C14.441 368.471 20.1026 371.725 25.6944 369.32C25.3449 368.188 24.4362 368.047 23.248 368.188C19.7532 368.683 16.2583 367.905 12.8334 367.764C10.8064 367.693 8.56967 367.481 6.68246 366.703C2.13917 364.793 -0.167387 360.054 -3.94181 357.083C-5.54943 355.88 -6.03873 353.334 -8.06573 352.132C-8.6249 351.778 -8.7647 350.292 -9.81315 351.071C-10.582 351.636 -10.0927 352.556 -9.60346 353.263C-7.71625 356.376 -5.82904 359.417 -3.87193 362.53C-0.586782 367.764 3.81671 372.715 4.51567 378.94C5.49423 388.135 7.31153 397.26 7.52123 406.597C7.80082 419.612 2.41876 429.727 -6.24843 438.569C-13.0284 445.501 -20.0879 452.15 -25.2603 460.567C-27.9863 465.023 -31.0618 469.196 -33.5081 473.865C-34.9061 476.482 -36.7933 478.038 -40.2182 476.341C-43.713 474.572 -47.7671 474.714 -51.6813 474.219C-47.9069 476.836 -43.7829 478.604 -39.659 480.372C-38.5407 480.868 -37.2825 481.009 -37.8417 482.99C-40.0784 491.407 -40.9871 500.036 -42.1054 508.666C-42.9442 515.456 -44.4819 522.318 -40.2881 528.755C-38.4708 527.411 -36.5836 525.642 -37.2127 523.308C-38.4708 518.781 -38.5407 514.395 -37.632 509.798C-37.5621 511.849 -37.4224 513.971 -37.3525 516.022C-37.2127 516.022 -37.1428 516.022 -37.003 516.022C-36.3739 509.939 -35.8147 503.927 -35.1856 497.844C-35.0458 497.844 -34.8361 497.844 -34.6963 497.844C-34.4867 499.188 -34.4867 500.461 -34.4867 501.734ZM-35.5351 403.767C-36.0244 402.706 -35.605 402.141 -35.3254 401.504C-33.2285 396.906 -30.9919 392.379 -27.4271 388.701C-26.3088 387.569 -25.6797 386.438 -27.0077 385.094C-28.2659 383.82 -29.5939 384.74 -30.3628 385.589C-34.976 390.682 -39.8687 395.492 -41.5463 402.706C-42.7345 407.729 -43.084 412.963 -44.5518 417.914C-48.3262 430.434 -48.1864 443.237 -46.9283 456.04C-46.7186 457.95 -46.7885 460.425 -44.412 461.84C-44.8314 458.516 -46.7186 455.686 -46.1594 452.291C-43.3636 459.647 -42.0355 467.499 -35.7448 473.299C-33.9974 468.984 -37.5621 466.791 -38.331 463.679C-39.0999 460.708 -40.2182 456.889 -39.5192 455.403C-36.5836 459.435 -35.7448 464.669 -32.7393 469.126C-31.7607 467.074 -32.8091 465.801 -33.2984 464.457C-35.4652 458.586 -39.7289 453.635 -39.7988 446.844C-39.8687 442.105 -39.659 437.437 -39.2396 432.768C-37.7718 418.268 -36.7234 403.555 -25.9593 392.096C-24.9807 391.035 -24.0022 389.762 -24.9807 387.852C-28.2659 393.37 -32.6694 397.896 -35.5351 403.767ZM-30.9918 534.625C-30.4327 530.311 -26.8679 529.603 -24.9108 527.693C-21.2063 524.015 -17.2921 520.196 -12.5391 517.649C-10.7218 516.659 -12.3294 515.739 -12.6789 514.82C-13.0284 513.9 -13.4478 513.334 -14.636 514.325C-20.4375 519.064 -27.0776 522.459 -33.5081 526.208C-37.3525 528.472 -40.5677 531.159 -41.8258 535.686C-42.1753 536.96 -43.084 537.808 -44.2023 538.587C-49.7242 542.548 -54.4072 547.428 -59.3699 552.097C-58.6011 552.592 -57.7623 552.733 -57.273 552.238C-54.4771 549.48 -50.5629 548.277 -47.9767 545.236C-46.5788 543.679 -44.6916 543.962 -43.0839 544.316C-41.3365 544.74 -41.8957 546.367 -42.1054 547.782C-42.5248 551.036 -42.6646 554.36 -43.0141 557.614C-44.7615 572.539 -42.8743 586.898 -37.003 600.691C-34.2071 607.199 -31.2015 613.635 -27.1475 619.648C-26.2389 618.516 -26.5883 617.738 -26.9378 616.818C-28.1261 613.706 -30.6423 611.23 -30.6423 607.623C-30.6423 604.723 -30.7822 601.681 -34.4168 600.691C-34.6964 600.62 -34.8362 599.913 -35.1157 599.559C-37.003 597.367 -34.4168 592.698 -39.1697 592.132C-39.2396 592.132 -39.2396 591.283 -39.2396 590.788C-39.0299 585.978 -38.9601 581.168 -38.2611 576.288C-37.2127 568.578 -37.2127 560.656 -37.2127 552.733C-37.2127 547.57 -36.2341 542.265 -32.1801 538.304C-29.7337 535.828 -27.2873 533.352 -24.9108 530.877C-24.9807 530.735 -25.1205 530.664 -25.1904 530.523C-27.0077 531.867 -28.6852 533.069 -30.9918 534.625ZM-14.5661 613.706C-14.8457 613.848 -15.1253 613.918 -15.335 614.13C-16.1039 614.767 -16.8028 615.333 -17.7115 614.484C-19.0395 613.282 -17.2222 612.999 -16.9426 612.433C-15.7544 609.462 -14.007 606.916 -10.7917 605.784C-9.04429 605.147 -9.18408 603.662 -10.0927 602.318C-11.1412 600.691 -11.8402 602.318 -12.5391 602.813C-14.2166 603.874 -15.7543 605.147 -17.362 606.279C-21.6257 609.108 -23.7226 613.069 -24.142 618.304C-24.6312 625.165 -26.9378 631.602 -30.1531 637.614C-30.5025 638.322 -30.7122 639.453 -31.6908 639.17C-32.9489 638.817 -32.7393 637.543 -32.3199 636.765C-31.4112 635.068 -31.9005 633.37 -32.8092 632.168C-33.7877 630.753 -33.2984 629.904 -32.5296 628.985C-32.25 628.702 -31.551 628.277 -31.9704 628.065C-35.8846 626.509 -32.1102 625.094 -32.0403 623.538C-31.9005 621.699 -29.3143 620.072 -31.4811 617.809C-34.0673 622.053 -37.1428 626.226 -37.003 631.036C-36.8632 634.856 -38.1912 637.19 -40.4279 639.665C-43.7829 643.344 -47.138 646.951 -49.5844 651.407C-46.3691 648.719 -43.084 645.961 -39.4494 642.919C-40.0784 645.324 -42.1054 646.032 -42.8044 648.154C-42.1054 647.729 -41.8258 647.588 -41.5463 647.446C-39.9386 646.385 -38.8902 643.627 -37.003 643.98C-34.976 644.334 -35.5351 647.375 -34.3469 648.932C-33.6479 649.851 -33.2984 651.973 -31.9005 650.983C-30.9219 650.276 -27.4271 650.771 -29.1745 647.588C-29.4541 647.093 -29.524 646.88 -28.825 646.668C-25.8894 645.89 -25.8894 643.061 -24.8409 640.868C-24.3516 639.736 -25.0506 638.958 -24.771 637.897C-24.0022 634.785 -22.1849 631.743 -22.744 628.277C-22.9537 627.146 -22.3946 626.226 -21.6257 626.014C-19.7385 625.448 -21.2063 627.853 -19.9482 628.207C-19.8783 622.76 -17.5018 618.304 -14.5661 613.706ZM-46.5788 363.732C-38.9601 361.327 -37.9815 359.983 -38.4708 352.839C-38.4708 352.485 -38.7504 352.061 -38.6106 351.849C-36.5836 348.524 -37.4224 344.563 -36.304 340.956C-35.3255 337.631 -34.8362 334.165 -34.6265 330.699C-34.277 326.101 -30.922 322.423 -30.922 317.755C-30.922 316.835 -30.1531 317.826 -30.0133 317.472C-29.4541 316.269 -27.8465 316.128 -27.3572 314.572C-27.0077 313.511 -25.1205 311.955 -24.9108 312.096C-23.2333 313.299 -21.3461 312.167 -19.7385 312.803C-18.8298 313.157 -18.4803 313.369 -17.8513 312.45C-17.0824 311.318 -17.9911 311.035 -18.5502 310.611C-21.4859 308.135 -24.7711 307.074 -28.6154 308.064C-29.3143 308.206 -30.852 309.762 -30.852 307.286C-32.8091 307.498 -33.1587 305.376 -34.2071 304.811C-36.9331 303.325 -39.8687 302.264 -41.4763 299.435C-41.9656 298.586 -42.5947 298.444 -43.084 298.657C-44.412 299.293 -43.2238 300.001 -42.8743 300.496C-40.9871 303.042 -39.1698 305.589 -37.003 307.923C-34.4168 310.681 -32.7393 313.299 -35.9545 316.765C-36.7933 317.613 -37.003 319.099 -37.4223 320.301C-40.0784 328.577 -41.1269 337.207 -42.9442 345.695C-44.2023 351.636 -45.3207 357.578 -46.5788 363.732ZM-37.4223 441.539C-37.7019 446.632 -36.9331 451.088 -34.9061 455.333C-33.9974 457.242 -33.1586 458.02 -30.9918 456.889C-28.5454 455.615 -26.169 454.272 -23.443 453.423C-20.8568 452.715 -19.4589 448.684 -19.9482 446.066C-21.4859 437.437 -28.1261 433.476 -34.6265 429.302C-36.5137 428.1 -36.5137 429.656 -36.5836 430.788C-36.7234 434.466 -37.7019 438.144 -37.4223 441.539ZM-32.879 584.847C-29.8036 583.22 -27.7766 581.239 -27.3572 577.844C-27.1475 576.005 -26.5884 573.883 -25.3302 572.68C-23.0236 570.417 -23.7925 568.012 -24.142 565.607C-24.6312 562.565 -25.3302 559.595 -24.4216 556.553C-24.2119 555.916 -24.4215 555.421 -24.8409 554.997C-26.8679 552.733 -28.825 550.399 -30.852 548.065C-31.2714 547.57 -31.7607 546.792 -32.5296 547.075C-33.4382 547.358 -33.0189 548.277 -33.1587 548.914C-35.7448 560.726 -34.3469 572.68 -32.879 584.847ZM-16.1038 358.498C-16.3135 359.559 -16.4533 360.69 -16.663 361.751C-16.8727 362.742 -17.7115 364.015 -16.2437 364.439C-14.9855 364.864 -13.8671 363.378 -13.7273 362.6C-12.8886 358.639 -11.7003 354.678 -12.3294 350.434C-13.0983 345.27 -13.308 340.107 -14.9156 335.014C-15.6146 332.75 -15.2651 332.68 -17.2222 333.033C-17.4319 333.104 -17.8513 333.033 -17.8513 332.963C-18.6201 330.487 -20.0181 329.002 -22.8139 329.214C-23.0236 329.214 -23.6527 328.294 -23.5828 328.153C-21.9053 326.031 -24.6313 326.384 -25.1205 325.606C-25.7496 324.616 -27.0776 324.192 -28.0562 325.323C-29.1046 326.455 -27.8465 327.304 -27.1475 327.87C-22.1849 332.043 -20.0181 337.348 -20.018 343.926C-20.0879 351.99 -18.4803 360.125 -22.2548 367.835C-22.9537 369.32 -21.5558 370.027 -20.5773 371.088C-18.6201 366.915 -18.2008 362.529 -16.1038 358.498ZM2.76826 446.632C2.41878 451.159 2.06928 455.686 1.78969 460.213C1.44021 465.872 1.85962 471.601 0.811164 477.119C-0.167389 482.141 2.69839 487.799 -1.49541 492.256C-0.516861 496.57 -2.68368 499.895 -4.71069 503.29C-5.19997 504.139 -5.26987 504.776 -4.50101 505.483C-3.80204 506.12 -3.31274 505.766 -2.68367 505.2C-1.21584 503.927 0.391778 502.795 1.71981 501.38C2.76827 500.319 3.8866 499.117 3.67691 497.49C2.55856 488.365 3.60702 479.382 4.37588 470.257C4.58557 475.492 4.65546 480.655 5.77381 486.738C5.9136 485.324 6.05342 484.899 6.05342 484.404C6.19321 481.363 5.98353 478.392 5.49425 475.35C4.86518 471.106 7.38144 467.145 7.17174 462.83C6.96206 457.808 7.10187 452.715 7.10187 447.693C6.82228 447.693 6.5427 447.693 6.19322 447.693C5.49425 450.664 6.40289 453.918 4.86516 456.747C5.28454 453.211 3.9565 450.028 2.76826 446.632ZM-29.3143 494.095C-33.2286 503.361 -31.8306 512.273 -30.0133 521.61C-25.3302 518.781 -20.9267 516.022 -16.8028 512.839C-15.6845 511.92 -15.0554 511.142 -16.3135 509.656C-20.6471 504.634 -24.8409 499.471 -29.3143 494.095ZM-27.9863 410.558C-28.196 414.661 -23.443 416.924 -25.8195 421.027C-27.8465 417.702 -30.9918 415.792 -32.5296 412.397C-33.0188 411.265 -33.9974 412.185 -34.4168 412.821C-35.2555 414.165 -35.5351 415.509 -34.3469 416.995C-32.6693 419.046 -31.0617 421.239 -29.5939 423.502C-26.6582 427.958 -22.9537 431.212 -17.5717 432.344C-15.2651 432.839 -13.4478 433.263 -12.8187 429.939C-11.9799 425.341 -11.0014 420.673 -9.32386 416.358C-8.20551 413.529 -7.50654 410.912 -7.43664 407.304C-9.81313 410.416 -10.3723 413.529 -11.3509 416.429C-12.6789 420.178 -13.7274 423.997 -14.9156 427.817C-15.6845 430.363 -16.8727 430.08 -18.1309 428.171C-18.7599 427.18 -19.2492 426.119 -19.8084 425.129C-22.3945 420.39 -24.9807 415.792 -27.9863 410.558ZM4.1662 406.809C5.42434 400.089 2.48869 378.586 -0.0974859 374.413C-2.40408 378.586 -4.71069 382.759 -7.01728 386.933C-7.43666 387.711 -8.13564 388.489 -7.29688 389.479C-2.6837 394.501 0.950947 400.301 4.1662 406.809ZM-30.7821 541.557C-22.6741 555.421 -10.3723 565.253 0.811169 576.217C-0.167385 574.944 0.881069 573.175 -1.28573 571.832C-3.94181 570.134 -5.82904 566.809 -7.15707 563.697C-7.50655 562.848 -9.25397 562.99 -8.555 561.504C-7.78614 560.019 -6.73768 562.282 -7.01727 562.353C-10.9315 557.755 -14.8457 553.087 -18.69 548.489C-18.8298 548.631 -18.9696 548.772 -19.1094 548.914C-17.991 550.399 -16.8727 551.814 -15.6845 553.299C-20.7869 549.197 -25.3302 544.811 -30.7821 541.557ZM-0.586767 537.243C-2.89335 543.043 -5.06016 548.206 -8.4152 552.733C-8.90448 553.441 -9.39377 554.077 -8.55501 554.855C-5.06017 558.109 -1.49544 561.363 2.27898 564.829C3.32743 555.209 3.04786 546.297 -0.586767 537.243ZM-1.77502 478.604C-3.73213 471.389 -2.96326 463.608 -6.17851 455.757C-7.15706 458.94 -5.82905 461.062 -5.89894 463.255C-5.89894 463.821 -4.64077 464.528 -6.03871 464.952C-7.43664 465.448 -7.78613 464.882 -7.92592 463.538C-7.99582 462.547 -9.74324 462.76 -9.67334 461.486C-10.3723 461.769 -9.60347 463.043 -11.1412 463.255C-12.1198 463.325 -11.4208 465.306 -11.1412 466.367C-8.76471 474.997 -7.01729 483.697 -7.29688 492.751C-7.36678 494.873 -7.71623 496.995 -7.92592 499.046C-7.99582 500.249 -7.99581 501.876 -6.73767 502.017C-5.26984 502.229 -5.26987 500.39 -5.19997 499.4C-4.99029 496.217 -4.78059 493.034 -5.06017 489.851C-5.54945 483.485 -4.43111 477.048 -5.40966 470.682C-4.99028 472.945 -4.57088 475.209 -4.0816 477.967C-3.80202 476.836 -3.66223 476.199 -3.52244 475.421C-2.61379 476.482 -3.59234 477.897 -1.77502 478.604ZM-13.5876 466.65C-16.5232 469.409 -18.061 472.592 -20.088 475.35C-23.9323 480.514 -23.9323 480.585 -19.9482 485.253C-19.2492 486.031 -18.8997 488.012 -17.1523 486.88C-14.9855 485.465 -11.0014 485.324 -11.0014 482.636C-10.9315 477.472 -12.0499 472.167 -13.5876 466.65ZM-43.2238 398.321C-41.9656 396.482 -42.1054 391.177 -43.3636 389.833C-45.6003 387.357 -45.81 383.82 -43.2937 381.557C-42.385 380.708 -42.5947 380.354 -42.9442 379.718C-43.2937 378.94 -43.783 378.232 -42.9442 377.596C-42.7345 377.384 -42.3151 377.171 -42.1054 377.242C-41.1269 377.737 -41.6161 378.728 -41.6161 379.435C-41.7559 383.679 -41.4065 387.852 -39.3096 391.672C-38.1213 391.035 -38.0514 390.257 -38.4009 389.267C-40.4279 383.891 -40.8473 378.374 -39.659 372.715C-39.5193 372.079 -39.5891 371.654 -40.358 371.371C-42.6646 370.593 -47.4176 373.21 -48.0466 375.615C-49.9339 383.891 -47.4875 391.247 -43.2238 398.321ZM-10.0228 525.076C-13.5177 526.42 -16.2436 528.401 -18.9696 530.311C-25.2603 534.696 -25.2603 534.767 -20.7869 540.921C-20.2977 541.557 -19.8084 542.265 -19.389 542.972C-18.6201 544.245 -17.7814 544.104 -16.9426 543.043C-13.0284 537.808 -10.5121 532.008 -10.0228 525.076ZM-5.13006 344.492C-3.31274 342.3 -0.0974877 333.882 -0.446975 331.124C-0.796455 328.436 -3.10306 326.809 -5.13006 325.182C-5.47955 324.899 -5.89892 324.545 -6.03871 324.192C-7.08716 321.433 -8.83461 322.565 -10.4422 323.414C-10.9315 323.696 -10.6519 324.97 -11.7702 324.616C-14.2166 323.838 -14.0769 325.748 -13.9371 327.021C-13.6575 329.214 -12.1896 328.082 -11.0014 327.799C-6.87749 326.95 -4.22141 329.072 -4.22141 333.316C-4.22141 335.58 -4.92037 337.702 -5.47954 339.824C-5.89892 341.38 -6.3183 343.007 -5.13006 344.492ZM-36.2341 388.772C-34.2071 386.155 -32.5296 384.033 -30.7822 381.84C-30.0832 380.92 -30.0133 380.001 -30.5725 378.94C-31.8306 376.606 -33.0189 374.201 -34.2071 371.796C-34.5566 371.159 -34.7663 370.452 -35.605 370.522C-36.4438 370.664 -37.0729 371.088 -37.2127 372.079C-38.0514 377.525 -39.03 382.972 -36.2341 388.772ZM-23.6527 366.208C-21.4859 362.529 -21.2063 347.675 -23.0935 341.38C-27.1475 347.817 -27.497 362.105 -23.6527 366.208ZM-13.4478 549.621C-10.5121 544.387 -6.52797 539.718 -4.29128 534.13C-2.61376 529.886 -3.66225 526.279 -7.64636 523.379C-9.53357 532.15 -8.48511 541.487 -13.4478 549.621ZM-5.33974 414.448C-6.45809 420.744 -7.57644 426.968 -8.62489 433.264C-8.83458 434.466 -8.2754 435.315 -7.08716 435.598C-5.89891 435.951 -5.47953 434.961 -4.99025 434.183C-1.21583 427.676 -1.84491 421.097 -5.33974 414.448ZM-1.8449 590.647C1.78973 582.937 -0.656658 576.712 -9.32385 571.053C-8.2754 578.198 -5.40963 584.351 -1.8449 590.647ZM-16.2436 646.173C-14.0768 651.973 -7.92592 651.62 -2.33418 649.71C0.741279 648.649 1.02084 646.244 -0.866365 640.585C-2.61379 643.131 0.391776 647.941 -4.71069 648.578C-4.50099 647.658 -3.59231 646.88 -4.29128 645.678C-4.99024 646.102 -5.54945 646.456 -6.10862 646.88C-6.31831 647.093 -6.45811 647.446 -6.5979 647.8C-7.92594 650.629 -8.1356 650.629 -10.582 647.941C-9.11415 648.012 -7.22696 648.578 -7.85603 646.173C-8.34531 644.405 -9.32386 644.122 -11.0014 644.829C-12.609 645.466 -14.3564 645.678 -16.2436 646.173ZM-4.5709 303.396C-4.78059 303.396 -5.06017 303.325 -5.26987 303.325C-6.24842 306.437 -7.08716 309.55 -8.13561 312.662C-9.18406 315.633 -8.90451 319.735 -11.4907 319.806C-8.97441 318.745 -5.61935 321.857 -1.77503 323.272C-2.19441 322.423 -2.68369 321.716 -3.31277 321.292C-5.96884 319.382 -6.52801 317.189 -5.61935 313.864C-4.64079 310.469 -4.85049 306.862 -4.5709 303.396ZM-22.8838 414.66C-22.6741 414.59 -22.3946 414.519 -22.1849 414.378C-23.6527 408.648 -25.0506 402.919 -26.6582 396.694C-28.196 399.099 -30.7822 400.655 -29.3842 403.485C-27.3572 407.375 -25.0506 410.982 -22.8838 414.66ZM-16.663 422.512C-17.5018 415.156 -17.8513 407.729 -22.1849 401.15C-23.1634 405.253 -18.8298 421.663 -16.663 422.512ZM-21.6956 593.83C-21.2063 593.264 -19.5987 594.254 -20.018 592.415C-20.5073 590.435 -22.1149 591.354 -23.1634 591.142C-24.5613 590.859 -24.0721 592.274 -23.9323 592.769C-22.8838 596.376 -21.6956 599.913 -19.9482 603.237C-19.1094 604.794 -18.3405 604.44 -17.7115 602.884C-16.5931 600.267 -19.1094 594.537 -21.6956 593.83ZM-8.13561 341.026C-7.22695 337.702 -6.38821 335.226 -6.6678 332.609C-6.87749 330.133 -8.55503 330.063 -10.4422 330.416C-12.3993 330.77 -13.1682 331.619 -12.6789 333.811C-12.1197 336.57 -9.74324 337.843 -8.13561 341.026ZM-35.605 417.985C-36.0943 420.956 -36.5137 423.29 -36.9331 425.554C-37.003 426.19 -37.0729 427.463 -36.304 427.11C-33.578 425.766 -31.6209 428.595 -28.8251 428.1C-30.5026 424.492 -32.8791 421.522 -35.605 417.985ZM-25.5399 603.874C-24.7011 601.964 -23.2333 601.115 -23.9323 599.276C-24.9108 596.801 -26.0292 594.325 -26.7281 591.779C-27.3572 589.303 -28.8949 590.576 -29.9434 590.788C-31.8306 591.283 -30.4327 592.627 -30.0832 593.193C-28.4057 596.447 -27.0077 599.701 -25.5399 603.874ZM-25.6797 432.132C-25.7496 432.344 -25.7496 432.627 -25.8195 432.839C-21.8354 434.89 -17.5717 436.659 -13.8671 439.064C-10.9315 440.974 -9.60345 439.771 -8.06573 437.578C-14.0069 435.668 -19.8084 433.9 -25.6797 432.132ZM-5.33974 365.005C-8.06571 369.461 -7.78613 374.979 -11.281 378.798C-11.4208 378.94 -11.3509 379.576 -11.1412 379.718C-10.5121 380.284 -10.1626 379.647 -9.81315 379.223C-8.41521 377.171 -7.15706 374.979 -5.47954 373.21C-2.2643 369.744 -2.05459 368.896 -5.33974 365.005ZM12.5538 593.759C14.5109 593.971 13.8818 597.72 16.468 596.588C16.2583 597.508 15.0002 596.376 15.0002 597.579C18.7746 598.64 22.4792 599.63 26.673 600.762C22.1996 597.225 17.7262 594.749 12.5538 593.759ZM-9.81315 342.582C-10.0927 342.724 -10.3723 342.936 -10.6519 343.078C-6.10863 349.302 -1.49542 355.527 3.04786 361.751C3.32745 361.539 3.607 361.327 3.88659 361.115C-0.167418 354.607 -5.06017 348.595 -9.81315 342.582ZM-12.8886 442.176C-15.5447 440.761 -17.9211 439.488 -20.717 438.003C-19.4589 441.186 -18.4104 443.732 -17.362 446.349C-15.5447 445.288 -14.3564 443.944 -12.8886 442.176ZM-0.656694 450.664C-5.19998 452.645 -4.08161 455.05 -1.28574 462.406C-1.00615 458.091 -0.796488 454.484 -0.656694 450.664ZM-17.2921 589.798C-15.9641 592.84 -14.7059 596.023 -13.3779 599.064C-13.2381 599.418 -12.8187 599.842 -12.2595 599.489C-11.4208 598.993 -11.7003 598.428 -11.9799 597.72C-13.0983 594.891 -14.1467 592.061 -15.2651 589.232C-15.4748 588.596 -15.6845 587.676 -16.5931 588.1C-16.9426 588.313 -17.0125 589.091 -17.2921 589.798ZM-11.9799 617.596C-12.5391 617.95 -12.6789 618.233 -12.609 619.153C-12.3294 621.911 -10.1626 623.75 -9.74326 626.367C-9.60346 627.075 -8.55499 626.933 -7.92592 626.863C-7.01726 626.721 -7.50656 626.085 -7.64636 625.519C-8.06574 623.114 -9.39376 620.992 -10.3024 618.728C-10.5121 618.092 -11.2111 617.809 -11.9799 617.596ZM16.0486 637.19C14.1614 633.865 13.113 630.187 10.4569 627.499C9.82783 626.792 9.26865 626.226 8.56969 626.792C7.94062 627.358 8.49979 628.136 8.91917 628.631C11.2258 631.602 13.6722 634.36 16.0486 637.19ZM8.77937 591.213C9.33854 588.666 9.82785 586.12 10.387 583.644C10.8763 581.451 10.8763 581.451 8.77937 577.632C10.2472 582.229 8.0105 586.615 8.77937 591.213ZM-9.67334 498.127C-8.90448 491.478 -9.39375 490.841 -14.0768 492.609C-12.9585 494.519 -11.6304 496.288 -9.67334 498.127ZM-31.9704 596.164C-30.6424 601.257 -28.4755 605.855 -25.0506 609.886C-27.3572 605.289 -29.6638 600.762 -31.9704 596.164ZM-21.9752 401.15C-22.1849 398.745 -22.3945 397.401 -22.4644 396.057C-22.5343 395.067 -23.2333 394.006 -22.4644 393.087C-22.2547 392.804 -20.9966 394.855 -21.3461 392.662C-21.4859 391.884 -22.2547 392.167 -22.8139 392.026C-24.0721 391.813 -24.6312 392.874 -24.5613 393.652C-24.2817 395.987 -24.0721 398.392 -21.9752 401.15ZM9.89774 599.559C10.8064 600.762 8.01053 602.813 10.9462 603.45C13.8819 604.086 13.6023 601.045 15.2798 599.984C13.3227 600.55 11.6452 600.337 9.89774 599.559ZM-3.52243 619.789C-3.31275 619.718 -3.17296 619.648 -2.96327 619.577C-3.94182 617.031 -4.92037 614.413 -5.96882 611.867C-6.17851 611.301 -6.52799 610.311 -7.36675 610.806C-8.06572 611.16 -7.99581 611.938 -7.57643 612.645C-6.24839 615.05 -4.92037 617.384 -3.52243 619.789ZM10.387 613.777C11.3656 610.735 12.2043 608.26 12.9732 605.784C13.2528 604.935 13.0431 604.086 11.8548 604.298C10.2472 604.581 11.5752 605.218 11.715 605.784C11.8548 606.633 11.3656 607.411 10.8064 608.189C9.68804 609.604 8.91919 611.23 10.387 613.777ZM0.60148 338.763C3.18765 334.024 3.18764 331.336 0.671357 329.355C0.74125 332.609 1.09075 335.651 0.60148 338.763ZM-24.9807 579.259C-23.0935 577.561 -22.1849 575.368 -22.0451 572.327C-24.2119 574.449 -24.8409 576.712 -24.9807 579.259ZM-15.4049 620.567C-15.1952 623.255 -14.2166 625.66 -12.3294 627.711C-12.6789 625.094 -13.6575 622.76 -15.4049 620.567Z" fill="#252525"/>
</svg>
