<svg width="811" height="2206" viewBox="0 0 811 2206" fill="none" xmlns="http://www.w3.org/2000/svg">
<path d="M26.0277 1031.92C28.0068 1030.3 26.8337 1029.59 25.1687 1030.15C20.253 1031.79 21.3567 1029.47 21.3725 1028.23C21.3817 1024.98 19.7865 1022.58 16.5068 1020.88C14.4596 1019.82 15.6625 1017.5 15.2403 1015.82C14.4546 1012.19 12.6585 1009.06 9.05947 1006.77C8.74125 1006.55 8.00737 1006.64 6.63766 1006.48C7.14505 1009.95 9.33563 1012.36 7.12712 1016.64C4.44044 1014.22 6.11471 1010.41 2.75464 1008.39C2.09195 1012.06 2.71674 1015.03 4.78754 1017.22C7.07734 1019.63 8.59393 1022.25 8.90229 1025.54C9.22943 1028.51 11.4194 1030.73 14.1237 1032.46C16.1715 1033.69 14.6257 1034.29 12.1294 1035.49C9.79161 1036.62 7.5137 1037.87 5.21583 1039.07C5.67319 1039.37 5.89219 1039.59 6.07067 1039.56C14.7321 1036.48 16.9608 1038.42 16.1414 1042.72C15.9858 1043.7 16.5242 1044.51 17.8135 1044.35C23.0299 1043.63 22.5415 1046 22.6079 1048.12C22.6479 1048.19 22.5492 1048.37 22.5892 1048.45C27.214 1054.98 28.3715 1063.11 35.7522 1068.93C33.216 1070.06 30.5212 1071.26 27.9057 1072.42C26.8754 1072.88 25.2497 1073.33 25.4705 1074.1C25.6514 1074.79 27.0786 1074.34 28.1495 1074.14C28.3279 1074.11 28.5657 1074 28.7442 1073.97C36.8743 1072.27 37.2313 1072.2 36.2352 1077.08C35.7468 1079.45 36.6809 1079.9 40.5651 1078.36C42.745 1077.48 43.4595 1077.53 43.4243 1078.91C43.2219 1083.81 45.5758 1087.61 48.0688 1091.48C50.3222 1094.91 50.1386 1099.48 54.0764 1102.21C55.3693 1103.14 53.2892 1104.2 51.3677 1105.2C49.0105 1106.47 45.8179 1107.12 44.4752 1109.18C46.9382 1109.91 52.0676 1106.85 53.3827 1108.55C54.419 1109.92 54.1479 1111.96 54.1538 1113.79C54.0981 1114.96 54.9136 1115.55 56.797 1115.04C60.5838 1114.04 60.8844 1114.95 60.9696 1116.75C61.1981 1119.89 62.0014 1122.83 64.9646 1124.85C67.3113 1126.45 66.2499 1129.58 67.4278 1131.75C67.7072 1132.27 68.2444 1132.72 68.2662 1133.3C68.3913 1135.17 73.1339 1135.2 71.058 1137.55C69.5158 1139.24 65.5523 1140.82 62.4625 1142.56C63.0384 1142.71 63.3566 1142.94 63.8128 1142.87C66.7284 1142.44 70.9677 1140.28 72.5383 1141.19C73.9896 1142.05 73.5406 1144.31 73.4074 1146.06C73.3117 1147.15 73.3552 1148.32 75.0208 1147.95C80.1761 1146.75 78.854 1149.03 79.2762 1150.72C79.8587 1152.88 80.2827 1155.12 81.9355 1156.9C83.7873 1158.86 85.025 1161.15 85.2723 1163.96C85.5213 1167.33 87.7724 1170.03 91.7477 1172.1C87.8641 1173.83 84.6146 1175.28 81.365 1176.72C81.9046 1177.9 83.6676 1176.98 84.8178 1176.74C92.0561 1175.4 93.3472 1175.78 93.0039 1180.05C92.8701 1181.62 92.8343 1182.82 96.3633 1181.89C99.7339 1181.03 99.4216 1182.64 99.2866 1183.84C98.766 1188.51 100.92 1191.94 104.165 1195.02C106.334 1197.03 105.155 1200.48 107.285 1202.6C108.539 1203.82 109.456 1205.15 112.235 1205.38C109.868 1203.55 109.165 1200.98 108.521 1198.34C110.888 1199.99 113.155 1201.63 115.641 1203.32C117.419 1200.97 117.89 1199.3 115.781 1197.4C111.721 1193.72 109.048 1189.51 108.396 1184.31C108.152 1182.59 107.017 1181.22 104.792 1180.57C101.853 1179.68 103.555 1178.47 106.785 1176.98C110.173 1175.43 113.462 1173.88 116.372 1171.8C114.584 1171.23 112.127 1172.32 110.026 1172.98C103.802 1174.93 100.942 1174.37 102.081 1170.66C102.553 1169.17 102.669 1168.48 100.211 1169.02C98.5251 1169.36 98.8011 1168.78 98.8186 1168.09C98.9623 1163.45 96.4312 1160.05 92.0971 1157.5C91.5006 1157.12 90.8847 1156.89 91.0608 1156.13C92.0182 1151.54 89.6861 1148.33 86.0858 1145.68C84.6139 1144.59 85.1276 1143.91 88.2187 1142.53C91.5475 1141.05 94.6766 1139.2 98.0442 1137.43C95.7198 1136.59 92.7486 1138.19 90.1119 1138.95C84.5016 1140.57 81.8802 1139.91 83.3179 1136.57C84.0664 1134.87 84.4203 1133.89 81.4649 1134.24C79.3425 1134.5 79.2397 1133.4 79.2767 1132.56C79.5425 1128.88 76.7572 1126.64 73.9126 1124.48C72.5798 1123.47 73.0905 1121.87 72.9672 1120.55C72.6389 1117.23 71.3994 1114.39 67.8221 1112.69C65.7155 1111.71 67.7956 1110.65 69.598 1109.62C72.9849 1107.7 76.5309 1105.89 80.2548 1103.87C77.8306 1102.84 74.5224 1104.54 72.164 1105.46C66.8133 1107.56 66.2725 1106.02 66.0082 1104.08C65.7246 1102.28 66.9075 1099.93 63.0772 1099.76C62.1643 1099.71 61.9423 1098.57 61.9 1097.77C61.8288 1094.19 60.0932 1091.35 57.1688 1089.03C55.637 1087.84 55.4126 1085.97 55.2082 1084.14C54.6809 1080.63 52.1328 1078.1 47.8416 1076.54C48.4088 1080.13 53.5531 1081.63 53.3689 1086.01C49.5321 1083.83 47.6181 1081.03 45.7633 1078.15C45.0053 1076.93 47.2081 1077 48.1193 1076.51C49.1636 1074.26 52.6551 1073.98 54.8138 1072.7C56.814 1071.49 58.9534 1070.36 61.152 1069.15C58.867 1068.2 55.5981 1069.79 53.0008 1070.45C47.6077 1071.75 45.2246 1071.16 46.8015 1067.9C47.7278 1065.98 48.1605 1064.78 44.2933 1065.45C41.5169 1065.95 40.7389 1064.7 40.9126 1063.2C41.1227 1060.69 40.5602 1058.56 38.5311 1056.99C35.4276 1054.53 33.1366 1051.76 33.4012 1047.71C33.6101 1044.82 32.6495 1042.32 28.3413 1041.63C32.7562 1038.53 38.1081 1036.79 42.1256 1033.49C39.3873 1033.52 36.9098 1034.39 34.4316 1035.08C27.4135 1037.02 25.2277 1036.07 26.4434 1031.59C21.8459 1033.46 17.5296 1036.38 11.9551 1036.81C14.7678 1035.28 16.9266 1034 19.2051 1032.94C21.4836 1031.88 24.5141 1030.21 26.0277 1031.92ZM96.23 1165.31C88.9568 1162.05 84.1594 1157.37 81.6006 1151.56C85.6254 1156.63 93.889 1159.35 96.23 1165.31ZM45.9983 1083.3C49.3667 1087.89 58.3013 1089.49 58.6603 1096.14C53.1907 1092.22 47.5444 1088.88 45.9983 1083.3ZM63.3932 1117.59C64.4736 1120.31 67.4555 1122 69.8434 1124.05C72.112 1126.06 75.6089 1127.43 76.2548 1130.8C68.4867 1127.9 65.6133 1122.96 63.3932 1117.59ZM114.736 1199.65C109.884 1196.5 103.983 1193.96 103.013 1188.72C107.231 1192.15 112.459 1195.08 114.736 1199.65ZM30.6126 1050.55C28.1842 1048.24 24.4285 1046.58 24.197 1042.52C30.7679 1043.39 30.8984 1046.9 30.6126 1050.55ZM12.0198 1026.21C10.3394 1022.02 9.49142 1017.55 10.585 1012.13C14.6449 1015.81 12.6584 1021.22 12.0198 1026.21ZM18.5227 1042.76C24.1875 1039.59 29.9333 1036.95 35.9828 1036.13C30.2575 1039 24.7729 1042.67 18.5227 1042.76ZM88.5442 1163.29C90.8909 1164.89 93.2376 1166.5 95.4457 1168.22C95.963 1168.63 96.9969 1169.27 95.6108 1170.16C93.7891 1171.33 93.0323 1170.48 92.1381 1170.1C89.1174 1168.7 89.1678 1165.89 88.5442 1163.29ZM73.3764 1106.06C69.6373 1109.51 64.3041 1110.92 60.2244 1113.37C59.1947 1114.01 56.9332 1114.2 56.5932 1113.39C56.0941 1112.47 58.176 1111.95 59.2656 1111.42C63.5449 1109.34 68.1836 1107.91 73.3764 1106.06ZM18.706 1032.02C14.7846 1028.23 14.2039 1026.61 15.3627 1022.94C19.4372 1025.02 19.4679 1028.34 18.706 1032.02ZM37.8121 1061.66C34.25 1058.53 30.5887 1055.4 27.0266 1052.28C32.5296 1054.27 36.0124 1057.43 37.8121 1061.66ZM51.6103 1094.39C54.732 1096.34 59.2997 1097.51 58.3828 1102.35C54.2677 1100.02 52.4735 1097.43 51.6103 1094.39ZM82.0994 1146.31C87.1233 1147.41 87.4522 1150.92 88.8708 1153.9C85.4714 1151.99 83.2209 1149.47 82.0994 1146.31ZM31.8705 1059.04C34.637 1061.61 37.4828 1064.14 40.2693 1066.74C33.1254 1066.62 33.231 1062.46 31.8705 1059.04ZM90.591 1139.83C86.8906 1142.99 82.3712 1144.45 78.1705 1146.32C76.9817 1146.85 75.831 1146.9 75.7294 1146.17C75.5485 1145.47 76.8172 1145.09 77.5898 1144.7C81.5521 1142.75 85.8138 1141.36 90.591 1139.83ZM49.4285 1106.88C54.2632 1104.73 57.6513 1103.18 61.1786 1101.7C62.3082 1101.24 63.4788 1101.23 63.8775 1101.78C64.0771 1102.15 63.4443 1102.8 62.691 1103.04C58.7463 1104.29 54.9655 1107.12 49.4285 1106.88ZM109.494 1174.18C109.654 1174.47 109.714 1174.77 109.874 1175.06C106.228 1176.68 102.602 1178.34 98.9365 1179.93C97.7477 1180.46 96.0445 1181.49 95.5654 1180.6C95.2261 1179.98 96.4531 1178.97 97.9196 1178.41C101.844 1176.94 105.629 1175.58 109.494 1174.18ZM32.1505 1071.9C35.9113 1069.04 39.6781 1068.01 43.3451 1066.79C44.3561 1066.47 45.6055 1066.24 45.6665 1066.71C45.7675 1067.26 44.8182 1068.23 43.5296 1068.58C40.0404 1069.58 36.4545 1071.31 32.1505 1071.9ZM100.983 1180.62C105.593 1182.59 107.068 1184.77 107.519 1189.23C103.544 1187.34 103.117 1184.01 100.983 1180.62ZM54.1357 1071.63C49.0227 1073.63 44.3107 1076.92 38.7562 1077.38C43.6284 1074.57 48.8019 1072.86 54.1357 1071.63ZM69.8636 1130.26C72.9823 1131.29 74.8916 1132.64 76.4645 1134.27C76.7634 1134.64 77.7562 1134.84 76.6472 1135.52C75.6967 1136.12 74.408 1136.47 73.9295 1135.77C72.535 1134.1 69.9717 1133 69.8636 1130.26ZM63.8357 1113.32C68.0265 1114.52 70.2165 1116.75 68.8798 1120.64C67.1654 1118.2 65.4709 1115.8 63.8357 1113.32ZM68.4679 1140.39C73.858 1138.18 77.7586 1135.57 82.8975 1135.43C78.0264 1138.61 73.9613 1139.46 68.4679 1140.39ZM64.8458 1106.65C63.7192 1108.02 61.9756 1108.8 60.5096 1109.54C59.0636 1110.32 57.0041 1111.61 56.1675 1110.61C55.1517 1109.46 57.9475 1108.81 59.2949 1108.21C60.9 1107.54 62.6818 1106.29 64.8458 1106.65ZM17.1464 1040.58C19.6421 1039.19 21.2025 1036.99 24.7539 1036.83C25.2301 1036.8 25.3904 1037.28 25.7086 1037.5C23.1735 1038.99 20.6578 1040.34 17.7229 1040.92C17.5644 1040.99 17.5638 1040.8 17.1464 1040.58Z" fill="white"/>
<path d="M13.7664 411.477C16.3907 411.055 16.3064 412.352 14.8027 413.208C10.3709 415.739 13.0876 416.396 14.1922 417.164C17.0646 419.198 18.2114 421.86 17.7143 425.299C17.401 427.444 20.1766 428.029 21.4077 429.393C24.1304 432.24 25.8023 435.508 25.631 439.549C25.6353 439.92 25.1031 440.39 24.4189 441.487C21.6599 438.937 20.8664 435.838 15.7545 434.754C16.2535 438.217 20.6296 439.395 20.3746 443.1C16.7278 441.271 14.4895 438.955 13.8181 436.082C13.0835 432.91 11.6967 430.169 8.98062 427.879C6.56561 425.781 5.93281 422.798 6.05623 419.758C6.2088 417.497 4.74363 418.243 2.16667 419.296C-0.251782 420.278 -2.73132 421.148 -5.19049 422.056C-5.17671 421.536 -5.23999 421.238 -5.10184 421.13C2.87403 416.789 2.52191 413.96 -1.76551 411.856C-2.72756 411.351 -3.11664 410.452 -2.1903 409.62C1.61468 406.294 -0.768998 405.163 -2.59787 403.784C-2.6386 403.709 -2.8582 403.666 -2.89893 403.591C-5.85526 396.137 -12.3193 390.197 -12.9634 381.202C-15.4996 382.33 -18.1944 383.529 -20.8099 384.692C-21.8402 385.151 -23.2239 386.046 -23.7693 385.403C-24.274 384.834 -23.0081 384.084 -22.1792 383.436C-22.041 383.328 -21.8032 383.222 -21.6651 383.114C-15.2286 378.291 -14.9523 378.075 -19.86 375.734C-22.2437 374.602 -22.0758 373.641 -18.3529 371.799C-16.2537 370.771 -15.8618 370.224 -17.1067 369.378C-21.5432 366.454 -23.4639 362.365 -25.3664 358.127C-27.0245 354.34 -31.16 351.609 -31.1741 347.044C-31.212 345.521 -33.4131 346.361 -35.4556 347.129C-38.0144 348.035 -40.5215 349.943 -43.1545 349.622C-42.3046 347.378 -36.4897 345.584 -37.1908 343.563C-37.7675 341.954 -39.7324 340.869 -41.3394 339.719C-42.4033 339.026 -42.4346 338.06 -40.8335 337.021C-37.6516 334.906 -38.2785 334.112 -39.8063 332.926C-42.4409 330.786 -44.5411 328.362 -44.5216 324.949C-44.5138 322.24 -47.9141 321.047 -49.1155 318.83C-49.4005 318.304 -49.4682 317.634 -49.9707 317.251C-51.5392 315.99 -48.6919 312.531 -52.0179 312.565C-54.4473 312.619 -58.2495 314.497 -61.6619 315.642C-61.4489 315.128 -61.4533 314.756 -61.1181 314.467C-58.9687 312.625 -54.4874 310.911 -54.3283 309.208C-54.2077 307.615 -56.4714 306.523 -58.0966 305.52C-59.1198 304.903 -60.1247 304.137 -58.7817 303.166C-54.5942 300.184 -57.4084 299.71 -58.6395 298.345C-60.1943 296.565 -61.9076 294.855 -62.4727 292.541C-63.0808 289.966 -64.3432 287.636 -66.6768 285.689C-69.4925 283.397 -70.5078 280.07 -69.9198 275.89C-73.8034 277.618 -77.0529 279.064 -80.3025 280.509C-81.013 279.38 -79.129 278.681 -78.2208 277.997C-72.6358 273.6 -72.1916 272.423 -76.1642 269.993C-77.6287 269.105 -78.713 268.374 -75.7485 266.403C-72.9425 264.501 -74.5452 263.722 -75.6883 263.064C-80.1205 260.511 -81.8375 256.797 -82.5853 252.512C-83.037 249.682 -86.7972 248.369 -87.3689 245.498C-87.6875 243.821 -88.3028 242.322 -86.8145 240.167C-86.6412 243.029 -84.8036 245.15 -82.8663 247.273C-82.8788 244.527 -82.9503 241.853 -82.9243 238.997C-79.775 239.181 -78.0138 239.89 -77.6231 242.609C-76.844 247.859 -74.7582 252.435 -70.5711 256.17C-69.2018 257.426 -68.6839 259.108 -69.4568 261.131C-70.4608 263.817 -68.355 263.347 -65.0851 261.939C-61.6566 260.46 -58.2871 259.054 -54.6914 258.248C-55.2694 259.904 -57.7264 260.997 -59.5856 262.104C-65.0841 265.39 -66.3303 267.81 -62.3687 269.313C-60.7682 269.907 -60.0868 270.257 -62.0617 271.695C-63.3843 272.703 -62.7052 272.867 -62.0827 273.29C-57.9065 276.097 -56.4454 280.064 -56.8276 284.806C-56.8595 285.473 -57.0318 286.062 -56.2508 286.415C-51.6238 288.601 -50.2057 292.308 -50.0556 296.579C-49.9951 298.325 -49.0782 298.383 -45.9871 297.008C-42.6583 295.527 -39.1259 294.422 -35.5164 293.096C-36.1874 295.307 -39.4006 296.457 -41.6743 297.888C-46.5184 300.929 -47.5269 303.244 -43.71 304.298C-41.7517 304.826 -40.6719 305.185 -42.7805 307.102C-44.298 308.477 -43.3926 309.241 -42.6298 309.741C-39.2186 311.861 -38.9392 315.282 -38.7594 318.7C-38.6807 320.298 -36.9602 320.932 -35.8738 321.848C-33.1374 324.175 -31.3928 326.851 -32.0666 330.509C-32.4795 332.652 -30.2785 331.813 -28.2745 331.154C-24.5247 329.906 -20.777 328.472 -16.7305 327.045C-17.2997 329.444 -20.8096 330.772 -23.047 331.907C-28.1558 334.46 -27.1239 335.82 -25.5735 337.229C-24.1634 338.561 -21.3675 339.183 -23.5444 342.064C-24.0541 342.757 -23.1873 343.631 -22.5037 344.166C-19.3892 346.465 -17.9391 349.505 -17.6778 353.074C-17.5563 354.932 -16.0466 356.266 -14.5573 357.563C-11.778 360.151 -11.1001 363.581 -12.3265 367.672C-15.1466 365.008 -13.3493 360.337 -17.3241 357.721C-17.7332 361.868 -16.4213 365.015 -15.0097 368.166C-14.3966 369.479 -13.1213 367.839 -12.1295 367.491C-9.5124 368.145 -7.15003 365.788 -4.70902 365.029C-2.42653 364.34 -0.125878 363.503 2.2744 362.669C1.72336 364.919 -1.66654 366.288 -3.82027 367.759C-8.24553 370.847 -9.17688 372.94 -5.34182 373.846C-3.08471 374.382 -1.7649 374.821 -4.70463 377.201C-6.83581 378.896 -6.20237 380.246 -4.77856 381.059C-2.43122 382.487 -0.896824 384.23 -0.748332 386.682C-0.464508 390.474 0.59153 393.876 4.32415 396.227C6.9929 397.885 8.61314 400.149 6.60351 403.702C12.0265 402.455 16.8139 399.673 22.1621 398.833C20.4723 400.797 18.1964 402.043 16.0812 403.404C10.1115 407.272 9.61937 409.45 14.3031 411.378C9.86685 413.538 4.66343 414.827 0.90356 418.598C3.95826 417.519 6.39926 416.76 8.71809 415.775C11.0369 414.79 14.3498 413.643 13.7664 411.477ZM-61.2033 276.91C-62.7503 284.222 -61.5392 290.633 -57.9685 296.134C-59.9925 290.038 -57.3745 282.344 -61.2033 276.91ZM-19.4121 364.76C-21.407 359.444 -17.3921 351.967 -23.0416 347.531C-22.906 353.954 -23.3906 360.14 -19.4121 364.76ZM-39.0764 330.642C-40.8188 328.152 -40.4983 324.931 -40.8526 321.917C-41.2455 319.013 -40.3295 315.621 -42.9096 313.037C-45.0724 320.483 -42.4616 325.665 -39.0764 330.642ZM-80.2402 241.954C-80.4143 247.442 -81.7592 253.311 -77.7284 257.302C-78.1882 252.096 -77.5974 246.469 -80.2402 241.954ZM0.124131 396.463C0.679875 399.667 -0.132122 403.433 3.30602 406.148C6.52989 400.843 3.51497 398.546 0.124131 396.463ZM10.2835 425.2C12.9582 429.048 16.3848 432.468 21.8335 435.081C21.0544 429.83 15.0756 427.873 10.2835 425.2ZM-0.352034 410.108C5.87735 407.99 11.7039 405.491 16.1 401.623C10.0924 403.969 3.51905 405.634 -0.352034 410.108ZM-64.0904 283.745C-64.0826 281.036 -64.0748 278.328 -64.2458 275.652C-64.2931 275.02 -64.227 273.871 -65.8551 274.315C-67.9994 274.896 -67.7078 275.979 -67.9164 276.865C-68.5176 279.931 -66.0073 281.66 -64.0904 283.745ZM-22.8427 330.65C-28.1545 331.194 -32.6409 334.17 -37.2851 335.583C-38.4762 335.926 -40.0118 337.449 -39.5049 338.203C-38.9959 339.142 -37.277 337.958 -36.147 337.502C-31.7064 335.713 -27.6323 333.247 -22.8427 330.65ZM9.22716 416.714C10.1851 421.932 11.2578 423.367 15.199 424.832C15.8459 420.58 12.9328 418.471 9.22716 416.714ZM-5.29827 384.275C-4.70682 388.816 -4.17425 393.431 -3.5828 397.972C-1.99139 392.739 -2.6621 388.233 -5.29827 384.275ZM-25.7768 353.738C-25.5988 350.254 -23.8539 346.213 -28.6824 343.836C-29.1278 348.279 -27.938 351.201 -25.7768 353.738ZM-53.0339 299.07C-50.9537 294.74 -53.8509 292.297 -55.618 289.398C-55.993 293.063 -55.1384 296.275 -53.0339 299.07ZM-6.60242 390.22C-7.18291 386.606 -7.68414 382.958 -8.285 379.307C-12.5254 384.552 -8.79061 387.088 -6.60242 390.22ZM-42.163 296.986C-47.1942 297.685 -51.2297 300.04 -55.4304 301.909C-56.6192 302.438 -57.3667 303.237 -56.7828 303.77C-56.2781 304.338 -55.1707 303.659 -54.3577 303.344C-50.2341 301.696 -46.416 299.484 -42.163 296.986ZM-38.1206 347.475C-33.2859 345.325 -29.8574 343.846 -26.4108 342.219C-25.3216 341.688 -24.5945 340.852 -24.8411 340.215C-25.0447 339.839 -26.0002 339.891 -26.6727 340.284C-30.1739 342.354 -34.9628 343.319 -38.1206 347.475ZM-60.9643 261.738C-61.1272 261.437 -61.349 261.209 -61.5119 260.909C-65.1578 262.531 -68.824 264.115 -72.4494 265.775C-73.6383 266.303 -75.5834 266.889 -75.0947 267.791C-74.7485 268.43 -73.1183 268.171 -71.7324 267.461C-68.0502 265.543 -64.5469 263.658 -60.9643 261.738ZM-17.7749 381.943C-12.9656 381.016 -9.76332 378.939 -6.45926 377.049C-5.56926 376.513 -4.60219 375.756 -4.9847 375.413C-5.40792 374.995 -6.84113 375.073 -7.92818 375.79C-10.9334 377.687 -14.6403 379.196 -17.7749 381.943ZM-71.8147 263.86C-70.7534 259.283 -71.7781 256.847 -75.4402 253.718C-76.1889 257.783 -73.5114 260.183 -71.8147 263.86ZM-4.1774 366.192C-9.04844 368.639 -14.8089 369.989 -18.5891 373.723C-13.1523 371.957 -8.50304 369.282 -4.1774 366.192ZM-46.3167 318.004C-45.3352 315.096 -45.3615 312.868 -45.8452 310.705C-45.99 310.256 -45.5617 309.413 -46.832 309.791C-47.9438 310.099 -49.0309 310.816 -48.7029 311.603C-48.081 313.658 -48.6684 316.205 -46.3167 318.004ZM-35.0449 333C-33.5559 329.213 -34.1887 326.229 -38.4289 324.757C-37.3205 327.529 -36.2325 330.263 -35.0449 333ZM-56.1001 312.655C-50.8713 310.142 -46.2046 308.952 -42.961 305.317C-48.7192 306.852 -51.9374 309.264 -56.1001 312.655ZM-28.5505 336.455C-30.4433 336.41 -32.1869 337.186 -33.7335 337.781C-35.3005 338.338 -37.6826 339.025 -37.3095 340.258C-36.9139 341.714 -34.6423 340.098 -33.295 339.498C-31.7302 338.755 -29.5451 338.25 -28.5505 336.455ZM0.731571 412.471C3.46924 411.533 6.36042 411.786 8.6617 409.316C8.97654 408.99 8.65293 408.574 8.64854 408.203C5.79089 409.101 3.07358 410.077 0.783888 411.841C0.625373 411.912 0.786079 412.027 0.731571 412.471Z" fill="white"/>
<path d="M205.466 1363.12C208.09 1362.7 208.006 1364 206.502 1364.86C202.07 1367.39 204.787 1368.04 205.891 1368.81C208.764 1370.85 209.911 1373.51 209.414 1376.95C209.1 1379.09 211.876 1379.68 213.107 1381.04C215.83 1383.89 217.502 1387.16 217.33 1391.2C217.335 1391.57 216.802 1392.04 216.118 1393.13C213.359 1390.58 212.566 1387.49 207.454 1386.4C207.953 1389.86 212.329 1391.04 212.074 1394.75C208.427 1392.92 206.189 1390.6 205.517 1387.73C204.783 1384.56 203.396 1381.82 200.68 1379.53C198.265 1377.43 197.632 1374.45 197.755 1371.41C197.908 1369.14 196.443 1369.89 193.866 1370.94C191.447 1371.93 188.968 1372.8 186.509 1373.7C186.523 1373.18 186.459 1372.89 186.597 1372.78C194.573 1368.44 194.221 1365.61 189.934 1363.5C188.972 1363 188.583 1362.1 189.509 1361.27C193.314 1357.94 190.93 1356.81 189.101 1355.43C189.061 1355.36 188.841 1355.31 188.8 1355.24C185.844 1347.78 179.38 1341.84 178.736 1332.85C176.2 1333.98 173.505 1335.18 170.889 1336.34C169.859 1336.8 168.475 1337.69 167.93 1337.05C167.425 1336.48 168.691 1335.73 169.52 1335.08C169.658 1334.98 169.896 1334.87 170.034 1334.76C176.471 1329.94 176.747 1329.72 171.839 1327.38C169.456 1326.25 169.623 1325.29 173.346 1323.45C175.446 1322.42 175.837 1321.87 174.593 1321.03C170.156 1318.1 168.235 1314.01 166.333 1309.77C164.675 1305.99 160.539 1303.26 160.525 1298.69C160.487 1297.17 158.286 1298.01 156.244 1298.78C153.685 1299.68 151.178 1301.59 148.545 1301.27C149.395 1299.03 155.21 1297.23 154.508 1295.21C153.932 1293.6 151.967 1292.52 150.36 1291.37C149.296 1290.67 149.265 1289.71 150.866 1288.67C154.048 1286.55 153.421 1285.76 151.893 1284.57C149.258 1282.43 147.158 1280.01 147.178 1276.6C147.185 1273.89 143.785 1272.69 142.584 1270.48C142.299 1269.95 142.231 1269.28 141.729 1268.9C140.16 1267.64 143.007 1264.18 139.681 1264.21C137.252 1264.27 133.45 1266.14 130.037 1267.29C130.25 1266.78 130.246 1266.4 130.581 1266.11C132.73 1264.27 137.212 1262.56 137.371 1260.86C137.492 1259.26 135.228 1258.17 133.603 1257.17C132.579 1256.55 131.574 1255.78 132.917 1254.81C137.105 1251.83 134.291 1251.36 133.06 1249.99C131.505 1248.21 129.792 1246.5 129.227 1244.19C128.618 1241.61 127.356 1239.28 125.022 1237.34C122.207 1235.04 121.191 1231.72 121.779 1227.54C117.896 1229.27 114.646 1230.71 111.397 1232.16C110.686 1231.03 112.57 1230.33 113.478 1229.64C119.063 1225.25 119.508 1224.07 115.535 1221.64C114.07 1220.75 112.986 1220.02 115.951 1218.05C118.757 1216.15 117.154 1215.37 116.011 1214.71C111.579 1212.16 109.862 1208.44 109.114 1204.16C108.662 1201.33 104.902 1200.02 104.33 1197.15C104.012 1195.47 103.396 1193.97 104.885 1191.81C105.058 1194.68 106.896 1196.8 108.833 1198.92C108.82 1196.17 108.749 1193.5 108.775 1190.64C111.924 1190.83 113.685 1191.54 114.076 1194.26C114.855 1199.51 116.941 1204.08 121.128 1207.82C122.497 1209.07 123.015 1210.76 122.242 1212.78C121.238 1215.46 123.344 1214.99 126.614 1213.59C130.043 1212.11 133.412 1210.7 137.008 1209.9C136.43 1211.55 133.973 1212.64 132.114 1213.75C126.615 1217.04 125.369 1219.46 129.331 1220.96C130.931 1221.55 131.612 1221.9 129.638 1223.34C128.315 1224.35 128.994 1224.51 129.617 1224.94C133.793 1227.74 135.254 1231.71 134.872 1236.45C134.84 1237.12 134.667 1237.71 135.448 1238.06C140.075 1240.25 141.494 1243.96 141.644 1248.23C141.704 1249.97 142.621 1250.03 145.712 1248.66C149.041 1247.17 152.573 1246.07 156.183 1244.74C155.512 1246.95 152.299 1248.1 150.025 1249.54C145.181 1252.58 144.172 1254.89 147.989 1255.94C149.947 1256.47 151.027 1256.83 148.919 1258.75C147.401 1260.12 148.307 1260.89 149.069 1261.39C152.481 1263.51 152.76 1266.93 152.94 1270.35C153.018 1271.95 154.739 1272.58 155.825 1273.5C158.562 1275.82 160.306 1278.5 159.633 1282.16C159.22 1284.3 161.421 1283.46 163.425 1282.8C167.175 1281.55 170.922 1280.12 174.969 1278.69C174.4 1281.09 170.89 1282.42 168.652 1283.55C163.543 1286.11 164.575 1287.47 166.126 1288.88C167.536 1290.21 170.332 1290.83 168.155 1293.71C167.645 1294.4 168.512 1295.28 169.195 1295.81C172.31 1298.11 173.76 1301.15 174.021 1304.72C174.143 1306.58 175.653 1307.91 177.142 1309.21C179.921 1311.8 180.599 1315.23 179.373 1319.32C176.553 1316.66 178.35 1311.98 174.375 1309.37C173.966 1313.51 175.278 1316.66 176.69 1319.81C177.303 1321.13 178.578 1319.49 179.57 1319.14C182.187 1319.79 184.549 1317.44 186.99 1316.68C189.273 1315.99 191.573 1315.15 193.974 1314.32C193.423 1316.57 190.033 1317.94 187.879 1319.41C183.454 1322.49 182.522 1324.59 186.357 1325.49C188.615 1326.03 189.934 1326.47 186.995 1328.85C184.863 1330.54 185.497 1331.89 186.921 1332.71C189.268 1334.13 190.802 1335.88 190.951 1338.33C191.235 1342.12 192.291 1345.52 196.023 1347.87C198.692 1349.53 200.312 1351.8 198.303 1355.35C203.726 1354.1 208.513 1351.32 213.861 1350.48C212.172 1352.44 209.896 1353.69 207.78 1355.05C201.811 1358.92 201.319 1361.1 206.002 1363.03C201.566 1365.19 196.363 1366.47 192.603 1370.25C195.657 1369.17 198.098 1368.41 200.417 1367.42C202.736 1366.44 206.049 1365.29 205.466 1363.12ZM130.496 1228.56C128.949 1235.87 130.16 1242.28 133.731 1247.78C131.707 1241.69 134.325 1233.99 130.496 1228.56ZM172.287 1316.41C170.292 1311.09 174.307 1303.61 168.658 1299.18C168.793 1305.6 168.309 1311.79 172.287 1316.41ZM152.623 1282.29C150.88 1279.8 151.201 1276.58 150.847 1273.56C150.454 1270.66 151.37 1267.27 148.79 1264.68C146.627 1272.13 149.238 1277.31 152.623 1282.29ZM111.459 1193.6C111.285 1199.09 109.94 1204.96 113.971 1208.95C113.511 1203.74 114.102 1198.12 111.459 1193.6ZM191.823 1348.11C192.379 1351.31 191.567 1355.08 195.005 1357.8C198.229 1352.49 195.214 1350.19 191.823 1348.11ZM201.983 1376.85C204.657 1380.7 208.084 1384.12 213.533 1386.73C212.754 1381.48 206.775 1379.52 201.983 1376.85ZM191.347 1361.76C197.577 1359.64 203.403 1357.14 207.799 1353.27C201.792 1355.62 195.218 1357.28 191.347 1361.76ZM127.609 1235.39C127.617 1232.68 127.624 1229.98 127.453 1227.3C127.406 1226.67 127.472 1225.52 125.844 1225.96C123.7 1226.54 123.991 1227.63 123.783 1228.51C123.182 1231.58 125.692 1233.31 127.609 1235.39ZM168.857 1282.3C163.545 1282.84 159.058 1285.82 154.414 1287.23C153.223 1287.57 151.687 1289.1 152.194 1289.85C152.703 1290.79 154.422 1289.61 155.552 1289.15C159.993 1287.36 164.067 1284.89 168.857 1282.3ZM200.926 1368.36C201.884 1373.58 202.957 1375.01 206.898 1376.48C207.545 1372.23 204.632 1370.12 200.926 1368.36ZM186.401 1335.92C186.992 1340.46 187.525 1345.08 188.116 1349.62C189.708 1344.39 189.037 1339.88 186.401 1335.92ZM165.922 1305.39C166.1 1301.9 167.845 1297.86 163.017 1295.48C162.571 1299.93 163.761 1302.85 165.922 1305.39ZM138.665 1250.72C140.745 1246.39 137.848 1243.94 136.081 1241.05C135.706 1244.71 136.561 1247.92 138.665 1250.72ZM185.097 1341.87C184.516 1338.25 184.015 1334.61 183.414 1330.95C179.174 1336.2 182.909 1338.74 185.097 1341.87ZM149.536 1248.63C144.505 1249.33 140.469 1251.69 136.269 1253.56C135.08 1254.09 134.333 1254.88 134.916 1255.42C135.421 1255.99 136.529 1255.31 137.341 1254.99C141.465 1253.34 145.283 1251.13 149.536 1248.63ZM153.579 1299.12C158.413 1296.97 161.842 1295.49 165.288 1293.87C166.378 1293.34 167.105 1292.5 166.858 1291.86C166.655 1291.49 165.699 1291.54 165.026 1291.93C161.525 1294 156.736 1294.97 153.579 1299.12ZM130.735 1213.39C130.572 1213.08 130.35 1212.86 130.187 1212.56C126.541 1214.18 122.875 1215.76 119.25 1217.42C118.061 1217.95 116.116 1218.54 116.605 1219.44C116.951 1220.08 118.581 1219.82 119.967 1219.11C123.649 1217.19 127.152 1215.31 130.735 1213.39ZM173.924 1333.59C178.734 1332.66 181.936 1330.59 185.24 1328.7C186.13 1328.16 187.097 1327.4 186.715 1327.06C186.291 1326.64 184.858 1326.72 183.771 1327.44C180.766 1329.33 177.059 1330.84 173.924 1333.59ZM119.884 1215.51C120.946 1210.93 119.921 1208.49 116.259 1205.37C115.51 1209.43 118.188 1211.83 119.884 1215.51ZM187.522 1317.84C182.651 1320.29 176.89 1321.64 173.11 1325.37C178.547 1323.6 183.196 1320.93 187.522 1317.84ZM145.383 1269.65C146.364 1266.74 146.338 1264.52 145.854 1262.35C145.709 1261.9 146.138 1261.06 144.867 1261.44C143.755 1261.75 142.668 1262.46 142.996 1263.25C143.618 1265.31 143.031 1267.85 145.383 1269.65ZM156.654 1284.65C158.143 1280.86 157.51 1277.88 153.27 1276.4C154.379 1279.18 155.467 1281.91 156.654 1284.65ZM135.599 1264.3C140.828 1261.79 145.495 1260.6 148.738 1256.96C142.98 1258.5 139.762 1260.91 135.599 1264.3ZM163.149 1288.1C161.256 1288.06 159.512 1288.83 157.966 1289.43C156.399 1289.99 154.017 1290.67 154.39 1291.91C154.785 1293.36 157.057 1291.74 158.404 1291.15C159.969 1290.4 162.154 1289.9 163.149 1288.1ZM192.431 1364.12C195.168 1363.18 198.06 1363.43 200.361 1360.96C200.676 1360.64 200.352 1360.22 200.348 1359.85C197.49 1360.75 194.773 1361.72 192.483 1363.49C192.325 1363.56 192.485 1363.67 192.431 1364.12Z" fill="white"/>
<path d="M415.489 1751.36C417.468 1749.75 416.295 1749.03 414.63 1749.59C409.714 1751.23 410.818 1748.91 410.833 1747.67C410.843 1744.42 409.247 1742.02 405.968 1740.32C403.921 1739.27 405.123 1736.95 404.701 1735.26C403.916 1731.63 402.119 1728.5 398.52 1726.21C398.202 1725.99 397.468 1726.09 396.099 1725.92C396.606 1729.4 398.797 1731.8 396.588 1736.08C393.901 1733.66 395.576 1729.85 392.216 1727.83C391.553 1731.51 392.178 1734.47 394.248 1736.66C396.538 1739.07 398.055 1741.69 398.363 1744.98C398.69 1747.95 400.88 1750.18 403.585 1751.9C405.632 1753.14 404.087 1753.73 401.59 1754.94C399.253 1756.07 396.975 1757.31 394.677 1758.51C395.134 1758.81 395.353 1759.04 395.532 1759C404.193 1755.93 406.422 1757.86 405.602 1762.16C405.447 1763.14 405.985 1763.95 407.274 1763.79C412.491 1763.07 412.002 1765.44 412.069 1767.56C412.109 1767.63 412.01 1767.81 412.05 1767.89C416.675 1774.43 417.832 1782.55 425.213 1788.37C422.677 1789.5 419.982 1790.7 417.367 1791.86C416.336 1792.32 414.711 1792.77 414.931 1793.54C415.112 1794.24 416.54 1793.78 417.61 1793.58C417.789 1793.55 418.027 1793.44 418.205 1793.41C426.335 1791.71 426.692 1791.65 425.696 1796.52C425.208 1798.89 426.142 1799.34 430.026 1797.8C432.206 1796.92 432.92 1796.97 432.885 1798.36C432.683 1803.25 435.037 1807.05 437.53 1810.92C439.783 1814.36 439.6 1818.92 443.537 1821.65C444.83 1822.58 442.75 1823.65 440.829 1824.64C438.471 1825.91 435.279 1826.56 433.936 1828.62C436.399 1829.35 441.529 1826.29 442.844 1827.99C443.88 1829.36 443.609 1831.4 443.615 1833.23C443.559 1834.4 444.375 1835 446.258 1834.48C450.045 1833.48 450.345 1834.4 450.431 1836.19C450.659 1839.33 451.462 1842.27 454.426 1844.29C456.772 1845.9 455.711 1849.02 456.889 1851.19C457.168 1851.71 457.705 1852.16 457.727 1852.74C457.852 1854.61 462.595 1854.65 460.519 1856.99C458.977 1858.68 455.013 1860.26 451.923 1862C452.499 1862.16 452.818 1862.38 453.274 1862.31C456.189 1861.89 460.429 1859.73 461.999 1860.63C463.451 1861.49 463.002 1863.75 462.868 1865.5C462.773 1866.59 462.816 1867.76 464.482 1867.39C469.637 1866.19 468.315 1868.47 468.737 1870.16C469.32 1872.32 469.744 1874.56 471.396 1876.34C473.248 1878.3 474.486 1880.59 474.733 1883.41C474.982 1886.77 477.233 1889.47 481.209 1891.55C477.325 1893.27 474.076 1894.72 470.826 1896.16C471.366 1897.34 473.129 1896.42 474.279 1896.18C481.517 1894.84 482.808 1895.22 482.465 1899.49C482.331 1901.06 482.295 1902.27 485.824 1901.34C489.195 1900.48 488.883 1902.08 488.748 1903.28C488.227 1907.95 490.381 1911.38 493.626 1914.46C495.795 1916.47 494.616 1919.92 496.746 1922.04C498 1923.27 498.917 1924.59 501.696 1924.82C499.329 1922.99 498.626 1920.43 497.982 1917.79C500.349 1919.43 502.616 1921.07 505.102 1922.76C506.88 1920.41 507.351 1918.74 505.242 1916.84C501.182 1913.16 498.509 1908.95 497.857 1903.76C497.613 1902.04 496.478 1900.67 494.253 1900.01C491.314 1899.12 493.016 1897.91 496.246 1896.43C499.634 1894.87 502.923 1893.32 505.833 1891.25C504.045 1890.67 501.588 1891.76 499.487 1892.42C493.263 1894.37 490.403 1893.81 491.542 1890.1C492.014 1888.61 492.13 1887.92 489.672 1888.47C487.986 1888.81 488.262 1888.22 488.28 1887.53C488.423 1882.89 485.892 1879.49 481.558 1876.94C480.961 1876.57 480.346 1876.34 480.522 1875.57C481.479 1870.98 479.147 1867.77 475.547 1865.12C474.075 1864.04 474.589 1863.35 477.68 1861.97C481.008 1860.49 484.138 1858.64 487.505 1856.87C485.181 1856.03 482.21 1857.63 479.573 1858.39C473.963 1860.02 471.341 1859.35 472.779 1856.02C473.527 1854.31 473.881 1853.33 470.926 1853.68C468.803 1853.94 468.701 1852.84 468.738 1852.01C469.003 1848.32 466.218 1846.08 463.374 1843.92C462.041 1842.91 462.551 1841.31 462.428 1840C462.1 1836.67 460.86 1833.83 457.283 1832.13C455.176 1831.15 457.257 1830.09 459.059 1829.06C462.446 1827.14 465.992 1825.33 469.716 1823.31C467.292 1822.29 463.983 1823.99 461.625 1824.9C456.274 1827 455.733 1825.46 455.469 1823.52C455.185 1821.73 456.368 1819.37 452.538 1819.2C451.625 1819.15 451.403 1818.01 451.361 1817.21C451.29 1813.63 449.554 1810.79 446.63 1808.48C445.098 1807.28 444.874 1805.42 444.669 1803.59C444.142 1800.07 441.594 1797.55 437.302 1795.98C437.87 1799.57 443.014 1801.08 442.83 1805.46C438.993 1803.28 437.079 1800.47 435.224 1797.59C434.466 1796.37 436.669 1796.44 437.58 1795.95C438.625 1793.7 442.116 1793.43 444.275 1792.15C446.275 1790.94 448.414 1789.8 450.613 1788.59C448.328 1787.65 445.059 1789.24 442.462 1789.89C437.069 1791.19 434.686 1790.6 436.262 1787.34C437.189 1785.42 437.621 1784.22 433.754 1784.89C430.978 1785.39 430.2 1784.14 430.374 1782.65C430.584 1780.13 430.021 1778 427.992 1776.43C424.889 1773.97 422.598 1771.2 422.862 1767.15C423.071 1764.26 422.11 1761.77 417.802 1761.08C422.217 1757.97 427.569 1756.23 431.586 1752.93C428.848 1752.96 426.371 1753.83 423.893 1754.52C416.874 1756.46 414.689 1755.51 415.904 1751.04C411.307 1752.9 406.991 1755.83 401.416 1756.25C404.229 1754.72 406.387 1753.44 408.666 1752.38C410.945 1751.32 413.975 1749.65 415.489 1751.36ZM485.691 1884.75C478.418 1881.49 473.62 1876.81 471.062 1871C475.086 1876.07 483.35 1878.8 485.691 1884.75ZM435.459 1802.74C438.828 1807.33 447.762 1808.93 448.121 1815.59C442.652 1811.66 437.005 1808.32 435.459 1802.74ZM452.854 1837.03C453.935 1839.75 456.916 1841.44 459.304 1843.49C461.573 1845.5 465.07 1846.87 465.716 1850.24C457.948 1847.34 455.074 1842.4 452.854 1837.03ZM504.197 1919.09C499.345 1915.94 493.444 1913.4 492.474 1908.16C496.692 1911.59 501.92 1914.52 504.197 1919.09ZM420.074 1769.99C417.645 1767.68 413.889 1766.02 413.658 1761.96C420.229 1762.83 420.359 1766.34 420.074 1769.99ZM401.481 1745.66C399.8 1741.46 398.952 1736.99 400.046 1731.57C404.106 1735.25 402.119 1740.66 401.481 1745.66ZM407.984 1762.2C413.648 1759.04 419.394 1756.39 425.444 1755.57C419.718 1758.44 414.234 1762.11 407.984 1762.2ZM478.005 1882.73C480.352 1884.34 482.699 1885.94 484.907 1887.66C485.424 1888.07 486.458 1888.71 485.072 1889.6C483.25 1890.77 482.493 1889.92 481.599 1889.54C478.578 1888.14 478.629 1885.33 478.005 1882.73ZM462.837 1825.5C459.098 1828.95 453.765 1830.36 449.685 1832.82C448.656 1833.46 446.394 1833.64 446.054 1832.83C445.555 1831.91 447.637 1831.39 448.727 1830.86C453.006 1828.78 457.645 1827.35 462.837 1825.5ZM408.167 1751.46C404.246 1747.67 403.665 1746.06 404.824 1742.38C408.898 1744.46 408.929 1747.78 408.167 1751.46ZM427.273 1781.1C423.711 1777.97 420.05 1774.85 416.488 1771.72C421.991 1773.71 425.473 1776.87 427.273 1781.1ZM441.071 1813.83C444.193 1815.78 448.761 1816.95 447.844 1821.79C443.729 1819.46 441.934 1816.87 441.071 1813.83ZM471.56 1865.75C476.584 1866.85 476.913 1870.36 478.332 1873.35C474.932 1871.43 472.682 1868.91 471.56 1865.75ZM421.331 1778.48C424.098 1781.05 426.944 1783.58 429.73 1786.18C422.586 1786.06 422.692 1781.9 421.331 1778.48ZM480.052 1859.27C476.352 1862.43 471.832 1863.89 467.631 1865.76C466.443 1866.29 465.292 1866.34 465.19 1865.61C465.009 1864.91 466.278 1864.53 467.051 1864.14C471.013 1862.2 475.275 1860.8 480.052 1859.27ZM438.889 1826.32C443.724 1824.17 447.112 1822.62 450.64 1821.14C451.769 1820.69 452.94 1820.67 453.338 1821.22C453.538 1821.59 452.905 1822.24 452.152 1822.48C448.207 1823.73 444.426 1826.56 438.889 1826.32ZM498.955 1893.62C499.115 1893.91 499.175 1894.21 499.335 1894.5C495.689 1896.12 492.063 1897.78 488.397 1899.37C487.209 1899.9 485.505 1900.93 485.026 1900.04C484.687 1899.42 485.914 1898.42 487.381 1897.85C491.305 1896.38 495.09 1895.02 498.955 1893.62ZM421.611 1791.35C425.372 1788.48 429.139 1787.45 432.806 1786.23C433.817 1785.92 435.066 1785.68 435.127 1786.16C435.228 1786.7 434.279 1787.68 432.99 1788.02C429.501 1789.02 425.915 1790.76 421.611 1791.35ZM490.444 1900.06C495.054 1902.03 496.529 1904.21 496.98 1908.67C493.005 1906.78 492.578 1903.45 490.444 1900.06ZM443.597 1791.08C438.484 1793.08 433.772 1796.36 428.217 1796.82C433.089 1794.01 438.263 1792.31 443.597 1791.08ZM459.325 1849.7C462.443 1850.74 464.353 1852.08 465.925 1853.71C466.224 1854.08 467.217 1854.28 466.108 1854.96C465.158 1855.56 463.869 1855.91 463.39 1855.21C461.996 1853.54 459.433 1852.44 459.325 1849.7ZM453.297 1832.76C457.487 1833.96 459.677 1836.19 458.341 1840.08C456.626 1837.64 454.932 1835.24 453.297 1832.76ZM457.929 1859.83C463.319 1857.62 467.219 1855.01 472.358 1854.88C467.487 1858.05 463.422 1858.9 457.929 1859.83ZM454.307 1826.1C453.18 1827.47 451.437 1828.24 449.971 1828.98C448.525 1829.77 446.465 1831.05 445.628 1830.05C444.613 1828.9 447.408 1828.25 448.756 1827.65C450.361 1826.98 452.143 1825.73 454.307 1826.1ZM406.607 1760.02C409.103 1758.64 410.663 1756.43 414.215 1756.27C414.691 1756.24 414.851 1756.72 415.17 1756.94C412.634 1758.44 410.119 1759.78 407.184 1760.36C407.025 1760.43 407.025 1760.25 406.607 1760.02Z" fill="white"/>
<path d="M227.845 1405.01C229.818 1403.39 228.634 1402.66 226.967 1403.21C222.047 1404.84 223.134 1402.49 223.139 1401.23C223.12 1397.92 221.498 1395.47 218.191 1393.73C216.126 1392.64 217.313 1390.29 216.875 1388.58C216.054 1384.88 214.224 1381.69 210.591 1379.34C210.27 1379.11 209.534 1379.2 208.157 1379.02C208.697 1382.56 210.917 1385.02 208.737 1389.35C206.019 1386.87 207.667 1383.02 204.276 1380.93C203.643 1384.67 204.296 1387.69 206.394 1389.93C208.714 1392.39 210.259 1395.06 210.597 1398.41C210.952 1401.43 213.17 1403.7 215.899 1405.47C217.966 1406.75 216.419 1407.34 213.924 1408.55C211.587 1409.68 209.311 1410.92 207.015 1412.13C207.476 1412.44 207.698 1412.67 207.877 1412.64C216.545 1409.57 218.8 1411.55 218.015 1415.92C217.867 1416.91 218.415 1417.74 219.707 1417.59C224.938 1416.89 224.468 1419.29 224.553 1421.45C224.594 1421.52 224.497 1421.71 224.538 1421.78C229.237 1428.46 230.471 1436.73 237.931 1442.69C235.395 1443.82 232.7 1445.02 230.084 1446.18C229.054 1446.64 227.426 1447.08 227.654 1447.87C227.842 1448.58 229.271 1448.13 230.344 1447.93C230.523 1447.9 230.761 1447.79 230.94 1447.76C239.086 1446.09 239.444 1446.03 238.487 1450.98C238.017 1453.38 238.959 1453.85 242.845 1452.31C245.025 1451.43 245.743 1451.48 245.72 1452.89C245.56 1457.86 247.956 1461.74 250.492 1465.7C252.784 1469.2 252.64 1473.84 256.617 1476.64C257.923 1477.6 255.844 1478.66 253.924 1479.65C251.569 1480.94 248.369 1481.57 247.039 1483.65C249.518 1484.41 254.641 1481.34 255.976 1483.08C257.028 1484.48 256.774 1486.55 256.796 1488.41C256.75 1489.59 257.574 1490.2 259.46 1489.69C263.253 1488.7 263.563 1489.64 263.664 1491.46C263.921 1494.66 264.753 1497.65 267.745 1499.72C270.115 1501.37 269.077 1504.54 270.278 1506.76C270.564 1507.28 271.107 1507.74 271.134 1508.33C271.276 1510.23 276.037 1510.3 273.974 1512.67C272.44 1514.38 268.475 1515.95 265.388 1517.7C265.968 1517.86 266.289 1518.09 266.747 1518.03C269.67 1517.61 273.907 1515.45 275.491 1516.38C276.956 1517.26 276.525 1519.56 276.406 1521.33C276.32 1522.45 276.374 1523.63 278.043 1523.27C283.207 1522.09 281.9 1524.39 282.339 1526.11C282.942 1528.32 283.388 1530.59 285.062 1532.41C286.939 1534.42 288.201 1536.75 288.474 1539.61C288.753 1543.03 291.037 1545.8 295.046 1547.93C291.162 1549.66 287.912 1551.11 284.663 1552.55C285.215 1553.75 286.977 1552.83 288.129 1552.59C295.384 1551.28 296.683 1551.68 296.376 1556.02C296.256 1557.61 296.23 1558.83 299.765 1557.91C303.141 1557.06 302.841 1558.69 302.716 1559.91C302.235 1564.65 304.427 1568.15 307.711 1571.31C309.907 1573.36 308.753 1576.86 310.91 1579.03C312.179 1580.28 313.112 1581.64 315.903 1581.89C313.511 1580.02 312.783 1577.4 312.114 1574.72C314.504 1576.4 316.794 1578.09 319.305 1579.82C321.069 1577.45 321.527 1575.75 319.393 1573.81C315.285 1570.04 312.565 1565.75 311.865 1560.46C311.606 1558.71 310.454 1557.31 308.215 1556.63C305.256 1555.7 306.955 1554.48 310.184 1553C313.572 1551.44 316.86 1549.89 319.763 1547.8C317.963 1547.21 315.506 1548.3 313.403 1548.95C307.171 1550.89 304.296 1550.3 305.407 1546.54C305.867 1545.03 305.978 1544.33 303.515 1544.86C301.825 1545.2 302.097 1544.61 302.109 1543.9C302.213 1539.19 299.642 1535.72 295.269 1533.09C294.667 1532.71 294.046 1532.47 294.216 1531.7C295.137 1527.04 292.768 1523.76 289.131 1521.04C287.644 1519.93 288.153 1519.23 291.244 1517.86C294.573 1516.38 297.698 1514.52 301.064 1512.74C298.723 1511.87 295.754 1513.47 293.114 1514.23C287.496 1515.84 284.858 1515.15 286.273 1511.77C287.009 1510.04 287.356 1509.05 284.392 1509.39C282.264 1509.63 282.151 1508.52 282.181 1507.66C282.415 1503.92 279.6 1501.63 276.725 1499.41C275.378 1498.38 275.877 1496.76 275.742 1495.42C275.383 1492.03 274.114 1489.14 270.508 1487.39C268.384 1486.38 270.463 1485.31 272.264 1484.28C275.647 1482.35 279.191 1480.54 282.912 1478.51C280.469 1477.45 277.163 1479.16 274.803 1480.07C269.45 1482.17 268.894 1480.6 268.612 1478.62C268.311 1476.8 269.478 1474.41 265.631 1474.21C264.714 1474.15 264.482 1473 264.432 1472.18C264.329 1468.54 262.562 1465.64 259.606 1463.27C258.058 1462.05 257.817 1460.15 257.595 1458.29C257.035 1454.72 254.455 1452.13 250.134 1450.51C250.734 1454.16 255.912 1455.73 255.765 1460.18C251.894 1457.94 249.948 1455.07 248.061 1452.13C247.29 1450.89 249.502 1450.98 250.412 1450.48C251.441 1448.2 254.944 1447.95 257.099 1446.66C259.097 1445.45 261.235 1444.31 263.431 1443.1C261.129 1442.12 257.861 1443.71 255.26 1444.36C249.857 1445.64 247.46 1445.03 249.014 1441.73C249.927 1439.78 250.351 1438.56 246.475 1439.22C243.692 1439.71 242.9 1438.43 243.061 1436.91C243.25 1434.35 242.667 1432.19 240.616 1430.58C237.479 1428.06 235.155 1425.22 235.385 1421.11C235.57 1418.18 234.583 1415.63 230.252 1414.9C234.657 1411.78 240.015 1410.05 244.019 1406.73C241.271 1406.74 238.791 1407.61 236.309 1408.29C229.281 1410.2 227.078 1409.22 228.259 1404.69C223.66 1406.55 219.353 1409.49 213.76 1409.88C216.571 1408.35 218.727 1407.06 221.005 1406C223.283 1404.94 226.311 1403.27 227.845 1405.01ZM299.486 1541.06C292.156 1537.7 287.299 1532.91 284.68 1526.98C288.764 1532.16 297.084 1534.99 299.486 1541.06ZM248.342 1457.37C251.764 1462.05 260.747 1463.75 261.166 1470.51C255.641 1466.48 249.943 1463.05 248.342 1457.37ZM266.104 1492.33C267.213 1495.11 270.221 1496.85 272.636 1498.94C274.931 1501 278.454 1502.42 279.132 1505.85C271.308 1502.85 268.38 1497.8 266.104 1492.33ZM318.364 1576.09C313.466 1572.85 307.519 1570.23 306.5 1564.9C310.764 1568.41 316.039 1571.43 318.364 1576.09ZM232.61 1423.97C230.153 1421.62 226.368 1419.9 226.1 1415.77C232.704 1416.7 232.865 1420.27 232.61 1423.97ZM213.733 1399.12C212.009 1394.84 211.119 1390.3 212.169 1384.79C216.277 1388.56 214.33 1394.05 213.733 1399.12ZM220.405 1415.97C226.065 1412.8 231.81 1410.15 237.876 1409.37C232.153 1412.24 226.679 1415.93 220.405 1415.97ZM291.753 1538.95C294.122 1540.6 296.492 1542.25 298.724 1544.01C299.247 1544.43 300.29 1545.09 298.907 1545.98C297.088 1547.16 296.321 1546.29 295.42 1545.9C292.375 1544.46 292.401 1541.6 291.753 1538.95ZM276.026 1480.69C272.302 1484.17 266.961 1485.56 262.887 1488.03C261.858 1488.67 259.59 1488.84 259.241 1488.02C258.732 1487.08 260.818 1486.57 261.907 1486.04C266.185 1483.95 270.829 1482.54 276.026 1480.69ZM220.496 1405.06C216.526 1401.18 215.929 1399.54 217.06 1395.82C221.169 1397.95 221.228 1401.33 220.496 1405.06ZM239.935 1435.32C236.332 1432.11 232.629 1428.91 229.026 1425.71C234.567 1427.77 238.091 1431.01 239.935 1435.32ZM254.073 1468.67C257.224 1470.68 261.82 1471.9 260.941 1476.81C256.79 1474.41 254.966 1471.77 254.073 1468.67ZM285.134 1521.65C290.187 1522.81 290.548 1526.38 291.998 1529.42C288.569 1527.44 286.288 1524.87 285.134 1521.65ZM233.948 1432.62C236.747 1435.24 239.626 1437.83 242.446 1440.5C235.274 1440.33 235.343 1436.1 233.948 1432.62ZM293.602 1515.13C289.915 1518.31 285.391 1519.76 281.19 1521.63C280.001 1522.16 278.847 1522.21 278.738 1521.46C278.551 1520.75 279.821 1520.37 280.593 1519.98C284.554 1518.04 288.82 1516.65 293.602 1515.13ZM251.992 1481.35C256.827 1479.2 260.214 1477.65 263.742 1476.17C264.872 1475.72 266.047 1475.71 266.452 1476.27C266.656 1476.65 266.026 1477.3 265.272 1477.54C261.323 1478.79 257.552 1481.63 251.992 1481.35ZM312.879 1550.17C313.042 1550.47 313.105 1550.77 313.268 1551.07C309.622 1552.69 305.997 1554.35 302.331 1555.93C301.142 1556.46 299.441 1557.5 298.952 1556.6C298.606 1555.96 299.829 1554.95 301.297 1554.39C305.223 1552.92 309.012 1551.56 312.879 1550.17ZM234.341 1445.69C238.091 1442.81 241.864 1441.78 245.534 1440.57C246.547 1440.26 247.799 1440.03 247.864 1440.51C247.97 1441.07 247.026 1442.05 245.735 1442.39C242.241 1443.39 238.657 1445.12 234.341 1445.69ZM304.391 1556.65C309.036 1558.69 310.536 1560.91 311.028 1565.45C307.021 1563.5 306.563 1560.11 304.391 1556.65ZM256.409 1445.57C251.294 1447.57 246.592 1450.87 241.02 1451.3C245.887 1448.48 251.066 1446.78 256.409 1445.57ZM272.711 1505.25C275.851 1506.33 277.779 1507.71 279.372 1509.38C279.676 1509.76 280.674 1509.97 279.567 1510.65C278.618 1511.25 277.327 1511.6 276.841 1510.88C275.426 1509.18 272.843 1508.04 272.711 1505.25ZM266.511 1488C270.729 1489.25 272.947 1491.53 271.639 1495.47C269.897 1492.98 268.175 1490.53 266.511 1488ZM271.398 1515.54C276.79 1513.33 280.683 1510.71 285.841 1510.61C280.978 1513.8 276.905 1514.63 271.398 1515.54ZM267.467 1481.23C266.348 1482.62 264.605 1483.39 263.139 1484.14C261.695 1484.92 259.638 1486.21 258.79 1485.19C257.76 1484.01 260.561 1483.37 261.908 1482.77C263.514 1482.11 265.292 1480.85 267.467 1481.23ZM219.005 1413.75C221.498 1412.36 223.045 1410.13 226.609 1409.99C227.087 1409.97 227.252 1410.45 227.573 1410.68C225.042 1412.18 222.528 1413.53 219.587 1414.1C219.428 1414.17 219.426 1413.98 219.005 1413.75Z" fill="white"/>
<path d="M403.223 1728.72C405.848 1728.3 405.763 1729.6 404.26 1730.45C399.828 1732.99 402.545 1733.64 403.649 1734.41C406.522 1736.45 407.668 1739.11 407.171 1742.55C406.858 1744.69 409.634 1745.28 410.865 1746.64C413.587 1749.49 415.259 1752.75 415.088 1756.8C415.092 1757.17 414.56 1757.64 413.876 1758.73C411.117 1756.18 410.323 1753.08 405.212 1752C405.711 1755.46 410.087 1756.64 409.832 1760.35C406.185 1758.52 403.947 1756.2 403.275 1753.33C402.541 1750.16 401.154 1747.42 398.438 1745.13C396.023 1743.03 395.39 1740.04 395.513 1737C395.666 1734.74 394.201 1735.49 391.624 1736.54C389.205 1737.53 386.726 1738.4 384.267 1739.3C384.28 1738.78 384.217 1738.49 384.355 1738.38C392.331 1734.04 391.979 1731.21 387.692 1729.1C386.729 1728.6 386.34 1727.7 387.267 1726.87C391.072 1723.54 388.688 1722.41 386.859 1721.03C386.818 1720.96 386.599 1720.91 386.558 1720.84C383.602 1713.38 377.138 1707.44 376.494 1698.45C373.957 1699.58 371.263 1700.78 368.647 1701.94C367.617 1702.4 366.233 1703.29 365.688 1702.65C365.183 1702.08 366.449 1701.33 367.278 1700.68C367.416 1700.57 367.654 1700.47 367.792 1700.36C374.228 1695.54 374.505 1695.32 369.597 1692.98C367.213 1691.85 367.381 1690.89 371.104 1689.05C373.203 1688.02 373.595 1687.47 372.35 1686.63C367.914 1683.7 365.993 1679.61 364.091 1675.37C362.432 1671.59 358.297 1668.86 358.283 1664.29C358.245 1662.77 356.044 1663.61 354.001 1664.38C351.443 1665.28 348.936 1667.19 346.303 1666.87C347.152 1664.62 352.967 1662.83 352.266 1660.81C351.689 1659.2 349.725 1658.12 348.118 1656.97C347.054 1656.27 347.022 1655.31 348.624 1654.27C351.805 1652.15 351.179 1651.36 349.651 1650.17C347.016 1648.03 344.916 1645.61 344.935 1642.2C344.943 1639.49 341.543 1638.29 340.342 1636.08C340.057 1635.55 339.989 1634.88 339.486 1634.5C337.918 1633.24 340.765 1629.78 337.439 1629.81C335.01 1629.87 331.208 1631.74 327.795 1632.89C328.008 1632.37 328.004 1632 328.339 1631.71C330.488 1629.87 334.97 1628.16 335.129 1626.45C335.249 1624.86 332.986 1623.77 331.36 1622.77C330.337 1622.15 329.332 1621.38 330.675 1620.41C334.863 1617.43 332.049 1616.96 330.818 1615.59C329.263 1613.81 327.549 1612.1 326.984 1609.79C326.376 1607.21 325.114 1604.88 322.78 1602.94C319.965 1600.64 318.949 1597.32 319.537 1593.14C315.654 1594.87 312.404 1596.31 309.155 1597.76C308.444 1596.63 310.328 1595.93 311.236 1595.24C316.821 1590.85 317.265 1589.67 313.293 1587.24C311.828 1586.35 310.744 1585.62 313.709 1583.65C316.515 1581.75 314.912 1580.97 313.769 1580.31C309.337 1577.76 307.62 1574.04 306.872 1569.76C306.42 1566.93 302.66 1565.62 302.088 1562.75C301.769 1561.07 301.154 1559.57 302.643 1557.41C302.816 1560.28 304.653 1562.4 306.591 1564.52C306.578 1561.77 306.507 1559.1 306.533 1556.24C309.682 1556.43 311.443 1557.14 311.834 1559.86C312.613 1565.11 314.699 1569.68 318.886 1573.42C320.255 1574.67 320.773 1576.36 320 1578.38C318.996 1581.06 321.102 1580.59 324.372 1579.19C327.8 1577.71 331.17 1576.3 334.766 1575.49C334.188 1577.15 331.731 1578.24 329.871 1579.35C324.373 1582.64 323.127 1585.06 327.088 1586.56C328.689 1587.15 329.37 1587.5 327.395 1588.94C326.073 1589.95 326.752 1590.11 327.374 1590.54C331.551 1593.34 333.012 1597.31 332.629 1602.05C332.598 1602.72 332.425 1603.31 333.206 1603.66C337.833 1605.85 339.251 1609.55 339.401 1613.83C339.462 1615.57 340.379 1615.63 343.47 1614.26C346.799 1612.77 350.331 1611.67 353.941 1610.34C353.27 1612.55 350.056 1613.7 347.783 1615.14C342.939 1618.18 341.93 1620.49 345.747 1621.54C347.705 1622.07 348.785 1622.43 346.677 1624.35C345.159 1625.72 346.064 1626.49 346.827 1626.99C350.238 1629.11 350.518 1632.53 350.698 1635.95C350.776 1637.55 352.497 1638.18 353.583 1639.09C356.32 1641.42 358.064 1644.1 357.39 1647.76C356.978 1649.9 359.179 1649.06 361.183 1648.4C364.932 1647.15 368.68 1645.72 372.727 1644.29C372.157 1646.69 368.647 1648.02 366.41 1649.15C361.301 1651.71 362.333 1653.07 363.884 1654.48C365.294 1655.81 368.09 1656.43 365.913 1659.31C365.403 1660 366.27 1660.88 366.953 1661.41C370.068 1663.71 371.518 1666.75 371.779 1670.32C371.901 1672.18 373.41 1673.51 374.9 1674.81C377.679 1677.4 378.357 1680.83 377.131 1684.92C374.31 1682.26 376.108 1677.58 372.133 1674.97C371.724 1679.11 373.036 1682.26 374.447 1685.41C375.06 1686.73 376.336 1685.09 377.328 1684.74C379.945 1685.39 382.307 1683.04 384.748 1682.28C387.03 1681.59 389.331 1680.75 391.731 1679.92C391.18 1682.17 387.79 1683.53 385.637 1685.01C381.212 1688.09 380.28 1690.19 384.115 1691.09C386.372 1691.63 387.692 1692.07 384.752 1694.45C382.621 1696.14 383.255 1697.49 384.678 1698.31C387.026 1699.73 388.56 1701.48 388.709 1703.93C388.993 1707.72 390.049 1711.12 393.781 1713.47C396.45 1715.13 398.07 1717.4 396.061 1720.95C401.484 1719.7 406.271 1716.92 411.619 1716.08C409.929 1718.04 407.653 1719.29 405.538 1720.65C399.569 1724.52 399.076 1726.7 403.76 1728.62C399.324 1730.78 394.12 1732.07 390.361 1735.85C393.415 1734.77 395.856 1734.01 398.175 1733.02C400.494 1732.04 403.807 1730.89 403.223 1728.72ZM328.254 1594.16C326.707 1601.47 327.918 1607.88 331.489 1613.38C329.464 1607.29 332.082 1599.59 328.254 1594.16ZM370.045 1682.01C368.05 1676.69 372.065 1669.21 366.415 1664.78C366.551 1671.2 366.066 1677.39 370.045 1682.01ZM350.381 1647.89C348.638 1645.4 348.959 1642.18 348.604 1639.16C348.212 1636.26 349.128 1632.87 346.547 1630.28C344.385 1637.73 346.995 1642.91 350.381 1647.89ZM309.217 1559.2C309.043 1564.69 307.698 1570.56 311.729 1574.55C311.269 1569.34 311.86 1563.72 309.217 1559.2ZM389.581 1713.71C390.137 1716.91 389.325 1720.68 392.763 1723.4C395.987 1718.09 392.972 1715.79 389.581 1713.71ZM399.741 1742.45C402.415 1746.29 405.842 1749.71 411.291 1752.33C410.511 1747.08 404.533 1745.12 399.741 1742.45ZM389.105 1727.35C395.334 1725.24 401.161 1722.74 405.557 1718.87C399.549 1721.22 392.976 1722.88 389.105 1727.35ZM325.367 1600.99C325.374 1598.28 325.382 1595.57 325.211 1592.9C325.164 1592.27 325.23 1591.12 323.602 1591.56C321.458 1592.14 321.749 1593.23 321.541 1594.11C320.939 1597.18 323.45 1598.91 325.367 1600.99ZM366.614 1647.9C361.303 1648.44 356.816 1651.42 352.172 1652.83C350.981 1653.17 349.445 1654.7 349.952 1655.45C350.461 1656.39 352.18 1655.2 353.31 1654.75C357.751 1652.96 361.825 1650.49 366.614 1647.9ZM398.684 1733.96C399.642 1739.18 400.715 1740.61 404.656 1742.08C405.303 1737.83 402.39 1735.72 398.684 1733.96ZM384.159 1701.52C384.75 1706.06 385.283 1710.68 385.874 1715.22C387.466 1709.99 386.795 1705.48 384.159 1701.52ZM363.68 1670.99C363.858 1667.5 365.603 1663.46 360.775 1661.08C360.329 1665.53 361.519 1668.45 363.68 1670.99ZM336.423 1616.32C338.503 1611.99 335.606 1609.54 333.839 1606.65C333.464 1610.31 334.319 1613.52 336.423 1616.32ZM382.855 1707.47C382.274 1703.85 381.773 1700.2 381.172 1696.55C376.932 1701.8 380.666 1704.34 382.855 1707.47ZM347.294 1614.23C342.263 1614.93 338.227 1617.29 334.027 1619.16C332.838 1619.68 332.09 1620.48 332.674 1621.02C333.179 1621.59 334.286 1620.91 335.099 1620.59C339.223 1618.94 343.041 1616.73 347.294 1614.23ZM351.336 1664.72C356.171 1662.57 359.6 1661.09 363.046 1659.47C364.135 1658.94 364.863 1658.1 364.616 1657.46C364.412 1657.09 363.457 1657.14 362.784 1657.53C359.283 1659.6 354.494 1660.57 351.336 1664.72ZM328.493 1578.99C328.33 1578.68 328.108 1578.46 327.945 1578.16C324.299 1579.78 320.633 1581.36 317.008 1583.02C315.819 1583.55 313.874 1584.14 314.362 1585.04C314.709 1585.68 316.339 1585.42 317.725 1584.71C321.407 1582.79 324.91 1580.91 328.493 1578.99ZM371.682 1699.19C376.491 1698.26 379.694 1696.19 382.998 1694.3C383.888 1693.76 384.855 1693 384.472 1692.66C384.049 1692.24 382.616 1692.32 381.529 1693.04C378.524 1694.93 374.817 1696.44 371.682 1699.19ZM317.642 1581.11C318.704 1576.53 317.679 1574.09 314.017 1570.97C313.268 1575.03 315.946 1577.43 317.642 1581.11ZM385.28 1683.44C380.409 1685.89 374.648 1687.24 370.868 1690.97C376.305 1689.2 380.954 1686.53 385.28 1683.44ZM343.14 1635.25C344.122 1632.34 344.095 1630.12 343.612 1627.95C343.467 1627.5 343.895 1626.66 342.625 1627.04C341.513 1627.35 340.426 1628.06 340.754 1628.85C341.376 1630.91 340.789 1633.45 343.14 1635.25ZM354.412 1650.25C355.901 1646.46 355.268 1643.48 351.028 1642C352.137 1644.78 353.225 1647.51 354.412 1650.25ZM333.357 1629.9C338.586 1627.39 343.252 1626.2 346.496 1622.56C340.738 1624.1 337.52 1626.51 333.357 1629.9ZM360.907 1653.7C359.014 1653.66 357.27 1654.43 355.723 1655.03C354.157 1655.59 351.774 1656.27 352.148 1657.5C352.543 1658.96 354.815 1657.34 356.162 1656.75C357.727 1656 359.912 1655.5 360.907 1653.7ZM390.189 1729.72C392.926 1728.78 395.817 1729.03 398.119 1726.56C398.434 1726.24 398.11 1725.82 398.106 1725.45C395.248 1726.35 392.531 1727.32 390.241 1729.09C390.082 1729.16 390.243 1729.27 390.189 1729.72Z" fill="white"/>
<path d="M594.927 2082.57C597.551 2082.15 597.467 2083.44 595.963 2084.3C591.531 2086.83 594.248 2087.49 595.352 2088.25C598.225 2090.29 599.372 2092.95 598.874 2096.39C598.561 2098.53 601.337 2099.12 602.568 2100.48C605.291 2103.33 606.962 2106.6 606.791 2110.64C606.795 2111.01 606.263 2111.48 605.579 2112.58C602.82 2110.03 602.027 2106.93 596.915 2105.84C597.414 2109.31 601.79 2110.48 601.535 2114.19C597.888 2112.36 595.65 2110.04 594.978 2107.17C594.244 2104 592.857 2101.26 590.141 2098.97C587.726 2096.87 587.093 2093.89 587.216 2090.85C587.369 2088.59 585.904 2089.33 583.327 2090.39C580.908 2091.37 578.429 2092.24 575.97 2093.15C575.983 2092.63 575.92 2092.33 576.058 2092.22C584.034 2087.88 583.682 2085.05 579.395 2082.95C578.433 2082.44 578.044 2081.54 578.97 2080.71C582.775 2077.38 580.391 2076.25 578.562 2074.87C578.522 2074.8 578.302 2074.76 578.261 2074.68C575.305 2067.23 568.841 2061.29 568.197 2052.29C565.661 2053.42 562.966 2054.62 560.35 2055.78C559.32 2056.24 557.936 2057.14 557.391 2056.49C556.886 2055.92 558.152 2055.17 558.981 2054.53C559.119 2054.42 559.357 2054.31 559.495 2054.2C565.932 2049.38 566.208 2049.17 561.3 2046.82C558.916 2045.69 559.084 2044.73 562.807 2042.89C564.906 2041.86 565.298 2041.31 564.053 2040.47C559.617 2037.54 557.696 2033.45 555.794 2029.22C554.136 2025.43 550 2022.7 549.986 2018.13C549.948 2016.61 547.747 2017.45 545.705 2018.22C543.146 2019.12 540.639 2021.03 538.006 2020.71C538.856 2018.47 544.67 2016.67 543.969 2014.65C543.393 2013.04 541.428 2011.96 539.821 2010.81C538.757 2010.12 538.726 2009.15 540.327 2008.11C543.509 2006 542.882 2005.2 541.354 2004.02C538.719 2001.88 536.619 1999.45 536.639 1996.04C536.646 1993.33 533.246 1992.14 532.045 1989.92C531.76 1989.39 531.692 1988.72 531.189 1988.34C529.621 1987.08 532.468 1983.62 529.142 1983.65C526.713 1983.71 522.911 1985.59 519.498 1986.73C519.711 1986.22 519.707 1985.85 520.042 1985.56C522.191 1983.71 526.673 1982 526.832 1980.3C526.952 1978.7 524.689 1977.61 523.064 1976.61C522.04 1975.99 521.035 1975.23 522.378 1974.26C526.566 1971.27 523.752 1970.8 522.521 1969.44C520.966 1967.65 519.253 1965.94 518.687 1963.63C518.079 1961.06 516.817 1958.73 514.483 1956.78C511.668 1954.49 510.652 1951.16 511.24 1946.98C507.357 1948.71 504.107 1950.15 500.858 1951.6C500.147 1950.47 502.031 1949.77 502.939 1949.09C508.524 1944.69 508.969 1943.51 504.996 1941.08C503.531 1940.19 502.447 1939.46 505.412 1937.49C508.218 1935.59 506.615 1934.81 505.472 1934.15C501.04 1931.6 499.323 1927.89 498.575 1923.6C498.123 1920.77 494.363 1919.46 493.791 1916.59C493.473 1914.91 492.857 1913.41 494.346 1911.26C494.519 1914.12 496.357 1916.24 498.294 1918.36C498.281 1915.62 498.21 1912.94 498.236 1910.09C501.385 1910.27 503.146 1910.98 503.537 1913.7C504.316 1918.95 506.402 1923.53 510.589 1927.26C511.958 1928.52 512.476 1930.2 511.703 1932.22C510.699 1934.91 512.805 1934.44 516.075 1933.03C519.504 1931.55 522.873 1930.14 526.469 1929.34C525.891 1930.99 523.434 1932.09 521.575 1933.19C516.076 1936.48 514.83 1938.9 518.791 1940.4C520.392 1941 521.073 1941.35 519.098 1942.78C517.776 1943.79 518.455 1943.96 519.077 1944.38C523.254 1947.19 524.715 1951.15 524.333 1955.9C524.301 1956.56 524.128 1957.15 524.909 1957.5C529.536 1959.69 530.955 1963.4 531.105 1967.67C531.165 1969.41 532.082 1969.47 535.173 1968.1C538.502 1966.62 542.034 1965.51 545.644 1964.19C544.973 1966.4 541.76 1967.55 539.486 1968.98C534.642 1972.02 533.633 1974.33 537.45 1975.39C539.408 1975.92 540.488 1976.27 538.38 1978.19C536.862 1979.57 537.768 1980.33 538.53 1980.83C541.942 1982.95 542.221 1986.37 542.401 1989.79C542.479 1991.39 544.2 1992.02 545.286 1992.94C548.023 1995.27 549.767 1997.94 549.094 2001.6C548.681 2003.74 550.882 2002.9 552.886 2002.24C556.636 2001 560.383 1999.56 564.43 1998.13C563.86 2000.53 560.351 2001.86 558.113 2003C553.004 2005.55 554.036 2006.91 555.587 2008.32C556.997 2009.65 559.793 2010.27 557.616 2013.15C557.106 2013.85 557.973 2014.72 558.656 2015.26C561.771 2017.56 563.221 2020.6 563.482 2024.16C563.604 2026.02 565.114 2027.36 566.603 2028.65C569.382 2031.24 570.06 2034.67 568.834 2038.76C566.014 2036.1 567.811 2031.43 563.836 2028.81C563.427 2032.96 564.739 2036.11 566.15 2039.26C566.764 2040.57 568.039 2038.93 569.031 2038.58C571.648 2039.24 574.01 2036.88 576.451 2036.12C578.734 2035.43 581.034 2034.59 583.435 2033.76C582.884 2036.01 579.494 2037.38 577.34 2038.85C572.915 2041.94 571.983 2044.03 575.818 2044.94C578.075 2045.47 579.395 2045.91 576.456 2048.29C574.324 2049.99 574.958 2051.34 576.382 2052.15C578.729 2053.58 580.263 2055.32 580.412 2057.77C580.696 2061.56 581.752 2064.97 585.484 2067.32C588.153 2068.97 589.773 2071.24 587.764 2074.79C593.187 2073.55 597.974 2070.76 603.322 2069.92C601.632 2071.89 599.357 2073.13 597.241 2074.49C591.272 2078.36 590.78 2080.54 595.463 2082.47C591.027 2084.63 585.824 2085.92 582.064 2089.69C585.118 2088.61 587.559 2087.85 589.878 2086.86C592.197 2085.88 595.51 2084.73 594.927 2082.57ZM519.957 1948C518.41 1955.31 519.621 1961.72 523.192 1967.22C521.168 1961.13 523.786 1953.43 519.957 1948ZM561.748 2035.85C559.753 2030.53 563.768 2023.06 558.119 2018.62C558.254 2025.04 557.77 2031.23 561.748 2035.85ZM542.084 2001.73C540.341 1999.24 540.662 1996.02 540.308 1993.01C539.915 1990.1 540.831 1986.71 538.251 1984.13C536.088 1991.57 538.699 1996.75 542.084 2001.73ZM500.92 1913.04C500.746 1918.53 499.401 1924.4 503.432 1928.39C502.972 1923.19 503.563 1917.56 500.92 1913.04ZM581.284 2067.55C581.84 2070.76 581.028 2074.52 584.466 2077.24C587.69 2071.93 584.675 2069.64 581.284 2067.55ZM591.444 2096.29C594.118 2100.14 597.545 2103.56 602.994 2106.17C602.215 2100.92 596.236 2098.96 591.444 2096.29ZM580.808 2081.2C587.038 2079.08 592.864 2076.58 597.26 2072.71C591.253 2075.06 584.679 2076.72 580.808 2081.2ZM517.07 1954.84C517.078 1952.13 517.085 1949.42 516.914 1946.74C516.867 1946.11 516.933 1944.96 515.305 1945.41C513.161 1945.99 513.452 1947.07 513.244 1947.95C512.643 1951.02 515.153 1952.75 517.07 1954.84ZM558.317 2001.74C553.006 2002.28 548.519 2005.26 543.875 2006.67C542.684 2007.02 541.148 2008.54 541.655 2009.29C542.164 2010.23 543.883 2009.05 545.013 2008.59C549.454 2006.8 553.528 2004.34 558.317 2001.74ZM590.387 2087.8C591.345 2093.02 592.418 2094.46 596.359 2095.92C597.006 2091.67 594.093 2089.56 590.387 2087.8ZM575.862 2055.37C576.453 2059.91 576.986 2064.52 577.577 2069.06C579.169 2063.83 578.498 2059.32 575.862 2055.37ZM555.383 2024.83C555.561 2021.34 557.306 2017.3 552.478 2014.93C552.032 2019.37 553.222 2022.29 555.383 2024.83ZM528.126 1970.16C530.206 1965.83 527.309 1963.39 525.542 1960.49C525.167 1964.15 526.022 1967.36 528.126 1970.16ZM574.558 2061.31C573.977 2057.7 573.476 2054.05 572.875 2050.4C568.635 2055.64 572.37 2058.18 574.558 2061.31ZM538.997 1968.08C533.966 1968.77 529.93 1971.13 525.73 1973C524.541 1973.53 523.793 1974.33 524.377 1974.86C524.882 1975.43 525.989 1974.75 526.802 1974.43C530.926 1972.79 534.744 1970.57 538.997 1968.08ZM543.04 2018.57C547.874 2016.41 551.303 2014.94 554.749 2013.31C555.839 2012.78 556.566 2011.94 556.319 2011.3C556.115 2010.93 555.16 2010.98 554.487 2011.37C550.986 2013.44 546.197 2014.41 543.04 2018.57ZM520.196 1932.83C520.033 1932.53 519.811 1932.3 519.648 1932C516.002 1933.62 512.336 1935.2 508.711 1936.86C507.522 1937.39 505.577 1937.98 506.065 1938.88C506.412 1939.52 508.042 1939.26 509.428 1938.55C513.11 1936.63 516.613 1934.75 520.196 1932.83ZM563.385 2053.03C568.195 2052.11 571.397 2050.03 574.701 2048.14C575.591 2047.6 576.558 2046.85 576.175 2046.5C575.752 2046.09 574.319 2046.16 573.232 2046.88C570.227 2048.78 566.52 2050.29 563.385 2053.03ZM509.345 1934.95C510.407 1930.37 509.382 1927.94 505.72 1924.81C504.971 1928.87 507.649 1931.27 509.345 1934.95ZM576.983 2037.28C572.112 2039.73 566.351 2041.08 562.571 2044.81C568.008 2043.05 572.657 2040.37 576.983 2037.28ZM534.843 1989.09C535.825 1986.19 535.799 1983.96 535.315 1981.79C535.17 1981.35 535.598 1980.5 534.328 1980.88C533.216 1981.19 532.129 1981.91 532.457 1982.69C533.079 1984.75 532.492 1987.3 534.843 1989.09ZM546.115 2004.09C547.604 2000.3 546.971 1997.32 542.731 1995.85C543.84 1998.62 544.928 2001.35 546.115 2004.09ZM525.06 1983.74C530.289 1981.23 534.956 1980.04 538.199 1976.41C532.441 1977.94 529.223 1980.35 525.06 1983.74ZM552.61 2007.54C550.717 2007.5 548.973 2008.28 547.427 2008.87C545.86 2009.43 543.478 2010.11 543.851 2011.35C544.246 2012.8 546.518 2011.19 547.865 2010.59C549.43 2009.85 551.615 2009.34 552.61 2007.54ZM581.892 2083.56C584.629 2082.62 587.521 2082.88 589.822 2080.41C590.137 2080.08 589.813 2079.66 589.809 2079.29C586.951 2080.19 584.234 2081.17 581.944 2082.93C581.786 2083 581.946 2083.12 581.892 2083.56Z" fill="white"/>
</svg>
