<svg width="141" height="705" viewBox="0 0 141 705" fill="none" xmlns="http://www.w3.org/2000/svg">
<path d="M227.849 398.827C219.289 405.487 211.522 411.514 203.596 417.54C202.169 418.65 200.743 419.919 199.158 420.87C192.341 425.469 188.854 430.385 191.549 439.742C193.768 447.672 192.341 456.394 190.439 464.799C187.744 476.534 190.281 481.451 200.901 487.001C212.314 493.027 223.728 499.054 234.982 505.239C236.567 506.19 239.262 507.142 238.311 509.838C237.518 511.899 235.141 511.265 233.397 511.106C222.776 510.631 212.473 508.728 202.169 506.825C195.987 505.556 192.817 506.825 193.451 513.961C193.768 519.511 193.293 525.062 192.5 530.613C189.964 546.63 196.146 561.854 196.938 577.554C197.255 586.435 201.377 589.924 208.668 592.779C222.142 598.171 235.299 604.038 248.614 609.748C251.151 610.858 254.797 611.809 253.845 615.615C252.894 619.263 249.407 617.677 247.029 617.36C232.446 615.774 217.704 614.03 203.12 611.809C198.999 611.175 197.255 611.809 196.78 616.091C195.353 626.399 191.866 636.073 186.952 645.113C185.05 648.602 186.159 650.98 187.744 653.835C196.78 670.169 205.023 686.98 212.156 704.266C212.948 706.327 215.802 709.34 212.79 711.085C209.937 712.671 208.51 708.865 206.925 707.12C197.889 696.812 188.854 686.504 179.185 675.086C176.331 681.27 172.685 685.869 167.93 689.358C164.601 691.737 165.711 695.702 166.345 698.874C168.247 707.913 166.82 715.684 157.943 720.442C155.249 721.869 155.724 724.406 155.724 726.626C155.724 733.446 155.883 740.423 155.724 747.243C155.724 749.463 155.566 752.476 152.554 752.952C149.542 753.428 149.859 750.256 149.225 748.511C146.055 741.216 143.043 734.08 139.873 726.785C139.714 726.468 139.714 726.151 139.556 726.151C132.264 721.076 124.655 716.477 118.632 709.658C117.205 708.23 113.876 710.768 112.608 713.464C107.535 723.93 98.0245 725.516 88.038 724.882C80.7463 724.406 79.7952 716.953 75.8323 712.195C66.0043 720.124 56.3349 728.054 46.3484 735.824C41.7515 739.313 36.8375 742.327 31.765 745.181C30.1798 746.133 27.9606 747.877 25.8999 745.974C23.2051 743.754 25.5829 741.375 26.534 739.631C31.765 728.847 39.5322 719.807 46.9824 710.609C53.9571 702.045 61.2489 693.64 68.5406 685.235C70.1258 683.491 72.345 681.905 71.8694 679.209C68.8576 664.302 78.3686 653.676 85.1848 642.417C87.2455 639.086 87.2455 637.342 85.9773 634.487C79.6367 620.056 73.1376 605.624 66.9555 591.034C58.8712 571.687 57.1274 551.229 58.8711 530.454C59.9807 518.401 60.7733 506.19 61.5659 494.138C61.7244 492.393 62.9926 490.331 60.6148 489.221C59.0297 488.428 57.7615 490.173 56.4934 490.966C41.5929 498.895 26.851 506.983 11.1579 513.168C9.73126 513.644 8.14608 513.961 6.08538 514.437C6.40241 510.631 8.78019 509.045 10.6824 506.983C25.7414 490.49 42.2269 475.741 59.6637 461.944C66.0043 457.028 67.748 450.209 64.4191 442.914C58.237 429.751 59.3467 416.113 61.8829 402.474C64.8947 386.298 66.6384 370.122 67.2725 353.788C67.431 349.347 72.5035 344.748 68.6991 341.101C65.6873 338.088 60.7733 337.295 56.6519 335.392C38.1056 326.669 20.8273 315.251 1.80543 307.639C0.695817 307.163 -0.255238 306.053 0.0617929 302.881C22.254 305.577 43.9706 309.859 65.5288 315.885C65.6873 312.397 63.7851 310.335 62.2 308.432C47.458 288.767 45.8728 266.089 47.6165 242.777C49.5187 218.037 53.7986 193.615 59.9807 169.668C61.2488 164.752 61.0903 160.47 58.8711 156.03C49.2016 137.792 42.7025 118.92 49.2017 96.8764C40.6418 99.5724 33.8257 101.634 26.851 103.854C25.2658 104.33 23.3636 106.075 21.9369 103.854C20.8273 101.951 22.254 100.365 23.3636 98.7796C27.6435 93.229 33.5086 89.2642 39.6907 86.5682C49.8357 81.9692 52.5305 74.04 53.4816 63.8904C56.6519 29.7941 62.2 -3.98493 77.259 -35.3852C79.1611 -39.5085 78.8441 -42.5217 75.8323 -46.1692C67.5894 -56.1602 59.6636 -66.3097 51.7379 -76.4593C48.7261 -80.424 45.3973 -84.23 43.9706 -89.3048C48.0921 -91.3665 50.7868 -88.3533 53.323 -86.6089C62.5169 -80.5826 71.5524 -74.0804 80.7463 -67.8955C88.9891 -62.345 96.4393 -56.0017 107.377 -55.3674C115.62 -54.8916 122.436 -49.3409 128.142 -43.3146C130.679 -40.6186 133.056 -37.9227 136.544 -33.9581C139.239 -42.5218 141.458 -49.6581 143.677 -56.6359C145.896 -63.6138 147.957 -70.7503 150.176 -77.728C150.969 -80.2654 152.237 -83.1201 155.249 -83.1201C158.736 -83.1201 158.736 -79.4725 159.053 -77.0937C160.797 -65.9926 158.419 -54.8915 157.309 -43.949C156.2 -33.7994 155.407 -24.9185 164.601 -16.9891C173.954 -8.90119 174.746 2.67559 171.893 14.4111C171.417 16.4726 170.149 19.0101 170.942 20.4374C176.014 31.2214 173.795 42.1639 172.368 53.1064C170.466 66.9034 180.453 79.1147 194.561 79.7491C206.766 80.2248 218.814 79.9076 231.019 80.0662C233.08 80.0662 235.299 79.9076 237.36 80.0662C240.213 80.2248 243.383 80.2249 243.7 84.3481C244.018 87.9957 241.164 88.63 238.628 89.2643C226.105 92.5947 213.741 95.925 201.218 98.9381C195.512 100.365 192.817 101.951 194.561 108.929C198.841 125.898 198.206 143.501 199.157 160.946C199.633 170.461 199.157 179.976 200.743 189.333C203.437 204.557 195.195 216.134 188.22 228.187C181.404 240.081 181.245 240.081 192.024 249.279C199.95 255.94 207.717 262.6 215.485 269.419C218.021 271.64 220.557 274.018 221.984 277.19C222.618 278.459 224.679 279.41 223.093 281.155C221.667 282.741 220.082 281.631 218.813 281.155C213.265 278.776 207.876 276.08 202.328 273.701C198.206 271.798 194.085 270.212 189.964 268.309C185.05 266.089 182.672 267.834 183.306 272.908C188.537 309.542 179.977 345.541 179.343 382.016C179.185 390.897 182.989 398.192 185.208 406.122C186.318 409.769 189.488 408.183 191.866 407.549C201.06 404.694 210.412 401.523 219.606 398.509C221.508 397.717 223.886 396.131 227.849 398.827ZM175.063 658.91C177.599 650.505 177.916 642.258 173.319 634.646C165.394 621.324 161.272 606.417 149.701 594.682C137.178 581.678 133.849 562.647 125.448 546.63C121.485 538.859 122.911 529.82 118.314 522.049C116.888 519.67 115.778 517.926 113.083 519.036C109.913 520.304 111.974 522.525 112.449 524.428C113.401 528.551 114.827 532.516 115.937 536.48C118.156 544.093 121.643 551.229 122.753 559C123.07 561.061 122.911 564.867 120.217 562.806C112.132 556.462 108.169 565.185 102.463 566.77C100.878 567.246 99.2926 568.832 100.878 571.052C102.463 573.431 103.256 572.48 104.999 571.052C107.06 569.308 110.23 568.991 112.766 568.039C123.228 563.757 126.399 565.185 130.996 576.127C135.751 587.228 140.031 598.488 144.628 609.748C152.237 627.827 160.797 645.747 158.578 666.205C158.102 670.169 157.151 671.914 153.347 673.5C142.726 677.623 131.947 680.636 121.009 683.808C117.205 684.918 114.669 687.297 115.778 691.261C116.729 695.068 120.058 694.909 123.387 694.116C144.47 688.724 165.552 683.332 173.002 658.751C173.478 675.403 163.016 685.077 149.701 692.689C166.028 686.98 176.014 676.83 175.063 658.91ZM154.139 163.959C153.188 163.8 152.237 163.642 151.286 163.483C150.652 170.461 147.798 177.439 153.029 183.941C157.309 189.333 158.261 195.993 159.212 202.337C159.687 206.46 159.212 210.901 161.114 215.341C164.918 211.694 163.967 207.729 164.126 203.764C164.76 192.663 162.382 182.038 158.736 171.571C163.808 174.901 164.443 181.721 170.149 186.32C165.711 171.888 157.785 160.946 150.176 149.527C140.665 135.413 127.191 124.471 118.314 109.881C114.669 103.854 111.974 97.035 106.743 92.1188C99.7681 85.4581 97.3904 77.2117 96.9148 68.0136C96.7563 65.0004 96.5978 61.9872 96.1223 57.071C92.6349 62.9388 97.232 68.3308 92.635 71.8198C90.7328 71.0268 90.8913 69.1238 91.0498 67.6965C92.635 58.9742 93.1105 50.7276 90.8913 41.8467C89.3061 34.8689 95.1712 27.0981 90.5742 19.803C97.5489 18.8515 95.3297 12.9838 96.4393 8.86047C96.5978 8.3847 95.4882 7.27459 95.1712 7.27459C90.7328 8.22613 90.7327 12.6667 88.9891 15.6798C88.355 16.7899 88.355 18.2172 88.038 19.486C82.49 33.283 80.2707 47.873 79.4781 62.4631C79.1611 68.4894 76.9419 71.9783 71.5523 74.5156C61.2488 79.5905 51.2624 85.1411 42.0684 92.4361C51.8964 86.5684 62.834 86.5684 73.4545 84.3481C81.2218 82.7623 84.8677 85.934 87.8795 92.2775C100.878 119.237 120.851 141.281 140.348 163.959C140.982 162.849 141.141 162.056 141.616 161.422C143.36 159.043 142.409 154.126 146.055 153.968C148.908 153.968 150.81 157.774 152.395 160.47C153.505 161.422 153.664 162.849 154.139 163.959ZM127.033 371.708C124.972 376.149 128.618 377.576 130.996 379.955C137.812 386.457 142.567 394.386 147.006 402.633C141.616 394.703 131.471 391.373 127.667 382.651C124.497 375.514 112.608 377.417 113.083 367.268C105.95 370.598 106.267 360.607 101.036 360.607C98.8171 360.607 101.67 356.008 98.3415 357.911C96.4394 359.021 96.5978 361.241 97.2319 362.827C97.866 364.413 99.2927 365.84 100.561 367.268C109.755 378.369 118.79 389.946 128.46 400.73C165.235 441.645 179.343 488.904 168.564 543.3C165.711 557.731 166.186 572.638 162.065 586.911C161.431 588.973 161.589 591.351 164.601 591.51C167.296 591.669 168.723 590.4 168.088 587.704C166.82 582.629 170.625 578.982 171.734 574.541C172.368 572.004 176.014 568.991 175.38 567.563C172.051 560.744 176.331 554.876 176.49 548.691C176.807 540.445 177.441 532.04 181.245 524.269C181.721 526.489 186.476 527.599 185.208 528.392C179.343 532.357 185.525 537.273 182.989 541.872C179.977 547.423 181.087 548.057 186.476 556.304C187.269 545.837 188.22 536.48 188.378 527.124C189.013 499.688 185.208 473.045 175.697 447.196C173.795 441.804 168.881 435.619 177.916 431.496C175.38 429.275 171.893 431.654 170.466 428.482C180.611 419.601 196.146 419.919 206.766 407.549C198.206 410.245 191.39 412.148 184.733 414.685C169.674 420.394 168.881 420.236 157.943 409.135C155.407 406.439 153.505 403.426 151.127 400.571C143.043 391.056 137.178 379.479 126.874 371.867C124.972 363.937 118.79 359.18 113.083 354.105C113.876 356.484 114.51 359.18 116.254 360.449C120.534 363.779 119.9 371.55 127.033 371.708ZM82.807 384.712C87.5625 367.585 94.2202 351.409 103.414 335.867C119.741 308.273 139.873 283.534 160.163 258.953C164.126 254.195 167.613 252.926 173.478 256.415C185.05 263.235 197.572 268.468 211.839 273.543C207.4 268.468 203.596 266.248 198.523 264.345C189.647 261.014 180.77 256.415 173.478 250.23C167.613 245.314 164.443 245.79 161.272 251.182C152.078 266.248 138.922 277.824 127.667 290.987C122.277 297.172 117.68 303.991 112.449 310.969C111.974 309.701 111.498 309.066 111.498 308.749C111.815 307.797 112.291 306.846 112.925 306.053C123.07 290.511 138.604 278.776 145.262 260.856C145.896 259.27 149.701 259.746 148.116 257.525C144.628 252.768 148.908 250.548 150.969 247.852C157.785 238.812 164.601 229.931 171.417 220.892C175.063 216.134 178.55 211.218 187.427 210.266C180.453 217.403 178.709 225.808 173.636 232.31C172.527 233.737 169.357 237.226 172.21 239.129C175.697 241.349 176.014 236.592 177.124 234.847C181.879 226.601 186.318 218.196 190.598 209.791C192.817 205.35 197.097 200.117 187.744 198.214C185.367 197.738 187.11 195.676 186.952 194.249C185.684 179.183 183.623 164.117 184.416 148.893C184.574 146.039 184.733 143.977 183.464 141.281C180.77 135.413 184.574 129.07 183.147 122.726C182.513 120.189 186.952 122.092 188.695 120.506C190.281 119.079 190.598 117.334 189.488 116.541C184.574 112.418 189.647 104.33 182.989 101.158C185.367 97.6694 180.77 90.2158 189.171 89.74C186.318 89.4228 183.623 89.2642 180.77 88.947C193.768 85.9339 206.608 93.229 219.289 87.837C218.496 85.2996 216.436 84.9825 213.741 85.2997C205.815 86.4098 197.889 84.6653 190.122 84.3481C185.525 84.1896 180.453 83.7138 176.173 81.9694C165.869 77.6875 160.638 67.062 152.078 60.4014C148.433 57.7054 147.323 51.9962 142.726 49.3002C141.458 48.5073 141.141 45.1769 138.763 46.9214C137.019 48.1901 138.129 50.2519 139.239 51.8378C143.518 58.8156 147.798 65.6348 152.237 72.6127C159.687 84.3481 169.674 95.4492 171.259 109.405C173.478 130.021 177.599 150.479 178.075 171.412C178.709 200.592 166.503 223.271 146.847 243.094C131.471 258.635 115.461 273.543 103.731 292.415C97.549 302.406 90.5742 311.762 85.0262 322.229C81.8559 328.097 77.576 331.586 69.8087 327.779C61.8829 323.815 52.689 324.132 43.8121 323.022C52.3719 328.89 61.7244 332.854 71.0768 336.819C73.6131 337.929 76.4664 338.246 75.1983 342.687C70.1258 361.559 68.065 380.906 65.5288 400.254C63.6266 415.478 60.1393 430.861 69.6502 445.293C73.7716 442.28 78.0515 438.315 76.6249 433.081C73.7716 422.932 73.6131 413.099 75.6738 402.791C75.8323 407.39 76.1493 412.148 76.3078 416.747C76.6248 416.747 76.7834 416.747 77.1004 416.747C78.527 403.108 79.7952 389.629 81.2219 375.99C81.5389 375.99 82.0145 375.99 82.3315 375.99C82.807 379.003 82.807 381.858 82.807 384.712ZM80.4293 165.069C79.3197 162.69 80.2707 161.422 80.9048 159.994C85.6603 149.686 90.7328 139.536 98.8171 131.29C101.353 128.753 102.78 126.215 99.7682 123.202C96.9149 120.347 93.903 122.409 92.1594 124.312C81.6973 135.73 70.6012 146.514 66.7969 162.69C64.1021 173.95 63.3095 185.685 59.9807 196.786C51.4209 224.856 51.738 253.561 54.5912 282.265C55.0668 286.547 54.9082 292.097 60.2978 295.269C59.3467 287.815 55.0667 281.472 56.3349 273.86C62.6755 290.353 65.6873 307.956 79.9538 320.96C83.9166 311.286 75.8323 306.37 74.0886 299.392C72.345 292.732 69.8087 284.168 71.3939 280.838C78.0515 289.877 79.9537 301.613 86.7699 311.604C88.9891 307.005 86.6114 304.15 85.5018 301.137C80.5878 287.974 70.9183 276.873 70.7598 261.649C70.6012 251.023 71.0769 240.556 72.028 230.09C75.3568 197.579 77.7345 164.593 102.146 138.902C104.365 136.523 106.584 133.669 104.365 129.387C96.9149 141.757 86.9284 151.906 80.4293 165.069ZM90.7328 458.455C92.0009 448.782 100.085 447.196 104.524 442.914C112.925 434.667 121.802 426.104 132.581 420.394C136.702 418.174 133.057 416.113 132.264 414.051C131.471 411.989 130.52 410.721 127.825 412.941C114.669 423.566 99.6096 431.178 85.0262 439.583C76.3078 444.658 69.0162 450.685 66.1629 460.834C65.3703 463.689 63.3096 465.592 60.7733 467.336C48.2506 476.217 37.63 487.16 26.3754 497.626C28.119 498.737 30.0212 499.054 31.1308 497.944C37.4715 491.759 46.3484 489.063 52.2135 482.243C55.3838 478.755 59.6637 479.389 63.3096 480.182C67.2725 481.133 66.0043 484.781 65.5288 487.953C64.5777 495.248 64.2607 502.701 63.4681 509.996C59.5052 543.458 63.7851 575.651 77.1004 606.576C83.441 621.166 90.2573 635.597 99.4512 649.077C101.512 646.54 100.719 644.795 99.9267 642.734C97.2319 635.756 91.5254 630.205 91.5254 622.117C91.5254 615.615 91.2083 608.796 82.9655 606.576C82.3314 606.417 82.0144 604.831 81.3803 604.038C77.1004 599.122 82.9655 588.656 72.1865 587.387C72.0279 587.387 72.028 585.484 72.028 584.374C72.5035 573.59 72.662 562.806 74.2471 551.863C76.6249 534.577 76.6249 516.815 76.6249 499.054C76.6249 487.477 78.8441 475.583 88.038 466.702C93.5861 461.151 99.1342 455.601 104.524 450.05C104.365 449.733 104.048 449.575 103.89 449.257C99.7682 452.271 95.9638 454.966 90.7328 458.455ZM127.984 635.756C127.35 636.073 126.716 636.232 126.24 636.707C124.497 638.135 122.912 639.403 120.851 637.5C117.839 634.804 121.96 634.17 122.594 632.901C125.289 626.241 129.252 620.532 136.544 617.994C140.507 616.567 140.19 613.237 138.129 610.223C135.751 606.576 134.166 610.223 132.581 611.333C128.777 613.712 125.289 616.567 121.643 619.104C111.974 625.448 107.218 634.329 106.267 646.064C105.158 661.447 99.9267 675.878 92.635 689.358C91.8425 690.944 91.3669 693.482 89.1477 692.847C86.2944 692.054 86.7699 689.2 87.721 687.455C89.7817 683.649 88.6721 679.843 86.6113 677.147C84.3921 673.975 85.5018 672.072 87.2454 670.011C87.8795 669.376 89.4646 668.425 88.5136 667.949C79.6367 664.46 88.1966 661.289 88.3551 657.8C88.6721 653.676 94.5372 650.029 89.6232 644.954C83.7581 654.469 76.7834 663.826 77.1004 674.61C77.4174 683.174 74.4057 688.407 69.3332 693.957C61.7244 702.204 54.1156 710.292 48.5676 720.283C55.8593 714.257 63.3095 708.072 71.5524 701.252C70.1257 706.644 65.5288 708.23 63.9436 712.988C65.5288 712.036 66.1628 711.719 66.7969 711.402C70.4427 709.023 72.8205 702.838 77.1004 703.631C81.6974 704.424 80.4293 711.243 83.1241 714.732C84.7092 716.794 85.5018 721.552 88.6721 719.331C90.8914 717.746 98.8171 718.856 94.8542 711.719C94.2201 710.609 94.0616 710.133 95.6468 709.658C102.304 707.913 102.304 701.57 104.682 696.653C105.792 694.116 104.207 692.372 104.841 689.993C106.584 683.015 110.706 676.196 109.438 668.425C108.962 665.887 110.23 663.826 111.974 663.35C116.254 662.081 112.925 667.473 115.778 668.266C115.937 656.055 121.326 646.064 127.984 635.756ZM55.3838 75.3086C72.662 69.9166 74.8812 66.9034 73.7716 50.8861C73.7716 50.0932 73.1375 49.1418 73.4545 48.666C78.0515 41.2125 76.1493 32.3315 78.6855 24.2436C80.9048 16.79 82.0144 9.01916 82.4899 1.24841C83.2825 -9.05976 90.8913 -17.3064 90.8913 -27.7731C90.8913 -29.8348 92.6349 -27.6146 92.9519 -28.4075C94.2201 -31.1035 97.866 -31.4207 98.9756 -34.9096C99.7682 -37.2883 104.048 -40.7773 104.524 -40.4601C108.328 -37.7641 112.608 -40.3015 116.254 -38.8742C118.314 -38.0813 119.107 -37.6055 120.534 -39.6672C122.277 -42.2046 120.217 -42.8389 118.949 -43.7904C112.291 -49.3409 104.841 -51.7197 96.1223 -49.4995C94.5371 -49.1823 91.0498 -45.6934 91.0498 -51.2439C86.6114 -50.7681 85.8187 -55.5258 83.441 -56.7945C77.2589 -60.1248 70.6013 -62.5037 66.9554 -68.8472C65.8458 -70.7502 64.4192 -71.0674 63.3096 -70.5916C60.2978 -69.1644 62.9925 -67.5785 63.7851 -66.4684C68.065 -60.7593 72.1864 -55.0502 77.1004 -49.8168C82.9655 -43.6319 86.7698 -37.7642 79.4781 -29.9934C77.5759 -28.0903 77.1004 -24.76 76.1493 -22.064C70.1257 -3.50934 67.748 15.8384 63.6265 34.8688C60.7733 48.1902 58.2371 61.5115 55.3838 75.3086ZM76.1493 249.755C75.5153 261.173 77.2589 271.164 81.8559 280.679C83.9166 284.961 85.8188 286.705 90.7328 284.168C96.2808 281.313 101.67 278.3 107.852 276.397C113.718 274.811 116.888 265.772 115.778 259.904C112.291 240.557 97.2319 231.676 82.49 222.319C78.21 219.623 78.2101 223.112 78.0515 225.649C77.7345 233.896 75.5153 242.142 76.1493 249.755ZM86.4529 571.052C93.4276 567.405 98.0246 562.964 98.9756 555.352C99.4512 551.229 100.719 546.471 103.573 543.775C108.804 538.701 107.06 533.309 106.267 527.917C105.158 521.097 103.573 514.437 105.633 507.617C106.109 506.19 105.633 505.08 104.682 504.129C100.085 499.054 95.6468 493.82 91.0499 488.587C90.0988 487.477 88.9891 485.732 87.2454 486.367C85.1847 487.001 86.1358 489.063 85.8188 490.49C79.9537 516.974 83.124 543.775 86.4529 571.052ZM124.497 63.5731C124.021 65.9519 123.704 68.4894 123.229 70.8683C122.753 73.0885 120.851 75.9429 124.18 76.8945C127.033 77.846 129.569 74.5157 129.886 72.7712C131.788 63.8903 134.483 55.0095 133.057 45.4943C131.313 33.9174 130.837 22.3404 127.191 10.9222C125.606 5.84741 126.399 5.68872 121.96 6.48168C121.485 6.64025 120.534 6.48175 120.534 6.32311C118.79 0.772578 115.62 -2.55762 109.279 -2.08185C108.804 -2.08185 107.377 -4.1435 107.535 -4.4607C111.34 -9.21833 105.158 -8.42554 104.048 -10.17C102.621 -12.3902 99.6097 -13.3416 97.3905 -10.8042C95.0127 -8.26679 97.866 -6.36377 99.4512 -5.0951C110.706 4.26159 115.62 16.1555 115.62 30.9042C115.461 48.9831 119.107 67.2207 110.547 84.5067C108.962 87.837 112.132 89.4229 114.352 91.8017C118.79 82.4451 119.741 72.6125 124.497 63.5731ZM167.296 261.173C166.503 271.323 165.711 281.472 165.077 291.622C164.284 304.309 165.235 317.154 162.857 329.524C160.638 340.784 167.137 353.471 157.626 363.462C159.846 373.135 154.932 380.589 150.335 388.201C149.225 390.104 149.067 391.532 150.81 393.117C152.395 394.545 153.505 393.752 154.932 392.483C158.26 389.629 161.906 387.091 164.918 383.919C167.296 381.541 169.832 378.845 169.357 375.197C166.82 354.739 169.198 334.599 170.942 314.141C171.417 325.876 171.576 337.453 174.112 351.092C174.429 347.92 174.746 346.969 174.746 345.858C175.063 339.039 174.588 332.379 173.478 325.559C172.051 316.044 177.758 307.163 177.282 297.489C176.807 286.23 177.124 274.811 177.124 263.552C176.49 263.552 175.856 263.552 175.063 263.552C173.478 270.212 175.539 277.507 172.051 283.851C173.002 275.921 169.991 268.785 167.296 261.173ZM94.5371 367.585C85.6602 388.36 88.8306 408.342 92.952 429.275C103.573 422.932 113.559 416.747 122.911 409.611C125.448 407.549 126.874 405.804 124.021 402.474C114.193 391.214 104.682 379.638 94.5371 367.585ZM97.5489 180.293C97.0734 189.492 107.852 194.566 102.463 203.764C97.8659 196.311 90.7328 192.029 87.2454 184.417C86.1358 181.879 83.9166 183.941 82.9655 185.368C81.0633 188.381 80.4293 191.395 83.1241 194.725C86.9284 199.324 90.5743 204.24 93.9031 209.315C100.561 219.306 108.962 226.601 121.168 229.138C126.399 230.248 130.52 231.2 131.947 223.746C133.849 213.438 136.068 202.971 139.873 193.298C142.409 186.954 143.994 181.086 144.153 172.998C138.763 179.976 137.495 186.954 135.276 193.456C132.264 201.861 129.886 210.425 127.191 218.989C125.448 224.698 122.753 224.063 119.9 219.781C118.473 217.561 117.363 215.183 116.095 212.962C110.23 202.337 104.365 192.029 97.5489 180.293ZM170.466 171.888C173.319 156.822 166.662 108.612 160.797 99.2552C155.566 108.612 150.335 117.969 145.104 127.325C144.153 129.07 142.567 130.814 144.47 133.034C154.932 144.294 163.174 157.298 170.466 171.888ZM91.2083 473.997C109.596 505.08 137.495 527.124 162.857 551.705C160.638 548.85 163.016 544.885 158.102 541.872C152.078 538.066 147.798 530.613 144.787 523.635C143.994 521.732 140.031 522.049 141.616 518.719C143.36 515.388 145.738 520.463 145.104 520.622C136.227 510.313 127.35 499.847 118.632 489.538C118.315 489.856 117.998 490.173 117.68 490.49C120.217 493.82 122.753 496.992 125.448 500.322C113.876 491.124 103.573 481.292 91.2083 473.997ZM159.687 464.323C154.456 477.327 149.542 488.904 141.933 499.054C140.824 500.64 139.714 502.067 141.616 503.811C149.542 511.106 157.626 518.401 166.186 526.172C168.564 504.604 167.93 484.622 159.687 464.323ZM156.992 332.854C152.554 316.678 154.298 299.234 147.006 281.631C144.787 288.767 147.798 293.525 147.64 298.441C147.64 299.71 150.493 301.295 147.323 302.247C144.153 303.357 143.36 302.088 143.043 299.075C142.884 296.855 138.922 297.331 139.08 294.476C137.495 295.11 139.239 297.965 135.751 298.441C133.532 298.599 135.117 303.04 135.751 305.419C141.141 324.766 145.104 344.273 144.47 364.572C144.311 369.329 143.519 374.087 143.043 378.686C142.884 381.382 142.884 385.029 145.738 385.347C149.067 385.822 149.067 381.699 149.225 379.479C149.701 372.343 150.176 365.206 149.542 358.07C148.432 343.797 150.969 329.365 148.75 315.092C149.701 320.167 150.652 325.242 151.761 331.427C152.395 328.89 152.712 327.462 153.029 325.718C155.09 328.097 152.871 331.268 156.992 332.854ZM130.203 306.053C123.545 312.238 120.058 319.374 115.461 325.559C106.743 337.136 106.743 337.295 115.778 347.762C117.363 349.506 118.156 353.946 122.119 351.409C127.033 348.237 136.068 347.92 136.068 341.894C136.227 330.317 133.691 318.423 130.203 306.053ZM62.9925 152.858C65.8458 148.734 65.5288 136.84 62.6755 133.827C57.603 128.277 57.1274 120.347 62.834 115.273C64.8947 113.37 64.4191 112.577 63.6265 111.149C62.834 109.405 61.7244 107.819 63.6265 106.392C64.1021 105.916 65.0532 105.44 65.5288 105.599C67.748 106.709 66.6384 108.929 66.6384 110.515C66.3214 120.03 67.1139 129.387 71.8694 137.951C74.5642 136.523 74.7226 134.779 73.9301 132.559C69.3331 120.506 68.382 108.136 71.0768 95.4493C71.3938 94.022 71.2353 93.0704 69.4916 92.4361C64.2606 90.6916 53.4816 96.5593 52.0549 101.951C47.775 120.506 53.3231 136.999 62.9925 152.858ZM138.288 437.046C130.362 440.059 124.18 444.5 117.998 448.782C103.731 458.614 103.731 458.773 113.876 472.57C114.986 473.997 116.095 475.583 117.046 477.169C118.79 480.023 120.692 479.706 122.594 477.327C131.471 465.592 137.178 452.588 138.288 437.046ZM149.384 32.1729C153.505 27.2567 160.797 8.38482 160.004 2.19988C159.212 -3.82642 153.981 -7.47394 149.384 -11.1215C148.591 -11.7558 147.64 -12.5488 147.323 -13.3417C144.945 -19.5266 140.982 -16.9892 137.336 -15.0861C136.227 -14.4518 136.861 -11.5971 134.325 -12.3901C128.777 -14.1345 129.094 -9.85279 129.411 -6.99824C130.045 -2.08204 133.373 -4.61927 136.068 -5.25361C145.421 -7.15668 151.444 -2.39918 151.444 7.11608C151.444 12.1909 149.859 16.9486 148.591 21.7062C147.64 25.1951 146.689 28.8426 149.384 32.1729ZM78.8441 131.448C83.4411 125.581 87.2454 120.823 91.2083 115.907C92.7935 113.845 92.952 111.784 91.6838 109.405C88.8306 104.171 86.1358 98.7795 83.441 93.3876C82.6484 91.9603 82.1729 90.3743 80.2707 90.5329C78.3685 90.8501 76.9419 91.8018 76.6249 94.022C74.7227 106.233 72.5035 118.444 78.8441 131.448ZM107.377 80.8591C112.291 72.6126 112.925 39.3093 108.645 25.1951C99.4511 39.6265 98.6586 71.6611 107.377 80.8591ZM130.52 492.076C137.178 480.34 146.213 469.874 151.286 457.345C155.09 447.83 152.712 439.742 143.677 433.24C139.397 452.905 141.775 473.838 130.52 492.076ZM148.908 189.016C146.372 203.13 143.836 217.086 141.458 231.2C140.982 233.896 142.25 235.799 144.945 236.433C147.64 237.226 148.591 235.006 149.701 233.261C158.261 218.671 156.834 203.923 148.908 189.016ZM156.834 584.057C165.077 566.771 159.529 552.815 139.873 540.128C142.25 556.145 148.75 569.942 156.834 584.057ZM124.18 708.548C129.094 721.552 143.043 720.759 155.724 716.477C162.699 714.098 163.333 708.706 159.053 696.019C155.09 701.728 161.906 712.512 150.335 713.939C150.81 711.878 152.871 710.133 151.286 707.437C149.701 708.389 148.432 709.182 147.164 710.133C146.689 710.609 146.372 711.402 146.055 712.195C143.043 718.538 142.567 718.539 137.019 712.512C140.348 712.671 144.628 713.939 143.201 708.548C142.092 704.583 139.873 703.948 136.068 705.534C132.422 706.962 128.46 707.437 124.18 708.548ZM150.652 -59.9662C150.176 -59.9662 149.542 -60.1249 149.067 -60.1249C146.847 -53.1471 144.945 -46.1692 142.567 -39.1914C140.19 -32.5306 140.824 -23.3326 134.959 -23.1741C140.665 -25.5529 148.274 -18.575 156.992 -15.4033C156.041 -17.3063 154.932 -18.8922 153.505 -19.8438C147.481 -24.1256 146.213 -29.0418 148.274 -36.4954C150.493 -44.1076 150.018 -52.1954 150.652 -59.9662ZM109.121 189.491C109.596 189.333 110.23 189.174 110.706 188.857C107.377 176.011 104.207 163.166 100.561 149.21C97.0734 154.602 91.2083 158.091 94.3786 164.435C98.9756 173.157 104.207 181.245 109.121 189.491ZM123.229 207.095C121.326 190.601 120.534 173.95 110.706 159.201C108.487 168.399 118.315 205.191 123.229 207.095ZM111.815 591.193C112.925 589.924 116.571 592.144 115.62 588.021C114.51 583.581 110.864 585.642 108.487 585.167C105.316 584.532 106.426 587.704 106.743 588.814C109.121 596.902 111.815 604.831 115.778 612.285C117.68 615.774 119.424 614.981 120.851 611.492C123.387 605.624 117.68 592.779 111.815 591.193ZM142.567 24.4021C144.628 16.9485 146.53 11.3979 145.896 5.53021C145.421 -0.0203921 141.616 -0.1789 137.336 0.614008C132.898 1.40698 131.154 3.31011 132.264 8.22631C133.532 14.4112 138.922 17.2657 142.567 24.4021ZM80.2707 196.945C79.1611 203.606 78.2101 208.839 77.259 213.914C77.1004 215.341 76.9419 218.196 78.6855 217.403C84.8677 214.39 89.3061 220.733 95.6467 219.623C91.8424 211.535 86.4528 204.874 80.2707 196.945ZM103.097 613.712C104.999 609.43 108.328 607.527 106.743 603.404C104.524 597.854 101.987 592.303 100.402 586.594C98.9756 581.043 95.4883 583.898 93.1106 584.374C88.8306 585.484 92.0009 588.497 92.7935 589.766C96.5979 597.061 99.7682 604.356 103.097 613.712ZM102.78 228.663C102.621 229.138 102.621 229.773 102.463 230.248C111.498 234.847 121.168 238.812 129.569 244.204C136.227 248.486 139.239 245.79 142.726 240.874C129.252 236.592 116.095 232.627 102.78 228.663ZM148.908 78.1632C142.726 88.1542 143.36 100.524 135.434 109.088C135.117 109.405 135.276 110.832 135.751 111.149C137.178 112.418 137.97 110.991 138.763 110.039C141.933 105.44 144.787 100.524 148.591 96.5593C155.883 88.7885 156.358 86.8856 148.908 78.1632ZM189.488 591.034C193.927 591.51 192.5 599.915 198.365 597.378C197.889 599.439 195.036 596.902 195.036 599.598C203.596 601.977 211.997 604.197 221.508 606.734C211.363 598.805 201.218 593.255 189.488 591.034ZM138.763 27.8909C138.129 28.2081 137.495 28.684 136.861 29.0012C147.164 42.9568 157.626 56.9126 167.93 70.8683C168.564 70.3925 169.198 69.9167 169.832 69.4409C160.638 54.8509 149.542 41.3708 138.763 27.8909ZM131.788 251.182C125.765 248.01 120.375 245.156 114.035 241.825C116.888 248.962 119.266 254.671 121.643 260.539C125.765 258.16 128.459 255.147 131.788 251.182ZM159.529 270.212C149.225 274.653 151.761 280.045 158.102 296.538C158.736 286.864 159.212 278.776 159.529 270.212ZM121.802 582.153C124.814 588.973 127.667 596.109 130.679 602.928C130.996 603.721 131.947 604.673 133.215 603.88C135.117 602.77 134.483 601.501 133.849 599.915C131.313 593.572 128.935 587.228 126.399 580.885C125.923 579.457 125.448 577.396 123.387 578.347C122.594 578.823 122.436 580.568 121.802 582.153ZM133.849 644.478C132.581 645.271 132.264 645.906 132.422 647.967C133.056 654.152 137.97 658.275 138.922 664.143C139.239 665.729 141.616 665.412 143.043 665.253C145.104 664.936 143.994 663.509 143.677 662.24C142.726 656.848 139.714 652.09 137.653 647.016C137.178 645.588 135.593 644.954 133.849 644.478ZM197.414 688.407C193.134 680.953 190.756 672.707 184.733 666.68C183.306 665.095 182.038 663.826 180.453 665.095C179.026 666.363 180.294 668.108 181.245 669.218C186.476 675.878 192.024 682.063 197.414 688.407ZM180.928 585.325C182.196 579.616 183.306 573.907 184.574 568.356C185.684 563.44 185.684 563.44 180.928 554.876C184.257 565.185 179.185 575.017 180.928 585.325ZM139.08 376.624C140.824 361.717 139.714 360.29 129.094 364.255C131.63 368.536 134.642 372.501 139.08 376.624ZM88.5136 596.426C91.5254 607.845 96.4394 618.153 104.207 627.192C98.9756 616.884 93.7446 606.734 88.5136 596.426ZM111.181 159.201C110.706 153.809 110.23 150.796 110.072 147.783C109.913 145.563 108.328 143.184 110.072 141.122C110.547 140.488 113.401 145.087 112.608 140.171C112.291 138.426 110.547 139.061 109.279 138.743C106.426 138.268 105.158 140.647 105.316 142.391C105.95 147.624 106.426 153.016 111.181 159.201ZM183.465 604.038C185.525 606.734 179.185 611.333 185.842 612.761C192.5 614.188 191.866 607.369 195.67 604.99C191.232 606.259 187.427 605.783 183.465 604.038ZM153.029 649.394C153.505 649.236 153.822 649.077 154.298 648.919C152.078 643.21 149.859 637.342 147.481 631.633C147.006 630.364 146.213 628.144 144.311 629.254C142.726 630.047 142.884 631.791 143.836 633.377C146.847 638.769 149.859 644.002 153.029 649.394ZM184.574 635.914C186.793 629.095 188.695 623.545 190.439 617.994C191.073 616.091 190.598 614.188 187.903 614.664C184.257 615.298 187.269 616.725 187.586 617.994C187.903 619.897 186.793 621.642 185.525 623.386C182.989 626.558 181.245 630.205 184.574 635.914ZM162.382 19.3274C168.247 8.70208 168.247 2.67565 162.54 -1.76478C162.699 5.53021 163.492 12.3495 162.382 19.3274ZM104.365 558.524C108.645 554.718 110.706 549.802 111.023 542.982C106.109 547.74 104.682 552.815 104.365 558.524ZM126.082 651.139C126.557 657.165 128.777 662.557 133.057 667.156C132.264 661.288 130.045 656.055 126.082 651.139Z" fill="#252525"/>
</svg>
