<svg width="1440" height="268" viewBox="0 0 1440 268" fill="none" xmlns="http://www.w3.org/2000/svg">
<g opacity="0.4">
<path d="M321.375 109.591C320.775 108.345 319.631 108.617 319.419 109.441C318.784 111.873 317.171 110.781 316.062 110.428C313.144 109.515 310.303 109.484 307.372 110.327C305.546 110.854 303.977 109.722 302.28 109.42C298.681 108.721 295.094 108.566 291.497 109.372C291.159 109.437 290.932 109.759 290.194 110.262C293.538 111.031 296.643 110.825 299.538 112.907C296.214 113.31 293.508 111.572 290.246 112.355C293.269 113.65 296.205 114.229 299.06 114.009C302.209 113.764 305.212 113.887 308.304 114.684C311.108 115.381 314.048 115.125 316.757 114.521C318.748 114.045 318.621 114.832 318.631 116.171C318.646 117.425 318.786 118.687 318.884 119.947C319.349 119.847 319.643 119.821 319.69 119.74C320.638 115.403 323.333 115.049 326.845 116.58C327.662 116.917 328.623 116.928 329.03 116.365C330.619 114.069 332.537 114.927 334.471 115.493C334.554 115.498 334.675 115.588 334.758 115.593C342.619 115.564 350.421 117.372 358.813 116.035C358.74 117.369 358.662 118.786 358.587 120.161C358.557 120.703 358.264 121.481 359.051 121.608C359.755 121.73 359.961 121.031 360.238 120.545C360.284 120.463 360.291 120.338 360.338 120.257C362.299 116.519 362.391 116.357 366.349 118.121C368.267 118.979 369.075 118.73 369.351 116.739C369.497 115.618 369.846 115.345 371.078 115.747C375.388 117.196 379.813 117.313 384.365 117.396C388.417 117.451 392.44 118.801 396.582 117.983C397.976 117.725 398.039 118.857 398.107 119.906C398.244 121.209 397.453 122.671 398.73 123.786C400.445 123.002 399.894 120.088 401.988 120.035C403.662 120.002 405.38 120.681 407.024 121.19C408.05 121.539 408.937 121.378 409.279 120.477C410.005 118.678 410.959 118.814 412.606 119.28C415.531 120.068 418.513 120.566 421.599 119.941C424.051 119.449 426.404 120.748 428.863 120.883C429.447 120.915 430.079 120.825 430.614 120.979C432.344 121.451 434.413 119.558 435.627 121.046C436.487 122.138 436.208 124.171 436.447 125.898C436.834 125.71 437.172 125.645 437.309 125.444C438.174 124.154 438.049 121.847 439.533 121.469C440.932 121.128 442.768 121.939 444.285 122.482C445.228 122.827 446.298 123.136 446.675 122.363C447.81 119.959 449.293 121.127 450.99 121.429C453.185 121.8 455.376 122.255 457.685 122.089C460.245 121.895 462.829 122.037 465.467 122.725C468.598 123.566 471.992 123.418 475.56 122.401C475.448 124.444 475.354 126.153 475.26 127.861C476.55 127.974 476.478 127.009 476.757 126.48C478.652 123.198 479.552 122.788 483.241 124.119C484.594 124.611 485.662 124.963 486.339 123.286C487.012 121.692 488.318 122.266 489.342 122.656C493.314 124.17 497.322 124.265 501.485 123.824C504.219 123.515 506.815 124.953 509.631 124.69C511.27 124.529 512.858 124.532 514.254 123.48C511.596 123.92 508.986 123.484 506.337 123.004C508.831 122.514 511.28 122.063 513.859 121.536C512.513 120.166 511.211 119.509 508.602 119.826C503.552 120.426 498.625 120.323 493.674 119.132C492.023 118.748 490.305 118.821 488.761 119.531C486.703 120.463 486.341 119.44 486.393 117.729C486.45 115.934 486.462 114.179 485.848 112.431C484.563 112.988 484.492 114.28 484.185 115.308C483.265 118.351 481.539 119.343 478.694 117.85C477.557 117.244 476.985 117.003 476.421 118.143C476.002 118.914 475.599 118.641 474.983 118.44C470.877 117.086 466.735 117.151 462.581 118.177C461.989 118.312 461.519 118.495 460.907 118.211C457.195 116.544 453.305 116.581 449.378 117.285C447.774 117.574 447.378 117.176 447.467 115.55C447.563 113.8 447.242 112.026 447.093 110.179C445.34 110.877 445.501 112.516 445.055 113.787C444.112 116.495 442.393 117.362 440.009 115.852C438.797 115.074 438.068 114.658 437.119 115.944C436.441 116.868 435.411 116.602 434.672 116.353C431.474 115.216 428.27 115.709 425.105 116.246C423.628 116.499 422.409 115.847 421.173 115.528C418.039 114.729 414.962 114.435 411.899 115.395C410.112 115.966 410.049 114.834 409.895 113.822C409.623 111.926 409.52 109.997 409.299 107.937C407.338 108.624 407.448 110.427 407.257 111.629C406.855 114.366 405.237 114.152 403.38 113.715C401.645 113.328 400.035 112.194 398.239 113.684C397.802 114.036 396.686 113.808 395.945 113.6C392.695 112.627 389.398 112.53 386.067 113.058C384.337 113.339 382.563 112.907 380.831 112.478C377.445 111.707 374.083 112.024 370.836 113.309C374.305 114.084 377.865 112.44 381.723 113.739C378.119 114.67 374.775 114.654 371.392 114.593C369.973 114.557 370.982 113.693 370.926 113.188C369.353 112.14 370.605 110.662 370.379 109.438C370.149 108.296 370.047 107.12 369.905 105.9C368.071 106.552 368.1 108.309 367.573 109.534C366.431 112.064 364.882 112.857 362.626 111.311C361.296 110.402 360.405 109.893 359.348 111.633C358.61 112.888 357.149 112.85 355.88 112.362C353.707 111.574 351.554 111.205 349.276 111.582C345.733 112.14 342.256 112.283 338.728 111.045C336.227 110.155 333.569 109.842 331.101 111.379C330.201 108.737 330.931 106.102 329.691 103.567C328.543 104.675 328.266 105.914 327.825 107.102C326.553 110.46 324.764 111.072 321.264 109.334C320.967 111.7 321.747 114.251 319.736 116.607C319.571 115.052 319.345 113.827 319.37 112.616C319.395 111.405 319.194 109.722 321.375 109.591ZM471.373 118.702C465.327 120.711 459.064 121.329 452.742 120.731C459.024 120.532 465.017 117.977 471.373 118.702ZM376.126 115.94C381.69 115.869 386.962 112.731 393.097 114.447C387.226 115.546 381.802 116.879 376.126 115.94ZM414.402 118.543C417.31 118.87 420.109 118.145 422.973 117.759C425.751 117.41 428.483 116.389 431.79 117.073C425.852 119.38 420.179 119.153 414.402 118.543ZM510.175 120.873C505.267 121.942 500.452 123.601 495.327 122.525C500.217 121.79 505.094 120.511 510.175 120.873ZM340.086 112.959C336.975 113.29 333.866 114.331 330.119 113.289C333.72 110.895 336.93 111.824 340.086 112.959ZM310.243 113.62C305.755 113.123 301.374 112.213 296.966 110.257C302.016 109.657 306.028 111.967 310.243 113.62ZM327.9 115.634C327.488 112.476 327.571 109.429 329.431 106.772C329.554 109.872 330.505 113.102 327.9 115.634ZM466.26 121.222C468.712 120.73 471.164 120.237 473.653 119.83C474.243 119.737 475.259 119.5 475.466 120.306C475.742 121.366 474.652 121.432 473.927 121.685C471.374 122.506 468.868 121.7 466.26 121.222ZM408.319 111.311C409.814 113.776 408.797 116.312 409.255 118.637C409.389 119.229 408.584 120.188 407.711 120.099C406.669 120.041 407.099 119.062 407.09 118.476C407.049 116.174 407.758 113.914 408.319 111.311ZM318.328 112.559C313.241 113.074 311.539 112.855 308.737 111.363C312.348 110.307 315.349 111.225 318.328 112.559ZM353.16 113.175C348.823 113.731 344.443 114.327 340.106 114.883C344.252 113.229 348.586 112.715 353.16 113.175ZM388.496 116.786C391.586 116.078 394.595 114.571 398.556 116.293C394.697 117.294 391.603 117.291 388.496 116.786ZM448.235 119.062C451.381 117.354 454.679 118.204 457.967 118.468C454.786 119.296 451.556 119.495 448.235 119.062ZM348.261 114.829C351.753 114.435 355.246 114 358.779 113.608C355.614 116.445 351.918 115.238 348.261 114.829ZM446.056 113.842C447.305 116.21 446.681 118.433 446.56 120.642C446.526 121.268 446.082 121.745 445.38 121.581C444.676 121.459 444.877 120.843 444.858 120.424C444.808 118.289 445.383 116.188 446.056 113.842ZM398.791 121.156C398.93 118.613 398.987 116.819 399.171 114.989C399.245 114.408 399.731 113.933 400.4 113.928C400.816 113.951 401.127 114.386 401.023 114.757C400.457 116.69 401.376 118.998 398.791 121.156ZM485.033 115.856C485.366 115.875 485.656 115.932 485.989 115.951C485.884 117.868 485.82 119.787 485.673 121.702C485.639 122.328 485.836 123.3 484.836 123.245C484.128 123.206 483.752 122.433 483.876 121.687C484.236 119.701 484.633 117.799 485.033 115.856ZM359.943 118.313C358.982 116.002 359.667 114.201 360.142 112.387C360.295 111.894 360.619 111.327 361.073 111.435C361.61 111.548 362.076 112.201 361.833 112.815C361.239 114.496 361.259 116.42 359.943 118.313ZM487.171 121.074C490.921 119.775 493.512 119.792 497.718 120.859C494.315 121.926 491.137 121.166 487.171 121.074ZM369.127 109.411C368.732 112.023 369.665 114.833 367.696 117.191C367.261 114.45 367.945 111.896 369.127 109.411ZM428.564 119.487C430.832 118.525 432.86 118.135 435.002 117.96C435.463 117.943 436.067 117.6 436.199 118.234C436.336 118.785 436.094 119.399 435.258 119.395C433.162 119.489 431.074 120.21 428.564 119.487ZM410.756 117.172C413.631 115.825 416.572 115.568 419.493 117.192C416.566 117.198 413.681 117.207 410.756 117.172ZM437.073 122.881C437.393 120.097 436.725 117.803 438.805 115.702C439.568 118.545 438.588 120.414 437.073 122.881ZM405.196 114.902C405.944 115.737 405.894 116.654 405.934 117.451C406.015 118.25 406.285 119.435 405.027 119.491C403.559 119.578 404.174 118.274 404.213 117.566C404.301 116.734 403.941 115.669 405.196 114.902ZM325.353 115.578C325.178 114.189 323.867 112.946 325.243 111.475C325.422 111.276 325.919 111.345 326.258 111.28C326.513 112.715 326.646 114.102 325.904 115.441C325.899 115.524 325.735 115.473 325.353 115.578Z" fill="white"/>
<path d="M-70.3897 88.0866C-71.0035 86.8405 -72.1697 87.1109 -72.3855 87.9352C-73.0307 90.3663 -74.6763 89.2726 -75.8082 88.9179C-78.7855 88.0019 -81.6833 87.9683 -84.6717 88.8076C-86.5341 89.3324 -88.1349 88.1994 -89.8665 87.8954C-93.5378 87.1922 -97.1963 87.0332 -100.865 87.8351C-101.21 87.8998 -101.44 88.2216 -102.193 88.7238C-98.7813 89.4963 -95.6147 89.2939 -92.6589 91.3791C-96.0495 91.7783 -98.811 90.0381 -102.137 90.8171C-99.053 92.1151 -96.0574 92.6976 -93.1458 92.4811C-89.9344 92.2394 -86.8711 92.3657 -83.7169 93.1659C-80.8557 93.8664 -77.8569 93.613 -75.0948 93.0121C-73.0646 92.5383 -73.1931 93.3255 -73.1813 94.6639C-73.1649 95.919 -73.021 97.181 -72.9195 98.4408C-72.445 98.3414 -72.1451 98.316 -72.098 98.235C-71.1351 93.8983 -68.3868 93.5475 -64.8038 95.082C-63.9695 95.4204 -62.9894 95.4324 -62.5748 94.8699C-60.9564 92.5758 -58.9994 93.4357 -57.0264 94.0039C-56.9414 94.0086 -56.8184 94.0989 -56.7334 94.1036C-48.7156 94.0838 -40.756 95.9003 -32.1974 94.5725C-32.2706 95.9062 -32.3484 97.3233 -32.4239 98.6987C-32.4536 99.2406 -32.7521 100.018 -31.949 100.146C-31.2308 100.269 -31.0219 99.57 -30.7393 99.0838C-30.6922 99.0028 -30.6854 98.8778 -30.6383 98.7967C-28.6422 95.0602 -28.548 94.8982 -24.5088 96.6667C-22.5519 97.5266 -21.7281 97.2792 -21.4482 95.2879C-21.3014 94.1672 -20.9453 93.8941 -19.6882 94.2976C-15.2906 95.7513 -10.7772 95.8736 -6.13409 95.9613C-2.0011 96.0209 2.10349 97.375 6.32704 96.5617C7.7483 96.3052 7.81407 97.4376 7.88442 98.4866C8.02606 99.7903 7.22097 101.251 8.52422 102.368C10.2728 101.586 9.70794 98.6703 11.8428 98.6202C13.5502 98.5885 15.3038 99.2701 16.9814 99.7802C18.0283 100.13 18.9325 99.9709 19.2804 99.0703C20.0188 97.2714 20.992 97.4084 22.672 97.8769C25.6562 98.6678 28.6989 99.1692 31.8458 98.5477C34.346 98.0578 36.7477 99.3602 39.256 99.4979C39.8512 99.5305 40.4958 99.4405 41.0416 99.5959C42.8066 100.069 44.9146 98.1781 46.1547 99.6675C47.0328 100.761 46.7506 102.794 46.997 104.521C47.391 104.334 47.7357 104.269 47.8747 104.068C48.7557 102.778 48.6264 100.472 50.1396 100.095C51.5654 99.7555 53.4396 100.569 54.9875 101.114C55.9493 101.459 57.0409 101.77 57.4245 100.997C58.5798 98.5937 60.0933 99.7637 61.825 100.068C64.0645 100.442 66.2994 100.899 68.6537 100.735C71.2653 100.544 73.9012 100.689 76.5923 101.38C79.7868 102.224 83.2487 102.08 86.8862 101.067C86.7741 103.109 86.6803 104.818 86.5865 106.527C87.9022 106.641 87.8272 105.676 88.1121 105.148C90.0404 101.867 90.9584 101.458 94.7229 102.793C96.1029 103.287 97.1923 103.64 97.8813 101.963C98.5657 100.371 99.8987 100.945 100.943 101.337C104.996 102.856 109.084 102.955 113.33 102.519C116.118 102.212 118.768 103.653 121.64 103.393C123.311 103.234 124.932 103.239 126.354 102.188C123.643 102.625 120.981 102.186 118.278 101.703C120.821 101.216 123.319 100.768 125.949 100.243C124.574 98.8718 123.246 98.2136 120.585 98.5274C115.435 99.1226 110.409 99.014 105.358 97.817C103.673 97.4319 101.921 97.5029 100.347 98.2108C98.2494 99.1408 97.8792 98.1172 97.9305 96.406C97.9863 94.6114 97.9974 92.8562 97.3685 91.1077C96.0587 91.6629 95.9878 92.9549 95.6755 93.9829C94.741 97.0252 92.9809 98.0155 90.0782 96.5184C88.9175 95.9112 88.3338 95.6702 87.7596 96.8092C87.3335 97.5801 86.9221 97.3067 86.2935 97.105C82.1039 95.7463 77.879 95.807 73.644 96.8287C73.0397 96.9627 72.5606 97.1455 71.9366 96.8604C68.1479 95.1892 64.1804 95.2223 60.1763 95.9222C58.5402 96.2087 58.1356 95.8102 58.2248 94.1847C58.3209 92.4342 57.9919 90.6603 57.8374 88.8124C56.0509 89.5086 56.2168 91.1481 55.7632 92.4192C54.8045 95.1257 53.0513 95.991 50.6185 94.4779C49.382 93.6993 48.6373 93.2822 47.6713 94.5669C46.981 95.4906 45.9295 95.2238 45.1758 94.9734C41.9123 93.8328 38.6446 94.3223 35.4172 94.8558C33.9109 95.1076 32.6675 94.4541 31.4058 94.134C28.2091 93.3314 25.0699 93.0337 21.9472 93.991C20.125 94.5599 20.0592 93.4276 19.9016 92.4156C19.6219 90.519 19.5146 88.5901 19.2865 86.5291C17.2874 87.2137 17.4016 89.0176 17.2077 90.2193C16.8017 92.9561 15.1505 92.7401 13.2557 92.3016C11.4861 91.9118 9.84274 90.7765 8.01273 92.2647C7.567 92.6164 6.42828 92.3867 5.67218 92.178C2.35705 91.2017 -1.00611 91.1007 -4.4036 91.6249C-6.16725 91.9044 -7.97705 91.4706 -9.74433 91.0391C-13.1984 90.2643 -16.627 90.5777 -19.9381 91.8592C-16.399 92.6387 -12.7697 90.9985 -8.83286 92.3015C-12.5083 93.2285 -15.9186 93.2085 -19.369 93.1446C-20.8168 93.1069 -19.7887 92.2436 -19.8462 91.7388C-21.4516 90.6892 -20.1766 89.2124 -20.4079 87.9873C-20.6437 86.8456 -20.7497 85.6693 -20.8959 84.4489C-22.7652 85.0988 -22.7337 86.8563 -23.27 88.081C-24.4322 90.6092 -26.0107 91.4004 -28.3137 89.8526C-29.6709 88.942 -30.5811 88.4322 -31.6573 90.1708C-32.4084 91.4255 -33.8987 91.3855 -35.1937 90.8964C-37.4104 90.1058 -39.6073 89.7344 -41.9306 90.1085C-45.5429 90.6627 -49.0898 90.8025 -52.6888 89.5598C-55.241 88.6672 -57.9527 88.3512 -60.4675 89.8853C-61.3885 87.2429 -60.6469 84.608 -61.9149 82.072C-63.0843 83.1783 -63.3655 84.417 -63.8145 85.6047C-65.1075 88.9618 -66.9319 89.5723 -70.5035 87.8295C-70.8039 90.1959 -70.0059 92.748 -72.054 95.1021C-72.2244 93.5459 -72.4557 92.3209 -72.4319 91.1098C-72.408 89.8988 -72.6141 88.2153 -70.3897 88.0866ZM82.6121 97.3628C76.4471 99.3654 70.0599 99.9764 63.6115 99.3716C70.0183 99.1798 76.1281 96.6306 82.6121 97.3628ZM-14.5394 94.4966C-8.8645 94.4318 -3.49022 91.2988 2.76885 93.0219C-3.21836 94.1147 -8.74936 95.4415 -14.5394 94.4966ZM24.5033 97.1413C27.4702 97.4714 30.3241 96.7501 33.2448 96.367C36.0782 96.0208 38.8631 95.0032 42.2368 95.69C36.1832 97.9914 30.3968 97.7574 24.5033 97.1413ZM122.19 99.577C117.185 100.64 112.276 102.294 107.048 101.212C112.034 100.483 117.008 99.209 122.19 99.577ZM-51.3015 91.4754C-54.475 91.8029 -57.6449 92.8412 -61.4679 91.7953C-57.7974 89.4048 -54.5225 90.3371 -51.3015 91.4754ZM-81.7397 92.1039C-86.3175 91.6018 -90.7874 90.6876 -95.2851 88.7267C-90.1353 88.1314 -86.0409 90.4464 -81.7397 92.1039ZM-63.7285 94.1377C-64.1521 90.979 -64.0702 87.9318 -62.1761 85.2766C-62.0478 88.3772 -61.0738 91.6079 -63.7285 94.1377ZM77.3997 99.8776C79.8998 99.3877 82.4 98.8979 84.938 98.4937C85.5401 98.4014 86.5764 98.1656 86.788 98.9715C87.0709 100.032 85.9587 100.097 85.22 100.349C82.6165 101.167 80.0598 100.358 77.3997 99.8776ZM18.2912 89.9025C19.8188 92.3692 18.7842 94.9044 19.2535 97.2294C19.3916 97.8222 18.5714 98.7805 17.6809 98.6899C16.6181 98.6315 17.0556 97.6522 17.0451 97.0664C17.0009 94.7647 17.7219 92.505 18.2912 89.9025ZM-73.4947 91.0515C-78.6823 91.561 -80.4186 91.3403 -83.2788 89.8456C-79.5965 88.7935 -76.5342 89.7141 -73.4947 91.0515ZM-37.9672 91.7056C-42.3896 92.2572 -46.8568 92.8481 -51.2792 93.3996C-47.0524 91.7504 -42.6323 91.2406 -37.9672 91.7056ZM-1.92198 95.3564C1.22958 94.6515 4.29706 93.1476 8.33855 94.8745C4.40344 95.8708 1.24827 95.8648 -1.92198 95.3564ZM59.0128 97.6978C62.2192 95.9926 65.5837 96.8461 68.9377 97.1138C65.6943 97.9391 62.4002 98.1345 59.0128 97.6978ZM-42.9616 93.3545C-39.4009 92.9647 -35.8379 92.5332 -32.2347 92.1457C-35.4604 94.9786 -39.2318 93.7683 -42.9616 93.3545ZM56.7836 92.4752C58.0607 94.8446 57.427 97.0673 57.3057 99.2763C57.2714 99.9015 56.8188 100.378 56.1029 100.214C55.3848 100.091 55.5892 99.4747 55.5695 99.0556C55.5161 96.9206 56.1005 94.8206 56.7836 92.4752ZM8.58333 99.7373C8.72288 97.1948 8.77874 95.4003 8.96443 93.571C9.03897 92.9899 9.53409 92.5154 10.2166 92.511C10.6417 92.5344 10.959 92.9698 10.8534 93.3403C10.2782 95.2736 11.2175 97.5826 8.58333 99.7373ZM96.5409 94.5321C96.881 94.5507 97.1763 94.6088 97.5164 94.6274C97.4112 96.5447 97.3484 98.4643 97.2007 100.379C97.1664 101.004 97.3688 101.977 96.3485 101.921C95.6258 101.881 95.2418 101.108 95.368 100.362C95.7329 98.3756 96.1357 96.4747 96.5409 94.5321ZM-31.0432 96.8515C-32.025 94.5401 -31.3292 92.7389 -30.8459 90.926C-30.6909 90.4328 -30.3613 89.8657 -29.8982 89.9747C-29.3501 90.0884 -28.8742 90.7416 -29.1211 91.3551C-29.7251 93.036 -29.7028 94.9602 -31.0432 96.8515ZM98.7276 99.7523C102.551 98.4572 105.194 98.4769 109.485 99.5485C106.015 100.612 102.773 99.849 98.7276 99.7523ZM-21.6856 87.959C-22.0848 90.5708 -21.1304 93.3823 -23.136 95.7387C-23.5825 92.9969 -22.888 90.4431 -21.6856 87.959ZM38.9489 98.1015C41.2616 97.1415 43.3297 96.7533 45.5139 96.5806C45.9839 96.5646 46.5997 96.2221 46.7354 96.8567C46.8757 97.4078 46.6289 98.0213 45.7763 98.0164C43.6392 98.1081 41.5102 98.8273 38.9489 98.1015ZM20.7837 95.7666C23.7144 94.4225 26.7133 94.169 29.6942 95.7958C26.7091 95.7992 23.7665 95.8049 20.7837 95.7666ZM47.6316 101.504C47.955 98.7212 47.2707 96.4262 49.3901 94.3268C50.1722 97.1707 49.1741 99.039 47.6316 101.504ZM15.1093 93.4903C15.8736 94.3265 15.8233 95.2435 15.8648 96.0401C15.9489 96.839 16.225 98.0247 14.9427 98.0797C13.4455 98.1647 14.0714 96.8613 14.1103 96.1528C14.1986 95.3215 13.8307 94.2562 15.1093 93.4903ZM-66.3265 94.0787C-66.506 92.6893 -67.8449 91.4452 -66.4424 89.9754C-66.2609 89.7764 -65.753 89.846 -65.4083 89.7814C-65.146 91.2171 -65.0089 92.6042 -65.7646 93.9423C-65.7692 94.0257 -65.937 93.9746 -66.3265 94.0787Z" fill="white"/>
<path d="M295.773 108.187C296.519 107.015 297.649 107.412 297.773 108.255C298.148 110.742 299.904 109.835 301.067 109.606C304.127 109.021 307.011 109.305 309.89 110.467C311.684 111.192 313.399 110.241 315.153 110.128C318.879 109.831 322.533 110.074 326.092 111.272C326.428 111.374 326.622 111.719 327.315 112.301C323.839 112.695 320.714 112.148 317.548 113.897C320.874 114.665 323.81 113.237 327.03 114.376C323.823 115.328 320.781 115.579 317.911 115.046C314.745 114.454 311.687 114.244 308.464 114.694C305.543 115.077 302.59 114.497 299.91 113.598C297.944 112.904 297.986 113.701 297.827 115.03C297.674 116.276 297.393 117.514 297.154 118.756C296.693 118.605 296.398 118.547 296.36 118.461C295.877 114.045 293.184 113.396 289.455 114.529C288.588 114.774 287.613 114.678 287.262 114.074C285.905 111.616 283.865 112.257 281.842 112.606C281.757 112.601 281.625 112.678 281.54 112.673C273.572 111.776 265.462 112.71 257.1 110.453C257.027 111.787 256.949 113.204 256.873 114.58C256.844 115.122 257.055 115.927 256.243 115.966C255.516 116.01 255.384 115.292 255.157 114.778C255.119 114.692 255.126 114.567 255.088 114.482C253.513 110.549 253.437 110.378 249.228 111.694C247.189 112.334 246.397 111.998 246.337 109.988C246.314 108.858 245.99 108.548 244.696 108.811C240.166 109.775 235.666 109.402 231.041 108.981C226.926 108.588 222.698 109.485 218.589 108.214C217.204 107.804 217.015 108.922 216.83 109.957C216.547 111.237 217.187 112.778 215.77 113.745C214.117 112.776 214.998 109.94 212.881 109.657C211.187 109.438 209.37 109.924 207.646 110.247C206.568 110.481 205.686 110.223 205.439 109.29C204.902 107.421 203.92 107.451 202.198 107.733C199.146 108.192 196.066 108.357 193.006 107.395C190.575 106.635 188.045 107.666 185.537 107.529C184.941 107.496 184.311 107.336 183.751 107.431C181.945 107.708 180.056 105.597 178.661 106.942C177.668 107.933 177.726 109.984 177.292 111.675C176.921 111.445 176.586 111.343 176.469 111.128C175.735 109.75 176.116 107.471 174.653 106.931C173.273 106.437 171.321 107.041 169.723 107.413C168.729 107.651 167.61 107.841 167.313 107.03C166.428 104.515 164.795 105.512 163.041 105.625C160.774 105.751 158.502 105.961 156.18 105.541C153.605 105.065 150.969 104.921 148.219 105.313C144.951 105.803 141.526 105.28 138.021 103.875C137.909 105.918 137.815 107.626 137.721 109.335C136.401 109.305 136.581 108.353 136.356 107.797C134.798 104.326 133.93 103.818 130.042 104.733C128.616 105.073 127.495 105.304 126.994 103.563C126.488 101.905 125.1 102.33 124.019 102.605C119.824 103.671 115.749 103.322 111.577 102.424C108.839 101.814 106.047 102.956 103.222 102.383C101.577 102.042 99.9663 101.87 98.6676 100.67C101.314 101.401 104.008 101.256 106.748 101.072C104.274 100.309 101.84 99.5901 99.283 98.7809C100.799 97.5681 102.192 97.0593 104.803 97.6625C109.856 98.8178 114.864 99.2598 120.016 98.6229C121.732 98.4245 123.466 98.6869 124.953 99.5628C126.937 100.717 127.417 99.7399 127.553 98.0333C127.694 96.2435 127.875 94.4976 128.692 92.8284C129.933 93.5236 129.862 94.8157 130.06 95.8716C130.656 98.9979 132.297 100.175 135.346 99.0046C136.566 98.5281 137.173 98.3523 137.619 99.5474C137.958 100.36 138.397 100.134 139.044 100.002C143.357 99.1098 147.55 99.6326 151.647 101.112C152.233 101.311 152.69 101.545 153.341 101.33C157.29 100.084 161.23 100.551 165.133 101.685C166.728 102.149 167.174 101.797 167.263 100.171C167.359 98.4207 167.881 96.6935 168.236 94.8736C169.936 95.7612 169.592 97.3727 169.903 98.6857C170.56 101.481 172.208 102.533 174.792 101.295C176.106 100.657 176.892 100.324 177.712 101.706C178.297 102.7 179.371 102.55 180.148 102.383C183.516 101.607 186.711 102.451 189.86 103.335C191.33 103.75 192.638 103.236 193.927 103.056C197.192 102.608 200.345 102.656 203.344 103.949C205.093 104.714 205.282 103.596 205.55 102.607C206.036 100.753 206.353 98.8471 206.806 96.8234C208.718 97.7227 208.407 99.5033 208.468 100.719C208.572 103.484 210.237 103.45 212.168 103.221C213.97 103.028 215.728 102.079 217.384 103.758C217.788 104.157 218.945 104.053 219.72 103.928C223.122 103.321 226.476 103.589 229.796 104.482C231.518 104.952 233.364 104.719 235.168 104.484C238.687 104.092 242.06 104.779 245.211 106.415C241.608 106.802 238.18 104.775 234.124 105.639C237.676 106.963 241.068 107.316 244.505 107.63C245.948 107.751 245.021 106.78 245.133 106.285C246.844 105.417 245.738 103.81 246.102 102.617C246.461 101.508 246.695 100.351 246.974 99.1537C248.761 100.004 248.538 101.748 248.937 103.024C249.815 105.664 251.297 106.623 253.756 105.337C255.205 104.58 256.165 104.173 257.045 106.019C257.654 107.348 259.14 107.472 260.48 107.127C262.77 106.584 264.995 106.455 267.263 107.082C270.793 108.028 274.303 108.555 278.017 107.714C280.651 107.106 283.381 107.088 285.713 108.889C286.918 106.363 286.469 103.663 288.007 101.281C289.048 102.508 289.192 103.77 289.508 105C290.426 108.478 292.173 109.285 295.914 107.944C295.953 110.329 294.881 112.778 296.659 115.342C296.999 113.814 297.363 112.622 297.472 111.415C297.58 110.209 297.97 108.558 295.773 108.187ZM142.675 100.661C148.583 103.326 154.865 104.633 161.341 104.737C154.994 103.845 149.2 100.643 142.675 100.661ZM239.556 108.445C233.922 107.76 228.923 104.057 222.513 105.085C228.345 106.827 233.698 108.751 239.556 108.445ZM200.459 106.801C197.473 106.804 194.716 105.775 191.854 105.074C189.076 104.42 186.419 103.104 182.991 103.417C188.756 106.368 194.533 106.768 200.459 106.801ZM103.092 98.5301C107.95 100.135 112.649 102.315 117.964 101.813C113.088 100.542 108.283 98.7314 103.092 98.5301ZM276.428 109.466C279.547 110.139 282.584 111.518 286.498 110.897C283.112 108.119 279.754 108.687 276.428 109.466ZM306.615 113.422C311.22 113.424 315.763 113.005 320.448 111.548C315.395 110.392 311.071 112.245 306.615 113.422ZM288.489 113.472C289.256 110.379 289.508 107.341 287.916 104.495C287.449 107.563 286.127 110.667 288.489 113.472ZM147.58 103.731C145.149 102.971 142.718 102.21 140.239 101.531C139.651 101.373 138.646 101.025 138.348 101.803C137.95 102.826 139.049 103.012 139.756 103.343C142.254 104.442 144.884 103.918 147.58 103.731ZM207.426 100.286C205.637 102.57 206.388 105.203 205.667 107.463C205.465 108.037 206.175 109.08 207.071 109.087C208.133 109.145 207.806 108.124 207.88 107.543C208.176 105.26 207.707 102.935 207.426 100.286ZM298.534 111.474C303.635 112.548 305.385 112.519 308.392 111.346C304.847 109.897 301.702 110.477 298.534 111.474ZM263.149 108.235C267.484 109.268 271.86 110.344 276.195 111.376C272.174 109.274 267.837 108.284 263.149 108.235ZM226.92 107.919C223.865 106.873 220.981 105.043 216.774 106.317C220.577 107.738 223.714 108.077 226.92 107.919ZM166.096 103.577C163.095 101.531 159.657 102.011 156.294 101.91C159.428 103.086 162.681 103.64 166.096 103.577ZM267.933 110.421C264.436 109.644 260.942 108.825 257.403 108.045C260.299 111.214 264.18 110.424 267.933 110.421ZM168.883 98.6297C167.354 100.845 167.741 103.124 167.62 105.333C167.585 105.958 167.983 106.481 168.713 106.396C169.44 106.352 169.304 105.718 169.37 105.303C169.656 103.187 169.305 101.036 168.883 98.6297ZM215.999 111.124C216.138 108.581 216.279 106.791 216.295 104.953C216.284 104.367 215.844 103.841 215.166 103.762C214.741 103.739 214.378 104.137 214.443 104.517C214.803 106.501 213.616 108.694 215.999 111.124ZM129.139 96.3228C128.799 96.3041 128.499 96.3295 128.159 96.3108C128.054 98.2281 127.906 100.143 127.844 102.063C127.809 102.688 127.502 103.632 128.522 103.688C129.245 103.728 129.711 103.001 129.667 102.246C129.522 100.232 129.329 98.2981 129.139 96.3228ZM255.703 112.592C256.932 110.402 256.437 108.536 256.156 106.681C256.055 106.174 255.79 105.574 255.318 105.632C254.76 105.685 254.216 106.282 254.394 106.919C254.811 108.656 254.578 110.566 255.703 112.592ZM126.394 101.272C122.736 99.5665 120.107 99.2968 115.724 99.8924C119.057 101.329 122.363 100.926 126.394 101.272ZM247.375 102.729C247.486 105.369 246.23 108.059 247.965 110.621C248.709 107.944 248.298 105.33 247.375 102.729ZM185.995 106.174C183.801 104.967 181.788 104.355 179.636 103.944C179.17 103.877 178.596 103.469 178.391 104.085C178.191 104.617 178.37 105.254 179.218 105.342C181.332 105.667 183.369 106.615 185.995 106.174ZM204.306 105.842C201.54 104.185 198.587 103.605 195.446 104.895C198.413 105.225 201.337 105.553 204.306 105.842ZM176.992 108.606C176.975 105.805 177.906 103.598 176.029 101.279C174.941 104.021 175.728 105.987 176.992 108.606ZM210.196 104.2C209.345 104.948 209.294 105.865 209.166 106.652C208.995 107.437 208.591 108.585 209.859 108.78C211.338 109.028 210.858 107.664 210.897 106.956C210.901 106.12 211.383 105.101 210.196 104.2ZM291.078 113.698C291.408 112.337 292.875 111.247 291.642 109.632C291.484 109.414 290.971 109.428 290.636 109.326C290.218 110.724 289.93 112.088 290.534 113.501C290.53 113.584 290.702 113.552 291.078 113.698Z" fill="white"/>
<path d="M696.015 130.156C696.761 128.985 697.891 129.381 698.015 130.224C698.39 132.711 700.146 131.805 701.31 131.576C704.369 130.991 707.253 131.275 710.132 132.436C711.926 133.162 713.641 132.211 715.395 132.098C719.122 131.801 722.776 132.043 726.334 133.242C726.67 133.344 726.864 133.689 727.557 134.271C724.081 134.665 720.956 134.117 717.79 135.867C721.116 136.634 724.052 135.207 727.273 136.345C724.065 137.298 721.024 137.549 718.153 137.015C714.987 136.423 711.929 136.214 708.706 136.664C705.785 137.047 702.832 136.467 700.152 135.567C698.186 134.874 698.228 135.671 698.07 137C697.916 138.245 697.635 139.484 697.396 140.725C696.935 140.575 696.64 140.517 696.602 140.431C696.12 136.015 693.426 135.365 689.697 136.498C688.83 136.743 687.855 136.648 687.504 136.044C686.147 133.586 684.107 134.227 682.084 134.576C681.999 134.571 681.867 134.647 681.782 134.643C673.814 133.745 665.704 134.68 657.342 132.423C657.269 133.757 657.191 135.174 657.115 136.549C657.086 137.091 657.297 137.897 656.485 137.936C655.758 137.98 655.627 137.262 655.399 136.748C655.361 136.662 655.368 136.537 655.33 136.451C653.755 132.519 653.679 132.347 649.47 133.663C647.431 134.304 646.639 133.968 646.579 131.958C646.556 130.828 646.232 130.517 644.938 130.781C640.408 131.744 635.908 131.372 631.283 130.951C627.169 130.558 622.94 131.455 618.831 130.184C617.447 129.773 617.257 130.892 617.073 131.927C616.789 133.207 617.429 134.747 616.012 135.715C614.359 134.746 615.24 131.91 613.123 131.626C611.43 131.408 609.612 131.893 607.889 132.217C606.81 132.45 605.928 132.193 605.681 131.26C605.144 129.391 604.162 129.42 602.441 129.702C599.388 130.162 596.308 130.327 593.248 129.365C590.817 128.604 588.287 129.636 585.779 129.498C585.184 129.466 584.553 129.306 583.993 129.4C582.187 129.677 580.299 127.567 578.903 128.912C577.91 129.903 577.968 131.954 577.534 133.644C577.163 133.415 576.828 133.313 576.712 133.098C575.977 131.719 576.358 129.441 574.895 128.901C573.515 128.407 571.563 129.011 569.965 129.383C568.971 129.621 567.852 129.81 567.555 129C566.67 126.485 565.038 127.482 563.283 127.595C561.016 127.721 558.745 127.931 556.422 127.511C553.847 127.035 551.211 126.89 548.461 127.283C545.193 127.772 541.768 127.25 538.263 125.845C538.151 127.887 538.057 129.596 537.963 131.305C536.643 131.274 536.823 130.323 536.598 129.767C535.04 126.295 534.172 125.788 530.284 126.703C528.859 127.043 527.737 127.274 527.236 125.532C526.73 123.874 525.342 124.3 524.261 124.575C520.066 125.641 515.992 125.291 511.819 124.394C509.081 123.783 506.289 124.926 503.464 124.353C501.819 124.012 500.208 123.84 498.91 122.64C501.556 123.37 504.251 123.226 506.99 123.042C504.516 122.279 502.082 121.56 499.525 120.751C501.042 119.538 502.434 119.029 505.045 119.632C510.098 120.787 515.106 121.23 520.258 120.593C521.974 120.394 523.708 120.657 525.195 121.533C527.179 122.687 527.659 121.71 527.795 120.003C527.936 118.213 528.117 116.467 528.934 114.798C530.175 115.493 530.104 116.785 530.302 117.841C530.898 120.968 532.539 122.145 535.588 120.974C536.808 120.498 537.415 120.322 537.861 121.517C538.2 122.33 538.639 122.103 539.286 121.972C543.599 121.08 547.792 121.602 551.89 123.081C552.476 123.281 552.932 123.515 553.583 123.3C557.532 122.053 561.472 122.52 565.376 123.654C566.97 124.118 567.416 123.766 567.505 122.141C567.602 120.39 568.123 118.663 568.479 116.843C570.178 117.731 569.834 119.342 570.145 120.655C570.802 123.451 572.45 124.503 575.034 123.265C576.348 122.626 577.134 122.293 577.954 123.676C578.539 124.67 579.613 124.52 580.39 124.353C583.759 123.577 586.953 124.421 590.103 125.304C591.572 125.719 592.88 125.206 594.169 125.026C597.434 124.578 600.587 124.626 603.586 125.919C605.335 126.684 605.525 125.566 605.792 124.577C606.278 122.722 606.595 120.817 607.048 118.793C608.96 119.692 608.649 121.473 608.71 122.689C608.814 125.454 610.479 125.42 612.411 125.191C614.212 124.997 615.97 124.049 617.626 125.728C618.031 126.127 619.188 126.023 619.962 125.898C623.364 125.291 626.718 125.558 630.038 126.451C631.76 126.922 633.607 126.689 635.411 126.454C638.929 126.061 642.302 126.748 645.453 128.384C641.85 128.772 638.422 126.744 634.366 127.609C637.918 128.932 641.31 129.286 644.747 129.6C646.19 129.721 645.263 128.75 645.375 128.255C647.086 127.387 645.98 125.78 646.344 124.587C646.703 123.478 646.938 122.32 647.216 121.123C649.003 121.974 648.78 123.718 649.179 124.994C650.057 127.634 651.54 128.593 653.998 127.307C655.447 126.55 656.407 126.143 657.287 127.989C657.896 129.318 659.382 129.442 660.723 129.097C663.013 128.554 665.237 128.425 667.505 129.051C671.035 129.998 674.546 130.525 678.259 129.683C680.893 129.076 683.624 129.058 685.955 130.858C687.16 128.333 686.711 125.632 688.249 123.25C689.29 124.478 689.434 125.74 689.751 126.97C690.668 130.448 692.415 131.255 696.156 129.913C696.196 132.298 695.123 134.748 696.901 137.312C697.241 135.784 697.605 134.591 697.714 133.385C697.823 132.179 698.212 130.528 696.015 130.156ZM542.917 122.631C548.826 125.296 555.108 126.602 561.583 126.707C555.236 125.815 549.442 122.613 542.917 122.631ZM639.798 130.415C634.165 129.73 629.166 126.027 622.756 127.055C628.587 128.796 633.94 130.721 639.798 130.415ZM600.701 128.771C597.716 128.774 594.958 127.745 592.097 127.044C589.318 126.39 586.661 125.074 583.233 125.387C588.998 128.337 594.775 128.738 600.701 128.771ZM503.334 120.5C508.193 122.104 512.891 124.285 518.207 123.783C513.33 122.512 508.525 120.701 503.334 120.5ZM676.67 131.436C679.789 132.108 682.826 133.488 686.741 132.866C683.354 130.088 679.997 130.657 676.67 131.436ZM706.857 135.392C711.462 135.394 716.005 134.974 720.69 133.517C715.637 132.362 711.314 134.215 706.857 135.392ZM688.731 135.442C689.498 132.349 689.75 129.311 688.158 126.464C687.691 129.532 686.369 132.637 688.731 135.442ZM547.823 125.701C545.391 124.94 542.96 124.18 540.481 123.5C539.893 123.343 538.888 122.995 538.59 123.773C538.193 124.796 539.291 124.982 539.998 125.313C542.496 126.412 545.126 125.887 547.823 125.701ZM607.668 122.255C605.879 124.54 606.63 127.173 605.909 129.433C605.707 130.007 606.418 131.049 607.313 131.057C608.376 131.115 608.048 130.094 608.122 129.512C608.418 127.229 607.949 124.904 607.668 122.255ZM698.777 133.443C703.877 134.518 705.627 134.488 708.634 133.316C705.089 131.867 701.944 132.447 698.777 133.443ZM663.391 130.205C667.726 131.237 672.102 132.314 676.438 133.346C672.417 131.244 668.079 130.253 663.391 130.205ZM627.163 129.889C624.107 128.843 621.223 127.013 617.017 128.287C620.819 129.708 623.956 130.047 627.163 129.889ZM566.338 125.547C563.337 123.501 559.899 123.981 556.536 123.88C559.67 125.055 562.923 125.61 566.338 125.547ZM668.175 132.391C664.678 131.613 661.184 130.795 657.645 130.015C660.541 133.184 664.422 132.394 668.175 132.391ZM569.125 120.599C567.596 122.815 567.983 125.094 567.862 127.303C567.827 127.928 568.225 128.451 568.955 128.366C569.682 128.322 569.546 127.688 569.612 127.273C569.898 125.157 569.547 123.006 569.125 120.599ZM616.241 133.093C616.381 130.551 616.521 128.761 616.537 126.923C616.527 126.337 616.086 125.811 615.408 125.732C614.983 125.709 614.62 126.107 614.685 126.486C615.045 128.471 613.858 130.663 616.241 133.093ZM529.382 118.293C529.041 118.274 528.742 118.299 528.401 118.281C528.296 120.198 528.148 122.113 528.086 124.032C528.051 124.657 527.744 125.602 528.764 125.658C529.487 125.698 529.953 124.971 529.909 124.216C529.764 122.201 529.572 120.268 529.382 118.293ZM655.945 134.562C657.174 132.372 656.68 130.506 656.398 128.651C656.298 128.144 656.032 127.544 655.56 127.601C655.003 127.654 654.458 128.252 654.636 128.888C655.053 130.625 654.82 132.536 655.945 134.562ZM526.637 123.242C522.978 121.536 520.349 121.267 515.967 121.862C519.299 123.299 522.605 122.895 526.637 123.242ZM647.617 124.699C647.728 127.339 646.472 130.029 648.207 132.591C648.951 129.914 648.54 127.3 647.617 124.699ZM586.237 128.144C584.043 126.937 582.03 126.324 579.878 125.914C579.412 125.846 578.838 125.439 578.633 126.054C578.434 126.587 578.612 127.224 579.46 127.312C581.574 127.637 583.612 128.585 586.237 128.144ZM604.549 127.811C601.782 126.154 598.829 125.574 595.688 126.865C598.655 127.195 601.579 127.523 604.549 127.811ZM577.234 130.576C577.217 127.774 578.148 125.568 576.271 123.249C575.183 125.99 575.97 127.957 577.234 130.576ZM610.438 126.17C609.587 126.917 609.536 127.834 609.408 128.621C609.237 129.406 608.833 130.555 610.101 130.75C611.58 130.998 611.101 129.634 611.14 128.926C611.143 128.09 611.625 127.071 610.438 126.17ZM691.32 135.668C691.651 134.306 693.118 133.216 691.884 131.602C691.726 131.384 691.213 131.398 690.878 131.296C690.46 132.694 690.172 134.058 690.777 135.471C690.772 135.554 690.944 135.522 691.32 135.668Z" fill="white"/>
<path d="M1135.03 154.383C1134.43 153.138 1133.28 153.41 1133.07 154.234C1132.44 156.666 1130.82 155.574 1129.71 155.221C1126.8 154.308 1123.96 154.277 1121.02 155.12C1119.2 155.647 1117.63 154.515 1115.93 154.213C1112.33 153.514 1108.75 153.359 1105.15 154.165C1104.81 154.23 1104.58 154.552 1103.85 155.055C1107.19 155.824 1110.3 155.618 1113.19 157.7C1109.87 158.103 1107.16 156.365 1103.9 157.148C1106.92 158.443 1109.86 159.022 1112.71 158.802C1115.86 158.557 1118.86 158.68 1121.96 159.477C1124.76 160.174 1127.7 159.918 1130.41 159.314C1132.4 158.838 1132.27 159.625 1132.28 160.963C1132.3 162.218 1132.44 163.48 1132.54 164.74C1133 164.64 1133.3 164.614 1133.34 164.533C1134.29 160.196 1136.99 159.842 1140.5 161.372C1141.31 161.71 1142.28 161.721 1142.68 161.158C1144.27 158.862 1146.19 159.72 1148.12 160.286C1148.21 160.291 1148.33 160.381 1148.41 160.385C1156.27 160.357 1164.07 162.165 1172.47 160.828C1172.39 162.162 1172.31 163.579 1172.24 164.954C1172.21 165.496 1171.92 166.274 1172.7 166.401C1173.41 166.523 1173.61 165.824 1173.89 165.338C1173.94 165.256 1173.94 165.131 1173.99 165.05C1175.95 161.312 1176.04 161.15 1180 162.914C1181.92 163.772 1182.73 163.523 1183 161.532C1183.15 160.411 1183.5 160.138 1184.73 160.54C1189.04 161.989 1193.47 162.106 1198.02 162.189C1202.07 162.244 1206.09 163.593 1210.23 162.776C1211.63 162.518 1211.69 163.65 1211.76 164.699C1211.9 166.002 1211.11 167.464 1212.38 168.579C1214.1 167.795 1213.55 164.881 1215.64 164.828C1217.31 164.795 1219.03 165.474 1220.68 165.983C1221.7 166.332 1222.59 166.171 1222.93 165.27C1223.66 163.471 1224.61 163.607 1226.26 164.073C1229.18 164.861 1232.17 165.359 1235.25 164.734C1237.7 164.242 1240.06 165.541 1242.52 165.676C1243.1 165.708 1243.73 165.618 1244.27 165.772C1246 166.244 1248.06 164.351 1249.28 165.839C1250.14 166.931 1249.86 168.964 1250.1 170.691C1250.49 170.503 1250.82 170.438 1250.96 170.237C1251.83 168.947 1251.7 166.64 1253.19 166.262C1254.58 165.921 1256.42 166.732 1257.94 167.275C1258.88 167.62 1259.95 167.929 1260.33 167.156C1261.46 164.752 1262.95 165.92 1264.64 166.222C1266.84 166.593 1269.03 167.048 1271.34 166.882C1273.9 166.688 1276.48 166.83 1279.12 167.518C1282.25 168.359 1285.64 168.211 1289.21 167.194C1289.1 169.237 1289.01 170.946 1288.91 172.654C1290.2 172.767 1290.13 171.802 1290.41 171.273C1292.3 167.991 1293.2 167.581 1296.89 168.912C1298.25 169.404 1299.31 169.756 1299.99 168.079C1300.66 166.485 1301.97 167.059 1302.99 167.449C1306.97 168.963 1310.97 169.058 1315.14 168.617C1317.87 168.308 1320.47 169.746 1323.28 169.483C1324.92 169.322 1326.51 169.325 1327.91 168.273C1325.25 168.713 1322.64 168.277 1319.99 167.797C1322.48 167.307 1324.93 166.856 1327.51 166.329C1326.17 164.959 1324.86 164.302 1322.25 164.619C1317.2 165.219 1312.28 165.116 1307.33 163.925C1305.67 163.541 1303.96 163.614 1302.41 164.324C1300.36 165.256 1299.99 164.233 1300.05 162.522C1300.1 160.727 1300.11 158.972 1299.5 157.224C1298.22 157.781 1298.14 159.073 1297.84 160.101C1296.92 163.144 1295.19 164.136 1292.35 162.643C1291.21 162.037 1290.64 161.796 1290.07 162.936C1289.65 163.707 1289.25 163.434 1288.64 163.233C1284.53 161.879 1280.39 161.944 1276.23 162.97C1275.64 163.105 1275.17 163.288 1274.56 163.004C1270.85 161.337 1266.96 161.374 1263.03 162.078C1261.43 162.367 1261.03 161.969 1261.12 160.343C1261.22 158.593 1260.89 156.819 1260.75 154.972C1258.99 155.67 1259.15 157.309 1258.71 158.58C1257.76 161.288 1256.04 162.155 1253.66 160.644C1252.45 159.867 1251.72 159.451 1250.77 160.737C1250.09 161.661 1249.06 161.395 1248.32 161.146C1245.13 160.009 1241.92 160.502 1238.76 161.039C1237.28 161.292 1236.06 160.64 1234.82 160.321C1231.69 159.522 1228.61 159.228 1225.55 160.188C1223.76 160.759 1223.7 159.627 1223.55 158.615C1223.28 156.719 1223.17 154.79 1222.95 152.73C1220.99 153.416 1221.1 155.22 1220.91 156.422C1220.51 159.159 1218.89 158.945 1217.03 158.508C1215.3 158.121 1213.69 156.987 1211.89 158.477C1211.45 158.829 1210.34 158.601 1209.6 158.393C1206.35 157.42 1203.05 157.323 1199.72 157.851C1197.99 158.132 1196.22 157.7 1194.48 157.271C1191.1 156.5 1187.74 156.817 1184.49 158.102C1187.96 158.877 1191.52 157.233 1195.38 158.532C1191.77 159.463 1188.43 159.447 1185.04 159.386C1183.63 159.35 1184.63 158.486 1184.58 157.981C1183.01 156.933 1184.26 155.455 1184.03 154.231C1183.8 153.089 1183.7 151.913 1183.56 150.693C1181.72 151.345 1181.75 153.102 1181.23 154.327C1180.08 156.857 1178.53 157.649 1176.28 156.104C1174.95 155.195 1174.06 154.686 1173 156.426C1172.26 157.681 1170.8 157.643 1169.53 157.155C1167.36 156.367 1165.21 155.998 1162.93 156.375C1159.39 156.933 1155.91 157.076 1152.38 155.838C1149.88 154.948 1147.22 154.635 1144.75 156.172C1143.85 153.53 1144.58 150.895 1143.34 148.36C1142.2 149.468 1141.92 150.707 1141.48 151.895C1140.21 155.253 1138.42 155.865 1134.92 154.127C1134.62 156.493 1135.4 159.044 1133.39 161.4C1133.22 159.844 1133 158.62 1133.02 157.409C1133.05 156.198 1132.85 154.515 1135.03 154.383ZM1285.03 163.495C1278.98 165.504 1272.72 166.122 1266.39 165.524C1272.68 165.325 1278.67 162.77 1285.03 163.495ZM1189.78 160.733C1195.34 160.662 1200.61 157.524 1206.75 159.24C1200.88 160.339 1195.45 161.672 1189.78 160.733ZM1228.05 163.336C1230.96 163.663 1233.76 162.938 1236.63 162.552C1239.4 162.203 1242.14 161.182 1245.44 161.866C1239.5 164.173 1233.83 163.946 1228.05 163.336ZM1323.83 165.666C1318.92 166.735 1314.1 168.394 1308.98 167.318C1313.87 166.583 1318.75 165.304 1323.83 165.666ZM1153.74 157.752C1150.63 158.082 1147.52 159.124 1143.77 158.082C1147.37 155.688 1150.58 156.617 1153.74 157.752ZM1123.9 158.413C1119.41 157.916 1115.03 157.006 1110.62 155.05C1115.67 154.45 1119.68 156.76 1123.9 158.413ZM1141.55 160.427C1141.14 157.269 1141.22 154.222 1143.08 151.565C1143.21 154.665 1144.16 157.895 1141.55 160.427ZM1279.91 166.015C1282.36 165.523 1284.82 165.03 1287.3 164.623C1287.9 164.53 1288.91 164.293 1289.12 165.099C1289.39 166.159 1288.3 166.225 1287.58 166.478C1285.03 167.299 1282.52 166.493 1279.91 166.015ZM1221.97 156.104C1223.47 158.569 1222.45 161.105 1222.91 163.43C1223.04 164.022 1222.24 164.981 1221.36 164.892C1220.32 164.834 1220.75 163.855 1220.74 163.269C1220.7 160.967 1221.41 158.707 1221.97 156.104ZM1131.98 157.352C1126.89 157.867 1125.19 157.648 1122.39 156.156C1126 155.1 1129 156.018 1131.98 157.352ZM1166.81 157.968C1162.48 158.524 1158.1 159.119 1153.76 159.676C1157.9 158.022 1162.24 157.507 1166.81 157.968ZM1202.15 161.579C1205.24 160.871 1208.25 159.364 1212.21 161.086C1208.35 162.087 1205.26 162.084 1202.15 161.579ZM1261.89 163.855C1265.03 162.147 1268.33 162.996 1271.62 163.261C1268.44 164.089 1265.21 164.288 1261.89 163.855ZM1161.91 159.622C1165.4 159.228 1168.9 158.793 1172.43 158.401C1169.27 161.238 1165.57 160.031 1161.91 159.622ZM1259.71 158.635C1260.96 161.003 1260.33 163.226 1260.21 165.435C1260.18 166.061 1259.73 166.538 1259.03 166.374C1258.33 166.252 1258.53 165.636 1258.51 165.217C1258.46 163.082 1259.04 160.981 1259.71 158.635ZM1212.44 165.949C1212.58 163.406 1212.64 161.612 1212.82 159.782C1212.9 159.201 1213.38 158.726 1214.05 158.721C1214.47 158.744 1214.78 159.179 1214.68 159.55C1214.11 161.483 1215.03 163.791 1212.44 165.949ZM1298.69 160.649C1299.02 160.668 1299.31 160.725 1299.64 160.744C1299.54 162.661 1299.47 164.58 1299.33 166.495C1299.29 167.121 1299.49 168.093 1298.49 168.038C1297.78 167.999 1297.4 167.226 1297.53 166.48C1297.89 164.493 1298.29 162.592 1298.69 160.649ZM1173.59 163.106C1172.63 160.795 1173.32 158.994 1173.79 157.18C1173.95 156.687 1174.27 156.12 1174.72 156.228C1175.26 156.341 1175.73 156.994 1175.49 157.608C1174.89 159.289 1174.91 161.213 1173.59 163.106ZM1300.82 165.867C1304.57 164.568 1307.16 164.585 1311.37 165.652C1307.97 166.719 1304.79 165.959 1300.82 165.867ZM1182.78 154.204C1182.38 156.816 1183.32 159.626 1181.35 161.984C1180.91 159.243 1181.6 156.689 1182.78 154.204ZM1242.22 164.28C1244.48 163.318 1246.51 162.928 1248.65 162.753C1249.12 162.736 1249.72 162.393 1249.85 163.027C1249.99 163.578 1249.75 164.192 1248.91 164.188C1246.81 164.282 1244.73 165.003 1242.22 164.28ZM1224.41 161.965C1227.28 160.618 1230.22 160.361 1233.15 161.985C1230.22 161.991 1227.33 162 1224.41 161.965ZM1250.73 167.674C1251.05 164.89 1250.38 162.596 1252.46 160.495C1253.22 163.338 1252.24 165.207 1250.73 167.674ZM1218.85 159.695C1219.6 160.53 1219.55 161.447 1219.59 162.244C1219.67 163.043 1219.94 164.228 1218.68 164.284C1217.21 164.371 1217.83 163.067 1217.87 162.358C1217.95 161.527 1217.59 160.462 1218.85 159.695ZM1139.01 160.371C1138.83 158.982 1137.52 157.739 1138.9 156.268C1139.07 156.069 1139.57 156.138 1139.91 156.073C1140.17 157.508 1140.3 158.895 1139.56 160.234C1139.55 160.317 1139.39 160.266 1139.01 160.371Z" fill="white"/>
<path d="M743.263 132.88C742.649 131.633 741.483 131.904 741.267 132.728C740.622 135.159 738.976 134.066 737.844 133.711C734.867 132.795 731.969 132.761 728.981 133.601C727.118 134.125 725.517 132.992 723.786 132.688C720.115 131.985 716.456 131.826 712.787 132.628C712.443 132.693 712.212 133.015 711.459 133.517C714.871 134.289 718.038 134.087 720.993 136.172C717.603 136.571 714.841 134.831 711.515 135.61C714.599 136.908 717.595 137.491 720.507 137.274C723.718 137.032 726.781 137.159 729.935 137.959C732.797 138.659 735.795 138.406 738.558 137.805C740.588 137.331 740.459 138.118 740.471 139.457C740.487 140.712 740.631 141.974 740.733 143.234C741.207 143.134 741.507 143.109 741.554 143.028C742.517 138.691 745.266 138.341 748.849 139.875C749.683 140.213 750.663 140.225 751.078 139.663C752.696 137.369 754.653 138.229 756.626 138.797C756.711 138.802 756.834 138.892 756.919 138.897C764.937 138.877 772.896 140.693 781.455 139.365C781.382 140.699 781.304 142.116 781.228 143.492C781.199 144.034 780.9 144.811 781.703 144.939C782.422 145.062 782.63 144.363 782.913 143.877C782.96 143.796 782.967 143.671 783.014 143.59C785.01 139.853 785.104 139.691 789.144 141.46C791.1 142.32 791.924 142.072 792.204 140.081C792.351 138.96 792.707 138.687 793.964 139.091C798.362 140.544 802.875 140.667 807.518 140.754C811.651 140.814 815.756 142.168 819.979 141.355C821.401 141.098 821.466 142.231 821.537 143.28C821.678 144.583 820.873 146.044 822.177 147.161C823.925 146.379 823.36 143.463 825.495 143.413C827.203 143.382 828.956 144.063 830.634 144.573C831.681 144.923 832.585 144.764 832.933 143.863C833.671 142.064 834.644 142.201 836.324 142.67C839.309 143.461 842.351 143.962 845.498 143.341C847.998 142.851 850.4 144.153 852.908 144.291C853.504 144.324 854.148 144.233 854.694 144.389C856.459 144.862 858.567 142.971 859.807 144.46C860.685 145.554 860.403 147.587 860.649 149.314C861.043 149.127 861.388 149.062 861.527 148.861C862.408 147.571 862.279 145.265 863.792 144.888C865.218 144.548 867.092 145.362 868.64 145.907C869.602 146.252 870.693 146.563 871.077 145.79C872.232 143.387 873.746 144.557 875.477 144.861C877.717 145.235 879.952 145.692 882.306 145.528C884.918 145.337 887.554 145.482 890.245 146.173C893.439 147.017 896.901 146.873 900.539 145.86C900.426 147.902 900.333 149.611 900.239 151.32C901.554 151.434 901.48 150.469 901.764 149.941C903.693 146.66 904.611 146.251 908.375 147.586C909.755 148.08 910.845 148.432 911.534 146.756C912.218 145.163 913.551 145.738 914.596 146.13C918.648 147.649 922.737 147.747 926.982 147.312C929.771 147.005 932.421 148.446 935.292 148.186C936.964 148.027 938.584 148.032 940.006 146.981C937.296 147.418 934.633 146.979 931.931 146.496C934.473 146.009 936.971 145.561 939.601 145.036C938.227 143.665 936.898 143.007 934.237 143.32C929.087 143.916 924.062 143.807 919.01 142.61C917.326 142.225 915.574 142.296 914 143.004C911.902 143.934 911.532 142.91 911.583 141.199C911.639 139.404 911.65 137.649 911.021 135.901C909.711 136.456 909.64 137.748 909.328 138.776C908.393 141.818 906.633 142.808 903.731 141.311C902.57 140.704 901.986 140.463 901.412 141.602C900.986 142.373 900.574 142.1 899.946 141.898C895.756 140.539 891.531 140.6 887.296 141.622C886.692 141.756 886.213 141.938 885.589 141.653C881.8 139.982 877.833 140.015 873.829 140.715C872.193 141.002 871.788 140.603 871.877 138.978C871.973 137.227 871.644 135.453 871.49 133.605C869.703 134.302 869.869 135.941 869.416 137.212C868.457 139.919 866.704 140.784 864.271 139.271C863.034 138.492 862.29 138.075 861.324 139.36C860.633 140.284 859.582 140.017 858.828 139.766C855.565 138.626 852.297 139.115 849.07 139.649C847.563 139.901 846.32 139.247 845.058 138.927C841.861 138.124 838.722 137.827 835.6 138.784C833.777 139.353 833.712 138.221 833.554 137.209C833.274 135.312 833.167 133.383 832.939 131.322C830.94 132.007 831.054 133.811 830.86 135.012C830.454 137.749 828.803 137.533 826.908 137.095C825.138 136.705 823.495 135.569 821.665 137.058C821.219 137.409 820.081 137.18 819.325 136.971C816.009 135.995 812.646 135.894 809.249 136.418C807.485 136.697 805.675 136.264 803.908 135.832C800.454 135.057 797.025 135.371 793.714 136.652C797.253 137.432 800.883 135.791 804.819 137.094C801.144 138.021 797.734 138.002 794.283 137.938C792.836 137.9 793.864 137.037 793.806 136.532C792.201 135.482 793.476 134.005 793.244 132.78C793.009 131.639 792.903 130.462 792.756 129.242C790.887 129.892 790.919 131.649 790.382 132.874C789.22 135.402 787.642 136.193 785.339 134.646C783.981 133.735 783.071 133.225 781.995 134.964C781.244 136.218 779.754 136.178 778.459 135.689C776.242 134.899 774.045 134.527 771.722 134.902C768.109 135.456 764.562 135.595 760.963 134.353C758.411 133.46 755.7 133.144 753.185 134.678C752.264 132.036 753.005 129.401 751.737 126.865C750.568 127.971 750.287 129.21 749.838 130.398C748.545 133.755 746.72 134.365 743.149 132.622C742.848 134.989 743.646 137.541 741.598 139.895C741.428 138.339 741.197 137.114 741.22 135.903C741.244 134.692 741.038 133.008 743.263 132.88ZM896.264 142.156C890.099 144.158 883.712 144.769 877.264 144.165C883.671 143.973 889.78 141.424 896.264 142.156ZM799.113 139.29C804.788 139.225 810.162 136.092 816.421 137.815C810.434 138.908 804.903 140.234 799.113 139.29ZM838.156 141.934C841.123 142.264 843.976 141.543 846.897 141.16C849.731 140.814 852.515 139.796 855.889 140.483C849.836 142.784 844.049 142.55 838.156 141.934ZM935.843 144.37C930.838 145.433 925.928 147.087 920.7 146.005C925.687 145.276 930.66 144.002 935.843 144.37ZM762.351 136.268C759.177 136.596 756.007 137.634 752.184 136.588C755.855 134.198 759.13 135.13 762.351 136.268ZM731.913 136.897C727.335 136.395 722.865 135.481 718.367 133.52C723.517 132.924 727.611 135.239 731.913 136.897ZM749.924 138.931C749.5 135.772 749.582 132.725 751.476 130.07C751.605 133.17 752.579 136.401 749.924 138.931ZM891.052 144.671C893.552 144.181 896.052 143.691 898.59 143.287C899.192 143.194 900.229 142.959 900.44 143.765C900.723 144.825 899.611 144.89 898.872 145.142C896.269 145.96 893.712 145.151 891.052 144.671ZM831.944 134.695C833.471 137.162 832.437 139.697 832.906 142.022C833.044 142.615 832.224 143.574 831.333 143.483C830.27 143.424 830.708 142.445 830.697 141.859C830.653 139.558 831.374 137.298 831.944 134.695ZM740.158 135.844C734.97 136.354 733.234 136.133 730.374 134.639C734.056 133.587 737.118 134.507 740.158 135.844ZM775.685 136.499C771.263 137.05 766.796 137.641 762.373 138.193C766.6 136.543 771.02 136.034 775.685 136.499ZM811.73 140.149C814.882 139.444 817.949 137.941 821.991 139.667C818.056 140.664 814.901 140.658 811.73 140.149ZM872.665 142.491C875.872 140.786 879.236 141.639 882.59 141.907C879.347 142.732 876.052 142.928 872.665 142.491ZM770.691 138.148C774.251 137.758 777.814 137.326 781.418 136.939C778.192 139.772 774.421 138.561 770.691 138.148ZM870.436 137.268C871.713 139.638 871.079 141.86 870.958 144.069C870.924 144.694 870.471 145.171 869.755 145.007C869.037 144.884 869.241 144.268 869.222 143.849C869.168 141.714 869.753 139.614 870.436 137.268ZM822.236 144.53C822.375 141.988 822.431 140.193 822.617 138.364C822.691 137.783 823.186 137.308 823.869 137.304C824.294 137.327 824.611 137.763 824.506 138.133C823.931 140.067 824.87 142.376 822.236 144.53ZM910.193 139.325C910.533 139.344 910.829 139.402 911.169 139.42C911.064 141.338 911.001 143.257 910.853 145.172C910.819 145.797 911.021 146.77 910.001 146.714C909.278 146.674 908.894 145.901 909.02 145.155C909.385 143.169 909.788 141.268 910.193 139.325ZM782.609 141.644C781.627 139.333 782.323 137.532 782.806 135.719C782.961 135.226 783.291 134.659 783.754 134.768C784.302 134.881 784.778 135.535 784.531 136.148C783.927 137.829 783.95 139.753 782.609 141.644ZM912.38 144.545C916.203 143.25 918.846 143.27 923.137 144.341C919.667 145.405 916.426 144.642 912.38 144.545ZM791.967 132.752C791.568 135.364 792.522 138.175 790.516 140.532C790.07 137.79 790.764 135.236 791.967 132.752ZM852.601 142.894C854.914 141.934 856.982 141.546 859.166 141.374C859.636 141.358 860.252 141.015 860.388 141.65C860.528 142.201 860.281 142.814 859.429 142.809C857.291 142.901 855.163 143.62 852.601 142.894ZM834.436 140.56C837.367 139.215 840.366 138.962 843.347 140.589C840.361 140.592 837.419 140.598 834.436 140.56ZM861.284 146.297C861.607 143.514 860.923 141.219 863.042 139.12C863.825 141.964 862.826 143.832 861.284 146.297ZM828.762 138.283C829.526 139.12 829.476 140.036 829.517 140.833C829.601 141.632 829.877 142.818 828.595 142.873C827.098 142.958 827.724 141.654 827.763 140.946C827.851 140.114 827.483 139.049 828.762 138.283ZM747.326 138.872C747.146 137.482 745.807 136.238 747.21 134.768C747.391 134.569 747.899 134.639 748.244 134.574C748.506 136.01 748.643 137.397 747.888 138.735C747.883 138.819 747.715 138.768 747.326 138.872Z" fill="white"/>
<path d="M1109.42 152.98C1110.17 151.808 1111.3 152.205 1111.43 153.048C1111.8 155.535 1113.56 154.628 1114.72 154.399C1117.78 153.814 1120.66 154.098 1123.54 155.259C1125.34 155.985 1127.05 155.034 1128.81 154.921C1132.53 154.624 1136.19 154.867 1139.74 156.065C1140.08 156.167 1140.27 156.512 1140.97 157.094C1137.49 157.488 1134.37 156.941 1131.2 158.69C1134.53 159.458 1137.46 158.03 1140.68 159.169C1137.48 160.121 1134.43 160.372 1131.56 159.838C1128.4 159.247 1125.34 159.037 1122.12 159.487C1119.2 159.87 1116.24 159.29 1113.56 158.391C1111.6 157.697 1111.64 158.494 1111.48 159.823C1111.33 161.069 1111.04 162.307 1110.81 163.549C1110.35 163.398 1110.05 163.34 1110.01 163.254C1109.53 158.838 1106.84 158.189 1103.11 159.322C1102.24 159.567 1101.27 159.471 1100.91 158.867C1099.56 156.409 1097.52 157.05 1095.49 157.399C1095.41 157.394 1095.28 157.47 1095.19 157.466C1087.22 156.569 1079.11 157.503 1070.75 155.246C1070.68 156.58 1070.6 157.997 1070.53 159.373C1070.5 159.914 1070.71 160.72 1069.9 160.759C1069.17 160.803 1069.04 160.085 1068.81 159.571C1068.77 159.485 1068.78 159.36 1068.74 159.275C1067.16 155.342 1067.09 155.171 1062.88 156.487C1060.84 157.127 1060.05 156.791 1059.99 154.781C1059.97 153.651 1059.64 153.341 1058.35 153.604C1053.82 154.568 1049.32 154.195 1044.69 153.774C1040.58 153.381 1036.35 154.278 1032.24 153.007C1030.86 152.597 1030.67 153.715 1030.48 154.75C1030.2 156.03 1030.84 157.571 1029.42 158.538C1027.77 157.569 1028.65 154.733 1026.53 154.45C1024.84 154.231 1023.02 154.717 1021.3 155.04C1020.22 155.274 1019.34 155.016 1019.09 154.083C1018.55 152.214 1017.57 152.244 1015.85 152.525C1012.8 152.985 1009.72 153.15 1006.66 152.188C1004.23 151.428 1001.7 152.459 999.189 152.322C998.594 152.289 997.963 152.129 997.403 152.224C995.597 152.501 993.709 150.39 992.313 151.735C991.321 152.726 991.379 154.777 990.945 156.468C990.573 156.238 990.238 156.136 990.122 155.921C989.387 154.543 989.768 152.264 988.305 151.724C986.925 151.23 984.973 151.834 983.375 152.206C982.381 152.444 981.262 152.634 980.966 151.823C980.08 149.308 978.448 150.305 976.693 150.418C974.426 150.544 972.155 150.754 969.832 150.334C967.257 149.858 964.622 149.713 961.871 150.106C958.603 150.595 955.178 150.073 951.673 148.668C951.561 150.711 951.467 152.419 951.373 154.128C950.053 154.098 950.233 153.146 950.008 152.59C948.45 149.118 947.583 148.611 943.695 149.526C942.269 149.866 941.147 150.097 940.646 148.356C940.14 146.698 938.752 147.123 937.671 147.398C933.476 148.464 929.402 148.115 925.229 147.217C922.491 146.607 919.699 147.749 916.874 147.176C915.23 146.835 913.619 146.663 912.32 145.463C914.966 146.194 917.661 146.049 920.4 145.865C917.926 145.102 915.492 144.383 912.935 143.574C914.452 142.361 915.844 141.852 918.455 142.455C923.509 143.611 928.516 144.053 933.668 143.416C935.385 143.217 937.119 143.48 938.606 144.356C940.589 145.51 941.069 144.533 941.205 142.826C941.346 141.036 941.527 139.291 942.344 137.621C943.585 138.317 943.514 139.609 943.712 140.665C944.308 143.791 945.949 144.968 948.998 143.798C950.218 143.321 950.825 143.145 951.271 144.34C951.61 145.153 952.049 144.926 952.696 144.795C957.009 143.903 961.202 144.426 965.3 145.905C965.886 146.104 966.342 146.338 966.993 146.123C970.942 144.877 974.882 145.344 978.786 146.478C980.381 146.941 980.826 146.59 980.916 144.964C981.012 143.214 981.533 141.486 981.889 139.667C983.588 140.554 983.244 142.166 983.556 143.479C984.212 146.274 985.86 147.326 988.444 146.088C989.758 145.45 990.544 145.116 991.364 146.499C991.949 147.493 993.023 147.343 993.8 147.176C997.169 146.4 1000.36 147.244 1003.51 148.128C1004.98 148.543 1006.29 148.029 1007.58 147.849C1010.84 147.401 1014 147.449 1017 148.742C1018.75 149.507 1018.93 148.389 1019.2 147.4C1019.69 145.546 1020.01 143.64 1020.46 141.616C1022.37 142.516 1022.06 144.296 1022.12 145.512C1022.22 148.277 1023.89 148.243 1025.82 148.014C1027.62 147.821 1029.38 146.872 1031.04 148.551C1031.44 148.95 1032.6 148.846 1033.37 148.721C1036.77 148.114 1040.13 148.382 1043.45 149.275C1045.17 149.745 1047.02 149.512 1048.82 149.277C1052.34 148.885 1055.71 149.571 1058.86 151.208C1055.26 151.595 1051.83 149.568 1047.78 150.432C1051.33 151.756 1054.72 152.109 1058.16 152.423C1059.6 152.544 1058.67 151.573 1058.79 151.078C1060.5 150.21 1059.39 148.603 1059.75 147.41C1060.11 146.301 1060.35 145.144 1060.63 143.947C1062.41 144.797 1062.19 146.541 1062.59 147.817C1063.47 150.457 1064.95 151.416 1067.41 150.13C1068.86 149.373 1069.82 148.966 1070.7 150.812C1071.31 152.141 1072.79 152.265 1074.13 151.92C1076.42 151.377 1078.65 151.248 1080.92 151.875C1084.45 152.821 1087.96 153.348 1091.67 152.507C1094.3 151.899 1097.03 151.881 1099.37 153.682C1100.57 151.156 1100.12 148.456 1101.66 146.074C1102.7 147.301 1102.84 148.563 1103.16 149.793C1104.08 153.271 1105.83 154.078 1109.57 152.737C1109.61 155.122 1108.53 157.571 1110.31 160.135C1110.65 158.607 1111.02 157.415 1111.12 156.208C1111.23 155.002 1111.62 153.351 1109.42 152.98ZM956.327 145.454C962.236 148.119 968.518 149.426 974.994 149.53C968.646 148.638 962.852 145.436 956.327 145.454ZM1053.21 153.238C1047.57 152.553 1042.58 148.85 1036.17 149.878C1042 151.62 1047.35 153.544 1053.21 153.238ZM1014.11 151.594C1011.13 151.597 1008.37 150.568 1005.51 149.867C1002.73 149.213 1000.07 147.897 996.643 148.21C1002.41 151.161 1008.19 151.561 1014.11 151.594ZM916.744 143.323C921.603 144.927 926.302 147.108 931.617 146.606C926.74 145.335 921.936 143.524 916.744 143.323ZM1090.08 154.259C1093.2 154.932 1096.24 156.311 1100.15 155.69C1096.76 152.912 1093.41 153.48 1090.08 154.259ZM1120.27 158.215C1124.87 158.217 1129.42 157.798 1134.1 156.341C1129.05 155.185 1124.72 157.038 1120.27 158.215ZM1102.14 158.265C1102.91 155.172 1103.16 152.134 1101.57 149.288C1101.1 152.356 1099.78 155.46 1102.14 158.265ZM961.233 148.524C958.801 147.764 956.37 147.003 953.891 146.324C953.303 146.166 952.299 145.818 952 146.596C951.603 147.619 952.701 147.805 953.408 148.136C955.906 149.235 958.536 148.711 961.233 148.524ZM1021.08 145.078C1019.29 147.363 1020.04 149.996 1019.32 152.256C1019.12 152.83 1019.83 153.873 1020.72 153.88C1021.79 153.938 1021.46 152.917 1021.53 152.336C1021.83 150.053 1021.36 147.728 1021.08 145.078ZM1112.19 156.267C1117.29 157.341 1119.04 157.312 1122.04 156.139C1118.5 154.69 1115.35 155.27 1112.19 156.267ZM1076.8 153.028C1081.14 154.061 1085.51 155.137 1089.85 156.169C1085.83 154.067 1081.49 153.077 1076.8 153.028ZM1040.57 152.712C1037.52 151.666 1034.63 149.836 1030.43 151.11C1034.23 152.531 1037.37 152.87 1040.57 152.712ZM979.748 148.37C976.747 146.324 973.31 146.804 969.946 146.703C973.08 147.879 976.333 148.433 979.748 148.37ZM1081.58 155.214C1078.09 154.437 1074.59 153.618 1071.05 152.838C1073.95 156.007 1077.83 155.217 1081.58 155.214ZM982.535 143.423C981.007 145.638 981.393 147.917 981.272 150.126C981.238 150.751 981.635 151.274 982.365 151.189C983.092 151.145 982.956 150.511 983.022 150.096C983.309 147.98 982.958 145.829 982.535 143.423ZM1029.65 155.917C1029.79 153.374 1029.93 151.584 1029.95 149.746C1029.94 149.16 1029.5 148.634 1028.82 148.555C1028.39 148.532 1028.03 148.93 1028.09 149.31C1028.46 151.294 1027.27 153.487 1029.65 155.917ZM942.792 141.116C942.452 141.097 942.152 141.122 941.812 141.104C941.706 143.021 941.559 144.936 941.496 146.856C941.462 147.481 941.154 148.425 942.174 148.481C942.897 148.521 943.363 147.794 943.319 147.039C943.174 145.025 942.982 143.091 942.792 141.116ZM1069.36 157.385C1070.58 155.195 1070.09 153.329 1069.81 151.474C1069.71 150.967 1069.44 150.367 1068.97 150.425C1068.41 150.478 1067.87 151.075 1068.05 151.712C1068.46 153.449 1068.23 155.359 1069.36 157.385ZM940.047 146.065C936.388 144.359 933.759 144.09 929.377 144.685C932.709 146.122 936.015 145.719 940.047 146.065ZM1061.03 147.522C1061.14 150.162 1059.88 152.852 1061.62 155.414C1062.36 152.737 1061.95 150.123 1061.03 147.522ZM999.647 150.967C997.453 149.76 995.44 149.148 993.288 148.737C992.823 148.67 992.248 148.262 992.044 148.878C991.844 149.41 992.022 150.047 992.87 150.135C994.984 150.46 997.022 151.408 999.647 150.967ZM1017.96 150.635C1015.19 148.978 1012.24 148.398 1009.1 149.688C1012.07 150.018 1014.99 150.346 1017.96 150.635ZM990.644 153.399C990.627 150.597 991.559 148.391 989.682 146.072C988.593 148.814 989.381 150.78 990.644 153.399ZM1023.85 148.993C1023 149.741 1022.95 150.657 1022.82 151.445C1022.65 152.23 1022.24 153.378 1023.51 153.573C1024.99 153.821 1024.51 152.457 1024.55 151.749C1024.55 150.913 1025.04 149.894 1023.85 148.993ZM1104.73 158.491C1105.06 157.13 1106.53 156.04 1105.29 154.425C1105.14 154.207 1104.62 154.221 1104.29 154.119C1103.87 155.517 1103.58 156.881 1104.19 158.294C1104.18 158.377 1104.35 158.345 1104.73 158.491Z" fill="white"/>
<path d="M1509.67 174.949C1510.41 173.778 1511.54 174.174 1511.67 175.017C1512.04 177.504 1513.8 176.597 1514.96 176.369C1518.02 175.784 1520.91 176.068 1523.78 177.229C1525.58 177.955 1527.29 177.004 1529.05 176.891C1532.77 176.594 1536.43 176.836 1539.99 178.035C1540.32 178.137 1540.52 178.482 1541.21 179.064C1537.73 179.458 1534.61 178.91 1531.44 180.66C1534.77 181.427 1537.7 180 1540.93 181.138C1537.72 182.091 1534.68 182.342 1531.81 181.808C1528.64 181.216 1525.58 181.007 1522.36 181.457C1519.44 181.84 1516.48 181.26 1513.8 180.36C1511.84 179.667 1511.88 180.464 1511.72 181.793C1511.57 183.038 1511.29 184.277 1511.05 185.518C1510.59 185.368 1510.29 185.31 1510.25 185.224C1509.77 180.808 1507.08 180.158 1503.35 181.291C1502.48 181.536 1501.51 181.441 1501.16 180.837C1499.8 178.379 1497.76 179.02 1495.74 179.369C1495.65 179.364 1495.52 179.44 1495.43 179.436C1487.47 178.538 1479.36 179.473 1470.99 177.216C1470.92 178.55 1470.84 179.967 1470.77 181.342C1470.74 181.884 1470.95 182.69 1470.14 182.729C1469.41 182.773 1469.28 182.055 1469.05 181.541C1469.01 181.455 1469.02 181.33 1468.98 181.244C1467.41 177.312 1467.33 177.14 1463.12 178.456C1461.08 179.097 1460.29 178.761 1460.23 176.751C1460.21 175.621 1459.88 175.31 1458.59 175.574C1454.06 176.537 1449.56 176.165 1444.94 175.744C1440.82 175.351 1436.59 176.248 1432.48 174.977C1431.1 174.566 1430.91 175.685 1430.72 176.72C1430.44 178 1431.08 179.54 1429.66 180.508C1428.01 179.539 1428.89 176.703 1426.78 176.419C1425.08 176.201 1423.26 176.686 1421.54 177.01C1420.46 177.243 1419.58 176.986 1419.33 176.053C1418.8 174.184 1417.81 174.213 1416.09 174.495C1413.04 174.955 1409.96 175.12 1406.9 174.158C1404.47 173.397 1401.94 174.429 1399.43 174.291C1398.84 174.259 1398.21 174.099 1397.65 174.193C1395.84 174.47 1393.95 172.36 1392.56 173.705C1391.56 174.696 1391.62 176.747 1391.19 178.437C1390.82 178.208 1390.48 178.106 1390.36 177.891C1389.63 176.512 1390.01 174.234 1388.55 173.694C1387.17 173.2 1385.22 173.804 1383.62 174.176C1382.62 174.414 1381.5 174.603 1381.21 173.793C1380.32 171.278 1378.69 172.275 1376.94 172.388C1374.67 172.514 1372.4 172.724 1370.07 172.304C1367.5 171.828 1364.86 171.683 1362.11 172.076C1358.85 172.565 1355.42 172.043 1351.92 170.638C1351.8 172.68 1351.71 174.389 1351.62 176.098C1350.3 176.067 1350.48 175.116 1350.25 174.56C1348.69 171.088 1347.82 170.581 1343.94 171.496C1342.51 171.836 1341.39 172.067 1340.89 170.325C1340.38 168.667 1338.99 169.093 1337.91 169.368C1333.72 170.434 1329.64 170.084 1325.47 169.187C1322.73 168.576 1319.94 169.719 1317.12 169.146C1315.47 168.805 1313.86 168.633 1312.56 167.433C1315.21 168.163 1317.9 168.019 1320.64 167.835C1318.17 167.072 1315.73 166.353 1313.18 165.544C1314.69 164.331 1316.09 163.822 1318.7 164.425C1323.75 165.58 1328.76 166.023 1333.91 165.386C1335.63 165.187 1337.36 165.45 1338.85 166.326C1340.83 167.48 1341.31 166.503 1341.45 164.796C1341.59 163.006 1341.77 161.26 1342.59 159.591C1343.83 160.286 1343.76 161.578 1343.95 162.634C1344.55 165.761 1346.19 166.938 1349.24 165.767C1350.46 165.291 1351.07 165.115 1351.51 166.31C1351.85 167.123 1352.29 166.896 1352.94 166.765C1357.25 165.873 1361.44 166.395 1365.54 167.874C1366.13 168.074 1366.58 168.308 1367.24 168.093C1371.18 166.846 1375.12 167.313 1379.03 168.447C1380.62 168.911 1381.07 168.559 1381.16 166.934C1381.25 165.183 1381.78 163.456 1382.13 161.636C1383.83 162.524 1383.49 164.135 1383.8 165.448C1384.45 168.244 1386.1 169.296 1388.69 168.058C1390 167.419 1390.79 167.086 1391.61 168.469C1392.19 169.463 1393.27 169.313 1394.04 169.146C1397.41 168.37 1400.61 169.214 1403.75 170.097C1405.22 170.512 1406.53 169.999 1407.82 169.819C1411.09 169.371 1414.24 169.419 1417.24 170.712C1418.99 171.477 1419.18 170.359 1419.44 169.37C1419.93 167.515 1420.25 165.61 1420.7 163.586C1422.61 164.485 1422.3 166.266 1422.36 167.482C1422.47 170.246 1424.13 170.212 1426.06 169.984C1427.86 169.79 1429.62 168.842 1431.28 170.521C1431.68 170.92 1432.84 170.816 1433.61 170.691C1437.02 170.084 1440.37 170.351 1443.69 171.244C1445.41 171.715 1447.26 171.482 1449.06 171.247C1452.58 170.854 1455.95 171.541 1459.11 173.177C1455.5 173.565 1452.07 171.537 1448.02 172.402C1451.57 173.725 1454.96 174.079 1458.4 174.393C1459.84 174.514 1458.92 173.543 1459.03 173.048C1460.74 172.18 1459.63 170.573 1460 169.38C1460.36 168.271 1460.59 167.113 1460.87 165.916C1462.66 166.767 1462.43 168.511 1462.83 169.787C1463.71 172.427 1465.19 173.386 1467.65 172.1C1469.1 171.343 1470.06 170.936 1470.94 172.782C1471.55 174.111 1473.03 174.235 1474.38 173.89C1476.66 173.347 1478.89 173.218 1481.16 173.844C1484.69 174.791 1488.2 175.318 1491.91 174.476C1494.55 173.869 1497.28 173.851 1499.61 175.651C1500.81 173.126 1500.36 170.425 1501.9 168.043C1502.94 169.271 1503.09 170.533 1503.4 171.763C1504.32 175.241 1506.07 176.048 1509.81 174.706C1509.85 177.091 1508.78 179.541 1510.55 182.105C1510.89 180.577 1511.26 179.384 1511.37 178.178C1511.47 176.972 1511.86 175.321 1509.67 174.949ZM1356.57 167.424C1362.48 170.089 1368.76 171.395 1375.24 171.5C1368.89 170.608 1363.09 167.406 1356.57 167.424ZM1453.45 175.208C1447.82 174.523 1442.82 170.82 1436.41 171.848C1442.24 173.589 1447.59 175.514 1453.45 175.208ZM1414.35 173.564C1411.37 173.567 1408.61 172.538 1405.75 171.837C1402.97 171.183 1400.31 169.867 1396.89 170.18C1402.65 173.13 1408.43 173.531 1414.35 173.564ZM1316.99 165.293C1321.84 166.897 1326.54 169.078 1331.86 168.576C1326.98 167.305 1322.18 165.494 1316.99 165.293ZM1490.32 176.229C1493.44 176.901 1496.48 178.281 1500.39 177.659C1497.01 174.881 1493.65 175.45 1490.32 176.229ZM1520.51 180.185C1525.11 180.187 1529.66 179.767 1534.34 178.31C1529.29 177.155 1524.97 179.008 1520.51 180.185ZM1502.38 180.235C1503.15 177.142 1503.4 174.104 1501.81 171.257C1501.34 174.325 1500.02 177.43 1502.38 180.235ZM1361.48 170.494C1359.04 169.733 1356.61 168.973 1354.13 168.293C1353.55 168.136 1352.54 167.788 1352.24 168.566C1351.84 169.589 1352.94 169.775 1353.65 170.106C1356.15 171.205 1358.78 170.68 1361.48 170.494ZM1421.32 167.048C1419.53 169.333 1420.28 171.966 1419.56 174.226C1419.36 174.8 1420.07 175.842 1420.97 175.85C1422.03 175.908 1421.7 174.887 1421.77 174.305C1422.07 172.022 1421.6 169.697 1421.32 167.048ZM1512.43 178.236C1517.53 179.311 1519.28 179.281 1522.29 178.109C1518.74 176.66 1515.6 177.24 1512.43 178.236ZM1477.04 174.998C1481.38 176.03 1485.75 177.107 1490.09 178.139C1486.07 176.037 1481.73 175.046 1477.04 174.998ZM1440.82 174.682C1437.76 173.636 1434.88 171.806 1430.67 173.08C1434.47 174.501 1437.61 174.84 1440.82 174.682ZM1379.99 170.34C1376.99 168.294 1373.55 168.774 1370.19 168.673C1373.32 169.848 1376.58 170.403 1379.99 170.34ZM1481.83 177.184C1478.33 176.406 1474.84 175.588 1471.3 174.808C1474.19 177.977 1478.07 177.187 1481.83 177.184ZM1382.78 165.392C1381.25 167.608 1381.64 169.886 1381.51 172.096C1381.48 172.721 1381.88 173.244 1382.61 173.159C1383.33 173.115 1383.2 172.481 1383.26 172.066C1383.55 169.95 1383.2 167.799 1382.78 165.392ZM1429.89 177.886C1430.03 175.344 1430.17 173.554 1430.19 171.716C1430.18 171.13 1429.74 170.604 1429.06 170.525C1428.64 170.502 1428.27 170.9 1428.34 171.279C1428.7 173.264 1427.51 175.456 1429.89 177.886ZM1343.03 163.085C1342.69 163.067 1342.39 163.092 1342.05 163.073C1341.95 164.991 1341.8 166.906 1341.74 168.825C1341.7 169.45 1341.4 170.395 1342.42 170.451C1343.14 170.491 1343.61 169.764 1343.56 169.009C1343.42 166.994 1343.22 165.061 1343.03 163.085ZM1469.6 179.355C1470.83 177.165 1470.33 175.299 1470.05 173.444C1469.95 172.936 1469.68 172.337 1469.21 172.394C1468.65 172.447 1468.11 173.045 1468.29 173.681C1468.71 175.418 1468.47 177.329 1469.6 179.355ZM1340.29 168.035C1336.63 166.329 1334 166.059 1329.62 166.655C1332.95 168.092 1336.26 167.688 1340.29 168.035ZM1461.27 169.492C1461.38 172.132 1460.12 174.822 1461.86 177.384C1462.6 174.707 1462.19 172.093 1461.27 169.492ZM1399.89 172.937C1397.7 171.73 1395.68 171.117 1393.53 170.707C1393.06 170.639 1392.49 170.231 1392.29 170.847C1392.09 171.38 1392.26 172.017 1393.11 172.105C1395.23 172.43 1397.26 173.378 1399.89 172.937ZM1418.2 172.604C1415.43 170.947 1412.48 170.367 1409.34 171.658C1412.31 171.988 1415.23 172.316 1418.2 172.604ZM1390.89 175.369C1390.87 172.567 1391.8 170.361 1389.92 168.042C1388.84 170.783 1389.62 172.75 1390.89 175.369ZM1424.09 170.963C1423.24 171.71 1423.19 172.627 1423.06 173.414C1422.89 174.199 1422.49 175.348 1423.75 175.543C1425.23 175.791 1424.75 174.427 1424.79 173.719C1424.8 172.883 1425.28 171.864 1424.09 170.963ZM1504.97 180.461C1505.3 179.099 1506.77 178.009 1505.54 176.395C1505.38 176.177 1504.87 176.191 1504.53 176.089C1504.11 177.487 1503.82 178.851 1504.43 180.264C1504.42 180.347 1504.6 180.315 1504.97 180.461Z" fill="white"/>
</g>
</svg>
