<svg width="1440" height="1233" viewBox="0 0 1440 1233" fill="none" xmlns="http://www.w3.org/2000/svg">
<g opacity="0.15">
<path d="M98.861 776.268C98.5824 774.914 97.407 774.898 96.9998 775.646C95.7907 777.849 94.4935 776.397 93.5039 775.784C90.8966 774.187 88.1489 773.464 85.1011 773.566C83.2012 773.631 81.9563 772.152 80.3839 771.444C77.0645 769.888 73.624 768.863 69.9384 768.767C69.5948 768.748 69.2964 769.005 68.4577 769.312C71.5131 770.874 74.5744 771.431 76.8747 774.157C73.5521 773.736 71.3521 771.392 67.9978 771.355C70.6132 773.348 73.3195 774.626 76.1416 775.109C79.2551 775.64 82.1376 776.492 84.9414 778.019C87.491 779.379 90.4052 779.847 93.1794 779.923C95.2263 779.947 94.9112 780.679 94.5946 781.98C94.3027 783.2 94.1304 784.458 93.9183 785.704C94.3939 785.72 94.6854 785.767 94.75 785.7C96.7282 781.725 99.428 782.039 102.46 784.38C103.17 784.907 104.1 785.152 104.632 784.705C106.733 782.867 108.383 784.166 110.121 785.187C110.2 785.212 110.295 785.329 110.375 785.353C118.005 787.244 125.131 790.9 133.596 791.651C133.199 792.926 132.778 794.282 132.369 795.597C132.208 796.115 131.734 796.799 132.467 797.114C133.119 797.404 133.489 796.776 133.877 796.372C133.942 796.304 133.979 796.185 134.044 796.117C136.857 792.97 136.987 792.836 140.395 795.512C142.046 796.812 142.89 796.768 143.644 794.904C144.058 793.853 144.463 793.673 145.56 794.363C149.386 796.82 153.649 798.013 158.044 799.204C161.96 800.246 165.532 802.536 169.748 802.753C171.162 802.843 170.948 803.957 170.758 804.99C170.573 806.288 169.449 807.513 170.415 808.906C172.27 808.564 172.447 805.603 174.489 806.063C176.121 806.439 177.622 807.517 179.093 808.411C180.002 809 180.901 809.06 181.453 808.27C182.596 806.702 183.488 807.067 184.971 807.921C187.615 809.398 190.386 810.609 193.532 810.756C196.029 810.876 197.995 812.711 200.346 813.442C200.905 813.615 201.54 813.681 202.021 813.962C203.583 814.841 206.051 813.51 206.866 815.249C207.433 816.518 206.667 818.422 206.478 820.155C206.899 820.067 207.242 820.087 207.424 819.925C208.578 818.884 209.02 816.618 210.551 816.613C211.99 816.623 213.574 817.858 214.912 818.755C215.742 819.319 216.705 819.88 217.259 819.221C218.946 817.167 220.099 818.662 221.672 819.369C223.71 820.264 225.724 821.24 228.003 821.642C230.533 822.079 233.005 822.847 235.395 824.158C238.226 825.737 241.554 826.421 245.262 826.306C244.655 828.259 244.147 829.893 243.639 831.528C244.863 831.951 245.028 830.997 245.428 830.554C248.066 827.833 249.039 827.654 252.292 829.845C253.484 830.653 254.433 831.254 255.499 829.793C256.541 828.412 257.667 829.286 258.565 829.915C262.048 832.352 265.911 833.422 270.056 834.01C272.783 834.377 274.95 836.405 277.745 836.836C279.374 837.08 280.914 837.471 282.524 836.791C279.839 836.569 277.414 835.51 274.962 834.398C277.5 834.531 279.985 834.691 282.615 834.809C281.644 833.152 280.542 832.198 277.934 831.868C272.89 831.219 268.137 829.917 263.626 827.554C262.118 826.779 260.434 826.431 258.764 826.742C256.541 827.144 256.44 826.064 256.908 824.417C257.4 822.69 257.841 820.991 257.671 819.146C256.289 819.373 255.905 820.609 255.357 821.531C253.722 824.258 251.806 824.799 249.412 822.656C248.457 821.791 247.961 821.418 247.136 822.386C246.541 823.032 246.217 822.669 245.669 822.323C242.017 820.008 237.984 819.061 233.706 819.043C233.098 819.029 232.598 819.092 232.074 818.667C228.88 816.145 225.099 815.232 221.119 814.957C219.493 814.845 219.206 814.363 219.689 812.808C220.209 811.134 220.331 809.336 220.636 807.507C218.767 807.757 218.523 809.386 217.78 810.51C216.205 812.906 214.326 813.327 212.383 811.281C211.397 810.232 210.791 809.65 209.558 810.665C208.675 811.396 207.741 810.887 207.085 810.465C204.261 808.582 201.033 808.279 197.833 808.027C196.338 807.913 195.316 806.983 194.194 806.372C191.351 804.833 188.438 803.797 185.234 803.981C183.361 804.099 183.576 802.985 183.674 801.967C183.873 800.061 184.243 798.166 184.531 796.113C182.462 796.301 182.129 798.077 181.65 799.196C180.593 801.752 179.076 801.15 177.381 800.273C175.794 799.474 174.509 797.982 172.404 798.989C171.894 799.224 170.867 798.73 170.199 798.348C167.285 796.612 164.111 795.713 160.752 795.412C159.006 795.263 157.391 794.412 155.816 793.572C152.72 791.999 149.383 791.486 145.92 791.94C149.095 793.538 152.948 792.813 156.373 795.013C152.651 795.037 149.412 794.205 146.146 793.321C144.778 792.94 145.968 792.348 146.037 791.845C144.767 790.445 146.341 789.317 146.422 788.074C146.477 786.911 146.664 785.746 146.824 784.528C144.887 784.713 144.487 786.424 143.677 787.484C141.952 789.658 140.257 790.049 138.446 788C137.378 786.794 136.637 786.083 135.188 787.512C134.166 788.55 132.758 788.156 131.647 787.373C129.732 786.079 127.733 785.196 125.432 785.005C121.861 784.682 118.453 783.973 115.335 781.911C113.126 780.438 110.625 779.486 107.857 780.375C107.628 777.594 108.979 775.216 108.395 772.455C107.011 773.249 106.44 774.383 105.722 775.428C103.67 778.374 101.786 778.532 98.8157 775.992C97.9502 778.214 98.084 780.878 95.5594 782.673C95.7785 781.124 95.8587 779.881 96.178 778.713C96.4974 777.544 96.7138 775.863 98.861 776.268ZM242.104 821.697C235.75 822.17 229.526 821.241 223.541 819.119C229.682 820.459 236.117 819.443 242.104 821.697ZM150.408 795.782C155.821 797.071 161.7 795.313 167.231 798.475C161.269 798.108 155.684 798.077 150.408 795.782ZM186.893 807.644C189.634 808.67 192.525 808.651 195.396 808.975C198.176 809.314 201.074 808.991 204.114 810.46C197.793 811.25 192.347 809.645 186.893 807.644ZM279.204 833.268C274.183 833.107 269.109 833.541 264.401 831.248C269.323 831.728 274.365 831.677 279.204 833.268ZM116.185 784.099C113.087 783.661 109.817 783.912 106.438 781.988C110.514 780.545 113.4 782.228 116.185 784.099ZM87.0821 777.46C82.8513 775.883 78.8241 773.932 75.0268 770.96C80.0704 771.609 83.3974 774.829 87.0821 777.46ZM103.714 783.721C104.085 780.558 104.909 777.623 107.361 775.5C106.723 778.536 106.858 781.9 103.714 783.721ZM236.531 822.893C239.029 823.014 241.526 823.134 244.039 823.347C244.635 823.401 245.678 823.419 245.682 824.251C245.691 825.346 244.617 825.144 243.853 825.212C241.176 825.386 238.943 823.993 236.531 822.893ZM182.758 799.147C183.607 801.902 182.002 804.113 181.878 806.479C181.864 807.087 180.85 807.82 180.025 807.52C179.028 807.211 179.684 806.366 179.818 805.795C180.34 803.553 181.579 801.534 182.758 799.147ZM95.1815 778.403C90.1228 777.662 88.5256 777.034 86.1715 774.904C89.9314 774.761 92.6184 776.383 95.1815 778.403ZM128.81 787.498C124.469 786.979 120.076 786.488 115.735 785.97C120.159 785.377 124.488 785.936 128.81 787.498ZM162.198 799.621C165.368 799.688 168.654 798.96 172.074 801.597C168.088 801.626 165.088 800.868 162.198 799.621ZM219.578 816.401C223.045 815.512 226.036 817.141 229.16 818.199C225.873 818.226 222.692 817.631 219.578 816.401ZM123.657 787.907C127.138 788.377 130.633 788.807 134.155 789.289C130.393 791.268 127.102 789.196 123.657 787.907ZM218.737 810.807C219.371 813.409 218.224 815.412 217.567 817.525C217.382 818.123 216.834 818.478 216.194 818.147C215.541 817.857 215.886 817.309 215.97 816.898C216.442 814.815 217.513 812.919 218.737 810.807ZM171.116 806.369C171.871 803.938 172.364 802.211 172.989 800.482C173.202 799.937 173.789 799.594 174.439 799.753C174.838 799.877 175.033 800.374 174.842 800.708C173.821 802.446 174.149 804.908 171.116 806.369ZM256.045 822.269C256.364 822.368 256.631 822.495 256.949 822.594C256.38 824.428 255.85 826.274 255.24 828.095C255.054 828.693 255.009 829.684 254.052 829.387C253.374 829.176 253.199 828.335 253.501 827.642C254.335 825.803 255.184 824.056 256.045 822.269ZM134.135 794.135C133.768 791.661 134.871 790.08 135.774 788.438C136.043 787.996 136.495 787.525 136.909 787.741C137.402 787.982 137.695 788.728 137.31 789.264C136.323 790.75 135.873 792.621 134.135 794.135ZM256.846 827.851C260.8 827.506 263.308 828.154 267.126 830.215C263.566 830.42 260.67 828.908 256.846 827.851ZM145.213 787.743C144.194 790.18 144.413 793.133 141.928 794.939C142.175 792.175 143.461 789.865 145.213 787.743ZM200.396 812.015C202.831 811.635 204.893 811.751 207.013 812.104C207.464 812.2 208.133 812.015 208.107 812.662C208.105 813.23 207.72 813.766 206.911 813.558C204.856 813.138 202.655 813.328 200.396 812.015ZM183.692 805.425C186.809 804.82 189.723 805.289 192.159 807.576C189.32 806.868 186.519 806.173 183.692 805.425ZM207.821 817.382C208.81 814.76 208.722 812.372 211.252 810.842C211.299 813.785 209.892 815.359 207.821 817.382ZM178.853 801.867C179.375 802.86 179.102 803.737 178.947 804.519C178.831 805.314 178.803 806.529 177.57 806.277C176.125 806.003 177.04 804.888 177.251 804.211C177.538 803.426 177.449 802.305 178.853 801.867ZM101.257 783.045C101.427 781.655 100.458 780.13 102.152 779.039C102.374 778.889 102.84 779.078 103.183 779.097C103.081 780.552 102.872 781.929 101.825 783.046C101.8 783.126 101.653 783.037 101.257 783.045Z" fill="white"/>
<path d="M74.3797 768.66C75.3895 767.706 76.3882 768.366 76.3032 769.214C76.0603 771.717 77.984 771.266 79.1685 771.328C82.2783 771.507 85.006 772.486 87.5143 774.315C89.0769 775.456 90.9723 774.952 92.7013 775.271C96.3874 775.891 99.8717 777.018 103.031 779.049C103.331 779.229 103.435 779.611 103.965 780.344C100.499 779.879 97.6012 778.585 94.1039 779.509C97.1427 781.066 100.338 780.397 103.184 782.287C99.8402 782.428 96.8295 781.93 94.1761 780.712C91.2505 779.366 88.3353 778.416 85.1 778.067C82.1741 777.726 79.4518 776.443 77.0725 774.916C75.3349 773.765 75.1808 774.547 74.7031 775.798C74.2502 776.968 73.6753 778.101 73.1411 779.246C72.731 778.988 72.4588 778.859 72.4429 778.767C73.0522 774.367 70.5986 773.08 66.7055 773.269C65.8056 773.295 64.8828 772.965 64.6903 772.293C63.9732 769.578 61.8392 769.702 59.7919 769.547C59.7106 769.522 59.5639 769.563 59.4825 769.538C51.9747 766.724 43.8812 765.652 36.3224 761.424C35.9261 762.699 35.5049 764.054 35.0962 765.37C34.9352 765.888 34.9438 766.721 34.1465 766.561C33.4305 766.426 33.4784 765.698 33.3831 765.144C33.3672 765.051 33.4043 764.932 33.3884 764.839C32.8203 760.641 32.7885 760.457 28.3862 760.706C26.2522 760.83 25.5664 760.311 25.9983 758.347C26.2514 757.245 26.0128 756.865 24.6939 756.805C20.0654 756.634 15.7926 755.175 11.4102 753.639C7.51571 752.254 3.19658 752.092 -0.478447 749.857C-1.72114 749.121 -2.17755 750.16 -2.60919 751.118C-3.19648 752.291 -2.95117 753.941 -4.56196 754.533C-5.92824 753.19 -4.38236 750.655 -6.36582 749.864C-7.95506 749.239 -9.83619 749.266 -11.5865 749.159C-12.6897 749.122 -13.4816 748.658 -13.4937 747.692C-13.5586 745.749 -14.5186 745.538 -16.2564 745.391C-19.3291 745.092 -22.3557 744.502 -25.0886 742.822C-27.2611 741.491 -29.9662 741.874 -32.3651 741.129C-32.9344 740.952 -33.5071 740.643 -34.0728 740.598C-35.892 740.426 -37.2085 737.919 -38.8901 738.883C-40.0943 739.602 -40.5386 741.605 -41.3717 743.139C-41.6757 742.826 -41.9762 742.645 -42.0363 742.408C-42.4125 740.892 -41.4873 738.775 -42.7741 737.895C-43.992 737.079 -46.0323 737.188 -47.673 737.159C-48.6949 737.148 -49.8263 737.058 -49.9163 736.2C-50.1613 733.545 -51.9878 734.114 -53.7168 733.795C-55.9461 733.365 -58.2002 733.014 -60.3498 732.04C-62.7309 730.95 -65.2519 730.167 -68.0151 729.877C-71.3035 729.554 -74.4979 728.212 -77.5541 725.994C-78.161 727.948 -78.6689 729.582 -79.1767 731.216C-80.4496 730.865 -80.0427 729.986 -80.1256 729.392C-80.7894 725.645 -81.507 724.941 -85.5009 724.88C-86.9665 724.862 -88.1104 724.812 -88.1718 723.001C-88.2579 721.27 -89.7077 721.344 -90.8233 721.347C-95.1513 721.357 -99.0175 720.024 -102.845 718.136C-105.351 716.876 -108.338 717.303 -110.938 716.058C-112.449 715.326 -113.97 714.766 -114.936 713.286C-112.548 714.64 -109.9 715.157 -107.199 715.646C-109.412 714.303 -111.597 713.012 -113.879 711.604C-112.112 710.798 -110.638 710.644 -108.253 711.866C-103.634 714.219 -98.8856 715.869 -93.7338 716.508C-92.0207 716.735 -90.4032 717.412 -89.1748 718.624C-87.5328 720.227 -86.8289 719.397 -86.2804 717.775C-85.7071 716.074 -85.1056 714.425 -83.9065 713.005C-82.8725 713.982 -83.2565 715.218 -83.3222 716.29C-83.5069 719.468 -82.2025 721.009 -78.96 720.618C-77.6605 720.454 -77.0293 720.431 -76.8882 721.699C-76.7576 722.57 -76.2767 722.457 -75.6172 722.488C-71.2168 722.675 -67.2781 724.205 -63.665 726.639C-63.1453 726.975 -62.76 727.313 -62.0758 727.264C-57.9422 727.018 -54.2351 728.432 -50.7262 730.484C-49.2926 731.323 -48.7746 731.091 -48.2915 729.536C-47.7713 727.862 -46.8444 726.314 -46.0554 724.636C-44.6237 725.911 -45.3508 727.39 -45.3688 728.74C-45.4138 731.61 -44.0723 733.033 -41.2646 732.463C-39.8342 732.164 -38.9908 732.033 -38.5333 733.574C-38.2083 734.68 -37.1299 734.797 -36.3361 734.825C-32.8797 734.893 -29.9877 736.491 -27.1488 738.117C-25.8248 738.878 -24.4316 738.699 -23.1374 738.838C-19.8615 739.201 -16.8155 740.016 -14.2224 742.002C-12.7128 743.171 -12.2564 742.132 -11.7558 741.239C-10.8325 739.559 -10.0594 737.788 -9.1272 735.936C-7.49218 737.274 -8.22811 738.925 -8.46533 740.119C-9.03888 742.826 -7.41598 743.199 -5.48718 743.449C-3.69275 743.7 -1.75668 743.209 -0.560305 745.242C-0.265182 745.727 0.882186 745.909 1.66361 745.977C5.11111 746.218 8.29848 747.295 11.3001 748.971C12.8556 749.848 14.7031 750.072 16.5099 750.284C20.0175 750.762 23.1216 752.251 25.7783 754.607C22.1894 754.103 19.3596 751.301 15.2155 751.149C18.3372 753.3 21.5405 754.47 24.7968 755.613C26.1668 756.082 25.5042 754.915 25.7341 754.462C27.6048 754.038 26.9246 752.209 27.5684 751.141C28.1875 750.154 28.6969 749.088 29.2594 747.995C30.7849 749.256 30.1426 750.892 30.2183 752.227C30.4262 755.002 31.6298 756.294 34.3279 755.646C35.9175 755.266 36.9482 755.105 37.3508 757.11C37.6174 758.548 39.0281 759.03 40.4124 759.023C42.7656 759.055 44.9542 759.472 47.0012 760.633C50.1937 762.412 53.4694 763.779 57.2758 763.869C59.9791 763.923 62.6309 764.572 64.453 766.886C66.2375 764.731 66.461 762.003 68.5336 760.068C69.2439 761.512 69.0756 762.771 69.0824 764.041C69.1238 767.638 70.621 768.847 74.576 768.458C74.0327 770.781 72.3949 772.895 73.4938 775.815C74.1961 774.416 74.8399 773.349 75.2398 772.205C75.6397 771.062 76.4198 769.556 74.3797 768.66ZM-72.2567 724.013C-67.1766 728.039 -61.4032 730.838 -55.1485 732.52C-61.0865 730.106 -65.9242 725.587 -72.2567 724.013ZM19.7988 755.196C14.5025 753.157 10.5577 748.347 4.09056 747.78C9.32117 750.891 14.0426 754.063 19.7988 755.196ZM-17.7164 744.064C-20.6122 743.339 -23.0356 741.668 -25.6395 740.29C-28.1744 738.978 -30.4299 737.053 -33.8313 736.521C-28.9599 740.788 -23.4549 742.586 -17.7164 744.064ZM-110.124 712.29C-105.803 715.031 -101.779 718.292 -96.5014 719.102C-100.921 716.679 -105.138 713.751 -110.124 712.29ZM55.3077 765.181C58.1679 766.594 60.7769 768.673 64.7247 769.025C62.1179 765.505 58.7235 765.237 55.3077 765.181ZM83.6171 776.382C88.0827 777.507 92.5909 778.209 97.49 777.939C92.8709 775.586 88.2263 776.328 83.6171 776.382ZM66.0269 772.009C67.5252 769.196 68.5107 766.311 67.6611 763.162C66.4599 766.024 64.4207 768.712 66.0269 772.009ZM-68.2481 728.187C-70.4205 726.856 -72.593 725.525 -74.831 724.262C-75.363 723.965 -76.2522 723.383 -76.7315 724.065C-77.3664 724.96 -76.3464 725.408 -75.7419 725.902C-73.5872 727.577 -70.9087 727.71 -68.2481 728.187ZM-9.37036 739.445C-11.6621 741.224 -11.5762 743.961 -12.8267 745.976C-13.1628 746.484 -12.7282 747.668 -11.8619 747.893C-10.8454 748.209 -10.9141 747.139 -10.7 746.593C-9.85612 744.452 -9.74411 742.082 -9.37036 739.445ZM76.2563 772.521C80.9408 774.807 82.6451 775.206 85.847 774.802C82.7625 772.532 79.5713 772.327 76.2563 772.521ZM42.7298 760.748C46.6824 762.807 50.6633 764.918 54.616 766.977C51.2293 763.957 47.2643 761.939 42.7298 760.748ZM7.67323 751.603C4.96516 749.844 2.61441 747.365 -1.77553 747.574C1.56533 749.88 4.52463 750.975 7.67323 751.603ZM-50.2548 732.554C-52.6655 729.838 -56.1165 729.465 -59.3535 728.547C-56.6012 730.451 -53.5819 731.782 -50.2548 732.554ZM46.8359 764.035C43.6345 762.428 40.4455 760.781 37.2035 759.162C39.2392 762.942 43.1959 763.122 46.8359 764.035ZM-46.3446 728.436C-48.3677 730.212 -48.5486 732.516 -49.2051 734.629C-49.3909 735.227 -49.133 735.831 -48.4046 735.926C-47.6886 736.062 -47.6654 735.413 -47.5009 735.027C-46.7065 733.045 -46.5221 730.873 -46.3446 728.436ZM-3.70029 752.047C-2.94472 749.615 -2.37143 747.914 -1.90774 746.135C-1.77499 745.564 -2.07362 744.947 -2.71179 744.705C-3.11839 744.578 -3.56754 744.876 -3.5977 745.26C-3.73261 747.272 -5.41798 749.109 -3.70029 752.047ZM-84.3247 716.503C-84.65 716.402 -84.947 716.354 -85.2722 716.253C-85.842 718.086 -86.4525 719.907 -86.9816 721.754C-87.1674 722.352 -87.6962 723.193 -86.7204 723.496C-86.0292 723.711 -85.3996 723.12 -85.258 722.377C-84.9074 720.388 -84.6222 718.465 -84.3247 716.503ZM34.4462 763.157C36.1722 761.333 36.1479 759.402 36.327 757.535C36.3537 757.018 36.2425 756.372 35.7704 756.313C35.2171 756.228 34.5434 756.674 34.5609 757.336C34.5409 759.122 33.8492 760.917 34.4462 763.157ZM-88.1941 720.634C-91.3263 718.087 -93.8101 717.184 -98.2051 716.693C-95.3239 718.899 -92.0197 719.314 -88.1941 720.634ZM28.7758 751.56C28.2394 754.147 26.3648 756.45 27.423 759.358C28.7974 756.943 29.0367 754.308 28.7758 751.56ZM-31.5904 739.927C-33.4234 738.221 -35.2264 737.136 -37.2134 736.213C-37.6482 736.034 -38.106 735.499 -38.4544 736.046C-38.7781 736.514 -38.7606 737.175 -37.9598 737.467C-35.9887 738.298 -34.2441 739.715 -31.5904 739.927ZM-13.7509 744.072C-16.0292 741.79 -18.7515 740.507 -22.1126 740.993C-19.3159 742.037 -16.5599 743.068 -13.7509 744.072ZM-40.9148 740.09C-40.2475 737.368 -38.8061 735.456 -40.0606 732.749C-41.7851 735.142 -41.501 737.241 -40.9148 740.09ZM-7.63894 743.917C-8.64682 744.434 -8.91932 745.311 -9.23598 746.043C-9.5933 746.763 -10.2654 747.778 -9.08277 748.276C-7.70921 748.878 -7.84143 747.438 -7.63086 746.76C-7.42379 745.951 -6.70753 745.08 -7.63894 743.917ZM68.4824 772.859C69.1351 771.62 70.8237 770.92 70.0216 769.054C69.9209 768.804 69.4206 768.692 69.1201 768.511C68.3736 769.766 67.7616 771.018 68.0034 772.535C67.9786 772.615 68.1536 772.626 68.4824 772.859Z" fill="white"/>
<path d="M457.173 887.606C458.182 886.652 459.181 887.312 459.096 888.16C458.853 890.663 460.777 890.212 461.961 890.274C465.071 890.454 467.799 891.432 470.307 893.261C471.87 894.402 473.765 893.898 475.494 894.217C479.18 894.838 482.665 895.964 485.824 897.995C486.124 898.176 486.228 898.558 486.758 899.291C483.292 898.825 480.394 897.532 476.897 898.456C479.936 900.012 483.131 899.344 485.976 901.233C482.633 901.375 479.622 900.876 476.969 899.658C474.043 898.312 471.128 897.362 467.893 897.013C464.967 896.672 462.245 895.389 459.865 893.863C458.128 892.711 457.974 893.493 457.496 894.744C457.043 895.914 456.468 897.047 455.934 898.192C455.524 897.934 455.252 897.806 455.236 897.713C455.845 893.313 453.392 892.026 449.498 892.215C448.599 892.241 447.676 891.911 447.483 891.239C446.766 888.525 444.632 888.648 442.585 888.493C442.504 888.468 442.357 888.51 442.276 888.484C434.768 885.671 426.674 884.598 419.115 880.37C418.719 881.645 418.298 883.001 417.889 884.316C417.728 884.834 417.737 885.668 416.939 885.507C416.223 885.372 416.271 884.644 416.176 884.09C416.16 883.997 416.197 883.878 416.181 883.786C415.613 879.588 415.581 879.403 411.179 879.652C409.045 879.776 408.359 879.257 408.791 877.293C409.044 876.191 408.806 875.811 407.487 875.751C402.858 875.58 398.586 874.122 394.203 872.585C390.309 871.2 385.99 871.038 382.315 868.803C381.072 868.068 380.615 869.106 380.184 870.065C379.596 871.237 379.842 872.887 378.231 873.479C376.865 872.137 378.411 869.601 376.427 868.81C374.838 868.185 372.957 868.212 371.207 868.106C370.103 868.069 369.311 867.604 369.299 866.639C369.234 864.695 368.274 864.484 366.537 864.338C363.464 864.039 360.437 863.448 357.704 861.768C355.532 860.437 352.827 860.821 350.428 860.075C349.859 859.898 349.286 859.589 348.72 859.545C346.901 859.373 345.584 856.866 343.903 857.829C342.699 858.548 342.254 860.552 341.421 862.085C341.117 861.772 340.817 861.591 340.757 861.354C340.381 859.838 341.306 857.722 340.019 856.841C338.801 856.025 336.761 856.134 335.12 856.105C334.098 856.094 332.967 856.005 332.877 855.146C332.632 852.491 330.805 853.06 329.076 852.741C326.847 852.311 324.593 851.96 322.443 850.986C320.062 849.897 317.541 849.113 314.778 848.823C311.489 848.5 308.295 847.158 305.239 844.941C304.632 846.894 304.124 848.528 303.616 850.163C302.343 849.811 302.75 848.932 302.667 848.338C302.004 844.591 301.286 843.887 297.292 843.826C295.826 843.808 294.683 843.759 294.621 841.947C294.535 840.216 293.085 840.29 291.97 840.293C287.642 840.303 283.775 838.971 279.948 837.082C277.442 835.822 274.455 836.25 271.855 835.004C270.344 834.272 268.823 833.713 267.857 832.232C270.245 833.586 272.893 834.103 275.594 834.593C273.381 833.249 271.196 831.959 268.914 830.55C270.681 829.744 272.155 829.59 274.54 830.812C279.159 833.165 283.907 834.815 289.059 835.455C290.772 835.681 292.39 836.358 293.618 837.571C295.26 839.174 295.964 838.343 296.513 836.722C297.086 835.02 297.687 833.371 298.886 831.952C299.92 832.929 299.536 834.164 299.471 835.237C299.286 838.414 300.59 839.956 303.833 839.565C305.133 839.4 305.764 839.378 305.905 840.645C306.035 841.517 306.516 841.404 307.176 841.434C311.576 841.621 315.515 843.151 319.128 845.585C319.648 845.921 320.033 846.259 320.717 846.21C324.851 845.964 328.558 847.379 332.067 849.431C333.5 850.269 334.018 850.037 334.501 848.482C335.022 846.808 335.949 845.26 336.738 843.582C338.169 844.858 337.442 846.336 337.424 847.686C337.379 850.557 338.721 851.979 341.528 851.409C342.959 851.11 343.802 850.979 344.26 852.52C344.585 853.626 345.663 853.743 346.457 853.771C349.913 853.84 352.805 855.438 355.644 857.063C356.968 857.824 358.361 857.645 359.656 857.785C362.932 858.147 365.978 858.962 368.571 860.948C370.08 862.117 370.537 861.078 371.037 860.185C371.96 858.505 372.734 856.734 373.666 854.882C375.301 856.221 374.565 857.872 374.328 859.066C373.754 861.772 375.377 862.145 377.306 862.395C379.1 862.647 381.036 862.156 382.233 864.188C382.528 864.673 383.675 864.855 384.457 864.923C387.904 865.164 391.091 866.242 394.093 867.917C395.649 868.794 397.496 869.019 399.303 869.23C402.81 869.708 405.915 871.197 408.571 873.553C404.982 873.05 402.153 870.247 398.009 870.096C401.13 872.246 404.333 873.416 407.59 874.559C408.96 875.029 408.297 873.861 408.527 873.408C410.398 872.984 409.718 871.155 410.361 870.088C410.98 869.1 411.49 868.034 412.052 866.941C413.578 868.202 412.936 869.838 413.011 871.173C413.219 873.948 414.423 875.24 417.121 874.592C418.71 874.212 419.741 874.051 420.144 876.056C420.41 877.494 421.821 877.976 423.205 877.969C425.559 878.001 427.747 878.419 429.794 879.579C432.987 881.358 436.262 882.726 440.069 882.816C442.772 882.869 445.424 883.518 447.246 885.833C449.03 883.677 449.254 880.949 451.327 879.014C452.037 880.459 451.869 881.718 451.875 882.987C451.917 886.585 453.414 887.793 457.369 887.405C456.826 889.727 455.188 891.841 456.287 894.761C456.989 893.362 457.633 892.295 458.033 891.151C458.433 890.008 459.213 888.502 457.173 887.606ZM310.536 842.959C315.616 846.985 321.39 849.785 327.644 851.466C321.706 849.052 316.869 844.533 310.536 842.959ZM402.592 874.143C397.295 872.103 393.351 867.293 386.884 866.726C392.114 869.838 396.836 873.01 402.592 874.143ZM365.077 863.01C362.181 862.285 359.757 860.614 357.153 859.237C354.619 857.924 352.363 856 348.962 855.467C353.833 859.735 359.338 861.533 365.077 863.01ZM272.669 831.236C276.99 833.977 281.014 837.239 286.292 838.048C281.872 835.626 277.655 832.698 272.669 831.236ZM438.101 884.127C440.961 885.541 443.57 887.619 447.518 887.971C444.911 884.451 441.516 884.183 438.101 884.127ZM466.41 895.328C470.876 896.453 475.384 897.155 480.283 896.885C475.664 894.532 471.019 895.274 466.41 895.328ZM448.82 890.955C450.318 888.142 451.304 885.258 450.454 882.109C449.253 884.97 447.214 887.658 448.82 890.955ZM314.545 847.133C312.372 845.802 310.2 844.472 307.962 843.208C307.43 842.912 306.541 842.329 306.061 843.011C305.427 843.906 306.447 844.354 307.051 844.848C309.206 846.523 311.884 846.656 314.545 847.133ZM373.423 858.391C371.131 860.17 371.217 862.907 369.966 864.923C369.63 865.43 370.065 866.614 370.931 866.84C371.948 867.156 371.879 866.085 372.093 865.54C372.937 863.398 373.049 861.029 373.423 858.391ZM459.049 891.467C463.734 893.753 465.438 894.152 468.64 893.748C465.555 891.478 462.364 891.273 459.049 891.467ZM425.523 879.694C429.475 881.753 433.456 883.864 437.409 885.923C434.022 882.904 430.057 880.885 425.523 879.694ZM390.466 870.55C387.758 868.79 385.407 866.311 381.017 866.521C384.358 868.827 387.318 869.921 390.466 870.55ZM332.538 851.5C330.127 848.784 326.676 848.411 323.44 847.493C326.192 849.397 329.211 850.729 332.538 851.5ZM429.629 882.981C426.427 881.374 423.239 879.728 419.996 878.108C422.032 881.888 425.989 882.069 429.629 882.981ZM336.448 847.383C334.425 849.158 334.244 851.462 333.588 853.575C333.402 854.173 333.66 854.778 334.388 854.873C335.104 855.008 335.128 854.359 335.292 853.973C336.086 851.991 336.271 849.819 336.448 847.383ZM379.093 870.993C379.848 868.562 380.422 866.86 380.885 865.081C381.018 864.51 380.719 863.893 380.081 863.651C379.675 863.525 379.225 863.822 379.195 864.206C379.06 866.219 377.375 868.055 379.093 870.993ZM298.468 835.45C298.143 835.349 297.846 835.3 297.521 835.199C296.951 837.033 296.341 838.854 295.811 840.7C295.626 841.298 295.097 842.139 296.073 842.442C296.764 842.657 297.393 842.066 297.535 841.323C297.886 839.334 298.171 837.412 298.468 835.45ZM417.239 882.103C418.965 880.279 418.941 878.349 419.12 876.481C419.147 875.965 419.035 875.318 418.563 875.259C418.01 875.174 417.336 875.621 417.354 876.282C417.334 878.068 416.642 879.864 417.239 882.103ZM294.599 839.58C291.467 837.033 288.983 836.13 284.588 835.639C287.469 837.846 290.773 838.26 294.599 839.58ZM411.569 870.507C411.032 873.094 409.158 875.396 410.216 878.304C411.59 875.89 411.83 873.254 411.569 870.507ZM351.203 858.874C349.37 857.168 347.567 856.083 345.58 855.159C345.145 854.98 344.687 854.445 344.339 854.992C344.015 855.46 344.032 856.121 344.833 856.414C346.804 857.245 348.549 858.661 351.203 858.874ZM369.042 863.018C366.764 860.737 364.041 859.454 360.68 859.939C363.477 860.983 366.233 862.014 369.042 863.018ZM341.878 859.036C342.545 856.315 343.987 854.402 342.732 851.696C341.008 854.088 341.292 856.187 341.878 859.036ZM375.154 862.863C374.146 863.38 373.874 864.257 373.557 864.989C373.2 865.709 372.528 866.724 373.71 867.223C375.084 867.824 374.952 866.384 375.162 865.707C375.369 864.897 376.085 864.027 375.154 862.863ZM451.275 891.805C451.928 890.566 453.617 889.867 452.815 888C452.714 887.75 452.214 887.638 451.913 887.458C451.167 888.712 450.555 889.964 450.796 891.482C450.772 891.562 450.947 891.572 451.275 891.805Z" fill="white"/>
<path d="M877.005 1018.2C876.727 1016.85 875.552 1016.83 875.144 1017.58C873.935 1019.78 872.638 1018.33 871.648 1017.72C869.041 1016.12 866.293 1015.4 863.246 1015.5C861.346 1015.56 860.101 1014.08 858.528 1013.38C855.209 1011.82 851.769 1010.8 848.083 1010.7C847.739 1010.68 847.441 1010.94 846.602 1011.24C849.658 1012.81 852.719 1013.36 855.019 1016.09C851.697 1015.67 849.497 1013.32 846.142 1013.29C848.758 1015.28 851.464 1016.56 854.286 1017.04C857.4 1017.57 860.282 1018.42 863.086 1019.95C865.636 1021.31 868.55 1021.78 871.324 1021.86C873.371 1021.88 873.056 1022.61 872.739 1023.91C872.447 1025.13 872.275 1026.39 872.063 1027.64C872.538 1027.65 872.83 1027.7 872.895 1027.63C874.873 1023.66 877.573 1023.97 880.604 1026.31C881.315 1026.84 882.244 1027.08 882.776 1026.64C884.877 1024.8 886.528 1026.1 888.265 1027.12C888.345 1027.14 888.44 1027.26 888.52 1027.29C896.15 1029.18 903.275 1032.83 911.74 1033.58C911.344 1034.86 910.923 1036.21 910.514 1037.53C910.353 1038.05 909.878 1038.73 910.611 1039.05C911.264 1039.34 911.634 1038.71 912.022 1038.3C912.086 1038.24 912.124 1038.12 912.188 1038.05C915.002 1034.9 915.131 1034.77 918.54 1037.44C920.19 1038.74 921.034 1038.7 921.788 1036.84C922.202 1035.79 922.608 1035.61 923.705 1036.3C927.531 1038.75 931.794 1039.95 936.188 1041.14C940.104 1042.18 943.676 1044.47 947.892 1044.69C949.307 1044.78 949.092 1045.89 948.902 1046.92C948.717 1048.22 947.594 1049.45 948.56 1050.84C950.414 1050.5 950.591 1047.54 952.634 1048C954.266 1048.37 955.766 1049.45 957.237 1050.34C958.147 1050.93 959.046 1050.99 959.597 1050.2C960.74 1048.63 961.632 1049 963.115 1049.85C965.76 1051.33 968.531 1052.54 971.676 1052.69C974.174 1052.81 976.139 1054.64 978.491 1055.37C979.049 1055.55 979.684 1055.61 980.165 1055.89C981.728 1056.77 984.196 1055.44 985.011 1057.18C985.578 1058.45 984.811 1060.35 984.623 1062.09C985.043 1062 985.387 1062.02 985.568 1061.86C986.722 1060.82 987.164 1058.55 988.696 1058.55C990.135 1058.56 991.718 1059.79 993.057 1060.69C993.887 1061.25 994.849 1061.81 995.403 1061.15C997.091 1059.1 998.244 1060.59 999.816 1061.3C1001.85 1062.2 1003.87 1063.17 1006.15 1063.57C1008.68 1064.01 1011.15 1064.78 1013.54 1066.09C1016.37 1067.67 1019.7 1068.35 1023.41 1068.24C1022.8 1070.19 1022.29 1071.83 1021.78 1073.46C1023.01 1073.88 1023.17 1072.93 1023.57 1072.49C1026.21 1069.77 1027.18 1069.59 1030.44 1071.78C1031.63 1072.59 1032.58 1073.19 1033.64 1071.73C1034.69 1070.34 1035.81 1071.22 1036.71 1071.85C1040.19 1074.28 1044.06 1075.35 1048.2 1075.94C1050.93 1076.31 1053.1 1078.34 1055.89 1078.77C1057.52 1079.01 1059.06 1079.4 1060.67 1078.72C1057.98 1078.5 1055.56 1077.44 1053.11 1076.33C1055.64 1076.46 1058.13 1076.62 1060.76 1076.74C1059.79 1075.08 1058.69 1074.13 1056.08 1073.8C1051.03 1073.15 1046.28 1071.85 1041.77 1069.49C1040.26 1068.71 1038.58 1068.36 1036.91 1068.67C1034.69 1069.08 1034.58 1068 1035.05 1066.35C1035.54 1064.62 1035.99 1062.92 1035.82 1061.08C1034.43 1061.31 1034.05 1062.54 1033.5 1063.46C1031.87 1066.19 1029.95 1066.73 1027.56 1064.59C1026.6 1063.72 1026.11 1063.35 1025.28 1064.32C1024.69 1064.96 1024.36 1064.6 1023.81 1064.26C1020.16 1061.94 1016.13 1060.99 1011.85 1060.98C1011.24 1060.96 1010.74 1061.02 1010.22 1060.6C1007.02 1058.08 1003.24 1057.16 999.264 1056.89C997.637 1056.78 997.35 1056.3 997.833 1054.74C998.354 1053.07 998.475 1051.27 998.781 1049.44C996.911 1049.69 996.667 1051.32 995.925 1052.44C994.35 1054.84 992.47 1055.26 990.527 1053.21C989.542 1052.16 988.936 1051.58 987.703 1052.6C986.82 1053.33 985.885 1052.82 985.229 1052.4C982.405 1050.51 979.177 1050.21 975.977 1049.96C974.483 1049.85 973.46 1048.92 972.339 1048.3C969.495 1046.77 966.583 1045.73 963.378 1045.91C961.506 1046.03 961.721 1044.92 961.818 1043.9C962.017 1041.99 962.388 1040.1 962.676 1038.05C960.607 1038.23 960.273 1040.01 959.795 1041.13C958.738 1043.69 957.22 1043.08 955.526 1042.21C953.938 1041.41 952.653 1039.91 950.548 1040.92C950.038 1041.16 949.012 1040.66 948.344 1040.28C945.43 1038.54 942.256 1037.65 938.896 1037.34C937.15 1037.2 935.535 1036.34 933.96 1035.5C930.865 1033.93 927.527 1033.42 924.064 1033.87C927.239 1035.47 931.093 1034.75 934.518 1036.95C930.795 1036.97 927.557 1036.14 924.291 1035.25C922.923 1034.87 924.112 1034.28 924.181 1033.78C922.912 1032.38 924.486 1031.25 924.566 1030.01C924.622 1028.84 924.809 1027.68 924.969 1026.46C923.032 1026.65 922.631 1028.36 921.821 1029.42C920.096 1031.59 918.401 1031.98 916.59 1029.93C915.522 1028.73 914.782 1028.02 913.332 1029.44C912.31 1030.48 910.903 1030.09 909.791 1029.31C907.877 1028.01 905.878 1027.13 903.577 1026.94C900.005 1026.62 896.598 1025.91 893.479 1023.84C891.271 1022.37 888.769 1021.42 886.001 1022.31C885.773 1019.53 887.124 1017.15 886.539 1014.39C885.156 1015.18 884.585 1016.32 883.867 1017.36C881.815 1020.31 879.93 1020.46 876.96 1017.92C876.095 1020.15 876.229 1022.81 873.704 1024.61C873.923 1023.06 874.003 1021.81 874.323 1020.65C874.642 1019.48 874.858 1017.8 877.005 1018.2ZM1020.25 1063.63C1013.89 1064.1 1007.67 1063.17 1001.69 1061.05C1007.83 1062.39 1014.26 1061.38 1020.25 1063.63ZM928.553 1037.71C933.966 1039 939.845 1037.25 945.376 1040.41C939.414 1040.04 933.828 1040.01 928.553 1037.71ZM965.037 1049.58C967.778 1050.6 970.669 1050.58 973.541 1050.91C976.32 1051.25 979.218 1050.92 982.259 1052.39C975.938 1053.18 970.492 1051.58 965.037 1049.58ZM1057.35 1075.2C1052.33 1075.04 1047.25 1075.47 1042.55 1073.18C1047.47 1073.66 1052.51 1073.61 1057.35 1075.2ZM894.33 1026.03C891.231 1025.59 887.962 1025.85 884.582 1023.92C888.659 1022.48 891.545 1024.16 894.33 1026.03ZM865.227 1019.39C860.996 1017.82 856.969 1015.86 853.171 1012.89C858.215 1013.54 861.542 1016.76 865.227 1019.39ZM881.858 1025.65C882.229 1022.49 883.054 1019.56 885.506 1017.43C884.868 1020.47 885.003 1023.83 881.858 1025.65ZM1014.68 1064.83C1017.17 1064.95 1019.67 1065.07 1022.18 1065.28C1022.78 1065.33 1023.82 1065.35 1023.83 1066.18C1023.84 1067.28 1022.76 1067.08 1022 1067.14C1019.32 1067.32 1017.09 1065.93 1014.68 1064.83ZM960.903 1041.08C961.751 1043.83 960.146 1046.05 960.023 1048.41C960.009 1049.02 958.994 1049.75 958.169 1049.45C957.173 1049.14 957.829 1048.3 957.962 1047.73C958.484 1045.49 959.724 1043.47 960.903 1041.08ZM873.326 1020.34C868.267 1019.59 866.67 1018.97 864.316 1016.84C868.076 1016.69 870.763 1018.32 873.326 1020.34ZM906.955 1029.43C902.614 1028.91 898.22 1028.42 893.879 1027.9C898.303 1027.31 902.632 1027.87 906.955 1029.43ZM940.342 1041.55C943.512 1041.62 946.798 1040.89 950.219 1043.53C946.232 1043.56 943.233 1042.8 940.342 1041.55ZM997.722 1058.33C1001.19 1057.44 1004.18 1059.07 1007.3 1060.13C1004.02 1060.16 1000.84 1059.56 997.722 1058.33ZM901.801 1029.84C905.283 1030.31 908.777 1030.74 912.299 1031.22C908.537 1033.2 905.247 1031.13 901.801 1029.84ZM996.881 1052.74C997.516 1055.34 996.368 1057.35 995.712 1059.46C995.526 1060.06 994.979 1060.41 994.338 1060.08C993.685 1059.79 994.031 1059.24 994.115 1058.83C994.587 1056.75 995.657 1054.85 996.881 1052.74ZM949.26 1048.3C950.016 1045.87 950.509 1044.14 951.133 1042.41C951.347 1041.87 951.934 1041.53 952.584 1041.69C952.983 1041.81 953.178 1042.31 952.986 1042.64C951.966 1044.38 952.293 1046.84 949.26 1048.3ZM1034.19 1064.2C1034.51 1064.3 1034.78 1064.43 1035.09 1064.53C1034.52 1066.36 1033.99 1068.21 1033.38 1070.03C1033.2 1070.63 1033.15 1071.62 1032.2 1071.32C1031.52 1071.11 1031.34 1070.27 1031.65 1069.57C1032.48 1067.74 1033.33 1065.99 1034.19 1064.2ZM912.28 1036.07C911.912 1033.59 913.015 1032.01 913.919 1030.37C914.187 1029.93 914.64 1029.46 915.053 1029.67C915.547 1029.91 915.839 1030.66 915.454 1031.2C914.468 1032.68 914.018 1034.55 912.28 1036.07ZM1034.99 1069.78C1038.94 1069.44 1041.45 1070.09 1045.27 1072.15C1041.71 1072.35 1038.81 1070.84 1034.99 1069.78ZM923.358 1029.68C922.338 1032.11 922.557 1035.07 920.073 1036.87C920.32 1034.11 921.606 1031.8 923.358 1029.68ZM978.541 1053.95C980.976 1053.57 983.038 1053.68 985.157 1054.04C985.608 1054.13 986.278 1053.95 986.251 1054.59C986.25 1055.16 985.865 1055.7 985.055 1055.49C983 1055.07 980.799 1055.26 978.541 1053.95ZM961.837 1047.36C964.953 1046.75 967.867 1047.22 970.304 1049.51C967.464 1048.8 964.664 1048.11 961.837 1047.36ZM985.965 1059.31C986.955 1056.69 986.866 1054.31 989.396 1052.77C989.443 1055.72 988.036 1057.29 985.965 1059.31ZM956.997 1043.8C957.519 1044.79 957.247 1045.67 957.091 1046.45C956.976 1047.25 956.948 1048.46 955.715 1048.21C954.27 1047.94 955.185 1046.82 955.395 1046.14C955.683 1045.36 955.594 1044.24 956.997 1043.8ZM879.402 1024.98C879.572 1023.59 878.603 1022.06 880.297 1020.97C880.518 1020.82 880.984 1021.01 881.328 1021.03C881.226 1022.48 881.016 1023.86 879.97 1024.98C879.945 1025.06 879.798 1024.97 879.402 1024.98Z" fill="white"/>
<path d="M502.323 901.774C502.031 900.416 500.834 900.394 500.424 901.14C499.205 903.341 497.876 901.878 496.865 901.258C494.201 899.644 491.399 898.904 488.296 898.989C486.362 899.044 485.086 897.554 483.481 896.837C480.092 895.26 476.583 894.213 472.83 894.096C472.479 894.074 472.177 894.33 471.325 894.633C474.445 896.215 477.565 896.791 479.923 899.534C476.537 899.094 474.284 896.733 470.868 896.677C473.543 898.688 476.306 899.984 479.182 900.484C482.355 901.033 485.295 901.903 488.159 903.449C490.763 904.826 493.733 905.312 496.558 905.403C498.643 905.439 498.326 906.171 498.011 907.472C497.721 908.693 497.552 909.952 497.343 911.198C497.828 911.218 498.125 911.266 498.19 911.199C500.182 907.228 502.933 907.559 506.033 909.921C506.76 910.452 507.707 910.703 508.247 910.259C510.376 908.429 512.064 909.74 513.839 910.773C513.92 910.798 514.017 910.915 514.098 910.941C521.879 912.878 529.155 916.581 537.779 917.381C537.382 918.657 536.961 920.012 536.553 921.327C536.392 921.846 535.912 922.527 536.66 922.847C537.326 923.142 537.7 922.514 538.092 922.112C538.158 922.045 538.195 921.925 538.26 921.858C541.108 918.721 541.238 918.587 544.724 921.288C546.412 922.599 547.271 922.56 548.029 920.697C548.444 919.646 548.856 919.468 549.977 920.166C553.887 922.649 558.234 923.868 562.716 925.086C566.709 926.152 570.36 928.467 574.654 928.708C576.095 928.806 575.882 929.921 575.695 930.955C575.514 932.254 574.377 933.474 575.368 934.875C577.255 934.543 577.418 931.578 579.501 932.05C581.164 932.436 582.699 933.525 584.201 934.429C585.131 935.024 586.047 935.09 586.604 934.301C587.759 932.737 588.669 933.107 590.184 933.971C592.885 935.466 595.714 936.695 598.917 936.86C601.461 936.995 603.473 938.844 605.872 939.589C606.441 939.766 607.088 939.836 607.58 940.12C609.176 941.009 611.681 939.689 612.521 941.436C613.106 942.711 612.336 944.614 612.153 946.349C612.581 946.263 612.931 946.285 613.115 946.123C614.284 945.088 614.721 942.82 616.281 942.823C617.746 942.842 619.366 944.088 620.734 944.994C621.582 945.563 622.565 946.131 623.126 945.475C624.832 943.426 626.015 944.93 627.62 945.647C629.701 946.556 631.756 947.545 634.079 947.961C636.659 948.412 639.18 949.196 641.621 950.523C644.513 952.121 647.905 952.825 651.68 952.73C651.073 954.684 650.565 956.318 650.057 957.952C651.306 958.384 651.468 957.429 651.873 956.987C654.544 954.276 655.534 954.103 658.859 956.316C660.077 957.132 661.047 957.739 662.124 956.282C663.177 954.904 664.329 955.787 665.247 956.421C668.807 958.883 672.747 959.976 676.971 960.589C679.75 960.972 681.968 963.016 684.816 963.464C686.476 963.718 688.046 964.118 689.682 963.446C686.947 963.208 684.472 962.133 681.969 961.006C684.553 961.153 687.085 961.328 689.764 961.461C688.765 959.795 687.637 958.833 684.98 958.488C679.841 957.809 674.993 956.478 670.387 954.085C668.847 953.3 667.13 952.942 665.431 953.244C663.17 953.634 663.061 952.551 663.528 950.904C664.02 949.178 664.459 947.478 664.275 945.629C662.87 945.848 662.486 947.084 661.932 948.004C660.284 950.727 658.335 951.258 655.885 949.098C654.908 948.226 654.401 947.85 653.566 948.814C652.965 949.458 652.632 949.092 652.072 948.743C648.34 946.404 644.228 945.432 639.872 945.389C639.253 945.372 638.744 945.432 638.208 945.004C634.942 942.459 631.086 941.523 627.032 941.225C625.376 941.104 625.081 940.618 625.564 939.064C626.084 937.39 626.198 935.589 626.499 933.759C624.596 933.999 624.357 935.629 623.607 936.751C622.017 939.142 620.106 939.553 618.116 937.493C617.106 936.436 616.486 935.85 615.236 936.86C614.341 937.587 613.386 937.072 612.716 936.645C609.83 934.743 606.541 934.421 603.281 934.151C601.759 934.027 600.713 933.09 599.567 932.472C596.663 930.914 593.691 929.859 590.429 930.026C588.523 930.133 588.736 929.019 588.83 927.999C589.021 926.092 589.388 924.195 589.669 922.14C587.564 922.317 587.234 924.094 586.753 925.212C585.692 927.767 584.143 927.155 582.413 926.267C580.792 925.458 579.475 923.956 577.337 924.952C576.819 925.185 575.771 924.684 575.088 924.297C572.112 922.542 568.875 921.623 565.452 921.303C563.673 921.144 562.024 920.282 560.415 919.432C557.255 917.838 553.853 917.305 550.33 917.74C553.572 919.36 557.491 918.655 560.991 920.879C557.201 920.881 553.899 920.03 550.568 919.126C549.173 918.736 550.381 918.15 550.448 917.646C549.147 916.237 550.744 915.115 550.819 913.871C550.868 912.706 551.053 911.54 551.208 910.32C549.237 910.495 548.839 912.207 548.02 913.264C546.276 915.432 544.552 915.814 542.697 913.751C541.602 912.537 540.844 911.821 539.376 913.244C538.342 914.278 536.906 913.875 535.77 913.085C533.813 911.778 531.773 910.881 529.429 910.678C525.79 910.334 522.316 909.604 519.129 907.521C516.872 906.033 514.319 905.065 511.506 905.939C511.258 903.152 512.62 900.777 512.009 898.009C510.605 898.796 510.03 899.929 509.305 900.971C507.232 903.911 505.313 904.058 502.275 901.497C501.406 903.719 501.558 906.388 498.997 908.172C499.211 906.621 499.286 905.376 499.605 904.208C499.923 903.039 500.134 901.356 502.323 901.774ZM648.439 948.095C641.971 948.533 635.628 947.568 629.522 945.408C635.782 946.785 642.329 945.803 648.439 948.095ZM554.922 921.615C560.441 922.937 566.417 921.21 572.067 924.408C565.994 924.007 560.306 923.944 554.922 921.615ZM592.14 933.705C594.936 934.748 597.88 934.745 600.806 935.086C603.638 935.442 606.587 935.134 609.691 936.623C603.259 937.378 597.705 935.74 592.14 933.705ZM686.281 959.898C681.168 959.708 676.004 960.114 671.197 957.79C676.211 958.299 681.345 958.277 686.281 959.898ZM520.007 909.717C516.85 909.26 513.522 909.494 510.07 907.547C514.213 906.124 517.161 907.827 520.007 909.717ZM490.335 902.901C486.019 901.297 481.907 899.32 478.023 896.321C483.163 897.001 486.569 900.244 490.335 902.901ZM507.306 909.267C507.666 906.101 508.489 903.166 510.974 901.053C510.342 904.091 510.498 907.462 507.306 909.267ZM642.77 949.262C645.315 949.397 647.859 949.532 650.419 949.759C651.025 949.817 652.088 949.841 652.096 950.674C652.112 951.772 651.017 951.563 650.239 951.627C647.515 951.786 645.233 950.377 642.77 949.262ZM587.881 925.169C588.761 927.934 587.139 930.14 587.027 932.509C587.016 933.118 585.987 933.847 585.146 933.542C584.129 933.226 584.792 932.383 584.925 931.812C585.444 929.57 586.694 927.554 587.881 925.169ZM498.588 903.892C493.433 903.12 491.803 902.483 489.394 900.336C493.222 900.214 495.967 901.853 498.588 903.892ZM532.883 913.193C528.459 912.649 523.983 912.133 519.56 911.589C524.061 911.02 528.472 911.604 532.883 913.193ZM566.948 925.527C570.177 925.612 573.518 924.902 577.016 927.563C572.957 927.569 569.899 926.794 566.948 925.527ZM625.471 942.663C628.996 941.791 632.051 943.44 635.238 944.518C631.892 944.527 628.649 943.913 625.471 942.663ZM527.637 913.574C531.185 914.065 534.746 914.515 538.335 915.019C534.515 916.979 531.153 914.885 527.637 913.574ZM624.583 937.054C625.243 939.664 624.087 941.665 623.43 943.777C623.244 944.375 622.689 944.727 622.035 944.393C621.369 944.098 621.717 943.551 621.8 943.14C622.269 941.056 623.348 939.162 624.583 937.054ZM576.067 932.338C576.823 929.907 577.315 928.18 577.941 926.451C578.155 925.906 578.751 925.567 579.414 925.729C579.821 925.855 580.022 926.355 579.829 926.688C578.8 928.423 579.148 930.891 576.067 932.338ZM662.637 948.748C662.963 948.849 663.235 948.977 663.56 949.078C662.99 950.912 662.461 952.758 661.851 954.579C661.665 955.177 661.624 956.17 660.648 955.867C659.957 955.652 659.773 954.808 660.078 954.116C660.916 952.278 661.771 950.533 662.637 948.748ZM538.342 919.873C537.954 917.392 539.068 915.815 539.979 914.174C540.25 913.734 540.708 913.264 541.13 913.483C541.634 913.727 541.936 914.477 541.547 915.011C540.551 916.494 540.103 918.366 538.342 919.873ZM663.484 954.344C667.508 954.021 670.067 954.685 673.966 956.77C670.342 956.956 667.384 955.425 663.484 954.344ZM549.586 913.532C548.562 915.967 548.802 918.927 546.282 920.723C546.518 917.955 547.814 915.648 549.586 913.532ZM605.915 938.16C608.392 937.793 610.492 937.921 612.652 938.286C613.112 938.386 613.793 938.204 613.77 938.852C613.771 939.421 613.382 939.956 612.556 939.743C610.462 939.31 608.221 939.489 605.915 938.16ZM588.868 931.464C592.038 930.875 595.008 931.361 597.502 933.666C594.606 932.941 591.751 932.229 588.868 931.464ZM613.505 943.578C614.497 940.958 614.394 938.565 616.961 937.046C617.026 939.995 615.602 941.563 613.505 943.578ZM583.92 927.872C584.457 928.87 584.185 929.747 584.031 930.529C583.917 931.325 583.896 932.542 582.639 932.282C581.166 932 582.091 930.888 582.302 930.211C582.59 929.426 582.493 928.303 583.92 927.872ZM504.801 908.576C504.966 907.185 503.971 905.652 505.69 904.569C505.914 904.42 506.39 904.611 506.74 904.633C506.644 906.089 506.439 907.468 505.379 908.581C505.355 908.661 505.204 908.57 504.801 908.576Z" fill="white"/>
<path d="M852.516 1010.59C853.526 1009.64 854.525 1010.3 854.44 1011.15C854.197 1013.65 856.121 1013.2 857.305 1013.26C860.415 1013.44 863.143 1014.42 865.651 1016.25C867.214 1017.39 869.109 1016.88 870.838 1017.2C874.524 1017.82 878.008 1018.95 881.167 1020.98C881.468 1021.16 881.572 1021.54 882.102 1022.28C878.635 1021.81 875.738 1020.52 872.241 1021.44C875.279 1023 878.474 1022.33 881.32 1024.22C877.977 1024.36 874.966 1023.86 872.313 1022.64C869.387 1021.3 866.472 1020.35 863.237 1020C860.311 1019.66 857.588 1018.38 855.209 1016.85C853.472 1015.7 853.318 1016.48 852.84 1017.73C852.387 1018.9 851.812 1020.03 851.278 1021.18C850.868 1020.92 850.595 1020.79 850.58 1020.7C851.189 1016.3 848.735 1015.01 844.842 1015.2C843.942 1015.23 843.02 1014.9 842.827 1014.23C842.11 1011.51 839.976 1011.63 837.929 1011.48C837.847 1011.45 837.701 1011.5 837.619 1011.47C830.111 1008.66 822.018 1007.58 814.459 1003.36C814.063 1004.63 813.642 1005.99 813.233 1007.3C813.072 1007.82 813.08 1008.65 812.283 1008.49C811.567 1008.36 811.615 1007.63 811.52 1007.08C811.504 1006.98 811.541 1006.86 811.525 1006.77C810.957 1002.57 810.925 1002.39 806.523 1002.64C804.389 1002.76 803.703 1002.24 804.135 1000.28C804.388 999.178 804.15 998.798 802.831 998.737C798.202 998.567 793.929 997.108 789.547 995.571C785.652 994.186 781.333 994.024 777.658 991.79C776.416 991.054 775.959 992.092 775.528 993.051C774.94 994.223 775.186 995.873 773.575 996.466C772.208 995.123 773.754 992.587 771.771 991.796C770.182 991.171 768.301 991.199 766.55 991.092C765.447 991.055 764.655 990.59 764.643 989.625C764.578 987.682 763.618 987.471 761.88 987.324C758.808 987.025 755.781 986.434 753.048 984.754C750.876 983.424 748.171 983.807 745.772 983.062C745.202 982.885 744.63 982.576 744.064 982.531C742.245 982.359 740.928 979.852 739.247 980.816C738.042 981.534 737.598 983.538 736.765 985.071C736.461 984.758 736.16 984.577 736.1 984.34C735.724 982.825 736.649 980.708 735.363 979.827C734.145 979.012 732.104 979.121 730.464 979.092C729.442 979.08 728.31 978.991 728.22 978.132C727.975 975.477 726.149 976.046 724.42 975.728C722.191 975.297 719.937 974.946 717.787 973.972C715.406 972.883 712.885 972.1 710.122 971.809C706.833 971.487 703.639 970.144 700.583 967.927C699.976 969.88 699.468 971.515 698.96 973.149C697.687 972.797 698.094 971.918 698.011 971.324C697.347 967.577 696.63 966.874 692.636 966.813C691.17 966.795 690.026 966.745 689.965 964.934C689.879 963.202 688.429 963.276 687.313 963.279C682.985 963.29 679.119 961.957 675.292 960.068C672.785 958.809 669.799 959.236 667.199 957.991C665.687 957.259 664.167 956.699 663.2 955.218C665.589 956.572 668.237 957.089 670.938 957.579C668.725 956.236 666.54 954.945 664.258 953.536C666.025 952.73 667.499 952.576 669.884 953.798C674.503 956.151 679.251 957.802 684.403 958.441C686.116 958.667 687.733 959.345 688.962 960.557C690.604 962.16 691.308 961.33 691.856 959.708C692.43 958.007 693.031 956.358 694.23 954.938C695.264 955.915 694.88 957.151 694.815 958.223C694.63 961.4 695.934 962.942 699.177 962.551C700.476 962.386 701.107 962.364 701.249 963.632C701.379 964.503 701.86 964.39 702.519 964.42C706.92 964.607 710.859 966.137 714.472 968.571C714.991 968.908 715.377 969.246 716.061 969.196C720.195 968.951 723.902 970.365 727.41 972.417C728.844 973.256 729.362 973.023 729.845 971.469C730.365 969.794 731.292 968.247 732.081 966.569C733.513 967.844 732.786 969.323 732.768 970.672C732.723 973.543 734.064 974.965 736.872 974.395C738.303 974.097 739.146 973.965 739.603 975.506C739.928 976.613 741.007 976.729 741.801 976.757C745.257 976.826 748.149 978.424 750.988 980.049C752.312 980.81 753.705 980.631 754.999 980.771C758.275 981.133 761.321 981.949 763.914 983.935C765.424 985.103 765.88 984.065 766.381 983.171C767.304 981.491 768.077 979.721 769.01 977.869C770.645 979.207 769.909 980.858 769.671 982.052C769.098 984.759 770.721 985.132 772.65 985.381C774.444 985.633 776.38 985.142 777.576 987.175C777.872 987.66 779.019 987.841 779.8 987.909C783.248 988.15 786.435 989.228 789.437 990.904C790.992 991.781 792.84 992.005 794.647 992.217C798.154 992.695 801.258 994.184 803.915 996.539C800.326 996.036 797.496 993.233 793.352 993.082C796.474 995.232 799.677 996.402 802.933 997.545C804.304 998.015 803.641 996.847 803.871 996.394C805.741 995.97 805.061 994.142 805.705 993.074C806.324 992.086 806.834 991.021 807.396 989.928C808.922 991.188 808.279 992.825 808.355 994.16C808.563 996.934 809.767 998.226 812.465 997.578C814.054 997.198 815.085 997.038 815.488 999.042C815.754 1000.48 817.165 1000.96 818.549 1000.96C820.902 1000.99 823.091 1001.4 825.138 1002.57C828.33 1004.34 831.606 1005.71 835.413 1005.8C838.116 1005.86 840.768 1006.5 842.59 1008.82C844.374 1006.66 844.598 1003.94 846.67 1002C847.381 1003.45 847.212 1004.7 847.219 1005.97C847.261 1009.57 848.758 1010.78 852.713 1010.39C852.169 1012.71 850.532 1014.83 851.631 1017.75C852.333 1016.35 852.977 1015.28 853.377 1014.14C853.776 1012.99 854.556 1011.49 852.516 1010.59ZM705.88 965.945C710.96 969.972 716.734 972.771 722.988 974.452C717.05 972.039 712.212 967.519 705.88 965.945ZM797.936 997.129C792.639 995.09 788.694 990.28 782.227 989.713C787.458 992.824 792.179 995.996 797.936 997.129ZM760.42 985.996C757.525 985.271 755.101 983.6 752.497 982.223C749.962 980.911 747.707 978.986 744.305 978.454C749.177 982.721 754.682 984.519 760.42 985.996ZM668.013 954.222C672.333 956.964 676.358 960.225 681.635 961.034C677.216 958.612 672.998 955.684 668.013 954.222ZM833.444 1007.11C836.305 1008.53 838.914 1010.61 842.861 1010.96C840.255 1007.44 836.86 1007.17 833.444 1007.11ZM861.754 1018.31C866.219 1019.44 870.728 1020.14 875.627 1019.87C871.008 1017.52 866.363 1018.26 861.754 1018.31ZM844.164 1013.94C845.662 1011.13 846.647 1008.24 845.798 1005.1C844.597 1007.96 842.557 1010.64 844.164 1013.94ZM709.889 970.119C707.716 968.789 705.544 967.458 703.306 966.194C702.774 965.898 701.885 965.316 701.405 965.997C700.77 966.893 701.79 967.341 702.395 967.835C704.55 969.509 707.228 969.642 709.889 970.119ZM768.766 981.377C766.475 983.157 766.56 985.893 765.31 987.909C764.974 988.417 765.409 989.601 766.275 989.826C767.291 990.142 767.223 989.072 767.437 988.526C768.281 986.384 768.393 984.015 768.766 981.377ZM854.393 1014.45C859.078 1016.74 860.782 1017.14 863.984 1016.73C860.899 1014.46 857.708 1014.26 854.393 1014.45ZM820.866 1002.68C824.819 1004.74 828.8 1006.85 832.753 1008.91C829.366 1005.89 825.401 1003.87 820.866 1002.68ZM785.81 993.536C783.102 991.777 780.751 989.298 776.361 989.507C779.702 991.813 782.661 992.907 785.81 993.536ZM727.882 974.487C725.471 971.771 722.02 971.398 718.783 970.479C721.535 972.383 724.555 973.715 727.882 974.487ZM824.973 1005.97C821.771 1004.36 818.582 1002.71 815.34 1001.09C817.376 1004.87 821.333 1005.05 824.973 1005.97ZM731.792 970.369C729.769 972.144 729.588 974.449 728.932 976.561C728.746 977.159 729.004 977.764 729.732 977.859C730.448 977.994 730.471 977.346 730.636 976.96C731.43 974.977 731.615 972.805 731.792 970.369ZM774.436 993.979C775.192 991.548 775.765 989.846 776.229 988.067C776.362 987.497 776.063 986.879 775.425 986.637C775.018 986.511 774.569 986.808 774.539 987.192C774.404 989.205 772.719 991.042 774.436 993.979ZM693.812 958.436C693.487 958.335 693.19 958.286 692.864 958.185C692.295 960.019 691.684 961.84 691.155 963.686C690.969 964.284 690.44 965.125 691.416 965.429C692.108 965.643 692.737 965.052 692.879 964.309C693.229 962.32 693.515 960.398 693.812 958.436ZM812.583 1005.09C814.309 1003.27 814.285 1001.33 814.464 999.467C814.49 998.951 814.379 998.305 813.907 998.245C813.354 998.161 812.68 998.607 812.698 999.268C812.678 1001.05 811.986 1002.85 812.583 1005.09ZM689.943 962.566C686.81 960.02 684.327 959.117 679.932 958.625C682.813 960.832 686.117 961.247 689.943 962.566ZM806.913 993.493C806.376 996.08 804.501 998.382 805.56 1001.29C806.934 998.876 807.173 996.24 806.913 993.493ZM746.546 981.86C744.713 980.154 742.91 979.069 740.923 978.146C740.488 977.967 740.031 977.431 739.682 977.979C739.359 978.446 739.376 979.107 740.177 979.4C742.148 980.231 743.893 981.647 746.546 981.86ZM764.386 986.005C762.108 983.723 759.385 982.44 756.024 982.925C758.821 983.969 761.577 985.001 764.386 986.005ZM737.222 982.022C737.889 979.301 739.331 977.388 738.076 974.682C736.352 977.075 736.636 979.174 737.222 982.022ZM770.498 985.849C769.49 986.367 769.217 987.244 768.901 987.976C768.543 988.695 767.871 989.71 769.054 990.209C770.428 990.81 770.295 989.371 770.506 988.693C770.713 987.883 771.429 987.013 770.498 985.849ZM846.619 1014.79C847.272 1013.55 848.96 1012.85 848.158 1010.99C848.058 1010.74 847.557 1010.62 847.257 1010.44C846.51 1011.7 845.898 1012.95 846.14 1014.47C846.115 1014.55 846.29 1014.56 846.619 1014.79Z" fill="white"/>
<path d="M1235.31 1129.54C1236.32 1128.58 1237.32 1129.24 1237.23 1130.09C1236.99 1132.6 1238.91 1132.14 1240.1 1132.21C1243.21 1132.39 1245.94 1133.36 1248.44 1135.19C1250.01 1136.33 1251.9 1135.83 1253.63 1136.15C1257.32 1136.77 1260.8 1137.9 1263.96 1139.93C1264.26 1140.11 1264.36 1140.49 1264.9 1141.22C1261.43 1140.76 1258.53 1139.46 1255.03 1140.39C1258.07 1141.94 1261.27 1141.28 1264.11 1143.17C1260.77 1143.31 1257.76 1142.81 1255.11 1141.59C1252.18 1140.24 1249.26 1139.3 1246.03 1138.95C1243.1 1138.6 1240.38 1137.32 1238 1135.8C1236.26 1134.64 1236.11 1135.43 1235.63 1136.68C1235.18 1137.85 1234.61 1138.98 1234.07 1140.13C1233.66 1139.87 1233.39 1139.74 1233.37 1139.65C1233.98 1135.25 1231.53 1133.96 1227.64 1134.15C1226.74 1134.17 1225.81 1133.84 1225.62 1133.17C1224.9 1130.46 1222.77 1130.58 1220.72 1130.43C1220.64 1130.4 1220.49 1130.44 1220.41 1130.42C1212.9 1127.6 1204.81 1126.53 1197.25 1122.3C1196.86 1123.58 1196.43 1124.93 1196.03 1126.25C1195.86 1126.77 1195.87 1127.6 1195.08 1127.44C1194.36 1127.3 1194.41 1126.58 1194.31 1126.02C1194.3 1125.93 1194.33 1125.81 1194.32 1125.72C1193.75 1121.52 1193.72 1121.34 1189.32 1121.58C1187.18 1121.71 1186.5 1121.19 1186.93 1119.23C1187.18 1118.12 1186.94 1117.74 1185.62 1117.68C1181 1117.51 1176.72 1116.05 1172.34 1114.52C1168.45 1113.13 1164.13 1112.97 1160.45 1110.74C1159.21 1110 1158.75 1111.04 1158.32 1112C1157.73 1113.17 1157.98 1114.82 1156.37 1115.41C1155 1114.07 1156.55 1111.53 1154.56 1110.74C1152.97 1110.12 1151.09 1110.14 1149.34 1110.04C1148.24 1110 1147.45 1109.54 1147.44 1108.57C1147.37 1106.63 1146.41 1106.42 1144.67 1106.27C1141.6 1105.97 1138.57 1105.38 1135.84 1103.7C1133.67 1102.37 1130.96 1102.75 1128.56 1102.01C1128 1101.83 1127.42 1101.52 1126.86 1101.48C1125.04 1101.31 1123.72 1098.8 1122.04 1099.76C1120.84 1100.48 1120.39 1102.48 1119.56 1104.02C1119.25 1103.7 1118.95 1103.52 1118.89 1103.29C1118.52 1101.77 1119.44 1099.65 1118.16 1098.77C1116.94 1097.96 1114.9 1098.07 1113.26 1098.04C1112.23 1098.03 1111.1 1097.94 1111.01 1097.08C1110.77 1094.42 1108.94 1094.99 1107.21 1094.67C1104.98 1094.24 1102.73 1093.89 1100.58 1092.92C1098.2 1091.83 1095.68 1091.05 1092.91 1090.76C1089.63 1090.43 1086.43 1089.09 1083.38 1086.87C1082.77 1088.83 1082.26 1090.46 1081.75 1092.1C1080.48 1091.74 1080.89 1090.86 1080.8 1090.27C1080.14 1086.52 1079.42 1085.82 1075.43 1085.76C1073.96 1085.74 1072.82 1085.69 1072.76 1083.88C1072.67 1082.15 1071.22 1082.22 1070.11 1082.23C1065.78 1082.24 1061.91 1080.9 1058.09 1079.01C1055.58 1077.76 1052.59 1078.18 1049.99 1076.94C1048.48 1076.21 1046.96 1075.65 1045.99 1074.16C1048.38 1075.52 1051.03 1076.04 1053.73 1076.53C1051.52 1075.18 1049.33 1073.89 1047.05 1072.48C1048.82 1071.68 1050.29 1071.52 1052.68 1072.74C1057.3 1075.1 1062.04 1076.75 1067.2 1077.39C1068.91 1077.61 1070.53 1078.29 1071.75 1079.5C1073.4 1081.11 1074.1 1080.28 1074.65 1078.65C1075.22 1076.95 1075.82 1075.3 1077.02 1073.88C1078.06 1074.86 1077.67 1076.1 1077.61 1077.17C1077.42 1080.35 1078.73 1081.89 1081.97 1081.5C1083.27 1081.33 1083.9 1081.31 1084.04 1082.58C1084.17 1083.45 1084.65 1083.34 1085.31 1083.37C1089.71 1083.55 1093.65 1085.08 1097.26 1087.52C1097.78 1087.85 1098.17 1088.19 1098.85 1088.14C1102.99 1087.9 1106.69 1089.31 1110.2 1091.36C1111.64 1092.2 1112.16 1091.97 1112.64 1090.41C1113.16 1088.74 1114.09 1087.19 1114.87 1085.51C1116.31 1086.79 1115.58 1088.27 1115.56 1089.62C1115.52 1092.49 1116.86 1093.91 1119.67 1093.34C1121.1 1093.04 1121.94 1092.91 1122.4 1094.45C1122.72 1095.56 1123.8 1095.68 1124.59 1095.7C1128.05 1095.77 1130.94 1097.37 1133.78 1099C1135.1 1099.76 1136.5 1099.58 1137.79 1099.72C1141.07 1100.08 1144.11 1100.9 1146.71 1102.88C1148.22 1104.05 1148.67 1103.01 1149.17 1102.12C1150.1 1100.44 1150.87 1098.67 1151.8 1096.81C1153.44 1098.15 1152.7 1099.8 1152.46 1101C1151.89 1103.7 1153.51 1104.08 1155.44 1104.33C1157.24 1104.58 1159.17 1104.09 1160.37 1106.12C1160.66 1106.61 1161.81 1106.79 1162.59 1106.86C1166.04 1107.1 1169.23 1108.17 1172.23 1109.85C1173.79 1110.73 1175.63 1110.95 1177.44 1111.16C1180.95 1111.64 1184.05 1113.13 1186.71 1115.49C1183.12 1114.98 1180.29 1112.18 1176.15 1112.03C1179.27 1114.18 1182.47 1115.35 1185.73 1116.49C1187.1 1116.96 1186.43 1115.79 1186.66 1115.34C1188.53 1114.92 1187.85 1113.09 1188.5 1112.02C1189.12 1111.03 1189.63 1109.97 1190.19 1108.87C1191.71 1110.13 1191.07 1111.77 1191.15 1113.11C1191.36 1115.88 1192.56 1117.17 1195.26 1116.52C1196.85 1116.14 1197.88 1115.98 1198.28 1117.99C1198.55 1119.43 1199.96 1119.91 1201.34 1119.9C1203.7 1119.93 1205.88 1120.35 1207.93 1121.51C1211.12 1123.29 1214.4 1124.66 1218.21 1124.75C1220.91 1124.8 1223.56 1125.45 1225.38 1127.77C1227.17 1125.61 1227.39 1122.88 1229.46 1120.95C1230.17 1122.39 1230.01 1123.65 1230.01 1124.92C1230.05 1128.52 1231.55 1129.73 1235.51 1129.34C1234.96 1131.66 1233.32 1133.77 1234.42 1136.69C1235.13 1135.29 1235.77 1134.23 1236.17 1133.08C1236.57 1131.94 1237.35 1130.43 1235.31 1129.54ZM1088.67 1084.89C1093.75 1088.92 1099.53 1091.72 1105.78 1093.4C1099.84 1090.99 1095.01 1086.47 1088.67 1084.89ZM1180.73 1116.08C1175.43 1114.04 1171.49 1109.23 1165.02 1108.66C1170.25 1111.77 1174.97 1114.94 1180.73 1116.08ZM1143.21 1104.94C1140.32 1104.22 1137.89 1102.55 1135.29 1101.17C1132.76 1099.86 1130.5 1097.93 1127.1 1097.4C1131.97 1101.67 1137.47 1103.47 1143.21 1104.94ZM1050.81 1073.17C1055.13 1075.91 1059.15 1079.17 1064.43 1079.98C1060.01 1077.56 1055.79 1074.63 1050.81 1073.17ZM1216.24 1126.06C1219.1 1127.47 1221.71 1129.55 1225.65 1129.9C1223.05 1126.38 1219.65 1126.12 1216.24 1126.06ZM1244.55 1137.26C1249.01 1138.39 1253.52 1139.09 1258.42 1138.82C1253.8 1136.46 1249.16 1137.21 1244.55 1137.26ZM1226.96 1132.89C1228.45 1130.07 1229.44 1127.19 1228.59 1124.04C1227.39 1126.9 1225.35 1129.59 1226.96 1132.89ZM1092.68 1089.07C1090.51 1087.73 1088.34 1086.4 1086.1 1085.14C1085.57 1084.84 1084.68 1084.26 1084.2 1084.94C1083.56 1085.84 1084.58 1086.29 1085.19 1086.78C1087.34 1088.46 1090.02 1088.59 1092.68 1089.07ZM1151.56 1100.32C1149.27 1102.1 1149.35 1104.84 1148.1 1106.86C1147.77 1107.36 1148.2 1108.55 1149.07 1108.77C1150.08 1109.09 1150.02 1108.02 1150.23 1107.47C1151.07 1105.33 1151.19 1102.96 1151.56 1100.32ZM1237.19 1133.4C1241.87 1135.69 1243.57 1136.08 1246.78 1135.68C1243.69 1133.41 1240.5 1133.21 1237.19 1133.4ZM1203.66 1121.63C1207.61 1123.69 1211.59 1125.8 1215.55 1127.86C1212.16 1124.84 1208.19 1122.82 1203.66 1121.63ZM1168.6 1112.48C1165.89 1110.72 1163.54 1108.24 1159.15 1108.45C1162.5 1110.76 1165.45 1111.85 1168.6 1112.48ZM1110.67 1093.43C1108.26 1090.72 1104.81 1090.34 1101.58 1089.43C1104.33 1091.33 1107.35 1092.66 1110.67 1093.43ZM1207.77 1124.91C1204.56 1123.31 1201.38 1121.66 1198.13 1120.04C1200.17 1123.82 1204.13 1124 1207.77 1124.91ZM1114.59 1089.32C1112.56 1091.09 1112.38 1093.39 1111.72 1095.51C1111.54 1096.11 1111.8 1096.71 1112.53 1096.81C1113.24 1096.94 1113.26 1096.29 1113.43 1095.91C1114.22 1093.92 1114.41 1091.75 1114.59 1089.32ZM1157.23 1112.93C1157.98 1110.49 1158.56 1108.79 1159.02 1107.01C1159.15 1106.44 1158.86 1105.83 1158.22 1105.58C1157.81 1105.46 1157.36 1105.75 1157.33 1106.14C1157.2 1108.15 1155.51 1109.99 1157.23 1112.93ZM1076.61 1077.38C1076.28 1077.28 1075.98 1077.23 1075.66 1077.13C1075.09 1078.97 1074.48 1080.79 1073.95 1082.63C1073.76 1083.23 1073.23 1084.07 1074.21 1084.37C1074.9 1084.59 1075.53 1084 1075.67 1083.26C1076.02 1081.27 1076.31 1079.34 1076.61 1077.38ZM1195.38 1124.04C1197.1 1122.21 1197.08 1120.28 1197.26 1118.41C1197.28 1117.9 1197.17 1117.25 1196.7 1117.19C1196.15 1117.11 1195.47 1117.55 1195.49 1118.21C1195.47 1120 1194.78 1121.8 1195.38 1124.04ZM1072.74 1081.51C1069.6 1078.97 1067.12 1078.06 1062.72 1077.57C1065.61 1079.78 1068.91 1080.19 1072.74 1081.51ZM1189.71 1112.44C1189.17 1115.03 1187.29 1117.33 1188.35 1120.24C1189.73 1117.82 1189.97 1115.19 1189.71 1112.44ZM1129.34 1100.81C1127.51 1099.1 1125.7 1098.02 1123.72 1097.09C1123.28 1096.91 1122.82 1096.38 1122.48 1096.92C1122.15 1097.39 1122.17 1098.05 1122.97 1098.35C1124.94 1099.18 1126.69 1100.59 1129.34 1100.81ZM1147.18 1104.95C1144.9 1102.67 1142.18 1101.39 1138.82 1101.87C1141.61 1102.92 1144.37 1103.95 1147.18 1104.95ZM1120.01 1100.97C1120.68 1098.25 1122.12 1096.33 1120.87 1093.63C1119.14 1096.02 1119.43 1098.12 1120.01 1100.97ZM1153.29 1104.8C1152.28 1105.31 1152.01 1106.19 1151.69 1106.92C1151.34 1107.64 1150.66 1108.66 1151.85 1109.16C1153.22 1109.76 1153.09 1108.32 1153.3 1107.64C1153.51 1106.83 1154.22 1105.96 1153.29 1104.8ZM1229.41 1133.74C1230.06 1132.5 1231.75 1131.8 1230.95 1129.93C1230.85 1129.68 1230.35 1129.57 1230.05 1129.39C1229.3 1130.64 1228.69 1131.9 1228.93 1133.41C1228.91 1133.49 1229.08 1133.5 1229.41 1133.74Z" fill="white"/>
</g>
</svg>
