<svg width="1440" height="169" viewBox="0 0 1440 169" fill="none" xmlns="http://www.w3.org/2000/svg">
<g opacity="0.4">
<path d="M303.837 84.3884C303.162 83.1816 302.037 83.5217 301.875 84.3575C301.387 86.823 299.712 85.8303 298.584 85.5443C295.616 84.8092 292.778 84.95 289.903 85.9676C288.112 86.6036 286.478 85.569 284.766 85.3696C281.132 84.8887 277.542 84.9501 273.999 85.9713C273.666 86.0567 273.459 86.3917 272.752 86.9383C276.137 87.5041 279.224 87.1115 282.239 89.0151C278.945 89.6176 276.14 88.0467 272.931 89.0244C276.026 90.1345 278.992 90.5357 281.828 90.1444C284.957 89.7098 287.962 89.6516 291.096 90.2606C293.937 90.7877 296.857 90.3542 299.524 89.5882C301.483 88.9931 301.404 89.7866 301.494 91.1219C301.585 92.3737 301.8 93.6248 301.974 94.8761C302.433 94.7484 302.725 94.705 302.766 94.6213C303.452 90.2346 306.12 89.719 309.717 91.0351C310.554 91.3227 311.514 91.2757 311.886 90.6892C313.334 88.3019 315.3 89.0425 317.264 89.4909C317.348 89.4905 317.473 89.5733 317.557 89.5728C325.402 89.0706 333.299 90.4048 341.595 88.5644C341.603 89.9001 341.61 91.3193 341.618 92.6968C341.621 93.2394 341.375 94.0339 342.168 94.113C342.878 94.1926 343.042 93.4821 343.289 92.9798C343.331 92.8961 343.33 92.7709 343.371 92.6872C345.103 88.8373 345.186 88.6699 349.243 90.1921C351.209 90.9327 352.001 90.6362 352.157 88.6317C352.234 87.5042 352.566 87.2102 353.82 87.5372C358.21 88.7237 362.634 88.5742 367.183 88.3823C371.231 88.1931 375.328 89.2977 379.413 88.2317C380.788 87.8903 380.92 89.0166 381.05 90.0594C381.266 91.3523 380.565 92.8589 381.906 93.8951C383.571 93.0094 382.846 90.1331 384.932 89.9547C386.601 89.8203 388.357 90.3951 390.029 90.8033C391.074 91.0898 391.95 90.8763 392.237 89.9564C392.853 88.1163 393.814 88.1945 395.485 88.561C398.452 89.1709 401.46 89.4883 404.502 88.6785C406.92 88.0391 409.347 89.1946 411.81 89.1811C412.395 89.1779 413.02 89.0493 413.563 89.1715C415.318 89.5376 417.269 87.5232 418.571 88.9353C419.495 89.9738 419.339 92.0201 419.683 93.7297C420.057 93.5189 420.391 93.4336 420.515 93.2242C421.301 91.8841 421.038 89.5897 422.496 89.1225C423.871 88.6975 425.753 89.3969 427.3 89.8475C428.262 90.1345 429.349 90.379 429.678 89.584C430.667 87.1158 432.217 88.1926 433.93 88.3919C436.143 88.6302 438.357 88.952 440.652 88.6473C443.196 88.2994 445.784 88.2852 448.458 88.8132C451.634 89.4636 455.014 89.1112 458.513 87.8814C458.524 89.9268 458.534 91.6382 458.543 93.3496C459.837 93.3842 459.707 92.4248 459.954 91.8808C461.647 88.4904 462.521 88.0264 466.284 89.1328C467.664 89.5427 468.751 89.8289 469.326 88.1143C469.901 86.4832 471.24 86.9768 472.285 87.305C476.341 88.5768 480.348 88.4296 484.477 87.739C487.187 87.265 489.866 88.5443 492.66 88.1116C494.287 87.8522 495.872 87.76 497.202 86.6257C494.575 87.2245 491.944 86.9467 489.271 86.6274C491.73 85.9878 494.148 85.3901 496.691 84.7083C495.264 83.4221 493.925 82.845 491.34 83.3184C486.336 84.2224 481.411 84.4164 476.397 83.5256C474.726 83.2425 473.015 83.4189 471.517 84.2202C469.519 85.2747 469.096 84.2752 469.045 82.5641C468.993 80.7694 468.9 79.0167 468.181 77.3092C466.933 77.9422 466.94 79.2362 466.695 80.2811C465.96 83.3741 464.297 84.4685 461.368 83.1488C460.196 82.6126 459.61 82.4071 459.116 83.5786C458.744 84.3738 458.326 84.1256 457.699 83.9621C453.518 82.8579 449.387 83.1728 445.304 84.4475C444.72 84.6176 444.262 84.8289 443.635 84.5818C439.828 83.1417 435.948 83.4135 432.071 84.3531C430.487 84.7374 430.067 84.3641 430.058 82.7361C430.049 80.983 429.622 79.2321 429.361 77.3969C427.654 78.1993 427.913 79.8259 427.545 81.1219C426.767 83.8812 425.102 84.8505 422.632 83.4865C421.376 82.7837 420.623 82.4122 419.753 83.7527C419.132 84.7162 418.088 84.5132 417.335 84.3087C414.074 83.3664 410.905 84.0517 407.779 84.7785C406.32 85.1204 405.064 84.5429 403.81 84.2993C400.635 83.6906 397.545 83.5823 394.546 84.7258C392.796 85.4033 392.665 84.277 392.451 83.2763C392.065 81.4 391.846 79.481 391.5 77.4375C389.585 78.2412 389.803 80.0349 389.685 81.2461C389.449 84.0024 387.821 83.8861 385.941 83.5625C384.186 83.2799 382.51 82.2455 380.808 83.8411C380.392 84.2191 379.264 84.0583 378.512 83.8954C375.21 83.1204 371.913 83.222 368.619 83.9497C366.91 84.3347 365.113 84.0107 363.358 83.6863C359.932 83.1207 356.596 83.6399 353.431 85.1183C356.941 85.6834 360.395 83.8278 364.325 84.8916C360.783 86.0381 357.445 86.2233 354.064 86.3671C352.645 86.4166 353.6 85.493 353.514 84.9926C351.881 84.0415 353.041 82.4906 352.742 81.2817C352.444 80.1563 352.271 78.9885 352.055 77.7791C350.265 78.5403 350.399 80.2927 349.947 81.5475C348.96 84.141 347.462 85.0258 345.116 83.6194C343.734 82.7921 342.813 82.338 341.863 84.1382C341.202 85.4358 339.742 85.4856 338.445 85.0752C336.229 84.4195 334.058 84.181 331.806 84.6942C328.304 85.4648 324.841 85.8177 321.246 84.7939C318.696 84.0565 316.023 83.9042 313.653 85.5869C312.595 83.0046 313.165 80.33 311.774 77.8748C310.695 79.0495 310.493 80.3029 310.124 81.5155C309.058 84.9442 307.309 85.6634 303.71 84.1387C303.556 86.5189 304.488 89.0183 302.624 91.4914C302.365 89.9483 302.066 88.7394 302.017 87.5291C301.969 86.3189 301.668 84.6508 303.837 84.3884ZM454.111 84.4409C448.197 86.8109 441.983 87.8051 435.637 87.5895C441.895 87.0125 447.723 84.1003 454.111 84.4409ZM358.871 87.4261C364.42 87.0199 369.494 83.5692 375.721 84.9126C369.927 86.3636 364.593 88.0208 358.871 87.4261ZM397.234 87.7166C400.157 87.8675 402.907 86.9758 405.742 86.4176C408.494 85.9016 411.16 84.7182 414.502 85.2008C408.714 87.8623 403.038 87.9769 397.234 87.7166ZM492.973 84.2695C488.138 85.6318 483.432 87.5778 478.252 86.8131C483.088 85.7847 487.88 84.214 492.973 84.2695ZM322.717 86.6225C319.631 87.1403 316.59 88.3676 312.787 87.5536C316.238 84.9466 319.498 85.6801 322.717 86.6225ZM292.968 89.0815C288.458 88.8558 284.03 88.2122 279.513 86.5255C284.517 85.6215 288.661 87.6859 292.968 89.0815ZM310.714 90.0278C310.112 86.9003 310.012 83.8537 311.708 81.0893C312.017 84.1766 313.162 87.3428 310.714 90.0278ZM449.159 87.2648C451.577 86.6254 453.995 85.986 456.454 85.4299C457.038 85.3015 458.038 85.0038 458.293 85.7955C458.633 86.8372 457.548 86.9684 456.84 87.2645C454.341 88.2382 451.791 87.5843 449.159 87.2648ZM390.726 80.8647C392.367 83.235 391.505 85.8278 392.102 88.1204C392.272 88.7039 391.526 89.7098 390.649 89.6729C389.606 89.6786 389.976 88.6747 389.931 88.0906C389.751 85.7957 390.323 83.4967 390.726 80.8647ZM300.974 87.5349C295.928 88.3557 294.215 88.2398 291.328 86.9199C294.869 85.6482 297.92 86.3828 300.974 87.5349ZM335.779 86.05C331.484 86.8666 327.148 87.7253 322.853 88.5419C326.891 86.6414 331.187 85.8664 335.779 86.05ZM371.269 87.525C374.311 86.6317 377.224 84.9461 381.281 86.4266C377.489 87.6579 374.401 87.8418 371.269 87.525ZM431.037 86.1954C434.074 84.3003 437.417 84.9499 440.715 85.0153C437.59 86.0343 434.378 86.4276 431.037 86.1954ZM330.99 87.9964C334.451 87.393 337.912 86.7479 341.415 86.1443C338.426 89.1661 334.664 88.185 330.99 87.9964ZM428.547 81.1165C429.937 83.4047 429.448 85.6615 429.46 87.8738C429.464 88.4999 429.049 89.0031 428.339 88.8818C427.629 88.8022 427.792 88.1751 427.748 87.7579C427.569 85.63 428.017 83.4987 428.547 81.1165ZM381.808 91.2658C381.795 88.7196 381.743 86.9249 381.816 85.0878C381.855 84.5032 382.311 83.9998 382.979 83.9544C383.396 83.9521 383.733 84.3677 383.651 84.7438C383.203 86.7082 384.259 88.9565 381.808 91.2658ZM467.574 80.7772C467.908 80.7754 468.201 80.8155 468.535 80.8137C468.545 82.7338 468.597 84.6537 468.566 86.574C468.57 87.2001 468.825 88.1588 467.823 88.1643C467.114 88.1682 466.692 87.4191 466.772 86.6673C467.011 84.6624 467.293 82.7406 467.574 80.7772ZM342.86 90.7698C341.762 88.5217 342.336 86.6819 342.702 84.8432C342.824 84.3416 343.113 83.7556 343.573 83.8366C344.116 83.9171 344.62 84.5405 344.415 85.1677C343.924 86.8819 344.059 88.8013 342.86 90.7698ZM470.023 85.8564C473.688 84.3335 476.275 84.1941 480.538 85.0056C477.205 86.2762 473.988 85.7094 470.023 85.8564ZM351.49 81.3303C351.254 83.9614 352.355 86.7104 350.532 89.1832C349.932 86.4732 350.461 83.8823 351.49 81.3303ZM411.427 87.8057C413.633 86.7083 415.634 86.1964 417.761 85.8925C418.22 85.8483 418.803 85.4694 418.973 86.0946C419.143 86.6363 418.938 87.2636 418.103 87.3099C416.017 87.5301 413.976 88.3761 411.427 87.8057ZM393.512 86.5682C396.301 85.0502 399.221 84.6167 402.234 86.0612C399.313 86.2442 396.434 86.4269 393.512 86.5682ZM420.125 90.68C420.277 87.8824 419.471 85.6327 421.421 83.4096C422.355 86.2013 421.489 88.1262 420.125 90.68ZM387.825 84.6375C388.622 85.4262 388.627 86.3445 388.715 87.1372C388.845 87.9296 389.185 89.0965 387.933 89.2286C386.473 89.4036 387.009 88.0649 387.005 87.3552C387.042 86.5202 386.619 85.4789 387.825 84.6375ZM308.168 90.1252C307.91 88.7491 306.526 87.5879 307.811 86.0364C307.977 85.8267 308.478 85.8657 308.812 85.7804C309.154 87.1978 309.37 88.5741 308.71 89.9553C308.71 90.0387 308.543 89.9979 308.168 90.1252Z" fill="white"/>
<path d="M-88.5132 86.5403C-89.2011 85.3335 -90.3488 85.6738 -90.5146 86.5095C-91.012 88.9751 -92.7206 87.9826 -93.8718 87.6968C-96.8989 86.962 -99.7934 87.1031 -102.726 88.121C-104.553 88.7572 -106.219 87.7227 -107.966 87.5236C-111.673 87.043 -115.335 87.1048 -118.948 88.1265C-119.288 88.2118 -119.499 88.5469 -120.22 89.0935C-116.768 89.659 -113.62 89.2661 -110.543 91.1694C-113.904 91.7722 -116.765 90.2016 -120.038 91.1797C-116.882 92.2894 -113.856 92.6903 -110.963 92.2987C-107.772 91.8638 -104.707 91.8052 -101.51 92.4138C-98.6118 92.9406 -95.6337 92.5068 -92.9129 91.7405C-90.9149 91.1452 -90.9957 91.9387 -90.9033 93.274C-90.8112 94.5258 -90.5915 95.7769 -90.4143 97.0282C-89.9466 96.9004 -89.6488 96.857 -89.6067 96.7733C-88.9069 92.3865 -86.1848 91.8706 -82.5158 93.1863C-81.6626 93.4738 -80.6836 93.4267 -80.3036 92.8402C-78.8264 90.4528 -76.8212 91.1931 -74.8176 91.6413C-74.7324 91.6408 -74.6042 91.7236 -74.5191 91.7232C-66.5171 91.2201 -58.4624 92.5534 -49.9994 90.7121C-49.9921 92.0478 -49.9843 93.467 -49.9767 94.8445C-49.9738 95.3871 -50.2249 96.1816 -49.4154 96.2607C-48.6912 96.3402 -48.5248 95.6297 -48.272 95.1274C-48.2299 95.0436 -48.2306 94.9184 -48.1885 94.8347C-46.4213 90.9847 -46.3371 90.8172 -42.1986 92.339C-40.1934 93.0794 -39.386 92.7828 -39.2267 90.7782C-39.1477 89.6507 -38.8087 89.3567 -37.5295 89.6836C-33.0523 90.8696 -28.5398 90.7196 -23.8998 90.5272C-19.7707 90.3376 -15.592 91.4417 -11.4251 90.3753C-10.0219 90.0337 -9.888 91.16 -9.75454 92.2028C-9.53456 93.4957 -10.2501 95.0023 -8.88194 96.0384C-7.18366 95.1525 -7.92326 92.2763 -5.79531 92.0976C-4.09291 91.9631 -2.30147 92.5376 -0.596092 92.9457C0.46994 93.2321 1.36292 93.0185 1.65593 92.0985C2.28452 90.2584 3.26425 90.3365 4.96939 90.7028C7.99581 91.3124 11.0632 91.6295 14.167 90.8194C16.633 90.1797 19.1089 91.3349 21.621 91.3211C22.217 91.3179 22.855 91.1891 23.4092 91.3113C25.1995 91.6772 27.1897 89.6626 28.5173 91.0746C29.4598 92.113 29.3007 94.1593 29.6507 95.8688C30.0327 95.658 30.3729 95.5726 30.4995 95.3632C31.3011 94.0231 31.0331 91.7287 32.5207 91.2614C33.9235 90.8362 35.8434 91.5353 37.4212 91.9858C38.4021 92.2727 39.5105 92.517 39.8468 91.7221C40.8551 89.2537 42.4364 90.3304 44.1832 90.5295C46.4412 90.7676 48.6996 91.0891 51.0398 90.7841C53.6351 90.4359 56.2749 90.4214 59.0028 90.9491C62.2424 91.5993 65.6893 91.2464 69.2591 90.0163C69.2704 92.0616 69.2797 93.773 69.2891 95.4844C70.6093 95.5189 70.4763 94.5596 70.7287 94.0155C72.4559 90.6249 73.3475 90.1608 77.1856 91.2669C78.5929 91.6766 79.7016 91.9627 80.2882 90.248C80.8754 88.6168 82.2406 89.1102 83.3069 89.4383C87.444 90.7097 91.5307 90.562 95.7422 89.8711C98.5072 89.3967 101.239 90.6758 104.09 90.2427C105.749 89.9831 107.366 89.8908 108.722 88.7563C106.043 89.3554 103.359 89.0779 100.633 88.7589C103.141 88.119 105.607 87.5211 108.201 86.839C106.746 85.5529 105.381 84.976 102.743 85.4497C97.6389 86.3543 92.6157 86.5488 87.5014 85.6585C85.7967 85.3756 84.052 85.5522 82.5236 86.3537C80.4856 87.4084 80.0543 86.409 80.0023 84.6978C79.9499 82.9031 79.8551 81.1504 79.1219 79.443C77.8481 80.0761 77.8552 81.3701 77.6054 82.4151C76.856 85.5082 75.1588 86.6028 72.1711 85.2834C70.976 84.7473 70.3787 84.5418 69.8742 85.7134C69.4954 86.5086 69.0682 86.2605 68.4287 86.097C64.1648 84.9934 59.9512 85.3087 55.7855 86.5838C55.1903 86.754 54.7231 86.9653 54.0831 86.7184C50.2006 85.2787 46.2423 85.5508 42.2876 86.4908C40.6718 86.8754 40.2439 86.5021 40.235 84.8741C40.2254 83.121 39.79 81.3702 39.5245 79.5349C37.7831 80.3376 38.0475 81.9641 37.6714 83.2602C36.8776 86.0196 35.1798 86.989 32.6601 85.6253C31.3789 84.9227 30.6105 84.5512 29.7237 85.8919C29.0903 86.8554 28.0247 86.6526 27.2572 86.448C23.9309 85.5062 20.6987 86.1918 17.5093 86.9189C16.0209 87.261 14.7404 86.6837 13.4617 86.4402C10.2224 85.8318 7.07101 85.7239 4.01163 86.8677C2.22705 87.5454 2.09313 86.4191 1.87476 85.4185C1.48126 83.5422 1.25785 81.6232 0.906016 79.5798C-1.04819 80.3836 -0.825454 82.1773 -0.946553 83.3885C-1.1869 86.1449 -2.8481 86.0288 -4.76591 85.7053C-6.55575 85.4229 -8.26457 84.3887 -10.0015 85.9845C-10.4253 86.3625 -11.5757 86.2018 -12.3431 86.0391C-15.711 85.2644 -19.0741 85.3664 -22.4339 86.0944C-24.1775 86.4797 -26.0101 86.1558 -27.8002 85.8317C-31.2947 85.2664 -34.6981 85.786 -37.926 87.2647C-34.3463 87.8295 -30.8225 85.9735 -26.8143 87.0368C-30.4272 88.1837 -33.8324 88.3693 -37.2805 88.5134C-38.7279 88.5631 -37.7536 87.6394 -37.8415 87.139C-39.5073 86.1881 -38.3236 84.6371 -38.6283 83.4282C-38.9325 82.3028 -39.1092 81.135 -39.3288 79.9257C-41.1555 80.687 -41.0181 82.4395 -41.4796 83.6943C-42.4873 86.2879 -44.0152 87.1729 -46.4073 85.7667C-47.817 84.9396 -48.7562 84.4856 -49.7256 86.2858C-50.3997 87.5836 -51.8897 87.6335 -53.2119 87.2233C-55.4722 86.5678 -57.6875 86.3295 -59.984 86.843C-63.5563 87.614 -67.0884 87.9673 -70.7558 86.9438C-73.3571 86.2067 -76.083 86.0547 -78.5007 87.7377C-79.5793 85.1555 -78.9979 82.4808 -80.4165 80.0258C-81.5171 81.2006 -81.7231 82.454 -82.0996 83.6666C-83.1879 87.0955 -84.9722 87.8149 -88.6423 86.2906C-88.7996 88.6708 -87.8492 91.1701 -89.7516 93.6434C-90.0156 92.1003 -90.3202 90.8915 -90.3694 89.6812C-90.4187 88.4709 -90.7259 86.8029 -88.5132 86.5403ZM64.7695 86.5763C58.7364 88.9469 52.3977 89.9418 45.9245 89.7268C52.3082 89.1492 58.2532 86.2363 64.7695 86.5763ZM-32.3781 89.5719C-26.7174 89.1651 -21.5418 85.7138 -15.1902 87.0565C-21.1007 88.5082 -26.5416 90.166 -32.3781 89.5719ZM6.75306 89.8582C9.73439 90.0088 12.5397 89.1168 15.4319 88.5583C18.2393 88.042 20.9578 86.8583 24.3667 87.3405C18.4629 90.0027 12.6729 90.1179 6.75306 89.8582ZM104.409 86.4006C99.4775 87.7634 94.6768 89.7099 89.3929 88.9458C94.3264 87.9169 99.2143 86.3456 104.409 86.4006ZM-69.2555 88.7723C-72.4035 89.2905 -75.505 90.518 -79.3841 89.7044C-75.8644 87.0971 -72.5392 87.8302 -69.2555 88.7723ZM-99.6005 91.2346C-104.2 91.0093 -108.717 90.3662 -113.325 88.68C-108.22 87.7754 -103.994 89.8394 -99.6005 91.2346ZM-81.4994 92.1789C-82.1127 89.0515 -82.2145 86.0049 -80.484 83.2403C-80.169 86.3276 -79.002 89.4936 -81.4994 92.1789ZM59.7182 89.4007C62.1842 88.7611 64.6503 88.1214 67.1594 87.565C67.7548 87.4365 68.775 87.1387 69.0348 87.9304C69.3811 88.9721 68.2748 89.1034 67.5526 89.3995C65.0033 90.3736 62.4024 89.72 59.7182 89.4007ZM0.115824 83.007C1.78938 85.3772 0.909442 87.9701 1.51812 90.2626C1.69163 90.846 0.930732 91.852 0.0363822 91.8152C-1.02805 91.821 -0.650338 90.8171 -0.696122 90.233C-0.879021 87.9381 -0.295528 85.6391 0.115824 83.007ZM-91.4339 89.687C-96.5814 90.5084 -98.3277 90.3927 -101.273 89.0731C-97.6607 87.801 -94.5484 88.5353 -91.4339 89.687ZM-55.9316 88.1983C-60.3127 89.0154 -64.7361 89.8746 -69.1172 90.6917C-64.9976 88.7907 -60.6162 88.0153 -55.9316 88.1983ZM-19.7318 89.6695C-16.6285 88.7759 -13.6572 87.0899 -9.51899 88.5699C-13.3869 89.8017 -16.5367 89.9859 -19.7318 89.6695ZM41.2333 88.3333C44.3311 86.4379 47.7409 87.0871 51.105 87.1521C47.9172 88.1714 44.6408 88.5651 41.2333 88.3333ZM-60.8174 90.1453C-57.2867 89.5415 -53.7563 88.896 -50.183 88.292C-53.2321 91.3142 -57.0695 90.3334 -60.8174 90.1453ZM38.6933 83.2546C40.1109 85.5427 39.6124 87.7995 39.6245 90.0118C39.6279 90.638 39.2049 91.1412 38.4804 91.02C37.7561 90.9404 37.923 90.3134 37.8781 89.8962C37.6962 87.7683 38.1528 85.6369 38.6933 83.2546ZM-8.98151 93.4091C-8.99547 90.8629 -9.0479 89.0682 -8.97282 87.2311C-8.93344 86.6465 -8.46784 86.1431 -7.78683 86.0976C-7.36106 86.0952 -7.01815 86.5108 -7.10124 86.8869C-7.55884 88.8514 -6.48204 91.0996 -8.98151 93.4091ZM78.5023 82.9111C78.8429 82.9092 79.1412 82.9493 79.4818 82.9474C79.4923 84.8675 79.5454 86.7874 79.5134 88.7078C79.5168 89.3339 79.7775 90.2926 78.7557 90.2982C78.0319 90.3021 77.602 89.5531 77.683 88.8013C77.9275 86.7963 78.215 84.8746 78.5023 82.9111ZM-48.7099 92.9174C-49.8293 90.6694 -49.2433 88.8295 -48.8702 86.9908C-48.7452 86.4892 -48.4504 85.9032 -47.9815 85.9841C-47.4276 86.0645 -46.9132 86.6878 -47.1227 87.3151C-47.6242 89.0293 -47.486 90.9488 -48.7099 92.9174ZM80.9997 87.99C84.7382 86.4668 87.3773 86.327 91.7248 87.1381C88.3255 88.409 85.0438 87.8426 80.9997 87.99ZM-39.9054 83.477C-40.1464 86.1081 -39.0243 88.857 -40.8842 91.33C-41.4952 88.62 -40.9559 86.029 -39.9054 83.477ZM21.2302 89.9458C23.4809 88.8481 25.5218 88.336 27.6916 88.0319C28.1598 87.9876 28.7538 87.6086 28.9275 88.2338C29.1008 88.7755 28.8914 89.4028 28.0401 89.4492C25.9123 89.6696 23.8306 90.5159 21.2302 89.9458ZM2.95727 88.7102C5.8017 87.1919 8.77982 86.7581 11.8534 88.2022C8.87391 88.3856 5.93699 88.5686 2.95727 88.7102ZM30.1023 92.8191C30.2573 90.0215 29.4359 87.7719 31.4249 85.5486C32.377 88.3401 31.4934 90.2652 30.1023 92.8191ZM-2.84398 86.7801C-2.03066 87.5688 -2.02564 88.4871 -1.93613 89.2797C-1.80405 90.0721 -1.45702 91.239 -2.73365 91.3712C-4.22294 91.5463 -3.67675 90.2076 -3.68064 89.498C-3.64264 88.6629 -4.07414 87.6217 -2.84398 86.7801ZM-84.0962 92.2766C-84.3592 90.9005 -85.7707 89.7395 -84.4592 88.1878C-84.2901 87.9781 -83.7789 88.0171 -83.4387 87.9317C-83.0903 89.3491 -82.8699 90.7254 -83.5436 92.1066C-83.5431 92.1901 -83.7137 92.1493 -84.0962 92.2766Z" fill="white"/>
<path d="M278.195 84.5289C278.87 83.3146 280.021 83.6422 280.196 84.4761C280.721 86.9361 282.418 85.925 283.566 85.6265C286.585 84.8585 289.481 84.9679 292.424 85.9536C294.258 86.5696 295.913 85.517 297.658 85.2987C301.359 84.7775 305.021 84.7992 308.646 85.7811C308.987 85.8627 309.201 86.1955 309.928 86.7342C306.483 87.3375 303.33 86.9791 300.275 88.916C303.642 89.4819 306.486 87.8801 309.769 88.8222C306.625 89.9665 303.604 90.4005 300.707 90.0407C297.511 89.6408 294.445 89.6158 291.256 90.2595C288.363 90.818 285.381 90.4169 282.652 89.6805C280.647 89.1071 280.737 89.8997 280.659 91.2359C280.581 92.4887 280.375 93.7421 280.211 94.9953C279.742 94.8726 279.444 94.8325 279.401 94.7492C278.653 90.3703 275.925 89.8844 272.271 91.2402C271.421 91.5371 270.442 91.5007 270.055 90.9184C268.552 88.5473 266.555 89.3096 264.556 89.7798C264.471 89.7802 264.344 89.8644 264.259 89.8649C256.252 89.4496 248.212 90.8712 239.729 89.1228C239.737 90.4585 239.745 91.8778 239.752 93.2552C239.755 93.7979 240.015 94.5896 239.206 94.6775C238.483 94.7649 238.309 94.0563 238.051 93.5568C238.008 93.4735 238.007 93.3483 237.964 93.265C236.155 89.4346 236.068 89.2681 231.947 90.8352C229.95 91.5975 229.139 91.3098 228.958 89.3071C228.867 88.1806 228.525 87.8902 227.249 88.2312C222.785 89.4662 218.271 89.3657 213.629 89.2242C209.498 89.0799 205.332 90.2298 201.154 89.2091C199.747 88.8829 199.625 90.0106 199.503 91.0549C199.298 92.35 200.03 93.8488 198.673 94.8998C196.965 94.0325 197.673 91.1484 195.543 90.9931C193.839 90.8772 192.054 91.4714 190.354 91.8982C189.291 92.1962 188.395 91.9924 188.092 91.0757C187.444 89.2426 186.465 89.3314 184.764 89.7165C181.744 90.3592 178.681 90.7099 175.568 89.9339C173.095 89.3213 170.632 90.5036 168.12 90.5174C167.524 90.5206 166.885 90.3989 166.332 90.5272C164.546 90.9127 162.534 88.92 161.221 90.3465C160.29 91.3952 160.472 93.4396 160.141 95.1528C159.756 94.9462 159.415 94.8646 159.286 94.6566C158.47 93.3253 158.713 91.0281 157.22 90.5771C155.813 90.1674 153.901 90.8875 152.328 91.3553C151.35 91.6529 150.245 91.9094 149.9 91.1182C148.864 88.6611 147.295 89.755 145.55 89.9733C143.295 90.2361 141.04 90.5824 138.697 90.303C136.098 89.9834 133.458 89.9978 130.736 90.5554C127.504 91.241 124.054 90.926 120.47 89.7351C120.482 91.7805 120.491 93.4919 120.5 95.2033C119.181 95.2522 119.303 94.2915 119.045 93.7502C117.281 90.3788 116.384 89.9245 112.558 91.0725C111.155 91.4977 110.05 91.7959 109.445 90.0878C108.84 88.4631 107.48 88.9715 106.417 89.3113C102.294 90.6279 98.2062 90.5251 93.9874 89.8804C91.2174 89.4364 88.4995 90.7453 85.6446 90.3435C83.9827 90.1022 82.3643 90.0276 80.9956 88.908C83.6812 89.4777 86.362 89.1708 89.0851 88.8219C86.5696 88.2096 84.0969 87.6387 81.496 86.9851C82.9366 85.6832 84.2958 85.0913 86.9381 85.536C92.0522 86.3846 97.0772 86.524 102.181 85.5776C103.883 85.2761 105.63 85.4335 107.167 86.2182C109.216 87.2505 109.636 86.2464 109.67 84.5348C109.702 82.7396 109.778 80.986 110.492 79.2706C111.773 79.8898 111.78 81.1838 112.041 82.2259C112.825 85.3106 114.534 86.3865 117.507 85.0344C118.696 84.4852 119.291 84.2733 119.808 85.4392C120.196 86.2302 120.62 85.9774 121.258 85.807C125.509 84.6566 129.726 84.9257 133.906 86.155C134.503 86.3187 134.972 86.5249 135.609 86.2709C139.476 84.7887 143.437 85.0174 147.402 85.914C149.022 86.2808 149.445 85.9028 149.436 84.2749C149.427 82.5218 149.843 80.7663 150.088 78.9283C151.838 79.7118 151.592 81.3411 151.982 82.633C152.806 85.3835 154.515 86.3342 157.019 84.943C158.292 84.2263 159.057 83.8465 159.958 85.1773C160.602 86.1339 161.665 85.9193 162.431 85.7064C165.746 84.7281 168.986 85.3782 172.183 86.0703C173.675 86.3961 174.949 85.8047 176.225 85.5473C179.458 84.9034 182.608 84.7609 185.679 85.8711C187.471 86.5292 187.593 85.4014 187.8 84.3985C188.173 82.518 188.376 80.5967 188.705 78.5495C190.668 79.3319 190.465 81.1279 190.599 82.3377C190.87 85.0913 192.53 84.9569 194.444 84.6125C196.23 84.3105 197.928 83.2576 199.682 84.8342C200.11 85.2076 201.259 85.0343 202.024 84.8631C205.383 84.0516 208.747 84.1166 212.115 84.8078C213.863 85.1739 215.692 84.8299 217.478 84.4862C220.966 83.8826 224.375 84.3648 227.619 85.8081C224.046 86.4121 220.502 84.5948 216.505 85.702C220.131 86.8092 223.538 86.9575 226.987 87.0638C228.435 87.0976 227.451 86.1847 227.533 85.6833C229.188 84.7141 227.988 83.1762 228.279 81.9641C228.571 80.8354 228.735 79.6657 228.941 78.4541C230.776 79.1954 230.658 80.9492 231.133 82.1989C232.169 84.7813 233.707 85.6494 236.083 84.2172C237.484 83.3746 238.418 82.9103 239.407 84.6998C240.095 85.9901 241.586 86.0237 242.903 85.599C245.156 84.9188 247.369 84.6562 249.671 85.1445C253.252 85.8762 256.787 86.1907 260.443 85.1271C263.036 84.3615 265.76 84.1796 268.196 85.836C269.247 83.2422 268.636 80.574 270.027 78.1035C271.141 79.2662 271.361 80.5173 271.75 81.7257C272.876 85.1424 274.668 85.8422 278.322 84.2777C278.505 86.656 277.582 89.1657 279.511 91.6179C279.758 90.0721 280.05 88.8599 280.086 87.6492C280.122 86.4385 280.411 84.7672 278.195 84.5289ZM124.922 86.246C130.981 88.5504 137.33 89.4757 143.8 89.1897C137.411 88.6821 131.434 85.8346 124.922 86.246ZM222.097 88.1759C216.432 87.8313 211.219 84.437 204.882 85.8493C210.808 87.236 216.267 88.8341 222.097 88.1759ZM182.971 88.8914C179.992 89.0747 177.177 88.2136 174.278 87.6868C171.466 87.2013 168.734 86.0475 165.331 86.5671C171.263 89.1644 177.054 89.2161 182.971 88.8914ZM85.2829 86.5052C90.2292 87.8138 95.0509 89.7076 100.326 88.8855C95.3817 87.9108 90.4769 86.3932 85.2829 86.5052ZM258.963 86.9719C262.117 87.4555 265.231 88.649 269.101 87.7929C265.553 85.2243 262.236 85.9939 258.963 86.9719ZM289.333 89.1012C293.93 88.8256 298.44 88.1329 303.029 86.3963C297.915 85.5478 293.711 87.658 289.333 89.1012ZM271.244 90.244C271.823 87.1101 271.891 84.0625 270.13 81.3171C269.849 84.4077 268.717 87.5863 271.244 90.244ZM130.004 89.0149C127.531 88.4024 125.058 87.7898 122.543 87.2609C121.946 87.139 120.923 86.8524 120.672 87.6469C120.337 88.6923 121.445 88.8114 122.17 89.0997C124.73 90.0457 127.324 89.3636 130.004 89.0149ZM189.533 81.9679C187.885 84.3563 188.794 86.9393 188.21 89.2384C188.043 89.8237 188.815 90.8213 189.709 90.7746C190.773 90.7688 190.384 89.7691 190.424 89.1845C190.582 86.8878 189.973 84.5953 189.533 81.9679ZM281.15 87.6434C286.306 88.4082 288.051 88.2734 290.982 86.9216C287.356 85.6892 284.252 86.4576 281.15 87.6434ZM245.634 86.5441C250.023 87.3132 254.456 88.1237 258.846 88.8927C254.706 87.037 250.316 86.3097 245.634 86.5441ZM209.452 88.4123C206.339 87.5527 203.35 85.8994 199.228 87.4248C203.109 88.614 206.261 88.7637 209.452 88.4123ZM148.476 87.7448C145.358 85.8835 141.955 86.5701 138.592 86.672C141.791 87.6563 145.071 88.014 148.476 87.7448ZM250.541 88.4374C247.003 87.8724 243.466 87.2656 239.886 86.7009C242.968 89.6894 246.795 88.6666 250.541 88.4374ZM150.96 82.6386C149.568 84.9421 150.091 87.1933 150.103 89.4056C150.107 90.0318 150.535 90.5303 151.258 90.4011C151.982 90.3137 151.808 89.6885 151.848 89.2708C152.007 87.1411 151.527 85.0148 150.96 82.6386ZM198.744 92.2696C198.73 89.7233 198.762 87.9282 198.667 86.0921C198.621 85.5079 198.15 85.0096 197.469 84.9716C197.043 84.9739 196.705 85.3932 196.792 85.7684C197.271 87.7277 196.219 89.9876 198.744 92.2696ZM111.15 82.7317C110.809 82.7336 110.511 82.7769 110.171 82.7788C110.181 84.6989 110.149 86.6193 110.202 88.5391C110.206 89.1653 109.956 90.1267 110.978 90.1211C111.701 90.1171 112.123 89.3635 112.034 88.6126C111.767 86.6104 111.459 84.6919 111.15 82.7317ZM238.464 91.3421C239.559 89.082 238.953 87.2486 238.559 85.4141C238.429 84.9139 238.128 84.3312 237.66 84.4172C237.107 84.5037 236.599 85.1327 236.816 85.7576C237.336 87.4662 237.219 89.387 238.464 91.3421ZM108.708 87.8377C104.953 86.3556 102.313 86.2448 97.9746 87.1035C101.388 88.337 104.663 87.7347 108.708 87.8377ZM229.557 81.9988C229.827 84.6272 228.735 87.3882 230.622 89.8406C231.203 87.1242 230.635 84.5392 229.557 81.9988ZM168.496 89.1378C166.233 88.0649 164.187 87.5752 162.014 87.2949C161.545 87.2557 160.947 86.8833 160.78 87.5104C160.613 88.054 160.829 88.6789 161.681 88.716C163.811 88.913 165.902 89.7364 168.496 89.1378ZM186.754 87.7019C183.893 86.2148 180.91 85.8138 177.853 87.2915C180.834 87.4422 183.773 87.593 186.754 87.7019ZM159.656 92.1083C159.47 89.3125 160.267 87.054 158.253 84.8527C157.332 87.6545 158.237 89.5697 159.656 92.1083ZM192.534 85.7083C191.729 86.5058 191.734 87.4241 191.653 88.2177C191.53 89.0115 191.196 90.1821 192.474 90.3003C193.965 90.4591 193.404 89.1264 193.4 88.4168C193.353 87.5822 193.773 86.5363 192.534 85.7083ZM273.841 90.3132C274.089 88.9344 275.488 87.7579 274.159 86.2207C273.988 86.0129 273.477 86.0575 273.136 85.9759C272.803 87.3969 272.598 88.7756 273.287 90.1493C273.287 90.2328 273.457 90.1901 273.841 90.3132Z" fill="white"/>
<path d="M679.035 82.3306C679.71 81.1164 680.861 81.444 681.036 82.2779C681.56 84.7378 683.258 83.7267 684.406 83.4282C687.425 82.6603 690.321 82.7696 693.264 83.7553C695.098 84.3714 696.753 83.3188 698.498 83.1005C702.199 82.5793 705.861 82.6009 709.486 83.5829C709.827 83.6645 710.041 83.9973 710.768 84.5359C707.323 85.1392 704.17 84.7808 701.115 86.7177C704.482 87.2837 707.326 85.6819 710.609 86.6239C707.465 87.7682 704.444 88.2022 701.547 87.8424C698.351 87.4425 695.285 87.4176 692.095 88.0612C689.203 88.6198 686.22 88.2187 683.491 87.4823C681.487 86.9089 681.577 87.7015 681.499 89.0377C681.42 90.2904 681.214 91.5438 681.051 92.797C680.582 92.6744 680.284 92.6342 680.241 92.551C679.493 88.1721 676.765 87.6861 673.111 89.042C672.261 89.3388 671.281 89.3024 670.895 88.7202C669.392 86.3491 667.395 87.1114 665.396 87.5815C665.311 87.582 665.184 87.6662 665.099 87.6666C657.092 87.2514 649.052 88.673 640.569 86.9246C640.577 88.2603 640.584 89.6795 640.592 91.057C640.595 91.5996 640.855 92.3913 640.046 92.4792C639.323 92.5667 639.149 91.858 638.89 91.3585C638.847 91.2753 638.847 91.15 638.804 91.0668C636.994 87.2364 636.908 87.0699 632.787 88.637C630.79 89.3993 629.979 89.1115 629.798 87.1089C629.707 85.9823 629.364 85.692 628.089 86.0329C623.625 87.268 619.111 87.1675 614.469 87.026C610.338 86.8816 606.172 88.0316 601.994 87.0109C600.587 86.6847 600.465 87.8124 600.343 88.8566C600.137 90.1518 600.869 91.6505 599.513 92.7015C597.805 91.8343 598.513 88.9502 596.383 88.7949C594.679 88.679 592.894 89.2732 591.193 89.6999C590.131 89.998 589.235 89.7942 588.932 88.8775C588.284 87.0443 587.305 87.1332 585.604 87.5182C582.584 88.1609 579.52 88.5117 576.408 87.7356C573.935 87.123 571.472 88.3053 568.96 88.3191C568.364 88.3224 567.724 88.2007 567.172 88.3289C565.385 88.7144 563.373 86.7218 562.061 88.1482C561.13 89.1969 561.312 91.2413 560.981 92.9546C560.596 92.748 560.255 92.6664 560.126 92.4584C559.31 91.1271 559.553 88.8299 558.06 88.3789C556.653 87.9692 554.741 88.6893 553.168 89.1571C552.19 89.4547 551.085 89.7112 550.74 88.92C549.704 86.4628 548.135 87.5567 546.39 87.775C544.135 88.0378 541.88 88.3841 539.537 88.1048C536.938 87.7851 534.298 87.7996 531.576 88.3572C528.344 89.0428 524.893 88.7278 521.31 87.5369C521.321 89.5822 521.331 91.2936 521.34 93.005C520.021 93.054 520.143 92.0932 519.885 91.552C518.12 88.1805 517.224 87.7263 513.398 88.8743C511.995 89.2994 510.89 89.5977 510.284 87.8895C509.679 86.2649 508.32 86.7733 507.257 87.113C503.134 88.4297 499.046 88.3269 494.827 87.6821C492.057 87.2381 489.339 88.5471 486.484 88.1453C484.823 87.904 483.204 87.8293 481.835 86.7098C484.521 87.2795 487.202 86.9726 489.925 86.6237C487.409 86.0113 484.937 85.4405 482.336 84.7869C483.776 83.4849 485.136 82.8931 487.778 83.3378C492.892 84.1863 497.917 84.3257 503.021 83.3794C504.723 83.0779 506.469 83.2353 508.006 84.02C510.056 85.0523 510.476 84.0481 510.509 82.3365C510.542 80.5414 510.618 78.7878 511.332 77.0724C512.613 77.6915 512.62 78.9855 512.881 80.0276C513.664 83.1123 515.374 84.1883 518.347 82.8362C519.536 82.287 520.131 82.075 520.648 83.241C521.036 84.032 521.46 83.7792 522.098 83.6087C526.349 82.4584 530.566 82.7274 534.745 83.9568C535.342 84.1205 535.812 84.3266 536.449 84.0727C540.316 82.5905 544.277 82.8192 548.241 83.7158C549.861 84.0826 550.285 83.7046 550.276 82.0767C550.267 80.3235 550.683 78.568 550.928 76.73C552.678 77.5135 552.432 79.1429 552.822 80.4347C553.646 83.1853 555.354 84.136 557.859 82.7447C559.132 82.0281 559.897 81.6482 560.798 82.9791C561.442 83.9356 562.505 83.7211 563.271 83.5082C566.586 82.5299 569.826 83.18 573.023 83.8721C574.515 84.1979 575.789 83.6065 577.065 83.349C580.298 82.7051 583.448 82.5626 586.519 83.6729C588.311 84.3309 588.433 83.2032 588.64 82.2002C589.013 80.3197 589.215 78.3985 589.545 76.3513C591.508 77.1336 591.305 78.9297 591.439 80.1395C591.71 82.893 593.369 82.7587 595.284 82.4142C597.07 82.1122 598.768 81.0594 600.522 82.636C600.95 83.0093 602.098 82.836 602.864 82.6649C606.223 81.8533 609.587 81.9184 612.955 82.6095C614.702 82.9756 616.531 82.6317 618.318 82.2879C621.806 81.6844 625.215 82.1666 628.459 83.6098C624.886 84.2138 621.342 82.3966 617.345 83.5038C620.97 84.611 624.378 84.7593 627.827 84.8656C629.275 84.8994 628.291 83.9864 628.373 83.4851C630.028 82.5159 628.828 80.978 629.119 79.7659C629.411 78.6372 629.575 77.4675 629.781 76.2558C631.616 76.9971 631.498 78.751 631.973 80.0007C633.009 82.583 634.547 83.4512 636.923 82.0189C638.324 81.1764 639.258 80.7121 640.247 82.5016C640.935 83.7918 642.426 83.8254 643.743 83.4008C645.996 82.7205 648.209 82.4579 650.511 82.9462C654.091 83.678 657.627 83.9925 661.283 82.9289C663.876 82.1633 666.6 81.9814 669.036 83.6377C670.086 81.0439 669.476 78.3757 670.867 75.9053C671.981 77.068 672.2 78.319 672.59 79.5274C673.716 82.9442 675.508 83.644 679.161 82.0795C679.345 84.4578 678.422 86.9674 680.351 89.4197C680.598 87.8738 680.89 86.6617 680.926 85.451C680.962 84.2402 681.25 82.5689 679.035 82.3306ZM525.762 84.0478C531.821 86.3522 538.17 87.2774 544.64 86.9915C538.251 86.4839 532.274 83.6364 525.762 84.0478ZM622.937 85.9777C617.272 85.6331 612.059 82.2388 605.722 83.651C611.648 85.0378 617.107 86.6358 622.937 85.9777ZM583.811 86.6932C580.831 86.8765 578.016 86.0153 575.118 85.4886C572.305 85.0031 569.574 83.8493 566.171 84.3688C572.103 86.9661 577.894 87.0178 583.811 86.6932ZM486.123 84.3069C491.069 85.6156 495.891 87.5093 501.166 86.6873C496.222 85.7126 491.317 84.195 486.123 84.3069ZM659.803 84.7737C662.956 85.2573 666.071 86.4508 669.941 85.5947C666.393 83.0261 663.076 83.7957 659.803 84.7737ZM690.173 86.903C694.77 86.6273 699.28 85.9347 703.869 84.1981C698.754 83.3495 694.551 85.4597 690.173 86.903ZM672.083 88.0458C672.662 84.9119 672.731 81.8643 670.97 79.1189C670.689 82.2094 669.557 85.3881 672.083 88.0458ZM530.844 86.8167C528.371 86.2041 525.898 85.5915 523.383 85.0627C522.786 84.9407 521.763 84.6541 521.512 85.4486C521.177 86.494 522.285 86.6132 523.01 86.9014C525.57 87.8475 528.163 87.1653 530.844 86.8167ZM590.373 79.7696C588.725 82.158 589.633 84.7411 589.05 87.0401C588.883 87.6255 589.655 88.6231 590.549 88.5764C591.613 88.5706 591.224 87.5709 591.264 86.9863C591.421 84.6895 590.813 82.397 590.373 79.7696ZM681.99 85.4451C687.146 86.21 688.891 86.0752 691.822 84.7233C688.196 83.4909 685.092 84.2593 681.99 85.4451ZM646.474 84.3459C650.863 85.1149 655.296 85.9255 659.686 86.6945C655.545 84.8388 651.156 84.1115 646.474 84.3459ZM610.292 86.214C607.179 85.3545 604.19 83.7012 600.068 85.2265C603.949 86.4158 607.101 86.5655 610.292 86.214ZM549.316 85.5466C546.198 83.6853 542.795 84.3718 539.432 84.4737C542.631 85.458 545.911 85.8157 549.316 85.5466ZM651.38 86.2391C647.843 85.6741 644.306 85.0674 640.726 84.5026C643.808 87.4912 647.635 86.4684 651.38 86.2391ZM551.8 80.4403C550.408 82.7438 550.931 84.9951 550.943 87.2074C550.947 87.8335 551.375 88.3321 552.098 88.2029C552.822 88.1154 552.648 87.4902 552.688 87.0726C552.847 84.9428 552.367 82.8166 551.8 80.4403ZM599.583 90.0713C599.569 87.5251 599.602 85.73 599.507 83.8938C599.461 83.3097 598.99 82.8113 598.309 82.7733C597.883 82.7757 597.545 83.195 597.632 83.5702C598.111 85.5294 597.059 87.7893 599.583 90.0713ZM511.99 80.5334C511.649 80.5353 511.351 80.5787 511.011 80.5806C511.021 82.5007 510.989 84.421 511.042 86.3409C511.046 86.967 510.796 87.9285 511.817 87.9229C512.541 87.9189 512.963 87.1652 512.874 86.4143C512.607 84.4121 512.299 82.4937 511.99 80.5334ZM639.304 89.1439C640.399 86.8838 639.793 85.0504 639.399 83.2159C639.269 82.7157 638.968 82.1329 638.5 82.219C637.947 82.3055 637.439 82.9344 637.655 83.5594C638.176 85.268 638.059 87.1888 639.304 89.1439ZM509.548 85.6395C505.793 84.1573 503.153 84.0466 498.814 84.9052C502.227 86.1388 505.503 85.5364 509.548 85.6395ZM630.397 79.8006C630.666 82.4289 629.574 85.1899 631.461 87.6424C632.043 84.9259 631.475 82.341 630.397 79.8006ZM569.336 86.9395C567.073 85.8666 565.027 85.377 562.854 85.0967C562.385 85.0575 561.787 84.6851 561.62 85.3121C561.453 85.8557 561.669 86.4807 562.521 86.5178C564.651 86.7148 566.742 87.5382 569.336 86.9395ZM587.594 85.5036C584.733 84.0166 581.75 83.6155 578.693 85.0933C581.674 85.2439 584.613 85.3948 587.594 85.5036ZM560.495 89.91C560.31 87.1143 561.106 84.8558 559.093 82.6545C558.172 85.4563 559.076 87.3715 560.495 89.91ZM593.374 83.51C592.569 84.3076 592.574 85.2259 592.493 86.0194C592.37 86.8132 592.036 87.9839 593.314 88.1021C594.805 88.2609 594.244 86.9282 594.24 86.2186C594.193 85.384 594.613 84.3381 593.374 83.51ZM674.681 88.115C674.929 86.7361 676.328 85.5597 674.999 84.0225C674.828 83.8147 674.317 83.8592 673.976 83.7776C673.643 85.1987 673.438 86.5773 674.127 87.9511C674.127 88.0346 674.297 87.9919 674.681 88.115Z" fill="white"/>
<path d="M1118.71 80.0506C1118.04 78.8437 1116.91 79.1838 1116.75 80.0196C1116.26 82.4851 1114.59 81.4924 1113.46 81.2064C1110.49 80.4713 1107.65 80.6121 1104.78 81.6297C1102.99 82.2657 1101.35 81.2311 1099.64 81.0317C1096.01 80.5508 1092.42 80.6122 1088.87 81.6335C1088.54 81.7188 1088.33 82.0538 1087.63 82.6004C1091.01 83.1662 1094.1 82.7736 1097.11 84.6772C1093.82 85.2797 1091.01 83.7089 1087.81 84.6865C1090.9 85.7966 1093.87 86.1978 1096.7 85.8065C1099.83 85.372 1102.84 85.3137 1105.97 85.9227C1108.81 86.4498 1111.73 86.0163 1114.4 85.2503C1116.36 84.6552 1116.28 85.4487 1116.37 86.784C1116.46 88.0358 1116.68 89.2869 1116.85 90.5382C1117.31 90.4105 1117.6 90.3671 1117.64 90.2834C1118.33 85.8967 1121 85.3811 1124.59 86.6972C1125.43 86.9848 1126.39 86.9378 1126.76 86.3513C1128.21 83.964 1130.17 84.7046 1132.14 85.153C1132.22 85.1526 1132.35 85.2354 1132.43 85.2349C1140.28 84.7327 1148.17 86.0669 1156.47 84.2265C1156.48 85.5622 1156.49 86.9814 1156.49 88.3589C1156.5 88.9015 1156.25 89.696 1157.04 89.7751C1157.75 89.8547 1157.92 89.1442 1158.16 88.6419C1158.21 88.5582 1158.2 88.433 1158.25 88.3493C1159.98 84.4994 1160.06 84.332 1164.12 85.8542C1166.08 86.5948 1166.88 86.2983 1167.03 84.2938C1167.11 83.1663 1167.44 82.8723 1168.7 83.1993C1173.08 84.3858 1177.51 84.2363 1182.06 84.0444C1186.11 83.8552 1190.2 84.9598 1194.29 83.8939C1195.66 83.5524 1195.79 84.6787 1195.93 85.7216C1196.14 87.0144 1195.44 88.521 1196.78 89.5572C1198.45 88.6715 1197.72 85.7952 1199.81 85.6168C1201.48 85.4824 1203.23 86.0572 1204.9 86.4654C1205.95 86.7519 1206.82 86.5384 1207.11 85.6185C1207.73 83.7784 1208.69 83.8566 1210.36 84.2231C1213.33 84.833 1216.33 85.1505 1219.38 84.3407C1221.79 83.7012 1224.22 84.8567 1226.69 84.8432C1227.27 84.84 1227.89 84.7114 1228.44 84.8336C1230.19 85.1997 1232.14 83.1853 1233.45 84.5974C1234.37 85.6359 1234.21 87.6822 1234.56 89.3918C1234.93 89.181 1235.27 89.0957 1235.39 88.8863C1236.18 87.5462 1235.91 85.2518 1237.37 84.7846C1238.75 84.3597 1240.63 85.059 1242.18 85.5096C1243.14 85.7966 1244.22 86.0411 1244.55 85.2462C1245.54 82.7779 1247.09 83.8547 1248.8 84.054C1251.02 84.2924 1253.23 84.6142 1255.53 84.3094C1258.07 83.9615 1260.66 83.9473 1263.33 84.4753C1266.51 85.1257 1269.89 84.7733 1273.39 83.5435C1273.4 85.5889 1273.41 87.3003 1273.42 89.0117C1274.71 89.0463 1274.58 88.0869 1274.83 87.5429C1276.52 84.1525 1277.4 83.6885 1281.16 84.7949C1282.54 85.2048 1283.63 85.491 1284.2 83.7764C1284.78 82.1453 1286.11 82.6389 1287.16 82.9671C1291.22 84.2389 1295.22 84.0917 1299.35 83.4011C1302.06 82.9271 1304.74 84.2064 1307.54 83.7737C1309.16 83.5143 1310.75 83.4221 1312.08 82.2878C1309.45 82.8866 1306.82 82.6088 1304.15 82.2895C1306.61 81.6499 1309.02 81.0522 1311.57 80.3704C1310.14 79.0842 1308.8 78.5071 1306.21 78.9805C1301.21 79.8845 1296.29 80.0785 1291.27 79.1877C1289.6 78.9046 1287.89 79.081 1286.39 79.8823C1284.39 80.9369 1283.97 79.9373 1283.92 78.2262C1283.87 76.4315 1283.78 74.6788 1283.06 72.9713C1281.81 73.6043 1281.81 74.8983 1281.57 75.9432C1280.84 79.0362 1279.17 80.1306 1276.24 78.8109C1275.07 78.2747 1274.49 78.0692 1273.99 79.2407C1273.62 80.0359 1273.2 79.7877 1272.57 79.6242C1268.39 78.52 1264.26 78.8349 1260.18 80.1096C1259.6 80.2797 1259.14 80.491 1258.51 80.244C1254.7 78.8038 1250.82 79.0756 1246.95 80.0152C1245.36 80.3995 1244.94 80.0262 1244.93 78.3982C1244.92 76.6451 1244.5 74.8942 1244.24 73.059C1242.53 73.8615 1242.79 75.488 1242.42 76.7841C1241.64 79.5433 1239.98 80.5126 1237.51 79.1486C1236.25 78.4459 1235.5 78.0743 1234.63 79.4148C1234.01 80.3783 1232.96 80.1753 1232.21 79.9708C1228.95 79.0286 1225.78 79.7138 1222.65 80.4406C1221.19 80.7825 1219.94 80.205 1218.69 79.9614C1215.51 79.3527 1212.42 79.2444 1209.42 80.3879C1207.67 81.0654 1207.54 79.9391 1207.33 78.9384C1206.94 77.0621 1206.72 75.1432 1206.38 73.0996C1204.46 73.9033 1204.68 75.697 1204.56 76.9082C1204.32 79.6645 1202.7 79.5482 1200.82 79.2246C1199.06 78.942 1197.39 77.9076 1195.68 79.5032C1195.27 79.8812 1194.14 79.7204 1193.39 79.5575C1190.09 78.7825 1186.79 78.8841 1183.49 79.6118C1181.79 79.9968 1179.99 79.6728 1178.23 79.3484C1174.81 78.7828 1171.47 79.302 1168.31 80.7804C1171.82 81.3455 1175.27 79.4899 1179.2 80.5537C1175.66 81.7002 1172.32 81.8854 1168.94 82.0292C1167.52 82.0787 1168.48 81.1552 1168.39 80.6547C1166.76 79.7036 1167.92 78.1527 1167.62 76.9438C1167.32 75.8184 1167.15 74.6506 1166.93 73.4412C1165.14 74.2024 1165.27 75.9549 1164.82 77.2096C1163.83 79.8031 1162.34 80.6879 1159.99 79.2815C1158.61 78.4542 1157.69 78.0001 1156.74 79.8003C1156.08 81.0979 1154.62 81.1477 1153.32 80.7374C1151.1 80.0816 1148.93 79.8431 1146.68 80.3563C1143.18 81.1269 1139.72 81.4798 1136.12 80.456C1133.57 79.7186 1130.9 79.5663 1128.53 81.249C1127.47 78.6668 1128.04 75.9921 1126.65 73.5369C1125.57 74.7116 1125.37 75.965 1125 77.1776C1123.93 80.6063 1122.18 81.3255 1118.59 79.8008C1118.43 82.181 1119.36 84.6804 1117.5 87.1535C1117.24 85.6104 1116.94 84.4015 1116.89 83.1912C1116.84 81.981 1116.54 80.3129 1118.71 80.0506ZM1268.99 80.103C1263.07 82.473 1256.86 83.4672 1250.51 83.2516C1256.77 82.6746 1262.6 79.7624 1268.99 80.103ZM1173.75 83.0882C1179.3 82.682 1184.37 79.2313 1190.6 80.5747C1184.8 82.0257 1179.47 83.6829 1173.75 83.0882ZM1212.11 83.3787C1215.03 83.5296 1217.78 82.6379 1220.62 82.0797C1223.37 81.5637 1226.03 80.3803 1229.38 80.8629C1223.59 83.5244 1217.91 83.6391 1212.11 83.3787ZM1307.85 79.9316C1303.01 81.2939 1298.31 83.2399 1293.13 82.4752C1297.96 81.4468 1302.76 79.8761 1307.85 79.9316ZM1137.59 82.2846C1134.51 82.8025 1131.47 84.0297 1127.66 83.2157C1131.11 80.6087 1134.37 81.3422 1137.59 82.2846ZM1107.84 84.7436C1103.33 84.5179 1098.91 83.8743 1094.39 82.1876C1099.39 81.2836 1103.54 83.348 1107.84 84.7436ZM1125.59 85.6899C1124.99 82.5625 1124.89 79.5158 1126.58 76.7514C1126.89 79.8387 1128.04 83.0049 1125.59 85.6899ZM1264.03 82.9269C1266.45 82.2875 1268.87 81.6481 1271.33 81.092C1271.91 80.9636 1272.91 80.6659 1273.17 81.4576C1273.51 82.4993 1272.42 82.6305 1271.72 82.9266C1269.22 83.9004 1266.67 83.2465 1264.03 82.9269ZM1205.6 76.5268C1207.24 78.8971 1206.38 81.4899 1206.98 83.7825C1207.15 84.366 1206.4 85.3719 1205.52 85.335C1204.48 85.3407 1204.85 84.3368 1204.81 83.7527C1204.63 81.4578 1205.2 79.1588 1205.6 76.5268ZM1115.85 83.197C1110.8 84.0178 1109.09 83.9019 1106.2 82.582C1109.74 81.3103 1112.8 82.0449 1115.85 83.197ZM1150.65 81.7121C1146.36 82.5287 1142.02 83.3874 1137.73 84.204C1141.77 82.3035 1146.06 81.5285 1150.65 81.7121ZM1186.14 83.1871C1189.19 82.2939 1192.1 80.6082 1196.16 82.0887C1192.36 83.32 1189.28 83.5039 1186.14 83.1871ZM1245.91 81.8575C1248.95 79.9624 1252.29 80.612 1255.59 80.6774C1252.46 81.6964 1249.25 82.0897 1245.91 81.8575ZM1145.86 83.6585C1149.33 83.0551 1152.79 82.41 1156.29 81.8064C1153.3 84.8283 1149.54 83.8471 1145.86 83.6585ZM1243.42 76.7786C1244.81 79.0668 1244.32 81.3236 1244.34 83.5359C1244.34 84.162 1243.92 84.6652 1243.21 84.5439C1242.5 84.4643 1242.67 83.8372 1242.62 83.4201C1242.44 81.2921 1242.89 79.1608 1243.42 76.7786ZM1196.68 86.9279C1196.67 84.3817 1196.62 82.587 1196.69 80.75C1196.73 80.1653 1197.19 79.6619 1197.85 79.6165C1198.27 79.6142 1198.61 80.0298 1198.53 80.4059C1198.08 82.3703 1199.13 84.6186 1196.68 86.9279ZM1282.45 76.4393C1282.78 76.4375 1283.08 76.4776 1283.41 76.4758C1283.42 78.3959 1283.47 80.3158 1283.44 82.2361C1283.44 82.8622 1283.7 83.8209 1282.7 83.8264C1281.99 83.8303 1281.57 83.0812 1281.65 82.3294C1281.89 80.3245 1282.17 78.4028 1282.45 76.4393ZM1157.73 86.4319C1156.64 84.1838 1157.21 82.344 1157.58 80.5053C1157.7 80.0037 1157.99 79.4177 1158.45 79.4987C1158.99 79.5792 1159.5 80.2026 1159.29 80.8298C1158.8 82.544 1158.93 84.4634 1157.73 86.4319ZM1284.9 81.5185C1288.56 79.9956 1291.15 79.8562 1295.41 80.6677C1292.08 81.9383 1288.86 81.3715 1284.9 81.5185ZM1166.37 76.9924C1166.13 79.6235 1167.23 82.3725 1165.41 84.8454C1164.81 82.1354 1165.34 79.5444 1166.37 76.9924ZM1226.3 83.4678C1228.51 82.3704 1230.51 81.8585 1232.64 81.5547C1233.1 81.5104 1233.68 81.1315 1233.85 81.7567C1234.02 82.2984 1233.81 82.9257 1232.98 82.972C1230.89 83.1922 1228.85 84.0382 1226.3 83.4678ZM1208.39 82.2303C1211.18 80.7123 1214.1 80.2788 1217.11 81.7233C1214.19 81.9063 1211.31 82.089 1208.39 82.2303ZM1235 86.3421C1235.15 83.5445 1234.35 81.2948 1236.3 79.0718C1237.23 81.8634 1236.36 83.7883 1235 86.3421ZM1202.7 80.2996C1203.5 81.0883 1203.5 82.0066 1203.59 82.7993C1203.72 83.5917 1204.06 84.7586 1202.81 84.8907C1201.35 85.0657 1201.88 83.727 1201.88 83.0174C1201.92 82.1823 1201.49 81.141 1202.7 80.2996ZM1123.04 85.7873C1122.78 84.4112 1121.4 83.25 1122.69 81.6985C1122.85 81.4889 1123.35 81.5278 1123.69 81.4425C1124.03 82.8599 1124.24 84.2362 1123.58 85.6174C1123.59 85.7009 1123.42 85.66 1123.04 85.7873Z" fill="white"/>
<path d="M726.362 82.2024C725.674 80.9956 724.526 81.3359 724.36 82.1716C723.863 84.6372 722.154 83.6447 721.003 83.3589C717.976 82.6241 715.082 82.7652 712.149 83.7831C710.322 84.4193 708.656 83.3848 706.909 83.1857C703.202 82.7051 699.54 82.7669 695.927 83.7886C695.587 83.8739 695.376 84.209 694.655 84.7556C698.107 85.3211 701.255 84.9282 704.332 86.8315C700.971 87.4343 698.11 85.8638 694.837 86.8418C697.993 87.9515 701.019 88.3524 703.912 87.9608C707.103 87.5259 710.168 87.4673 713.365 88.0759C716.263 88.6027 719.241 88.169 721.962 87.4027C723.96 86.8073 723.879 87.6009 723.972 88.9361C724.064 90.1879 724.284 91.439 724.461 92.6903C724.928 92.5625 725.226 92.5191 725.268 92.4354C725.968 88.0486 728.69 87.5327 732.359 88.8484C733.212 89.1359 734.191 89.0888 734.571 88.5023C736.049 86.1149 738.054 86.8552 740.057 87.3034C740.143 87.303 740.271 87.3857 740.356 87.3853C748.358 86.8822 756.413 88.2156 764.876 86.3742C764.883 87.7099 764.891 89.1291 764.898 90.5066C764.901 91.0493 764.65 91.8437 765.46 91.9228C766.184 92.0023 766.35 91.2918 766.603 90.7895C766.645 90.7057 766.644 90.5805 766.687 90.4968C768.454 86.6468 768.538 86.4793 772.676 88.0011C774.682 88.7415 775.489 88.4449 775.648 86.4403C775.727 85.3129 776.066 85.0188 777.345 85.3457C781.823 86.5317 786.335 86.3817 790.975 86.1893C795.104 85.9997 799.283 87.1038 803.45 86.0374C804.853 85.6958 804.987 86.8221 805.12 87.8649C805.34 89.1578 804.625 90.6644 805.993 91.7005C807.691 90.8146 806.952 87.9384 809.08 87.7597C810.782 87.6252 812.574 88.1997 814.279 88.6078C815.345 88.8942 816.238 88.6806 816.531 87.7606C817.16 85.9205 818.139 85.9986 819.844 86.3649C822.871 86.9745 825.938 87.2916 829.042 86.4815C831.508 85.8418 833.984 86.997 836.496 86.9832C837.092 86.98 837.73 86.8512 838.284 86.9734C840.075 87.3393 842.065 85.3247 843.392 86.7367C844.335 87.7751 844.176 89.8214 844.526 91.5309C844.908 91.3201 845.248 91.2348 845.374 91.0253C846.176 89.6852 845.908 87.3908 847.396 86.9235C848.799 86.4983 850.718 87.1974 852.296 87.648C853.277 87.9348 854.385 88.1792 854.722 87.3842C855.73 84.9158 857.311 85.9925 859.058 86.1916C861.316 86.4297 863.575 86.7512 865.915 86.4462C868.51 86.098 871.15 86.0836 873.878 86.6113C877.117 87.2614 880.564 86.9085 884.134 85.6784C884.145 87.7237 884.155 89.4351 884.164 91.1466C885.484 91.1811 885.351 90.2217 885.604 89.6777C887.331 86.287 888.222 85.823 892.061 86.929C893.468 87.3387 894.577 87.6248 895.163 85.9101C895.75 84.2789 897.116 84.7724 898.182 85.1005C902.319 86.3718 906.406 86.2241 910.617 85.5332C913.382 85.0588 916.114 86.3379 918.965 85.9048C920.624 85.6453 922.241 85.5529 923.597 84.4184C920.918 85.0175 918.234 84.74 915.508 84.421C918.016 83.7811 920.482 83.1832 923.076 82.5011C921.621 81.215 920.256 80.6381 917.618 81.1118C912.514 82.0164 907.491 82.2109 902.376 81.3206C900.672 81.0377 898.927 81.2143 897.399 82.0158C895.361 83.0705 894.929 82.0711 894.877 80.3599C894.825 78.5652 894.73 76.8126 893.997 75.1051C892.723 75.7383 892.73 77.0322 892.48 78.0772C891.731 81.1703 890.034 82.2649 887.046 80.9455C885.851 80.4094 885.254 80.204 884.749 81.3755C884.37 82.1707 883.943 81.9226 883.304 81.7591C879.04 80.6555 874.826 80.9708 870.661 82.2459C870.065 82.4161 869.598 82.6274 868.958 82.3805C865.076 80.9408 861.117 81.2129 857.163 82.153C855.547 82.5375 855.119 82.1642 855.11 80.5362C855.1 78.7831 854.665 77.0323 854.399 75.1971C852.658 75.9997 852.923 77.6262 852.546 78.9223C851.753 81.6817 850.055 82.6511 847.535 81.2874C846.254 80.5848 845.485 80.2133 844.599 81.554C843.965 82.5175 842.9 82.3147 842.132 82.1102C838.806 81.1683 835.574 81.8539 832.384 82.581C830.896 82.9232 829.615 82.3458 828.337 82.1023C825.097 81.494 821.946 81.386 818.887 82.5298C817.102 83.2075 816.968 82.0812 816.75 81.0806C816.356 79.2043 816.133 77.2853 815.781 75.2419C813.827 76.0457 814.05 77.8394 813.928 79.0506C813.688 81.807 812.027 81.6909 810.109 81.3674C808.319 81.0851 806.61 80.0509 804.873 81.6466C804.45 82.0246 803.299 81.864 802.532 81.7012C799.164 80.9266 795.801 81.0285 792.441 81.7565C790.698 82.1418 788.865 81.8179 787.075 81.4938C783.58 80.9285 780.177 81.4481 776.949 82.9268C780.529 83.4916 784.053 81.6356 788.061 82.6989C784.448 83.8458 781.043 84.0314 777.595 84.1756C776.147 84.2252 777.121 83.3016 777.033 82.8011C775.368 81.8502 776.551 80.2992 776.247 79.0903C775.942 77.9649 775.766 76.7971 775.546 75.5878C773.72 76.3492 773.857 78.1016 773.395 79.3564C772.388 81.95 770.86 82.835 768.468 81.4288C767.058 80.6017 766.119 80.1477 765.149 81.948C764.475 83.2457 762.985 83.2956 761.663 82.8854C759.403 82.2299 757.187 81.9916 754.891 82.5051C751.319 83.2761 747.787 83.6294 744.119 82.6059C741.518 81.8688 738.792 81.7168 736.374 83.3998C735.296 80.8177 735.877 78.1429 734.459 75.6879C733.358 76.8627 733.152 78.1161 732.775 79.3287C731.687 82.7576 729.903 83.477 726.233 81.9527C726.075 84.3329 727.026 86.8322 725.123 89.3055C724.859 87.7625 724.555 86.5536 724.506 85.3433C724.456 84.133 724.149 82.465 726.362 82.2024ZM879.645 82.2384C873.611 84.6091 867.273 85.6039 860.8 85.389C867.183 84.8113 873.128 81.8984 879.645 82.2384ZM782.497 85.234C788.158 84.8273 793.333 81.376 799.685 82.7186C793.774 84.1703 788.333 85.8281 782.497 85.234ZM821.628 85.5203C824.609 85.6709 827.415 84.7789 830.307 84.2204C833.114 83.7041 835.833 82.5204 839.242 83.0026C833.338 85.6648 827.548 85.78 821.628 85.5203ZM919.284 82.0627C914.353 83.4255 909.552 85.372 904.268 84.6079C909.201 83.579 914.089 82.0077 919.284 82.0627ZM745.619 84.4344C742.472 84.9526 739.37 86.1801 735.491 85.3665C739.011 82.7592 742.336 83.4923 745.619 84.4344ZM715.275 86.8967C710.675 86.6714 706.158 86.0283 701.55 84.3421C706.655 83.4376 710.881 85.5015 715.275 86.8967ZM733.376 87.841C732.762 84.7136 732.66 81.667 734.391 78.9024C734.706 81.9897 735.873 85.1557 733.376 87.841ZM874.593 85.0628C877.059 84.4232 879.525 83.7835 882.034 83.2271C882.63 83.0986 883.65 82.8008 883.91 83.5925C884.256 84.6342 883.15 84.7655 882.428 85.0616C879.878 86.0357 877.277 85.3821 874.593 85.0628ZM814.991 78.6691C816.664 81.0393 815.784 83.6322 816.393 85.9247C816.567 86.5081 815.806 87.5141 814.911 87.4773C813.847 87.4831 814.225 86.4792 814.179 85.8951C813.996 83.6002 814.579 81.3012 814.991 78.6691ZM723.441 85.3491C718.294 86.1705 716.547 86.0548 713.602 84.7352C717.214 83.4631 720.327 84.1974 723.441 85.3491ZM758.943 83.8604C754.562 84.6776 750.139 85.5367 745.758 86.3538C749.877 84.4528 754.259 83.6774 758.943 83.8604ZM795.143 85.3316C798.247 84.438 801.218 82.752 805.356 84.232C801.488 85.4638 798.338 85.648 795.143 85.3316ZM856.108 83.9954C859.206 82.1 862.616 82.7492 865.98 82.8142C862.792 83.8335 859.516 84.2272 856.108 83.9954ZM754.058 85.8074C757.588 85.2036 761.119 84.5581 764.692 83.9541C761.643 86.9763 757.806 85.9955 754.058 85.8074ZM853.568 78.9167C854.986 81.2048 854.487 83.4617 854.499 85.674C854.503 86.3001 854.08 86.8033 853.355 86.6821C852.631 86.6025 852.798 85.9755 852.753 85.5583C852.571 83.4304 853.028 81.299 853.568 78.9167ZM805.893 89.0712C805.88 86.525 805.827 84.7303 805.902 82.8933C805.942 82.3086 806.407 81.8052 807.088 81.7597C807.514 81.7574 807.857 82.1729 807.774 82.549C807.316 84.5135 808.393 86.7617 805.893 89.0712ZM893.377 78.5732C893.718 78.5713 894.016 78.6114 894.357 78.6095C894.367 80.5297 894.42 82.4495 894.388 84.3699C894.392 84.996 894.653 85.9547 893.631 85.9603C892.907 85.9642 892.477 85.2152 892.558 84.4634C892.802 82.4584 893.09 80.5367 893.377 78.5732ZM766.165 88.5795C765.046 86.3315 765.632 84.4916 766.005 82.6529C766.13 82.1513 766.425 81.5653 766.893 81.6462C767.447 81.7266 767.962 82.35 767.752 82.9772C767.251 84.6915 767.389 86.6109 766.165 88.5795ZM895.875 83.6521C899.613 82.1289 902.252 81.9892 906.6 82.8002C903.2 84.0711 899.919 83.5047 895.875 83.6521ZM774.97 79.1391C774.729 81.7702 775.851 84.5191 773.991 86.9921C773.38 84.2822 773.919 81.6911 774.97 79.1391ZM836.105 85.6079C838.356 84.5102 840.397 83.9981 842.567 83.694C843.035 83.6497 843.629 83.2708 843.803 83.8959C843.976 84.4376 843.766 85.0649 842.915 85.1113C840.787 85.3317 838.706 86.178 836.105 85.6079ZM817.832 84.3723C820.677 82.854 823.655 82.4202 826.728 83.8644C823.749 84.0477 820.812 84.2307 817.832 84.3723ZM844.977 88.4812C845.132 85.6836 844.311 83.434 846.3 81.2107C847.252 84.0023 846.368 85.9273 844.977 88.4812ZM812.031 82.4422C812.844 83.2309 812.849 84.1492 812.939 84.9418C813.071 85.7342 813.418 86.9011 812.141 87.0333C810.652 87.2085 811.198 85.8697 811.194 85.1601C811.232 84.325 810.801 83.2838 812.031 82.4422ZM730.779 87.9387C730.516 86.5626 729.104 85.4016 730.416 83.8499C730.585 83.6403 731.096 83.6792 731.436 83.5938C731.785 85.0112 732.005 86.3875 731.331 87.7687C731.332 87.8522 731.161 87.8114 730.779 87.9387Z" fill="white"/>
<path d="M1093.07 80.191C1093.74 78.9767 1094.9 79.3044 1095.07 80.1382C1095.6 82.5982 1097.29 81.5871 1098.44 81.2886C1101.46 80.5206 1104.36 80.63 1107.3 81.6157C1109.13 82.2318 1110.79 81.1791 1112.53 80.9608C1116.23 80.4396 1119.9 80.4613 1123.52 81.4432C1123.86 81.5248 1124.08 81.8576 1124.8 82.3963C1121.36 82.9996 1118.2 82.6412 1115.15 84.5781C1118.52 85.144 1121.36 83.5422 1124.64 84.4843C1121.5 85.6286 1118.48 86.0626 1115.58 85.7028C1112.39 85.3029 1109.32 85.278 1106.13 85.9216C1103.24 86.4801 1100.26 86.079 1097.53 85.3426C1095.52 84.7692 1095.61 85.5619 1095.53 86.898C1095.46 88.1508 1095.25 89.4042 1095.09 90.6574C1094.62 90.5347 1094.32 90.4946 1094.28 90.4113C1093.53 86.0325 1090.8 85.5465 1087.15 86.9023C1086.3 87.1992 1085.32 87.1628 1084.93 86.5805C1083.43 84.2094 1081.43 84.9717 1079.43 85.4419C1079.35 85.4423 1079.22 85.5265 1079.13 85.527C1071.13 85.1117 1063.09 86.5333 1054.6 84.7849C1054.61 86.1206 1054.62 87.5399 1054.63 88.9173C1054.63 89.46 1054.89 90.2517 1054.08 90.3396C1053.36 90.427 1053.18 89.7184 1052.93 89.2189C1052.88 89.1356 1052.88 89.0104 1052.84 88.9271C1051.03 85.0967 1050.94 84.9302 1046.82 86.4973C1044.82 87.2596 1044.01 86.9719 1043.83 84.9692C1043.74 83.8427 1043.4 83.5523 1042.12 83.8933C1037.66 85.1283 1033.15 85.0278 1028.5 84.8863C1024.37 84.742 1020.21 85.8919 1016.03 84.8712C1014.62 84.545 1014.5 85.6727 1014.38 86.717C1014.17 88.0121 1014.9 89.5109 1013.55 90.5619C1011.84 89.6946 1012.55 86.8105 1010.42 86.6552C1008.71 86.5393 1006.93 87.1335 1005.23 87.5603C1004.17 87.8583 1003.27 87.6545 1002.97 86.7378C1002.32 84.9047 1001.34 84.9936 999.639 85.3786C996.619 86.0213 993.556 86.372 990.443 85.596C987.97 84.9834 985.507 86.1657 982.995 86.1795C982.399 86.1827 981.76 86.061 981.207 86.1893C979.421 86.5748 977.409 84.5821 976.096 86.0086C975.165 87.0573 975.347 89.1017 975.016 90.8149C974.631 90.6083 974.29 90.5267 974.161 90.3187C973.345 88.9874 973.588 86.6902 972.095 86.2392C970.688 85.8295 968.776 86.5497 967.203 87.0175C966.225 87.315 965.12 87.5715 964.775 86.7803C963.739 84.3232 962.17 85.4171 960.425 85.6354C958.17 85.8982 955.915 86.2445 953.572 85.9652C950.973 85.6455 948.333 85.6599 945.611 86.2175C942.379 86.9031 938.929 86.5881 935.345 85.3972C935.357 87.4426 935.366 89.154 935.375 90.8654C934.056 90.9144 934.178 89.9536 933.92 89.4124C932.156 86.0409 931.259 85.5866 927.433 86.7346C926.03 87.1598 924.925 87.458 924.32 85.7499C923.715 84.1252 922.355 84.6336 921.292 84.9734C917.169 86.29 913.081 86.1872 908.862 85.5425C906.092 85.0985 903.375 86.4074 900.52 86.0056C898.858 85.7643 897.239 85.6897 895.871 84.5701C898.556 85.1398 901.237 84.8329 903.96 84.484C901.445 83.8717 898.972 83.3009 896.371 82.6472C897.812 81.3453 899.171 80.7534 901.813 81.1981C906.927 82.0467 911.952 82.1861 917.056 81.2398C918.758 80.9382 920.505 81.0956 922.042 81.8803C924.091 82.9126 924.511 81.9085 924.545 80.1969C924.577 78.4017 924.653 76.6481 925.367 74.9328C926.648 75.5519 926.655 76.8459 926.916 77.888C927.7 80.9727 929.409 82.0486 932.382 80.6965C933.571 80.1474 934.166 79.9354 934.683 81.1013C935.071 81.8923 935.495 81.6395 936.133 81.4691C940.384 80.3187 944.601 80.5878 948.781 81.8171C949.378 81.9808 949.847 82.187 950.484 81.933C954.351 80.4508 958.312 80.6796 962.277 81.5762C963.897 81.943 964.32 81.5649 964.311 79.937C964.302 78.1839 964.718 76.4284 964.963 74.5904C966.713 75.3739 966.467 77.0032 966.857 78.2951C967.681 81.0456 969.39 81.9963 971.894 80.6051C973.167 79.8885 973.932 79.5086 974.833 80.8394C975.477 81.796 976.54 81.5814 977.306 81.3685C980.621 80.3902 983.861 81.0404 987.058 81.7324C988.55 82.0582 989.824 81.4668 991.1 81.2094C994.333 80.5655 997.483 80.423 1000.55 81.5332C1002.35 82.1913 1002.47 81.0635 1002.68 80.0606C1003.05 78.1801 1003.25 76.2588 1003.58 74.2116C1005.54 74.994 1005.34 76.79 1005.47 77.9998C1005.74 80.7534 1007.4 80.619 1009.32 80.2746C1011.11 79.9726 1012.8 78.9197 1014.56 80.4963C1014.98 80.8697 1016.13 80.6964 1016.9 80.5252C1020.26 79.7137 1023.62 79.7787 1026.99 80.4699C1028.74 80.836 1030.57 80.492 1032.35 80.1483C1035.84 79.5447 1039.25 80.027 1042.49 81.4702C1038.92 82.0742 1035.38 80.2569 1031.38 81.3641C1035.01 82.4713 1038.41 82.6196 1041.86 82.7259C1043.31 82.7597 1042.33 81.8468 1042.41 81.3454C1044.06 80.3762 1042.86 78.8383 1043.15 77.6262C1043.45 76.4975 1043.61 75.3278 1043.82 74.1162C1045.65 74.8575 1045.53 76.6113 1046.01 77.861C1047.04 80.4434 1048.58 81.3116 1050.96 79.8793C1052.36 79.0367 1053.29 78.5724 1054.28 80.3619C1054.97 81.6522 1056.46 81.6858 1057.78 81.2611C1060.03 80.5809 1062.24 80.3183 1064.55 80.8066C1068.13 81.5383 1071.66 81.8529 1075.32 80.7892C1077.91 80.0236 1080.64 79.8417 1083.07 81.4981C1084.12 78.9043 1083.51 76.2361 1084.9 73.7656C1086.02 74.9283 1086.24 76.1794 1086.63 77.3878C1087.75 80.8045 1089.54 81.5043 1093.2 79.9398C1093.38 82.3182 1092.46 84.8278 1094.39 87.28C1094.63 85.7342 1094.92 84.522 1094.96 83.3113C1095 82.1006 1095.29 80.4293 1093.07 80.191ZM939.797 81.9082C945.856 84.2125 952.205 85.1378 958.675 84.8518C952.286 84.3442 946.309 81.4968 939.797 81.9082ZM1036.97 83.8381C1031.31 83.4934 1026.09 80.0991 1019.76 81.5114C1025.68 82.8981 1031.14 84.4962 1036.97 83.8381ZM997.846 84.5535C994.867 84.7369 992.052 83.8757 989.153 83.3489C986.341 82.8634 983.609 81.7096 980.206 82.2292C986.138 84.8265 991.929 84.8782 997.846 84.5535ZM900.158 82.1673C905.104 83.4759 909.926 85.3697 915.201 84.5476C910.257 83.5729 905.352 82.0553 900.158 82.1673ZM1073.84 82.634C1076.99 83.1177 1080.11 84.3111 1083.98 83.455C1080.43 80.8864 1077.11 81.656 1073.84 82.634ZM1104.21 84.7633C1108.81 84.4877 1113.31 83.7951 1117.9 82.0584C1112.79 81.2099 1108.59 83.3201 1104.21 84.7633ZM1086.12 85.9061C1086.7 82.7722 1086.77 79.7246 1085.01 76.9793C1084.72 80.0698 1083.59 83.2484 1086.12 85.9061ZM944.879 84.6771C942.406 84.0645 939.933 83.4519 937.418 82.923C936.821 82.8011 935.798 82.5145 935.547 83.309C935.212 84.3544 936.32 84.4735 937.045 84.7618C939.605 85.7078 942.199 85.0257 944.879 84.6771ZM1004.41 77.63C1002.76 80.0184 1003.67 82.6014 1003.09 84.9005C1002.92 85.4858 1003.69 86.4834 1004.58 86.4368C1005.65 86.4309 1005.26 85.4312 1005.3 84.8466C1005.46 82.5499 1004.85 80.2574 1004.41 77.63ZM1096.03 83.3055C1101.18 84.0703 1102.93 83.9355 1105.86 82.5837C1102.23 81.3513 1099.13 82.1197 1096.03 83.3055ZM1060.51 82.2062C1064.9 82.9753 1069.33 83.7858 1073.72 84.5549C1069.58 82.6991 1065.19 81.9718 1060.51 82.2062ZM1024.33 84.0744C1021.21 83.2148 1018.22 81.5615 1014.1 83.0869C1017.98 84.2761 1021.14 84.4258 1024.33 84.0744ZM963.351 83.4069C960.233 81.5456 956.83 82.2322 953.467 82.3341C956.666 83.3184 959.946 83.6761 963.351 83.4069ZM1065.42 84.0995C1061.88 83.5345 1058.34 82.9277 1054.76 82.363C1057.84 85.3516 1061.67 84.3287 1065.42 84.0995ZM965.835 78.3007C964.443 80.6042 964.966 82.8554 964.978 85.0677C964.982 85.6939 965.41 86.1924 966.133 86.0632C966.857 85.9758 966.683 85.3506 966.723 84.9329C966.882 82.8032 966.402 80.6769 965.835 78.3007ZM1013.62 87.9317C1013.6 85.3855 1013.64 83.5903 1013.54 81.7542C1013.5 81.17 1013.03 80.6717 1012.34 80.6337C1011.92 80.636 1011.58 81.0553 1011.67 81.4305C1012.15 83.3898 1011.09 85.6497 1013.62 87.9317ZM926.025 78.3938C925.684 78.3957 925.386 78.439 925.046 78.4409C925.056 80.361 925.024 82.2814 925.077 84.2013C925.081 84.8274 924.831 85.7888 925.853 85.7832C926.576 85.7793 926.998 85.0256 926.909 84.2747C926.642 82.2725 926.334 80.354 926.025 78.3938ZM1053.34 87.0042C1054.43 84.7441 1053.83 82.9108 1053.43 81.0762C1053.3 80.576 1053 79.9933 1052.53 80.0793C1051.98 80.1658 1051.47 80.7948 1051.69 81.4197C1052.21 83.1283 1052.09 85.0491 1053.34 87.0042ZM923.583 83.4998C919.828 82.0177 917.188 81.9069 912.85 82.7656C916.263 83.9991 919.538 83.3968 923.583 83.4998ZM1044.43 77.6609C1044.7 80.2893 1043.61 83.0503 1045.5 85.5028C1046.08 82.7863 1045.51 80.2013 1044.43 77.6609ZM983.371 84.7999C981.108 83.727 979.062 83.2373 976.889 82.957C976.42 82.9178 975.822 82.5454 975.655 83.1725C975.488 83.7161 975.704 84.341 976.556 84.3781C978.686 84.5751 980.777 85.3985 983.371 84.7999ZM1001.63 83.364C998.768 81.8769 995.785 81.4759 992.728 82.9536C995.709 83.1043 998.648 83.2551 1001.63 83.364ZM974.531 87.7704C974.345 84.9746 975.142 82.7161 973.128 80.5148C972.207 83.3166 973.112 85.2318 974.531 87.7704ZM1007.41 81.3704C1006.6 82.1679 1006.61 83.0862 1006.53 83.8798C1006.4 84.6736 1006.07 85.8442 1007.35 85.9624C1008.84 86.1212 1008.28 84.7885 1008.28 84.0789C1008.23 83.2443 1008.65 82.1984 1007.41 81.3704ZM1088.72 85.9754C1088.96 84.5965 1090.36 83.42 1089.03 81.8828C1088.86 81.675 1088.35 81.7196 1088.01 81.638C1087.68 83.059 1087.47 84.4377 1088.16 85.8114C1088.16 85.8949 1088.33 85.8522 1088.72 85.9754Z" fill="white"/>
<path d="M1493.91 77.9927C1494.58 76.7785 1495.74 77.1061 1495.91 77.94C1496.44 80.4 1498.13 79.3888 1499.28 79.0903C1502.3 78.3224 1505.2 78.4317 1508.14 79.4174C1509.97 80.0335 1511.63 78.9809 1513.37 78.7626C1517.07 78.2414 1520.74 78.263 1524.36 79.245C1524.7 79.3266 1524.92 79.6594 1525.64 80.198C1522.2 80.8013 1519.04 80.4429 1515.99 82.3799C1519.36 82.9458 1522.2 81.344 1525.48 82.286C1522.34 83.4303 1519.32 83.8643 1516.42 83.5045C1513.23 83.1046 1510.16 83.0797 1506.97 83.7233C1504.08 84.2819 1501.1 83.8808 1498.37 83.1444C1496.36 82.571 1496.45 83.3636 1496.37 84.6998C1496.3 85.9525 1496.09 87.2059 1495.93 88.4591C1495.46 88.3365 1495.16 88.2964 1495.12 88.2131C1494.37 83.8342 1491.64 83.3483 1487.99 84.7041C1487.14 85.0009 1486.16 84.9646 1485.77 84.3823C1484.27 82.0112 1482.27 82.7735 1480.27 83.2436C1480.19 83.2441 1480.06 83.3283 1479.97 83.3288C1471.97 82.9135 1463.93 84.3351 1455.44 82.5867C1455.45 83.9224 1455.46 85.3416 1455.47 86.7191C1455.47 87.2617 1455.73 88.0534 1454.92 88.1413C1454.2 88.2288 1454.02 87.5201 1453.77 87.0206C1453.72 86.9374 1453.72 86.8122 1453.68 86.7289C1451.87 82.8985 1451.78 82.732 1447.66 84.2991C1445.66 85.0614 1444.85 84.7736 1444.67 82.771C1444.58 81.6444 1444.24 81.3541 1442.96 81.695C1438.5 82.9301 1433.99 82.8296 1429.34 82.6881C1425.21 82.5438 1421.05 83.6937 1416.87 82.673C1415.46 82.3468 1415.34 83.4745 1415.22 84.5187C1415.01 85.8139 1415.74 87.3126 1414.39 88.3636C1412.68 87.4964 1413.39 84.6123 1411.26 84.457C1409.55 84.3411 1407.77 84.9353 1406.07 85.362C1405.01 85.6601 1404.11 85.4563 1403.81 84.5396C1403.16 82.7065 1402.18 82.7953 1400.48 83.1803C1397.46 83.823 1394.4 84.1738 1391.28 83.3977C1388.81 82.7851 1386.35 83.9675 1383.83 83.9812C1383.24 83.9845 1382.6 83.8628 1382.05 83.991C1380.26 84.3765 1378.25 82.3839 1376.94 83.8103C1376.01 84.859 1376.19 86.9034 1375.86 88.6167C1375.47 88.4101 1375.13 88.3285 1375 88.1205C1374.18 86.7892 1374.43 84.492 1372.94 84.041C1371.53 83.6313 1369.62 84.3514 1368.04 84.8192C1367.07 85.1168 1365.96 85.3733 1365.61 84.5821C1364.58 82.1249 1363.01 83.2188 1361.27 83.4371C1359.01 83.6999 1356.76 84.0463 1354.41 83.7669C1351.81 83.4472 1349.17 83.4617 1346.45 84.0193C1343.22 84.7049 1339.77 84.3899 1336.19 83.199C1336.2 85.2443 1336.21 86.9557 1336.22 88.6671C1334.9 88.7161 1335.02 87.7554 1334.76 87.2141C1333 83.8426 1332.1 83.3884 1328.27 84.5364C1326.87 84.9615 1325.76 85.2598 1325.16 83.5517C1324.55 81.927 1323.19 82.4354 1322.13 82.7751C1318.01 84.0918 1313.92 83.989 1309.7 83.3442C1306.93 82.9002 1304.21 84.2092 1301.36 83.8074C1299.7 83.5661 1298.08 83.4915 1296.71 82.3719C1299.4 82.9416 1302.08 82.6347 1304.8 82.2858C1302.28 81.6734 1299.81 81.1026 1297.21 80.449C1298.65 79.1471 1300.01 78.5552 1302.65 78.9999C1307.77 79.8484 1312.79 79.9879 1317.9 79.0415C1319.6 78.74 1321.34 78.8974 1322.88 79.6821C1324.93 80.7144 1325.35 79.7103 1325.38 77.9986C1325.42 76.2035 1325.49 74.4499 1326.21 72.7345C1327.49 73.3536 1327.49 74.6476 1327.76 75.6898C1328.54 78.7744 1330.25 79.8504 1333.22 78.4983C1334.41 77.9491 1335.01 77.7371 1335.52 78.9031C1335.91 79.6941 1336.33 79.4413 1336.97 79.2708C1341.22 78.1205 1345.44 78.3895 1349.62 79.6189C1350.22 79.7826 1350.69 79.9887 1351.32 79.7348C1355.19 78.2526 1359.15 78.4813 1363.12 79.3779C1364.74 79.7447 1365.16 79.3667 1365.15 77.7388C1365.14 75.9856 1365.56 74.2302 1365.8 72.3921C1367.55 73.1756 1367.31 74.805 1367.7 76.0969C1368.52 78.8474 1370.23 79.7981 1372.73 78.4068C1374.01 77.6902 1374.77 77.3103 1375.67 78.6412C1376.32 79.5977 1377.38 79.3832 1378.15 79.1703C1381.46 78.192 1384.7 78.8421 1387.9 79.5342C1389.39 79.86 1390.66 79.2686 1391.94 79.0111C1395.17 78.3673 1398.32 78.2247 1401.39 79.335C1403.19 79.993 1403.31 78.8653 1403.52 77.8623C1403.89 75.9819 1404.09 74.0606 1404.42 72.0134C1406.38 72.7957 1406.18 74.5918 1406.31 75.8016C1406.58 78.5551 1408.24 78.4208 1410.16 78.0764C1411.95 77.7744 1413.64 76.7215 1415.4 78.2981C1415.82 78.6714 1416.97 78.4981 1417.74 78.327C1421.1 77.5154 1424.46 77.5805 1427.83 78.2716C1429.58 78.6377 1431.41 78.2938 1433.19 77.95C1436.68 77.3465 1440.09 77.8287 1443.33 79.2719C1439.76 79.8759 1436.22 78.0587 1432.22 79.1659C1435.85 80.2731 1439.25 80.4214 1442.7 80.5277C1444.15 80.5615 1443.17 79.6485 1443.25 79.1472C1444.9 78.178 1443.7 76.6401 1443.99 75.428C1444.29 74.2993 1444.45 73.1296 1444.66 71.9179C1446.49 72.6592 1446.37 74.4131 1446.85 75.6628C1447.88 78.2451 1449.42 79.1133 1451.8 77.681C1453.2 76.8385 1454.13 76.3742 1455.12 78.1637C1455.81 79.454 1457.3 79.4875 1458.62 79.0629C1460.87 78.3826 1463.08 78.12 1465.39 78.6083C1468.97 79.3401 1472.5 79.6546 1476.16 78.591C1478.75 77.8254 1481.48 77.6435 1483.91 79.2998C1484.96 76.706 1484.35 74.0378 1485.74 71.5674C1486.86 72.7301 1487.08 73.9812 1487.47 75.1896C1488.59 78.6063 1490.38 79.3061 1494.04 77.7416C1494.22 80.1199 1493.3 82.6295 1495.23 85.0818C1495.47 83.5359 1495.76 82.3238 1495.8 81.1131C1495.84 79.9023 1496.13 78.231 1493.91 77.9927ZM1340.64 79.7099C1346.7 82.0143 1353.04 82.9395 1359.52 82.6536C1353.13 82.146 1347.15 79.2985 1340.64 79.7099ZM1437.81 81.6398C1432.15 81.2952 1426.93 77.9009 1420.6 79.3131C1426.52 80.6999 1431.98 82.2979 1437.81 81.6398ZM1398.69 82.3553C1395.71 82.5386 1392.89 81.6774 1389.99 81.1507C1387.18 80.6652 1384.45 79.5114 1381.05 80.031C1386.98 82.6282 1392.77 82.6799 1398.69 82.3553ZM1301 79.969C1305.94 81.2777 1310.77 83.1714 1316.04 82.3494C1311.1 81.3747 1306.19 79.8571 1301 79.969ZM1474.68 80.4358C1477.83 80.9194 1480.95 82.1129 1484.82 81.2568C1481.27 78.6882 1477.95 79.4578 1474.68 80.4358ZM1505.05 82.5651C1509.65 82.2894 1514.15 81.5968 1518.74 79.8602C1513.63 79.0116 1509.43 81.1218 1505.05 82.5651ZM1486.96 83.7079C1487.54 80.574 1487.61 77.5264 1485.85 74.781C1485.56 77.8715 1484.43 81.0502 1486.96 83.7079ZM1345.72 82.4788C1343.25 81.8662 1340.77 81.2537 1338.26 80.7248C1337.66 80.6028 1336.64 80.3162 1336.39 81.1107C1336.05 82.1561 1337.16 82.2753 1337.88 82.5635C1340.44 83.5096 1343.04 82.8275 1345.72 82.4788ZM1405.25 75.4317C1403.6 77.8201 1404.51 80.4032 1403.92 82.7023C1403.76 83.2876 1404.53 84.2852 1405.42 84.2385C1406.49 84.2327 1406.1 83.233 1406.14 82.6484C1406.3 80.3516 1405.69 78.0591 1405.25 75.4317ZM1496.87 81.1072C1502.02 81.8721 1503.77 81.7373 1506.7 80.3854C1503.07 79.153 1499.97 79.9214 1496.87 81.1072ZM1461.35 80.008C1465.74 80.777 1470.17 81.5876 1474.56 82.3566C1470.42 80.5009 1466.03 79.7736 1461.35 80.008ZM1425.17 81.8761C1422.05 81.0166 1419.06 79.3633 1414.94 80.8886C1418.82 82.0779 1421.98 82.2276 1425.17 81.8761ZM1364.19 81.2087C1361.07 79.3474 1357.67 80.0339 1354.31 80.1359C1357.51 81.1201 1360.79 81.4778 1364.19 81.2087ZM1466.26 81.9012C1462.72 81.3362 1459.18 80.7295 1455.6 80.1647C1458.68 83.1533 1462.51 82.1305 1466.26 81.9012ZM1366.68 76.1025C1365.28 78.4059 1365.81 80.6572 1365.82 82.8695C1365.82 83.4956 1366.25 83.9942 1366.97 83.865C1367.7 83.7775 1367.52 83.1523 1367.56 82.7347C1367.72 80.6049 1367.24 78.4787 1366.68 76.1025ZM1414.46 85.7335C1414.44 83.1872 1414.48 81.3921 1414.38 79.5559C1414.34 78.9718 1413.87 78.4735 1413.18 78.4354C1412.76 78.4378 1412.42 78.8571 1412.51 79.2323C1412.99 81.1916 1411.93 83.4514 1414.46 85.7335ZM1326.86 76.1956C1326.52 76.1974 1326.23 76.2408 1325.89 76.2427C1325.9 78.1628 1325.86 80.0831 1325.92 82.003C1325.92 82.6291 1325.67 83.5906 1326.69 83.585C1327.42 83.581 1327.84 82.8273 1327.75 82.0765C1327.48 80.0743 1327.17 78.1558 1326.86 76.1956ZM1454.18 84.806C1455.27 82.5459 1454.67 80.7125 1454.27 78.878C1454.14 78.3778 1453.84 77.795 1453.37 77.8811C1452.82 77.9676 1452.31 78.5965 1452.53 79.2215C1453.05 80.9301 1452.93 82.8509 1454.18 84.806ZM1324.42 81.3016C1320.67 79.8194 1318.03 79.7087 1313.69 80.5673C1317.1 81.8009 1320.38 81.1985 1324.42 81.3016ZM1445.27 75.4627C1445.54 78.091 1444.45 80.852 1446.34 83.3045C1446.92 80.588 1446.35 78.0031 1445.27 75.4627ZM1384.21 82.6017C1381.95 81.5288 1379.9 81.0391 1377.73 80.7588C1377.26 80.7196 1376.66 80.3472 1376.49 80.9743C1376.33 81.5178 1376.54 82.1428 1377.4 82.1799C1379.53 82.3769 1381.62 83.2003 1384.21 82.6017ZM1402.47 81.1658C1399.61 79.6787 1396.63 79.2776 1393.57 80.7554C1396.55 80.906 1399.49 81.0569 1402.47 81.1658ZM1375.37 85.5721C1375.18 82.7764 1375.98 80.5179 1373.97 78.3166C1373.05 81.1184 1373.95 83.0336 1375.37 85.5721ZM1408.25 79.1721C1407.44 79.9697 1407.45 80.888 1407.37 81.6815C1407.24 82.4753 1406.91 83.646 1408.19 83.7642C1409.68 83.923 1409.12 82.5903 1409.11 81.8807C1409.07 81.0461 1409.49 80.0002 1408.25 79.1721ZM1489.56 83.7771C1489.8 82.3982 1491.2 81.2218 1489.87 79.6846C1489.7 79.4768 1489.19 79.5213 1488.85 79.4397C1488.52 80.8608 1488.31 82.2394 1489 83.6132C1489 83.6967 1489.17 83.654 1489.56 83.7771Z" fill="white"/>
</g>
</svg>
