<svg width="1918" height="441" viewBox="0 0 1918 441" fill="none" xmlns="http://www.w3.org/2000/svg">
<path d="M1422.18 279.459C1422.78 280.961 1424.14 280.734 1424.45 279.787C1425.39 276.995 1427.19 278.397 1428.45 278.897C1431.79 280.192 1435.11 280.451 1438.6 279.696C1440.78 279.223 1442.52 280.668 1444.48 281.154C1448.63 282.253 1452.81 282.715 1457.08 282.056C1457.48 282.006 1457.77 281.648 1458.67 281.118C1454.82 279.957 1451.18 279.955 1447.96 277.295C1451.87 277.085 1454.9 279.327 1458.77 278.668C1455.34 276.918 1451.95 276.011 1448.6 276.044C1444.9 276.084 1441.4 275.705 1437.85 274.532C1434.63 273.497 1431.17 273.567 1427.96 274.06C1425.6 274.46 1425.81 273.55 1425.9 271.985C1425.98 270.518 1425.92 269.032 1425.9 267.553C1425.35 267.633 1425 267.64 1424.94 267.731C1423.5 272.725 1420.32 272.927 1416.34 270.864C1415.41 270.406 1414.29 270.317 1413.77 270.943C1411.73 273.501 1409.55 272.349 1407.34 271.536C1407.24 271.524 1407.11 271.409 1407.01 271.397C1397.82 270.815 1388.85 268.091 1378.94 268.996C1379.13 267.443 1379.33 265.793 1379.53 264.192C1379.6 263.561 1380.01 262.675 1379.1 262.465C1378.28 262.267 1377.99 263.068 1377.63 263.614C1377.57 263.706 1377.55 263.851 1377.49 263.942C1374.9 268.157 1374.78 268.339 1370.29 265.968C1368.12 264.815 1367.16 265.042 1366.68 267.347C1366.42 268.646 1365.99 268.938 1364.58 268.372C1359.66 266.341 1354.5 265.857 1349.19 265.404C1344.46 265.022 1339.86 263.13 1334.96 263.761C1333.31 263.953 1333.32 262.625 1333.33 261.394C1333.27 259.86 1334.31 258.214 1332.9 256.811C1330.84 257.592 1331.25 261.042 1328.8 260.939C1326.84 260.847 1324.89 259.918 1323.01 259.195C1321.83 258.707 1320.79 258.825 1320.32 259.851C1319.33 261.897 1318.22 261.663 1316.33 260.989C1312.98 259.839 1309.53 259.024 1305.88 259.512C1302.97 259.895 1300.33 258.192 1297.46 257.842C1296.78 257.759 1296.04 257.815 1295.42 257.593C1293.44 256.906 1290.87 258.956 1289.57 257.123C1288.65 255.779 1289.14 253.425 1288.99 251.388C1288.53 251.577 1288.13 251.627 1287.95 251.851C1286.84 253.291 1286.8 255.996 1285.04 256.322C1283.38 256.611 1281.3 255.519 1279.57 254.765C1278.49 254.289 1277.27 253.843 1276.77 254.718C1275.25 257.438 1273.61 255.957 1271.65 255.471C1269.11 254.865 1266.59 254.162 1263.88 254.175C1260.87 254.201 1257.86 253.833 1254.83 252.822C1251.24 251.594 1247.26 251.501 1243.02 252.41C1243.31 250.032 1243.55 248.042 1243.79 246.053C1242.3 245.82 1242.3 246.954 1241.94 247.549C1239.47 251.236 1238.38 251.645 1234.17 249.801C1232.63 249.12 1231.41 248.625 1230.49 250.532C1229.58 252.341 1228.1 251.569 1226.93 251.032C1222.41 248.952 1217.73 248.527 1212.83 248.716C1209.61 248.863 1206.69 246.979 1203.38 247.066C1201.45 247.126 1199.6 246.997 1197.89 248.117C1201.03 247.812 1204.04 248.526 1207.1 249.294C1204.15 249.672 1201.25 250.007 1198.19 250.421C1199.66 252.127 1201.13 252.996 1204.2 252.831C1210.15 252.524 1215.9 253.031 1221.59 254.811C1223.49 255.389 1225.51 255.438 1227.37 254.73C1229.84 253.802 1230.19 255.026 1229.99 257.021C1229.78 259.114 1229.63 261.163 1230.21 263.254C1231.76 262.704 1231.94 261.2 1232.38 260.022C1233.69 256.539 1235.79 255.515 1239 257.483C1240.28 258.28 1240.93 258.606 1241.68 257.318C1242.23 256.45 1242.68 256.8 1243.38 257.084C1248.07 258.988 1252.92 259.236 1257.85 258.362C1258.55 258.251 1259.12 258.074 1259.81 258.454C1264.02 260.693 1268.57 260.954 1273.21 260.439C1275.11 260.228 1275.54 260.724 1275.31 262.616C1275.06 264.654 1275.29 266.752 1275.32 268.923C1277.42 268.244 1277.37 266.316 1277.99 264.865C1279.3 261.775 1281.38 260.897 1284.04 262.849C1285.4 263.852 1286.22 264.395 1287.43 262.967C1288.29 261.94 1289.48 262.331 1290.32 262.681C1293.97 264.26 1297.75 263.935 1301.49 263.556C1303.24 263.375 1304.61 264.233 1306.03 264.702C1309.63 265.881 1313.2 266.466 1316.86 265.584C1318.99 265.057 1318.97 266.385 1319.07 267.579C1319.24 269.816 1319.21 272.078 1319.31 274.503C1321.65 273.854 1321.67 271.738 1321.99 270.349C1322.67 267.182 1324.54 267.559 1326.68 268.214C1328.68 268.803 1330.47 270.254 1332.68 268.654C1333.22 268.276 1334.51 268.631 1335.36 268.932C1339.08 270.323 1342.92 270.695 1346.86 270.339C1348.9 270.146 1350.94 270.79 1352.93 271.427C1356.83 272.594 1360.78 272.486 1364.68 271.239C1360.68 270.061 1356.39 271.703 1351.99 269.883C1356.27 269.078 1360.18 269.359 1364.13 269.695C1365.78 269.848 1364.53 270.779 1364.56 271.373C1366.32 272.721 1364.74 274.35 1364.91 275.799C1365.08 277.15 1365.11 278.533 1365.18 279.97C1367.38 279.352 1367.48 277.296 1368.19 275.905C1369.72 273.039 1371.6 272.234 1374.11 274.217C1375.59 275.383 1376.6 276.047 1377.97 274.098C1378.93 272.688 1380.63 272.848 1382.08 273.517C1384.55 274.608 1387.04 275.208 1389.73 274.946C1393.92 274.572 1397.99 274.677 1402.02 276.4C1404.87 277.636 1407.95 278.21 1410.95 276.608C1411.8 279.765 1410.74 282.787 1411.99 285.846C1413.42 284.642 1413.84 283.216 1414.45 281.862C1416.2 278.038 1418.34 277.462 1422.29 279.768C1422.82 277.026 1422.11 273.984 1424.64 271.388C1424.72 273.219 1424.88 274.668 1424.76 276.081C1424.64 277.494 1424.74 279.477 1422.18 279.459ZM1247.62 257.061C1254.84 255.187 1262.21 254.955 1269.55 256.149C1262.19 255.889 1254.99 258.406 1247.62 257.061ZM1358.7 267.75C1352.19 267.397 1345.79 270.651 1338.75 268.165C1345.7 267.341 1352.14 266.209 1358.7 267.75ZM1314.18 261.71C1310.8 261.1 1307.48 261.727 1304.1 261.954C1300.83 262.145 1297.55 263.123 1293.74 262.066C1300.86 259.834 1307.47 260.545 1314.18 261.71ZM1202.45 251.483C1208.27 250.619 1214.02 249.058 1219.93 250.717C1214.16 251.192 1208.36 252.305 1202.45 251.483ZM1400.58 274.058C1404.24 273.915 1407.96 272.941 1412.25 274.452C1407.86 276.968 1404.18 275.631 1400.58 274.058ZM1435.5 275.623C1440.71 276.556 1445.76 277.962 1450.75 280.592C1444.81 280.899 1440.3 277.885 1435.5 275.623ZM1415.03 271.886C1415.26 275.608 1414.93 279.163 1412.55 282.122C1412.64 278.489 1411.79 274.641 1415.03 271.886ZM1253.79 254.516C1250.89 254.9 1247.98 255.283 1245.04 255.563C1244.35 255.626 1243.14 255.823 1242.96 254.865C1242.72 253.605 1244 253.614 1244.87 253.375C1247.92 252.615 1250.78 253.754 1253.79 254.516ZM1320.72 270.637C1319.17 267.639 1320.55 264.756 1320.2 262.004C1320.09 261.301 1321.1 260.243 1322.12 260.416C1323.33 260.565 1322.75 261.676 1322.72 262.361C1322.58 265.054 1321.58 267.639 1320.72 270.637ZM1425.97 276.23C1431.96 276.026 1433.93 276.415 1437.09 278.378C1432.78 279.329 1429.35 278.022 1425.97 276.23ZM1385.32 272.781C1390.43 272.471 1395.6 272.118 1400.71 271.808C1395.73 273.415 1390.63 273.677 1385.32 272.781ZM1344.31 265.792C1340.65 266.378 1337.01 267.903 1332.52 265.58C1337.11 264.713 1340.72 264.958 1344.31 265.792ZM1274.68 258.452C1270.87 260.202 1267.09 258.951 1263.27 258.385C1267.05 257.666 1270.84 257.686 1274.68 258.452ZM1391.17 271.232C1387.06 271.418 1382.95 271.653 1378.79 271.834C1382.71 268.768 1386.93 270.467 1391.17 271.232ZM1276.82 264.723C1275.55 261.858 1276.45 259.309 1276.76 256.737C1276.85 256.009 1277.41 255.486 1278.22 255.733C1279.03 255.931 1278.75 256.635 1278.74 257.126C1278.63 259.625 1277.79 262.034 1276.82 264.723ZM1332.62 259.88C1332.26 262.84 1332.06 264.932 1331.7 267.055C1331.57 267.729 1330.96 268.246 1330.18 268.199C1329.69 268.14 1329.36 267.607 1329.51 267.182C1330.33 264.967 1329.43 262.198 1332.62 259.88ZM1231.43 259.315C1231.05 259.268 1230.71 259.178 1230.32 259.13C1230.6 256.898 1230.82 254.66 1231.14 252.434C1231.23 251.706 1231.08 250.555 1232.24 250.697C1233.07 250.798 1233.45 251.731 1233.24 252.592C1232.67 254.886 1232.05 257.076 1231.43 259.315ZM1377.8 266.246C1378.74 269.02 1377.8 271.072 1377.1 273.154C1376.88 273.718 1376.46 274.356 1375.94 274.194C1375.32 274.019 1374.82 273.22 1375.16 272.522C1375.98 270.604 1376.11 268.354 1377.8 266.246ZM1229.34 253.051C1224.86 254.275 1221.83 254.053 1217 252.476C1221.06 251.496 1224.72 252.632 1229.34 253.051ZM1366.37 275.928C1367.03 272.907 1366.16 269.55 1368.65 266.948C1368.94 270.185 1367.94 273.117 1366.37 275.928ZM1297.7 259.497C1294.98 260.444 1292.58 260.741 1290.06 260.778C1289.52 260.761 1288.79 261.114 1288.68 260.363C1288.57 259.708 1288.9 259.01 1289.87 259.08C1292.33 259.135 1294.83 258.455 1297.7 259.497ZM1318.33 263.597C1314.87 264.946 1311.41 265.016 1308.12 262.89C1311.54 263.111 1314.92 263.327 1318.33 263.597ZM1288.03 254.865C1287.43 258.092 1288.04 260.825 1285.44 263.118C1284.77 259.736 1286.06 257.629 1288.03 254.865ZM1324.65 266.686C1323.84 265.651 1323.97 264.583 1323.99 263.649C1323.95 262.71 1323.73 261.303 1325.21 261.336C1326.93 261.35 1326.11 262.825 1326.01 263.65C1325.84 264.615 1326.18 265.887 1324.65 266.686ZM1418 272.151C1418.1 273.788 1419.53 275.343 1417.81 276.954C1417.58 277.173 1417.01 277.053 1416.61 277.103C1416.42 275.405 1416.37 273.774 1417.35 272.268C1417.36 272.171 1417.55 272.243 1418 272.151Z" fill="white"/>
<path d="M1878.28 335.281C1878.9 336.785 1880.28 336.561 1880.6 335.615C1881.54 332.824 1883.38 334.231 1884.67 334.734C1888.08 336.038 1891.46 336.304 1895.02 335.558C1897.24 335.09 1899.02 336.54 1901.02 337.031C1905.25 338.14 1909.52 338.612 1913.87 337.963C1914.27 337.914 1914.57 337.556 1915.49 337.028C1911.56 335.858 1907.85 335.847 1904.56 333.179C1908.55 332.978 1911.64 335.228 1915.59 334.578C1912.09 332.82 1908.63 331.904 1905.21 331.929C1901.44 331.96 1897.87 331.572 1894.25 330.39C1890.96 329.347 1887.43 329.409 1884.16 329.894C1881.75 330.289 1881.96 329.379 1882.05 327.814C1882.13 326.346 1882.06 324.86 1882.04 323.38C1881.48 323.459 1881.13 323.465 1881.07 323.556C1879.6 328.549 1876.36 328.743 1872.3 326.669C1871.35 326.209 1870.2 326.118 1869.68 326.743C1867.6 329.296 1865.39 328.138 1863.12 327.32C1863.03 327.308 1862.89 327.192 1862.79 327.18C1853.42 326.575 1844.26 323.829 1834.16 324.71C1834.35 323.157 1834.55 321.508 1834.74 319.906C1834.82 319.275 1835.23 318.39 1834.3 318.178C1833.47 317.978 1833.17 318.778 1832.81 319.324C1832.74 319.415 1832.73 319.561 1832.66 319.652C1830.04 323.862 1829.92 324.044 1825.34 321.661C1823.12 320.503 1822.13 320.727 1821.65 323.032C1821.39 324.33 1820.95 324.621 1819.52 324.051C1814.49 322.008 1809.23 321.512 1803.81 321.045C1798.98 320.652 1794.29 318.748 1789.3 319.367C1787.61 319.556 1787.63 318.227 1787.63 316.996C1787.56 315.462 1788.62 313.818 1787.18 312.411C1785.08 313.188 1785.51 316.639 1783.01 316.53C1781.01 316.433 1779.02 315.499 1777.1 314.772C1775.9 314.281 1774.83 314.396 1774.36 315.421C1773.35 317.465 1772.23 317.229 1770.3 316.55C1766.87 315.392 1763.36 314.568 1759.63 315.047C1756.67 315.424 1753.97 313.714 1751.05 313.357C1750.35 313.272 1749.59 313.326 1748.97 313.102C1746.94 312.411 1744.33 314.455 1743 312.618C1742.06 311.272 1742.55 308.918 1742.4 306.88C1741.92 307.068 1741.51 307.117 1741.33 307.341C1740.2 308.779 1740.17 311.484 1738.38 311.806C1736.68 312.091 1734.56 310.994 1732.79 310.236C1731.69 309.757 1730.44 309.308 1729.93 310.182C1728.4 312.899 1726.72 311.413 1724.72 310.922C1722.13 310.31 1719.56 309.601 1716.79 309.607C1713.73 309.626 1710.66 309.251 1707.57 308.232C1703.9 306.995 1699.84 306.893 1695.51 307.791C1695.8 305.413 1696.05 303.424 1696.29 301.435C1694.76 301.198 1694.77 302.332 1694.4 302.927C1691.89 306.609 1690.79 307.016 1686.49 305.16C1684.92 304.475 1683.67 303.978 1682.74 305.883C1681.81 307.69 1680.3 306.914 1679.11 306.374C1674.49 304.283 1669.72 303.847 1664.73 304.023C1661.44 304.163 1658.46 302.271 1655.09 302.351C1653.12 302.406 1651.23 302.273 1649.48 303.389C1652.68 303.091 1655.76 303.812 1658.88 304.588C1655.87 304.959 1652.92 305.287 1649.8 305.694C1651.3 307.404 1652.8 308.277 1655.94 308.119C1662 307.827 1667.87 308.347 1673.67 310.142C1675.61 310.724 1677.67 310.778 1679.56 310.074C1682.08 309.152 1682.44 310.377 1682.24 312.373C1682.04 314.465 1681.89 316.515 1682.48 318.608C1684.06 318.062 1684.24 316.557 1684.69 315.381C1686.02 311.899 1688.15 310.88 1691.43 312.856C1692.74 313.657 1693.4 313.984 1694.16 312.698C1694.72 311.831 1695.18 312.183 1695.9 312.468C1700.68 314.383 1705.63 314.643 1710.65 313.781C1711.37 313.672 1711.95 313.496 1712.65 313.878C1716.95 316.128 1721.59 316.4 1726.32 315.896C1728.26 315.689 1728.7 316.187 1728.47 318.079C1728.22 320.117 1728.46 322.216 1728.5 324.387C1730.64 323.713 1730.57 321.785 1731.2 320.335C1732.54 317.247 1734.65 316.374 1737.38 318.332C1738.76 319.339 1739.6 319.885 1740.83 318.459C1741.71 317.434 1742.91 317.828 1743.78 318.18C1747.5 319.768 1751.36 319.452 1755.17 319.082C1756.95 318.905 1758.35 319.767 1759.8 320.239C1763.47 321.428 1767.12 322.022 1770.84 321.148C1773.02 320.626 1773 321.954 1773.11 323.149C1773.29 325.387 1773.26 327.649 1773.37 330.075C1775.76 329.432 1775.76 327.315 1776.08 325.926C1776.77 322.76 1778.69 323.142 1780.87 323.803C1782.9 324.397 1784.73 325.852 1786.99 324.257C1787.54 323.88 1788.85 324.238 1789.72 324.541C1793.51 325.942 1797.44 326.323 1801.45 325.977C1803.53 325.789 1805.61 326.437 1807.64 327.08C1811.62 328.256 1815.65 328.158 1819.62 326.92C1815.54 325.732 1811.17 327.364 1806.68 325.533C1811.04 324.738 1815.03 325.029 1819.05 325.374C1820.74 325.531 1819.47 326.459 1819.5 327.054C1821.29 328.406 1819.69 330.032 1819.86 331.481C1820.05 332.834 1820.08 334.217 1820.16 335.654C1822.39 335.041 1822.49 332.985 1823.22 331.596C1824.77 328.733 1826.68 327.932 1829.25 329.921C1830.76 331.091 1831.79 331.758 1833.18 329.811C1834.16 328.404 1835.89 328.567 1837.37 329.24C1839.9 330.338 1842.44 330.944 1845.18 330.689C1849.44 330.324 1853.6 330.439 1857.71 332.173C1860.62 333.416 1863.76 333.998 1866.82 332.402C1867.69 335.562 1866.62 338.583 1867.9 341.645C1869.35 340.444 1869.78 339.019 1870.4 337.666C1872.17 333.845 1874.35 333.274 1878.39 335.591C1878.93 332.849 1878.19 329.804 1880.77 327.214C1880.85 329.046 1881.02 330.495 1880.9 331.909C1880.78 333.322 1880.89 335.305 1878.28 335.281ZM1700.22 312.455C1707.58 310.598 1715.09 310.384 1722.58 311.596C1715.08 311.318 1707.74 313.818 1700.22 312.455ZM1813.52 323.415C1806.88 323.046 1800.35 326.286 1793.18 323.782C1800.26 322.975 1806.82 321.858 1813.52 323.415ZM1768.1 317.266C1764.66 316.648 1761.27 317.267 1757.83 317.486C1754.49 317.669 1751.15 318.64 1747.27 317.573C1754.52 315.358 1761.26 316.084 1768.1 317.266ZM1654.14 306.767C1660.07 305.916 1665.94 304.369 1671.97 306.042C1666.08 306.504 1660.17 307.603 1654.14 306.767ZM1856.24 329.826C1859.97 329.692 1863.76 328.727 1868.14 330.249C1863.66 332.754 1859.91 331.408 1856.24 329.826ZM1891.85 331.476C1897.16 332.422 1902.31 333.84 1907.42 336.484C1901.35 336.776 1896.75 333.75 1891.85 331.476ZM1870.97 327.689C1871.21 331.413 1870.88 334.967 1868.46 337.921C1868.55 334.288 1867.67 330.437 1870.97 327.689ZM1706.51 309.924C1703.55 310.301 1700.59 310.677 1697.59 310.951C1696.88 311.012 1695.65 311.206 1695.46 310.248C1695.22 308.986 1696.52 308.998 1697.4 308.761C1700.51 308.009 1703.43 309.155 1706.51 309.924ZM1774.79 326.211C1773.2 323.209 1774.61 320.328 1774.24 317.574C1774.13 316.871 1775.16 315.815 1776.19 315.991C1777.43 316.143 1776.84 317.253 1776.81 317.938C1776.68 320.631 1775.66 323.215 1774.79 326.211ZM1882.14 332.06C1888.24 331.871 1890.25 332.265 1893.47 334.236C1889.09 335.177 1885.58 333.861 1882.14 332.06ZM1840.67 328.512C1845.88 328.214 1851.15 327.874 1856.36 327.576C1851.29 329.172 1846.09 329.421 1840.67 328.512ZM1798.84 321.422C1795.1 321.999 1791.4 323.516 1786.81 321.181C1791.49 320.325 1795.18 320.58 1798.84 321.422ZM1727.82 313.912C1723.94 315.654 1720.07 314.393 1716.18 313.817C1720.03 313.107 1723.9 313.136 1727.82 313.912ZM1846.64 326.977C1842.45 327.153 1838.25 327.378 1834.01 327.549C1838 324.491 1842.31 326.201 1846.64 326.977ZM1730.02 320.189C1728.71 317.321 1729.62 314.773 1729.94 312.201C1730.03 311.474 1730.59 310.952 1731.42 311.2C1732.25 311.4 1731.96 312.104 1731.95 312.595C1731.84 315.094 1731 317.502 1730.02 320.189ZM1786.91 315.48C1786.55 318.44 1786.34 320.533 1785.98 322.655C1785.85 323.329 1785.23 323.844 1784.43 323.796C1783.94 323.735 1783.6 323.202 1783.75 322.777C1784.58 320.563 1783.66 317.791 1786.91 315.48ZM1683.72 314.671C1683.32 314.623 1682.98 314.532 1682.59 314.483C1682.86 312.251 1683.08 310.013 1683.41 307.787C1683.5 307.059 1683.34 305.907 1684.52 306.052C1685.36 306.155 1685.75 307.089 1685.55 307.95C1684.96 310.243 1684.35 312.433 1683.72 314.671ZM1832.99 321.957C1833.95 324.734 1833 326.785 1832.29 328.865C1832.07 329.429 1831.64 330.066 1831.11 329.903C1830.48 329.727 1829.97 328.926 1830.31 328.229C1831.15 326.312 1831.27 324.062 1832.99 321.957ZM1681.57 308.4C1677 309.614 1673.92 309.384 1668.99 307.795C1673.13 306.824 1676.85 307.97 1681.57 308.4ZM1821.35 331.615C1822.03 328.594 1821.13 325.234 1823.66 322.637C1823.97 325.876 1822.95 328.806 1821.35 331.615ZM1751.3 315.012C1748.52 315.953 1746.07 316.244 1743.51 316.275C1742.96 316.257 1742.21 316.609 1742.1 315.857C1741.98 315.202 1742.32 314.504 1743.31 314.577C1745.82 314.637 1748.36 313.964 1751.3 315.012ZM1772.34 319.164C1768.81 320.505 1765.29 320.566 1761.93 318.432C1765.42 318.662 1768.86 318.885 1772.34 319.164ZM1741.42 310.356C1740.82 313.583 1741.44 316.318 1738.8 318.605C1738.11 315.221 1739.42 313.116 1741.42 310.356ZM1778.79 322.268C1777.96 321.231 1778.1 320.164 1778.11 319.23C1778.07 318.29 1777.84 316.882 1779.35 316.919C1781.1 316.937 1780.27 318.411 1780.17 319.235C1780 320.2 1780.35 321.474 1778.79 322.268ZM1874 327.961C1874.1 329.599 1875.57 331.157 1873.81 332.765C1873.58 332.983 1873 332.862 1872.59 332.911C1872.39 331.212 1872.34 329.581 1873.33 328.076C1873.34 327.979 1873.53 328.052 1874 327.961Z" fill="white"/>
<path d="M1451.98 283.108C1451.02 284.418 1449.73 283.867 1449.65 282.872C1449.41 279.936 1447.28 280.858 1445.9 281.035C1442.28 281.478 1438.94 280.92 1435.66 279.338C1433.62 278.35 1431.55 279.326 1429.49 279.321C1425.11 279.376 1420.86 278.806 1416.79 277.127C1416.41 276.981 1416.21 276.563 1415.45 275.829C1419.54 275.641 1423.15 276.525 1426.98 274.73C1423.16 273.572 1419.62 275.01 1415.94 273.427C1419.76 272.565 1423.34 272.51 1426.65 273.359C1430.3 274.298 1433.86 274.783 1437.66 274.51C1441.1 274.291 1444.51 275.2 1447.57 276.461C1449.81 277.425 1449.83 276.491 1450.12 274.95C1450.39 273.507 1450.82 272.081 1451.19 270.65C1451.72 270.862 1452.06 270.953 1452.1 271.056C1452.32 276.254 1455.41 277.224 1459.86 276.192C1460.89 275.974 1462.02 276.162 1462.39 276.895C1463.78 279.873 1466.21 279.285 1468.61 279.036C1468.7 279.048 1468.86 278.969 1468.96 278.981C1478.2 280.653 1487.75 280.197 1497.35 283.489C1497.54 281.936 1497.74 280.287 1497.94 278.685C1498.01 278.054 1497.83 277.096 1498.78 277.114C1499.64 277.12 1499.73 277.969 1499.96 278.588C1500 278.691 1499.98 278.837 1500.02 278.94C1501.55 283.658 1501.62 283.864 1506.64 282.657C1509.08 282.068 1509.98 282.523 1509.89 284.876C1509.83 286.198 1510.18 286.587 1511.71 286.38C1517.08 285.609 1522.31 286.397 1527.68 287.251C1532.46 288.033 1537.47 287.316 1542.17 289.123C1543.76 289.711 1544.07 288.419 1544.37 287.224C1544.8 285.75 1544.17 283.9 1545.9 282.881C1547.76 284.142 1546.51 287.388 1548.96 287.885C1550.92 288.272 1553.08 287.847 1555.12 287.605C1556.4 287.416 1557.41 287.786 1557.62 288.896C1558.1 291.122 1559.26 291.164 1561.29 290.97C1564.89 290.672 1568.5 290.72 1572 292.084C1574.78 293.163 1577.82 292.156 1580.74 292.514C1581.44 292.598 1582.16 292.835 1582.82 292.768C1584.95 292.586 1586.99 295.2 1588.73 293.737C1589.97 292.658 1590.06 290.256 1590.7 288.315C1591.12 288.612 1591.5 288.757 1591.62 289.018C1592.37 290.686 1591.75 293.319 1593.41 294.064C1594.99 294.749 1597.32 294.197 1599.21 293.887C1600.39 293.687 1601.71 293.554 1602 294.524C1602.83 297.532 1604.82 296.495 1606.88 296.5C1609.54 296.53 1612.21 296.463 1614.89 297.136C1617.86 297.894 1620.93 298.269 1624.18 298.026C1628.03 297.71 1631.99 298.589 1635.98 300.505C1636.27 298.127 1636.51 296.138 1636.76 294.149C1638.3 294.288 1638.01 295.386 1638.23 296.053C1639.78 300.232 1640.75 300.893 1645.37 300.128C1647.06 299.842 1648.39 299.66 1648.84 301.734C1649.3 303.712 1650.96 303.323 1652.24 303.086C1657.23 302.17 1661.96 302.897 1666.77 304.273C1669.92 305.201 1673.27 304.084 1676.53 304.975C1678.42 305.502 1680.29 305.83 1681.71 307.334C1678.68 306.273 1675.52 306.231 1672.3 306.231C1675.13 307.317 1677.92 308.347 1680.85 309.493C1678.98 310.791 1677.31 311.277 1674.31 310.368C1668.49 308.622 1662.68 307.713 1656.61 308.053C1654.59 308.151 1652.58 307.708 1650.91 306.568C1648.68 305.064 1648.05 306.168 1647.75 308.152C1647.45 310.232 1647.1 312.258 1646.01 314.145C1644.62 313.235 1644.8 311.731 1644.65 310.481C1644.2 306.782 1642.38 305.278 1638.72 306.406C1637.26 306.868 1636.54 307.025 1636.11 305.594C1635.78 304.618 1635.25 304.848 1634.48 304.951C1629.37 305.656 1624.51 304.716 1619.84 302.667C1619.17 302.388 1618.66 302.079 1617.88 302.279C1613.17 303.426 1608.6 302.572 1604.13 300.941C1602.3 300.274 1601.75 300.65 1601.52 302.542C1601.27 304.58 1600.52 306.558 1599.97 308.657C1598.05 307.486 1598.58 305.63 1598.32 304.071C1597.77 300.754 1595.93 299.395 1592.81 300.639C1591.22 301.282 1590.28 301.61 1589.43 299.93C1588.82 298.723 1587.56 298.814 1586.64 298.948C1582.64 299.592 1578.97 298.355 1575.36 297.076C1573.68 296.475 1572.11 296.973 1570.59 297.082C1566.74 297.35 1563.06 297.047 1559.65 295.301C1557.67 294.27 1557.36 295.562 1556.97 296.696C1556.26 298.825 1555.74 301.027 1555.05 303.356C1552.89 302.156 1553.39 300.1 1553.41 298.674C1553.51 295.435 1551.56 295.345 1549.28 295.46C1547.16 295.545 1545.04 296.516 1543.23 294.424C1542.79 293.927 1541.43 293.957 1540.52 294.042C1536.49 294.486 1532.6 293.91 1528.79 292.607C1526.81 291.921 1524.63 292.049 1522.51 292.183C1518.37 292.366 1514.48 291.299 1510.92 289.14C1515.16 288.969 1519.01 291.607 1523.82 290.915C1519.77 289.09 1515.84 288.411 1511.84 287.775C1510.17 287.521 1511.18 288.727 1511.01 289.298C1508.94 290.177 1510.1 292.142 1509.59 293.507C1509.08 294.775 1508.71 296.109 1508.29 297.486C1506.27 296.352 1506.67 294.333 1506.31 292.81C1505.49 289.656 1503.83 288.419 1500.85 289.73C1499.1 290.5 1497.95 290.901 1497.07 288.675C1496.46 287.074 1494.73 286.813 1493.14 287.111C1490.42 287.566 1487.81 287.542 1485.21 286.633C1481.16 285.251 1477.1 284.36 1472.69 285.052C1469.57 285.556 1466.37 285.362 1463.79 283.076C1462.19 285.933 1462.5 289.123 1460.51 291.786C1459.39 290.27 1459.32 288.784 1459.05 287.322C1458.25 283.186 1456.27 282.107 1451.8 283.381C1451.94 280.591 1453.38 277.813 1451.51 274.677C1450.99 276.436 1450.47 277.801 1450.25 279.202C1450.03 280.603 1449.44 282.502 1451.98 283.108ZM1630.29 303.897C1623.59 300.319 1616.36 298.3 1608.8 297.671C1616.14 299.21 1622.66 303.406 1630.29 303.897ZM1517.69 287.21C1524.22 288.452 1529.77 293.17 1537.34 292.472C1530.66 289.98 1524.56 287.312 1517.69 287.21ZM1563.25 292.195C1566.74 292.425 1569.88 293.844 1573.17 294.886C1576.36 295.868 1579.36 297.615 1583.4 297.517C1576.89 293.618 1570.17 292.697 1563.25 292.195ZM1676.38 309.488C1670.82 307.232 1665.5 304.316 1659.25 304.486C1664.85 306.354 1670.32 308.846 1676.38 309.488ZM1474.69 283.129C1471.09 282.098 1467.65 280.249 1463.03 280.668C1466.77 284.179 1470.74 283.778 1474.69 283.129ZM1439.72 276.141C1434.34 275.778 1429 275.912 1423.41 277.247C1429.23 278.993 1434.42 277.167 1439.72 276.141ZM1460.91 277.502C1459.77 281.057 1459.24 284.587 1460.87 288.038C1461.66 284.489 1463.45 280.965 1460.91 277.502ZM1624.8 299.925C1627.58 301.004 1630.36 302.083 1633.2 303.071C1633.88 303.302 1635.02 303.787 1635.43 302.901C1635.98 301.736 1634.71 301.433 1633.91 300.991C1631.08 299.511 1627.96 299.918 1624.8 299.925ZM1554.6 299.262C1556.87 296.733 1556.19 293.597 1557.21 291.013C1557.5 290.358 1556.75 289.084 1555.7 289.006C1554.46 288.854 1554.77 290.073 1554.63 290.747C1554.11 293.391 1554.48 296.145 1554.6 299.262ZM1449.01 279.051C1443.14 277.396 1441.09 277.293 1437.48 278.428C1441.51 280.398 1445.23 279.967 1449.01 279.051ZM1490.11 285.607C1485.12 284.061 1480.09 282.461 1475.11 280.915C1479.64 283.686 1484.63 285.183 1490.11 285.607ZM1532.41 288.815C1535.9 290.276 1539.13 292.641 1544.15 291.482C1539.81 289.524 1536.17 288.881 1532.41 288.815ZM1603.15 298.654C1606.5 301.28 1610.55 300.988 1614.47 301.37C1610.9 299.751 1607.14 298.848 1603.15 298.654ZM1484.69 282.678C1488.71 283.86 1492.73 285.091 1496.81 286.279C1493.67 282.349 1489.07 282.969 1484.69 282.678ZM1599.5 304.217C1601.46 301.748 1601.19 299.055 1601.51 296.483C1601.6 295.755 1601.17 295.112 1600.31 295.155C1599.46 295.149 1599.57 295.901 1599.46 296.38C1598.96 298.831 1599.2 301.372 1599.5 304.217ZM1545.43 285.926C1545.07 288.886 1544.76 290.966 1544.6 293.114C1544.57 293.799 1545.04 294.448 1545.82 294.593C1546.32 294.654 1546.77 294.217 1546.73 293.768C1546.46 291.421 1548.02 288.952 1545.43 285.926ZM1645.77 310.026C1646.16 310.075 1646.51 310.069 1646.91 310.117C1647.18 307.885 1647.51 305.659 1647.73 303.421C1647.82 302.693 1648.25 301.613 1647.06 301.468C1646.22 301.365 1645.62 302.178 1645.61 303.063C1645.62 305.429 1645.7 307.703 1645.77 310.026ZM1499.15 281.099C1497.54 283.562 1497.97 285.782 1498.16 287.971C1498.23 288.572 1498.5 289.293 1499.05 289.263C1499.71 289.245 1500.39 288.59 1500.23 287.831C1499.88 285.769 1500.3 283.555 1499.15 281.099ZM1649.36 304.458C1653.5 306.738 1656.55 307.259 1661.72 306.906C1657.94 304.966 1654.04 305.179 1649.36 304.458ZM1508.11 293.277C1508.18 290.184 1509.86 287.139 1508.04 284.009C1506.96 287.078 1507.23 290.166 1508.11 293.277ZM1580.1 294.06C1582.57 295.643 1584.87 296.516 1587.36 297.165C1587.9 297.28 1588.53 297.801 1588.82 297.098C1589.1 296.491 1588.94 295.733 1587.95 295.563C1585.51 295.018 1583.2 293.75 1580.1 294.06ZM1558.68 293.014C1561.78 295.167 1565.18 296.076 1568.96 294.814C1565.52 294.196 1562.12 293.584 1558.68 293.014ZM1590.81 291.924C1590.61 295.199 1589.35 297.704 1591.36 300.561C1592.85 297.443 1592.08 295.083 1590.81 291.924ZM1551.67 294.471C1552.72 293.664 1552.85 292.597 1553.06 291.687C1553.32 290.783 1553.89 289.473 1552.42 289.146C1550.71 288.739 1551.16 290.371 1551.06 291.196C1550.99 292.172 1550.35 293.325 1551.67 294.471ZM1457.9 277.036C1457.41 278.601 1455.61 279.759 1456.92 281.743C1457.09 282.009 1457.69 282.034 1458.07 282.179C1458.67 280.578 1459.11 279.007 1458.52 277.308C1458.53 277.211 1458.33 277.236 1457.9 277.036Z" fill="white"/>
<path d="M986.012 226.078C985.048 227.388 983.759 226.837 983.68 225.842C983.437 222.906 981.314 223.829 979.936 224.005C976.315 224.448 972.967 223.891 969.695 222.308C967.655 221.32 965.577 222.297 963.518 222.291C959.14 222.346 954.89 221.777 950.825 220.097C950.441 219.952 950.241 219.533 949.477 218.799C953.569 218.611 957.178 219.496 961.015 217.7C957.188 216.542 953.646 217.98 949.972 216.397C953.795 215.536 957.368 215.48 960.681 216.329C964.333 217.269 967.891 217.753 971.692 217.48C975.135 217.261 978.54 218.17 981.601 219.431C983.844 220.395 983.858 219.461 984.147 217.921C984.424 216.477 984.85 215.052 985.226 213.62C985.753 213.832 986.093 213.923 986.131 214.026C986.349 219.224 989.445 220.194 993.892 219.162C994.923 218.944 996.056 219.132 996.418 219.866C997.812 222.844 1000.25 222.255 1002.64 222.006C1002.74 222.018 1002.9 221.939 1003 221.951C1012.23 223.624 1021.79 223.167 1031.38 226.459C1031.57 224.907 1031.77 223.257 1031.97 221.655C1032.04 221.025 1031.86 220.066 1032.81 220.084C1033.67 220.09 1033.76 220.939 1033.99 221.558C1034.03 221.661 1034.01 221.807 1034.05 221.91C1035.58 226.629 1035.65 226.835 1040.67 225.627C1043.11 225.038 1044.01 225.493 1043.92 227.846C1043.86 229.169 1044.21 229.557 1045.75 229.35C1051.11 228.579 1056.34 229.367 1061.71 230.221C1066.49 231.003 1071.5 230.286 1076.2 232.093C1077.79 232.681 1078.1 231.389 1078.4 230.194C1078.83 228.72 1078.2 226.871 1079.93 225.851C1081.79 227.113 1080.54 230.358 1082.99 230.855C1084.95 231.243 1087.11 230.818 1089.15 230.575C1090.43 230.387 1091.44 230.756 1091.66 231.866C1092.14 234.092 1093.29 234.135 1095.32 233.94C1098.92 233.642 1102.53 233.69 1106.03 235.054C1108.82 236.134 1111.85 235.126 1114.77 235.484C1115.47 235.569 1116.19 235.805 1116.85 235.738C1118.98 235.556 1121.03 238.17 1122.76 236.708C1124 235.628 1124.09 233.226 1124.73 231.285C1125.15 231.582 1125.53 231.728 1125.65 231.988C1126.4 233.656 1125.78 236.289 1127.44 237.035C1129.02 237.72 1131.35 237.167 1133.24 236.858C1134.42 236.657 1135.75 236.524 1136.03 237.494C1136.87 240.502 1138.85 239.465 1140.91 239.471C1143.57 239.501 1146.24 239.433 1148.92 240.106C1151.89 240.864 1154.96 241.24 1158.21 240.996C1162.06 240.68 1166.02 241.559 1170.01 243.475C1170.3 241.098 1170.54 239.108 1170.79 237.119C1172.33 237.258 1172.04 238.356 1172.26 239.023C1173.81 243.202 1174.79 243.863 1179.4 243.098C1181.09 242.813 1182.42 242.63 1182.87 244.705C1183.33 246.682 1184.99 246.293 1186.27 246.057C1191.26 245.14 1195.99 245.867 1200.8 247.243C1203.95 248.171 1207.3 247.054 1210.56 247.945C1212.45 248.473 1214.32 248.8 1215.74 250.304C1212.71 249.243 1209.55 249.201 1206.33 249.201C1209.17 250.287 1211.95 251.317 1214.88 252.463C1213.01 253.762 1211.34 254.247 1208.34 253.338C1202.52 251.592 1196.71 250.683 1190.64 251.024C1188.62 251.121 1186.61 250.678 1184.94 249.538C1182.71 248.035 1182.08 249.139 1181.78 251.122C1181.48 253.202 1181.13 255.228 1180.05 257.115C1178.65 256.205 1178.83 254.701 1178.69 253.452C1178.23 249.752 1176.41 248.248 1172.75 249.377C1171.29 249.838 1170.57 249.996 1170.14 248.564C1169.81 247.588 1169.28 247.818 1168.51 247.922C1163.4 248.626 1158.54 247.687 1153.87 245.637C1153.2 245.358 1152.69 245.049 1151.91 245.249C1147.2 246.396 1142.63 245.542 1138.16 243.911C1136.33 243.244 1135.78 243.62 1135.55 245.513C1135.3 247.551 1134.56 249.528 1134 251.627C1132.08 250.456 1132.61 248.6 1132.35 247.042C1131.8 243.724 1129.96 242.366 1126.84 243.609C1125.25 244.253 1124.31 244.58 1123.46 242.9C1122.86 241.693 1121.59 241.785 1120.67 241.918C1116.67 242.562 1113 241.325 1109.39 240.046C1107.71 239.446 1106.14 239.943 1104.62 240.053C1100.77 240.32 1097.09 240.017 1093.68 238.271C1091.7 237.24 1091.39 238.532 1091 239.666C1090.29 241.796 1089.77 243.997 1089.08 246.327C1086.92 245.126 1087.42 243.07 1087.44 241.644C1087.54 238.405 1085.59 238.315 1083.32 238.43C1081.2 238.516 1079.07 239.486 1077.26 237.394C1076.82 236.897 1075.46 236.927 1074.55 237.012C1070.52 237.456 1066.63 236.88 1062.82 235.577C1060.84 234.892 1058.67 235.019 1056.54 235.153C1052.4 235.336 1048.51 234.269 1044.96 232.11C1049.2 231.94 1053.04 234.577 1057.85 233.885C1053.8 232.06 1049.87 231.382 1045.88 230.745C1044.2 230.491 1045.21 231.698 1045.04 232.268C1042.97 233.148 1044.14 235.113 1043.62 236.477C1043.11 237.745 1042.75 239.08 1042.33 240.457C1040.3 239.323 1040.7 237.303 1040.34 235.78C1039.52 232.627 1037.86 231.389 1034.89 232.7C1033.13 233.471 1031.98 233.871 1031.1 231.645C1030.49 230.044 1028.76 229.784 1027.17 230.081C1024.45 230.536 1021.84 230.512 1019.24 229.603C1015.19 228.221 1011.13 227.33 1006.72 228.022C1003.6 228.526 1000.41 228.332 997.822 226.046C996.216 228.903 996.529 232.093 994.545 234.756C993.425 233.24 993.356 231.754 993.082 230.293C992.282 226.156 990.305 225.077 985.828 226.351C985.969 223.561 987.414 220.783 985.537 217.647C985.02 219.406 984.502 220.771 984.28 222.172C984.058 223.574 983.474 225.472 986.012 226.078ZM1164.32 246.867C1157.62 243.289 1150.39 241.271 1142.83 240.641C1150.17 242.18 1156.69 246.377 1164.32 246.867ZM1051.72 230.18C1058.25 231.423 1063.8 236.141 1071.37 235.442C1064.7 232.95 1058.59 230.282 1051.72 230.18ZM1097.28 235.165C1100.77 235.395 1103.91 236.814 1107.2 237.856C1110.39 238.839 1113.4 240.585 1117.43 240.487C1110.92 236.588 1104.2 235.667 1097.28 235.165ZM1210.41 252.458C1204.85 250.203 1199.54 247.286 1193.28 247.457C1198.88 249.324 1204.36 251.816 1210.41 252.458ZM1008.72 226.099C1005.13 225.068 1001.68 223.219 997.062 223.638C1000.8 227.149 1004.77 226.749 1008.72 226.099ZM973.753 219.111C968.372 218.748 963.031 218.882 957.442 220.217C963.256 221.963 968.453 220.137 973.753 219.111ZM994.937 220.472C993.799 224.027 993.266 227.557 994.904 231.008C995.69 227.46 997.477 223.935 994.937 220.472ZM1158.83 242.895C1161.61 243.974 1164.39 245.053 1167.23 246.041C1167.91 246.272 1169.06 246.757 1169.47 245.871C1170.01 244.707 1168.74 244.404 1167.94 243.961C1165.11 242.481 1161.99 242.888 1158.83 242.895ZM1088.63 242.233C1090.9 239.703 1090.23 236.567 1091.25 233.983C1091.53 233.328 1090.78 232.054 1089.73 231.976C1088.5 231.824 1088.8 233.043 1088.67 233.717C1088.14 236.361 1088.51 239.115 1088.63 242.233ZM983.043 222.021C977.166 220.366 975.119 220.263 971.514 221.398C975.543 223.369 979.263 222.937 983.043 222.021ZM1024.14 228.577C1019.15 227.031 1014.12 225.431 1009.14 223.885C1013.67 226.656 1018.66 228.154 1024.14 228.577ZM1066.45 231.785C1069.93 233.247 1073.16 235.612 1078.18 234.452C1073.84 232.494 1070.21 231.851 1066.45 231.785ZM1137.18 241.624C1140.53 244.25 1144.58 243.958 1148.5 244.34C1144.93 242.721 1141.18 241.818 1137.18 241.624ZM1018.72 225.649C1022.74 226.831 1026.76 228.061 1030.84 229.249C1027.7 225.32 1023.1 225.939 1018.72 225.649ZM1133.54 247.187C1135.5 244.718 1135.22 242.025 1135.54 239.453C1135.63 238.725 1135.2 238.083 1134.34 238.125C1133.49 238.119 1133.6 238.871 1133.49 239.351C1132.99 241.801 1133.23 244.342 1133.54 247.187ZM1079.46 228.896C1079.1 231.856 1078.79 233.937 1078.63 236.084C1078.6 236.769 1079.07 237.418 1079.86 237.564C1080.35 237.624 1080.81 237.187 1080.76 236.739C1080.49 234.391 1082.05 231.922 1079.46 228.896ZM1179.8 252.996C1180.19 253.045 1180.54 253.039 1180.94 253.087C1181.21 250.855 1181.54 248.629 1181.76 246.391C1181.85 245.663 1182.28 244.583 1181.1 244.438C1180.25 244.335 1179.65 245.148 1179.64 246.033C1179.66 248.399 1179.73 250.673 1179.8 252.996ZM1033.18 224.069C1031.57 226.532 1032 228.752 1032.19 230.942C1032.26 231.542 1032.53 232.264 1033.08 232.233C1033.74 232.215 1034.42 231.56 1034.26 230.802C1033.91 228.74 1034.34 226.526 1033.18 224.069ZM1183.39 247.428C1187.53 249.708 1190.58 250.229 1195.75 249.876C1191.97 247.936 1188.08 248.149 1183.39 247.428ZM1042.14 236.247C1042.22 233.154 1043.89 230.109 1042.07 226.979C1040.99 230.049 1041.26 233.136 1042.14 236.247ZM1114.13 237.031C1116.6 238.613 1118.91 239.486 1121.39 240.135C1121.93 240.25 1122.57 240.772 1122.85 240.068C1123.13 239.461 1122.97 238.703 1121.99 238.534C1119.54 237.988 1117.23 236.721 1114.13 237.031ZM1092.71 235.985C1095.81 238.137 1099.22 239.047 1102.99 237.784C1099.55 237.166 1096.16 236.554 1092.71 235.985ZM1124.84 234.894C1124.64 238.169 1123.38 240.674 1125.39 243.531C1126.88 240.413 1126.11 238.054 1124.84 234.894ZM1085.7 237.441C1086.75 236.634 1086.88 235.567 1087.09 234.657C1087.35 233.753 1087.92 232.443 1086.45 232.116C1084.74 231.71 1085.19 233.341 1085.09 234.166C1085.02 235.143 1084.38 236.295 1085.7 237.441ZM991.93 220.006C991.437 221.571 989.637 222.73 990.952 224.713C991.12 224.98 991.72 225.004 992.104 225.149C992.702 223.548 993.146 221.977 992.55 220.279C992.561 220.182 992.358 220.206 991.93 220.006Z" fill="white"/>
<path d="M474.914 163.371C475.518 164.874 476.876 164.646 477.188 163.699C478.121 160.907 479.92 162.309 481.188 162.809C484.526 164.105 487.844 164.363 491.335 163.608C493.51 163.136 495.254 164.58 497.214 165.066C501.364 166.165 505.543 166.628 509.81 165.968C510.21 165.918 510.5 165.56 511.403 165.03C507.555 163.869 503.911 163.867 500.691 161.207C504.607 160.997 507.632 163.239 511.505 162.58C508.075 160.83 504.689 159.923 501.336 159.956C497.637 159.996 494.138 159.617 490.588 158.444C487.365 157.409 483.909 157.479 480.697 157.972C478.333 158.372 478.543 157.462 478.636 155.897C478.717 154.43 478.652 152.944 478.636 151.465C478.085 151.545 477.739 151.552 477.679 151.643C476.23 156.637 473.054 156.84 469.071 154.776C468.142 154.318 467.02 154.23 466.5 154.855C464.463 157.413 462.289 156.261 460.074 155.448C459.977 155.436 459.843 155.321 459.746 155.309C450.558 154.727 441.583 152.003 431.672 152.908C431.862 151.355 432.064 149.705 432.26 148.104C432.337 147.473 432.741 146.587 431.831 146.377C431.018 146.179 430.723 146.98 430.36 147.527C430.3 147.618 430.282 147.763 430.222 147.854C427.637 152.069 427.516 152.251 423.029 149.88C420.856 148.727 419.892 148.954 419.413 151.26C419.155 152.558 418.726 152.85 417.318 152.284C412.395 150.253 407.233 149.769 401.921 149.316C397.19 148.934 392.595 147.042 387.691 147.673C386.042 147.865 386.057 146.537 386.06 145.306C386.001 143.772 387.04 142.126 385.636 140.723C383.57 141.505 383.985 144.954 381.535 144.851C379.577 144.759 377.622 143.83 375.74 143.107C374.569 142.619 373.52 142.737 373.05 143.763C372.06 145.809 370.956 145.575 369.069 144.901C365.713 143.752 362.266 142.936 358.611 143.424C355.708 143.808 353.06 142.104 350.197 141.754C349.518 141.671 348.772 141.727 348.159 141.505C346.174 140.819 343.609 142.869 342.306 141.035C341.387 139.691 341.872 137.337 341.728 135.3C341.261 135.489 340.861 135.539 340.686 135.763C339.574 137.203 339.538 139.908 337.775 140.234C336.114 140.523 334.031 139.431 332.301 138.677C331.227 138.201 330.001 137.756 329.5 138.63C327.985 141.35 326.344 139.869 324.384 139.383C321.848 138.777 319.324 138.074 316.613 138.087C313.606 138.113 310.597 137.745 307.569 136.734C303.976 135.506 299.998 135.413 295.75 136.322C296.041 133.944 296.285 131.955 296.528 129.965C295.03 129.732 295.039 130.866 294.67 131.461C292.2 135.148 291.116 135.557 286.909 133.713C285.367 133.032 284.147 132.538 283.224 134.444C282.313 136.253 280.832 135.481 279.666 134.944C275.143 132.864 270.467 132.439 265.568 132.628C262.349 132.776 259.427 130.891 256.117 130.979C254.189 131.038 252.333 130.909 250.62 132.03C253.76 131.724 256.776 132.438 259.834 133.206C256.882 133.584 253.984 133.919 250.929 134.333C252.395 136.039 253.864 136.908 256.938 136.743C262.886 136.437 268.635 136.943 274.328 138.723C276.227 139.301 278.24 139.35 280.1 138.642C282.578 137.714 282.92 138.938 282.725 140.933C282.518 143.026 282.366 145.076 282.947 147.166C284.492 146.616 284.676 145.112 285.116 143.935C286.429 140.451 288.524 139.427 291.731 141.395C293.012 142.192 293.662 142.518 294.411 141.231C294.96 140.362 295.41 140.713 296.114 140.996C300.806 142.9 305.651 143.148 310.585 142.274C311.288 142.163 311.851 141.986 312.544 142.366C316.751 144.605 321.3 144.866 325.943 144.351C327.841 144.14 328.272 144.636 328.041 146.529C327.791 148.567 328.027 150.664 328.057 152.835C330.159 152.156 330.1 150.228 330.721 148.777C332.034 145.688 334.112 144.809 336.779 146.761C338.134 147.764 338.954 148.307 340.163 146.879C341.027 145.852 342.211 146.243 343.054 146.593C346.703 148.172 350.485 147.847 354.226 147.468C355.972 147.287 357.344 148.145 358.764 148.614C362.363 149.793 365.936 150.378 369.59 149.496C371.723 148.969 371.708 150.297 371.808 151.491C371.978 153.728 371.947 155.99 372.044 158.415C374.389 157.766 374.402 155.65 374.72 154.261C375.403 151.094 377.278 151.471 379.414 152.126C381.41 152.716 383.203 154.166 385.418 152.566C385.956 152.188 387.243 152.543 388.092 152.844C391.813 154.235 395.658 154.607 399.593 154.251C401.636 154.058 403.675 154.702 405.665 155.339C409.561 156.506 413.514 156.398 417.41 155.151C413.417 153.973 409.128 155.615 404.721 153.796C409.006 152.99 412.912 153.271 416.86 153.607C418.516 153.76 417.269 154.691 417.295 155.285C419.051 156.633 417.472 158.262 417.64 159.711C417.819 161.062 417.847 162.445 417.917 163.882C420.111 163.264 420.215 161.208 420.927 159.817C422.459 156.952 424.331 156.146 426.846 158.129C428.329 159.295 429.331 159.96 430.702 158.01C431.663 156.6 433.367 156.76 434.812 157.429C437.289 158.52 439.776 159.12 442.468 158.859C446.651 158.484 450.726 158.589 454.75 160.313C457.604 161.548 460.685 162.122 463.689 160.52C464.534 163.677 463.474 166.699 464.725 169.758C466.153 168.554 466.574 167.128 467.183 165.774C468.931 161.95 471.07 161.374 475.024 163.68C475.556 160.938 474.845 157.896 477.379 155.3C477.45 157.131 477.618 158.58 477.494 159.993C477.37 161.406 477.473 163.389 474.914 163.371ZM300.352 140.973C307.575 139.099 314.942 138.868 322.282 140.061C314.926 139.801 307.723 142.318 300.352 140.973ZM411.434 151.662C404.927 151.309 398.52 154.563 391.486 152.077C398.433 151.253 404.876 150.121 411.434 151.662ZM366.912 145.622C363.539 145.012 360.212 145.639 356.835 145.866C353.561 146.057 350.289 147.035 346.479 145.978C353.598 143.746 360.209 144.457 366.912 145.622ZM255.182 135.395C261.001 134.531 266.758 132.97 272.662 134.629C266.89 135.104 261.09 136.217 255.182 135.395ZM453.313 157.97C456.975 157.827 460.69 156.853 464.987 158.364C460.591 160.88 456.913 159.543 453.313 157.97ZM488.238 159.535C493.443 160.468 498.491 161.874 503.488 164.504C497.541 164.811 493.034 161.797 488.238 159.535ZM467.763 155.798C467.997 159.521 467.661 163.075 465.279 166.034C465.379 162.401 464.52 158.553 467.763 155.798ZM306.524 138.428C303.621 138.812 300.718 139.195 297.777 139.476C297.08 139.538 295.874 139.735 295.696 138.778C295.456 137.517 296.736 137.526 297.602 137.287C300.65 136.527 303.515 137.666 306.524 138.428ZM373.453 154.549C371.899 151.552 373.287 148.668 372.934 145.916C372.823 145.213 373.839 144.155 374.852 144.328C376.065 144.477 375.486 145.588 375.451 146.273C375.319 148.966 374.313 151.551 373.453 154.549ZM478.707 160.142C484.692 159.938 486.663 160.328 489.821 162.29C485.519 163.241 482.083 161.934 478.707 160.142ZM438.054 156.693C443.165 156.383 448.33 156.03 453.441 155.72C448.467 157.327 443.362 157.589 438.054 156.693ZM397.046 149.704C393.379 150.29 389.745 151.815 385.252 149.492C389.84 148.625 393.455 148.871 397.046 149.704ZM327.418 142.364C323.608 144.115 319.821 142.863 316 142.297C319.781 141.578 323.571 141.598 327.418 142.364ZM443.908 155.144C439.797 155.33 435.68 155.565 431.521 155.746C435.443 152.68 439.667 154.379 443.908 155.144ZM329.556 148.635C328.281 145.77 329.184 143.221 329.499 140.649C329.588 139.921 330.145 139.398 330.952 139.645C331.765 139.843 331.482 140.547 331.471 141.038C331.362 143.537 330.525 145.946 329.556 148.635ZM385.359 143.792C384.997 146.752 384.79 148.844 384.431 150.968C384.3 151.641 383.695 152.158 382.912 152.111C382.427 152.052 382.098 151.519 382.249 151.094C383.062 148.879 382.169 146.11 385.359 143.792ZM284.168 143.228C283.78 143.18 283.446 143.09 283.058 143.042C283.331 140.81 283.556 138.572 283.878 136.346C283.967 135.618 283.812 134.467 284.977 134.609C285.802 134.71 286.18 135.643 285.976 136.504C285.4 138.798 284.787 140.989 284.168 143.228ZM430.531 150.158C431.472 152.932 430.531 154.984 429.833 157.066C429.616 157.63 429.193 158.268 428.671 158.106C428.052 157.932 427.559 157.132 427.891 156.434C428.717 154.516 428.844 152.266 430.531 150.158ZM282.078 136.963C277.594 138.187 274.568 137.965 269.738 136.389C273.798 135.408 277.451 136.545 282.078 136.963ZM419.101 159.84C419.767 156.819 418.897 153.462 421.383 150.86C421.676 154.098 420.677 157.029 419.101 159.84ZM350.438 143.409C347.711 144.356 345.311 144.653 342.795 144.69C342.255 144.673 341.522 145.026 341.417 144.275C341.3 143.62 341.632 142.922 342.608 142.992C345.064 143.047 347.561 142.367 350.438 143.409ZM371.064 147.509C367.599 148.858 364.143 148.928 360.858 146.802C364.278 147.023 367.65 147.239 371.064 147.509ZM340.76 138.777C340.168 142.004 340.77 144.737 338.174 147.03C337.505 143.648 338.797 141.541 340.76 138.777ZM377.384 150.598C376.575 149.563 376.706 148.495 376.722 147.561C376.689 146.622 376.467 145.216 377.941 145.248C379.663 145.262 378.842 146.737 378.741 147.562C378.574 148.527 378.91 149.799 377.384 150.598ZM470.735 156.063C470.83 157.7 472.265 159.255 470.541 160.866C470.318 161.085 469.741 160.965 469.341 161.015C469.155 159.317 469.108 157.686 470.081 156.18C470.093 156.083 470.281 156.155 470.735 156.063Z" fill="white"/>
<path d="M931.014 219.192C931.634 220.696 933.018 220.471 933.335 219.525C934.279 216.735 936.116 218.142 937.411 218.645C940.818 219.949 944.202 220.215 947.759 219.468C949.977 219.001 951.759 220.45 953.758 220.941C957.993 222.051 962.256 222.523 966.605 221.873C967.013 221.825 967.308 221.467 968.227 220.939C964.301 219.769 960.585 219.757 957.294 217.089C961.287 216.888 964.378 219.138 968.326 218.489C964.823 216.73 961.369 215.815 957.95 215.84C954.178 215.871 950.608 215.483 946.985 214.301C943.697 213.258 940.173 213.319 936.898 213.805C934.489 214.2 934.701 213.29 934.792 211.725C934.871 210.257 934.801 208.771 934.782 207.291C934.219 207.37 933.867 207.376 933.806 207.467C932.341 212.459 929.102 212.654 925.035 210.58C924.087 210.119 922.942 210.028 922.414 210.653C920.343 213.207 918.124 212.049 915.863 211.23C915.764 211.218 915.627 211.103 915.528 211.091C906.158 210.486 896.999 207.74 886.894 208.621C887.084 207.068 887.286 205.418 887.482 203.817C887.559 203.186 887.969 202.301 887.04 202.088C886.211 201.888 885.912 202.689 885.544 203.235C885.482 203.326 885.465 203.472 885.403 203.563C882.778 207.772 882.655 207.954 878.074 205.571C875.855 204.413 874.873 204.638 874.39 206.943C874.13 208.241 873.693 208.532 872.255 207.962C867.23 205.919 861.966 205.422 856.547 204.956C851.723 204.562 847.032 202.659 842.033 203.278C840.353 203.466 840.364 202.138 840.364 200.907C840.301 199.372 841.356 197.728 839.921 196.321C837.816 197.098 838.248 200.549 835.749 200.441C833.752 200.344 831.756 199.41 829.836 198.682C828.64 198.191 827.571 198.307 827.094 199.332C826.09 201.376 824.963 201.14 823.037 200.461C819.612 199.303 816.096 198.478 812.37 198.958C809.41 199.335 806.706 197.625 803.785 197.267C803.092 197.182 802.332 197.237 801.707 197.013C799.681 196.322 797.07 198.366 795.737 196.529C794.797 195.182 795.286 192.829 795.133 190.791C794.658 190.979 794.251 191.027 794.072 191.252C792.942 192.69 792.912 195.395 791.115 195.716C789.422 196.002 787.295 194.904 785.529 194.146C784.433 193.667 783.181 193.219 782.673 194.092C781.134 196.81 779.457 195.324 777.458 194.833C774.87 194.221 772.294 193.512 769.531 193.518C766.464 193.537 763.395 193.161 760.305 192.143C756.638 190.906 752.581 190.803 748.252 191.702C748.543 189.324 748.786 187.335 749.03 185.345C747.501 185.109 747.513 186.243 747.139 186.838C744.629 190.52 743.524 190.926 739.23 189.071C737.656 188.386 736.41 187.889 735.474 189.793C734.549 191.601 733.037 190.825 731.847 190.285C727.23 188.193 722.461 187.757 717.465 187.934C714.183 188.074 711.199 186.182 707.824 186.261C705.858 186.316 703.965 186.183 702.221 187.299C705.422 187.002 708.499 187.723 711.619 188.499C708.61 188.869 705.656 189.197 702.542 189.604C704.04 191.314 705.541 192.188 708.675 192.029C714.739 191.737 720.604 192.258 726.412 194.053C728.351 194.634 730.404 194.689 732.298 193.985C734.823 193.063 735.175 194.288 734.981 196.283C734.775 198.376 734.625 200.426 735.223 202.518C736.797 201.972 736.981 200.468 737.426 199.291C738.756 195.81 740.891 194.79 744.165 196.767C745.474 197.567 746.137 197.895 746.897 196.609C747.456 195.741 747.915 196.093 748.634 196.378C753.423 198.294 758.365 198.554 763.393 197.692C764.11 197.583 764.684 197.407 765.391 197.789C769.687 200.038 774.326 200.311 779.06 199.806C780.994 199.6 781.435 200.097 781.204 201.99C780.954 204.028 781.2 206.126 781.235 208.298C783.378 207.624 783.312 205.695 783.942 204.246C785.274 201.158 787.391 200.284 790.115 202.243C791.499 203.25 792.336 203.795 793.566 202.37C794.445 201.345 795.652 201.739 796.514 202.09C800.238 203.679 804.094 203.363 807.907 202.992C809.687 202.816 811.089 203.677 812.538 204.15C816.211 205.338 819.856 205.932 823.58 205.058C825.753 204.536 825.742 205.865 825.847 207.059C826.025 209.297 825.999 211.56 826.104 213.986C828.494 213.343 828.501 211.226 828.822 209.837C829.511 206.671 831.424 207.052 833.603 207.713C835.641 208.307 837.472 209.763 839.727 208.167C840.275 207.791 841.588 208.149 842.455 208.452C846.252 209.852 850.174 210.234 854.186 209.888C856.268 209.699 858.349 210.348 860.38 210.99C864.356 212.166 868.387 212.069 872.356 210.831C868.282 209.643 863.912 211.275 859.414 209.444C863.782 208.649 867.765 208.939 871.792 209.284C873.481 209.442 872.212 210.37 872.239 210.964C874.033 212.317 872.428 213.942 872.602 215.392C872.788 216.745 872.82 218.127 872.895 219.565C875.13 218.952 875.231 216.896 875.954 215.507C877.51 212.644 879.416 211.843 881.986 213.832C883.501 215.002 884.524 215.669 885.918 213.722C886.894 212.315 888.632 212.478 890.107 213.151C892.636 214.249 895.174 214.855 897.918 214.6C902.182 214.235 906.338 214.35 910.446 216.084C913.358 217.327 916.502 217.908 919.561 216.313C920.43 219.473 919.357 222.493 920.64 225.556C922.093 224.355 922.519 222.93 923.137 221.577C924.91 217.755 927.09 217.185 931.127 219.501C931.664 216.76 930.931 213.715 933.509 211.125C933.586 212.956 933.76 214.406 933.637 215.819C933.515 217.232 933.624 219.216 931.014 219.192ZM752.956 196.365C760.317 194.508 767.828 194.295 775.316 195.507C767.814 195.229 760.475 197.729 752.956 196.365ZM866.254 207.326C859.618 206.957 853.093 210.197 845.914 207.693C852.996 206.885 859.563 205.768 866.254 207.326ZM820.839 201.177C817.399 200.559 814.007 201.178 810.564 201.397C807.226 201.579 803.892 202.55 800.004 201.483C807.258 199.268 814.001 199.995 820.839 201.177ZM706.881 190.677C712.813 189.827 718.679 188.279 724.704 189.953C718.82 190.414 712.908 191.513 706.881 190.677ZM908.975 213.737C912.709 213.603 916.494 212.638 920.88 214.159C916.403 216.665 912.649 215.319 908.975 213.737ZM944.592 215.387C949.902 216.332 955.053 217.751 960.155 220.394C954.091 220.686 949.488 217.661 944.592 215.387ZM923.705 211.599C923.952 215.323 923.618 218.878 921.196 221.832C921.289 218.199 920.404 214.347 923.705 211.599ZM759.244 193.835C756.284 194.212 753.324 194.588 750.326 194.862C749.616 194.922 748.386 195.117 748.202 194.158C747.955 192.897 749.259 192.909 750.142 192.672C753.249 191.919 756.173 193.065 759.244 193.835ZM827.531 210.122C825.94 207.12 827.347 204.239 826.981 201.485C826.866 200.782 827.899 199.726 828.933 199.902C830.17 200.053 829.582 201.163 829.549 201.849C829.42 204.542 828.4 207.126 827.531 210.122ZM934.875 215.971C940.977 215.782 942.988 216.176 946.213 218.146C941.828 219.087 938.322 217.772 934.875 215.971ZM893.412 212.423C898.622 212.125 903.889 211.784 909.1 211.486C904.031 213.082 898.826 213.332 893.412 212.423ZM851.578 205.333C847.84 205.91 844.138 207.427 839.551 205.092C844.227 204.236 847.913 204.49 851.578 205.333ZM780.558 197.823C776.678 199.564 772.813 198.303 768.915 197.728C772.77 197.017 776.634 197.047 780.558 197.823ZM899.377 210.887C895.185 211.064 890.988 211.289 886.748 211.459C890.739 208.402 895.051 210.112 899.377 210.887ZM782.754 204.1C781.447 201.231 782.362 198.684 782.677 196.112C782.766 195.384 783.332 194.862 784.155 195.111C784.985 195.311 784.698 196.015 784.688 196.506C784.583 199.005 783.736 201.413 782.754 204.1ZM839.646 199.391C839.283 202.351 839.078 204.443 838.717 206.566C838.585 207.239 837.969 207.755 837.171 207.707C836.676 207.646 836.34 207.112 836.492 206.688C837.316 204.474 836.399 201.702 839.646 199.391ZM736.458 198.582C736.062 198.533 735.721 198.442 735.325 198.394C735.599 196.162 735.822 193.924 736.145 191.698C736.234 190.97 736.074 189.817 737.262 189.963C738.103 190.066 738.491 191 738.285 191.861C737.703 194.154 737.084 196.344 736.458 198.582ZM885.724 205.867C886.69 208.645 885.736 210.695 885.029 212.776C884.809 213.34 884.38 213.977 883.847 213.813C883.216 213.637 882.711 212.837 883.047 212.139C883.885 210.223 884.009 207.972 885.724 205.867ZM734.312 192.311C729.742 193.524 726.656 193.294 721.726 191.706C725.864 190.735 729.592 191.881 734.312 192.311ZM874.093 215.525C874.764 212.505 873.869 209.144 876.397 206.548C876.704 209.787 875.692 212.717 874.093 215.525ZM804.035 198.923C801.257 199.864 798.81 200.155 796.244 200.186C795.694 200.168 794.948 200.52 794.839 199.768C794.718 199.113 795.054 198.415 796.05 198.488C798.555 198.548 801.099 197.874 804.035 198.923ZM825.078 203.075C821.548 204.416 818.024 204.477 814.668 202.342C818.157 202.572 821.596 202.796 825.078 203.075ZM794.156 194.266C793.56 197.493 794.179 200.229 791.538 202.516C790.847 199.131 792.16 197.026 794.156 194.266ZM831.531 206.179C830.703 205.142 830.834 204.074 830.847 203.14C830.812 202.2 830.582 200.793 832.085 200.829C833.841 200.847 833.007 202.321 832.906 203.146C832.738 204.111 833.085 205.384 831.531 206.179ZM926.736 211.872C926.837 213.509 928.304 215.068 926.55 216.676C926.322 216.894 925.734 216.773 925.326 216.821C925.132 215.123 925.081 213.491 926.069 211.987C926.08 211.89 926.272 211.963 926.736 211.872Z" fill="white"/>
<path d="M504.723 167.019C503.759 168.329 502.47 167.777 502.391 166.782C502.147 163.847 500.025 164.769 498.647 164.945C495.026 165.389 491.678 164.831 488.406 163.249C486.366 162.26 484.288 163.237 482.229 163.231C477.851 163.287 473.601 162.717 469.536 161.038C469.152 160.892 468.952 160.474 468.188 159.74C472.28 159.551 475.889 160.436 479.726 158.64C475.899 157.482 472.357 158.92 468.683 157.338C472.506 156.476 476.079 156.421 479.391 157.269C483.044 158.209 486.602 158.694 490.403 158.42C493.846 158.201 497.251 159.111 500.312 160.372C502.555 161.336 502.569 160.402 502.858 158.861C503.135 157.417 503.561 155.992 503.937 154.56C504.464 154.773 504.804 154.864 504.842 154.967C505.06 160.165 508.156 161.135 512.603 160.103C513.634 159.884 514.767 160.072 515.129 160.806C516.523 163.784 518.956 163.195 521.348 162.946C521.447 162.958 521.607 162.879 521.706 162.892C530.946 164.564 540.496 164.108 550.091 167.4C550.281 165.847 550.483 164.197 550.679 162.596C550.756 161.965 550.572 161.007 551.524 161.025C552.377 161.031 552.474 161.88 552.7 162.499C552.738 162.602 552.72 162.747 552.757 162.85C554.29 167.569 554.365 167.775 559.386 166.567C561.819 165.979 562.718 166.433 562.631 168.787C562.569 170.109 562.924 170.497 564.456 170.291C569.825 169.52 575.054 170.307 580.425 171.162C585.203 171.943 590.214 171.227 594.916 173.034C596.501 173.622 596.81 172.33 597.107 171.135C597.539 169.661 596.911 167.811 598.643 166.792C600.499 168.053 599.247 171.298 601.698 171.795C603.66 172.183 605.822 171.758 607.862 171.515C609.141 171.327 610.15 171.697 610.366 172.807C610.847 175.033 611.997 175.075 614.031 174.881C617.634 174.583 621.245 174.631 624.745 175.995C627.527 177.074 630.564 176.067 633.484 176.424C634.177 176.509 634.902 176.745 635.563 176.679C637.695 176.496 639.737 179.11 641.473 177.648C642.71 176.568 642.803 174.166 643.443 172.225C643.858 172.523 644.243 172.668 644.361 172.929C645.112 174.597 644.488 177.229 646.155 177.975C647.729 178.66 650.057 178.108 651.954 177.798C653.134 177.598 654.456 177.464 654.74 178.435C655.577 181.443 657.563 180.405 659.622 180.411C662.281 180.441 664.952 180.374 667.632 181.047C670.604 181.804 673.673 182.18 676.917 181.937C680.774 181.621 684.736 182.5 688.721 184.416C689.012 182.038 689.256 180.049 689.499 178.059C691.039 178.198 690.754 179.296 690.974 179.963C692.522 184.142 693.496 184.803 698.111 184.038C699.804 183.753 701.133 183.571 701.582 185.645C702.043 187.622 703.698 187.234 704.983 186.997C709.969 186.08 714.702 186.808 719.507 188.184C722.659 189.111 726.011 187.995 729.268 188.886C731.162 189.413 733.031 189.74 734.455 191.244C731.42 190.183 728.26 190.141 725.045 190.142C727.876 191.227 730.664 192.258 733.588 193.404C731.721 194.702 730.054 195.188 727.05 194.278C721.236 192.532 715.419 191.623 709.349 191.964C707.328 192.061 705.322 191.619 703.653 190.479C701.426 188.975 700.788 190.079 700.495 192.062C700.19 194.143 699.842 196.169 698.757 198.055C697.361 197.146 697.545 195.641 697.397 194.392C696.945 190.692 695.12 189.188 691.465 190.317C690.002 190.778 689.28 190.936 688.852 189.505C688.519 188.528 687.989 188.759 687.223 188.862C682.113 189.566 677.254 188.627 672.582 186.578C671.913 186.299 671.398 185.989 670.62 186.19C665.908 187.337 661.34 186.482 656.868 184.851C655.041 184.184 654.492 184.561 654.261 186.453C654.011 188.491 653.267 190.469 652.709 192.567C650.792 191.397 651.321 189.541 651.059 187.982C650.511 184.664 648.668 183.306 645.551 184.55C643.966 185.193 643.021 185.521 642.172 183.841C641.566 182.634 640.299 182.725 639.378 182.859C635.381 183.502 631.714 182.265 628.103 180.986C626.418 180.386 624.85 180.884 623.33 180.993C619.479 181.26 615.799 180.958 612.395 179.211C610.412 178.181 610.103 179.473 609.713 180.607C609 182.736 608.479 184.938 607.792 187.267C605.629 186.066 606.131 184.01 606.155 182.585C606.25 179.346 604.302 179.255 602.027 179.371C599.907 179.456 597.778 180.427 595.975 178.335C595.533 177.837 594.173 177.868 593.259 177.953C589.236 178.396 585.337 177.821 581.528 176.517C579.552 175.832 577.376 175.96 575.25 176.094C571.108 176.276 567.22 175.209 563.666 173.051C567.907 172.88 571.754 175.518 576.561 174.826C572.514 173.001 568.578 172.322 564.587 171.686C562.91 171.431 563.918 172.638 563.747 173.208C561.681 174.088 562.847 176.053 562.328 177.418C561.821 178.686 561.457 180.02 561.037 181.397C559.016 180.263 559.414 178.243 559.047 176.721C558.228 173.567 556.571 172.33 553.597 173.64C551.845 174.411 550.691 174.812 549.808 172.586C549.2 170.985 547.473 170.724 545.88 171.021C543.161 171.477 540.552 171.453 537.95 170.544C533.9 169.161 529.839 168.27 525.434 168.962C522.308 169.466 519.117 169.273 516.533 166.986C514.927 169.844 515.24 173.034 513.256 175.697C512.136 174.181 512.066 172.695 511.793 171.233C510.993 167.097 509.015 166.017 504.539 167.292C504.68 164.502 506.125 161.723 504.248 158.588C503.731 160.347 503.213 161.712 502.991 163.113C502.769 164.514 502.185 166.413 504.723 167.019ZM683.031 187.807C676.335 184.23 669.097 182.211 661.538 181.581C668.885 183.121 675.405 187.317 683.031 187.807ZM570.433 171.121C576.963 172.363 582.514 177.081 590.085 176.382C583.407 173.891 577.303 171.223 570.433 171.121ZM615.991 176.105C619.479 176.335 622.621 177.754 625.91 178.797C629.105 179.779 632.106 181.525 636.137 181.428C629.632 177.529 622.912 176.608 615.991 176.105ZM729.117 193.398C723.566 191.143 718.246 188.226 711.996 188.397C717.595 190.264 723.067 192.756 729.117 193.398ZM527.428 167.039C523.836 166.009 520.395 164.159 515.773 164.579C519.512 168.09 523.48 167.689 527.428 167.039ZM492.464 160.051C487.083 159.688 481.742 159.823 476.153 161.158C481.967 162.904 487.164 161.077 492.464 160.051ZM513.648 161.413C512.51 164.967 511.977 168.497 513.615 171.948C514.401 168.4 516.188 164.876 513.648 161.413ZM677.539 183.835C680.321 184.914 683.102 185.994 685.946 186.982C686.621 187.212 687.767 187.697 688.177 186.812C688.721 185.647 687.452 185.344 686.652 184.901C683.819 183.422 680.705 183.829 677.539 183.835ZM607.339 183.173C609.608 180.643 608.937 177.508 609.956 174.924C610.237 174.269 609.489 172.995 608.444 172.916C607.206 172.765 607.509 173.984 607.377 174.657C606.852 177.302 607.218 180.055 607.339 183.173ZM501.753 162.961C495.877 161.306 493.83 161.204 490.225 162.338C494.254 164.309 497.974 163.878 501.753 162.961ZM542.848 169.518C537.863 167.972 532.835 166.371 527.849 164.825C532.383 167.597 537.374 169.094 542.848 169.518ZM585.157 172.726C588.646 174.187 591.873 176.552 596.888 175.393C592.556 173.434 588.917 172.792 585.157 172.726ZM655.892 182.565C659.238 185.191 663.292 184.899 667.214 185.28C663.645 183.662 659.887 182.758 655.892 182.565ZM537.43 166.589C541.455 167.771 545.474 169.002 549.548 170.19C546.412 166.26 541.815 166.879 537.43 166.589ZM652.247 188.127C654.207 185.659 653.934 182.966 654.249 180.394C654.338 179.666 653.914 179.023 653.055 179.066C652.202 179.06 652.31 179.812 652.202 180.291C651.701 182.741 651.942 185.283 652.247 188.127ZM598.17 169.837C597.808 172.797 597.503 174.877 597.341 177.024C597.307 177.71 597.78 178.359 598.566 178.504C599.061 178.565 599.517 178.128 599.471 177.679C599.206 175.332 600.764 172.863 598.17 169.837ZM698.507 193.937C698.903 193.985 699.256 193.979 699.652 194.028C699.925 191.796 700.248 189.57 700.471 187.331C700.56 186.604 700.994 185.524 699.806 185.378C698.965 185.275 698.363 186.088 698.355 186.974C698.367 189.339 698.44 191.614 698.507 193.937ZM551.89 165.01C550.283 167.473 550.714 169.692 550.898 171.882C550.976 172.482 551.239 173.204 551.795 173.174C552.451 173.155 553.134 172.5 552.975 171.742C552.625 169.68 553.046 167.466 551.89 165.01ZM702.103 188.368C706.245 190.648 709.295 191.169 714.463 190.817C710.681 188.876 706.787 189.089 702.103 188.368ZM560.849 177.188C560.926 174.094 562.605 171.049 560.778 167.92C559.699 170.989 559.974 174.076 560.849 177.188ZM632.843 177.971C635.312 179.554 637.616 180.427 640.099 181.075C640.637 181.19 641.277 181.712 641.564 181.008C641.839 180.402 641.681 179.644 640.697 179.474C638.252 178.928 635.945 177.661 632.843 177.971ZM611.419 176.925C614.522 179.078 617.927 179.987 621.699 178.725C618.258 178.107 614.866 177.495 611.419 176.925ZM643.554 175.834C643.354 179.11 642.093 181.615 644.104 184.471C645.591 181.353 644.825 178.994 643.554 175.834ZM604.409 178.382C605.462 177.575 605.593 176.507 605.805 175.598C606.066 174.694 606.628 173.384 605.161 173.056C603.453 172.65 603.906 174.282 603.805 175.107C603.736 176.083 603.092 177.236 604.409 178.382ZM510.641 160.946C510.148 162.511 508.348 163.67 509.663 165.653C509.831 165.92 510.431 165.944 510.815 166.09C511.413 164.488 511.856 162.917 511.261 161.219C511.272 161.122 511.068 161.146 510.641 160.946Z" fill="white"/>
<path d="M38.7545 109.99C37.7903 111.3 36.5015 110.748 36.4223 109.754C36.1787 106.818 34.0564 107.74 32.6784 107.916C29.0574 108.36 25.7095 107.802 22.4368 106.22C20.3976 105.231 18.3188 106.208 16.2598 106.202C11.8825 106.258 7.63181 105.688 3.56724 104.009C3.18315 103.863 2.98319 103.445 2.21897 102.711C6.31124 102.522 9.92045 103.407 13.7573 101.611C9.9303 100.453 6.38844 101.892 2.71389 100.309C6.53689 99.4472 10.1105 99.392 13.4227 100.241C17.0755 101.18 20.6332 101.665 24.4344 101.391C27.8773 101.172 31.2826 102.082 34.3434 103.343C36.5865 104.307 36.6004 103.373 36.8894 101.832C37.1666 100.389 37.5922 98.9632 37.9683 97.5317C38.495 97.7439 38.8355 97.8348 38.8731 97.9379C39.091 103.136 42.1874 104.106 46.6341 103.074C47.6655 102.856 48.798 103.043 49.1603 103.777C50.5541 106.755 52.9873 106.166 55.3789 105.917C55.4779 105.929 55.6383 105.851 55.7373 105.863C64.9771 107.535 74.5277 107.079 84.1219 110.371C84.3119 108.818 84.5138 107.168 84.7098 105.567C84.787 104.936 84.6029 103.978 85.5552 103.996C86.4085 104.002 86.5055 104.851 86.7312 105.47C86.7688 105.573 86.751 105.718 86.7886 105.821C88.3211 110.54 88.3963 110.746 93.4171 109.539C95.8502 108.95 96.7491 109.405 96.662 111.758C96.6007 113.08 96.955 113.468 98.4874 113.262C103.857 112.491 109.085 113.278 114.457 114.133C119.234 114.915 124.245 114.198 128.947 116.005C130.533 116.593 130.842 115.301 131.138 114.106C131.57 112.632 130.942 110.782 132.675 109.763C134.53 111.024 133.279 114.269 135.73 114.766C137.692 115.154 139.854 114.729 141.893 114.486C143.172 114.298 144.181 114.668 144.397 115.778C144.878 118.004 146.029 118.046 148.062 117.852C151.665 117.554 155.276 117.602 158.777 118.966C161.558 120.045 164.595 119.038 167.516 119.395C168.209 119.48 168.933 119.717 169.594 119.65C171.727 119.467 173.768 122.081 175.504 120.619C176.741 119.539 176.835 117.138 177.474 115.197C177.89 115.494 178.274 115.639 178.393 115.9C179.143 117.568 178.519 120.2 180.186 120.946C181.76 121.631 184.089 121.079 185.985 120.769C187.165 120.569 188.488 120.435 188.771 121.406C189.608 124.414 191.594 123.377 193.653 123.382C196.312 123.412 198.983 123.345 201.663 124.018C204.635 124.776 207.704 125.151 210.949 124.908C214.805 124.592 218.767 125.471 222.752 127.387C223.043 125.009 223.287 123.02 223.53 121.03C225.071 121.17 224.786 122.267 225.005 122.935C226.554 127.113 227.528 127.774 232.143 127.009C233.835 126.724 235.164 126.542 235.613 128.616C236.075 130.593 237.73 130.205 239.015 129.968C244 129.052 248.734 129.779 253.539 131.155C256.69 132.082 260.042 130.966 263.299 131.857C265.194 132.384 267.063 132.712 268.486 134.216C265.451 133.155 262.291 133.113 259.076 133.113C261.907 134.198 264.695 135.229 267.619 136.375C265.752 137.673 264.085 138.159 261.082 137.249C255.267 135.503 249.45 134.595 243.38 134.935C241.359 135.033 239.353 134.59 237.684 133.45C235.457 131.946 234.819 133.05 234.526 135.034C234.222 137.114 233.873 139.14 232.788 141.026C231.392 140.117 231.577 138.613 231.428 137.363C230.977 133.663 229.151 132.159 225.497 133.288C224.033 133.749 223.311 133.907 222.883 132.476C222.551 131.499 222.02 131.73 221.254 131.833C216.144 132.538 211.285 131.598 206.613 129.549C205.944 129.27 205.429 128.961 204.651 129.161C199.939 130.308 195.372 129.453 190.899 127.823C189.072 127.156 188.523 127.532 188.292 129.424C188.042 131.462 187.298 133.44 186.74 135.538C184.823 134.368 185.352 132.512 185.091 130.953C184.542 127.636 182.699 126.277 179.583 127.521C177.997 128.164 177.052 128.492 176.203 126.812C175.597 125.605 174.33 125.696 173.41 125.83C169.412 126.473 165.746 125.237 162.135 123.957C160.45 123.357 158.882 123.855 157.361 123.964C153.51 124.232 149.83 123.929 146.427 122.183C144.443 121.152 144.134 122.444 143.744 123.578C143.031 125.707 142.511 127.909 141.824 130.238C139.66 129.038 140.163 126.981 140.186 125.556C140.281 122.317 138.333 122.226 136.058 122.342C133.938 122.427 131.81 123.398 130.006 121.306C129.565 120.808 128.204 120.839 127.29 120.924C123.267 121.367 119.369 120.792 115.559 119.488C113.584 118.803 111.408 118.931 109.281 119.065C105.14 119.247 101.251 118.18 97.6975 116.022C101.938 115.851 105.785 118.489 110.592 117.797C106.545 115.972 102.609 115.293 98.6181 114.657C96.9412 114.402 97.9489 115.609 97.7787 116.179C95.7118 117.059 96.8779 119.024 96.3592 120.389C95.8524 121.657 95.4881 122.991 95.0684 124.368C93.047 123.234 93.4449 121.214 93.0787 119.692C92.259 116.538 90.6019 115.301 87.6282 116.612C85.8761 117.382 84.7219 117.783 83.8388 115.557C83.231 113.956 81.5046 113.695 79.9109 113.993C77.1926 114.448 74.5832 114.424 71.9817 113.515C67.931 112.132 63.8704 111.241 59.4653 111.934C56.3392 112.438 53.1478 112.244 50.5641 109.958C48.9585 112.815 49.2713 116.005 47.2876 118.668C46.167 117.152 46.0977 115.666 45.8245 114.204C45.0246 110.068 43.0467 108.988 38.5704 110.263C38.7109 107.473 40.1561 104.695 38.2792 101.559C37.7625 103.318 37.2438 104.683 37.0221 106.084C36.8004 107.485 36.2164 109.384 38.7545 109.99ZM217.062 130.778C210.367 127.201 203.129 125.182 195.57 124.553C202.917 126.092 209.436 130.288 217.062 130.778ZM104.464 114.092C110.994 115.334 116.545 120.052 124.116 119.354C117.438 116.862 111.334 114.194 104.464 114.092ZM150.022 119.077C153.51 119.307 156.652 120.725 159.941 121.768C163.136 122.75 166.138 124.497 170.169 124.399C163.663 120.5 156.943 119.579 150.022 119.077ZM263.149 136.37C257.597 134.114 252.277 131.198 246.027 131.368C251.626 133.236 257.098 135.728 263.149 136.37ZM61.459 110.011C57.8676 108.98 54.4266 107.131 49.8038 107.55C53.5437 111.061 57.5112 110.66 61.459 110.011ZM26.4954 103.023C21.1143 102.66 15.7728 102.794 10.1838 104.129C15.9985 105.875 21.1955 104.049 26.4954 103.023ZM47.6794 104.384C46.5411 107.939 46.0085 111.469 47.6459 114.92C48.4318 111.371 50.2196 107.847 47.6794 104.384ZM211.57 126.806C214.352 127.886 217.134 128.965 219.977 129.953C220.652 130.183 221.798 130.669 222.208 129.783C222.752 128.618 221.483 128.315 220.684 127.873C217.85 126.393 214.736 126.8 211.57 126.806ZM141.37 126.144C143.639 123.615 142.968 120.479 143.987 117.895C144.269 117.24 143.52 115.966 142.475 115.887C141.238 115.736 141.54 116.955 141.408 117.628C140.883 120.273 141.249 123.027 141.37 126.144ZM35.7847 105.933C29.9086 104.278 27.8615 104.175 24.2563 105.31C28.2852 107.28 32.0053 106.849 35.7847 105.933ZM76.8797 112.489C71.8946 110.943 66.8658 109.343 61.8806 107.797C66.4144 110.568 71.4056 112.065 76.8797 112.489ZM119.188 115.697C122.677 117.158 125.904 119.523 130.919 118.364C126.587 116.405 122.948 115.763 119.188 115.697ZM189.923 125.536C193.269 128.162 197.324 127.87 201.246 128.252C197.676 126.633 193.918 125.73 189.923 125.536ZM71.461 109.56C75.4859 110.742 79.505 111.973 83.5794 113.161C80.4434 109.231 75.8463 109.851 71.461 109.56ZM186.278 131.099C188.238 128.63 187.965 125.937 188.28 123.365C188.369 122.637 187.945 121.994 187.086 122.037C186.233 122.031 186.342 122.783 186.233 123.262C185.732 125.713 185.973 128.254 186.278 131.099ZM132.202 112.808C131.839 115.768 131.534 117.848 131.372 119.995C131.339 120.681 131.812 121.33 132.598 121.475C133.093 121.536 133.548 121.099 133.502 120.65C133.237 118.303 134.795 115.834 132.202 112.808ZM232.539 136.908C232.935 136.957 233.287 136.95 233.683 136.999C233.956 134.767 234.279 132.541 234.503 130.303C234.592 129.575 235.025 128.495 233.837 128.35C232.996 128.247 232.394 129.06 232.386 129.945C232.398 132.311 232.471 134.585 232.539 136.908ZM85.9215 107.981C84.3139 110.444 84.7455 112.664 84.9297 114.853C85.0069 115.454 85.2702 116.175 85.8266 116.145C86.4819 116.127 87.1649 115.471 87.0065 114.713C86.6561 112.651 87.0777 110.437 85.9215 107.981ZM236.134 131.34C240.276 133.619 243.327 134.141 248.494 133.788C244.713 131.848 240.818 132.061 236.134 131.34ZM94.8803 120.159C94.9575 117.065 96.6363 114.02 94.8089 110.891C93.7299 113.96 94.0052 117.047 94.8803 120.159ZM166.874 120.942C169.343 122.525 171.647 123.398 174.13 124.046C174.669 124.162 175.308 124.683 175.595 123.98C175.87 123.373 175.712 122.615 174.728 122.445C172.283 121.9 169.977 120.632 166.874 120.942ZM145.451 119.896C148.553 122.049 151.958 122.958 155.73 121.696C152.289 121.078 148.897 120.466 145.451 119.896ZM177.585 118.805C177.385 122.081 176.124 124.586 178.135 127.442C179.622 124.325 178.856 121.965 177.585 118.805ZM138.44 121.353C139.493 120.546 139.624 119.479 139.836 118.569C140.097 117.665 140.659 116.355 139.192 116.027C137.484 115.621 137.937 117.253 137.836 118.078C137.767 119.054 137.124 120.207 138.44 121.353ZM44.6721 103.917C44.1791 105.482 42.3795 106.641 43.6941 108.624C43.8624 108.891 44.4623 108.915 44.8464 109.061C45.4442 107.46 45.8877 105.889 45.2918 104.19C45.3036 104.093 45.0997 104.118 44.6721 103.917Z" fill="white"/>
</svg>
