<svg width="174" height="576" viewBox="0 0 174 576" fill="none" xmlns="http://www.w3.org/2000/svg">
<path d="M150.439 333.365C153.181 332.223 153.683 335.451 151.335 337.271C147.273 340.421 143.401 343.406 139.471 346.391C138.494 347.151 137.517 348.019 136.431 348.67C131.761 351.818 129.372 355.183 131.218 361.587C132.739 367.015 131.761 372.985 130.458 378.738C128.612 386.77 130.35 390.135 137.625 393.934C145.444 398.059 153.262 402.184 160.972 406.417C162.058 407.068 163.904 407.72 163.252 409.565C162.709 410.976 161.081 410.542 159.886 410.433C152.611 410.108 145.552 408.805 138.494 407.503C134.259 406.634 132.087 407.503 132.522 412.387C132.739 416.186 132.413 419.986 131.87 423.785C130.133 434.748 134.368 445.168 134.911 455.914C135.128 461.993 137.951 464.381 142.946 466.335C152.176 470.026 161.189 474.042 170.311 477.949C172.048 478.709 174.546 479.361 173.894 481.966C173.243 484.462 170.854 483.377 169.225 483.16C159.235 482.074 149.136 480.88 139.145 479.361C136.322 478.926 135.128 479.361 134.802 482.291C133.825 489.347 131.436 495.968 128.069 502.155C126.766 504.543 127.526 506.172 128.612 508.125C134.802 519.306 140.449 530.812 145.335 542.643C145.878 544.054 147.833 546.117 145.769 547.311C143.815 548.396 142.838 545.791 141.752 544.597C138.176 540.521 134.601 536.446 130.941 532.223C127.098 527.789 119.771 528.971 115.039 532.44V532.44C112.758 534.068 113.518 536.782 113.953 538.953C115.256 545.14 114.278 550.459 108.197 553.715C106.351 554.692 106.677 556.429 106.677 557.948C106.677 562.616 106.786 567.392 106.677 572.059C106.677 573.579 106.569 575.641 104.505 575.967C102.442 576.293 102.659 574.122 102.225 572.928C100.053 567.935 97.9901 563.05 95.8183 558.057V558.057C95.6716 557.764 95.4569 557.522 95.1869 557.336C90.319 553.974 85.2798 550.872 81.2673 546.334C80.29 545.357 78.0096 547.094 77.1409 548.939C73.666 556.103 67.1507 557.189 60.3095 556.754V556.754C53.3158 556.298 47.5826 551.612 42.125 556.009C38.6946 558.773 35.251 561.522 31.7505 564.244C28.6014 566.632 25.2351 568.694 21.7602 570.648C20.6744 571.3 19.1541 572.494 17.7424 571.191C15.8964 569.671 17.5253 568.043 18.1768 566.849C21.7603 559.468 27.0811 553.281 32.1848 546.985C36.9628 541.124 41.9579 535.371 46.953 529.618C48.0389 528.424 49.5591 527.338 49.2334 525.493C47.1702 515.29 53.6856 508.017 58.3549 500.31C59.7666 498.031 59.7666 496.837 58.8979 494.883C54.5543 485.005 50.1021 475.127 45.8671 465.141C40.3291 451.898 39.1345 437.896 40.329 423.676C41.0891 415.427 41.6321 407.068 42.1751 398.819C42.2836 397.625 43.1524 396.214 41.5235 395.454C40.4376 394.911 39.5689 396.105 38.7002 396.648C28.4928 402.075 18.394 407.611 7.6436 411.845V411.845C5.96259 412.405 4.39614 410.824 5.53524 409.467C6.09161 408.804 6.73709 408.24 7.31785 407.611C17.6339 396.322 28.9271 386.228 40.872 376.784C45.2155 373.419 46.41 368.752 44.1297 363.758C39.8947 354.749 40.6548 345.414 42.3922 336.079C44.4554 325.007 45.65 313.935 46.0843 302.755C46.1929 299.716 49.6677 296.568 47.0616 294.071C44.9984 292.009 41.6321 291.466 38.8088 290.164C26.1038 284.194 14.2675 276.378 1.23679 271.168V271.168C-0.647076 270.361 1.71519 268.112 3.74663 268.384C15.7677 269.988 27.5948 272.282 39.3364 275.319C42.1846 276.056 44.4932 273.97 42.6094 271.711V271.711C32.5106 258.251 31.4247 242.729 32.6192 226.772C33.9223 209.839 36.8542 193.123 41.0892 176.732C41.9579 173.367 41.8493 170.437 40.329 167.397C36.1426 159.508 32.8237 151.445 32.0719 142.771C31.4814 135.957 24.9114 129.613 18.394 131.686V131.686C17.3081 132.011 16.005 133.205 15.0277 131.686C14.2675 130.383 15.2449 129.298 16.005 128.212C18.9369 124.413 22.9547 121.699 27.1897 119.854C34.1394 116.706 35.9855 111.279 36.637 104.332C38.8088 80.9943 42.6094 57.8739 52.9254 36.3817C54.2285 33.5595 54.0113 31.497 51.9481 29.0004C46.3014 22.162 40.872 15.2151 35.4425 8.26809C34.7969 7.41893 34.13 6.5804 33.4884 5.72257C31.0072 2.40489 33.114 -1.02536 36.5284 1.32108V1.32108C42.8266 5.44585 49.0162 9.89632 55.3144 14.1296C60.9611 17.9288 66.0648 22.2705 73.5574 22.7047C79.2041 23.0303 83.8734 26.8296 87.7826 30.9543V30.9543C90.3751 33.7078 94.9852 32.7515 96.1181 29.1434C96.9135 26.6099 97.6689 24.2097 98.4244 21.8364C99.9446 17.0603 101.356 12.1757 102.877 7.39966C103.42 5.66292 104.288 3.70905 106.351 3.70905C108.74 3.70905 108.74 6.20568 108.958 7.83388C110.152 15.4321 108.523 23.0304 107.763 30.5201C107.003 37.4671 106.46 43.5457 112.758 48.9731C119.165 54.5089 119.708 62.4328 117.753 70.4652C117.428 71.8763 116.559 73.6131 117.102 74.59C120.577 81.9712 119.056 89.4609 118.079 96.9506C116.776 106.394 123.617 114.752 133.282 115.187C141.643 115.512 149.896 115.295 158.257 115.404C159.669 115.404 161.189 115.295 162.601 115.404C164.555 115.512 166.727 115.512 166.944 118.334C167.162 120.831 165.207 121.265 163.47 121.699C154.891 123.979 146.421 126.258 137.842 128.321C133.933 129.298 132.087 130.383 133.282 135.159C136.214 146.774 135.779 158.822 136.431 170.762C136.757 177.275 136.431 183.788 137.517 190.192C139.363 200.613 133.716 208.537 128.938 216.786C124.269 224.927 124.16 224.927 131.544 231.223C136.974 235.782 142.295 240.341 147.616 245.008C149.353 246.528 151.09 248.156 152.068 250.327C152.502 251.195 153.914 251.847 152.828 253.041C151.85 254.126 150.765 253.366 149.896 253.041C146.095 251.413 142.403 249.567 138.603 247.939C135.779 246.637 132.956 245.551 130.133 244.249C126.766 242.729 125.137 243.923 125.572 247.396C129.155 272.471 123.291 297.111 122.857 322.076C122.748 328.155 125.355 333.148 126.875 338.576C127.635 341.072 129.807 339.987 131.436 339.552C137.734 337.599 144.141 335.428 150.439 333.365V333.365ZM119.948 512.099C119.936 511.771 119.975 511.438 120.066 511.122C121.672 505.534 121.793 500.058 118.731 494.991C113.301 485.873 110.478 475.67 102.551 467.637C93.9723 458.737 91.6919 445.711 85.9366 434.748C83.2219 429.429 84.1992 423.242 81.0501 417.923C80.0728 416.295 79.3127 415.101 77.4666 415.861C75.2949 416.729 76.7066 418.249 77.0323 419.551C77.6839 422.374 78.6611 425.087 79.4212 427.801C80.9415 433.011 83.3305 437.896 84.0907 443.214C84.3078 444.626 84.1992 447.231 82.3532 445.82C76.8151 441.478 74.1004 447.448 70.1911 448.533C69.1052 448.859 68.0193 449.944 69.1052 451.464C70.1911 453.092 70.7341 452.441 71.9286 451.464C73.3403 450.27 75.512 450.053 77.2495 449.402C84.4164 446.471 86.5882 447.448 89.7373 454.938C92.9949 462.536 95.9269 470.243 99.076 477.949C104.288 490.324 110.152 502.59 108.632 516.592C108.306 519.306 107.655 520.5 105.048 521.585C97.7729 524.407 90.3888 526.47 82.8961 528.641C80.29 529.401 78.5526 531.029 79.3127 533.742C79.9642 536.348 82.2446 536.239 84.525 535.696C95.7007 532.84 106.876 529.985 113.725 521.043C114.932 519.468 117.123 520.339 116.21 522.1V522.1C115.23 523.991 116.482 525.43 117.508 523.563C119.247 520.397 120.114 516.615 119.948 512.099ZM105.179 171.648C105.368 172.153 104.893 172.708 104.361 172.62V172.62C103.97 172.555 103.606 172.836 103.559 173.229C103.018 177.761 101.43 182.278 104.831 186.502C107.763 190.192 108.415 194.751 109.066 199.093C109.087 199.276 109.106 199.46 109.122 199.645C109.482 203.737 112.268 204.174 112.432 200.07V200.07C112.75 194.523 111.967 189.15 110.55 183.866C110.037 181.953 111.358 180.743 112.327 182.471V182.471C113.328 184.255 115.006 183.663 114.174 181.794C111.086 174.865 106.916 169.004 102.877 162.947C96.3612 153.286 87.1311 145.797 81.0501 135.81C78.5525 131.686 76.7065 127.018 73.1231 123.653C68.3451 119.094 66.7163 113.45 66.3905 107.154V107.154C66.2655 104.78 65.154 104.63 64.9445 106.998C64.8984 107.519 64.787 108.013 64.5562 108.475C64.0853 109.419 62.6372 109.547 62.3889 108.522C62.2634 108.003 62.3181 107.429 62.3727 106.937C63.4586 100.967 63.7844 95.3225 62.2641 89.2438C61.8369 87.3647 62.1997 85.4015 62.6052 83.4072C63.495 79.0314 64.9034 70.9778 66.0647 66.6661V66.6661V66.6661C66.3734 65.7403 64.6573 65.5926 63.8441 66.1321C62.1181 67.277 61.9441 69.6362 60.961 71.3336C60.5267 72.0935 60.5267 73.0704 60.3095 73.9388C56.5089 83.3823 54.9886 93.3686 54.4456 103.355C54.2285 107.48 52.7082 109.868 49.0162 111.604C41.9579 115.078 35.1167 118.877 28.8185 123.87C35.5511 119.854 43.0438 119.854 50.3193 118.334C55.6401 117.249 58.1377 119.42 60.2009 123.762C68.8233 141.63 81.9258 156.344 94.8743 171.351C95.4941 172.07 96.4433 171.847 97.0128 171.088V171.088C98.2072 169.46 97.5557 166.095 100.053 165.986C101.94 165.986 103.22 168.414 104.283 170.242C104.358 170.371 104.458 170.484 104.561 170.592C104.858 170.904 105.038 171.272 105.179 171.648ZM82.03 310.841C83.4487 313.802 87.4153 318.344 89.7372 320.665V320.665C94.4066 325.116 97.6643 330.543 100.705 336.187C97.0128 330.76 90.063 328.481 87.4569 322.511C86.7415 320.902 85.3782 319.964 83.883 319.182C79.6784 316.982 73.9591 307.423 69.2139 307.423V307.423C67.6936 307.423 69.6482 304.275 67.3678 305.577C66.0648 306.337 66.1733 307.857 66.6077 308.942C67.0421 310.028 68.0194 311.005 68.8881 311.982C75.1863 319.58 81.3759 327.504 87.9998 334.885C113.193 362.89 122.857 395.237 115.473 432.468C113.518 442.346 113.844 452.55 111.021 462.319C110.586 463.73 110.695 465.358 112.758 465.467C114.604 465.575 115.582 464.707 115.147 462.861C114.279 459.388 116.885 456.891 117.645 453.852C118.079 452.115 120.577 450.053 120.142 449.076C117.862 444.409 120.794 440.392 120.902 436.159C121.067 431.886 121.356 427.551 122.617 423.39C123.021 422.055 128.058 421.526 126.875 422.265V422.265C122.857 424.979 127.092 428.344 125.355 431.491V431.491C123.642 434.645 128.356 433.924 128.613 430.344C128.831 427.312 128.997 424.354 129.047 421.397C129.481 402.618 126.875 384.382 120.36 366.689C119.385 363.928 117.255 360.864 118.835 358.314C119.801 356.754 119.872 355.496 118.098 355.03V355.03C117.023 354.748 117.34 353.367 118.244 352.722C121.245 350.582 124.771 349.305 128.355 347.901C132.597 346.238 130.807 342.816 126.549 344.437V344.437C116.233 348.345 115.69 348.236 108.197 340.638C106.46 338.793 105.157 336.73 103.528 334.776C98.2845 328.61 94.4037 321.178 88.0145 315.983C87.3168 315.415 86.8181 314.642 86.521 313.794C85.4531 310.743 83.4264 308.404 81.1476 306.257C80.1648 305.331 78.5463 306.52 79.6384 307.314V307.314C80.771 308.195 81.4013 309.529 82.03 310.841ZM56.489 318.57C56.5979 319.414 57.9953 319.594 58.252 318.783C61.3652 308.946 65.4723 299.56 70.8427 290.489C82.0274 271.602 95.8183 254.669 109.718 237.844C112.432 234.588 114.821 233.72 118.839 236.108C123.804 239.031 129.025 241.529 134.635 243.841C137.422 244.989 138.819 242.593 135.996 241.535V241.535C129.915 239.255 123.834 236.108 118.839 231.874C114.821 228.509 112.65 228.835 110.478 232.525C104.18 242.837 95.1667 250.761 87.4569 259.771C84.0802 263.642 81.1577 267.877 77.9417 272.226C77.5499 272.756 76.5169 272.631 76.3871 271.986V271.986C76.3694 271.898 76.3948 271.884 76.4249 271.8C76.6411 271.192 76.9522 270.59 77.3581 270.083C84.3078 259.445 94.9495 251.413 99.5103 239.147C99.9447 238.061 102.551 238.387 101.465 236.867C99.076 233.611 102.008 232.091 103.42 230.246C108.089 224.059 112.758 217.98 117.428 211.793V211.793C120.225 208.145 123.416 212.019 121.22 216.057C120.544 217.3 119.817 218.495 118.948 219.608C118.188 220.585 116.016 222.973 117.971 224.276C120.359 225.796 120.577 222.539 121.337 221.345C124.595 215.701 127.635 209.948 130.567 204.195C132.087 201.155 135.019 197.573 128.612 196.271C126.983 195.945 128.178 194.534 128.069 193.557C127.201 183.245 125.789 172.933 126.332 162.513C126.441 160.559 126.549 159.148 125.68 157.303C123.834 153.286 126.441 148.945 125.463 144.603C125.029 142.866 128.069 144.168 129.264 143.083C130.35 142.106 130.567 140.912 129.807 140.369C126.657 137.728 129.497 132.711 126.138 130.299C125.75 130.02 125.598 129.476 125.723 129.015C126.163 127.404 125.545 125.183 126.29 123.677C126.466 123.32 126.134 121.704 125.737 121.669V121.669C125.373 121.637 125.345 121.194 125.707 121.147C132.811 120.228 139.845 123.11 146.81 121.76C148.8 121.374 149.506 118.918 147.478 118.916C147.146 118.916 146.792 118.942 146.421 118.986C140.992 119.745 135.562 118.551 130.241 118.334C127.092 118.226 123.617 117.9 120.685 116.706C113.627 113.775 110.044 106.503 104.18 101.944C101.682 100.098 100.922 96.1908 97.7729 94.3455C96.9042 93.8027 96.687 91.5233 95.0582 92.7173C93.8637 93.5857 94.6238 94.9969 95.3839 96.0823C98.3158 100.858 101.248 105.526 104.288 110.302C109.392 118.334 116.233 125.933 117.319 135.485C118.839 149.596 121.663 163.598 121.988 177.926C122.423 197.899 114.061 213.421 100.596 226.99C90.063 237.627 79.0955 247.831 71.0599 260.748C66.8249 267.586 62.0469 273.99 58.2463 281.154C56.0745 285.171 53.1426 287.559 47.8217 284.953V284.953C43.676 282.881 41.8949 288.241 46.1561 290.064C47 290.425 47.8452 290.783 48.6904 291.141C50.4279 291.9 52.3825 292.118 51.5138 295.157C48.0389 308.074 46.6272 321.317 44.8898 334.559C43.9963 341.705 42.5922 348.901 43.8984 355.903C44.9257 361.41 53.9656 362.433 52.4911 357.028V357.028C51.3359 352.923 50.8255 348.893 50.8926 344.827C50.9123 343.638 52.1893 343.694 52.2375 344.882C52.2468 345.111 52.2556 345.339 52.2639 345.567C52.2696 345.724 52.3972 345.848 52.5539 345.848V345.848C52.7028 345.848 52.8286 345.736 52.8441 345.588C53.7968 336.471 54.6478 327.456 55.5996 318.34C55.6226 318.119 55.8093 317.952 56.031 317.952V317.952C56.2441 317.952 56.4253 318.107 56.4549 318.318C56.4668 318.402 56.4781 318.486 56.489 318.57ZM56.8301 170.365C56.0897 171.639 54.8245 171.457 55.423 170.111V170.111C58.6807 163.056 62.1555 156.109 67.6936 150.464C69.431 148.727 70.4084 146.991 68.3452 144.928C66.3905 142.974 64.3273 144.386 63.1328 145.688C55.9659 153.503 48.3646 160.885 45.7585 171.956C43.9125 179.663 43.3695 187.696 41.0892 195.294C35.2253 214.507 35.4425 234.154 37.3971 253.801C37.561 255.275 37.615 256.969 38.098 258.564C38.732 260.659 40.6709 259.537 40.012 257.45V257.45C39.2046 254.892 40.9145 254.624 41.7692 257.166C43.5389 262.43 45.3901 267.635 48.3025 272.396C50.8979 276.639 55.9044 274.864 53.3102 270.62C52.2918 268.954 51.2082 267.341 50.7536 265.524C50.6384 265.084 50.5182 264.632 50.3959 264.173C49.0463 259.101 52.1652 258.271 54.1431 263.132C54.7008 264.503 55.2607 265.885 55.8671 267.258C57.2215 270.326 59.7317 269.864 58.5721 266.718V266.718C55.2058 257.708 48.5818 250.11 48.4732 239.689C48.3646 232.417 48.6905 225.253 49.342 218.089C51.6224 195.837 53.2512 173.259 69.974 155.674V155.674C72.1429 153.351 69.3206 152.62 67.4645 155.2C63.8607 160.209 59.97 164.963 56.8301 170.365ZM68.052 370.347C65.7768 371.961 63.3333 370.067 65.4265 368.222C67.433 366.454 69.9066 365.393 71.6029 363.758C77.3581 358.114 83.4391 352.252 90.8231 348.345C93.6465 346.825 91.149 345.414 90.606 344.003C90.0631 342.592 89.4115 341.723 87.5655 343.243C78.5525 350.516 68.2365 355.726 58.2463 361.479C52.2739 364.952 47.2788 369.077 45.3242 376.024C44.7812 377.978 43.3695 379.281 41.6321 380.475C34.0116 385.874 27.4194 392.387 20.6376 398.797C19.3425 400.021 20.0656 402.684 21.3259 401.424V401.424C25.6694 397.191 31.7505 395.345 35.7683 390.678C37.9401 388.29 40.872 388.724 43.3696 389.267C46.0843 389.918 45.2156 392.415 44.8898 394.586C44.2383 399.579 44.0211 404.68 43.4781 409.674C40.7634 432.577 43.6953 454.612 52.8168 475.778C56.5543 484.371 60.533 492.884 65.583 500.97C66.8133 502.94 69.2878 502.695 68.4537 500.527V500.527C66.6077 495.751 62.6985 491.952 62.6985 486.416C62.6985 481.966 62.4813 477.298 56.8346 475.778C56.4003 475.67 56.1831 474.584 55.7487 474.042C52.8168 470.677 56.8347 463.513 49.4506 462.644C49.342 462.644 49.342 461.342 49.342 460.582C49.6678 453.201 49.7763 445.82 50.8622 438.33C52.4911 426.498 52.4911 414.341 52.4911 402.184C52.4911 394.26 54.0113 386.119 60.3095 380.04C64.0475 376.304 67.7855 372.567 71.4202 368.831C71.5296 368.718 71.5549 368.546 71.4463 368.433V368.433C71.2882 368.268 71.0003 368.223 70.8158 368.358C69.8906 369.032 68.9836 369.686 68.052 370.347ZM86.936 496.904C87.1397 496.582 86.7488 496.133 86.4796 496.402V496.402C85.2851 497.379 84.1992 498.248 82.7876 496.945C80.7244 495.1 83.5477 494.666 83.982 493.797C85.828 489.238 88.5428 485.331 93.5379 483.594C96.2526 482.617 96.0354 480.337 94.6238 478.275C92.9949 475.779 91.909 478.275 90.8231 479.035C88.217 480.663 85.8281 482.617 83.3305 484.354C76.7066 488.696 73.4489 494.774 72.7973 502.807C72.0372 513.336 68.4538 523.213 63.4586 532.44C62.9157 533.525 62.5899 535.262 61.0697 534.828C59.1151 534.285 59.4408 532.331 60.0923 531.137C61.504 528.532 60.7439 525.927 59.3322 524.082C57.8119 521.911 58.5721 520.608 59.7666 519.197C60.2009 518.763 61.2868 518.112 60.6353 517.786C54.5543 515.398 60.4181 513.227 60.5267 510.839V510.839C60.9016 505.968 58.7243 505.98 56.3664 510.259C54.2498 514.1 52.6907 518.058 52.8168 522.345C53.034 528.207 50.9708 531.789 47.496 535.588C45.1917 538.083 42.8875 540.557 40.7052 543.132C38.9692 545.18 41.1156 547.118 43.1838 545.406C43.7921 544.902 44.4054 544.395 45.0245 543.882C46.27 542.852 47.3959 543.733 46.3012 544.923C45.7901 545.478 45.2819 546.027 44.8383 546.64C44.3879 547.262 45.0714 547.871 45.7585 547.528V547.528C48.2561 545.9 49.8849 541.666 52.8168 542.209C55.9659 542.752 55.0973 547.419 56.9433 549.807C58.0292 551.218 58.5721 554.475 60.7439 552.955C62.2642 551.87 67.6936 552.63 64.9789 547.745C64.5445 546.985 64.4359 546.659 65.5218 546.334C70.0826 545.14 70.0826 540.798 71.7114 537.433C72.4715 535.696 71.3856 534.502 71.82 532.874C73.0145 528.098 75.8378 523.43 74.9691 518.112C74.6433 516.375 75.512 514.964 76.7065 514.638V514.638C79.2158 513.895 79.3443 515.427 79.8425 512.858C80.9492 507.15 83.6696 502.06 86.936 496.904ZM42.7069 88.6364C40.5138 99.1779 51.2812 106.172 50.5364 95.431V95.431C50.5364 94.8882 50.1021 94.237 50.3193 93.9114C53.4684 88.8097 52.1653 82.7311 53.9027 77.1952C55.4229 72.0935 56.1831 66.7747 56.5089 61.4559C57.0518 54.4004 62.2641 48.7559 62.2641 41.5918C62.2641 40.1807 63.4586 41.7004 63.6758 41.1576C64.5445 39.3123 67.0421 39.0953 67.8022 36.7072C68.3452 35.079 71.2771 32.691 71.6028 32.9081C74.209 34.7534 77.1409 33.0166 79.6384 33.9936C81.0501 34.5363 81.593 34.8619 82.5704 33.4508C83.7648 31.7141 82.3532 31.2799 81.4845 30.6286C76.9237 26.8295 71.82 25.2013 65.8475 26.721V26.721C63.0888 27.2725 59.9726 24.9918 58.2566 22.7624C57.9223 22.328 57.5768 21.9499 57.1604 21.7279C52.9254 19.4484 48.3647 17.8201 45.8671 13.4783C45.107 12.1757 44.1297 11.9586 43.3696 12.2843C41.3064 13.2612 43.1524 14.3466 43.6953 15.1065C46.6272 19.0141 49.4505 22.9218 52.8168 26.5038C56.8346 30.7371 59.4408 34.7534 54.4456 40.0722C53.1426 41.3747 52.8168 43.6542 52.1653 45.4995C48.0389 58.1994 46.41 71.4422 43.5867 84.4678C43.2889 85.8569 42.9961 87.2461 42.7069 88.6364ZM52.1653 231.548C51.7309 239.364 52.9254 246.202 56.0745 252.715C57.4862 255.646 58.7893 256.84 62.1555 255.103C65.9562 253.149 69.6482 251.087 73.8832 249.784C77.901 248.699 80.0728 242.512 79.3127 238.496C76.9237 225.253 66.6077 219.174 56.5089 212.77C53.577 210.925 53.577 213.313 53.4684 215.049C53.2512 220.694 51.7309 226.338 52.1653 231.548ZM57.5941 437.172C58.2768 444.095 66.9391 447.621 67.8022 440.718V440.718C68.128 437.896 68.9967 434.639 70.9513 432.794C74.5347 429.321 73.3403 425.63 72.7973 421.939C72.0372 417.272 70.9513 412.713 72.3629 408.045C72.6887 407.068 72.363 406.309 71.7114 405.657C68.5623 402.184 65.5218 398.602 62.3727 395.02C61.7212 394.26 60.9611 393.066 59.7666 393.5C58.3549 393.934 59.0064 395.345 58.7892 396.322C55.8011 409.804 56.2366 423.406 57.5941 437.172ZM83.2801 108.765C83.5637 107.968 84.5824 108.278 84.4164 109.108V109.108C84.0906 110.628 82.7875 112.581 85.0679 113.233C87.0225 113.884 88.76 111.604 88.9772 110.41C90.2802 104.332 92.1263 98.2533 91.149 91.7405C89.9545 83.8166 89.6287 75.8926 87.1311 68.0772C86.0856 64.7328 86.5501 64.5079 83.8719 64.9802C83.657 65.0181 83.3836 65.0868 83.1654 65.0825V65.0825C82.7063 65.0735 82.5052 64.7044 82.3484 64.2728C81.112 60.8702 78.9477 58.87 74.8605 59.1765V59.1765C73.4726 59.1765 74.6977 57.0583 74.4934 55.6856C74.3104 54.4565 71.8401 54.5251 71.277 53.6405C70.2997 52.1208 68.2366 51.4697 66.7163 53.2064C65.0875 54.9432 67.0421 56.2457 68.128 57.1141C75.8378 63.5183 79.2041 71.6593 79.2041 81.7541C79.0955 94.1284 81.5931 106.611 75.7292 118.443C75.2623 119.423 75.3977 120.183 75.8246 120.859C76.748 122.323 79.1249 121.733 79.7176 120.107C81.0951 116.329 81.9542 112.491 83.2801 108.765ZM117.078 246.701C116.618 245.008 114.146 245.243 114.013 246.992C113.678 251.397 113.359 255.801 113.084 260.205C112.541 268.889 113.193 277.681 111.564 286.148C111.179 288.098 111.177 290.11 111.282 292.14C111.873 303.477 108.857 316.594 102.985 326.31V326.31C102.225 327.612 102.116 328.589 103.311 329.675C104.397 330.652 105.157 330.109 106.134 329.24C108.415 327.287 110.912 325.55 112.975 323.379C114.604 321.751 116.342 319.906 116.016 317.409C114.278 303.406 115.907 289.621 117.102 275.618C117.385 282.61 117.504 289.52 118.676 297.349C118.765 297.939 119.708 297.924 119.708 297.328V297.328C119.925 292.66 119.599 288.101 118.839 283.434C117.862 276.921 121.771 270.842 121.445 264.221C121.131 256.777 121.323 249.232 121.336 241.781C121.337 241.345 121.025 240.992 120.59 240.992V240.992C120.225 240.992 119.863 241.243 119.795 241.601C119.474 243.284 119.45 245.019 119.415 246.753C119.378 248.539 117.547 248.425 117.078 246.701V246.701ZM79.5041 329.744C72.6931 321.737 60.5001 324.17 60.9215 334.674V334.674C61.313 344.431 72.6017 349.295 80.5617 343.639C81.7894 342.767 83.0019 341.876 84.1992 340.964C85.9366 339.552 86.914 338.358 84.9593 336.079C83.1292 333.984 81.3152 331.873 79.5041 329.744ZM72.5706 193.976C70.8838 191.019 69.8816 191.296 70.899 194.544V194.544C71.6701 197.007 68.436 197.497 66.6869 195.6C64.1093 192.804 61.3732 190.331 59.7666 186.827C59.0064 185.091 57.4862 186.502 56.8346 187.479C55.5316 189.541 55.0972 191.603 56.9433 193.883C59.5494 197.031 62.047 200.396 64.3273 203.869C68.8881 210.708 74.6434 215.701 83.0047 217.437C86.5882 218.197 89.4115 218.849 90.3888 213.747C91.6919 206.691 93.2121 199.527 95.8183 192.906V192.906C97.5089 188.681 94.395 187.659 93.0065 191.993C92.8968 192.335 92.7849 192.676 92.6692 193.014C90.606 198.767 88.9772 204.629 87.1311 210.49C85.9366 214.398 84.0906 213.964 82.136 211.033C81.1587 209.513 80.3986 207.885 79.5299 206.366C77.2498 202.239 74.9698 198.181 72.5706 193.976ZM98.9673 151.658C106.034 159.257 116.258 153.908 114.41 143.697V143.697C112.939 135.569 105.229 137.336 101.196 144.545C100.598 145.613 99.9997 146.682 99.4017 147.751C98.7502 148.945 97.6643 150.139 98.9673 151.658V151.658ZM69.8334 389.974C67.9452 388.564 65.944 390.542 67.3031 392.467C79.6573 409.969 96.2826 423.424 111.564 438.221C110.044 436.268 111.672 433.554 108.306 431.491C104.18 428.886 101.248 423.785 99.1846 419.009C98.6416 417.706 95.9269 417.923 97.0128 415.644V415.644C98.1703 413.435 98.3739 415.755 96.7496 413.862C91.6665 407.94 86.5945 401.964 81.597 396.061C81.4195 395.851 81.1006 395.838 80.9063 396.032V396.032C80.7399 396.198 80.7222 396.462 80.8652 396.649C80.9344 396.739 81.0036 396.829 81.0728 396.92C81.699 397.734 80.6735 398.747 79.8849 398.088C76.5454 395.297 73.2586 392.532 69.8334 389.974ZM114.523 401.691C114.02 392.974 103.731 392.695 98.8382 399.926C98.3214 400.69 97.7862 401.442 97.23 402.184C96.4698 403.269 95.7097 404.246 97.0128 405.44C97.9243 406.279 98.8389 407.117 99.7576 407.957C105.61 413.306 114.979 409.606 114.523 401.691V401.691ZM105.7 286.402C105.947 287.57 107.115 286.795 106.865 285.628C105.409 278.839 105.186 271.754 103.881 264.544C103.179 260.664 101.266 260.932 101.139 264.872V264.872C101.139 265.741 103.094 266.826 100.922 267.477C98.7502 268.237 98.2073 267.369 97.9901 265.307C97.9757 265.105 97.9152 264.935 97.8215 264.789C96.8461 263.265 94.7877 264.628 92.9949 264.872V264.872C91.4747 264.981 92.5606 268.02 92.9949 269.648C96.687 282.891 99.4017 296.242 98.9674 310.136C98.8588 313.393 98.3159 316.649 97.9901 319.797C97.8815 321.642 97.8815 324.139 99.8361 324.356C102.117 324.682 102.116 321.859 102.225 320.34C102.551 315.455 102.877 310.571 102.442 305.686C101.682 295.917 103.42 286.039 101.899 276.27C102.406 278.97 102.912 281.671 103.47 284.728C103.585 285.357 104.494 285.243 104.623 284.616V284.616C104.724 284.128 105.267 284.15 105.401 284.63C105.566 285.218 105.578 285.828 105.7 286.402ZM92.7319 286.471C91.7842 278.859 83.6739 277.279 79.0955 283.434V283.434C73.1231 291.358 73.1231 291.466 79.3127 298.63C80.3986 299.824 80.9415 302.864 83.6563 301.127C87.0225 298.956 93.2121 298.739 93.2121 294.614C93.249 291.926 93.0734 289.213 92.7319 286.471ZM37.2008 153.072C39.343 159.081 47.323 156.831 42.9352 152.201V152.201C39.4603 148.402 39.1345 142.974 43.0437 139.501C44.4554 138.198 44.1296 137.656 43.5867 136.679C43.1386 135.693 42.5426 134.782 43.0804 133.944C43.3432 133.535 43.7939 133.185 44.2383 132.988V132.988C44.6826 132.791 45.153 132.947 45.4714 133.314C46.1791 134.131 45.6499 135.339 45.6499 136.245C45.4819 141.284 45.769 146.259 47.4171 150.968C48.2335 153.301 51.4765 153.66 50.645 151.332V151.332C47.4959 143.083 46.8444 134.616 48.6904 125.933C48.9076 124.956 48.799 124.304 47.6045 123.87C44.0211 122.676 36.637 126.692 35.6597 130.383C33.802 138.43 34.6472 145.91 37.2008 153.072ZM91.0121 375.33C93.9387 368.414 87.0082 363.501 80.833 367.775V367.775C71.0599 374.504 71.0599 374.613 78.0096 384.057C78.7697 385.033 79.5298 386.119 80.1814 387.204C81.3759 389.158 82.6789 388.941 83.982 387.313C86.8383 383.54 89.2154 379.576 91.0121 375.33ZM101.791 75.4585C100.765 79.2173 104.373 79.6164 105.906 76.0346C108.059 71.0078 109.955 64.8003 109.609 62.1072C109.066 57.9824 105.483 55.4858 102.334 52.9892C101.791 52.555 101.139 52.0123 100.922 51.4695C99.2932 47.2362 96.5784 48.973 94.0808 50.2756C93.3207 50.7097 93.7551 52.6637 92.0177 52.1209C88.217 50.9269 88.4342 53.8576 88.6513 55.8114C89.0857 59.1764 91.3661 57.4397 93.2121 57.0055C99.6189 55.703 103.745 58.9593 103.745 65.4721C103.745 68.9456 102.659 72.2021 101.791 75.4585V75.4585ZM51.134 137.409C51.1093 143.695 58.5341 144.828 62.4813 139.935V139.935C63.5672 138.524 63.6758 137.113 62.8071 135.485C60.8524 131.903 59.0064 128.212 57.1604 124.522C56.6174 123.545 56.2917 122.459 54.9886 122.568C53.6855 122.785 52.7082 123.436 52.491 124.956C51.8473 129.085 51.1505 133.214 51.134 137.409ZM69.4442 102.219C69.8261 109.531 75.537 111.14 76.0938 103.84V103.84C76.8117 94.4267 69.1276 91.5923 69.3963 101.029C69.4077 101.429 69.4237 101.825 69.4442 102.219ZM89.4115 397.408C93.9723 389.375 100.162 382.211 103.637 373.636V373.636C106.959 365.333 97.0154 367.014 95.9337 375.892C95.0288 383.318 93.5949 390.635 89.4115 397.408ZM103.727 218.071C107.953 209.405 98.5071 209.342 96.9042 218.849V218.849C96.5784 220.694 97.4472 221.996 99.2932 222.431C101.139 222.973 101.791 221.454 102.551 220.26C102.979 219.531 103.371 218.801 103.727 218.071ZM100.61 446.9C103.086 452.753 111.048 451.911 109.341 445.789C109.023 444.649 108.584 443.531 108.021 442.431C104.937 436.397 97.9705 440.659 100.61 446.9V446.9ZM93.2121 543.512C89.0307 545.147 86.4331 549.799 90.494 551.714C94.9441 553.813 100.996 552.918 106.677 551.001C109.405 550.072 110.717 548.471 110.795 545.652C110.897 541.979 108.572 542.113 107.721 545.688C107.446 546.845 106.864 547.838 105.637 548.5C104.453 549.14 103.626 548.137 103.956 546.832V546.832C104.219 545.787 102.877 545.255 101.976 545.846C101.639 546.067 101.314 546.291 100.992 546.527C100.873 546.615 100.758 546.71 100.668 546.827C100.42 547.155 100.236 547.613 100.053 548.071C99.6057 549.012 99.2399 549.75 98.9027 550.285C97.597 552.359 98.7258 547.942 98.0987 545.574V545.574C97.3385 542.86 95.8183 542.426 93.2121 543.512V543.512ZM103.153 20.2075C103.178 19.8569 102.897 19.5351 102.549 19.487V19.487C102.289 19.4511 102.062 19.6178 101.984 19.8675C100.52 24.5038 99.2455 29.1402 97.6643 33.7765C97.4667 34.3295 97.2995 34.9081 97.151 35.498C96.5895 37.7291 100.788 46.7964 102.821 47.8735C103.201 48.0752 103.586 48.2761 103.975 48.4735C105.231 49.1105 106.329 47.8 105.157 47.0192V47.0192C101.031 44.0884 100.162 40.7235 101.574 35.6218C103.032 30.6236 102.791 25.3259 103.153 20.2075ZM74.4324 189.766C74.6193 190.078 74.9883 190.237 75.3297 190.112V190.112C75.6394 189.998 75.7823 189.653 75.6996 189.333C74.4235 184.404 73.1787 179.469 71.8887 174.396C70.7513 169.923 62.5882 169.022 64.6531 173.15V173.15C67.7027 178.932 71.1597 184.306 74.4324 189.766ZM79.2521 191.232C81.1306 197.497 83.7565 194.615 82.6609 188.167V188.167C81.3912 180.694 77.0751 183.972 79.2521 191.232V191.232ZM79.8997 467.794C78.6962 466.252 79.644 464.984 79.2041 463.079V463.079C78.444 460.039 75.9464 461.45 74.3176 461.125C72.1458 460.69 72.9059 462.861 73.1231 463.621C74.7519 469.157 76.5979 474.585 79.3127 479.686C80.6158 482.074 81.8103 481.531 82.7876 479.143C84.0263 476.28 82.3946 470.989 79.8997 467.794ZM90.606 66.232C91.5481 70.8227 100.449 69.0458 99.9447 64.3866V64.3866C99.6189 60.5875 97.0127 60.479 94.0808 61.0217C91.0403 61.5644 89.8459 62.8671 90.606 66.232V66.232ZM62.2309 205.119C59.7521 201.349 53.7572 202.583 52.9254 207.017V207.017C52.8168 207.994 52.7082 209.948 53.9027 209.405C55.7342 208.513 57.3423 208.819 58.9289 209.392C62.1813 210.566 64.1308 208.008 62.2309 205.119V205.119ZM67.8252 473.37C68.9094 475.973 74.1357 476.239 73.1231 473.608V473.608C71.6028 469.808 69.8654 466.009 68.7795 462.102C67.8022 458.302 65.4132 460.256 63.7844 460.582C60.8525 461.342 63.0243 463.404 63.5672 464.273C65.1 467.209 66.4825 470.146 67.8252 473.37ZM70.9705 217.279C70.6571 217.186 70.3414 217.364 70.295 217.688V217.688C70.2524 217.985 70.3889 218.298 70.6568 218.433C76.7119 221.482 83.1488 224.151 88.76 227.749V227.749C93.2642 230.644 92.5553 223.816 87.4371 222.245C81.9376 220.556 76.4726 218.917 70.9705 217.279ZM101.791 126.692C106.869 121.285 99.3506 121.152 96.8485 128.135C95.923 130.718 94.7291 133.161 92.7778 135.268C92.5606 135.485 92.6692 136.462 92.9949 136.679C93.9722 137.547 94.5152 136.57 95.0582 135.919C97.2299 132.771 99.1846 129.406 101.791 126.692V126.692ZM129.807 465.141C132.081 465.384 132.107 468.664 133.657 469.575C134.486 470.063 134.854 469.745 133.983 470.15V470.15C133.505 470.372 133.959 471.1 134.466 471.24C134.991 471.385 135.514 471.529 136.038 471.673C139.521 472.628 141.198 468.897 137.854 467.531C135.273 466.476 132.606 465.67 129.807 465.141ZM95.4396 80.1681C95.217 79.8902 94.8336 79.8064 94.5311 79.9941V79.9941C94.1324 80.2413 94.0103 80.797 94.2892 81.1742C101.006 90.2576 107.817 99.3411 114.533 108.424C114.812 108.801 115.344 108.879 115.719 108.598V108.598C116.071 108.334 116.161 107.844 115.924 107.474C109.819 97.9104 102.541 89.0332 95.4396 80.1681ZM87.4051 235.745C88.97 234.171 88.4497 231.562 86.4866 230.527V230.527C83.6276 229.02 80.4422 231.864 81.6674 234.855C81.7036 234.944 81.7397 235.032 81.7758 235.12C82.6002 237.133 85.0322 237.962 86.6327 236.489C86.8942 236.248 87.1509 236 87.4051 235.745ZM109.094 250.049C109.195 247.889 106.789 246.431 105.474 248.148C104.885 248.917 104.586 249.783 104.526 250.803C104.34 253.953 108.945 253.201 109.094 250.049V250.049ZM84.525 456.457C82.9551 457.399 83.8592 460.005 84.5808 461.687C86.2334 465.54 87.8408 469.483 89.5201 473.282C89.7373 473.825 90.3888 474.476 91.2575 473.933C92.5606 473.173 92.1263 472.305 91.6919 471.22C89.9545 466.878 88.3256 462.536 86.5882 458.194C86.2624 457.217 85.9366 455.806 84.525 456.457V456.457ZM94.0825 503.024C93.0836 501.562 90.5787 502.344 90.7146 504.109V504.109C91.1489 508.343 94.5152 511.165 95.1667 515.181C95.3839 516.266 97.0128 516.049 97.9901 515.941C99.4018 515.724 98.6416 514.747 98.4244 513.878C97.7729 510.188 95.7097 506.931 94.298 503.458C94.2452 503.3 94.1725 503.155 94.0825 503.024ZM124.16 518.654C125.346 520.163 127.906 518.274 126.549 516.918V516.918C125.572 515.832 124.703 514.964 123.617 515.832C122.64 516.701 123.509 517.895 124.16 518.654V518.654ZM123.918 454.269C123.754 455.761 125.089 455.868 125.399 454.4C125.738 452.792 126.08 451.196 126.441 449.619V449.619C126.699 448.474 124.562 449.07 124.421 450.235C124.26 451.579 124.066 452.922 123.918 454.269ZM90.5774 313.165C92.2545 315.437 95.8999 314.421 95.7038 311.604C95.5289 309.091 94.5894 308.334 92.378 308.716C90.2594 309.082 89.3007 311.435 90.5774 313.165V313.165ZM66.352 480.028C65.6217 478.601 64.3898 479.217 65.1301 480.638V480.638C65.86 482.04 67.0719 481.434 66.352 480.028V480.028ZM72.8295 162.53C73.3379 164.764 75.5239 164.041 75.4035 161.753V161.753C75.2949 160.233 74.209 158.605 75.4035 157.194C75.7292 156.76 77.6838 159.908 77.1409 156.543C76.9237 155.349 75.7292 155.783 74.8605 155.566C72.9059 155.24 72.0372 156.868 72.1458 158.062C72.323 159.524 72.4821 161.003 72.8295 162.53ZM128.548 474.969C127.756 474.812 125.718 476.174 125.451 476.936C124.994 478.236 124.754 479.464 127.309 480.012C129.063 480.387 130.078 479.928 130.812 479.129C131.423 478.462 129.436 475.146 128.548 474.969V474.969ZM104.627 504.738C104.746 504.941 104.994 505.032 105.213 504.944V504.944C105.478 504.839 105.613 504.538 105.51 504.272C104.053 500.519 102.592 496.674 101.031 492.929C100.705 492.061 100.162 490.541 98.8588 491.301C97.7729 491.843 97.8815 493.037 98.533 494.123C100.531 497.697 102.53 501.17 104.627 504.738ZM127.092 487.284C124.842 490.096 128.234 490.448 129.355 487.026C129.734 485.866 130.101 484.73 130.458 483.594C130.893 482.291 130.567 480.989 128.721 481.314C126.223 481.749 128.287 482.725 128.504 483.594C128.721 484.896 127.961 486.09 127.092 487.284V487.284ZM111.495 63.3627C111.587 65.4349 114.499 65.9087 114.182 63.8588C114.102 63.3406 113.964 62.8506 113.769 62.3854C113.165 60.9474 111.425 61.8046 111.495 63.3627V63.3627ZM72.5448 437.452C71.7803 439.459 73.8757 440.435 74.7385 438.468V438.468C75.6171 436.467 73.3231 435.41 72.5448 437.452V437.452ZM89.6063 511.591C88.8708 509.875 87.0694 510.49 87.8149 512.202V512.202C88.5544 513.901 90.3358 513.294 89.6063 511.591V511.591Z" fill="#252525"/>
</svg>
