<svg width="270" height="369" viewBox="0 0 270 369" fill="none" xmlns="http://www.w3.org/2000/svg">
<path d="M241.462 219.673C234.87 208.769 227.643 198.436 217.88 190.132C213.57 186.455 208.752 183.539 203.617 181.003C204.822 179.926 206.47 180.116 207.231 178.024C200.131 180.433 194.172 177.453 188.086 175.235C182.444 173.206 176.612 171.875 170.59 171.051C164.884 170.29 159.116 169.973 153.157 169.402C154.234 167.184 155.185 165.345 156.073 163.444C157.404 160.654 159.369 158.752 162.412 157.738C165.582 156.724 168.498 155.012 170.653 152.603C172.872 150.068 176.739 148.293 175.788 143.792C178.894 141.637 182.508 139.735 184.029 136.185C185.233 133.332 187.452 131.621 189.29 129.402C192.207 125.979 194.742 122.302 196.073 118.055C194.932 117.294 194.615 119.069 193.474 118.181C197.595 115.138 200.511 111.145 202.793 106.707C203.427 105.439 204.505 103.728 202.92 102.714C201.525 101.826 201.969 101.382 202.73 100.748C209.006 95.677 212.365 88.5137 215.979 81.6039C218.324 77.103 220.163 72.3486 220.67 67.2772C220.797 66.1995 220.86 64.9951 219.719 64.4879C218.388 63.9174 217.944 65.2486 217.373 66.0727C214.964 69.6861 211.922 72.7923 208.372 75.328C198.799 82.111 189.227 88.7038 177.626 91.8101C168.498 94.219 159.813 98.0859 151.128 101.826C151.635 99.9877 153.474 99.9877 154.805 99.5439C157.277 98.6564 157.721 97.7056 156.517 95.2333C150.051 81.8574 139.401 73.3629 125.771 68.1647C124.567 67.7209 122.158 67.5308 122.411 66.4531C122.855 64.4879 121.714 61.9522 122.919 60.7478C125.708 57.9585 126.088 54.0916 127.927 50.9219C130.589 46.4211 134.266 43.1247 137.943 39.8916C140.795 37.3559 143.394 34.3765 146.881 32.4113C148.973 31.2069 150.875 29.4319 153.03 28.2274C157.151 25.8819 160.51 22.7757 163.617 19.4159C166.976 15.7391 168.815 11.3017 168.498 6.10347C168.434 5.21598 168.688 3.88474 167.61 3.69456C166.342 3.44099 166.342 4.77223 166.025 5.59633C163.3 12.1258 159.052 17.007 151.635 18.3382C150.431 18.5918 149.353 19.2891 148.339 20.0498C145.93 21.6346 143.458 23.2828 140.795 24.2337C139.21 24.8042 137.562 25.1212 136.168 26.0721C133.188 28.164 129.575 29.1149 126.405 30.3194C121.587 32.1578 117.72 35.7711 112.712 36.9122C111.888 37.1024 111.254 38.0533 110.557 38.7506C109.86 39.4479 109.226 39.955 108.275 40.3354C104.471 41.73 95.85 50.3514 94.5188 54.1549C94.2652 54.8523 94.2018 55.5496 93.4411 55.9299C91.0956 57.1978 89.5742 59.1629 88.8769 61.762C88.6867 62.5227 88.4331 63.0933 87.4822 63.1567C81.7769 63.4736 76.3252 64.8049 70.7466 66.6433C71.127 59.0362 75.4377 53.5844 79.3046 48.0059C80.4457 46.3577 80.8894 43.822 82.4742 43.1247C86.9117 41.2229 88.5599 36.6586 92.1099 33.9328C96.4206 30.6364 100.224 26.7694 104.281 23.0926C108.529 19.2891 112.649 15.4222 115.312 10.224C116.706 7.5615 117.277 4.64545 116.706 1.666C116.579 0.905292 116.326 0.207975 115.438 0.0177974C114.678 -0.108988 114.297 0.461545 114.107 1.09547C113.029 5.65973 108.909 7.81507 106.12 11.0481C103.711 13.8374 100.858 16.3097 97.6884 17.8311C94.5188 19.3525 92.1733 21.6346 89.5742 23.7266C87.1653 23.8534 86.8483 26.706 85.0733 27.3399C81.46 28.6078 79.2412 31.9042 75.5645 33.2988C73.3457 34.1229 71.127 36.0247 69.2886 37.6095C65.5484 40.7791 61.3645 43.5684 58.3851 47.6889C57.878 48.3862 57.561 49.0836 56.7369 49.5273C50.0173 52.7603 47.7986 59.6701 44.0584 65.2486C43.0441 66.8334 41.5861 68.3549 41.0156 70.32C40.6352 71.7147 39.7477 73.0459 39.9379 74.5673C40.1915 76.786 39.6209 78.6244 38.67 80.7164C37.4022 83.5057 36.0076 86.4851 36.4513 89.6547C36.7683 92.3172 35.8808 94.4091 34.6129 96.5011C31.9505 100.875 30.6826 105.756 29.4781 110.701C28.0201 116.787 27.8299 123.063 26.9424 129.275C26.4353 125.788 26.6889 122.302 27.2594 118.942C27.8933 115.075 26.8157 111.842 24.5969 108.863C22.6318 106.264 20.6032 103.601 17.7505 101.889C15.2148 100.368 13.5666 98.0859 12.3622 95.4234C11.0309 92.5708 9.88988 89.6547 8.8756 86.6119C8.43185 85.1539 8.11489 82.5548 6.3399 82.8083C4.6917 82.9985 4.6917 85.5976 4.6917 87.1824C4.56491 93.0779 4.88187 98.9734 6.97382 104.679C7.22739 105.313 8.0515 106.644 7.164 106.707C4.24795 107.024 5.32562 109.053 5.4524 110.384C6.21311 117.611 8.30507 124.394 12.1086 130.67C12.8693 131.874 14.0104 132.952 12.5524 134.537C11.9818 135.107 12.5524 135.995 12.8693 136.629C16.4827 143.602 21.3005 149.687 26.8157 155.203C27.196 155.583 27.7032 155.836 28.2103 155.963C29.0978 156.217 29.5415 155.773 29.6683 154.949C31.4433 158.182 31.3165 162.049 32.9013 165.409C33.0915 165.726 32.7112 166.423 32.4576 166.803C30.4924 169.339 30.8728 172.128 31.5701 174.918C33.0915 181.257 37.0218 186.011 41.7763 190.195C43.0441 191.336 43.5513 192.034 41.9665 193.301C36.9585 197.549 31.7603 201.479 25.6746 204.078C19.7791 206.614 14.264 206.741 9.38274 201.859C8.24167 200.718 7.03722 199.704 5.95954 198.563C4.43813 196.978 2.66314 197.042 1.07833 198.056C-0.569877 199.133 0.00065466 200.845 0.634579 202.366C0.888149 202.937 1.20511 203.508 1.52207 204.015C7.164 215.172 23.1389 221.004 34.0424 218.912C37.3388 218.278 40.6352 217.961 44.0584 217.074C38.2897 225.251 36.0076 235.648 27.1326 241.67C28.5906 242.621 29.4781 241.48 30.746 241.606C29.7951 243.635 29.0978 245.537 28.0835 247.375C22.9487 256.25 22.4416 267.661 12.8693 274.063C14.5175 275.078 15.7854 273.81 17.18 274.063C15.1514 281.861 12.9327 289.404 12.6791 297.392C12.4256 306.077 11.7283 314.761 15.7854 322.876C18.3845 328.074 21.8077 332.828 27.4496 334.793C35.3102 337.519 42.9173 335.617 50.0173 331.877C57.3708 327.947 62.6958 321.734 67.577 315.205C73.6627 307.218 78.1635 298.216 82.7912 289.341C83.6787 287.629 84.693 286.869 86.6581 286.932C89.9545 287.059 92.8706 286.045 94.7724 283.065C96.0402 281.1 97.7518 281.607 98.9563 283.002C101.175 285.537 103.964 287.312 106.817 288.77C114.551 292.574 122.411 293.525 127.229 282.938C127.736 281.861 128.37 281.037 129.702 280.783C134.456 279.769 137.689 276.916 139.591 272.352C141.239 268.485 141.429 268.612 145.043 270.577C152.333 274.57 158.672 274.254 163.173 269.753C166.089 266.9 165.899 264.301 162.666 261.829C159.116 259.166 155.883 256.187 152.903 252.827C146.501 245.664 139.908 238.69 131.857 233.302C122.031 226.773 111.571 225.758 100.541 229.815C94.6456 231.971 89.3206 235.331 83.6153 238.627C82.0305 232.161 83.9957 226.836 87.1019 221.828C91.159 215.299 97.8786 212.256 104.852 210.544C117.277 207.438 129.004 210.417 139.527 217.264C145.36 221.067 149.924 226.456 154.108 232.098C161.525 242.177 166.025 253.588 169.258 265.632C170.273 269.436 169.702 271.591 166.659 274.19C161.017 278.881 156.58 286.742 160.13 296.314C161.525 299.991 163.49 303.351 165.772 306.52C167.103 308.359 166.913 309.119 164.758 309.817C158.799 311.718 152.713 312.923 146.564 313.81C142.887 314.318 138.83 313.493 135.534 315.902C130.082 319.896 126.278 330.926 127.8 337.646C129.955 347.155 136.928 353.304 143.204 359.897C143.268 359.96 143.394 360.023 143.458 360.087C150.051 361.101 155.059 365.792 161.208 367.884C167.61 370.04 181.176 365.539 185.233 360.214C186.565 358.502 187.135 356.474 187.072 354.255C187.072 353.557 186.501 352.607 187.389 352.29C193.094 350.134 194.742 343.668 199.877 340.816C202.032 339.611 203.237 337.266 203.3 334.73C203.364 333.208 203.934 332.638 205.329 332.067C208.815 330.736 211.668 328.454 212.556 324.651C214.014 318.438 219.212 315.332 222.952 310.831C224.093 312.606 223.205 314.698 225.424 316.473C224.473 308.929 227.833 303.477 231.7 298.216C234.553 294.286 237.215 290.292 239.814 286.171C245.266 277.55 248.816 268.358 250.084 258.215C250.654 253.524 250.464 248.897 250.528 244.332C252.049 243.889 252.62 245.664 254.141 245.22C252.683 242.24 250.084 240.148 249.26 237.042C247.421 230.576 244.759 225.061 241.462 219.673ZM150.748 102.016C145.867 105.313 141.049 108.736 136.865 112.856C141.049 108.672 144.599 103.728 150.748 102.016ZM133.315 117.421C131.794 120.463 130.589 123.57 129.575 126.739C129.765 123.189 130.589 119.956 133.315 117.421ZM157.721 17.1338C161.588 14.5981 164.758 11.4284 166.533 7.05436C165.835 12.1258 162.602 15.5489 158.926 18.7186C158.165 19.3525 157.467 19.0355 157.024 18.465C156.326 17.6409 157.277 17.4507 157.721 17.1338ZM149.226 20.7471C149.987 18.9087 152.269 19.3525 153.664 18.9721C154.932 18.9087 155.883 19.1623 156.39 20.0498C156.834 20.7471 156.263 21.3177 155.756 21.5712C154.425 22.3319 153.22 23.8534 151.635 23.0293C150.748 22.5855 148.656 22.2052 149.226 20.7471ZM147.071 22.3953C148.402 22.5221 149.86 22.8391 149.987 24.4873C150.114 25.9453 148.846 26.8962 147.578 26.7694C145.93 26.6426 143.965 25.6917 143.775 24.1703C143.585 22.9025 145.676 22.6489 147.071 22.3953ZM140.478 25.3748C141.936 25.6917 143.838 25.565 143.838 27.5935C143.838 29.1783 142.443 29.939 140.922 29.8756C139.084 29.8122 136.675 28.9248 136.548 27.5935C136.485 25.8185 139.02 25.8185 140.478 25.3748ZM129.068 30.4462C129.511 28.798 131.603 28.5444 133.378 28.6712C133.822 28.7346 134.266 28.6712 134.646 28.8614C135.977 29.3685 137.562 29.4953 138.006 31.2703C138.196 32.1578 137.816 32.9819 137.119 33.489C135.724 34.4399 134.329 34.0595 133.061 33.172C132.744 32.9185 132.301 32.7917 131.984 32.5381C131.033 31.6506 128.624 32.031 129.068 30.4462ZM131.096 33.5524C132.301 34.4399 132.681 35.6444 131.984 36.8488C131.033 38.5604 129.385 38.6238 127.863 37.7997C125.518 36.5318 123.045 35.7077 120.32 34.6935C123.616 31.5238 127.8 31.1435 131.096 33.5524ZM126.088 38.3702C127.103 38.9408 127.99 39.8283 127.419 41.2229C126.912 42.5541 125.644 42.5541 124.503 42.5541C123.933 42.5541 123.299 42.2372 122.728 41.9202C121.08 40.9693 119.495 39.955 117.657 39.4479C115.819 38.8774 113.917 39.5747 111.825 38.9408C116.96 34.2497 121.778 36.0881 126.088 38.3702ZM119.305 41.3497C120.636 41.9836 121.841 42.8077 122.348 44.3925C123.172 46.9916 122.158 48.4496 119.369 48.4496C118.925 48.4496 118.481 48.513 118.101 48.3862C113.283 46.2309 108.148 46.1675 102.633 46.4845C105.549 40.0184 114.995 39.1943 119.305 41.3497ZM114.487 69.3691C116.96 69.8763 118.037 70.637 118.291 72.1584C118.608 73.9968 117.911 75.3914 115.755 76.5959C116.326 74.0602 116.96 71.8414 114.487 69.3691ZM117.403 81.0967C118.418 80.9066 119.052 81.5405 119.052 82.5548C119.052 83.7592 118.608 84.7735 117.467 86.0414C117.34 84.7101 117.277 83.6324 117.15 82.6182C117.087 82.0476 116.389 81.2869 117.403 81.0967ZM96.2304 52.6969C96.8643 51.4291 97.7518 50.4782 98.8929 49.6541C103.14 46.6746 112.395 46.4845 116.643 49.4639C118.101 50.4782 119.432 51.9996 118.608 53.9648C117.784 55.9299 116.072 55.9933 114.044 55.5496C110.494 54.7889 107.007 53.3308 103.901 53.7112C101.175 53.6478 99.2098 53.7746 97.3081 54.3451C96.8009 54.4719 96.2304 54.6621 95.85 54.1549C95.5965 53.6478 95.9768 53.2041 96.2304 52.6969ZM89.8912 63.2201C90.3983 58.4022 94.1384 55.4228 100.604 54.9157C101.429 54.8523 102.316 54.9157 103.14 54.9157C105.929 54.6621 108.592 55.3594 111.191 56.2469C114.804 57.4514 115.502 61.1281 112.649 63.6638C111.128 65.0584 109.289 65.8825 107.197 65.629C102.126 65.0584 97.1179 64.8049 92.0465 65.5656C90.0179 65.8192 89.701 64.9317 89.8912 63.2201ZM86.468 70.8906C87.2921 68.3549 89.1304 66.8968 91.8563 66.7066C95.85 66.4531 99.8438 66.0093 103.837 66.6433C107.831 67.2772 110.937 70.2566 110.494 73.7432C109.733 79.4485 106.944 82.428 102.633 81.6673C97.8786 80.336 92.5536 81.0967 88.3697 77.42C86.151 75.5182 85.6439 73.3629 86.468 70.8906ZM84.8198 81.7941C85.0733 77.8637 85.7706 77.4834 89.067 79.6387C92.617 82.0476 96.8643 81.9842 100.858 82.8717C101.365 82.9985 101.936 82.9351 102.443 82.9985C107.387 83.3789 109.67 85.1539 109.479 88.5137C109.289 91.2395 106.056 93.2681 101.175 93.2681C96.167 92.0636 89.701 92.3806 86.0876 86.2315C85.2635 84.8369 84.7564 83.4423 84.8198 81.7941ZM105.803 12.6329C108.085 10.3508 110.494 8.19542 112.839 5.91329C111.888 9.46327 109.86 12.0624 107.324 14.2811C106.754 14.7882 106.12 15.6757 105.169 14.8516C104.028 13.8374 105.232 13.2034 105.803 12.6329ZM100.351 17.2605C100.795 16.1195 102.126 15.4856 103.521 15.7391C104.281 15.8659 105.105 16.3097 105.042 17.3873C104.281 18.2748 103.647 19.4793 102.316 19.0989C101.492 18.9087 99.7804 18.6552 100.351 17.2605ZM97.7518 19.0355C98.9563 18.782 100.034 19.0989 100.541 20.4936C99.9705 22.3319 98.6393 23.3462 96.9277 23.5998C95.5331 23.8534 93.9483 22.7123 94.0117 21.7614C94.2018 19.9864 96.1036 19.3525 97.7518 19.0355ZM87.7358 25.7551C88.2429 25.0578 89.3206 24.7409 89.384 23.7266C89.6376 23.7266 89.9545 23.8534 90.2081 23.7266C91.6027 23.156 93.3143 22.4587 94.0117 24.2971C94.6456 25.8819 93.1242 26.9596 91.8563 27.7837C90.2081 28.9248 88.8769 27.6569 87.4822 27.023C86.9117 26.706 87.4188 26.1355 87.7358 25.7551ZM86.0242 28.2908C87.4188 28.5444 89.067 28.6078 89.067 30.3828C89.067 31.9676 87.7992 33.1721 86.151 33.1087C84.4394 32.9819 81.7135 32.3479 81.7135 31.0801C81.6501 28.9881 84.2492 28.7346 86.0242 28.2908ZM81.7135 33.0453C83.0448 33.489 84.5662 34.1863 83.4885 35.8979C82.6644 37.2292 81.6501 39.4479 79.4314 38.0533C77.8466 37.1024 76.1984 36.3417 74.2966 35.5176C76.452 33.2354 78.7975 32.0944 81.7135 33.0453ZM76.452 37.9265C77.91 38.6238 79.1144 39.5747 78.1002 41.3497C77.276 42.6809 76.135 44.0122 74.2332 42.9345C71.9511 41.6032 69.5422 41.2863 66.6261 41.5398C68.8449 37.5461 72.902 36.2149 76.452 37.9265ZM70.7466 42.9979C72.5216 43.4416 73.7261 44.3925 73.2189 46.2943C72.7752 48.1327 71.4439 49.2103 69.4788 48.7032C67.8306 48.3228 66.119 48.3228 64.4708 48.2594C62.886 48.1961 61.4279 47.4987 59.2726 48.2594C61.9351 43.9488 66.6261 41.9836 70.7466 42.9979ZM67.8306 81.4137C67.5136 80.7798 66.8797 80.0825 68.1475 79.8289C68.9716 79.7021 69.4788 80.2726 69.6056 81.0967C69.7957 82.7449 69.669 84.3298 67.894 86.3583C68.4645 84.1396 68.4645 82.7449 67.8306 81.4137ZM64.5976 68.4182C69.2252 70.2566 69.7323 74.4405 65.8654 78.3075C66.8163 74.5673 66.8163 71.5245 64.5976 68.4182ZM65.6752 49.6541C67.26 50.2246 67.8306 51.4291 67.4502 52.8871C67.0065 54.9157 65.7386 56.3103 63.3931 56.1201C59.2726 55.8031 55.2155 56.1201 50.8414 57.1978C52.9333 51.3023 60.1601 47.7523 65.6752 49.6541ZM45.1361 64.6147C46.4039 61.5719 48.3691 59.2263 51.7289 58.2755C54.8351 57.3246 57.9414 57.388 61.111 57.388C62.6958 57.388 63.6467 58.1487 64.2172 59.6067C64.7877 61.0647 64.4708 62.1424 63.3931 63.2835C62.252 64.4879 60.8574 65.312 59.2726 65.4388C54.9619 65.6924 50.6512 65.1852 46.9111 66.5165C44.7557 66.77 44.6923 65.8192 45.1361 64.6147ZM44.6289 68.4816C47.7352 67.4674 50.9048 66.7066 54.2646 66.7066C59.2726 66.7066 61.8717 68.9888 61.9351 73.7432C61.9985 78.4343 58.5119 82.0476 54.011 82.0476C53.6941 82.0476 53.3771 82.0476 53.0601 82.0476C48.6861 81.9842 44.6923 80.97 41.9031 77.2298C39.6843 74.3137 41.1424 69.6227 44.6289 68.4816ZM39.1772 82.2378C39.7477 79.0048 40.5718 78.6244 43.2343 80.5896C45.9602 82.6182 49.003 83.4423 52.3628 83.3789C53.4405 83.3789 54.4548 83.3789 55.5324 83.4423C59.1458 83.6324 61.0476 85.0271 61.1744 87.6262C61.3012 90.4154 59.2726 92.8243 56.1664 93.5217C55.1521 93.7752 54.0744 93.8386 53.9476 93.8386C47.6084 93.7118 43.2977 91.6199 40.2549 86.9922C39.3674 85.5342 38.8602 84.0128 39.1772 82.2378ZM27.5764 141.383C27.8299 145.82 29.6049 149.941 29.4781 154.442C28.654 150.131 26.8157 145.947 27.5764 141.383ZM31.6969 126.803C32.1406 121.541 33.8522 116.66 36.7683 112.349C40.5718 106.707 47.7352 106.39 52.553 111.462C55.1521 114.188 57.1806 117.167 58.3851 120.78C59.3994 123.887 60.6672 126.929 61.8083 129.972C62.0619 130.733 62.0619 131.874 63.2663 131.684C64.1538 131.557 64.027 130.543 64.1538 129.846C64.9145 124.394 66.2458 119.005 69.1618 114.314C72.2047 109.37 75.4377 104.552 80.7626 101.636C86.6581 98.3395 95.85 99.227 100.858 103.791C107.768 110.13 110.811 118.498 113.22 127.246C114.678 132.698 115.375 138.213 115.438 143.855C115.502 148.99 113.6 153.174 109.987 156.851C98.0054 169.149 83.1715 172.889 66.6261 172.002C65.6752 171.938 64.344 172.065 64.4074 170.86C64.4074 169.529 65.802 169.656 66.8797 169.529C70.3029 169.276 73.0288 167.944 74.2966 164.585C75.5645 161.098 74.6136 158.182 72.0145 155.646C71.7609 155.456 71.5073 155.266 71.2538 155.139C71.0636 155.076 70.8734 155.076 70.4931 155.076C70.3663 156.344 71.4439 156.851 72.0779 157.548C74.5502 160.654 73.9796 165.028 70.7466 166.93C70.2395 167.247 69.352 167.818 69.035 167.627C65.7386 165.472 64.6609 168.895 62.6324 170.036C60.5404 171.177 58.2583 172.001 56.0396 170.67C53.9476 169.402 54.2646 166.993 54.328 164.902C54.4548 160.21 56.4199 156.153 58.5753 152.096C60.0333 149.434 61.9351 146.835 61.4913 142.778C59.8431 144.87 60.3503 147.088 58.3851 148.8C58.3217 147.469 58.1949 146.391 58.1949 145.377C57.8146 137.326 56.8637 129.402 54.2012 121.731C53.0601 118.371 51.3485 115.392 48.2423 113.427C44.3754 110.955 40.0013 112.222 37.7826 116.216C36.0076 119.386 35.6272 122.872 35.3102 126.296C34.4228 136.438 35.0567 146.328 39.9379 155.583C42.0299 159.577 45.1361 161.922 49.5736 161.415C52.9967 161.035 53.6307 162.176 52.9334 165.092C52.8066 165.662 52.87 166.36 52.8066 167.501C47.862 164.965 43.2343 162.429 37.8459 162.873C36.6415 162.936 36.5781 162.049 36.3879 161.225C33.0281 149.878 30.746 138.53 31.6969 126.803ZM53.8208 158.626C53.3137 159.703 52.1726 159.83 51.1584 159.957C46.4039 160.591 43.2343 158.943 41.2057 154.632C37.3388 146.518 36.2611 141.383 36.3245 131.367C36.4513 127.437 36.5781 123.126 37.9727 118.942C38.9236 116.153 40.5084 114.251 43.3611 113.871C46.2771 113.427 48.4325 114.948 50.0807 117.23C53.8208 122.492 54.8351 128.641 55.5958 134.79C56.0396 138.53 56.1664 142.397 56.8637 146.074C57.6878 150.765 55.7226 154.632 53.8208 158.626ZM44.9459 192.16C48.6227 189.054 52.6164 186.709 57.4342 185.948C56.8003 186.455 56.1664 186.962 55.5324 187.469C58.0047 185.377 60.6672 187.659 63.2029 187.342C60.4137 189.054 58.1315 191.526 54.6449 192.287C53.1235 192.604 51.6021 193.618 50.3977 194.886C42.3468 203.571 32.1406 207.311 20.5398 207.628C20.2228 207.628 19.9059 207.565 19.5889 207.438C19.4621 207.374 19.3354 207.184 19.0818 206.867C29.8585 205.473 37.2754 198.563 44.9459 192.16ZM45.6432 178.087C44.0584 176.883 43.6147 175.108 43.6147 172.952C45.3896 173.206 46.7843 173.903 48.1155 174.664C49.6369 175.551 49.7003 176.946 48.9396 178.151C48.0521 179.545 46.6575 178.848 45.6432 178.087ZM55.6592 177.453C57.6878 178.024 59.336 178.721 60.9842 178.975C62.4422 179.228 63.3297 179.609 63.3297 181.193C63.3297 182.525 63.3297 183.666 61.9351 184.363C60.4137 185.06 59.019 184.934 57.9414 183.666C56.6735 182.018 55.9128 180.052 55.6592 177.453ZM11.9184 212.826C7.67114 210.354 4.43813 207.058 2.02921 202.874C1.3319 201.669 0.634579 200.211 1.96582 199.133C3.42385 197.992 4.56491 198.88 5.70598 200.084C8.0515 202.557 10.714 204.522 13.5666 206.36C20.2228 210.544 27.0058 208.959 33.7254 206.931C41.1424 204.712 47.1012 199.831 53.3771 195.647C56.4833 193.618 59.5896 191.653 62.569 189.498C65.2315 187.533 68.4645 187.469 71.3806 186.265C71.6975 186.138 72.3314 186.138 72.585 186.328C76.0716 188.864 79.368 187.026 82.918 186.265C87.4822 185.251 91.2224 187.913 94.5188 190.829C96.167 192.287 97.3715 193.999 97.4349 196.217C97.4349 196.978 97.4982 198.563 97.3081 198.436C96.1036 197.295 94.5822 199.958 93.6313 197.992C93.4411 197.612 93.1242 197.358 92.3635 196.471C92.8072 198.309 93.1242 199.133 91.0956 199.133C86.468 199.133 86.5313 199.324 84.3126 194.759C83.6153 193.365 80.9528 192.984 80.5091 193.745C79.6216 195.14 78.5439 194.633 77.593 194.95C72.2047 196.978 66.5627 198.309 62.6324 203.317C60.5404 205.98 56.9271 207.438 53.6941 209.72C53.5673 208.072 55.0253 208.389 55.0253 207.438C54.7717 207.121 54.5182 207.248 54.2646 207.438C52.6798 208.452 51.1584 209.403 50.0807 211.115C49.1298 212.699 47.228 213.587 45.3896 214.221C34.1058 218.151 22.8853 219.229 11.9184 212.826ZM74.1698 181.447C74.1698 181.257 74.1698 180.94 74.2966 180.876C76.6421 179.735 79.1778 180.306 81.6501 180.116C83.0448 180.052 82.601 181.954 82.4742 183.032C82.2207 185.251 80.6358 185.884 78.9876 185.884C76.5153 185.884 74.043 183.412 74.1698 181.447ZM100.097 179.609C99.4634 181.193 98.0688 181.637 96.5474 181.764C94.5188 181.891 93.2509 180.75 92.8072 178.975C92.4268 177.136 94.392 177.517 95.3429 176.883C95.5965 176.693 95.9134 176.566 96.2304 176.502C97.3715 176.376 98.4491 174.664 99.5902 175.932C100.414 176.883 100.604 178.341 100.097 179.609ZM102.253 191.019C103.901 190.956 106.5 193.682 106.12 195.393C105.486 198.246 102.633 197.612 100.731 197.992C98.3857 198.5 99.5268 196.154 98.9563 195.267C99.083 192.984 99.5902 191.083 102.253 191.019ZM60.4137 272.098C58.8288 274.57 57.3074 277.106 55.5958 279.832C54.2012 277.93 54.7717 275.712 53.2503 274.38C52.2994 275.014 52.6164 275.648 52.7432 276.282C53.5673 280.783 52.6798 284.65 49.9539 288.453C46.4039 293.398 43.1075 298.596 38.4799 302.653C35.5004 305.252 30.9996 306.584 28.4639 305.443C31.6335 305.886 34.2326 304.555 36.7049 302.907C38.0995 302.019 39.4308 301.069 39.304 298.977C38.4799 284.206 43.0441 270.704 49.1932 257.645C52.3628 250.862 56.1664 244.459 60.2869 238.247C61.7449 238.5 61.1744 240.275 62.8226 240.656C61.8083 232.034 69.0984 227.977 73.0288 221.448C74.4868 226.773 75.7546 231.59 77.0225 236.408C77.1493 236.915 77.1493 237.486 77.3394 237.93C78.1635 240.148 80.2555 242.177 77.593 244.713C75.818 246.424 74.8037 248.58 72.1413 249.594C68.0208 251.179 65.7386 255.046 65.4217 259.293C65.1047 264.301 62.886 268.168 60.4137 272.098ZM81.3966 281.544C77.5296 282.431 75.0573 280.593 72.9654 278.311C69.0984 274.127 66.4993 269.182 66.6895 263.287C66.7529 261.131 66.4993 258.913 69.2252 257.771C70.4297 257.264 70.3029 255.616 70.3029 253.524C70.3029 252.447 71.6341 251.622 73.0288 251.432C69.4788 266.139 76.7055 274.761 89.067 280.783C86.2778 279.325 83.7421 280.973 81.3966 281.544ZM92.4902 282.685C91.6661 283.762 90.4617 283.953 88.8769 284.206C89.5742 283.002 90.842 282.748 90.9054 281.607C90.9688 280.466 91.6661 280.466 92.4268 280.846C93.3777 281.353 92.934 282.051 92.4902 282.685ZM95.5331 239.514C91.476 238.69 87.6724 240.085 83.0448 241.67C87.3555 237.866 91.6661 236.218 96.4206 235.584C97.3715 235.457 98.9563 236.091 99.1464 234.697C99.4 232.922 97.4982 233.746 96.5474 233.112C109.036 227.09 120.953 227.026 132.491 235.204C140.478 240.846 146.818 248.263 153.474 255.299C155.946 257.898 158.735 260.18 161.461 262.463C164.314 264.871 164.187 266.393 161.398 268.865C157.784 271.971 153.284 271.718 149.86 268.358C147.895 266.456 145.55 264.998 143.331 263.54C140.415 261.638 140.668 258.849 139.844 256.377C139.464 255.172 139.464 254.285 138.196 253.461C136.611 252.447 135.28 250.862 134.456 248.897C133.061 245.537 124.82 241.48 121.144 242.24C121.27 243.635 122.538 243.635 123.362 244.015C130.272 247.248 135.724 252.003 138.577 259.293C141.556 266.837 137.499 275.965 130.399 277.93C128.687 278.374 128.307 278.184 128.117 276.345C127.483 271.274 126.786 266.139 122.728 262.399C122.095 261.829 121.714 260.814 120.383 261.385C119.432 261.765 118.861 260.941 118.545 260.117C117.023 256.694 114.361 255.172 110.684 255.172C110.113 255.172 109.416 254.412 109.036 255.236C108.655 256.123 109.479 256.567 110.05 256.947C112.142 258.342 114.424 259.546 116.326 261.195C121.017 265.188 125.391 269.499 126.342 276.029C127.166 281.48 123.616 287.566 118.291 288.707C116.453 289.087 113.854 289.975 112.079 287.883C111.952 287.756 111.698 287.629 111.508 287.629C106.88 287.629 104.408 283.636 100.731 281.924C99.4634 281.353 99.5902 279.895 100.224 278.881C101.238 277.36 102.887 276.029 104.725 276.979C107.261 278.247 109.733 279.769 111.635 281.924C113.093 283.572 112.966 283.636 115.185 282.558C112.649 280.149 109.416 278.754 107.387 275.838C106.944 275.204 104.598 275.395 103.774 273.873C104.028 273.746 104.281 273.556 104.471 273.429C103.013 271.464 100.921 270.45 98.7661 269.499C98.6393 269.436 98.7661 270.196 98.9563 270.513C97.625 270.577 96.6741 267.724 95.5965 269.372C94.5188 271.147 97.0545 271.337 98.1322 272.162C99.4 273.112 100.731 273.937 102.253 275.014C100.604 276.092 99.4 277.423 98.1322 278.628C96.9911 279.705 94.7724 278.247 93.5045 277.36C91.2858 275.775 89.4474 273.873 86.468 274.951C86.4046 274.951 86.2778 274.887 86.151 274.824C82.7278 272.352 78.0368 271.718 75.818 267.471C73.4091 262.906 72.3314 258.152 74.36 253.207C77.276 245.98 79.368 245.283 86.3412 248.897C87.1653 249.34 88.1162 250.228 88.6867 248.833C89.1304 247.692 88.1162 247.122 87.2287 246.805C85.0733 246.044 82.918 245.41 80.6358 244.649C85.2001 241.733 90.1447 241.289 95.2795 241.987C96.2304 242.114 97.3715 242.684 97.6884 241.416C97.8786 239.958 96.484 239.705 95.5331 239.514ZM138.957 165.726C137.816 172.635 135.534 179.165 132.427 185.441C131.096 188.167 128.244 189.434 126.595 191.907C125.264 193.872 123.045 195.267 121.334 196.851C114.107 203.444 105.169 204.141 96.3572 205.536C92.8072 206.107 89.2572 206.55 85.7072 205.853C84.6296 205.663 83.3617 206.17 82.6644 204.775C82.3474 204.205 81.3966 204.141 80.9528 204.585C78.8609 206.677 76.5787 205.092 74.9305 204.395C72.8386 203.444 70.6198 202.43 68.2109 200.908C71.4439 198.626 73.9163 197.105 78.0368 198.436C90.6519 202.493 103.013 200.908 114.741 194.696C122.538 190.575 126.025 183.032 129.702 175.678C132.237 170.67 133.378 165.409 132.618 159.767C132.237 156.914 131.413 154.252 128.37 153.301C125.391 152.35 122.982 153.998 121.017 155.963C116.77 160.211 113.093 164.965 108.148 168.578C99.0197 175.298 88.9403 178.848 77.5296 178.594C75.1207 178.531 72.6484 179.545 70.3029 178.785C66.119 177.453 61.7449 177.834 57.4342 176.376C52.8066 174.791 48.2423 173.143 43.6147 171.494C41.9665 170.924 40.5084 171.494 39.3674 172.826C38.2263 174.157 38.5433 175.425 39.304 176.883C41.079 180.243 43.0441 183.476 46.4039 185.567C47.1646 186.011 49.0664 186.201 48.1789 187.85C47.1646 189.751 44.5655 190.195 43.1709 188.927C40.8254 186.772 38.6067 184.49 37.1486 181.637C35.5638 178.468 34.0424 175.235 33.5353 171.558C32.9647 167.31 36.9585 164.077 40.6352 164.711C45.7066 165.535 50.6512 167.12 54.2646 171.241C55.0887 172.192 56.1664 172.635 57.3074 172.699C67.8306 173.586 78.2903 174.22 88.6233 171.241C99.0831 168.261 107.324 162.176 114.044 153.935C116.262 151.209 118.671 148.8 121.461 146.645C126.469 142.904 132.427 143.855 136.041 149.053C139.654 154.188 139.908 159.894 138.957 165.726ZM109.543 169.339C111.445 167.564 113.156 165.282 115.438 164.331C116.579 163.887 117.403 166.55 117.72 168.008C117.657 170.227 116.896 171.621 114.868 172.255C112.712 172.889 111.191 172.065 109.923 170.48C109.733 170.1 109.479 169.466 109.543 169.339ZM117.847 183.412C117.974 181.764 118.862 180.686 120.32 180.052C120.383 179.989 120.51 179.989 120.763 179.989C122.221 180.94 123.933 182.081 123.553 184.046C123.172 185.821 121.841 187.406 120.51 188.737C120.256 188.991 119.495 189.117 119.432 188.991C118.101 187.342 117.72 185.441 117.847 183.412ZM145.613 120.02C151.382 114.378 157.911 109.75 165.518 106.961C165.645 106.897 165.899 107.024 166.469 107.214C161.334 109.75 156.39 112.159 152.143 115.582C148.719 118.308 145.043 120.844 143.521 125.408C143.141 126.549 143.014 127.183 144.345 127.31C144.092 128.768 143.331 129.972 142.634 131.304C141.619 127.944 142.76 122.746 145.613 120.02ZM148.529 124.33C146.881 124.774 145.803 125.915 144.599 126.993C145.233 125.091 146.184 123.506 148.466 123.316C150.494 123.126 151.826 124.077 152.967 126.613C151.255 125.281 150.304 123.887 148.529 124.33ZM161.842 282.875C166.279 273.62 173.823 269.055 184.029 268.929C186.818 268.929 189.481 269.309 192.143 270.196C197.722 272.098 200.511 275.521 199.877 281.29C198.292 296.251 186.501 307.091 169.449 301.385C161.398 298.66 158.165 290.609 161.842 282.875ZM182.444 258.596C183.522 261.385 184.283 264.238 183.775 267.28C183.332 264.428 182.888 261.512 182.444 258.596ZM201.335 294.539C203.427 294.539 201.652 296.061 202.476 296.631C202.983 296.187 203.49 295.744 203.998 295.3C204.568 296.821 202.793 297.709 202.856 299.42C204.948 298.406 205.075 296.314 206.153 294.793C204.948 305.506 191.826 314.634 179.465 313.24C181.113 312.606 182.888 313.493 184.79 311.782C182.571 312.226 181.557 311.275 181.303 309.943C181.049 308.549 182.571 308.549 183.458 308.168C184.029 307.915 184.156 307.661 183.839 306.964C183.395 306.077 183.141 305.126 182 305.062C180.225 304.999 178.514 305.062 176.739 304.935C189.544 305.316 196.644 298.026 200.891 286.869C201.715 287.756 201.081 288.453 200.828 289.087C200.511 289.848 200.004 290.545 199.687 291.369C199.18 292.891 199.053 294.539 201.335 294.539ZM201.208 319.896C200.574 320.276 200.004 320.276 199.56 319.706C198.99 319.009 199.497 318.501 199.94 318.121C202.476 316.156 205.012 314.254 207.548 312.289C207.04 316.346 204.124 318.121 201.208 319.896ZM209.069 316.853C207.864 319.199 206.026 320.72 203.998 322.051C203.554 322.305 202.983 322.495 202.54 322.051C202.349 321.925 202.223 321.354 202.286 321.227C204.441 319.579 206.153 317.17 209.069 316.853ZM203.807 310.007C204.251 309.69 204.822 309.5 205.265 309.88C205.773 310.324 205.773 310.958 205.456 311.592C204.251 314.254 200.131 316.283 196.834 315.459C199.243 313.62 201.525 311.782 203.807 310.007ZM195.63 312.796C195.249 312.099 196.01 311.655 196.517 311.401C198.926 310.007 200.765 307.535 204.315 306.393C202.54 309.88 200.067 311.465 197.595 312.986C196.898 313.43 196.073 313.557 195.63 312.796ZM165.201 302.336C171.35 302.463 171.794 307.535 173.696 311.275C170.019 309.183 167.674 305.886 165.201 302.336ZM136.421 340.055C135.597 342.717 135.724 345.507 135.28 348.233C134.583 343.732 135.534 339.484 137.182 335.3C137.752 337.012 136.865 338.533 136.421 340.055ZM194.806 340.435C194.235 342.147 194.108 343.858 191.763 344.619C190.115 345.19 188.847 346.965 187.642 348.423C186.501 349.754 185.931 350.578 183.585 349.754C181.176 348.93 177.943 349.944 175.344 350.832C174.076 351.275 176.041 351.275 176.105 351.782C173.569 352.48 171.667 351.783 170.463 349.31C169.132 346.584 172.175 345.316 172.428 342.844C171.414 342.527 169.639 345.443 169.068 341.893C169.512 346.901 166.533 350.388 165.518 354.762C167.23 352.86 168.434 352.924 170.273 354.508C172.999 356.854 177.563 356.22 180.479 354.001C181.366 353.367 182.761 352.353 183.902 353.241C184.916 354.001 185.17 355.586 184.599 356.727C183.775 358.312 183.078 360.34 180.606 359.897C179.908 359.77 179.274 360.15 178.958 360.594C174.964 365.348 166.469 367.44 160.891 365.285C148.593 360.531 148.466 352.29 153.41 341.45C154.044 340.055 155.376 338.85 154.742 337.139C154.678 336.949 154.171 336.695 153.981 336.758C152.079 337.392 152.333 339.294 151.762 340.689C150.938 342.717 150.241 344.873 149.924 347.028C149.67 348.613 147.325 348.232 147.515 350.515C147.832 353.557 148.402 356.41 149.67 359.199C143.204 358.819 138.45 354.572 137.816 348.296C137.372 343.922 137.943 339.675 140.161 335.744C140.795 334.667 141.239 333.462 141.746 332.321C142.063 331.687 142.253 331.053 141.619 330.673C140.669 330.102 140.415 330.99 139.971 331.56C139.02 332.765 139.21 334.73 137.435 335.3C137.372 334.857 137.752 333.525 136.865 334.92C135.344 337.202 134.646 339.928 134.519 342.717C134.456 344.049 134.519 345.38 134.519 346.965C129.511 342.527 127.8 333.335 130.526 326.552C131.16 324.967 131.984 323.509 132.618 321.925C134.329 317.741 137.499 315.902 141.936 315.649C149.1 315.205 156.136 314.001 163.046 311.782C163.743 311.528 164.441 311.401 165.138 311.085C168.751 309.69 169.322 309.88 171.794 313.684C169.195 314.698 166.596 315.395 163.87 315.522C162.729 315.585 160.637 315.332 160.827 316.853C161.017 318.755 162.856 317.487 163.934 317.297C165.772 317.043 167.61 316.536 169.512 316.536C166.533 318.121 163.553 319.579 160.637 321.227C159.559 321.861 157.848 322.939 158.926 324.397C159.94 325.728 161.398 324.651 162.539 323.826C166.533 320.784 170.907 318.185 175.788 315.395C175.217 317.551 174.076 318.755 173.189 320.023C172.555 320.91 171.858 321.671 171.287 322.559C170.59 323.7 169.512 325.348 171.097 326.109C172.618 326.806 173.252 324.967 173.823 323.763C174.457 322.305 175.027 320.847 175.788 319.452C178.45 314.571 184.283 314.127 187.769 318.565C189.607 320.91 191.446 323.383 192.777 326.045C194.108 328.581 195.82 330.926 194.679 334.476C193.918 335.681 195.566 338.153 194.806 340.435ZM199.053 333.462C198.736 333.779 196.771 332.384 196.517 331.497C195.44 327.376 193.284 323.763 190.812 320.276C190.051 319.199 190.241 317.741 190.939 317.614C192.333 317.297 190.939 315.205 192.46 315.459C193.791 315.015 194.299 315.839 194.869 316.663C197.468 320.276 199.243 324.334 200.955 328.454C201.906 330.8 200.321 332.067 199.053 333.462ZM203.998 328.581C206.216 327.376 208.055 325.918 209.703 323.953C209.83 328.074 207.167 330.229 203.998 328.581ZM201.589 325.475C204.505 323.319 207.294 321.291 210.02 319.262C208.752 324.46 205.963 326.362 201.589 325.475ZM225.488 255.046C224.473 260.751 222.445 265.759 217.31 268.992C216.613 269.436 215.789 269.753 215.535 270.894C216.739 271.845 217.88 270.513 219.212 271.147C216.676 276.789 212.746 281.417 208.879 286.108C207.928 287.312 207.231 286.932 206.66 285.537C205.646 283.192 204.378 281.037 203.49 278.628C201.715 273.937 198.102 271.147 193.728 269.309C192.397 268.738 192.08 268.168 192.143 266.773C192.46 252.7 198.165 240.656 205.709 229.245C207.231 226.963 208.815 224.744 210.59 222.589C211.541 221.448 211.098 220.75 210.273 219.926C207.991 217.898 205.709 215.806 203.49 213.714C202.666 212.89 201.969 212.256 200.891 213.397C192.714 221.701 184.916 230.259 181.303 241.733C180.416 244.522 180.479 247.312 181.24 250.164C179.845 247.312 179.782 244.206 179.148 241.226C176.612 228.421 171.794 216.44 166.152 204.712C164.314 200.845 164.314 200.845 168.625 201.162C177.499 201.859 186.311 203.444 194.362 207.058C205.899 212.192 213.887 221.448 220.353 232.161C224.473 239.261 227.009 246.614 225.488 255.046Z" fill="#1E1E1E"/>
<path d="M256.804 131.684C261.495 134.41 265.489 136.882 269.482 139.608C258.896 122.175 242.921 109.877 228.468 95.8674C227.77 97.3255 228.468 98.2764 228.658 99.2906C229.735 104.806 232.715 109.687 234.3 115.012C237.596 125.979 240.639 137.073 244.569 147.849C244.886 148.8 244.823 150.385 246.027 150.322C247.359 150.258 246.851 148.673 246.978 147.722C247.549 143.475 248.119 139.228 248.753 134.537C251.542 136.629 252.05 139.418 253.317 141.764C256.614 147.596 258.959 153.491 258.135 160.591C256.741 172.382 250.845 180.687 240.892 186.709C236.645 189.245 232.018 191.146 227.517 193.175C226.566 193.619 224.601 194.253 225.805 195.837C227.517 198.119 229.545 200.085 231.51 202.113C232.525 203.191 233.412 202.177 234.3 201.606C239.878 198.183 245.584 195.013 250.401 190.576C255.156 186.265 260.544 182.208 263.08 176.186C267.707 165.092 268.468 153.745 262.763 142.524C261.051 139.101 258.833 135.805 256.804 131.684Z" fill="#1E1E1E"/>
<path d="M171.033 363.51C165.835 365.032 161.144 363.827 156.77 361.038C159.559 365.349 166.912 366.616 171.033 363.51Z" fill="#1E1E1E"/>
<path d="M86.0862 160.084C93.1861 164.965 101.617 159.957 103.329 153.681C104.977 147.532 105.801 141.32 105.104 134.473C104.977 132.698 104.787 130.48 104.597 128.261C103.963 121.351 102.188 114.948 97.8138 109.243C91.7915 101.319 82.9166 103.601 79.0496 110.828C73.4077 121.288 74.1684 132.571 76.1336 143.855C77.338 150.638 80.2541 156.09 86.0862 160.084ZM79.43 113.3C82.7898 105.63 90.2701 104.108 96.0388 110.131C99.3986 113.681 101.427 117.864 102.188 122.619C103.582 131.367 104.85 140.115 103.139 148.99C102.568 151.779 101.808 154.505 99.8423 156.724C95.6584 161.478 90.7138 161.859 85.6424 158.055C81.205 154.759 79.2398 150.068 78.0353 144.996C76.8943 140.052 76.3237 135.044 76.5139 129.846C76.3871 124.204 77.0845 118.689 79.43 113.3Z" fill="#1E1E1E"/>
<path d="M183.52 281.48C182.315 282.241 180.73 283.065 180.73 284.904C187.26 284.016 192.205 280.022 197.529 276.599C192.331 276.916 187.704 278.755 183.52 281.48Z" fill="#1E1E1E"/>
<path d="M179.272 287.312C180.413 287.883 180.413 289.024 180.794 289.975C182.252 293.398 184.534 295.934 188.02 297.392C186.499 293.905 184.217 290.926 181.935 288.01C181.174 287.122 180.477 286.298 180.667 285.03C179.843 284.84 178.828 284.206 178.258 285.347C177.751 286.235 178.448 286.932 179.272 287.312Z" fill="#1E1E1E"/>
<path d="M180.669 284.967C180.732 284.967 180.732 284.903 180.732 284.903C180.669 284.903 180.669 284.903 180.669 284.967C180.605 284.967 180.605 284.903 180.669 284.967C180.605 284.967 180.605 284.967 180.669 284.967C180.669 285.03 180.669 285.03 180.669 284.967C180.732 285.03 180.669 285.03 180.669 284.967Z" fill="#1E1E1E"/>
<path d="M50.2696 120.844C48.3044 117.547 44.1839 116.913 42.4723 119.576C40.0634 123.379 40.317 127.627 40.5706 131.874C40.6974 134.22 43.4866 133.966 44.6911 135.361C44.8813 135.614 45.1982 135.741 45.4518 135.995C49.0018 138.911 48.9384 138.911 44.9446 141.32C43.6768 142.08 41.6482 142.334 41.8384 144.426C42.2188 148.103 42.5991 151.779 44.8813 154.886C46.4661 157.041 48.6848 157.611 51.2839 157.231C53.883 156.851 54.6437 154.886 54.9607 152.73C55.2142 151.399 55.2142 150.004 55.2776 148.61C54.7705 142.207 54.1999 135.804 52.9955 129.465C52.3616 126.486 51.8544 123.506 50.2696 120.844Z" fill="#1E1E1E"/>
<path d="M85.2616 131.177C87.7973 132.381 90.2696 133.713 93.4392 135.297C92.2348 135.931 91.6643 136.248 91.0937 136.502C83.2331 140.179 83.2331 140.179 85.4518 148.546C86.5929 152.857 89.6357 155.266 93.566 154.949C97.2428 154.696 99.7151 151.843 100.095 147.342C100.603 141.637 100.476 135.995 99.8419 130.289C99.3347 125.915 98.891 121.478 97.116 117.357C95.7214 113.998 92.6151 111.779 89.9527 112.032C86.8464 112.286 84.5009 114.695 83.6134 118.562C82.8527 121.668 83.1063 124.838 83.1697 128.007C83.2331 129.592 83.867 130.48 85.2616 131.177Z" fill="#1E1E1E"/>
</svg>
