<svg width="156" height="295" viewBox="0 0 156 295" fill="none" xmlns="http://www.w3.org/2000/svg">
<path d="M155.701 176.306C154.766 174.666 154.205 172.915 153.682 171.126C152.859 168.331 151.176 166.244 148.819 164.53C146.239 162.629 143.209 162.406 140.329 162.07C137.15 161.698 134.158 160.803 131.165 159.909C126.939 158.679 123.124 156.294 118.972 154.952C113.362 153.126 107.789 151.3 101.842 150.592C95.446 149.847 89.125 149.251 82.6917 150.294C79.2507 150.853 75.7349 150.63 72.2564 150.481C71.284 150.443 70.5733 150.033 70.4611 148.953C70.2741 146.903 69.152 145.226 68.1796 143.512C66.7583 140.978 66.8705 138.779 68.8528 136.58C69.8253 135.5 70.7229 134.046 72.3312 134.046C76.4081 134.046 80.485 134.382 84.5245 135.09C88.4891 135.798 92.4912 135.649 95.9322 133.301C98.0268 131.885 100.57 130.655 101.019 127.711C101.243 126.22 101.879 125.065 103.076 124.171C104.161 123.351 104.647 122.307 104.049 120.929C103.824 120.37 103.562 119.736 104.086 119.177C105.507 117.686 105.657 115.86 105.283 113.96C105.171 113.326 105.283 112.805 105.619 112.208C106.106 111.351 106.629 110.42 106.742 109.488C107.078 106.991 105.283 105.799 102.216 106.208C101.617 106.283 100.608 107.028 100.308 105.91C100.046 104.904 99.4107 103.712 100.57 102.817C102.515 101.327 104.049 99.5006 105.096 97.3392C106.368 94.7306 107.714 92.271 109.734 90.0723C111.342 88.3208 112.726 85.8612 112.015 83.1036C111.155 79.9359 110.893 76.7683 111.604 73.5635C111.753 72.8927 111.417 72.4082 111.118 71.8492C110.22 70.0232 109.547 68.1971 109.996 66.0357C110.631 63.0172 111.791 60.1477 112.202 57.0919C112.502 54.8932 112.24 52.6572 112.876 50.5331C113.549 48.2971 114.147 46.0611 116.915 45.5021C117.364 45.3903 117.588 45.0177 117.85 44.645C120.206 41.0302 119.084 38.4961 114.895 37.6018C113.96 37.4154 112.315 37.2664 112.801 35.7012C113.661 32.9808 111.118 32.9435 109.996 31.8628C108.499 30.4094 108.799 32.5708 108.238 32.9435C107.578 33.3813 106.98 33.8953 106.45 34.4716C105.404 35.6096 103.628 35.7282 104.348 34.3596V34.3596C104.909 33.2416 105.657 32.2354 105.732 30.9311C105.769 30.5957 105.993 30.5957 106.255 30.5585C108.051 30.2231 107.303 29.515 106.555 28.7697C105.919 28.1362 104.759 27.9499 104.797 26.7573V26.7573C104.807 26.342 104.157 22.076 104.214 21.6645C104.246 21.4358 104.275 21.2071 104.31 20.9811C104.46 19.9749 104.348 18.9687 103.375 18.3352C102.478 17.739 101.543 17.8508 100.57 18.3725C99.3359 19.0433 98.1764 20.0867 96.6429 19.9377C93.5759 19.6023 91.7057 21.2047 90.5089 23.7388C90.2096 24.4096 90.0974 24.2978 89.4616 24.0742C87.6663 23.4034 86.2824 22.509 86.2824 20.3476C86.2824 20.0122 86.0206 19.6395 85.7587 19.4159C84.0008 17.7762 84.3374 15.7266 84.8985 13.8633C85.2725 12.6335 85.7961 11.441 86.2076 10.2112C87.4419 6.26103 90.3592 4.435 94.1743 3.61514C94.7353 3.50335 95.7826 3.95054 95.8574 2.94436C95.9322 2.19904 95.072 1.90091 94.5109 1.52825C94.1369 1.26739 93.6133 1.11832 93.127 1.00652C89.6486 0.261203 86.1328 -0.185989 82.5795 0.0748727C81.0834 0.186671 79.4003 0.484799 78.2782 1.67731C75.9219 4.13687 74.164 6.93182 74.164 10.5466C74.164 12.7826 74.0892 15.0185 74.0144 17.2172C73.9395 18.8569 73.1915 19.4532 71.4336 19.1923C68.404 18.7451 65.4118 18.8942 63.9531 22.2854C63.018 24.5214 61.3723 24.7077 59.3526 24.2978C58.6045 24.1487 57.8565 24.0742 57.1458 23.8879C50.3386 22.2109 43.7557 22.6581 37.3225 25.5276C32.4227 27.689 27.5978 29.925 22.8477 32.3472C16.6389 35.5521 11.0659 39.3533 7.36306 45.5394C5.53033 48.5952 4.59527 51.7256 4.44566 55.1913C4.40826 55.6012 4.33345 56.123 4.89449 56.272C5.15631 56.3466 5.64254 56.272 5.75475 56.123C7.28825 53.6261 10.1682 52.5082 11.8514 50.1977C12.7116 49.0052 13.7589 48.1853 15.1428 47.589C17.7984 46.3965 20.3043 44.8686 22.8477 43.4525C26.4383 41.4402 29.6924 38.9433 33.3952 37.1546C35.7516 35.9993 38.3323 35.9993 40.8009 35.3658C43.6061 34.6205 46.3739 34.3223 49.1791 35.4403C52.9567 36.931 56.4352 38.9806 59.9136 40.993C61.3349 41.8128 61.5219 43.6016 61.9333 45.055C62.1203 45.7257 61.3723 45.8748 60.8487 46.0611C59.3526 46.6201 57.7068 46.9555 56.3604 47.8872C51.124 51.502 46.3365 55.564 42.7458 60.9303C40.9879 63.5389 38.9682 65.9985 37.6591 68.9052C37.0233 70.3213 36.6866 71.9983 35.9012 73.079C34.8165 74.4951 34.2181 76.023 33.5074 77.5509C33.283 78.0354 33.0212 78.6689 33.6196 79.0788C34.1433 79.4142 34.5547 78.9298 34.9661 78.6689C36.6118 77.6627 37.9209 76.2466 39.3796 75.0168C42.8206 72.0728 46.6731 69.6505 49.8523 66.4084C51.5354 64.6941 53.1811 62.9426 55.0139 61.3402C57.5572 59.1415 60.6616 56.8683 63.8409 57.7627C67.3567 58.7688 70.8725 59.1042 74.3884 59.6632C74.7384 59.7097 75.0885 59.8143 75.4567 59.9316C75.7897 60.0376 76.0102 60.5509 75.6975 60.7067V60.7067C75.3234 60.9303 74.912 61.0793 74.5006 61.2657C68.778 63.3898 63.1302 65.5885 57.8939 68.7934C56.9588 69.3524 55.9489 69.8741 54.9017 70.284C50.6378 72.0356 47.1967 74.756 44.99 78.8552C44.0175 80.644 43.1573 82.5073 42.2596 84.2961C40.0529 88.6189 37.6591 92.7927 34.8165 96.7057C33.4326 98.6062 32.2731 100.656 31.4129 102.817C29.3183 107.997 28.1589 113.475 27.2238 118.953C26.2887 124.394 26.2887 129.947 26.3635 135.462C26.4009 138.295 26.0643 141.164 26.7002 143.996C27.5978 147.984 28.0466 152.008 28.0092 156.108C28.0092 158.865 27.1116 161.735 28.1963 164.381C29.6924 168.033 30.0664 171.759 30.0664 175.635C30.0664 183.126 33.1708 188.865 39.9032 192.479C40.1651 192.628 40.3147 192.927 40.5391 193.15C44.4664 197.361 47.0845 202.429 49.9645 207.348C50.6378 208.541 51.685 209.771 51.7599 211.075C51.8721 214.205 52.7697 217.224 52.6575 220.429C52.5079 223.82 52.2087 227.025 50.5256 230.118C47.7204 235.223 43.4939 239.062 39.3796 242.975C38.7438 243.571 38.2949 243.496 37.9209 242.751C37.3599 241.633 36.4248 240.925 35.4149 240.292C30.4778 237.348 25.2415 236.341 19.5563 237.646C15.1802 238.652 11.1033 240.031 8.29812 243.832C7.58747 244.764 7.36306 244.018 7.17604 243.347C6.42799 240.478 6.83942 237.534 6.83942 234.627C6.83942 233.994 6.95163 233.286 6.16618 233.099C5.41813 232.913 4.89449 233.397 4.48306 234.031C4.10904 234.627 3.99683 235.298 3.88462 235.969C3.69761 237.385 3.47319 238.764 3.21138 240.143C2.57553 243.683 2.35112 247.223 2.65034 250.838C3.02436 255.198 2.87475 259.484 0.406187 263.359C-0.00524043 263.993 -0.267058 264.85 0.44359 265.409C1.15424 265.931 1.75268 265.223 2.16411 264.775C3.43579 263.359 4.74488 261.943 5.90436 260.415C7.77448 257.956 9.42019 255.347 11.4025 252.962C14.0955 249.683 17.5739 247.26 21.3142 245.248C21.8752 244.95 22.5859 244.54 22.4363 243.906C22.2493 243.161 21.389 243.496 20.7906 243.496V243.496C19.0867 243.524 18.5849 242.262 20.2496 241.898C23.8056 241.121 27.6474 241.428 30.6648 242.863C32.0113 243.496 32.9838 244.503 33.8066 245.695C34.3303 246.441 34.4051 246.925 33.5074 247.67C31.6747 249.161 29.5053 250.055 27.5604 251.36C24.082 253.707 20.0799 255.31 16.6389 257.769C12.375 260.788 7.62487 263.583 6.05397 269.21C3.80982 277.26 8.29812 282.141 15.8534 282.961C18.4716 283.259 21.015 282.551 23.4461 281.433C28.5329 279.123 33.6196 277.073 37.0233 272.117C41.4367 265.707 42.8954 258.962 41.1375 251.434C40.7635 249.869 40.2025 248.565 42.2222 246.925C44.6908 244.875 47.1219 242.639 49.3661 240.217C51.7224 237.646 53.817 234.851 55.0887 231.758C58.2305 224.118 58.3053 216.106 56.4352 208.131C55.4253 203.92 54.2284 199.746 51.7973 196.02C51.3484 195.349 50.8622 194.305 52.0591 194.082C54.8643 193.485 57.6694 192.591 60.5868 194.194C63.8035 195.945 67.2819 197.473 71.0221 197.436C76.4829 197.361 81.9437 197.436 87.4044 197.287C93.2392 197.138 99.074 197.138 104.871 196.057V196.057C106.441 195.781 107.293 197.413 106.115 198.486C105.654 198.907 105.206 199.328 104.797 199.783C102.889 201.908 101.206 204.218 98.5878 205.783C94.9597 207.945 91.7805 210.777 89.873 214.727C88.4517 217.671 86.9556 220.578 85.4969 223.522C85.2378 224.053 84.9842 224.589 84.67 225.088C83.9499 226.232 82.428 225.067 81.1582 224.603V224.603C79.9613 224.193 79.4751 225.013 78.9141 225.758C76.6699 228.888 73.9021 231.161 70.0497 232.354C68.7032 232.764 66.9079 233.621 65.8606 235.149C63.205 239.099 64.4393 242.788 67.7681 246.142C70.5359 248.937 70.2367 248.192 68.1048 251.248C67.9925 251.397 67.8429 251.509 67.7307 251.658C67.2071 252.403 66.8705 252.85 65.8232 252.068C64.5141 251.136 63.2424 251.658 62.4944 253.148C62.0455 254.043 61.7463 254.974 61.2601 255.832C60.6991 256.838 60.512 258.067 59.5022 258.85C57.9687 259.968 56.9214 261.757 55.0887 262.39C53.2185 263.024 53.4056 265.372 51.1614 266.005C49.1417 266.601 48.9547 272.303 50.563 273.98C52.8071 276.328 55.3505 278.303 58.4175 279.533C64.4019 281.88 70.3863 284.154 75.9967 287.247C80.7094 289.818 85.3847 292.315 90.4715 294.104C93.3889 295.11 96.3437 295.035 99.2985 294.961C100.383 294.924 101.43 294.514 102.403 293.843C105.058 292.054 107.639 290.042 110.893 289.371C111.791 289.185 112.651 288.7 113.624 289.147C114.559 289.557 115.569 290.265 116.466 289.073C117.439 287.769 117.663 286.352 116.84 284.862C116.092 283.52 113.736 283.036 112.838 284.191C111.679 285.719 110.22 285.644 108.686 285.421C105.021 284.899 101.43 283.744 97.6527 283.856C97.3535 283.856 97.0543 283.669 96.7925 283.595C89.6486 281.321 84.7489 276.44 81.0834 270.104C80.5224 269.136 80.5972 268.055 80.8964 267.011C81.1956 266.005 81.7193 265.111 82.3177 264.216C82.7291 263.62 83.5146 262.8 82.6917 262.055C81.7567 261.235 82.5795 260.9 83.0284 260.751C84.1504 260.341 85.2351 260.117 86.3198 261.123C87.4793 262.167 88.4143 263.322 89.125 264.738C90.06 266.676 91.4439 267.831 93.8751 267.98C96.8673 268.129 99.8221 267.347 102.777 267.868C106.181 268.502 109.547 268.427 112.614 266.825C114.97 265.595 117.551 265.26 119.945 264.291C120.393 264.105 120.805 263.918 121.366 264.142C123.086 264.924 123.685 263.546 124.321 262.465C124.807 261.645 124.657 260.676 123.797 260.154C123.049 259.707 122.114 259.782 121.59 260.527C120.543 261.98 119.197 261.869 117.775 261.571C115.83 261.161 113.923 260.564 111.94 260.341C103.749 259.297 98.4008 254.378 94.3239 247.708C93.8003 246.85 93.7255 245.844 94.5109 245.136C96.1566 243.646 97.3909 241.708 99.261 240.441C102.627 238.093 105.956 235.782 109.36 233.509C116.317 228.851 122.226 223.075 127.163 216.292C129.146 213.572 131.278 211.038 133.971 208.951C137.075 206.529 140.591 204.516 142.985 201.237C145.154 198.218 148.071 195.535 147.81 191.287C147.772 190.84 148.034 190.281 148.371 189.945C150.315 188.119 151.699 185.809 153.906 184.244C155.44 182.976 156.562 177.834 155.701 176.306ZM36.724 262.539C35.4149 266.341 33.2456 269.396 30.3656 272.042C28.2711 273.943 25.6155 275.024 23.1469 276.365C21.202 277.446 19.2197 277.744 17.0503 277.781C16.5267 277.744 15.8908 277.707 15.255 277.669C11.2529 277.297 9.495 274.353 10.8041 270.477C11.5895 268.129 13.2727 266.527 15.0306 265.036C18.6212 261.943 22.4363 259.223 26.6628 256.987C29.4305 255.533 32.0113 253.67 34.5921 251.919C36.3874 250.689 36.911 250.726 37.3973 252.776C38.2201 256.092 37.8461 259.297 36.724 262.539ZM88.1632 123.481C88.3715 124.892 86.269 125.137 85.6091 123.873V123.873C84.9359 122.494 83.739 122.307 82.4673 122.419C81.4574 122.494 80.5224 122.755 81.3452 124.133C81.4949 124.394 81.8315 124.841 81.3826 125.102C80.9338 125.326 80.3728 125.363 80.0736 124.841C79.3629 123.574 78.0538 122.904 76.9317 122.121C76.5687 121.85 76.3036 121.591 76.1264 121.314C75.6301 120.54 76.6403 119.597 77.1936 120.332V120.332C78.7271 122.345 80.6346 121.525 82.3551 121.003C83.8886 120.556 85.1977 120.891 86.432 121.562C87.4889 122.117 88.0423 122.663 88.1632 123.481ZM79.5125 111.836V111.836C80.9217 112.02 81.391 112.948 80.2118 112.155C79.9832 112.001 79.7523 111.881 79.5125 111.836ZM87.18 109.003C87.2548 107.774 88.1899 106.879 89.499 106.805C90.8455 106.73 92.4538 107.997 92.1172 108.854C91.9303 109.333 91.6435 109.608 91.2907 109.758C89.8511 110.371 87.0996 110.566 87.18 109.003V109.003ZM99.7709 127.167C99.6685 127.707 98.7102 126.985 99.1753 126.693V126.693C99.4378 126.527 99.8383 126.692 99.7977 127C99.7902 127.057 99.7812 127.112 99.7709 127.167ZM102.627 123.015V123.015C101.626 123.714 99.8889 122.12 100.741 121.246C100.824 121.16 100.917 121.079 101.019 121.003C101.468 120.668 101.879 119.587 102.59 120.593C103.076 121.338 103.749 122.233 102.627 123.015ZM101.954 111.873C102.889 111.687 103.45 111.575 102.814 110.531C102.59 110.121 102.44 109.711 102.964 109.413C103.936 108.892 103.45 108.556 102.852 108.146C102.59 107.96 102.44 107.625 102.665 107.326C102.889 107.028 103.226 107.177 103.525 107.252C105.096 107.55 105.956 109.078 105.171 110.457C104.273 112.059 103.936 113.587 104.273 115.413C104.349 115.841 104.353 116.233 104.286 116.591C103.9 118.661 102.143 116.849 101.281 114.929V114.929C100.757 113.736 100.234 113.065 98.7 113.662C96.5681 114.482 94.3613 115.19 92.0424 115.227C91.4065 115.227 90.4715 115.488 90.3218 114.631C90.1348 113.624 90.0974 112.506 90.5463 111.538C90.7707 111.053 91.2195 111.426 91.4065 111.724C92.3416 113.14 93.5385 112.916 95.072 112.805C97.3909 112.73 99.6725 112.32 101.954 111.873ZM96.6055 107.401C97.5779 107.662 97.6901 108.482 97.6901 109.302C97.6901 109.935 97.2787 110.42 96.7177 110.494C95.7826 110.606 95.4834 109.786 95.2216 109.115C94.9972 108.482 94.9598 107.774 94.8476 107.14C94.8102 106.842 94.8102 106.358 94.6605 106.283C94.2491 106.097 93.2018 106.693 93.7255 105.463C94.0621 104.681 94.5109 103.674 95.4086 103.674C96.4933 103.712 97.7649 103.451 98.6626 104.42C98.9333 104.712 99.0952 105.014 99.1728 105.326C99.409 106.274 97.8435 106.244 96.8673 106.283V106.283C96.3437 106.32 95.7452 106.395 95.6704 106.917C95.5582 107.55 96.2314 107.289 96.6055 107.401ZM103.001 26.0866C103.637 25.9748 103.787 26.571 103.749 27.0927V27.0927C103.686 27.9132 102.478 27.863 101.859 27.3213C101.69 27.1737 101.58 26.9942 101.58 26.7573C101.58 25.9375 102.515 26.1611 103.001 26.0866ZM100.807 32.1822C100.946 31.4898 101.82 31.6871 101.628 32.3666V32.3666C101.46 32.9591 100.697 33.121 100.758 32.5083C100.769 32.397 100.786 32.2884 100.807 32.1822ZM100.421 24.894C101.655 23.8133 102.478 22.6953 101.58 20.9811C101.356 20.5712 101.842 19.9749 102.365 19.9377C103.001 19.9004 103.188 20.4967 103.188 20.9438C103.151 21.9128 103.188 22.9189 102.253 23.5897C101.841 23.8927 101.415 24.2082 101.153 24.675C100.914 25.1006 100.023 25.1771 100.421 24.894V24.894ZM88.938 36.2229V36.2229C89.7584 35.785 89.6677 37.85 88.9754 37.2291V37.2291C88.7135 36.9682 88.6761 36.3347 88.938 36.2229ZM85.3212 26.7192C85.5296 26.0759 86.1692 26.7427 85.9974 27.3967V27.3967C85.8347 28.0159 85.0948 27.9973 85.1772 27.3625C85.2059 27.1419 85.2538 26.9276 85.3212 26.7192ZM83.1406 45.3158C84.5619 45.0177 85.2725 45.9121 85.5343 46.8065C85.8709 47.8872 84.7115 48.148 83.8512 48.2226C83.0284 48.2971 82.8787 48.5952 82.8787 49.3778C82.8411 50.4289 82.718 51.0262 82.2468 51.3316C81.5588 51.7776 81.1107 50.2658 81.0086 49.4523V49.4523C81.0086 49.3405 80.7842 49.117 80.672 49.117V49.117C80.3235 49.1459 79.9632 49.2337 79.9223 48.8864C79.6572 46.6389 80.5316 45.8357 83.1406 45.3158ZM68.6284 55.4149C68.591 56.1602 66.0476 56.1602 65.1874 55.4894C63.9531 54.4833 63.1676 52.9181 61.3723 52.5827C61.1853 52.5454 60.9609 52.061 60.9983 51.8001C61.0731 51.1293 61.8959 51.2784 62.1203 51.2784C62.2476 51.2764 62.3741 51.2724 62.4996 51.2664C66.0008 51.1001 68.7539 51.912 68.6284 55.4149V55.4149ZM73.1915 36.7446C72.7216 38.1492 72.2216 39.5237 71.7185 41.0029C71.6308 41.2607 71.2898 41.4087 71.097 41.2166V41.2166C69.0772 39.2042 67.9177 36.4838 65.4866 34.8441C65.2248 34.6577 65.2996 34.2851 65.4492 33.9869C65.6362 33.6888 65.8606 33.8751 66.085 33.9497C68.0673 34.9186 70.2367 35.0677 72.3686 35.3658C73.3411 35.5521 73.4533 35.962 73.1915 36.7446ZM73.3411 28.2107C72.7801 26.7201 72.3312 25.1549 71.1344 24.0369C70.9099 23.8133 70.7603 23.5152 70.9473 23.2171C71.1718 22.8444 71.5084 22.8444 71.9198 22.9562C73.3411 23.3289 74.7998 23.6643 75.9967 24.6332C76.8569 25.3412 77.605 26.1983 78.9141 25.7884C79.2703 25.6792 79.4257 25.89 79.5717 26.3036C79.6634 26.5635 79.4852 27.0261 79.2133 26.9809V26.9809C77.8294 26.7946 77.5676 27.9871 76.9317 28.7324C75.6975 30.2231 74.0518 29.9995 73.3411 28.2107ZM79.9988 61.2657C82.6917 60.9675 85.4595 60.893 88.1525 60.6694C90.9203 60.4458 94.2491 62.4582 94.9598 65.1041C95.9322 68.8679 98.5504 71.9237 99.2236 75.7994C99.4107 76.8429 99.4481 77.8863 99.5977 78.9298V78.9298C99.796 80.2474 100.955 79.7324 101.188 78.4204C101.562 76.3087 101.861 74.219 100.682 72.1101C100.421 71.6629 100.271 71.0294 100.682 70.5076C101.991 68.9425 101.58 67.1164 101.617 65.3277C101.692 63.0917 101.43 60.9303 100.982 58.7688C100.869 58.2471 100.72 57.5763 101.505 57.39C102.365 57.2037 102.365 57.9117 102.44 58.4335C102.852 61.2284 103.188 64.0606 103.562 66.8556C103.6 67.2655 103.263 67.8245 103.936 67.8618C104.423 67.899 104.684 67.4518 104.684 66.9674C104.909 63.7252 106.218 60.7067 106.368 57.4645C106.405 56.682 106.742 55.8994 107.078 55.1913C108.462 52.2473 108.986 49.0424 110.033 45.9866C110.519 44.496 111.492 43.4898 112.801 42.6327C113.437 42.2227 113.923 41.6637 114.484 41.1793C114.82 40.8812 115.195 40.5458 115.045 40.0986C114.858 39.5023 114.334 39.875 113.923 39.8377C112.464 39.7259 111.417 38.8315 110.706 37.7135C110.183 36.8564 109.734 36.7074 108.948 37.1918C108.088 37.6763 108.2 38.2353 108.724 38.8688C109.435 39.6886 108.948 40.024 108.238 40.5458C104.946 43.0053 101.58 43.0426 98.0268 41.2166C97.0543 40.7321 96.7925 39.6514 96.6429 38.9061V38.9061C96.0409 36.1643 98.0578 33.4798 96.6298 31.0631C95.9994 29.9963 94.8498 29.2083 93.3515 29.0306C92.9774 28.9933 92.5286 29.1051 92.4164 28.6206C92.3042 28.2107 92.6408 27.8381 92.9774 27.7635C94.2117 27.5772 94.9598 26.012 96.4185 26.6083C98.1764 27.3163 98.9244 28.5834 98.8496 30.5585C98.7748 32.1609 99.3733 33.7261 99.9717 35.2167C101.356 38.7943 105.806 39.5769 108.2 37.0428C108.649 36.5583 109.098 35.962 109.659 35.6267C110.257 35.254 110.407 34.136 111.379 34.4341C112.389 34.7695 111.492 35.6267 111.679 36.2229C111.978 37.2664 112.352 38.0862 113.549 38.2725C114.259 38.3843 114.97 38.6452 115.718 38.6825C117.214 38.7943 118.299 39.5396 118.262 41.0302C118.224 42.5954 117.551 43.9742 115.868 44.6078C113.96 45.3531 112.801 46.881 112.202 48.7816C110.968 52.62 111.005 56.7192 109.921 60.5576C109.547 61.9365 109.135 63.3153 108.911 64.6941C108.537 66.632 108.499 68.5698 109.36 70.5076C110.145 72.3337 110.332 74.3088 109.883 76.3211C109.397 78.4453 109.397 80.5695 110.257 82.6564C111.155 84.8178 110.482 86.942 108.986 88.3581C106.555 90.7431 105.208 93.6498 103.712 96.5566C103.301 97.3764 102.627 98.0472 102.066 98.7926C101.617 99.3888 101.206 99.3515 100.682 98.8298C100.159 98.3081 100.271 97.9727 100.682 97.4137C102.44 95.1032 103.6 92.4573 104.572 89.7369C104.722 89.327 104.871 88.8425 104.273 88.6562C103.824 88.5071 103.637 88.9171 103.413 89.2152C103.226 89.476 103.001 89.7369 102.964 89.9978C102.403 93.389 99.1862 94.9169 97.5779 97.5255C97.3959 97.8157 97.1829 97.9315 96.9582 97.9681C96.4699 98.0476 95.1861 97.0216 94.7353 96.8174V96.8174C93.4637 96.2212 94.3239 94.5442 94.8101 93.7989C95.5582 92.6437 95.2216 91.0039 96.5307 90.1468C96.6803 90.035 96.7551 89.6251 96.4559 89.5133C96.2688 89.4388 95.9322 89.476 95.82 89.6251C95.7273 89.7236 95.6367 89.8231 95.5469 89.9226C95.0308 90.4947 94.4991 90.1933 95.0265 89.6317V89.6317C95.4937 89.1343 95.2096 88.4085 94.6855 87.9716C94.2747 87.629 94.3426 87.118 95.1842 86.3457C95.4834 86.0476 95.6704 85.5631 95.259 85.414C93.4637 84.706 94.6979 83.8116 95.072 82.9918C95.259 82.6191 95.6704 82.1719 95.2216 81.8365C94.6979 81.4639 94.4735 82.0974 94.2865 82.3955C93.5385 83.6253 92.5286 84.8178 92.2668 86.1221C91.7057 89.1034 89.4616 89.9978 87.1052 90.8549C86.2451 91.1654 85.3726 91.4055 84.4806 91.5849C83.1246 91.8577 82.47 89.4314 83.7764 89.886V89.886C84.0008 89.9605 84.5619 89.6996 84.5619 89.5878C84.5689 89.1757 84.6968 88.8448 84.8973 88.5627C86.5205 86.2785 88.4493 83.1776 90.5089 81.2775V81.2775C91.7431 80.1223 90.9203 79.1906 90.9951 78.259C91.0699 77.141 90.7333 76.023 90.9203 74.7932V74.7932C91.0899 73.7452 90.665 72.9804 90.136 72.0599C90.0171 71.8529 89.8315 71.6339 89.5738 71.402C89.376 71.2277 89.2199 71.0147 89.0824 70.7843C88.2325 69.3604 85.6737 67.6615 85.3473 66.0357V66.0357C85.0855 64.6569 84.0008 64.5451 83.0658 64.3215C82.1307 64.0979 81.1582 63.5016 80.0736 64.2097C79.5499 64.5451 78.6149 64.9923 78.5027 63.5762C78.4278 62.9799 77.792 63.129 77.418 63.3153C76.0715 64.0234 74.3884 63.7252 73.1915 64.8059V64.8059C72.648 65.2933 72.2664 64.1999 72.8645 63.7813C74.9805 62.3003 77.427 61.5707 79.9988 61.2657ZM64.2854 66.8555C65.3003 66.4194 65.7577 67.3221 64.7588 67.7936V67.7936C63.6942 68.296 63.2039 67.3202 64.2854 66.8555V66.8555ZM52.6282 72.5989C53.0691 72.4207 53.7491 72.6096 53.3993 72.9318V72.9318C52.9807 73.3175 52.1004 72.8121 52.6282 72.5989V72.5989ZM50.4882 111.277C51.6102 109.972 51.2362 108.817 50.75 107.55C50.6004 107.215 50.8622 107.103 51.124 107.066C52.3957 106.917 53.4056 106.283 54.378 105.463C54.7521 105.128 55.6497 104.867 55.9489 105.053C58.0061 106.544 59.39 105.091 60.8487 104.047C63.1676 102.407 65.9354 101.997 68.4788 100.991C70.0871 100.358 71.6954 99.5379 72.406 97.8236C73.0045 96.4075 74.6502 95.9231 75.1364 94.4324C75.2112 94.1716 75.6601 94.507 75.9593 94.6188C76.4829 94.7678 76.4455 95.1405 76.2585 95.4759C75.8471 96.1839 75.5479 96.9665 74.9868 97.5255C71.9946 100.656 68.8154 103.637 64.7011 105.351C62.4196 106.32 60.0258 106.954 57.4824 106.581C56.2481 106.395 56.323 107.326 56.2856 107.997C56.1733 109.674 55.4253 110.494 53.7048 110.42C53.256 110.382 52.5079 110.196 52.5453 110.904C52.5827 111.538 53.443 111.687 53.9292 111.538C55.6871 111.053 57.4824 111.165 59.2404 111.165C62.2326 111.165 65.0377 111.91 66.9079 114.556C67.1697 114.929 67.4315 115.227 67.8429 115.376C70.6855 116.308 73.0045 117.985 74.725 120.407V120.407C75.2544 121.137 74.0384 121.208 73.3137 120.671C71.992 119.691 70.2291 119.296 69.3016 117.91C67.2071 114.78 63.6538 114.444 60.5868 113.624C58.4175 113.028 55.9115 112.618 53.5178 113.214C52.9193 113.364 52.2835 113.289 51.6476 113.177C50.563 113.028 50.0767 111.724 50.4882 111.277ZM55.7245 158.716C54.1162 158.754 52.3583 159.052 51.2362 157.375C51.0113 157.055 50.814 157.092 50.5998 157.209C50.1207 157.472 49.9356 157.033 50.4091 156.761V156.761C51.0491 156.393 51.8989 155.683 51.3068 155.242C51.1291 155.11 50.942 154.993 50.75 154.878C50.376 154.654 49.7401 154.543 50.0393 154.021C50.4134 153.387 50.8996 153.984 51.2736 154.244C51.6476 154.468 51.9095 154.841 52.2461 155.139C52.7323 155.623 53.3308 155.921 53.8918 155.4C54.5276 154.766 53.7422 154.468 53.443 154.095V154.095C53.3081 153.927 53.525 153.765 53.7188 153.859C54.7031 154.336 55.9567 154.205 56.7718 155.288C57.2954 155.959 58.9411 155.213 59.0159 154.878C59.2778 153.834 59.4648 154.393 60.0258 154.543C60.9609 154.803 61.7837 155.772 62.9806 155.064C63.6165 154.692 64.1027 154.095 63.7287 153.611C62.644 152.083 62.3448 150.22 61.4845 148.729C60.5494 147.052 60.3998 144.779 58.4549 143.698V143.698C58.092 143.517 58.519 142.885 58.9118 142.785C60.0488 142.494 60.894 143.598 61.8211 143.884C63.3172 144.294 64.7759 144.22 66.1598 144.145C67.2445 144.071 67.3941 144.443 67.8429 145.114C69.8627 148.282 69.8627 151.934 70.3115 155.511C70.7229 158.791 70.7229 158.828 67.2819 158.53C63.4294 158.157 59.577 158.642 55.7245 158.716ZM82.1681 233.77C81.046 234.739 80.5224 236.118 80.1484 237.422C79.2881 240.292 77.6798 242.751 75.9593 245.062C75.4356 245.77 75.286 246.552 74.8746 247.26C73.6777 249.235 71.7702 250.242 70.1619 251.62V251.62C69.4848 252.211 68.8895 251.623 69.4339 250.908C69.6445 250.632 69.8611 250.359 70.0871 250.093C75.0242 244.242 79.1759 237.869 82.5421 230.975V230.975C83.3228 229.374 84.7834 230.011 83.9282 231.574C83.4923 232.37 82.9092 233.104 82.1681 233.77ZM112.614 198.964C111.005 200.678 109.472 202.504 107.677 204.032C105.358 205.97 102.777 207.572 100.271 209.212C98.1764 210.591 96.3062 212.193 94.3239 213.646C93.0148 214.615 92.6034 216.739 91.4065 217.448C89.125 218.826 89.9104 221.77 87.6663 223.224V223.224C86.4282 224.033 86.4439 224.128 87.0681 222.787C87.6826 221.467 88.3019 220.147 88.938 218.826C89.6112 217.448 90.3218 216.106 91.0325 214.727C93.2018 210.479 96.6055 207.572 100.795 205.411C102.889 204.33 104.909 203.063 106.629 201.498C108.077 200.2 109.883 199.549 111.458 198.509C112.185 198.029 113.231 198.348 112.614 198.964V198.964ZM146.36 193.741C145.943 194.831 143.157 194.016 143.246 192.852V192.852C143.284 192.479 142.835 192.032 143.097 191.622C144.219 189.833 143.583 188.268 142.91 186.479C142.498 185.362 141.825 184.206 142.349 182.567C142.798 181.262 141.114 179.585 140.03 178.318C139.693 177.946 139.394 178.095 139.244 178.579C139.095 179.101 138.758 178.952 138.646 178.654C138.265 177.642 137.075 177.66 136.314 177.182C135.779 176.846 135.348 176.618 135.355 177.249C135.355 177.256 135.355 177.264 135.355 177.271C135.35 177.429 135.201 177.543 135.05 177.591V177.591C134.979 177.614 134.906 177.6 134.835 177.575C133.906 177.253 133.067 176.514 131.951 177.088C131.577 177.275 131.278 176.865 131.016 176.604C130.156 175.672 129.333 174.964 128.098 176.12C127.687 176.529 127.201 176.12 126.939 175.859C125.667 174.592 124.246 175.151 122.787 175.3C121.852 175.374 121.029 175.225 120.094 174.517C119.271 173.884 117.626 174.219 116.354 174.07C115.232 173.921 114.222 173.585 113.137 173.325C109.525 172.468 105.976 171.169 102.199 171.228C101.623 171.236 101.197 170.794 101.688 170.492V170.492C102.064 170.261 101.707 169.815 101.285 169.947C100.949 170.052 100.662 170.274 100.458 170.455C99.4481 171.424 98.7374 171.387 97.8397 170.306C97.2039 169.561 96.0444 170.008 95.1094 169.635V169.635C94.2013 169.265 94.2325 170.524 93.3664 170.064C92.1073 169.396 90.8542 168.732 89.4616 168.405C88.8631 168.256 88.6761 168.145 88.5639 168.927C88.3769 170.343 87.4419 170.082 86.806 169.337C86.0954 168.555 85.1603 168.256 84.3374 167.735C84.0756 167.586 83.7764 167.25 83.5146 167.437C80.9338 169.374 78.8767 166.43 76.4829 166.617C76.221 166.638 75.9336 166.356 75.6282 166.013C75.2657 165.606 74.7484 165.836 75.1127 166.241V166.241C75.3226 166.475 75.0641 166.619 74.7512 166.644C72.7027 166.81 70.8178 165.753 68.7406 166.132C67.9551 166.281 67.0949 165.946 66.272 165.722C65.711 165.573 65.2996 165.387 65.2996 166.207C65.2996 166.505 65.2248 166.691 64.9255 166.43C63.8035 165.573 62.6066 165.312 61.1105 165.387C60.6171 165.425 60.0755 165.223 59.5639 164.893C58.7482 164.367 58.9595 163.465 59.2106 162.527V162.527C59.5393 161.3 59.7621 159.533 61.0301 159.459C62.899 159.349 64.7351 159.301 66.5712 159.499C68.3666 159.685 70.2367 160.244 71.9198 160.356C74.0892 160.542 76.2211 160.654 78.353 161.101C82.5047 161.996 86.6938 162.592 90.8455 163.635C93.9873 164.455 97.2039 165.201 100.421 165.797C103.263 166.319 106.031 167.362 108.649 168.592C109.809 169.151 110.931 168.89 112.015 169.225C116.092 170.455 120.281 170.79 124.583 170.79C128.248 170.828 131.839 171.61 135.093 173.623C135.766 174.07 136.963 173.958 137.898 174.331C138.646 174.629 139.469 174.778 140.404 174.778C142.162 174.778 143.77 176.343 145.004 177.871C146.687 179.958 145.939 182.492 146.164 184.803C146.276 186.181 146.538 187.56 146.762 188.939C147.045 190.687 146.9 192.331 146.36 193.741ZM151.4 184.542C150.69 185.138 150.39 185.958 149.829 186.591C149.642 186.815 149.38 187.15 149.081 186.964C148.782 186.778 148.52 186.33 148.67 185.995C149.38 184.579 149.119 182.939 149.904 181.486C150.69 180.032 149.717 177.275 148.782 176.008C148.146 175.113 147.099 174.256 147.248 172.877V172.877C147.417 171.362 144.811 170.029 144.693 168.509C144.659 168.072 144.655 167.645 144.593 167.287C144.368 165.909 143.994 166.207 143.172 166.43C142.461 166.617 141.601 167.287 141.376 165.871C141.301 165.387 140.815 165.536 140.441 165.536C138.869 165.572 137.368 164.113 135.729 165.127C135.655 165.173 135.573 165.208 135.511 165.148V165.148C135.481 165.12 135.452 165.073 135.425 165.044C133.219 162.706 129.988 162.85 127.238 162.368C124.583 161.921 122.638 159.909 119.945 159.983C118.224 160.021 116.653 159.573 115.494 158.195C115.12 157.785 114.633 157.822 114.11 157.785C113.327 157.717 112.514 157.834 111.894 157.21C111.766 157.081 111.651 156.921 111.489 156.836V156.836C111.325 156.749 111.137 156.788 110.951 156.803C107.903 157.058 106.042 156.738 102.665 155.4C101.954 155.101 100.982 155.064 100.458 155.102C98.1016 155.4 95.9322 154.729 93.7629 154.207C91.8928 153.76 90.2096 154.841 88.4143 154.393C88.0777 154.319 87.5541 154.617 87.2174 154.133V154.133C86.9757 153.831 86.5235 153.892 86.1578 154.016C85.0604 154.389 83.8461 153.193 82.7665 153.984C82.4673 154.207 82.2055 153.984 81.9437 153.834C80.672 153.164 79.3255 152.754 77.6798 153.015C75.9219 153.052 73.9021 152.493 72.1442 153.834C71.845 154.058 71.3962 153.984 71.2092 153.536C70.9473 152.903 70.7229 152.232 70.9847 151.561C71.097 151.226 71.3588 151.077 71.6954 151.151C76.5203 151.859 81.3078 151.598 86.0954 151.077C93.2392 150.331 100.196 151.487 107.153 152.903C114.895 154.468 122.114 157.487 129.258 160.617C132.811 162.182 136.626 162.816 140.366 163.635C142.237 164.045 144.181 164.232 146.014 164.828C148.932 165.76 150.764 168.033 151.737 170.753C152.373 172.579 152.971 174.48 153.569 176.38C154.729 179.846 154.131 182.231 151.4 184.542Z" fill="#252525"/>
</svg>
