<svg width="163" height="46" viewBox="0 0 163 46" fill="none" xmlns="http://www.w3.org/2000/svg">
<g opacity="0.08">
<path d="M144.199 8.2356C144.643 8.78668 145.102 9.13876 145.577 9.49085C145.867 9.70516 145.929 9.91947 145.821 10.2716C145.515 11.236 145.255 12.2157 144.949 13.2872C145.73 12.5218 146.449 11.8483 147.123 11.1441C147.429 10.8226 147.674 10.7308 148.102 10.9298C149.419 11.5115 150.842 11.7105 152.22 12.032C154.593 12.5677 155.328 13.4556 155.374 15.859C155.389 16.6244 156.124 16.7927 156.583 17.3285C156.92 16.3182 157.119 15.415 156.889 14.4659C156.751 13.9148 156.92 13.5934 157.302 13.2107C157.961 12.5677 158.542 11.8636 159.078 11.2513C158.297 11.4809 157.348 11.7258 156.415 12.0167C156.017 12.1391 155.726 12.1238 155.389 11.8023C154.455 10.8992 153.215 10.6236 151.975 10.394C149.847 10.0113 147.827 9.399 146.112 7.99067C145.469 7.42427 144.903 8.20498 144.199 8.2356Z" fill="white"/>
<path d="M130.177 17.252C129.427 16.4713 128.738 15.7212 128.019 15.0017C127.804 14.7874 127.682 14.5884 127.82 14.2669C128.463 12.8892 128.662 11.389 128.998 9.93475C129.519 7.62324 130.468 6.84254 132.795 6.84254C133.269 6.84254 133.499 6.64354 134.203 5.6179C133.239 5.28113 132.274 5.09743 131.295 5.35767C130.851 5.46482 130.606 5.32705 130.3 5.0362C129.611 4.36265 128.876 3.73502 128.218 3.15332C128.417 3.87279 128.631 4.76066 128.907 5.63321C129.075 6.13838 129.06 6.49046 128.662 6.91908C127.804 7.85287 127.544 9.0775 127.33 10.2868C126.947 12.384 126.365 14.4047 124.927 16.0732C124.743 16.2876 124.697 16.5019 124.789 16.7774C124.942 17.1754 125.064 17.5887 125.217 18.0327C125.677 17.6959 125.998 17.3132 126.289 16.8846C126.595 16.4406 126.901 16.3182 127.437 16.5019C128.34 16.7774 129.259 16.9917 130.177 17.252Z" fill="white"/>
<path d="M128.465 32.7439C128.297 32.2234 128.22 31.7795 128.021 31.4274C127.623 30.7539 127.868 30.3406 128.389 29.8813C129.016 29.2996 129.583 28.6414 130.18 27.9985C129.215 28.274 128.236 28.5495 127.271 28.8251C127.026 28.9016 126.781 28.9935 126.582 28.7179C125.587 27.3096 124.179 26.2993 122.985 25.0899C121.577 23.6816 121.439 22.3192 122.51 20.6353C122.771 20.2373 122.694 19.8699 122.174 18.7524C121.378 19.4107 120.781 20.1761 120.49 21.1405C120.367 21.5691 120.138 21.7528 119.724 21.8447C118.821 22.0437 117.918 22.2886 117 22.6866C117.857 22.9162 118.729 23.1611 119.587 23.3448C120.076 23.452 120.367 23.6204 120.52 24.1715C120.811 25.2124 121.546 25.9778 122.342 26.6667C124.118 28.2128 125.802 29.8048 126.659 32.1163C126.904 32.7592 127.761 32.5143 128.465 32.7439Z" fill="white"/>
<path d="M149.025 27.9827C149.714 28.7021 150.357 29.4216 151.046 30.0952C151.382 30.4166 151.49 30.6769 151.275 31.1514C150.678 32.5138 150.479 33.9834 150.158 35.4223C149.668 37.5807 148.627 38.4074 146.407 38.3921C146.071 38.3921 145.106 39.1422 145.045 39.4636C144.984 39.7545 145.229 39.7086 145.382 39.7545C146.178 39.9535 146.989 40.1372 147.785 39.9076C148.306 39.7545 148.627 39.9382 148.979 40.3056C149.637 40.9638 150.357 41.5761 150.984 42.1578C150.755 41.3465 150.51 40.428 150.234 39.5096C150.112 39.0962 150.097 38.7748 150.449 38.4227C151.337 37.5042 151.612 36.2949 151.842 35.0855C152.24 32.9271 152.821 30.8606 154.291 29.1614C154.459 28.9624 154.49 28.7634 154.413 28.5337C154.276 28.1204 154.138 27.7224 153.985 27.2632C153.464 27.6306 153.112 28.1051 152.775 28.5644C152.531 28.8858 152.301 28.9318 151.934 28.8246C150.969 28.5184 150.02 28.2735 149.025 27.9827Z" fill="white"/>
<path d="M135.031 36.9534C134.664 36.6166 134.419 36.3104 134.097 36.1267C133.332 35.6981 133.256 35.147 133.562 34.3663C133.868 33.6162 134.021 32.8202 134.235 32.0089C133.485 32.7284 132.75 33.4019 132.062 34.1061C131.755 34.4275 131.495 34.4888 131.066 34.3051C129.704 33.7081 128.235 33.5091 126.796 33.1876C124.622 32.6977 123.78 31.6568 123.811 29.4525C123.826 28.6871 123.152 28.488 122.724 28.09C122.509 27.9063 122.479 28.2431 122.448 28.3962C122.234 29.2075 122.065 30.0495 122.31 30.8761C122.433 31.3353 122.295 31.6109 121.974 31.9323C121.285 32.6059 120.657 33.3407 120.06 33.9989C120.887 33.7693 121.836 33.5091 122.77 33.2182C123.168 33.0958 123.458 33.1264 123.78 33.4478C124.729 34.351 125.954 34.6265 127.194 34.8562C129.321 35.2389 131.373 35.8206 133.041 37.2901C133.271 37.4891 133.485 37.4891 133.745 37.3973C134.143 37.2442 134.526 37.1217 135.031 36.9534Z" fill="white"/>
<path d="M144.997 32.1157C145.242 33.0036 145.518 33.9833 145.793 34.9477C145.87 35.2385 145.946 35.4682 145.64 35.6825C144.247 36.6622 143.267 38.0552 142.073 39.2339C140.665 40.6423 139.302 40.78 137.619 39.7238C136.945 39.2952 136.394 39.8769 135.69 39.984C136.394 40.8413 137.159 41.4536 138.139 41.7291C138.583 41.8516 138.751 42.0965 138.843 42.5098C139.058 43.413 139.287 44.3162 139.7 45.2346C139.93 44.3162 140.175 43.413 140.389 42.4945C140.481 42.0965 140.665 41.8516 141.093 41.7291C142.18 41.423 142.992 40.6576 143.711 39.8309C145.242 38.0705 146.819 36.4173 149.1 35.5753C149.758 35.3304 149.498 34.4732 149.758 33.7537C149.191 33.9374 148.747 34.0292 148.365 34.2435C147.752 34.5803 147.37 34.3966 146.941 33.9221C146.314 33.2485 145.609 32.6821 144.997 32.1157Z" fill="white"/>
<path d="M139.502 0.0153089C139.272 0.933787 139.043 1.86757 138.813 2.78605C138.737 3.0769 138.675 3.36775 138.308 3.4596C137.053 3.76576 136.18 4.63832 135.369 5.55679C133.884 7.27129 132.338 8.8327 130.134 9.65933C129.445 9.91956 129.736 10.7615 129.445 11.4197C130.134 11.3279 130.669 11.1289 131.175 10.884C131.511 10.7309 131.726 10.7921 131.971 11.037C132.69 11.7565 133.44 12.4454 134.205 13.1648C133.93 12.2158 133.67 11.2514 133.394 10.3023C133.318 10.0267 133.195 9.78179 133.501 9.55217C134.879 8.58777 135.859 7.22536 137.022 6.06195C138.522 4.54647 139.793 4.40869 141.584 5.52618C141.859 5.69456 143.069 5.52618 143.298 5.28125C143.513 5.06694 143.283 4.95978 143.176 4.86794C142.548 4.25562 141.875 3.70453 141.018 3.49022C140.604 3.38306 140.436 3.15344 140.344 2.77074C140.13 1.85226 139.885 0.933786 139.655 0C139.624 0.015308 139.563 0.0153089 139.502 0.0153089Z" fill="white"/>
<path d="M150.814 12.5068C150.83 13.0273 150.967 13.4406 151.182 13.808C151.564 14.4816 151.335 14.8949 150.83 15.3541C150.187 15.9358 149.636 16.5941 149.023 17.237C150.003 16.9615 150.967 16.6859 151.947 16.4104C152.192 16.3338 152.437 16.2267 152.636 16.5022C153.646 17.9412 155.07 18.9515 156.294 20.1761C157.657 21.5538 157.779 22.9316 156.723 24.5695C156.463 24.9675 156.524 25.3502 157.045 26.4677C157.841 25.8095 158.438 25.0441 158.728 24.0797C158.866 23.651 159.081 23.4673 159.494 23.3755C160.397 23.1612 161.3 22.9316 162.402 22.656C161.392 22.2274 160.504 22.1049 159.632 21.8753C159.157 21.7528 158.851 21.5998 158.698 21.0487C158.407 19.9771 157.626 19.1964 156.815 18.4923C155.055 16.9615 153.401 15.3694 152.559 13.1038C152.299 12.4762 151.442 12.7211 150.814 12.5068Z" fill="white"/>
<path d="M124.851 25.7172C125.081 25.3345 125.158 24.8753 125.158 24.4773C125.158 23.6966 125.525 23.4363 126.229 23.3139C127.04 23.1761 127.821 22.9159 128.617 22.5485C127.699 22.3188 126.765 22.0892 125.846 21.8596C125.54 21.7831 125.265 21.7218 125.234 21.3085C125.096 19.7165 124.484 18.2469 124.009 16.7467C123.611 15.4609 123.627 14.2209 124.607 13.18C124.836 12.9351 125.096 12.6748 125.387 12.583C126.428 12.2462 126.306 11.4043 126.443 10.5776C125.357 10.8073 124.438 11.144 123.703 11.8635C123.412 12.139 123.152 12.1544 122.815 12.0625C121.851 11.7717 120.887 11.5114 120.06 11.2665C120.672 11.94 121.331 12.6748 122.004 13.3943C122.203 13.6086 122.433 13.777 122.326 14.175C121.989 15.415 122.295 16.5937 122.693 17.7724C123.137 19.1042 123.627 20.4207 123.734 21.829C123.78 22.3648 123.795 22.9005 123.734 23.4363C123.566 24.8447 123.581 24.86 124.851 25.7172Z" fill="white"/>
<path d="M142.793 37.3973C142.196 37.1218 141.675 37.0299 141.14 36.9993C140.68 36.984 140.466 36.7697 140.374 36.3411C140.16 35.4073 139.915 34.4888 139.517 33.5703C139.287 34.4888 139.058 35.4073 138.844 36.3411C138.767 36.6778 138.69 36.9534 138.247 36.9993C136.884 37.1064 135.614 37.5963 134.343 38.0096C133.639 38.2392 132.935 38.4689 132.185 38.4382C131.006 38.3923 130.041 37.8872 129.597 36.8462C129.169 35.8665 128.419 35.9124 127.577 35.79C127.776 36.8156 128.097 37.7341 128.786 38.4382C129.138 38.7903 129.138 39.0965 129.016 39.5251C128.725 40.4436 128.48 41.3774 128.25 42.204C128.955 41.5611 129.689 40.8722 130.439 40.1834C130.623 40.015 130.746 39.7853 131.082 39.8772C132.567 40.2752 133.96 39.8313 135.338 39.3414C137.282 38.6526 139.257 38.2545 141.339 38.5913C142.089 38.6832 142.211 37.7647 142.793 37.3973Z" fill="white"/>
<path d="M150.555 22.7168C151.489 22.9464 152.408 23.176 153.341 23.4057C153.632 23.4822 153.923 23.5434 153.969 23.9567C154.107 25.5488 154.719 27.0183 155.178 28.5185C155.592 29.8656 155.546 31.1362 154.474 32.2077C154.291 32.3914 154.092 32.5904 153.862 32.667C152.821 32.9578 152.867 33.7998 152.744 34.6876C153.785 34.4886 154.704 34.1518 155.423 33.4477C155.76 33.1262 156.051 33.1109 156.449 33.2334C157.367 33.5089 158.301 33.7691 159.266 34.0447C158.577 33.3252 157.949 32.6364 157.276 31.9781C156.939 31.6566 156.77 31.3505 156.893 30.8606C157.199 29.5901 156.816 28.3807 156.388 27.202C155.653 25.1661 155.163 23.0995 155.561 20.9258C155.607 20.6502 155.515 20.4971 155.331 20.3441C155.025 20.0838 154.734 19.8083 154.367 19.4868C154.092 19.9614 154.03 20.4359 154.015 20.8951C154 21.5534 153.709 21.8136 153.081 21.9208C152.239 22.0739 151.413 22.3341 150.571 22.5484C150.571 22.5943 150.571 22.6556 150.555 22.7168Z" fill="white"/>
<path d="M136.501 7.88382C136.975 8.09814 137.45 8.18998 137.924 8.20529C138.475 8.2206 138.736 8.45022 138.843 8.986C139.027 9.87386 139.271 10.7617 139.547 11.8333C139.976 10.8076 140.129 9.88917 140.328 9.00131C140.45 8.46553 140.68 8.25122 141.231 8.20529C142.685 8.06752 144.032 7.48582 145.41 7.0572C146.573 6.6898 147.706 6.61327 148.762 7.39397C149.114 7.65421 149.497 7.94506 149.62 8.35837C149.926 9.3687 150.752 9.3687 151.625 9.47585C151.457 8.43491 151.105 7.53174 150.4 6.81227C150.079 6.47549 150.064 6.18464 150.186 5.78664C150.462 4.85285 150.722 3.90375 150.951 3.12305C150.263 3.75067 149.512 4.42422 148.778 5.11308C148.563 5.31209 148.395 5.46517 148.058 5.37332C146.849 5.05185 145.686 5.3427 144.537 5.7254C143.16 6.18464 141.797 6.68981 140.328 6.78165C139.853 6.81227 139.333 6.88881 138.889 6.76635C137.771 6.42957 137.052 6.88881 136.501 7.88382Z" fill="white"/>
<path d="M86.1988 8.2356C86.6427 8.78668 87.102 9.13876 87.5765 9.49085C87.8674 9.70516 87.9286 9.91947 87.8214 10.2716C87.5153 11.236 87.255 12.2157 86.9489 13.2872C87.7296 12.5218 88.4491 11.8483 89.1226 11.1441C89.4288 10.8226 89.6737 10.7308 90.1023 10.9298C91.4188 11.5115 92.8424 11.7105 94.2202 12.032C96.5929 12.5677 97.3277 13.4556 97.3736 15.859C97.3889 16.6244 98.1237 16.7927 98.5829 17.3285C98.9197 16.3182 99.1187 15.415 98.8891 14.4659C98.7513 13.9148 98.9197 13.5934 99.3024 13.2107C99.9606 12.5677 100.542 11.8636 101.078 11.2513C100.297 11.4809 99.3483 11.7258 98.4145 12.0167C98.0165 12.1391 97.7257 12.1238 97.3889 11.8023C96.4551 10.8992 95.2152 10.6236 93.9752 10.394C91.8474 10.0113 89.8268 9.399 88.1123 7.99067C87.4694 7.42427 86.903 8.20498 86.1988 8.2356Z" fill="white"/>
<path d="M72.1771 17.252C71.4271 16.4713 70.7382 15.7212 70.0187 15.0017C69.8044 14.7874 69.6819 14.5884 69.8197 14.2669C70.4626 12.8892 70.6616 11.389 70.9984 9.93475C71.5189 7.62324 72.468 6.84254 74.7948 6.84254C75.2693 6.84254 75.499 6.64354 76.2031 5.6179C75.2387 5.28113 74.2743 5.09743 73.2946 5.35767C72.8507 5.46482 72.6058 5.32705 72.2996 5.0362C71.6107 4.36265 70.876 3.73502 70.2177 3.15332C70.4167 3.87279 70.631 4.76066 70.9066 5.63321C71.075 6.13838 71.0597 6.49046 70.6616 6.91908C69.8044 7.85287 69.5442 9.0775 69.3298 10.2868C68.9471 12.384 68.3655 14.4047 66.9265 16.0732C66.7428 16.2876 66.6969 16.5019 66.7887 16.7774C66.9418 17.1754 67.0643 17.5887 67.2174 18.0327C67.6766 17.6959 67.9981 17.3132 68.2889 16.8846C68.5951 16.4406 68.9012 16.3182 69.437 16.5019C70.3402 16.7774 71.2587 16.9917 72.1771 17.252Z" fill="white"/>
<path d="M70.4652 32.7439C70.2968 32.2234 70.2203 31.7795 70.0212 31.4274C69.6232 30.7539 69.8682 30.3406 70.3886 29.8813C71.0163 29.2996 71.5827 28.6414 72.1797 27.9985C71.2153 28.274 70.2356 28.5495 69.2712 28.8251C69.0262 28.9016 68.7813 28.9935 68.5823 28.7179C67.5873 27.3096 66.179 26.2993 64.9849 25.0899C63.5766 23.6816 63.4388 22.3192 64.5104 20.6353C64.7706 20.2373 64.6941 19.8699 64.1736 18.7524C63.3776 19.4107 62.7806 20.1761 62.4897 21.1405C62.3673 21.5691 62.1377 21.7528 61.7243 21.8447C60.8212 22.0437 59.918 22.2886 58.9995 22.6866C59.8568 22.9162 60.7293 23.1611 61.5866 23.3448C62.0764 23.452 62.3673 23.6204 62.5203 24.1715C62.8112 25.2124 63.546 25.9778 64.342 26.6667C66.1177 28.2128 67.8016 29.8048 68.6589 32.1163C68.9038 32.7592 69.761 32.5143 70.4652 32.7439Z" fill="white"/>
<path d="M91.025 27.9827C91.7139 28.7021 92.3568 29.4216 93.0457 30.0952C93.3824 30.4166 93.4896 30.6769 93.2753 31.1514C92.6783 32.5138 92.4793 33.9834 92.1578 35.4223C91.668 37.5807 90.627 38.4074 88.4074 38.3921C88.0706 38.3921 87.1062 39.1422 87.045 39.4636C86.9837 39.7545 87.2286 39.7086 87.3817 39.7545C88.1777 39.9535 88.9891 40.1372 89.7851 39.9076C90.3055 39.7545 90.627 39.9382 90.9791 40.3056C91.6373 40.9638 92.3568 41.5761 92.9844 42.1578C92.7548 41.3465 92.5099 40.428 92.2343 39.5096C92.1119 39.0962 92.0966 38.7748 92.4487 38.4227C93.3365 37.5042 93.6121 36.2949 93.8417 35.0855C94.2397 32.9271 94.8214 30.8606 96.291 29.1614C96.4593 28.9624 96.49 28.7634 96.4134 28.5337C96.2756 28.1204 96.1379 27.7224 95.9848 27.2632C95.4643 27.6306 95.1122 28.1051 94.7755 28.5644C94.5305 28.8858 94.3009 28.9318 93.9335 28.8246C92.9691 28.5184 92.02 28.2735 91.025 27.9827Z" fill="white"/>
<path d="M77.0312 36.9534C76.6639 36.6166 76.4189 36.3104 76.0975 36.1267C75.3321 35.6981 75.2555 35.147 75.5617 34.3663C75.8678 33.6162 76.0209 32.8202 76.2352 32.0089C75.4852 32.7284 74.7504 33.4019 74.0615 34.1061C73.7553 34.4275 73.4951 34.4888 73.0665 34.3051C71.7041 33.7081 70.2345 33.5091 68.7956 33.1876C66.6218 32.6977 65.7799 31.6568 65.8105 29.4525C65.8258 28.6871 65.1523 28.488 64.7236 28.09C64.5093 27.9063 64.4787 28.2431 64.4481 28.3962C64.2338 29.2075 64.0654 30.0495 64.3103 30.8761C64.4328 31.3353 64.295 31.6109 63.9735 31.9323C63.2847 32.6059 62.6571 33.3407 62.0601 33.9989C62.8867 33.7693 63.8358 33.5091 64.7696 33.2182C65.1676 33.0958 65.4584 33.1264 65.7799 33.4478C66.729 34.351 67.9536 34.6265 69.1936 34.8562C71.3214 35.2389 73.3726 35.8206 75.0412 37.2901C75.2708 37.4891 75.4851 37.4891 75.7454 37.3973C76.1434 37.2442 76.5261 37.1217 77.0312 36.9534Z" fill="white"/>
<path d="M86.997 32.1157C87.242 33.0036 87.5175 33.9833 87.793 34.9477C87.8696 35.2385 87.9461 35.4682 87.64 35.6825C86.2469 36.6622 85.2672 38.0552 84.0732 39.2339C82.6649 40.6423 81.3025 40.78 79.6186 39.7238C78.945 39.2952 78.394 39.8769 77.6898 39.984C78.394 40.8413 79.1594 41.4536 80.1391 41.7291C80.583 41.8516 80.7514 42.0965 80.8432 42.5098C81.0575 43.413 81.2872 44.3162 81.7005 45.2346C81.9301 44.3162 82.175 43.413 82.3893 42.4945C82.4812 42.0965 82.6649 41.8516 83.0935 41.7291C84.1804 41.423 84.9917 40.6576 85.7112 39.8309C87.242 38.0705 88.8187 36.4173 91.0996 35.5753C91.7578 35.3304 91.4976 34.4732 91.7578 33.7537C91.1914 33.9374 90.7475 34.0292 90.3648 34.2435C89.7525 34.5803 89.3698 34.3966 88.9411 33.9221C88.3135 33.2485 87.6093 32.6821 86.997 32.1157Z" fill="white"/>
<path d="M81.502 0.0153089C81.2724 0.933787 81.0428 1.86757 80.8132 2.78605C80.7366 3.0769 80.6754 3.36775 80.308 3.4596C79.0528 3.76576 78.1802 4.63832 77.3689 5.55679C75.884 7.27129 74.3379 8.8327 72.1336 9.65933C71.4447 9.91956 71.7355 10.7615 71.4447 11.4197C72.1336 11.3279 72.6693 11.1289 73.1745 10.884C73.5113 10.7309 73.7256 10.7921 73.9705 11.037C74.69 11.7565 75.4401 12.4454 76.2055 13.1648C75.9299 12.2158 75.6697 11.2514 75.3942 10.3023C75.3176 10.0267 75.1951 9.78179 75.5013 9.55217C76.879 8.58777 77.8587 7.22536 79.0221 6.06195C80.5223 4.54647 81.7929 4.40869 83.5839 5.52618C83.8595 5.69456 85.0688 5.52618 85.2984 5.28125C85.5127 5.06694 85.2831 4.95978 85.1759 4.86794C84.5483 4.25562 83.8748 3.70453 83.0175 3.49022C82.6042 3.38306 82.4358 3.15344 82.344 2.77074C82.1297 1.85226 81.8847 0.933786 81.6551 0C81.6245 0.015308 81.5633 0.0153089 81.502 0.0153089Z" fill="white"/>
<path d="M92.8142 12.5068C92.8295 13.0273 92.9673 13.4406 93.1816 13.808C93.5643 14.4816 93.3347 14.8949 92.8295 15.3541C92.1866 15.9358 91.6355 16.5941 91.0232 17.237C92.0029 16.9615 92.9673 16.6859 93.947 16.4104C94.1919 16.3338 94.4369 16.2267 94.6359 16.5022C95.6462 17.9412 97.0698 18.9515 98.2945 20.1761C99.6569 21.5538 99.7793 22.9316 98.7231 24.5695C98.4629 24.9675 98.5241 25.3502 99.0446 26.4677C99.8406 25.8095 100.438 25.0441 100.728 24.0797C100.866 23.651 101.081 23.4673 101.494 23.3755C102.397 23.1612 103.3 22.9316 104.402 22.656C103.392 22.2274 102.504 22.1049 101.632 21.8753C101.157 21.7528 100.851 21.5998 100.698 21.0487C100.407 19.9771 99.6263 19.1964 98.8149 18.4923C97.0545 16.9615 95.4013 15.3694 94.5593 13.1038C94.2991 12.4762 93.4418 12.7211 92.8142 12.5068Z" fill="white"/>
<path d="M66.8514 25.7172C67.0811 25.3345 67.1576 24.8753 67.1576 24.4773C67.1576 23.6966 67.525 23.4363 68.2291 23.3139C69.0405 23.1761 69.8212 22.9159 70.6172 22.5485C69.6987 22.3188 68.7649 22.0892 67.8464 21.8596C67.5403 21.7831 67.2647 21.7218 67.2341 21.3085C67.0964 19.7165 66.484 18.2469 66.0095 16.7467C65.6115 15.4609 65.6268 14.2209 66.6065 13.18C66.8361 12.9351 67.0964 12.6748 67.3872 12.583C68.4282 12.2462 68.3057 11.4043 68.4435 10.5776C67.3566 10.8073 66.4381 11.144 65.7033 11.8635C65.4125 12.139 65.1522 12.1544 64.8155 12.0625C63.8511 11.7717 62.8867 11.5114 62.06 11.2665C62.6724 11.94 63.3306 12.6748 64.0042 13.3943C64.2032 13.6086 64.4328 13.777 64.3256 14.175C63.9888 15.415 64.295 16.5937 64.693 17.7724C65.1369 19.1042 65.6268 20.4207 65.7339 21.829C65.7799 22.3648 65.7952 22.9005 65.7339 23.4363C65.5656 24.8447 65.5809 24.86 66.8514 25.7172Z" fill="white"/>
<path d="M84.793 37.3973C84.196 37.1218 83.6755 37.0299 83.1397 36.9993C82.6805 36.984 82.4662 36.7697 82.3743 36.3411C82.16 35.4073 81.9151 34.4888 81.5171 33.5703C81.2874 34.4888 81.0578 35.4073 80.8435 36.3411C80.767 36.6778 80.6904 36.9534 80.2465 36.9993C78.8841 37.1064 77.6135 37.5963 76.343 38.0096C75.6388 38.2392 74.9346 38.4689 74.1846 38.4382C73.0058 38.3923 72.0414 37.8872 71.5975 36.8462C71.1689 35.8665 70.4188 35.9124 69.5769 35.79C69.7759 36.8156 70.0973 37.7341 70.7862 38.4382C71.1383 38.7903 71.1383 39.0965 71.0158 39.5251C70.7249 40.4436 70.48 41.3774 70.2504 42.204C70.9546 41.5611 71.6893 40.8722 72.4394 40.1834C72.6231 40.015 72.7456 39.7853 73.0824 39.8772C74.5672 40.2752 75.9603 39.8313 77.338 39.3414C79.2821 38.6526 81.2568 38.2545 83.3387 38.5913C84.0888 38.6832 84.2113 37.7647 84.793 37.3973Z" fill="white"/>
<path d="M92.5554 22.7168C93.4892 22.9464 94.4077 23.176 95.3414 23.4057C95.6323 23.4822 95.9231 23.5434 95.9691 23.9567C96.1068 25.5488 96.7192 27.0183 97.1784 28.5185C97.5917 29.8656 97.5458 31.1362 96.4742 32.2077C96.2905 32.3914 96.0915 32.5904 95.8619 32.667C94.821 32.9578 94.8669 33.7998 94.7444 34.6876C95.7854 34.4886 96.7039 34.1518 97.4233 33.4477C97.7601 33.1262 98.051 33.1109 98.449 33.2334C99.3674 33.5089 100.301 33.7691 101.266 34.0447C100.577 33.3252 99.9491 32.6364 99.2756 31.9781C98.9388 31.6566 98.7704 31.3505 98.8929 30.8606C99.199 29.5901 98.8164 28.3807 98.3877 27.202C97.6529 25.1661 97.1631 23.0995 97.5611 20.9258C97.607 20.6502 97.5152 20.4971 97.3315 20.3441C97.0253 20.0838 96.7345 19.8083 96.3671 19.4868C96.0915 19.9614 96.0303 20.4359 96.015 20.8951C95.9997 21.5534 95.7088 21.8136 95.0812 21.9208C94.2393 22.0739 93.4126 22.3341 92.5707 22.5484C92.5707 22.5943 92.5707 22.6556 92.5554 22.7168Z" fill="white"/>
<path d="M78.5007 7.88382C78.9753 8.09814 79.4498 8.18998 79.9244 8.20529C80.4755 8.2206 80.7357 8.45022 80.8428 8.986C81.0265 9.87386 81.2715 10.7617 81.547 11.8333C81.9756 10.8076 82.1287 9.88917 82.3277 9.00131C82.4502 8.46553 82.6798 8.25122 83.2309 8.20529C84.6851 8.06752 86.0322 7.48582 87.41 7.0572C88.5734 6.6898 89.7062 6.61327 90.7624 7.39397C91.1145 7.65421 91.4972 7.94506 91.6197 8.35837C91.9258 9.3687 92.7524 9.3687 93.625 9.47585C93.4566 8.43491 93.1045 7.53174 92.4004 6.81227C92.0789 6.47549 92.0636 6.18464 92.186 5.78664C92.4616 4.85285 92.7218 3.90375 92.9514 3.12305C92.2626 3.75067 91.5125 4.42422 90.7777 5.11308C90.5634 5.31209 90.395 5.46517 90.0582 5.37332C88.8489 5.05185 87.6855 5.3427 86.5374 5.7254C85.1597 6.18464 83.7973 6.68981 82.3277 6.78165C81.8532 6.81227 81.3327 6.88881 80.8888 6.76635C79.7713 6.42957 79.0518 6.88881 78.5007 7.88382Z" fill="white"/>
<path d="M27.1988 8.2356C27.6427 8.78668 28.102 9.13876 28.5765 9.49085C28.8674 9.70516 28.9286 9.91947 28.8214 10.2716C28.5153 11.236 28.255 12.2157 27.9489 13.2872C28.7296 12.5218 29.4491 11.8483 30.1226 11.1441C30.4288 10.8226 30.6737 10.7308 31.1023 10.9298C32.4188 11.5115 33.8424 11.7105 35.2202 12.032C37.5929 12.5677 38.3277 13.4556 38.3736 15.859C38.3889 16.6244 39.1237 16.7927 39.5829 17.3285C39.9197 16.3182 40.1187 15.415 39.8891 14.4659C39.7513 13.9148 39.9197 13.5934 40.3024 13.2107C40.9606 12.5677 41.5423 11.8636 42.0781 11.2513C41.2974 11.4809 40.3483 11.7258 39.4145 12.0167C39.0165 12.1391 38.7257 12.1238 38.3889 11.8023C37.4551 10.8992 36.2152 10.6236 34.9752 10.394C32.8474 10.0113 30.8268 9.399 29.1123 7.99067C28.4694 7.42427 27.903 8.20498 27.1988 8.2356Z" fill="white"/>
<path d="M13.1771 17.252C12.4271 16.4713 11.7382 15.7212 11.0187 15.0017C10.8044 14.7874 10.6819 14.5884 10.8197 14.2669C11.4626 12.8892 11.6616 11.389 11.9984 9.93475C12.5189 7.62324 13.468 6.84254 15.7948 6.84254C16.2693 6.84254 16.499 6.64354 17.2031 5.6179C16.2387 5.28113 15.2743 5.09743 14.2946 5.35767C13.8507 5.46482 13.6058 5.32705 13.2996 5.0362C12.6107 4.36265 11.876 3.73502 11.2177 3.15332C11.4167 3.87279 11.631 4.76066 11.9066 5.63321C12.075 6.13838 12.0597 6.49046 11.6616 6.91908C10.8044 7.85287 10.5442 9.0775 10.3298 10.2868C9.94715 12.384 9.36545 14.4047 7.9265 16.0732C7.74281 16.2876 7.69688 16.5019 7.78873 16.7774C7.94181 17.1754 8.06428 17.5887 8.21736 18.0327C8.6766 17.6959 8.99806 17.3132 9.28891 16.8846C9.59507 16.4406 9.90123 16.3182 10.437 16.5019C11.3402 16.7774 12.2587 16.9917 13.1771 17.252Z" fill="white"/>
<path d="M11.4652 32.7439C11.2968 32.2234 11.2203 31.7795 11.0212 31.4274C10.6232 30.7539 10.8682 30.3406 11.3886 29.8813C12.0163 29.2996 12.5827 28.6414 13.1797 27.9985C12.2153 28.274 11.2356 28.5495 10.2712 28.8251C10.0262 28.9016 9.78132 28.9935 9.58232 28.7179C8.5873 27.3096 7.17897 26.2993 5.98494 25.0899C4.57661 23.6816 4.43882 22.3192 5.51038 20.6353C5.77062 20.2373 5.69409 19.8699 5.17361 18.7524C4.3776 19.4107 3.78059 20.1761 3.48974 21.1405C3.36728 21.5691 3.13766 21.7528 2.72434 21.8447C1.82117 22.0437 0.917994 22.2886 -0.000484467 22.6866C0.856761 22.9162 1.72932 23.1611 2.58657 23.3448C3.07642 23.452 3.36727 23.6204 3.52035 24.1715C3.8112 25.2124 4.54598 25.9778 5.342 26.6667C7.11772 28.2128 8.80161 29.8048 9.65886 32.1163C9.90378 32.7592 10.761 32.5143 11.4652 32.7439Z" fill="white"/>
<path d="M32.025 27.9827C32.7139 28.7021 33.3568 29.4216 34.0457 30.0952C34.3824 30.4166 34.4896 30.6769 34.2753 31.1514C33.6783 32.5138 33.4793 33.9834 33.1578 35.4223C32.668 37.5807 31.627 38.4074 29.4074 38.3921C29.0706 38.3921 28.1062 39.1422 28.045 39.4636C27.9837 39.7545 28.2286 39.7086 28.3817 39.7545C29.1777 39.9535 29.9891 40.1372 30.7851 39.9076C31.3055 39.7545 31.627 39.9382 31.9791 40.3056C32.6373 40.9638 33.3568 41.5761 33.9844 42.1578C33.7548 41.3465 33.5099 40.428 33.2343 39.5096C33.1119 39.0962 33.0966 38.7748 33.4487 38.4227C34.3365 37.5042 34.6121 36.2949 34.8417 35.0855C35.2397 32.9271 35.8214 30.8606 37.291 29.1614C37.4593 28.9624 37.49 28.7634 37.4134 28.5337C37.2756 28.1204 37.1379 27.7224 36.9848 27.2632C36.4643 27.6306 36.1122 28.1051 35.7755 28.5644C35.5305 28.8858 35.3009 28.9318 34.9335 28.8246C33.9691 28.5184 33.02 28.2735 32.025 27.9827Z" fill="white"/>
<path d="M18.0312 36.9534C17.6639 36.6166 17.4189 36.3104 17.0975 36.1267C16.3321 35.6981 16.2555 35.147 16.5617 34.3663C16.8678 33.6162 17.0209 32.8202 17.2352 32.0089C16.4852 32.7284 15.7504 33.4019 15.0615 34.1061C14.7553 34.4275 14.4951 34.4888 14.0665 34.3051C12.7041 33.7081 11.2345 33.5091 9.79556 33.1876C7.62183 32.6977 6.77989 31.6568 6.8105 29.4525C6.82581 28.6871 6.15227 28.488 5.72364 28.09C5.50933 27.9063 5.47873 28.2431 5.44811 28.3962C5.2338 29.2075 5.06541 30.0495 5.31034 30.8761C5.4328 31.3353 5.29502 31.6109 4.97355 31.9323C4.28469 32.6059 3.65706 33.3407 3.06005 33.9989C3.88668 33.7693 4.83579 33.5091 5.76957 33.2182C6.16758 33.0958 6.45843 33.1264 6.7799 33.4478C7.72899 34.351 8.95363 34.6265 10.1936 34.8562C12.3214 35.2389 14.3726 35.8206 16.0412 37.2901C16.2708 37.4891 16.4851 37.4891 16.7454 37.3973C17.1434 37.2442 17.5261 37.1217 18.0312 36.9534Z" fill="white"/>
<path d="M27.997 32.1157C28.242 33.0036 28.5175 33.9833 28.793 34.9477C28.8696 35.2385 28.9461 35.4682 28.64 35.6825C27.2469 36.6622 26.2672 38.0552 25.0732 39.2339C23.6649 40.6423 22.3025 40.78 20.6186 39.7238C19.945 39.2952 19.394 39.8769 18.6898 39.984C19.394 40.8413 20.1594 41.4536 21.1391 41.7291C21.583 41.8516 21.7514 42.0965 21.8432 42.5098C22.0575 43.413 22.2872 44.3162 22.7005 45.2346C22.9301 44.3162 23.175 43.413 23.3893 42.4945C23.4812 42.0965 23.6649 41.8516 24.0935 41.7291C25.1804 41.423 25.9917 40.6576 26.7112 39.8309C28.242 38.0705 29.8187 36.4173 32.0996 35.5753C32.7578 35.3304 32.4976 34.4732 32.7578 33.7537C32.1914 33.9374 31.7475 34.0292 31.3648 34.2435C30.7525 34.5803 30.3698 34.3966 29.9411 33.9221C29.3135 33.2485 28.6093 32.6821 27.997 32.1157Z" fill="white"/>
<path d="M22.502 0.0153089C22.2724 0.933787 22.0428 1.86757 21.8132 2.78605C21.7366 3.0769 21.6754 3.36775 21.308 3.4596C20.0528 3.76576 19.1802 4.63832 18.3689 5.55679C16.884 7.27129 15.3379 8.8327 13.1336 9.65933C12.4447 9.91956 12.7355 10.7615 12.4447 11.4197C13.1336 11.3279 13.6693 11.1289 14.1745 10.884C14.5113 10.7309 14.7256 10.7921 14.9705 11.037C15.69 11.7565 16.4401 12.4454 17.2055 13.1648C16.9299 12.2158 16.6697 11.2514 16.3942 10.3023C16.3176 10.0267 16.1951 9.78179 16.5013 9.55217C17.879 8.58777 18.8587 7.22536 20.0221 6.06195C21.5223 4.54647 22.7929 4.40869 24.5839 5.52618C24.8595 5.69456 26.0688 5.52618 26.2984 5.28125C26.5127 5.06694 26.2831 4.95978 26.1759 4.86794C25.5483 4.25562 24.8748 3.70453 24.0175 3.49022C23.6042 3.38306 23.4358 3.15344 23.344 2.77074C23.1297 1.85226 22.8847 0.933786 22.6551 0C22.6245 0.015308 22.5633 0.0153089 22.502 0.0153089Z" fill="white"/>
<path d="M33.8142 12.5068C33.8295 13.0273 33.9673 13.4406 34.1816 13.808C34.5643 14.4816 34.3347 14.8949 33.8295 15.3541C33.1866 15.9358 32.6355 16.5941 32.0232 17.237C33.0029 16.9615 33.9673 16.6859 34.947 16.4104C35.1919 16.3338 35.4369 16.2267 35.6359 16.5022C36.6462 17.9412 38.0698 18.9515 39.2945 20.1761C40.6569 21.5538 40.7793 22.9316 39.7231 24.5695C39.4629 24.9675 39.5241 25.3502 40.0446 26.4677C40.8406 25.8095 41.4376 25.0441 41.7284 24.0797C41.8662 23.651 42.0805 23.4673 42.4938 23.3755C43.397 23.1612 44.3002 22.9316 45.4023 22.656C44.392 22.2274 43.5042 22.1049 42.6316 21.8753C42.1571 21.7528 41.8509 21.5998 41.6978 21.0487C41.407 19.9771 40.6263 19.1964 39.8149 18.4923C38.0545 16.9615 36.4013 15.3694 35.5593 13.1038C35.2991 12.4762 34.4418 12.7211 33.8142 12.5068Z" fill="white"/>
<path d="M7.85143 25.7172C8.08105 25.3345 8.15759 24.8753 8.15759 24.4773C8.15759 23.6966 8.52498 23.4363 9.22915 23.3139C10.0405 23.1761 10.8212 22.9159 11.6172 22.5485C10.6987 22.3188 9.76493 22.0892 8.84645 21.8596C8.54029 21.7831 8.26475 21.7218 8.23413 21.3085C8.09636 19.7165 7.48404 18.2469 7.00949 16.7467C6.61149 15.4609 6.6268 14.2209 7.60651 13.18C7.83613 12.9351 8.09636 12.6748 8.38721 12.583C9.42815 12.2462 9.30569 11.4043 9.44346 10.5776C8.3566 10.8073 7.43812 11.144 6.70333 11.8635C6.41248 12.139 6.15224 12.1544 5.81547 12.0625C4.85106 11.7717 3.88666 11.5114 3.06003 11.2665C3.67235 11.94 4.3306 12.6748 5.00415 13.3943C5.20316 13.6086 5.43277 13.777 5.32562 14.175C4.98884 15.415 5.29501 16.5937 5.69301 17.7724C6.13694 19.1042 6.62679 20.4207 6.73394 21.829C6.77987 22.3648 6.79518 22.9005 6.73394 23.4363C6.56556 24.8447 6.58087 24.86 7.85143 25.7172Z" fill="white"/>
<path d="M25.793 37.3973C25.196 37.1218 24.6755 37.0299 24.1397 36.9993C23.6805 36.984 23.4662 36.7697 23.3743 36.3411C23.16 35.4073 22.9151 34.4888 22.5171 33.5703C22.2874 34.4888 22.0578 35.4073 21.8435 36.3411C21.767 36.6778 21.6904 36.9534 21.2465 36.9993C19.8841 37.1064 18.6135 37.5963 17.343 38.0096C16.6388 38.2392 15.9346 38.4689 15.1846 38.4382C14.0058 38.3923 13.0414 37.8872 12.5975 36.8462C12.1689 35.8665 11.4188 35.9124 10.5769 35.79C10.7759 36.8156 11.0973 37.7341 11.7862 38.4382C12.1383 38.7903 12.1383 39.0965 12.0158 39.5251C11.7249 40.4436 11.48 41.3774 11.2504 42.204C11.9546 41.5611 12.6893 40.8722 13.4394 40.1834C13.6231 40.015 13.7456 39.7853 14.0824 39.8772C15.5672 40.2752 16.9603 39.8313 18.338 39.3414C20.2821 38.6526 22.2568 38.2545 24.3387 38.5913C25.0888 38.6832 25.2113 37.7647 25.793 37.3973Z" fill="white"/>
<path d="M33.5554 22.7168C34.4892 22.9464 35.4077 23.176 36.3414 23.4057C36.6323 23.4822 36.9231 23.5434 36.9691 23.9567C37.1068 25.5488 37.7192 27.0183 38.1784 28.5185C38.5917 29.8656 38.5458 31.1362 37.4742 32.2077C37.2905 32.3914 37.0915 32.5904 36.8619 32.667C35.821 32.9578 35.8669 33.7998 35.7444 34.6876C36.7854 34.4886 37.7039 34.1518 38.4233 33.4477C38.7601 33.1262 39.051 33.1109 39.449 33.2334C40.3674 33.5089 41.3012 33.7691 42.2656 34.0447C41.5768 33.3252 40.9491 32.6364 40.2756 31.9781C39.9388 31.6566 39.7704 31.3505 39.8929 30.8606C40.199 29.5901 39.8164 28.3807 39.3877 27.202C38.6529 25.1661 38.1631 23.0995 38.5611 20.9258C38.607 20.6502 38.5152 20.4971 38.3315 20.3441C38.0253 20.0838 37.7345 19.8083 37.3671 19.4868C37.0915 19.9614 37.0303 20.4359 37.015 20.8951C36.9997 21.5534 36.7088 21.8136 36.0812 21.9208C35.2393 22.0739 34.4126 22.3341 33.5707 22.5484C33.5707 22.5943 33.5707 22.6556 33.5554 22.7168Z" fill="white"/>
<path d="M19.5007 7.88382C19.9753 8.09814 20.4498 8.18998 20.9244 8.20529C21.4755 8.2206 21.7357 8.45022 21.8428 8.986C22.0265 9.87386 22.2715 10.7617 22.547 11.8333C22.9756 10.8076 23.1287 9.88917 23.3277 9.00131C23.4502 8.46553 23.6798 8.25122 24.2309 8.20529C25.6851 8.06752 27.0322 7.48582 28.41 7.0572C29.5734 6.6898 30.7062 6.61327 31.7624 7.39397C32.1145 7.65421 32.4972 7.94506 32.6197 8.35837C32.9258 9.3687 33.7524 9.3687 34.625 9.47585C34.4566 8.43491 34.1045 7.53174 33.4004 6.81227C33.0789 6.47549 33.0636 6.18464 33.186 5.78664C33.4616 4.85285 33.7218 3.90375 33.9514 3.12305C33.2626 3.75067 32.5125 4.42422 31.7777 5.11308C31.5634 5.31209 31.395 5.46517 31.0582 5.37332C29.8489 5.05185 28.6855 5.3427 27.5374 5.7254C26.1597 6.18464 24.7973 6.68981 23.3277 6.78165C22.8532 6.81227 22.3327 6.88881 21.8888 6.76635C20.7713 6.42957 20.0518 6.88881 19.5007 7.88382Z" fill="white"/>
</g>
</svg>
