<svg width="216" height="298" viewBox="0 0 216 298" fill="none" xmlns="http://www.w3.org/2000/svg">
<path d="M247.045 212.069C246.992 212.069 246.992 212.122 246.939 212.122C246.992 212.069 247.045 212.069 247.045 212.069Z" fill="#121212"/>
<path d="M217.378 204.006C211.243 202.097 205.109 200.134 198.922 198.596C194.533 197.535 189.985 196.845 185.49 196.58C180.572 196.262 175.601 196.527 170.418 196.527C167.933 193.079 165.5 189.101 165.394 184.062C165.342 181.94 164.39 179.818 163.649 177.803C163.385 177.06 162.75 176.477 161.851 175.363C161.058 179.818 160.635 183.425 163.649 186.608C163.438 186.714 163.173 186.82 162.962 186.926C156.616 179.712 150.217 172.498 143.871 165.284C143.501 165.55 143.184 165.815 142.814 166.027C144.4 172.445 147.573 178.121 151.751 183.372C151.486 183.584 151.169 183.797 150.905 184.009C145.458 178.651 139.958 173.294 134.141 167.618C134.141 168.52 134.088 168.838 134.141 169.104C134.3 169.793 134.405 170.483 134.67 171.119C137.261 177.538 138.636 184.592 144.294 189.844C140.857 188.093 137.79 186.449 134.67 184.858C134.458 185.229 134.194 185.6 133.982 185.971C136.468 188.146 139.112 190.215 141.439 192.602C142.972 194.193 143.818 196.58 145.458 198.065C147.044 199.498 149.212 200.187 151.116 201.195C150.058 201.354 149.107 201.195 148.208 200.93C144.136 199.922 140.222 200.134 136.256 201.672C130.545 203.9 124.834 206.181 118.541 206.446C117.8 206.499 117.06 207.348 116.372 207.826C111.56 207.083 106.536 206.818 101.512 206.765C95.0079 206.659 88.3976 207.348 82.3161 203.953C81.5757 203.529 80.6238 203.582 79.7248 203.37C79.672 203.529 79.6191 203.688 79.5662 203.9C80.3594 204.537 81.0998 205.173 81.893 205.757C81.8401 205.916 81.7344 206.022 81.6815 206.181C80.7296 205.916 79.7777 205.704 78.7729 205.439C78.7201 205.598 78.6672 205.704 78.6143 205.863C79.7248 206.552 80.8354 207.242 81.9988 207.985C81.893 208.144 81.7872 208.356 81.6815 208.515C80.7825 208.356 79.9364 208.25 79.0374 208.091C84.5371 211.751 90.5657 213.766 96.8587 214.986C110.555 217.533 124.252 216.472 138.001 214.827C140.645 214.509 143.395 214.774 146.092 214.774C146.092 215.093 146.092 215.411 146.092 215.729C145.035 215.782 144.03 215.888 142.708 215.941C143.025 218.54 143.29 220.98 143.713 223.367C144.189 226.444 146.092 228.672 149.001 229.149C154.025 230.051 157.832 232.491 160.582 237.053C161.164 235.408 161.64 234.135 162.116 232.862C162.433 234.666 162.38 236.31 162.169 237.954C161.534 242.145 161.005 246.335 160.106 250.473C159.366 253.761 158.202 256.944 157.198 260.18C155.876 264.529 157.092 268.136 160.899 270.523C164.654 272.857 168.567 274.926 172.481 276.995C180.043 280.973 188.187 283.466 196.436 285.429C199.081 286.065 201.037 287.285 202.201 289.619C203.205 291.688 203.946 293.81 204.845 295.931C205.162 296.674 205.638 297.31 206.061 298C206.22 297.894 206.378 297.788 206.59 297.735C206.431 296.674 206.22 295.56 206.061 294.499C206.22 294.446 206.378 294.393 206.59 294.34C207.066 295.189 207.542 296.037 208.018 296.886C208.229 291.9 206.854 287.497 204.58 283.307C204.422 282.989 204.051 282.723 203.734 282.511C200.032 279.7 196.278 276.942 192.576 274.13C187.235 270.099 181.999 266.015 176.394 261.665C176.764 261.294 177.822 260.657 178.509 259.755C181.418 255.671 184.115 251.428 187.182 247.396C191.518 241.72 191.571 235.992 188.134 229.892C187.764 229.202 187.764 228.247 187.605 227.452C191.836 231.748 192.47 236.894 191.042 242.039C190.249 244.797 190.408 246.972 191.571 249.359C192.153 250.632 192.682 251.905 193.211 253.178C196.172 259.755 199.98 265.537 207.172 268.242C214.046 270.788 220.868 273.388 227.743 275.934C233.454 278.109 238.108 281.291 239.483 287.816C239.641 288.664 240.382 289.407 240.858 290.203C240.963 290.096 241.122 290.043 241.228 289.937C240.911 288.717 240.54 287.497 240.223 286.277C240.435 286.224 240.646 286.118 240.858 286.065C241.439 287.285 242.074 288.505 242.656 289.725C242.92 289.619 243.132 289.513 243.396 289.407C242.814 282.723 242.761 275.828 236.257 271.372C231.656 268.242 227.108 265.113 222.455 262.089C219.493 260.18 216.056 258.748 213.57 256.361C211.667 254.504 210.768 251.534 209.604 248.934C208.758 247.025 208.229 245.009 207.753 242.994C207.436 241.721 207.33 240.288 207.383 238.962C207.595 236.31 208.282 233.658 208.229 231.006C208.176 228.513 206.854 226.709 203.787 227.24C201.989 227.558 200.085 227.558 198.234 227.717C198.234 227.399 198.234 227.08 198.234 226.762C209.393 225.489 220.551 229.202 231.815 227.505C231.127 226.709 230.334 226.179 229.488 226.02C225.786 225.224 222.137 224.481 218.436 223.792C213.993 222.943 209.498 221.299 204.95 222.943C199.821 224.8 194.638 224.534 189.403 224.269C187.658 224.163 185.966 223.261 184.221 222.678C184.326 222.413 184.379 222.147 184.485 221.882C190.196 223.792 195.96 223.739 201.989 222.625C194.374 221.193 189.297 216.684 185.12 209.417C194.057 210.212 202.306 211.008 210.556 211.751C211.667 211.857 212.83 211.698 213.888 212.016C215.368 212.493 216.69 213.713 218.118 213.872C225.892 214.615 233.719 215.199 241.492 215.676C243.026 215.782 245.088 216.047 245.035 213.289C245.035 212.918 246.305 212.546 247.045 212.175C244.93 211.963 242.656 212.069 240.646 211.433C232.82 209.046 225.099 206.446 217.378 204.006ZM167.245 215.941C165.077 213.607 162.962 211.326 160.794 208.992C161.005 208.78 161.27 208.515 161.481 208.303C163.649 210.584 165.87 212.918 168.039 215.199C167.774 215.464 167.51 215.729 167.245 215.941ZM176.5 213.501C174.596 211.539 172.639 209.576 170.736 207.613C171.053 207.295 171.37 206.977 171.687 206.712C173.538 208.727 175.389 210.743 177.24 212.759C176.976 212.971 176.711 213.236 176.5 213.501Z" fill="#121212"/>
<path d="M164.917 45.4055C163.542 45.6177 162.537 45.7768 161.533 45.9359C161.533 46.3603 161.533 46.7316 161.533 47.1559C176.287 48.6412 191.041 50.3386 205.848 51.5055C211.983 51.9829 218.117 50.6568 223.722 48.2168C220.497 53.8925 222.612 59.1438 229.222 61.1595C228.429 62.3795 227.847 63.8647 226.842 64.7665C218.276 72.2987 209.973 80.1492 202.834 89.0605C199.714 92.9858 199.026 96.3275 201.67 100.571C203.257 103.064 205.637 105.186 208.016 106.936C211.612 109.535 215.579 111.551 219.227 114.097C222.453 116.378 223.194 119.455 221.924 123.221C221.766 123.645 221.766 124.122 221.66 124.918C222.559 124.441 223.141 124.176 223.881 123.751C223.775 124.6 223.722 125.13 223.67 125.608C223.934 125.767 224.198 125.873 224.463 126.032C225.256 125.024 226.155 124.069 226.79 122.956C229.275 118.659 228.376 114.469 226.049 110.596C223.035 105.557 219.703 100.73 216.636 96.1154C216.848 96.2215 217.588 96.5397 217.694 96.5928C224.833 90.5458 231.549 84.8701 238.106 79.3005C235.885 76.8074 233.876 74.5796 231.866 72.2987C232.078 72.1926 232.237 72.0335 232.448 71.9274C234.669 72.7761 236.943 73.6248 239.164 74.5265C239.27 73.4126 239.429 72.2457 239.534 71.0787C239.799 71.0787 240.063 71.1317 240.38 71.1317C240.169 75.4813 239.534 79.8309 239.852 84.1275C240.433 92.4553 241.544 100.73 242.549 109.005C243.606 117.969 246.356 126.138 252.49 133.087C255.663 136.694 258.413 140.937 257.409 146.507C257.99 145.605 258.572 144.703 259.577 143.059C259.259 145.181 259.101 146.401 258.783 148.417C262.644 144.703 263.913 140.884 262.961 136.535C261.11 128.154 259.048 119.773 257.144 111.71C257.884 110.915 258.731 110.384 258.942 109.695C260.37 105.345 261.904 101.048 262.908 96.5928C264.812 88.424 267.932 80.3083 264.495 71.8213C263.279 68.7978 261.956 65.7743 260.634 62.8039C259.418 60.0986 258.096 57.4995 261.956 54.6351C259.471 55.0064 257.99 55.2186 256.51 55.4308C256.404 55.1656 256.351 54.8473 256.245 54.5821C257.144 54.3168 258.043 53.8925 258.942 53.8925C263.702 54.1047 268.408 54.4229 273.168 54.6882C276.552 54.9003 279.936 55.4308 283.215 55.0595C285.436 54.7943 286.864 55.1125 288.609 56.4386C293.21 59.9925 296.224 64.6604 298.974 69.6995C301.513 74.3144 304.527 78.664 307.33 83.1196C307.488 82.7483 307.647 82.377 307.753 82.0057C308.916 81.5814 310.079 81.2101 311.349 80.7327C308.229 73.9961 304.897 67.0474 301.777 59.9925C297.493 50.2855 289.825 45.0872 279.778 43.4429C271.898 42.1698 263.86 41.4803 255.928 40.5785C254.447 40.4194 253.019 40.2602 251.063 40.1011C250.322 35.8576 249.053 31.2958 248.842 26.7341C248.63 22.2254 249.476 17.7166 249.899 13.1549C249.423 13.0488 249 12.9957 248.524 12.8896C247.096 17.1862 245.722 21.4827 244.294 25.7793C243.976 19.4671 237.102 2.44001 233.294 0C233.664 3.76611 234.193 7.32004 234.246 10.874C234.299 14.3749 233.77 17.8227 233.506 21.3236C233.294 21.3236 233.083 21.3236 232.871 21.2706C229.645 14.534 226.419 7.85048 223.194 1.11392C222.876 1.22001 222.506 1.32609 222.189 1.43218C222.982 8.85831 223.722 16.2844 224.569 24.3471C222.929 22.5967 221.819 21.2175 220.497 20.0506C219.227 18.9366 217.8 18.141 216.425 17.1862C216.266 17.3984 216.16 17.6105 216.002 17.7697C219.598 23.9758 223.194 30.1289 226.631 36.0698C221.713 37.0246 217.429 37.8202 213.093 38.6689C208.334 39.5707 203.627 41.1089 198.868 41.3211C188.185 41.7985 177.45 41.5333 166.715 41.6394C165.71 41.6394 164.706 41.9046 163.648 42.0637C163.701 42.2759 163.701 42.4881 163.754 42.7003C164.388 42.8063 164.97 42.8594 166.133 43.0716C164.864 43.655 164.071 43.9733 163.331 44.3446C163.701 44.5568 164.177 44.8751 164.917 45.4055ZM242.707 48.2699C242.654 49.2246 242.654 49.702 242.601 50.1794C241.385 56.0673 244.505 59.7804 248.947 62.8569C249.688 63.3873 250.111 64.3952 250.692 65.1908C250.428 65.403 250.111 65.5621 249.846 65.7743C241.227 61.9552 238.318 55.3247 242.707 48.2699ZM237.948 37.2368C238.054 36.9185 238.159 36.6002 238.212 36.282C238.794 37.4489 239.376 38.6689 240.222 40.3663C237.207 37.8202 236.414 37.9263 235.727 40.8437C234.828 39.0933 234.193 37.8733 233.611 36.7594C235.145 36.9185 236.573 37.0776 237.948 37.2368Z" fill="#121212"/>
<path d="M64.1759 50.1268C63.224 49.6494 62.6423 49.3311 61.426 48.7476C64.5461 48.5885 66.4499 49.2781 68.0363 51.2937C70.2045 53.999 71.8439 57.4999 76.0216 57.8181C76.0216 57.8181 76.0216 58.0833 76.0216 58.2955C75.2284 58.4016 74.4351 58.4546 73.589 58.5607C74.5938 61.2129 75.8101 63.5468 76.286 66.0399C76.9206 69.1695 78.2427 72.9356 77.1321 75.4817C73.8005 83.173 69.5699 90.4931 65.3922 97.8131C62.4837 102.958 62.6423 106.194 67.6662 109.483C73.8005 113.461 80.1464 117.174 86.651 120.516C91.6748 123.115 91.9392 123.062 91.8863 128.685C91.8863 129.003 92.045 129.321 92.3094 130.17C92.7853 129.162 93.0497 128.685 93.367 127.995C93.6315 128.95 93.7901 129.639 94.0016 130.488C96.8573 126.404 97.0688 122.001 94.5304 118.447C92.7325 115.954 90.7229 113.62 88.5018 111.498C84.7472 107.891 80.781 104.497 78.7715 102.693C79.2474 101.208 79.3532 99.4575 80.2522 98.2905C84.5357 92.6148 87.3913 85.8252 93.2084 82.2713C94.8477 82.4835 95.9583 82.6426 97.0688 82.6957C98.0207 82.7487 98.9726 82.5365 99.8716 82.7487C100.771 82.9609 101.617 83.4913 102.939 84.0748C102.886 82.3774 102.78 81.1574 102.727 79.8843C103.679 80.4148 104.578 80.8922 105.53 81.3696C105.742 81.2635 105.953 81.1043 106.165 80.9983C105.742 79.5661 105.266 78.0808 104.79 76.4895C113.515 78.8765 122.188 81.2635 131.072 83.7035C130.808 86.0905 130.543 88.7426 130.226 91.3948C129.539 97.0705 128.64 102.746 128.217 108.475C127.952 112.135 131.495 116.909 134.562 117.598C133.981 116.485 133.452 115.53 132.976 114.575C133.293 114.257 133.611 113.991 133.981 113.673C134.615 114.999 135.25 116.325 135.937 117.652C136.255 117.386 136.572 117.121 136.889 116.803C136.784 116.378 136.731 115.901 136.466 115.53C134.139 111.923 133.981 107.998 135.303 104.072C137.418 97.8662 139.798 91.7661 141.966 85.6131C142.759 83.3852 143.394 80.9983 143.5 78.7174C143.552 77.4974 142.601 75.5878 141.543 75.1104C136.308 72.6173 130.966 70.1773 125.467 68.2677C119.861 66.3051 114.573 64.1834 111.294 58.8259C110.395 57.3938 109.285 56.1207 108.227 54.8477C106.905 53.2563 105.53 51.7711 104.261 50.2859C103.944 46.785 103.626 43.2311 103.309 39.6241C103.679 39.571 104.049 39.518 104.367 39.465C106.376 42.5415 147.148 47.0502 159.206 45.5119C159.735 45.4589 160.21 45.1937 160.951 44.9815C160.263 44.6102 159.84 44.345 158.941 43.8676C160.158 43.6554 160.845 43.5493 161.744 43.3902C161.109 42.9658 160.634 42.7006 159.946 42.2763C161.004 42.0111 161.691 41.8519 162.432 41.6928C162.432 41.4276 162.432 41.1624 162.432 40.8441C156.139 39.518 149.898 38.1389 143.605 36.8658C139.11 35.9641 134.562 35.4336 129.75 38.1389C130.385 36.9719 130.702 36.4415 131.337 35.3806C117.64 33.6832 104.314 31.9858 90.247 30.2353C86.9154 25.5144 88.8191 18.7248 87.1798 11.723C86.1221 14.9587 85.3289 17.3987 84.377 20.4222C80.2522 13.6326 76.4447 7.32041 72.6371 1.00819C72.3198 1.16733 72.0025 1.32646 71.6852 1.48559C72.69 7.74476 73.6948 13.9509 74.6995 20.2101C74.3822 20.3161 74.0649 20.4753 73.8005 20.6344C69.993 16.1257 66.1326 11.67 62.325 7.16128C61.902 7.37345 61.5318 7.58563 61.1087 7.7978C63.3827 14.6935 65.7095 21.5892 68.0363 28.6971C65.5509 28.2197 63.4356 27.7953 61.2674 27.371C63.6471 31.7736 69.1469 32.0919 70.5218 36.2823C48.5756 43.9206 28.5332 54.052 13.5145 71.2382C14.7837 72.2991 15.6298 73.0417 16.7933 73.9965C31.0186 64.2364 46.143 54.7416 64.1759 50.1268ZM81.68 30.9779C82.3675 31.9858 82.8963 32.8345 83.1607 33.2058C81.257 33.9484 79.459 34.691 77.5552 35.4867C77.3965 34.9032 77.1321 34.0014 76.8148 32.9406C79.7234 34.2136 80.358 33.9484 81.68 30.9779Z" fill="#121212"/>
<path d="M34.1933 190.852L34.1404 190.799H34.0875L34.1933 190.852Z" fill="#121212"/>
<path d="M77.1856 201.832C72.6377 197.588 67.8783 193.504 63.3304 189.26C60.6863 186.767 57.8306 184.38 55.7153 181.463C49.0521 172.339 42.7062 163.004 36.0959 153.827C34.6681 151.865 32.7643 150.273 31.0721 148.47C30.3846 149.265 29.9616 149.743 28.9568 150.91C29.2741 149.212 29.1683 148.364 29.5385 147.727C31.6538 144.173 33.8749 140.672 36.043 137.171C36.8363 135.898 37.6295 134.572 38.3699 133.246C37.9997 132.981 37.6824 132.716 37.3122 132.397C35.0912 134.466 32.8701 136.482 30.649 138.551C33.3989 131.443 36.2546 124.335 38.8987 117.227C39.5333 115.53 39.5862 113.673 39.9035 111.869C39.6391 111.816 39.3746 111.763 39.0574 111.71C35.3556 116.378 31.7067 121.046 28.0049 125.661C27.7934 125.608 27.6347 125.502 27.4232 125.449C28.6395 118.606 29.8558 111.816 31.125 104.974C30.8077 104.868 30.4904 104.762 30.1731 104.656C26.4184 111.498 22.6109 118.235 19.0149 124.547C18.6976 122.637 18.2217 119.985 17.7457 117.333C17.2169 117.386 16.741 117.439 16.2121 117.439C15.9477 124.865 15.7362 132.291 15.4718 140.036C14.7314 137.384 13.9911 135.103 13.4094 132.716C10.6066 122.319 6.69329 111.976 10.1307 100.942C10.1835 100.783 10.1307 100.518 10.1835 100.359C11.7171 92.4024 13.2507 84.4459 14.6785 77.1789C14.7314 77.1258 14.1497 77.7623 12.9334 79.0354C12.9334 76.8606 12.9334 75.5345 12.9334 74.1553C12.669 74.1553 12.3517 74.1554 12.0873 74.1023C-3.72455 97.972 -2.87843 122.903 8.01535 148.576C7.32788 147.568 6.58753 146.56 5.79429 145.393C3.78476 150.804 3.3617 155.737 6.42888 160.776C7.69806 162.845 8.06824 165.603 8.4913 168.149C9.073 171.597 9.17877 175.098 9.70759 178.493C11.1354 187.298 12.0873 196.209 17.1111 204.06C19.3851 207.614 21.1302 211.486 23.1397 215.199C25.7839 220.079 28.9568 224.747 30.9663 229.892C35.0383 240.342 38.4756 251.003 42.2303 261.559C43.2879 264.53 42.1774 266.545 39.6391 268.083C38.2641 268.932 36.8892 269.728 35.5142 270.577C35.5671 270.736 35.6729 270.895 35.7258 271.001C36.8363 270.895 37.8939 270.789 39.5862 270.683C38.5814 271.531 37.9997 272.009 37.2593 272.645C44.1341 272.91 48.5233 268.614 47.6243 262.779C46.7782 256.997 46.0378 251.163 44.8215 245.434C43.6581 240.023 42.1774 234.56 40.3265 229.362C37.7353 222.254 34.6681 215.358 31.7067 208.409C31.4423 207.826 30.4375 207.614 29.8558 207.295C31.2836 204.749 31.8653 202.097 31.9711 199.498C31.9711 201.514 31.9711 203.529 32.024 205.545C32.024 206.394 32.4999 207.189 32.9759 208.515C35.8844 202.309 35.5671 196.58 34.1393 190.799C33.4518 190.374 32.7115 189.95 32.024 189.526C32.024 192.284 32.024 195.042 32.024 197.747C31.8653 193.981 30.9135 190.162 30.0673 186.29C30.2789 186.184 30.4904 186.078 30.7548 185.972C31.9182 187.563 33.0816 189.154 34.245 190.746C34.5095 190.852 34.7739 190.905 34.9325 191.117C40.2736 197.005 45.509 202.893 50.903 208.781C52.3308 210.319 53.9173 211.698 55.398 213.13C55.7153 212.865 55.9797 212.653 56.297 212.387C54.8692 210.213 53.7058 207.826 52.0664 205.863C46.8311 199.657 41.4371 193.504 36.043 187.457C32.7115 183.744 32.7115 179.341 33.3989 174.939C33.7162 172.976 34.721 171.119 35.3556 169.422C35.9902 170.907 36.1488 172.18 36.8892 172.923C42.4418 178.546 48.1002 184.115 53.7587 189.632C56.9845 192.814 60.2632 195.944 63.7534 198.861C66.2389 200.983 68.9888 202.787 71.7387 204.537C73.6425 205.757 75.7578 206.659 77.7144 207.667C77.9788 206.128 78.2961 205.174 78.2432 204.219C78.0317 203.423 77.7673 202.362 77.1856 201.832Z" fill="#121212"/>
<path d="M246.992 212.069C247.045 212.069 247.045 212.016 247.045 212.016C247.045 212.069 246.992 212.069 246.992 212.069Z" fill="#121212"/>
<path d="M314.628 134.466C316.902 131.071 319.335 127.836 321.556 124.441C324.359 120.197 326.739 115.635 325.787 110.384C323.83 99.9345 318.489 91.1292 312.249 82.0587C312.46 83.597 312.619 84.4987 312.83 86.2492C311.561 84.817 310.821 83.9683 310.081 83.1196C309.975 83.2257 309.869 83.2787 309.763 83.3848C310.081 84.2335 310.451 85.0822 310.768 85.984C310.557 86.1961 310.292 86.3553 310.081 86.5674C309.658 85.8779 309.287 85.1353 308.864 84.4457C309.023 86.1431 309.499 87.6283 310.081 89.1136C312.249 94.5771 314.523 99.9345 316.638 105.398C318.965 111.392 317.273 116.855 313.782 121.735C309.71 127.464 305.163 132.875 300.826 138.444C300.509 131.973 300.192 125.236 299.874 118.553C299.504 118.553 299.187 118.553 298.817 118.606C298.605 121.576 298.394 124.547 298.182 127.517C296.543 120.197 295.062 112.824 292.101 105.981C291.836 106.035 291.625 106.088 291.36 106.141C291.36 112.294 291.36 118.5 291.36 125.661C288.452 120.834 285.913 116.696 283.428 112.559C283.058 112.718 282.74 112.877 282.37 113.036C283.322 121.311 284.274 129.639 285.279 138.55C283.163 136.8 281.524 135.474 279.514 133.883C279.779 137.543 286.283 147.78 287.711 147.356C288.24 146.825 288.716 146.242 289.245 145.711C286.759 151.599 284.115 157.328 281.154 162.897C279.144 166.77 278.668 169.528 280.731 173.825C282.74 168.096 284.433 163.11 286.442 157.381C286.072 162.791 284.75 167.035 282.582 171.278C279.515 177.325 277.029 183.691 274.279 189.95C274.068 190.374 273.803 191.223 273.592 191.17C270.366 190.852 269.996 194.034 268.303 195.519C263.385 199.975 258.732 204.696 253.655 208.993C251.857 210.531 249.213 211.114 246.939 212.122C246.622 212.493 246.304 212.865 245.934 213.289C246.304 213.395 246.78 213.607 247.362 213.82C246.78 214.244 246.251 214.615 245.3 215.252C246.622 215.252 247.415 215.252 249.001 215.252C247.785 216.047 247.203 216.419 246.569 216.79C246.727 217.108 246.886 217.427 247.045 217.745C250.535 216.1 254.237 214.827 257.357 212.706C260.847 210.319 263.703 207.083 266.876 204.166C269.52 207.242 272.957 206.181 276.183 205.757C278.404 205.439 280.572 204.59 282.793 204.006C281.418 205.173 279.832 205.651 278.298 206.287C277.188 206.765 276.236 207.507 277.664 208.621C279.779 210.319 282.053 209.894 284.115 208.833C284.38 209.841 284.433 211.008 284.961 211.857C288.134 217.108 291.413 222.307 294.798 227.452C296.278 229.68 298.288 231.536 299.663 233.764C305.11 242.888 310.451 252.011 315.686 261.294C316.479 262.673 316.744 264.689 316.426 266.227C315.739 268.932 314.417 271.478 313.359 274.077C313.465 274.13 313.518 274.183 313.624 274.236C314.258 273.441 314.946 272.645 315.58 271.903C315.686 271.956 315.845 272.062 315.951 272.115C315.739 272.751 315.527 273.388 315.316 274.024C315.527 274.13 315.739 274.236 316.003 274.343C317.696 271.107 319.599 268.03 320.921 264.689C321.556 262.991 321.662 260.604 320.974 258.96C317.696 250.844 314.152 242.888 310.556 234.931C309.975 233.605 308.388 232.756 307.86 231.483C305.85 226.55 304.052 221.511 302.201 216.472C300.667 212.281 299.187 208.091 297.547 203.953C297.283 203.211 296.49 202.68 296.225 202.362C296.225 198.596 296.225 194.883 296.225 191.117C303.047 199.02 309.605 206.499 318.066 212.228C317.749 210.478 317.167 208.886 316.215 207.666C310.504 200.559 304.687 193.504 298.975 186.396C298.235 185.494 297.23 184.274 297.389 183.372C297.971 178.651 297.23 173.825 299.451 169.263C300.932 166.186 301.566 162.685 302.518 159.344C302.941 157.911 303.153 156.373 303.47 154.888C303.682 154.941 303.946 154.941 304.158 154.994C304.052 156.267 303.946 157.54 303.84 158.813C305.797 155.1 307.278 151.281 308.6 147.356C308.917 146.295 308.124 144.81 308.653 143.908C310.504 140.513 312.566 137.49 314.628 134.466ZM295.908 164.277C291.466 174.249 286.759 184.062 279.885 192.602C276.606 196.686 272.587 200.134 268.832 203.794C268.462 204.166 267.669 204.059 267.034 204.113C271.371 199.71 276.236 195.732 279.832 190.799C283.375 185.972 285.543 180.137 288.505 174.832C289.562 172.923 291.466 171.491 292.418 169.528C293.74 166.77 294.48 163.799 295.485 160.882C296.067 159.131 296.701 157.381 297.283 155.684C297.6 155.79 297.918 155.843 298.182 155.949C297.442 158.76 297.019 161.677 295.908 164.277ZM300.033 155.1C299.293 152.236 298.499 148.894 297.706 145.764C300.086 147.356 300.826 150.379 300.033 155.1ZM302.994 151.652C302.413 148.682 301.831 145.711 301.249 142.741C301.619 142.688 301.99 142.582 302.36 142.529C302.836 145.499 303.259 148.523 303.735 151.493C303.47 151.599 303.206 151.652 302.994 151.652Z" fill="#121212"/>
<path d="M259.472 202.946C263.597 198.808 267.616 194.459 271.635 190.215C271.423 189.95 271.212 189.685 271 189.42C267.669 189.101 264.39 188.624 261.058 188.412C254.237 188.041 247.415 187.934 240.646 187.457C234.194 186.98 230.81 191.276 233.348 197.217C234.67 200.4 236.415 203.423 238.055 206.447C240.276 210.531 243.29 211.38 248.155 209.364C246.674 205.757 247.468 200.93 242.232 199.127C247.309 200.081 251.963 201.514 256.669 202.84C257.568 203.158 259.049 203.423 259.472 202.946Z" fill="#121212"/>
<path d="M15.1029 201.991C12.5117 210.584 9.92041 218.805 7.5407 227.08C4.31487 238.166 2.56975 249.518 2.62263 261.134C2.62263 262.248 2.78128 263.999 3.46875 264.423C6.58882 266.386 9.92041 267.977 13.1991 269.674C13.3578 269.356 13.5164 269.091 13.6222 268.773C12.6703 268.189 11.6655 267.606 10.7136 267.022C10.7665 266.863 10.8723 266.704 10.9252 266.545C11.7713 266.704 12.6174 266.916 13.4635 267.075C12.5117 265.484 11.0309 264.529 10.1319 263.15C8.91564 261.293 7.59358 259.225 7.32917 257.156C6.21864 249.412 11.1367 243.099 12.8818 235.992C13.9395 231.801 17.0595 227.982 19.6508 224.322C22.3478 220.609 23.617 217.426 20.3911 213.13C18.0643 209.947 16.9009 205.863 15.1029 201.991Z" fill="#121212"/>
<path d="M243.397 216.684C247.839 223.314 249.637 230.634 249.796 238.485C250.166 238.432 250.483 238.379 250.853 238.273C251.118 237.265 251.435 236.31 251.805 234.878C252.176 235.992 252.387 236.522 252.651 237.318C255.401 228.937 255.031 223.898 251.224 217.426C248.738 217.214 245.935 220.185 243.397 216.684Z" fill="#121212"/>
<path d="M92.733 96.3806C95.43 98.5024 97.9154 100.942 100.189 103.489C101.247 104.709 101.67 106.512 102.41 107.997C103.098 107.202 103.257 106.565 103.204 105.929C102.939 101.95 100.93 98.7146 98.2327 96.0624C94.7425 92.7206 92.3099 89.2197 93.3676 83.6501C88.1322 87.5223 88.238 92.8797 92.733 96.3806Z" fill="#121212"/>
<path d="M288.609 100.783C280.941 97.5473 271.898 96.8578 266.663 88.636C265.658 93.1977 265.658 93.6221 269.254 95.1604C276.34 98.2369 283.532 100.995 290.83 103.966C291.888 100.783 289.614 101.207 288.609 100.783Z" fill="#121212"/>
<path d="M34.1933 190.852L34.0875 190.745V190.799C34.0875 190.852 34.1404 190.852 34.1933 190.852Z" fill="#121212"/>
</svg>
