<svg width="249" height="191" viewBox="0 0 249 191" fill="none" xmlns="http://www.w3.org/2000/svg">
<g opacity="0.1">
<path d="M218.38 169.715C218.749 171.402 217.415 172.015 216.571 171.368C214.073 169.466 213.329 171.782 212.51 172.984C210.343 176.129 207.573 178.347 204.042 179.776C201.84 180.664 201.169 182.985 199.733 184.589C196.732 188.048 193.325 190.963 189.166 192.942C188.783 193.138 188.313 192.996 187.199 193.07C189.896 189.738 193.107 187.55 194.351 183.272C190.772 185.436 189.449 189.229 185.639 190.971C187.614 187.37 190.055 184.539 193.032 182.556C196.317 180.372 199.176 177.938 201.602 174.774C203.823 171.928 206.912 169.916 210.041 168.423C212.366 167.358 211.634 166.681 210.614 165.357C209.662 164.112 208.827 162.763 207.954 161.449C208.488 161.189 208.797 160.988 208.905 161.032C213.179 164.567 216.101 162.839 218.375 158.63C218.919 157.668 219.856 156.917 220.69 157.157C224.021 158.191 225.246 155.87 226.712 153.824C226.79 153.755 226.839 153.574 226.918 153.505C234.67 147.479 240.95 139.692 250.233 134.543C249.134 133.288 247.966 131.954 246.832 130.66C246.386 130.15 245.497 129.611 246.174 128.88C246.772 128.217 247.513 128.747 248.161 129.011C248.269 129.055 248.372 129.173 248.48 129.217C253.287 131.383 253.503 131.471 256.037 126.688C257.262 124.367 258.248 123.989 260.054 125.735C261.06 126.725 261.614 126.725 262.516 125.38C265.638 120.636 269.899 117.113 274.312 113.525C278.254 110.35 281.171 105.925 285.874 103.539C287.443 102.719 286.633 101.557 285.892 100.473C285.024 99.0857 283.12 98.2576 283.517 96.1777C285.807 95.6275 287.51 98.918 289.609 97.3573C291.281 96.101 292.448 94.1091 293.673 92.3428C294.413 91.2095 295.409 90.6842 296.439 91.3067C298.539 92.5174 299.372 91.6489 300.632 89.9218C302.902 86.8946 305.451 84.1075 308.967 82.3452C311.758 80.9412 313.071 77.8506 315.385 75.8239C315.934 75.343 316.626 74.9454 317.033 74.3812C318.371 72.5854 321.863 72.8538 321.911 70.4552C321.916 68.7189 320.076 66.9343 318.981 65.0512C319.506 64.9382 319.888 64.7418 320.178 64.8349C322.022 65.4375 323.676 67.8009 325.427 67.0302C327.065 66.2888 328.246 64.0762 329.32 62.3738C329.981 61.3091 330.795 60.1807 331.761 60.6511C334.73 62.141 335.288 59.8502 336.724 58.2457C338.597 56.1898 340.401 54.0554 342.799 52.4407C345.467 50.6591 347.899 48.5293 349.962 45.821C352.394 42.5827 355.846 40.1141 360.137 38.3662C358.454 36.4442 357.046 34.8359 355.637 33.2277C356.819 32.1236 357.491 33.1288 358.173 33.4327C362.564 35.2015 363.765 34.9116 366.368 30.761C367.319 29.2352 368.098 28.0675 370.056 29.1948C371.945 30.2437 372.788 28.6738 373.494 27.5012C376.234 22.9532 380.102 19.7732 384.535 17.0001C387.463 15.1988 388.908 11.7844 391.88 9.87514C393.616 8.77083 395.175 7.54396 397.358 7.50381C394.406 9.11875 392.175 11.5574 389.939 14.0697C392.769 12.6314 395.525 11.1882 398.467 9.72038C398.198 12.1043 397.424 13.7527 394.614 15.4509C389.186 18.7493 384.42 22.6457 380.468 27.6308C379.14 29.2794 377.394 30.5308 375.329 31.0222C372.588 31.6904 373.02 32.9753 374.389 34.6179C375.827 36.3389 377.191 38.0551 377.933 40.2473C376.241 40.6894 375.176 39.4734 374.082 38.6989C370.834 36.4145 368.372 36.7687 366.725 40.4285C366.073 41.9002 365.696 42.5772 364.264 41.8911C363.258 41.455 363.072 42.0339 362.621 42.706C359.626 47.2002 355.502 50.3263 350.627 52.5159C349.941 52.8399 349.338 53.0217 348.955 53.7723C346.588 58.2711 342.734 61.2303 338.33 63.562C336.531 64.5143 336.448 65.2108 337.787 66.7406C339.23 68.388 340.28 70.379 341.556 72.311C339.296 72.9741 338.191 71.2382 336.773 70.3314C333.761 68.3952 331.402 68.867 330.221 72.1882C329.628 73.8855 329.231 74.8568 327.309 74.323C325.93 73.9361 325.121 74.991 324.587 75.8054C322.317 79.3869 318.787 81.37 315.261 83.2794C313.613 84.1679 312.917 85.7476 311.947 87.0135C309.481 90.2125 306.681 92.8721 302.929 94.2863C300.732 95.1014 301.542 96.2635 302.17 97.3767C303.363 99.451 304.747 101.427 306.117 103.624C303.66 104.459 302.379 102.6 301.265 101.566C298.762 99.1831 297.336 100.64 295.845 102.5C294.438 104.217 293.728 106.572 290.814 106.49C290.113 106.48 289.191 107.565 288.623 108.34C286.177 111.799 283.009 114.434 279.326 116.481C277.409 117.536 275.997 119.327 274.624 121.084C271.889 124.45 268.339 126.727 264.155 127.965C266.969 124.53 271.736 123.405 274.53 119.156C270.269 121.017 266.993 123.608 263.713 126.273C262.345 127.401 264.003 127.474 264.337 128.014C263.597 130.256 265.966 130.745 266.688 132.123C267.341 133.423 268.146 134.658 268.946 135.968C266.641 136.739 265.316 134.988 263.854 134.189C260.782 132.582 258.649 132.995 257.62 136.252C257.013 138.17 256.528 139.357 254.149 138.46C252.456 137.794 251.049 138.957 250.176 140.414C248.647 142.862 246.813 144.884 244.283 146.268C240.37 148.448 236.839 150.985 234.325 154.92C232.55 157.721 230.177 160.077 226.567 160.466C227.716 163.756 230.464 165.786 231.196 169.234C229.215 169.028 227.988 168.023 226.639 167.195C222.802 164.872 220.571 165.648 218.468 170.053C216.354 167.955 215.155 164.845 211.364 164.077C212.399 165.734 213.121 167.112 214.078 168.284C215.035 169.456 216.134 171.266 218.38 169.715ZM358.87 45.2287C351.376 47.9099 344.741 52.1259 338.985 57.5826C345.315 52.9399 353.177 50.8374 358.87 45.2287ZM267.331 121.303C272.857 117.087 280.459 116.113 285.17 109.7C278.55 113.141 272.189 116.008 267.331 121.303ZM302.967 89.2636C305.575 86.7022 308.885 85.2588 311.999 83.4328C315 81.6364 318.472 80.5363 321.198 77.3175C313.582 79.6211 308.178 84.2143 302.967 89.2636ZM395.354 13.2091C389.705 15.9385 383.692 18.0158 379.481 23.0206C384.855 19.9773 390.637 17.4783 395.354 13.2091ZM234.186 151.992C230.871 154.063 227.012 155.433 224.129 159.343C229.515 158.924 231.956 155.539 234.186 151.992ZM204.329 174.326C200.299 178.271 196.691 182.54 193.863 187.858C199.291 184.56 201.457 179.198 204.329 174.326ZM220.141 158.747C222.168 162.169 224.598 165.101 228.473 166.282C226.206 163.139 224.654 159.23 220.141 158.747ZM351.9 46.6883C354.691 45.2844 357.481 43.8804 360.242 42.3637C360.894 42.0004 362.076 41.4506 361.658 40.4992C361.113 39.2438 359.991 40.0192 359.083 40.3286C355.94 41.4875 354.097 44.2105 351.9 46.6883ZM302.555 101.06C302.126 97.4846 299.173 95.774 297.833 93.1357C297.509 92.4492 295.978 92.1261 295.189 92.8866C294.208 93.7454 295.386 94.3777 295.827 94.9612C297.56 97.2559 299.998 98.9324 302.555 101.06ZM213.097 169.143C207.698 172.554 206.193 174.08 204.586 177.706C208.95 175.963 211.196 172.749 213.097 169.143ZM246.876 141.711C242.183 144.503 237.417 147.291 232.724 150.084C238.074 148.517 242.733 145.685 246.876 141.711ZM278.843 110.943C282.428 109.26 286.548 108.424 289.116 103.68C284.55 105.668 281.51 108.053 278.843 110.943ZM335.838 62.6948C340.247 61.9524 342.836 58.5767 345.866 55.7846C342.1 57.4194 338.77 59.7114 335.838 62.6948ZM240.785 143.856C244.521 141.555 248.292 139.292 252.068 136.956C246.771 136.605 244.065 140.638 240.785 143.856ZM337.715 69.507C337.12 66.216 334.794 64.5101 332.974 62.4311C332.458 61.8428 331.654 61.7156 331.09 62.4172C330.492 63.0796 331.164 63.5306 331.469 63.9572C333.063 66.0951 335.247 67.7177 337.715 69.507ZM285.602 98.7176C287.698 101.11 289.135 102.831 290.725 104.489C291.245 105.003 292.089 105.096 292.751 104.586C293.143 104.242 293.114 103.575 292.726 103.291C290.68 101.825 289.806 98.8483 285.602 98.7176ZM374.493 37.5068C374.807 37.232 375.047 36.9524 375.361 36.6775C373.781 34.8732 372.24 33.0345 370.621 31.2645C370.106 30.6761 369.551 29.5678 368.609 30.3922C367.943 30.9762 368.169 32.0257 368.865 32.6631C370.75 34.3398 372.604 35.9037 374.493 37.5068ZM249.589 131.434C250.424 134.445 252.485 135.69 254.349 137.107C254.879 137.474 255.634 137.783 255.997 137.327C256.438 136.802 256.394 135.801 255.683 135.384C253.803 134.188 252.341 132.281 249.589 131.434ZM372.578 30.729C377.266 29.1183 379.801 27.1062 383.115 22.818C378.947 24.3892 376.407 27.5834 372.578 30.729ZM265.477 133.114C263.077 130.849 261.83 127.367 258.077 126.564C259.761 129.595 262.401 131.58 265.477 133.114ZM316.166 77.4275C319.138 76.6268 321.433 75.4487 323.674 73.9713C324.14 73.6327 324.998 73.5048 324.64 72.7791C324.35 72.1317 323.639 71.7151 322.82 72.3629C320.687 73.8843 318.078 74.783 316.166 77.4275ZM300.437 93.4191C304.302 92.5297 307.391 90.5174 309.013 86.6713C306.13 88.919 303.286 91.1323 300.437 93.4191ZM321.92 67.5368C324.378 70.0275 325.488 72.7983 329.152 73.2628C327.714 69.879 325.31 68.796 321.92 67.5368ZM296.717 99.9344C296.81 98.5364 296.054 97.6735 295.48 96.8595C294.945 96.0112 294.297 94.6381 293.017 95.5509C291.507 96.5963 293.116 97.4049 293.7 98.0718C294.426 98.8219 294.893 100.146 296.717 99.9344ZM217.68 160.763C218.578 162.264 218.245 164.496 220.732 164.882C221.061 164.941 221.497 164.49 221.88 164.293C221.026 162.685 220.088 161.219 218.327 160.474C218.258 160.395 218.136 160.572 217.68 160.763Z" fill="white"/>
</g>
<path opacity="0.1" d="M194.287 190.813C195.923 191.39 196.729 190.131 196.202 189.206C194.655 186.471 197.08 186.011 198.401 185.34C201.86 183.558 204.477 181.058 206.414 177.699C207.619 175.604 210.038 175.218 211.85 173.977C215.743 171.4 219.15 168.347 221.726 164.427C221.978 164.069 221.903 163.58 222.137 162.474C218.415 164.763 215.763 167.709 211.302 168.427C213.982 165.11 217.968 164.253 220.259 160.653C216.371 162.187 213.187 164.282 210.775 167.018C208.118 170.038 205.271 172.6 201.755 174.639C198.588 176.512 196.131 179.357 194.188 182.306C192.789 184.501 192.216 183.686 191.037 182.501C189.926 181.394 188.696 180.393 187.505 179.356C187.168 179.859 186.923 180.144 186.951 180.257C189.878 184.972 187.729 187.685 183.189 189.443C182.149 189.869 181.263 190.714 181.384 191.579C181.941 195.041 179.442 195.981 177.184 197.197C177.104 197.267 176.915 197.294 176.835 197.364C169.691 204.382 160.996 209.71 154.511 218.369C153.411 217.114 152.243 215.781 151.11 214.486C150.663 213.976 150.251 213.021 149.422 213.608C148.673 214.125 149.097 214.932 149.269 215.613C149.298 215.727 149.401 215.844 149.429 215.958C150.909 221.038 150.967 221.265 145.815 223.212C143.316 224.153 142.796 225.093 144.285 227.116C145.132 228.246 145.053 228.8 143.578 229.538C138.38 232.079 134.242 235.911 130.018 239.887C126.275 243.443 121.426 245.817 118.364 250.232C117.319 251.702 116.271 250.748 115.292 249.872C114.027 248.832 113.471 246.824 111.332 246.964C110.453 249.19 113.503 251.301 111.64 253.209C110.143 254.729 107.981 255.651 106.037 256.66C104.797 257.262 104.128 258.194 104.604 259.302C105.515 261.553 104.526 262.281 102.616 263.329C99.2605 265.229 96.1049 267.438 93.8368 270.741C92.0315 273.361 88.749 274.295 86.3884 276.362C85.8283 276.853 85.3312 277.496 84.708 277.834C82.7184 278.953 82.4867 282.482 80.0785 282.235C78.3395 282.025 76.8163 279.963 75.0879 278.635C74.8995 279.146 74.6482 279.505 74.6999 279.806C75.0389 281.727 77.1682 283.674 76.1457 285.332C75.1689 286.881 72.7845 287.791 70.9262 288.656C69.7655 289.187 68.5191 289.862 68.8517 290.888C69.9182 294.043 67.5446 294.32 65.7325 295.56C63.4058 297.182 61.0104 298.725 59.0503 300.927C56.8845 303.378 54.4038 305.55 51.3966 307.283C47.8062 309.318 44.8402 312.47 42.4754 316.551C40.7922 314.629 39.3839 313.021 37.9755 311.412C36.7008 312.459 37.6109 313.256 37.8174 313.977C38.9594 318.59 38.497 319.758 33.9686 321.852C32.3048 322.616 31.024 323.252 31.8723 325.351C32.6518 327.372 30.9592 328.022 29.6842 328.584C24.7383 330.767 21.0003 334.248 17.5889 338.345C15.3661 341.054 11.7405 342.08 9.40332 344.82C8.04903 346.422 6.59732 347.832 6.24446 350.012C8.28419 347.255 11.0453 345.323 13.8808 343.394C12.0354 346.05 10.1957 348.631 8.30472 351.396C10.7299 351.421 12.4912 350.849 14.594 348.245C18.6739 343.216 23.2577 338.925 28.8147 335.583C30.6556 334.456 32.1586 332.863 32.9463 330.856C34.008 328.194 35.2326 328.785 36.681 330.358C38.198 332.01 39.7208 333.587 41.8093 334.6C42.4944 332.96 41.4295 331.744 40.8108 330.553C38.9891 327.02 39.6964 324.598 43.5963 323.401C45.1632 322.93 45.8951 322.635 45.4134 321.117C45.1208 320.056 45.727 319.941 46.4646 319.572C51.3931 317.128 55.1137 313.384 58.0042 308.774C58.4269 308.126 58.6953 307.545 59.5016 307.254C64.3448 305.439 67.8597 301.945 70.8249 297.823C72.0362 296.139 72.7454 296.142 74.0851 297.671C75.5278 299.319 77.3707 300.616 79.1222 302.132C80.1099 299.95 78.5302 298.63 77.8254 297.099C76.3185 293.844 77.1288 291.541 80.623 290.768C82.4073 290.383 83.4366 290.106 83.1776 288.115C82.9877 286.687 84.1598 286.007 85.0517 285.573C88.9626 283.742 91.4538 280.451 93.8706 277.157C94.9962 275.616 96.6774 275.114 98.0838 274.299C101.64 272.224 104.704 269.749 106.657 266.167C107.788 264.068 108.835 265.022 109.86 265.788C111.766 267.238 113.546 268.867 115.549 270.509C116.737 268.152 115.06 266.64 114.184 265.398C112.157 262.599 113.82 261.35 115.895 260.087C117.816 258.89 120.275 258.469 120.611 255.542C120.701 254.838 121.919 254.049 122.777 253.575C126.59 251.553 129.682 248.706 132.259 245.271C133.59 243.482 135.586 242.289 137.541 241.131C141.303 238.807 144.091 235.533 145.93 231.498C142.088 233.892 140.279 238.526 135.625 240.799C138.098 236.762 141.161 233.802 144.299 230.846C145.625 229.616 145.461 231.285 145.953 231.685C148.303 231.221 148.454 233.653 149.73 234.546C150.938 235.359 152.06 236.318 153.256 237.28C154.358 235.067 152.795 233.525 152.205 231.963C151.035 228.69 151.754 226.605 155.163 225.976C157.17 225.604 158.428 225.265 157.872 222.773C157.447 220.996 158.813 219.73 160.397 219.036C163.067 217.807 165.354 216.22 167.102 213.858C169.845 210.208 172.891 206.986 177.19 204.954C180.249 203.522 182.947 201.437 183.854 197.871C186.984 199.427 188.622 202.428 191.969 203.586C192.048 201.576 191.217 200.224 190.581 198.772C188.805 194.644 189.901 192.506 194.613 190.944C192.815 188.568 189.874 186.985 189.648 183.094C191.159 184.335 192.435 185.227 193.471 186.33C194.507 187.432 196.161 188.756 194.287 190.813ZM49.5276 316.128C53.2855 308.955 58.457 302.833 64.7447 297.742C59.1897 303.508 55.9584 311.12 49.5276 316.128ZM138.805 233.856C133.793 238.869 131.728 246.36 124.633 250.286C129.027 244.082 132.808 238.068 138.805 233.856ZM101.623 265.585C98.6849 267.881 96.7656 271.017 94.4914 273.91C92.263 276.693 90.6641 280.034 87.0511 282.366C90.4484 275.025 95.8211 270.181 101.623 265.585ZM12.2435 348.709C15.7855 343.389 18.7266 337.626 24.3405 334.026C20.5237 339.032 17.1935 344.513 12.2435 348.709ZM174.278 204.454C176.827 201.391 178.752 197.695 183.08 195.291C181.888 200.631 178.149 202.658 174.278 204.454ZM200.917 177.314C205.444 173.766 210.235 170.679 215.964 168.503C211.884 173.532 206.206 175.039 200.917 177.314ZM183.053 191.225C186.19 193.676 188.777 196.47 189.404 200.495C186.582 197.838 182.891 195.803 183.053 191.225ZM51.9874 309.33C50.182 311.95 48.3767 314.571 46.4626 317.148C46.0055 317.756 45.2857 318.872 44.393 318.337C43.2142 317.637 44.1514 316.608 44.5911 315.738C46.2017 312.733 49.1919 311.224 51.9874 309.33ZM113.493 266.627C109.974 265.757 108.685 262.589 106.235 260.923C105.594 260.514 105.49 258.942 106.365 258.245C107.365 257.369 107.829 258.626 108.35 259.14C110.399 261.157 111.729 263.805 113.493 266.627ZM194.471 185.454C198.66 180.469 200.403 179.15 204.263 177.988C201.893 182.143 198.354 183.994 194.471 185.454ZM162.167 215.892C165.636 211.538 169.11 207.109 172.578 202.755C170.243 207.919 166.74 212.234 162.167 215.892ZM126.784 244.105C124.585 247.487 123.158 251.509 118.041 253.495C120.685 249.169 123.509 246.419 126.784 244.105ZM70.3138 295.222C68.9388 299.545 65.1883 301.72 61.9588 304.41C64.1352 300.84 66.9068 297.789 70.3138 295.222ZM165.188 210.058C162.348 213.515 159.543 217.012 156.663 220.504C157.07 215.157 161.496 212.945 165.188 210.058ZM76.8652 297.94C73.6555 296.939 72.2807 294.4 70.4602 292.321C69.9449 291.733 69.9328 290.912 70.716 290.434C71.4649 289.916 71.8201 290.645 72.2036 291.002C74.1156 292.863 75.4273 295.248 76.8652 297.94ZM113.576 249.366C115.671 251.758 117.188 253.41 118.62 255.206C119.061 255.79 119.033 256.646 118.427 257.246C118.027 257.596 117.363 257.484 117.134 257.061C115.96 254.832 113.105 253.59 113.576 249.366ZM39.5584 330.818C39.2383 331.099 38.9239 331.305 38.6038 331.585C37.0237 329.781 35.4035 328.011 33.8634 326.172C33.3482 325.583 32.318 324.892 33.2783 324.051C33.9585 323.455 34.9769 323.811 35.5152 324.587C36.9239 326.68 38.224 328.729 39.5584 330.818ZM151.49 217.342C154.385 218.549 155.336 220.765 156.487 222.806C156.78 223.382 156.98 224.177 156.472 224.484C155.883 224.861 154.887 224.693 154.572 223.929C153.644 221.901 151.944 220.201 151.49 217.342ZM33.047 328.065C30.7627 332.561 28.3851 334.851 23.617 337.64C25.7874 333.66 29.3491 331.511 33.047 328.065ZM150.896 233.455C148.972 230.774 145.665 229.096 145.399 225.24C148.192 227.299 149.801 230.187 150.896 233.455ZM87.8821 277.341C86.6546 280.218 85.1464 282.371 83.3463 284.432C82.9405 284.857 82.6895 285.701 82.0142 285.252C81.4076 284.883 81.0924 284.119 81.8583 283.379C83.687 281.431 84.9605 278.93 87.8821 277.341ZM106.146 263.565C104.702 267.325 102.245 270.17 98.1615 271.32C100.825 268.71 103.448 266.136 106.146 263.565ZM77.1554 281.884C79.2968 284.652 81.9119 286.104 81.852 289.83C78.6703 287.973 77.9304 285.433 77.1554 281.884ZM113.202 260.644C111.789 260.564 111.033 259.701 110.3 259.026C109.528 258.386 108.246 257.568 109.343 256.399C110.606 255.016 111.185 256.726 111.769 257.393C112.416 258.213 113.675 258.843 113.202 260.644ZM185.425 189.009C186.799 190.094 189.081 190.036 189.112 192.573C189.124 192.909 188.609 193.291 188.358 193.649C186.87 192.596 185.536 191.477 185.043 189.622C184.974 189.543 185.168 189.442 185.425 189.009Z" fill="white"/>
</svg>
