<svg width="894" height="221" viewBox="0 0 894 221" fill="none" xmlns="http://www.w3.org/2000/svg">
<g opacity="0.1">
<path d="M518.429 130.835C517.967 132.499 516.501 132.418 516.057 131.452C514.738 128.603 512.998 130.302 511.712 130.982C508.327 132.749 504.841 133.415 501.052 133.028C498.69 132.785 497.012 134.522 494.992 135.269C490.723 136.925 486.348 137.909 481.747 137.714C481.317 137.709 480.967 137.363 479.948 136.908C483.889 135.224 487.751 134.79 490.85 131.59C486.674 131.83 483.732 134.564 479.549 134.324C482.978 132.063 486.46 130.702 490.018 130.34C493.943 129.945 497.608 129.129 501.233 127.466C504.526 125.988 508.198 125.653 511.661 125.796C514.214 125.941 513.884 125.001 513.6 123.353C513.341 121.807 513.233 120.225 513.075 118.655C513.669 118.675 514.037 118.641 514.111 118.731C516.237 123.853 519.629 123.692 523.607 121.033C524.537 120.438 525.716 120.212 526.341 120.813C528.802 123.284 530.97 121.805 533.222 120.682C533.324 120.658 533.452 120.52 533.553 120.496C543.223 118.792 552.415 114.843 563.028 114.63C562.643 113.007 562.234 111.282 561.837 109.608C561.68 108.948 561.147 108.056 562.087 107.726C562.925 107.42 563.333 108.234 563.782 108.771C563.856 108.86 563.893 109.013 563.967 109.102C567.205 113.264 567.355 113.443 571.831 110.399C573.998 108.92 575.047 109.046 575.827 111.433C576.254 112.779 576.744 113.038 578.169 112.271C583.147 109.536 588.561 108.413 594.139 107.304C599.108 106.34 603.755 103.791 609.028 103.88C610.798 103.889 610.625 102.483 610.477 101.178C610.357 99.5454 609.062 97.9236 610.384 96.2702C612.666 96.8543 612.634 100.559 615.219 100.161C617.284 99.8315 619.247 98.6158 621.156 97.6272C622.34 96.9712 623.465 96.9722 624.085 98.004C625.375 100.056 626.518 99.6775 628.439 98.7396C631.861 97.1242 635.417 95.852 639.349 95.9374C642.472 96.0005 645.078 93.882 648.071 93.172C648.781 93.0036 649.578 92.9753 650.202 92.6666C652.224 91.7046 655.186 93.5742 656.35 91.4763C657.165 89.9432 656.373 87.5055 656.285 85.3292C656.802 85.4745 657.232 85.4797 657.444 85.6973C658.793 87.0921 659.151 89.9546 661.059 90.0914C662.853 90.2017 664.931 88.7977 666.676 87.7944C667.759 87.1625 669.006 86.5452 669.64 87.4129C671.568 90.1173 673.132 88.353 675.152 87.606C677.768 86.6638 680.361 85.6202 683.235 85.3134C686.426 84.9853 689.572 84.2392 692.662 82.8095C696.325 81.0832 700.531 80.5144 705.141 80.9748C704.552 78.4889 704.058 76.4089 703.565 74.3289C705.126 73.9051 705.25 75.108 705.711 75.6954C708.766 79.3113 709.964 79.6167 714.205 77.1639C715.759 76.2594 716.993 75.5914 718.197 77.503C719.377 79.3131 720.856 78.3192 722.028 77.6125C726.576 74.8726 731.482 73.8696 736.697 73.4899C740.127 73.2658 743.001 70.923 746.52 70.624C748.571 70.4591 750.523 70.1033 752.471 71.088C749.107 71.1359 745.995 72.2491 742.844 73.4251C746.018 73.4761 749.129 73.4885 752.416 73.5661C751.064 75.548 749.609 76.6433 746.331 76.8313C739.991 77.21 733.956 78.427 728.133 80.9871C726.188 81.8236 724.06 82.114 722.005 81.5833C719.269 80.8926 719.05 82.2306 719.493 84.3226C719.96 86.5161 720.364 88.671 719.995 90.9556C718.292 90.5556 717.919 88.9829 717.314 87.7868C715.51 84.2492 713.168 83.4115 710.002 85.8773C708.738 86.8737 708.088 87.2959 707.142 86.0198C706.457 85.1641 706.022 85.5889 705.309 85.9723C700.56 88.5454 695.454 89.3816 690.121 89.0389C689.362 89.0045 688.744 88.8832 688.055 89.3681C683.86 92.2388 679.07 93.0535 674.087 93.0565C672.051 93.0572 671.652 93.6341 672.121 95.6127C672.626 97.7434 672.624 99.9945 672.85 102.299C670.541 101.828 670.376 99.7777 669.546 98.3133C667.788 95.1935 665.482 94.508 662.886 96.8922C661.569 98.1156 660.764 98.7888 659.313 97.4181C658.276 96.4318 657.067 96.9863 656.214 97.4565C652.534 99.562 648.486 99.6648 644.476 99.7049C642.604 99.7202 641.251 100.791 639.801 101.457C636.126 103.132 632.408 104.175 628.43 103.672C626.107 103.365 626.28 104.771 626.315 106.049C626.4 108.44 626.7 110.834 626.883 113.416C624.321 113.006 624.057 110.764 623.556 109.329C622.457 106.053 620.515 106.675 618.328 107.622C616.282 108.482 614.553 110.232 612.016 108.798C611.4 108.461 610.079 108.989 609.214 109.409C605.434 111.323 601.403 112.172 597.19 112.261C595.002 112.297 592.917 113.221 590.882 114.132C586.891 115.829 582.688 116.183 578.411 115.322C582.504 113.601 587.244 114.834 591.7 112.384C587.063 112.037 582.956 112.797 578.811 113.619C577.074 113.978 578.505 114.817 578.548 115.45C576.846 117.086 578.712 118.626 578.706 120.182C578.676 121.636 578.81 123.104 578.905 124.636C576.507 124.24 576.154 122.073 575.235 120.684C573.271 117.827 571.192 117.195 568.76 119.594C567.327 121.005 566.343 121.828 564.659 119.923C563.474 118.543 561.686 118.914 560.234 119.794C557.738 121.244 555.172 122.174 552.288 122.215C547.81 122.312 543.503 122.905 539.44 125.208C536.562 126.856 533.364 127.829 529.99 126.485C529.468 129.932 530.949 133.01 529.984 136.4C528.328 135.293 527.714 133.831 526.908 132.468C524.602 128.621 522.267 128.264 518.349 131.176C517.461 128.332 517.855 125.023 514.862 122.572C515.003 124.521 514.996 126.077 515.295 127.56C515.593 129.043 515.719 131.157 518.429 130.835ZM700.813 86.4491C692.936 85.3169 685.1 85.943 677.46 88.0765C685.227 86.931 693.16 88.7469 700.813 86.4491ZM584.332 110.916C591.188 109.773 598.364 112.465 605.526 108.997C598.065 108.945 591.102 108.507 584.332 110.916ZM630.811 99.2488C634.314 98.2036 637.915 98.4747 641.521 98.316C645.014 98.1305 648.598 98.7809 652.512 97.2094C644.702 95.686 637.778 97.221 630.811 99.2488ZM748.033 75.1952C741.763 74.9676 735.477 73.9937 729.415 76.4498C735.588 76.2715 741.868 76.7647 748.033 75.1952ZM540.687 122.555C536.788 122.837 532.735 122.244 528.36 124.354C533.316 126.5 537.057 124.649 540.687 122.555ZM503.852 128.345C498.446 129.949 493.26 132.036 488.275 135.416C494.615 135.037 499.036 131.309 503.852 128.345ZM525.113 121.962C525.305 125.936 526.082 129.663 528.956 132.518C528.421 128.68 528.876 124.499 525.113 121.962ZM693.97 84.482C697.093 84.5451 700.216 84.6081 703.366 84.5577C704.112 84.5414 705.414 84.6077 705.49 83.5716C705.595 82.207 704.239 82.3677 703.293 82.2171C699.972 81.7723 697.07 83.3181 693.97 84.482ZM624.933 109.485C626.225 106.124 624.414 103.231 624.462 100.272C624.497 99.514 623.295 98.513 622.241 98.8165C620.973 99.1173 621.719 100.227 621.836 100.949C622.295 103.787 623.667 106.409 624.933 109.485ZM514.026 127.861C507.659 128.353 505.615 128.998 502.5 131.452C507.173 131.951 510.66 130.16 514.026 127.861ZM556.71 119.397C551.256 119.673 545.739 119.91 540.285 120.185C545.748 121.301 551.19 120.975 556.71 119.397ZM599.351 107.14C603.308 107.326 607.34 108.513 611.828 105.52C606.862 105.144 603.06 105.831 599.351 107.14ZM672.289 91.1251C676.534 92.5296 680.4 90.7552 684.384 89.7031C680.29 89.388 676.275 89.858 672.289 91.1251ZM550.322 118.448C554.702 118.159 559.093 117.921 563.523 117.621C559.004 114.834 554.727 117.135 550.322 118.448ZM670.764 98.0244C671.776 94.8371 670.518 92.2419 669.88 89.5531C669.699 88.7921 669.048 88.3036 668.221 88.6604C667.383 88.9665 667.766 89.6793 667.836 90.1987C668.247 92.8342 669.418 95.2891 670.764 98.0244ZM611.041 99.4905C611.775 102.585 612.242 104.779 612.873 106.987C613.092 107.685 613.794 108.161 614.618 108.02C615.125 107.899 615.411 107.296 615.201 106.863C614.077 104.611 614.696 101.571 611.041 99.4905ZM718.235 86.9253C718.641 86.829 718.984 86.694 719.39 86.5978C718.836 84.2641 718.333 81.9184 717.729 79.5967C717.549 78.8357 717.576 77.5967 716.359 77.8855C715.496 78.09 715.205 79.1236 715.523 80.0127C716.405 82.3756 717.314 84.6251 718.235 86.9253ZM563.912 111.58C563.243 114.633 564.483 116.696 565.469 118.82C565.765 119.393 566.289 120.019 566.823 119.785C567.458 119.527 567.887 118.622 567.452 117.921C566.35 115.985 565.949 113.616 563.912 111.58ZM719.709 80.038C724.607 80.8054 727.788 80.2115 732.722 77.9694C728.303 77.4102 724.565 79.047 719.709 80.038ZM577.172 120.492C576.11 117.368 576.634 113.707 573.692 111.243C573.764 114.709 575.17 117.698 577.172 120.492ZM648.012 94.9545C651.013 95.6358 653.593 95.667 656.264 95.4084C656.835 95.3267 657.653 95.6149 657.675 94.8057C657.722 94.0981 657.288 93.3973 656.261 93.5872C653.664 93.9352 650.938 93.5102 648.012 94.9545ZM626.632 101.74C630.465 102.76 634.136 102.425 637.368 99.7834C633.769 100.423 630.22 101.05 626.632 101.74ZM657.722 88.9003C658.731 92.2512 658.417 95.2194 661.439 97.3426C661.749 93.6788 660.13 91.5978 657.722 88.9003ZM620.298 105.761C621.034 104.569 620.769 103.453 620.642 102.465C620.565 101.465 620.634 99.9479 619.076 100.157C617.252 100.375 618.297 101.842 618.502 102.704C618.793 103.707 618.587 105.096 620.298 105.761ZM521.994 122.595C522.087 124.341 520.75 126.159 522.768 127.663C523.031 127.868 523.627 127.673 524.057 127.678C524.054 125.857 523.911 124.123 522.702 122.641C522.678 122.54 522.487 122.639 521.994 122.595Z" fill="white"/>
<path d="M41.5727 243.944C41.0937 245.612 39.6003 245.537 39.1526 244.572C37.8216 241.726 36.0405 243.434 34.7276 244.121C31.27 245.905 27.7151 246.588 23.8557 246.217C21.45 245.984 19.7327 247.731 17.6712 248.488C13.3135 250.165 8.85111 251.17 4.16372 250.995C3.72567 250.992 3.37066 250.648 2.33451 250.197C6.35763 248.492 10.2953 248.041 13.4676 244.823C9.21104 245.082 6.20119 247.833 1.93982 247.611C5.44427 245.333 8.99805 243.954 12.6252 243.576C16.6267 243.163 20.3645 242.33 24.0652 240.648C27.4276 239.154 31.1703 238.802 34.6988 238.93C37.2994 239.063 36.9673 238.124 36.6857 236.476C36.4282 234.929 36.3259 233.346 36.1719 231.775C36.7772 231.792 37.1515 231.757 37.2273 231.846C39.3705 236.964 42.8268 236.787 46.8921 234.108C47.8428 233.508 49.045 233.276 49.6792 233.876C52.1763 236.338 54.3919 234.848 56.6917 233.713C56.7952 233.689 56.9264 233.55 57.0298 233.526C66.8909 231.776 76.2741 227.782 87.0894 227.521C86.7044 225.898 86.2952 224.173 85.8981 222.498C85.7417 221.839 85.2025 220.949 86.1617 220.614C87.0173 220.304 87.4289 221.117 87.8838 221.652C87.9596 221.742 87.9957 221.894 88.0715 221.983C91.352 226.135 91.5037 226.313 96.078 223.245C98.2935 221.755 99.361 221.877 100.146 224.263C100.574 225.609 101.072 225.866 102.528 225.091C107.613 222.331 113.134 221.182 118.823 220.047C123.891 219.06 128.637 216.487 134.009 216.553C135.813 216.553 135.644 215.147 135.498 213.842C135.384 212.208 134.071 210.59 135.426 208.929C137.748 209.503 137.699 213.212 140.335 212.802C142.441 212.463 144.446 211.237 146.395 210.239C147.605 209.577 148.751 209.573 149.378 210.603C150.684 212.651 151.85 212.267 153.812 211.32C157.306 209.687 160.935 208.397 164.941 208.465C168.123 208.514 170.788 206.382 173.841 205.658C174.565 205.486 175.378 205.454 176.014 205.142C178.079 204.17 181.089 206.028 182.284 203.923C183.122 202.385 182.325 199.948 182.246 197.77C182.772 197.913 183.21 197.916 183.425 198.133C184.793 199.523 185.145 202.387 187.088 202.516C188.916 202.618 191.04 201.203 192.823 200.191C193.929 199.553 195.202 198.93 195.845 199.796C197.797 202.494 199.398 200.721 201.46 199.964C204.13 199.009 206.777 197.953 209.707 197.633C212.96 197.29 216.168 196.529 219.324 195.084C223.064 193.339 227.352 192.751 232.048 193.191C231.458 190.705 230.965 188.625 230.471 186.545C232.064 186.114 232.185 187.317 232.652 187.903C235.748 191.509 236.967 191.81 241.3 189.335C242.887 188.423 244.148 187.749 245.366 189.657C246.56 191.464 248.072 190.462 249.269 189.749C253.916 186.986 258.919 185.96 264.235 185.556C267.731 185.317 270.67 182.958 274.257 182.643C276.348 182.469 278.338 182.104 280.319 183.081C276.89 183.144 273.715 184.272 270.499 185.464C273.733 185.501 276.902 185.499 280.252 185.562C278.865 187.552 277.378 188.655 274.037 188.858C267.575 189.265 261.42 190.511 255.475 193.1C253.489 193.946 251.32 194.246 249.228 193.724C246.443 193.045 246.215 194.386 246.656 196.478C247.122 198.672 247.524 200.827 247.137 203.116C245.405 202.723 245.032 201.15 244.42 199.956C242.598 196.422 240.215 195.594 236.978 198.077C235.686 199.08 235.021 199.506 234.063 198.232C233.369 197.379 232.924 197.806 232.196 198.193C227.346 200.79 222.138 201.65 216.706 201.331C215.934 201.3 215.304 201.182 214.6 201.67C210.312 204.563 205.427 205.4 200.35 205.425C198.275 205.435 197.866 206.014 198.336 207.993C198.841 210.124 198.829 212.377 199.048 214.683C196.698 214.222 196.539 212.17 195.7 210.708C193.923 207.593 191.576 206.917 188.92 209.315C187.572 210.546 186.749 211.224 185.277 209.858C184.224 208.875 182.991 209.436 182.119 209.91C178.36 212.035 174.234 212.156 170.149 212.214C168.241 212.238 166.857 213.316 165.377 213.989C161.625 215.682 157.831 216.743 153.781 216.257C151.415 215.961 151.584 217.367 151.614 218.646C151.69 221.04 151.985 223.435 152.161 226.019C149.552 225.62 149.293 223.377 148.789 221.942C147.684 218.668 145.702 219.299 143.469 220.257C141.38 221.127 139.611 222.887 137.032 221.462C136.406 221.128 135.057 221.663 134.174 222.086C130.315 224.02 126.202 224.888 121.91 224.996C119.68 225.042 117.551 225.976 115.474 226.897C111.399 228.614 107.115 228.987 102.761 228.144C106.939 226.403 111.764 227.617 116.315 225.144C111.591 224.817 107.403 225.596 103.176 226.438C101.404 226.805 102.859 227.639 102.9 228.272C101.159 229.918 103.053 231.451 103.04 233.008C103.002 234.464 103.132 235.933 103.223 237.466C100.781 237.081 100.431 234.913 99.5004 233.526C97.5124 230.675 95.3967 230.052 92.908 232.464C91.4409 233.884 90.4349 234.712 88.7272 232.813C87.5262 231.436 85.703 231.815 84.2191 232.703C81.669 234.165 79.0503 235.108 76.1115 235.162C71.5481 235.28 67.1567 235.893 63.0072 238.217C60.0672 239.879 56.8035 240.867 53.3725 239.538C52.8249 242.99 54.3195 246.065 53.3218 249.463C51.6394 248.362 51.0197 246.901 50.205 245.54C47.8727 241.699 45.4948 241.353 41.4897 244.285C40.5968 241.443 41.0132 238.129 37.9746 235.688C38.1093 237.638 38.0961 239.196 38.3933 240.679C38.6905 242.163 38.8096 244.278 41.5727 243.944ZM227.613 198.691C219.591 197.593 211.604 198.255 203.81 200.425C211.729 199.243 219.804 201.025 227.613 198.691ZM108.814 223.708C115.805 222.532 123.105 225.194 130.418 221.691C122.816 221.673 115.723 221.265 108.814 223.708ZM156.226 211.819C159.8 210.757 163.468 211.012 167.144 210.837C170.703 210.635 174.352 211.27 178.348 209.68C170.397 208.19 163.335 209.757 156.226 211.819ZM275.778 187.212C269.391 187.013 262.989 186.066 256.801 188.552C263.093 188.346 269.489 188.811 275.778 187.212ZM64.289 235.555C60.3152 235.854 56.1886 235.279 51.7202 237.411C56.7614 239.537 60.5811 237.667 64.289 235.555ZM26.7308 241.516C21.2142 243.146 15.9214 245.259 10.826 248.665C17.2885 248.257 21.8098 244.505 26.7308 241.516ZM48.4228 235.031C48.6009 239.008 49.3758 242.736 52.2917 245.581C51.7635 241.741 52.2461 237.554 48.4228 235.031ZM220.649 196.752C223.831 196.801 227.013 196.85 230.222 196.786C230.983 196.766 232.309 196.827 232.391 195.789C232.504 194.422 231.122 194.589 230.158 194.443C226.777 194.013 223.813 195.573 220.649 196.752ZM150.191 222.092C151.523 218.722 149.69 215.834 149.753 212.872C149.791 212.112 148.571 211.116 147.496 211.424C146.203 211.731 146.957 212.838 147.074 213.561C147.529 216.4 148.915 219.019 150.191 222.092ZM37.0996 240.986C30.6094 241.507 28.5239 242.163 25.3383 244.633C30.0979 245.112 33.6589 243.303 37.0996 240.986ZM80.6305 232.322C75.0718 232.622 69.4493 232.884 63.8907 233.184C69.4517 234.277 74.9984 233.926 80.6305 232.322ZM124.135 219.859C128.165 220.029 132.269 221.199 136.855 218.182C131.797 217.827 127.92 218.533 124.135 219.859ZM198.527 203.5C202.846 204.887 206.793 203.093 210.857 202.022C206.688 201.725 202.595 202.213 198.527 203.5ZM74.1259 231.4C78.5895 231.091 83.0651 230.833 87.5804 230.513C82.9881 227.744 78.6196 230.066 74.1259 231.4ZM196.942 210.413C197.988 207.218 196.717 204.626 196.079 201.937C195.899 201.176 195.237 200.69 194.393 201.051C193.538 201.361 193.925 202.073 193.994 202.592C194.4 205.229 195.583 207.681 196.942 210.413ZM136.08 212.149C136.814 215.244 137.28 217.438 137.913 219.646C138.133 220.344 138.847 220.817 139.687 220.672C140.204 220.549 140.498 219.943 140.286 219.511C139.152 217.262 139.795 214.216 136.08 212.149ZM245.362 199.089C245.776 198.991 246.127 198.854 246.541 198.756C245.987 196.422 245.485 194.076 244.88 191.755C244.7 190.994 244.733 189.753 243.491 190.048C242.612 190.257 242.311 191.293 242.631 192.181C243.519 194.543 244.435 196.79 245.362 199.089ZM88.0041 224.464C87.3085 227.523 88.5624 229.583 89.5576 231.705C89.8573 232.277 90.388 232.901 90.9331 232.665C91.5818 232.404 92.0223 231.495 91.583 230.796C90.4687 228.863 90.0704 226.492 88.0041 224.464ZM246.896 192.188C251.883 192.934 255.127 192.325 260.165 190.058C255.664 189.518 251.848 191.174 246.896 192.188ZM101.475 233.326C100.407 230.203 100.958 226.536 97.971 224.083C98.0287 227.552 99.4475 230.538 101.475 233.326ZM173.772 207.442C176.828 208.111 179.456 208.131 182.179 207.86C182.761 207.775 183.593 208.06 183.62 207.25C183.67 206.541 183.231 205.842 182.184 206.037C179.537 206.397 176.76 205.983 173.772 207.442ZM151.957 214.332C155.858 215.336 159.6 214.984 162.905 212.324C159.235 212.981 155.616 213.625 151.957 214.332ZM183.693 201.338C184.707 204.688 184.373 207.661 187.443 209.773C187.775 206.104 186.135 204.028 183.693 201.338ZM145.485 218.385C146.24 217.188 145.975 216.072 145.85 215.084C145.777 214.083 145.854 212.564 144.265 212.78C142.406 213.007 143.464 214.471 143.668 215.333C143.961 216.336 143.744 217.727 145.485 218.385ZM45.2421 235.679C45.3288 237.426 43.958 239.252 46.0074 240.749C46.2746 240.953 46.8835 240.755 47.3216 240.758C47.3264 238.935 47.1881 237.2 45.963 235.722C45.9389 235.621 45.744 235.72 45.2421 235.679Z" fill="white"/>
<path d="M487.273 138.226C488.45 139.501 489.751 138.763 489.717 137.7C489.628 134.559 491.987 135.286 493.468 135.309C497.359 135.351 500.842 134.364 504.123 132.3C506.168 131.011 508.487 131.801 510.669 131.551C515.315 131.092 519.754 129.985 523.864 127.725C524.253 127.525 524.416 127.058 525.139 126.19C520.779 126.473 517.058 127.838 512.779 126.388C516.698 124.709 520.623 125.814 524.331 123.702C520.176 123.241 516.382 123.605 512.971 124.896C509.21 126.324 505.497 127.258 501.435 127.418C497.76 127.593 494.258 128.96 491.162 130.658C488.899 131.946 488.774 130.957 488.285 129.358C487.821 127.861 487.201 126.4 486.633 124.927C486.1 125.214 485.749 125.351 485.722 125.465C486.106 131 482.938 132.395 478.103 131.827C476.984 131.717 475.805 132.05 475.508 132.871C474.383 136.192 471.734 135.856 469.17 135.875C469.066 135.9 468.887 135.835 468.783 135.859C459.187 138.725 449.009 139.371 439.229 143.995C438.844 142.371 438.435 140.647 438.038 138.972C437.881 138.313 437.963 137.275 436.956 137.407C436.052 137.514 436.05 138.426 435.884 139.108C435.856 139.222 435.892 139.374 435.864 139.488C434.798 144.671 434.743 144.898 429.278 144.212C426.629 143.876 425.73 144.464 426.101 146.948C426.322 148.342 425.992 148.796 424.344 148.758C418.561 148.576 413.112 150.029 407.52 151.57C402.548 152.963 397.152 152.797 392.381 155.268C390.77 156.079 390.29 154.746 389.834 153.514C389.202 152.003 389.649 149.968 387.692 149.092C385.875 150.649 387.585 153.941 385.045 154.757C383.011 155.4 380.67 155.206 378.479 155.189C377.101 155.141 376.075 155.652 375.977 156.855C375.731 159.271 374.516 159.452 372.338 159.486C368.483 159.597 364.661 160.074 361.112 161.934C358.291 163.407 354.953 162.699 351.9 163.423C351.176 163.595 350.435 163.931 349.727 163.938C347.445 163.997 345.59 167.009 343.577 165.665C342.138 164.667 341.755 162.132 340.848 160.15C340.442 160.514 340.052 160.714 339.957 161.004C339.359 162.861 340.331 165.578 338.653 166.565C337.065 167.478 334.532 167.167 332.485 167.064C331.21 166.991 329.793 167.006 329.607 168.068C329.075 171.355 326.848 170.491 324.666 170.74C321.851 171.086 319.012 171.331 316.25 172.361C313.19 173.516 309.982 174.277 306.513 174.403C302.388 174.524 298.293 175.924 294.295 178.426C293.705 175.94 293.212 173.86 292.718 171.78C291.102 172.11 291.534 173.24 291.38 173.973C290.233 178.586 289.279 179.402 284.297 179.137C282.469 179.034 281.039 178.998 280.808 181.25C280.553 183.401 278.752 183.185 277.362 183.086C271.97 182.704 267.038 184.034 262.108 186.061C258.876 187.417 255.191 186.63 251.845 187.96C249.899 188.743 247.956 189.311 246.625 191.073C249.717 189.59 253.061 189.171 256.469 188.792C253.597 190.277 250.764 191.699 247.8 193.259C249.932 194.415 251.757 194.732 254.833 193.413C260.79 190.875 266.848 189.224 273.322 188.867C275.476 188.731 277.55 188.025 279.184 186.619C281.367 184.761 282.174 185.856 282.719 187.924C283.288 190.093 283.897 192.2 285.27 194.071C286.642 192.942 286.269 191.369 286.279 190.027C286.319 186.052 288.077 184.242 292.084 185.006C293.689 185.322 294.474 185.404 294.758 183.836C294.995 182.762 295.585 182.943 296.409 182.962C301.909 183.104 306.948 181.534 311.658 178.809C312.334 178.434 312.843 178.046 313.692 178.166C318.822 178.825 323.562 177.379 328.11 175.121C329.968 174.198 330.594 174.532 331.063 176.51C331.569 178.641 332.592 180.649 333.432 182.808C335.325 181.341 334.545 179.436 334.638 177.753C334.827 174.171 336.62 172.513 340.07 173.463C341.827 173.957 342.867 174.193 343.568 172.312C344.068 170.961 345.422 170.908 346.413 170.94C350.727 171.15 354.467 169.405 358.143 167.622C359.858 166.787 361.579 167.129 363.204 167.065C367.317 166.893 371.183 166.137 374.584 163.883C376.565 162.556 377.045 163.889 377.592 165.045C378.599 167.218 379.412 169.49 380.415 171.878C382.567 170.349 381.791 168.229 381.597 166.721C381.113 163.299 383.168 162.973 385.593 162.826C387.85 162.666 390.221 163.443 391.886 161.012C392.295 160.433 393.74 160.304 394.72 160.286C399.036 160.28 403.1 159.209 406.984 157.377C408.997 156.417 411.319 156.295 413.588 156.186C418 155.889 421.996 154.299 425.507 151.59C420.992 151.911 417.226 155.162 412.049 154.997C416.123 152.584 420.215 151.399 424.37 150.252C426.117 149.784 425.192 151.183 425.44 151.767C427.735 152.455 426.731 154.676 427.442 156.061C428.13 157.345 428.673 158.716 429.281 160.126C431.29 158.685 430.629 156.591 430.837 154.934C431.333 151.494 432.943 149.987 436.25 151.025C438.199 151.634 439.47 151.922 440.142 149.458C440.597 147.689 442.396 147.209 444.121 147.336C447.056 147.497 449.819 147.163 452.469 145.892C456.599 143.947 460.798 142.523 465.549 142.735C468.923 142.9 472.283 142.317 474.751 139.588C476.791 142.427 476.836 145.846 479.254 148.434C480.263 146.694 480.16 145.111 480.277 143.529C480.636 139.05 482.605 137.672 487.5 138.493C487.021 135.552 485.161 132.779 486.78 129.233C487.535 131.036 488.246 132.422 488.647 133.881C489.048 135.34 489.892 137.283 487.273 138.226ZM300.727 181.348C307.401 176.764 314.835 173.769 322.773 172.207C315.167 174.708 308.753 179.927 300.727 181.348ZM418.106 150.345C411.332 152.434 406.006 158.091 397.898 158.246C404.682 154.815 410.836 151.265 418.106 150.345ZM370.405 161.016C366.735 161.673 363.572 163.548 360.21 165.042C356.939 166.461 353.964 168.667 349.68 169.04C356.114 164.138 363.128 162.367 370.405 161.016ZM252.538 192.725C258.155 189.678 263.449 185.957 270.095 185.399C264.381 188.04 258.875 191.329 252.538 192.725ZM463.209 140.933C466.894 139.416 470.322 137.048 475.272 136.946C471.723 141.11 467.47 141.154 463.209 140.933ZM499.443 129.391C505.104 128.37 510.782 127.88 516.864 128.635C510.907 131.173 505.183 129.851 499.443 129.391ZM477.15 133.339C478.777 136.972 479.759 140.651 478.431 144.503C477.178 140.834 474.867 137.31 477.15 133.339ZM306.079 176.489C303.258 177.962 300.437 179.434 297.54 180.818C296.852 181.142 295.694 181.792 295.155 180.902C294.44 179.731 295.75 179.26 296.545 178.696C299.373 176.793 302.723 176.856 306.079 176.489ZM380.412 167.485C377.708 165.072 378.048 161.668 376.662 159.05C376.287 158.389 376.929 156.95 378.028 156.743C379.322 156.436 379.145 157.764 379.365 158.462C380.234 161.204 380.171 164.166 380.412 167.485ZM489.941 133.574C495.974 131.125 498.132 130.774 502.087 131.55C498.05 134.115 494.055 134.098 489.941 133.574ZM447.156 145.383C452.257 143.155 457.399 140.864 462.5 138.636C458.022 142.109 452.909 144.287 447.156 145.383ZM402.689 153.787C399.164 155.749 396.023 158.637 390.57 158.002C394.93 155.413 398.712 154.302 402.689 153.787ZM328.874 172.582C325.638 175.761 321.306 175.931 317.194 176.799C320.786 174.661 324.662 173.26 328.874 172.582ZM452.554 141.638C448.427 143.367 444.312 145.147 440.134 146.888C442.993 142.352 447.94 142.465 452.554 141.638ZM333.396 178.047C331.026 175.662 330.997 172.775 330.36 170.086C330.179 169.325 330.552 168.594 331.468 168.537C332.372 168.43 332.345 169.24 332.517 169.735C333.338 172.273 333.383 174.996 333.396 178.047ZM388.553 152.264C389.287 155.359 389.857 157.528 390.283 159.785C390.399 160.507 389.974 161.251 389.159 161.498C388.641 161.621 388.107 161.212 388.102 160.731C388.106 158.211 386.162 155.778 388.553 152.264ZM285.047 189.676C284.633 189.774 284.259 189.809 283.845 189.908C283.292 187.574 282.686 185.252 282.185 182.906C282.004 182.145 281.417 181.052 282.659 180.758C283.538 180.549 284.273 181.339 284.386 182.277C284.653 184.786 284.844 187.206 285.047 189.676ZM437.039 141.674C439.034 144.095 438.839 146.499 438.903 148.842C438.892 149.487 438.698 150.283 438.105 150.317C437.408 150.375 436.607 149.761 436.685 148.939C436.813 146.712 436.104 144.415 437.039 141.674ZM280.578 184.199C276.457 187.105 273.285 188.018 267.766 188.256C271.545 185.752 275.698 185.517 280.578 184.199ZM428.983 155.642C428.535 152.372 426.396 149.343 427.962 145.81C429.469 148.936 429.542 152.241 428.983 155.642ZM352.763 164.987C350.333 166.956 347.994 168.154 345.439 169.135C344.881 169.321 344.265 169.95 343.878 169.238C343.514 168.627 343.593 167.805 344.616 167.509C347.143 166.641 349.438 165.025 352.763 164.987ZM375.348 161.344C372.314 163.993 368.812 165.36 364.665 164.468C368.239 163.406 371.762 162.356 375.348 161.344ZM341.157 163.988C341.756 167.437 343.389 169.943 341.595 173.209C339.65 170.08 340.183 167.488 341.157 163.988ZM382.951 162.059C381.739 161.329 381.475 160.213 381.142 159.273C380.759 158.346 380.008 157.024 381.524 156.503C383.287 155.871 382.999 157.654 383.204 158.516C383.393 159.543 384.211 160.689 382.951 162.059ZM480.282 132.489C480.99 134.089 483.034 135.105 481.875 137.362C481.729 137.665 481.096 137.762 480.706 137.961C479.883 136.335 479.227 134.722 479.658 132.851C479.633 132.75 479.853 132.752 480.282 132.489Z" fill="white"/>
<path d="M974.445 22.6692C975.622 23.944 976.923 23.2068 976.889 22.143C976.8 19.0025 979.159 19.7291 980.64 19.7528C984.531 19.7945 988.014 18.8077 991.295 16.7432C993.34 15.4544 995.659 16.244 997.841 15.9944C1002.49 15.5353 1006.93 14.429 1011.04 12.1681C1011.43 11.9684 1011.59 11.5012 1012.31 10.633C1007.95 10.917 1004.23 12.2819 999.951 10.8319C1003.87 9.15199 1007.79 10.2574 1011.5 8.14546C1007.35 7.68399 1003.55 8.04816 1000.14 9.33941C996.382 10.7673 992.669 11.7018 988.607 11.8614C984.932 12.0365 981.43 13.4031 978.334 15.1018C976.071 16.389 975.945 15.4005 975.457 13.8016C974.992 12.3042 974.373 10.8436 973.805 9.37073C973.272 9.65795 972.921 9.7946 972.894 9.90834C973.277 15.4439 970.11 16.8383 965.275 16.2704C964.155 16.1608 962.977 16.4938 962.68 17.3146C961.555 20.6359 958.906 20.2996 956.341 20.3185C956.238 20.343 956.059 20.2784 955.955 20.3029C946.359 23.1686 936.181 23.8143 926.401 28.4384C926.016 26.8149 925.607 25.09 925.21 23.4159C925.053 22.7564 925.135 21.7188 924.128 21.8505C923.224 21.9577 923.222 22.8693 923.055 23.5517C923.028 23.6655 923.064 23.8177 923.036 23.9314C921.97 29.1143 921.914 29.3418 916.45 28.6553C913.801 28.319 912.902 28.9074 913.273 31.3916C913.494 32.7859 913.164 33.2393 911.516 33.2016C905.733 33.0192 900.284 34.4725 894.691 36.0134C889.72 37.4069 884.324 37.24 879.553 39.7112C877.942 40.5221 877.462 39.1892 877.006 37.9577C876.374 36.4464 876.82 34.4113 874.864 33.5358C873.046 35.0922 874.756 38.384 872.217 39.2007C870.183 39.8439 867.841 39.6491 865.651 39.6328C864.273 39.5845 863.247 40.096 863.149 41.298C862.902 43.7143 861.688 43.8952 859.51 43.9296C855.655 44.0401 851.833 44.518 848.284 46.3779C845.463 47.8508 842.125 47.1422 839.072 47.8664C838.347 48.0383 837.607 48.3746 836.898 48.3819C834.617 48.4409 832.762 51.4529 830.749 50.1085C829.31 49.1103 828.927 46.5753 828.02 44.5934C827.614 44.9576 827.224 45.1572 827.129 45.4477C826.531 47.3044 827.503 50.021 825.824 51.0087C824.237 51.9211 821.704 51.611 819.657 51.5071C818.382 51.4342 816.965 51.449 816.779 52.5111C816.247 55.7989 814.02 54.934 811.838 55.1836C809.023 55.5297 806.184 55.7744 803.422 56.8047C800.362 57.9593 797.154 58.7203 793.685 58.8463C789.56 58.9675 785.465 60.3675 781.467 62.8698C780.877 60.3839 780.384 58.3039 779.89 56.2239C778.274 56.5537 778.706 57.6837 778.552 58.4169C777.405 63.0294 776.451 63.8453 771.469 63.5802C769.64 63.4779 768.211 63.4419 767.98 65.6938C767.725 67.8442 765.924 67.6282 764.534 67.5292C759.142 67.1471 754.21 68.4777 749.279 70.5045C746.048 71.8604 742.363 71.0733 739.016 72.403C737.07 73.1861 735.128 73.754 733.797 75.5166C736.889 74.033 740.233 73.6149 743.641 73.2351C740.769 74.7203 737.936 76.1425 734.972 77.703C737.104 78.8583 738.928 79.1758 742.004 77.8567C747.962 75.3184 754.02 73.6671 760.494 73.3103C762.648 73.1744 764.722 72.4682 766.356 71.0625C768.539 69.205 769.346 70.2998 769.891 72.3676C770.46 74.5368 771.069 76.643 772.442 78.5143C773.814 77.3851 773.441 75.8124 773.45 74.4705C773.491 70.4953 775.248 68.6853 779.256 69.4495C780.861 69.7654 781.646 69.8472 781.93 68.2794C782.167 67.205 782.757 67.3867 783.581 67.4055C789.081 67.5478 794.12 65.9775 798.83 63.2526C799.506 62.8779 800.015 62.4892 800.864 62.6095C805.994 63.2681 810.734 61.8222 815.282 59.5646C817.14 58.6415 817.766 58.9754 818.235 60.954C818.741 63.0847 819.764 65.0927 820.604 67.2513C822.497 65.7841 821.717 63.8792 821.81 62.1961C821.999 58.6145 823.792 56.9567 827.242 57.9067C828.999 58.4009 830.039 58.6365 830.74 56.7553C831.24 55.4044 832.594 55.3512 833.585 55.3839C837.898 55.5933 841.639 53.8487 845.315 52.0657C847.03 51.2302 848.751 51.5723 850.376 51.5084C854.489 51.3366 858.355 50.5804 861.756 48.3269C863.736 46.9997 864.217 48.3326 864.764 49.4888C865.771 51.6613 866.584 53.9336 867.587 56.3213C869.739 54.7928 868.963 52.6727 868.769 51.1646C868.285 47.7426 870.34 47.4161 872.765 47.2696C875.022 47.1092 877.393 47.8865 879.057 45.4555C879.467 44.8761 880.912 44.7476 881.891 44.7296C886.208 44.7239 890.272 43.6527 894.156 41.8206C896.169 40.8608 898.491 40.7388 900.76 40.6291C905.172 40.3329 909.168 38.7421 912.679 36.0337C908.164 36.3545 904.398 39.6055 899.221 39.4402C903.295 37.0271 907.386 35.8422 911.542 34.6958C913.289 34.2277 912.364 35.6262 912.612 36.2104C914.907 36.8985 913.903 39.1193 914.614 40.5046C915.301 41.7885 915.845 43.1599 916.453 44.5698C918.462 43.1288 917.801 41.0349 918.009 39.3779C918.505 35.9379 920.115 34.4306 923.422 35.4681C925.371 36.0777 926.641 36.3658 927.314 33.9019C927.769 32.1328 929.568 31.6525 931.293 31.7793C934.228 31.9405 936.991 31.6066 939.641 30.335C943.771 28.3908 947.97 26.9661 952.721 27.1788C956.095 27.3433 959.455 26.7607 961.923 24.0317C963.963 26.8703 964.008 30.289 966.426 32.8771C967.435 31.1375 967.332 29.5541 967.449 27.9724C967.808 23.4932 969.777 22.1153 974.672 22.9368C974.193 19.9959 972.333 17.222 973.951 13.6764C974.707 15.4799 975.418 16.8652 975.819 18.3242C976.22 19.7832 977.063 21.7265 974.445 22.6692ZM787.899 65.7918C794.573 61.2078 802.007 58.2121 809.945 56.6508C802.339 59.1515 795.925 64.3704 787.899 65.7918ZM905.278 34.7883C898.504 36.8774 893.177 42.535 885.07 42.6897C891.854 39.2586 898.008 35.7089 905.278 34.7883ZM857.577 45.4597C853.907 46.116 850.744 47.9915 847.382 49.4857C844.111 50.9046 841.136 53.1107 836.851 53.4838C843.286 48.5816 850.3 46.8108 857.577 45.4597ZM739.71 77.1686C745.327 74.1213 750.621 70.4006 757.267 69.8425C751.553 72.4839 746.047 75.7726 739.71 77.1686ZM950.381 25.3762C954.066 23.8591 957.494 21.4919 962.444 21.3895C958.895 25.5537 954.642 25.5979 950.381 25.3762ZM986.615 13.8343C992.276 12.813 997.954 12.3236 1004.04 13.078C998.079 15.6164 992.354 14.2949 986.615 13.8343ZM964.321 17.7826C965.948 21.4157 966.93 25.0946 965.603 28.9462C964.35 25.2779 962.038 21.7537 964.321 17.7826ZM793.251 60.9321C790.43 62.405 787.609 63.8779 784.712 65.2616C784.024 65.5856 782.866 66.2354 782.327 65.3451C781.612 64.175 782.922 63.7036 783.717 63.1398C786.545 61.2365 789.894 61.2995 793.251 60.9321ZM867.584 51.9281C864.88 49.515 865.22 46.1118 863.834 43.4934C863.458 42.8322 864.101 41.3937 865.2 41.1867C866.494 40.8798 866.317 42.2079 866.537 42.9059C867.406 45.647 867.343 48.6092 867.584 51.9281ZM977.113 18.0173C983.146 15.5682 985.303 15.2171 989.259 15.9936C985.222 18.5589 981.227 18.5418 977.113 18.0173ZM934.328 29.8269C939.429 27.5987 944.57 25.3075 949.672 23.0794C945.194 26.5529 940.08 28.7304 934.328 29.8269ZM889.861 38.2309C886.336 40.1923 883.195 43.0808 877.742 42.4451C882.102 39.8569 885.883 38.7456 889.861 38.2309ZM816.046 57.0255C812.81 60.2045 808.478 60.3747 804.366 61.2429C807.958 59.1048 811.834 57.703 816.046 57.0255ZM939.725 26.0817C935.599 27.8107 931.484 29.5905 927.306 31.3318C930.165 26.7953 935.111 26.9082 939.725 26.0817ZM820.568 62.4906C818.198 60.1054 818.169 57.2186 817.531 54.5297C817.351 53.7688 817.724 53.0372 818.64 52.9808C819.544 52.8736 819.517 53.6836 819.689 54.1787C820.51 56.717 820.554 59.4393 820.568 62.4906ZM875.725 36.7074C876.459 39.8021 877.028 41.9713 877.454 44.2281C877.571 44.9506 877.146 45.6944 876.33 45.9415C875.813 46.0643 875.279 45.6552 875.274 45.174C875.277 42.6546 873.334 40.2219 875.725 36.7074ZM772.219 74.1194C771.805 74.2176 771.431 74.2528 771.017 74.351C770.463 72.0173 769.858 69.6959 769.356 67.3499C769.176 66.589 768.589 65.4958 769.831 65.2012C770.71 64.9925 771.444 65.7829 771.558 66.7207C771.825 69.2295 772.016 71.6491 772.219 74.1194ZM924.211 26.1178C926.206 28.5382 926.011 30.9423 926.075 33.285C926.064 33.9306 925.87 34.7268 925.277 34.7603C924.58 34.8184 923.779 34.2047 923.857 33.3824C923.984 31.1551 923.276 28.8582 924.211 26.1178ZM767.75 68.642C763.629 71.5485 760.457 72.4617 754.938 72.6991C758.717 70.1952 762.87 69.9603 767.75 68.642ZM916.155 40.0857C915.707 36.8159 913.567 33.7867 915.134 30.2534C916.641 33.3792 916.714 36.6841 916.155 40.0857ZM839.935 49.4301C837.505 51.3997 835.165 52.5977 832.611 53.5788C832.053 53.7645 831.437 54.393 831.05 53.6811C830.686 53.0707 830.764 52.2483 831.787 51.9521C834.315 51.0847 836.61 49.4686 839.935 49.4301ZM862.52 45.7878C859.486 48.4366 855.984 49.8031 851.837 48.9112C855.411 47.8491 858.933 46.7992 862.52 45.7878ZM828.329 48.4319C828.928 51.8801 830.561 54.3864 828.767 57.6522C826.822 54.5231 827.355 51.9317 828.329 48.4319ZM870.123 46.5029C868.911 45.7722 868.646 44.6561 868.314 43.7167C867.93 42.7896 867.18 41.4673 868.696 40.9469C870.459 40.3144 870.171 42.0974 870.376 42.9598C870.565 43.9868 871.383 45.1323 870.123 46.5029ZM967.454 16.9324C968.162 18.5329 970.206 19.5484 969.047 21.806C968.9 22.1087 968.267 22.2053 967.878 22.405C967.054 20.7782 966.399 19.1654 966.829 17.2949C966.805 17.1934 967.024 17.1951 967.454 16.9324Z" fill="white"/>
</g>
</svg>
