<svg width="695" height="303" viewBox="0 0 695 303" fill="none" xmlns="http://www.w3.org/2000/svg">
<g opacity="0.1">
<path d="M199.755 194.744C198.557 195.989 197.306 195.221 197.374 194.16C197.566 191.027 195.227 191.696 193.773 191.684C189.954 191.632 186.57 190.564 183.419 188.424C181.456 187.088 179.154 187.821 177.022 187.519C172.478 186.95 168.161 185.739 164.204 183.383C163.828 183.174 163.684 182.704 163.003 181.82C167.271 182.208 170.877 183.66 175.124 182.314C171.334 180.543 167.447 181.553 163.879 179.356C167.971 178.994 171.681 179.449 174.985 180.82C178.627 182.335 182.24 183.357 186.219 183.614C189.819 183.877 193.21 185.325 196.19 187.096C198.368 188.435 198.524 187.451 199.057 185.866C199.562 184.382 200.219 182.939 200.825 181.482C201.339 181.782 201.678 181.926 201.701 182.041C201.14 187.558 204.202 189.026 208.965 188.575C210.066 188.493 211.211 188.853 211.476 189.68C212.469 193.023 215.079 192.751 217.595 192.831C217.695 192.858 217.873 192.798 217.974 192.825C227.294 195.916 237.258 196.804 246.7 201.655C247.132 200.044 247.591 198.331 248.036 196.669C248.212 196.015 248.166 194.977 249.15 195.132C250.033 195.261 250.005 196.171 250.145 196.857C250.168 196.971 250.128 197.122 250.151 197.236C251.025 202.436 251.072 202.665 256.456 202.11C259.066 201.838 259.929 202.447 259.483 204.918C259.219 206.305 259.527 206.766 261.146 206.768C266.826 206.724 272.124 208.306 277.559 209.978C282.391 211.488 287.691 211.451 292.289 214.033C293.843 214.881 294.358 213.562 294.847 212.343C295.517 210.849 295.147 208.807 297.096 207.979C298.827 209.577 297.039 212.823 299.504 213.699C301.478 214.39 303.782 214.251 305.931 214.287C307.285 214.272 308.275 214.807 308.331 216.01C308.492 218.428 309.678 218.638 311.814 218.725C315.592 218.927 319.326 219.496 322.746 221.438C325.465 222.976 328.764 222.349 331.735 223.145C332.44 223.334 333.155 223.687 333.851 223.712C336.087 223.825 337.807 226.877 339.827 225.583C341.272 224.621 341.732 222.099 342.688 220.142C343.074 220.515 343.45 220.724 343.533 221.016C344.058 222.884 343.014 225.573 344.628 226.6C346.155 227.548 348.651 227.3 350.663 227.245C351.916 227.203 353.306 227.251 353.453 228.316C353.865 231.612 356.08 230.801 358.212 231.103C360.962 231.516 363.739 231.828 366.415 232.923C369.379 234.149 372.502 234.986 375.9 235.195C379.944 235.415 383.915 236.911 387.755 239.505C388.416 237.037 388.969 234.972 389.522 232.907C391.097 233.275 390.636 234.393 390.762 235.129C391.734 239.761 392.643 240.599 397.541 240.453C399.337 240.395 400.741 240.393 400.893 242.647C401.072 244.8 402.846 244.628 404.213 244.562C409.516 244.31 414.311 245.757 419.081 247.898C422.206 249.33 425.847 248.632 429.087 250.04C430.97 250.868 432.857 251.482 434.104 253.273C431.12 251.718 427.853 251.221 424.522 250.76C427.291 252.311 430.023 253.799 432.879 255.428C430.748 256.531 428.948 256.804 425.974 255.413C420.213 252.736 414.324 250.942 407.984 250.431C405.875 250.244 403.864 249.489 402.307 248.046C400.227 246.139 399.4 247.213 398.796 249.265C398.166 251.417 397.498 253.505 396.089 255.341C394.78 254.18 395.198 252.619 395.234 251.279C395.326 247.309 393.662 245.46 389.705 246.127C388.119 246.404 387.347 246.467 387.12 244.895C386.923 243.816 386.339 243.983 385.529 243.982C380.128 243.993 375.237 242.304 370.706 239.471C370.055 239.08 369.569 238.68 368.732 238.78C363.677 239.315 359.074 237.757 354.687 235.394C352.895 234.428 352.27 234.747 351.743 236.711C351.176 238.826 350.106 240.806 349.21 242.941C347.402 241.431 348.23 239.548 348.195 237.865C348.129 234.285 346.425 232.587 343.008 233.453C341.268 233.904 340.24 234.114 339.614 232.219C339.169 230.858 337.842 230.773 336.868 230.782C332.629 230.888 329.018 229.056 325.47 227.188C323.815 226.313 322.115 226.613 320.523 226.51C316.493 226.24 312.726 225.393 309.464 223.061C307.565 221.688 307.049 223.008 306.474 224.149C305.413 226.294 304.541 228.543 303.476 230.903C301.416 229.325 302.248 227.227 302.489 225.726C303.077 222.321 301.072 221.946 298.698 221.742C296.488 221.527 294.136 222.247 292.584 219.78C292.202 219.191 290.788 219.029 289.828 218.987C285.593 218.878 281.641 217.711 277.892 215.789C275.948 214.782 273.675 214.605 271.451 214.441C267.133 214.039 263.266 212.356 259.91 209.567C264.33 209.996 267.916 213.332 273.001 213.291C269.085 210.784 265.11 209.503 261.071 208.259C259.372 207.75 260.233 209.168 259.971 209.745C257.696 210.377 258.607 212.619 257.863 213.985C257.146 215.25 256.567 216.606 255.924 217.999C254.001 216.513 254.719 214.438 254.57 212.778C254.197 209.332 252.668 207.789 249.389 208.745C247.457 209.307 246.2 209.564 245.622 207.088C245.235 205.311 243.486 204.788 241.789 204.874C238.904 204.964 236.204 204.565 233.647 203.232C229.659 201.192 225.587 199.669 220.918 199.767C217.603 199.85 214.326 199.188 211.995 196.404C209.899 199.19 209.741 202.602 207.282 205.128C206.351 203.367 206.504 201.788 206.442 200.207C206.239 195.726 204.353 194.303 199.523 195.006C200.09 192.081 202.008 189.356 200.538 185.777C199.736 187.56 198.992 188.926 198.551 190.373C198.109 191.82 197.217 193.74 199.755 194.744ZM381.346 242.268C374.95 237.531 367.757 234.362 360.02 232.613C367.4 235.292 373.519 240.656 381.346 242.268ZM267.213 208.501C273.79 210.749 278.828 216.525 286.777 216.874C280.236 213.286 274.315 209.595 267.213 208.501ZM313.659 220.299C317.239 221.042 320.279 222.99 323.528 224.562C326.69 226.057 329.536 228.331 333.727 228.807C327.577 223.758 320.754 221.822 313.659 220.299ZM428.248 254.781C422.838 251.604 417.768 247.763 411.266 247.046C416.784 249.82 422.077 253.236 428.248 254.781ZM223.275 198.023C219.71 196.42 216.424 193.975 211.572 193.754C214.915 197.997 219.086 198.143 223.275 198.023ZM188.108 185.632C182.587 184.476 177.033 183.852 171.041 184.459C176.801 187.136 182.461 185.954 188.108 185.632ZM209.85 190.108C208.132 193.696 207.046 197.346 208.221 201.223C209.572 197.591 211.957 194.127 209.85 190.108ZM376.257 237.288C378.976 238.826 381.695 240.364 384.491 241.815C385.155 242.155 386.269 242.831 386.828 241.955C387.568 240.804 386.299 240.302 385.538 239.72C382.826 237.752 379.538 237.735 376.257 237.288ZM303.626 226.517C306.36 224.172 306.139 220.767 307.586 218.185C307.976 217.534 307.394 216.083 306.322 215.85C305.063 215.512 305.193 216.842 304.954 217.534C304.01 220.25 303.973 223.209 303.626 226.517ZM197.292 190.036C191.454 187.446 189.349 187.044 185.442 187.724C189.318 190.382 193.237 190.461 197.292 190.036ZM238.876 202.852C233.945 200.505 228.977 198.094 224.046 195.747C228.324 199.323 233.269 201.619 238.876 202.852ZM282.225 212.308C285.618 214.35 288.604 217.31 293.975 216.806C289.783 214.117 286.11 212.917 282.225 212.308ZM354.022 232.841C357.091 236.093 361.336 236.366 365.342 237.332C361.888 235.111 358.132 233.618 354.022 232.841ZM233.705 198.983C237.697 200.808 241.674 202.684 245.716 204.522C243.061 199.925 238.205 199.919 233.705 198.983ZM349.404 238.189C351.808 235.865 351.932 232.983 352.648 230.314C352.85 229.558 352.508 228.819 351.612 228.741C350.729 228.612 350.728 229.421 350.542 229.911C349.653 232.426 349.518 235.143 349.404 238.189ZM296.145 211.125C295.322 214.198 294.691 216.35 294.198 218.593C294.059 219.311 294.451 220.064 295.244 220.33C295.747 220.465 296.285 220.07 296.306 219.589C296.386 217.074 298.374 214.692 296.145 211.125ZM396.453 250.958C396.856 251.066 397.222 251.11 397.625 251.218C398.246 248.901 398.917 246.598 399.487 244.268C399.69 243.512 400.302 242.435 399.094 242.111C398.237 241.882 397.491 242.653 397.349 243.587C397.003 246.085 396.735 248.496 396.453 250.958ZM248.926 199.391C246.888 201.76 246.999 204.165 246.859 206.502C246.848 207.147 247.012 207.946 247.593 207.994C248.274 208.069 249.081 207.475 249.032 206.652C248.981 204.425 249.753 202.149 248.926 199.391ZM401.021 245.596C404.967 248.597 408.049 249.585 413.456 249.954C409.832 247.363 405.765 247.029 401.021 245.596ZM256.366 213.53C256.914 210.276 259.114 207.303 257.694 203.737C256.112 206.822 255.93 210.12 256.366 213.53ZM330.837 224.685C333.155 226.71 335.411 227.962 337.885 229.003C338.425 229.202 339.009 229.844 339.413 229.142C339.79 228.542 339.74 227.719 338.746 227.399C336.296 226.472 334.098 224.803 330.837 224.685ZM308.799 220.508C311.687 223.225 315.078 224.673 319.176 223.882C315.705 222.736 312.284 221.603 308.799 220.508ZM342.257 223.967C341.554 227.395 339.869 229.858 341.52 233.162C343.533 230.084 343.096 227.484 342.257 223.967ZM301.315 221.04C302.529 220.339 302.825 219.231 303.183 218.301C303.59 217.385 304.371 216.082 302.9 215.527C301.192 214.853 301.415 216.64 301.185 217.496C300.966 218.517 300.125 219.641 301.315 221.04ZM206.804 189.184C206.057 190.765 204.017 191.73 205.079 194.012C205.213 194.317 205.831 194.429 206.207 194.638C207.068 193.033 207.766 191.439 207.405 189.561C207.432 189.46 207.217 189.456 206.804 189.184Z" fill="white"/>
<path d="M168.821 186.452C169.252 188.133 170.747 188.102 171.222 187.149C172.635 184.343 174.366 186.102 175.659 186.827C179.063 188.711 182.597 189.495 186.465 189.237C188.877 189.073 190.543 190.869 192.582 191.685C196.889 193.487 201.32 194.62 206.011 194.582C206.449 194.591 206.814 194.257 207.862 193.836C203.89 192.016 199.967 191.451 196.889 188.143C201.137 188.525 204.066 191.362 208.332 191.263C204.895 188.885 201.382 187.404 197.767 186.921C193.78 186.392 190.067 185.451 186.417 183.664C183.099 182.073 179.368 181.613 175.837 181.639C173.234 181.697 173.593 180.767 173.922 179.128C174.224 177.59 174.372 176.01 174.572 174.444C173.966 174.444 173.593 174.398 173.515 174.485C171.224 179.539 167.775 179.262 163.789 176.467C162.856 175.839 161.661 175.573 161.009 176.154C158.442 178.543 156.27 176.989 154.004 175.788C153.902 175.761 153.775 175.619 153.672 175.591C143.866 173.558 134.602 169.294 123.798 168.72C124.23 167.109 124.689 165.396 125.134 163.734C125.31 163.08 125.874 162.205 124.925 161.843C124.079 161.508 123.644 162.309 123.174 162.831C123.096 162.918 123.055 163.069 122.977 163.156C119.578 167.212 119.421 167.386 114.937 164.187C112.766 162.633 111.695 162.724 110.842 165.087C110.375 166.419 109.869 166.661 108.436 165.846C103.433 162.94 97.9475 161.632 92.294 160.333C87.257 159.199 82.5869 156.49 77.2151 156.4C75.4119 156.349 75.6222 154.948 75.8054 153.648C75.9669 152.017 77.326 150.438 76.0195 148.739C73.6813 149.246 73.6234 152.955 71.0009 152.468C68.9055 152.069 66.9369 150.785 65.0169 149.731C63.8271 149.035 62.6808 148.997 62.0243 150.009C60.66 152.018 59.5054 151.601 57.572 150.597C54.1271 148.864 50.5362 147.47 46.5297 147.423C43.3477 147.38 40.746 145.171 37.7151 144.359C36.9959 144.166 36.1849 144.111 35.5575 143.781C33.5214 142.749 30.4591 144.52 29.3254 142.381C28.5326 140.819 29.3994 138.406 29.5417 136.231C29.0119 136.359 28.5739 136.35 28.3523 136.56C26.9444 137.91 26.5104 140.763 24.564 140.835C22.7337 140.884 20.6514 139.409 18.8991 138.346C17.812 137.676 16.5574 137.016 15.89 137.863C13.8609 140.504 12.311 138.685 10.2722 137.869C7.63048 136.838 5.01575 135.705 2.09583 135.301C-1.14579 134.864 -4.33083 134.01 -7.44318 132.475C-11.1315 130.623 -15.4006 129.911 -20.1071 130.215C-19.4459 127.747 -18.8926 125.682 -18.3393 123.617C-19.9183 123.14 -20.0746 124.34 -20.5583 124.912C-23.7576 128.427 -24.9849 128.692 -29.2439 126.093C-30.8043 125.136 -32.0455 124.425 -33.3179 126.297C-34.5634 128.069 -36.0454 127.024 -37.2217 126.277C-41.7864 123.38 -46.7586 122.21 -52.0603 121.653C-55.5479 121.312 -58.4174 118.87 -61.9942 118.452C-64.0787 118.217 -66.0578 117.795 -68.066 118.714C-64.6407 118.876 -61.4988 120.096 -58.3189 121.38C-61.5523 121.323 -64.7208 121.23 -68.0703 121.196C-66.7421 123.225 -65.2871 124.371 -61.9536 124.67C-55.5056 125.264 -49.3898 126.687 -43.522 129.447C-41.5617 130.35 -39.4014 130.713 -37.2957 130.252C-34.4925 129.653 -34.3026 131 -34.8045 133.078C-35.3334 135.258 -35.7975 137.4 -35.4774 139.699C-33.7339 139.357 -33.3155 137.796 -32.6699 136.619C-30.7466 133.14 -28.3409 132.381 -25.1767 134.956C-23.9137 135.996 -23.262 136.441 -22.2677 135.196C-21.5489 134.363 -21.1162 134.803 -20.3996 135.211C-15.6268 137.947 -10.4465 138.957 -5.00726 138.795C-4.23409 138.787 -3.60153 138.686 -2.91192 139.195C1.29059 142.21 6.14912 143.188 11.2236 143.36C13.2971 143.43 13.6894 144.021 13.1631 145.985C12.5963 148.1 12.5433 150.353 12.2577 152.652C14.6204 152.259 14.8384 150.213 15.7191 148.775C17.5858 145.713 19.9511 145.105 22.5367 147.579C23.8484 148.848 24.6516 149.549 26.1623 148.227C27.2432 147.275 28.4601 147.871 29.3173 148.37C33.0139 150.602 37.134 150.843 41.2163 151.019C43.1223 151.098 44.4745 152.216 45.9347 152.931C49.6365 154.733 53.3976 155.902 57.4607 155.533C59.8342 155.306 59.6239 156.707 59.5569 157.984C59.412 160.375 59.0481 162.76 58.7978 165.338C61.4173 165.014 61.7407 162.78 62.2862 161.361C63.4851 158.119 65.4481 158.807 67.6519 159.83C69.715 160.76 71.4325 162.57 74.0516 161.221C74.6867 160.905 76.0198 161.478 76.8905 161.927C80.6925 163.972 84.7778 164.958 89.0656 165.19C91.2933 165.301 93.3943 166.295 95.4439 167.276C99.4675 169.11 103.739 169.607 108.116 168.891C103.989 167.029 99.1318 168.103 94.6537 165.499C99.3847 165.31 103.548 166.209 107.75 167.173C109.51 167.591 108.032 168.382 107.972 169.014C109.666 170.709 107.728 172.187 107.696 173.744C107.691 175.2 107.519 176.666 107.385 178.195C109.836 177.88 110.249 175.724 111.219 174.364C113.289 171.572 115.421 171.01 117.839 173.493C119.265 174.955 120.246 175.812 122.008 173.963C123.249 172.622 125.06 173.053 126.518 173.983C129.024 175.519 131.615 176.537 134.551 176.676C139.109 176.925 143.481 177.665 147.561 180.108C150.452 181.854 153.686 182.936 157.154 181.706C157.601 185.173 156.019 188.204 156.918 191.629C158.631 190.577 159.293 189.135 160.147 187.798C162.589 184.026 164.976 183.748 168.895 186.796C169.869 183.98 169.549 180.655 172.657 178.303C172.466 180.249 172.434 181.806 172.094 183.28C171.754 184.755 171.574 186.866 168.821 186.452ZM-15.8332 135.84C-7.78271 134.975 0.182047 135.867 7.90956 138.262C0.0283899 136.852 -8.09479 138.4 -15.8332 135.84ZM102.193 164.281C95.2392 162.903 87.8653 165.354 80.6563 161.641C88.2558 161.842 95.3576 161.64 102.193 164.281ZM55.1445 151.026C51.6025 149.861 47.9286 150.011 44.2598 149.729C40.7074 149.425 37.0417 149.954 33.0939 148.249C41.0848 146.989 48.0983 148.76 55.1445 151.026ZM-63.6467 122.975C-57.2558 122.96 -50.83 122.199 -44.7163 124.863C-50.9993 124.474 -57.4063 124.755 -63.6467 122.975ZM146.357 177.41C150.321 177.824 154.462 177.369 158.867 179.628C153.766 181.608 150.002 179.628 146.357 177.41ZM183.727 184.454C189.194 186.243 194.424 188.508 199.419 192.06C192.971 191.465 188.56 187.585 183.727 184.454ZM162.232 177.345C161.939 181.315 161.056 185.019 158.06 187.779C158.699 183.956 158.337 179.756 162.232 177.345ZM-8.81582 134.104C-11.9978 134.061 -15.1798 134.018 -18.3861 133.861C-19.1458 133.819 -20.4732 133.841 -20.525 132.802C-20.5986 131.433 -19.2225 131.64 -18.2547 131.521C-14.862 131.189 -11.9443 132.834 -8.81582 134.104ZM60.8805 161.47C59.6462 158.062 61.5617 155.229 61.5847 152.266C61.5681 151.506 62.8167 150.545 63.882 150.885C65.1663 151.229 64.3801 152.313 64.2425 153.032C63.7058 155.857 62.2443 158.435 60.8805 161.47ZM173.378 183.625C179.851 184.333 181.916 185.049 185.029 187.61C180.258 187.951 176.75 186.04 173.378 183.625ZM130.116 173.706C135.664 174.167 141.276 174.591 146.824 175.052C141.233 175.983 135.699 175.472 130.116 173.706ZM86.9897 159.991C82.9562 160.044 78.8204 161.095 74.3232 157.947C79.3893 157.739 83.2448 158.556 86.9897 159.991ZM13.1016 141.488C8.74422 142.75 4.85042 140.843 0.819047 139.655C4.99579 139.478 9.07286 140.085 13.1016 141.488ZM136.644 172.972C132.192 172.535 127.725 172.148 123.221 171.697C127.892 169.061 132.191 171.509 136.644 172.972ZM14.4862 148.445C13.5331 145.221 14.8783 142.666 15.5936 139.997C15.796 139.241 16.4716 138.775 17.3044 139.16C18.1508 139.495 17.7429 140.195 17.6593 140.712C17.1766 143.336 15.9232 145.753 14.4862 148.445ZM75.2721 151.939C74.4489 155.011 73.92 157.191 73.2235 159.379C72.9832 160.071 72.2562 160.524 71.4207 160.354C70.907 160.216 70.631 159.602 70.8552 159.177C72.0545 156.961 71.4989 153.897 75.2721 151.939ZM-33.5868 135.726C-33.9978 135.616 -34.3439 135.469 -34.7548 135.359C-34.1341 133.042 -33.5647 130.711 -32.8926 128.409C-32.6901 127.653 -32.688 126.412 -31.4551 126.742C-30.5818 126.976 -30.3109 128.021 -30.6566 128.9C-31.6126 131.235 -32.5929 133.455 -33.5868 135.726ZM122.972 165.638C123.579 168.716 122.266 170.739 121.21 172.831C120.894 173.394 120.346 174.003 119.808 173.751C119.167 173.471 118.753 172.55 119.212 171.864C120.382 169.964 120.848 167.606 122.972 165.638ZM-34.92 128.783C-39.9265 129.385 -43.152 128.682 -48.122 126.271C-43.6075 125.861 -39.8408 127.626 -34.92 128.783ZM109.251 174.107C110.409 171.017 109.964 167.335 113.021 164.969C112.863 168.435 111.358 171.379 109.251 174.107ZM37.7321 146.145C34.6586 146.725 32.0308 146.668 29.3164 146.319C28.7378 146.218 27.8971 146.478 27.8941 145.668C27.864 144.958 28.3233 144.271 29.3642 144.496C32.0003 144.933 34.7874 144.6 37.7321 146.145ZM59.3387 153.662C55.411 154.552 51.68 154.093 48.4536 151.339C52.1036 152.101 55.7022 152.849 59.3387 153.662ZM27.9915 139.756C26.8818 143.076 27.1291 146.057 23.9995 148.079C23.7734 144.402 25.473 142.374 27.9915 139.756ZM65.691 157.901C64.9714 156.682 65.2683 155.574 65.4219 154.59C65.5242 153.592 65.4911 152.071 67.0727 152.333C68.9247 152.614 67.825 154.046 67.5956 154.902C67.2743 155.896 67.4507 157.293 65.691 157.901ZM165.392 178.084C165.255 179.829 166.573 181.693 164.481 183.13C164.208 183.327 163.605 183.111 163.167 183.102C163.215 181.279 163.403 179.548 164.671 178.107C164.698 178.006 164.89 178.111 165.392 178.084Z" fill="white"/>
<path d="M652.454 316.041C652.885 317.722 654.38 317.69 654.855 316.738C656.268 313.932 657.999 315.691 659.291 316.416C662.696 318.299 666.23 319.084 670.098 318.825C672.51 318.662 674.176 320.458 676.214 321.274C680.522 323.076 684.953 324.209 689.644 324.171C690.082 324.18 690.447 323.846 691.495 323.425C687.523 321.605 683.6 321.04 680.522 317.732C684.769 318.114 687.699 320.95 691.965 320.852C688.527 318.474 685.015 316.993 681.4 316.51C677.412 315.981 673.7 315.04 670.05 313.253C666.732 311.662 663.001 311.202 659.47 311.227C656.867 311.286 657.226 310.356 657.555 308.717C657.857 307.179 658.005 305.599 658.204 304.033C657.599 304.033 657.226 303.987 657.147 304.074C654.857 309.128 651.407 308.851 647.421 306.056C646.488 305.428 645.293 305.162 644.642 305.743C642.075 308.132 639.903 306.578 637.637 305.377C637.535 305.35 637.407 305.208 637.305 305.18C627.498 303.146 618.234 298.883 607.431 298.309C607.863 296.698 608.322 294.985 608.767 293.323C608.943 292.669 609.507 291.794 608.558 291.432C607.712 291.097 607.277 291.898 606.807 292.42C606.728 292.507 606.688 292.658 606.61 292.745C603.21 296.8 603.054 296.974 598.57 293.776C596.398 292.222 595.328 292.313 594.475 294.676C594.008 296.008 593.502 296.25 592.069 295.434C587.066 292.529 581.58 291.221 575.927 289.922C570.89 288.788 566.22 286.079 560.848 285.989C559.045 285.938 559.255 284.537 559.438 283.236C559.6 281.606 560.959 280.027 559.652 278.328C557.314 278.835 557.256 282.544 554.634 282.057C552.538 281.657 550.57 280.374 548.65 279.32C547.46 278.623 546.314 278.586 545.657 279.598C544.293 281.607 543.138 281.19 541.205 280.186C537.76 278.453 534.169 277.059 530.163 277.011C526.981 276.968 524.379 274.76 521.348 273.948C520.629 273.755 519.818 273.7 519.19 273.37C517.154 272.338 514.092 274.109 512.958 271.97C512.165 270.408 513.032 267.995 513.174 265.82C512.645 265.948 512.207 265.939 511.985 266.149C510.577 267.499 510.143 270.352 508.197 270.424C506.367 270.473 504.284 268.998 502.532 267.934C501.445 267.265 500.19 266.605 499.523 267.452C497.494 270.093 495.944 268.274 493.905 267.458C491.263 266.426 488.649 265.294 485.729 264.889C482.487 264.453 479.302 263.599 476.19 262.064C472.501 260.212 468.232 259.5 463.526 259.804C464.187 257.336 464.74 255.271 465.293 253.206C463.714 252.729 463.558 253.929 463.075 254.501C459.875 258.016 458.648 258.281 454.389 255.682C452.829 254.724 451.587 254.014 450.315 255.886C449.069 257.658 447.587 256.613 446.411 255.866C441.846 252.969 436.874 251.799 431.572 251.242C428.085 250.901 425.215 248.459 421.639 248.04C419.554 247.806 417.575 247.383 415.567 248.303C418.992 248.465 422.134 249.685 425.314 250.969C422.081 250.912 418.912 250.819 415.562 250.785C416.891 252.814 418.346 253.96 421.679 254.259C428.127 254.853 434.243 256.276 440.111 259.036C442.071 259.939 444.231 260.302 446.337 259.84C449.14 259.242 449.33 260.588 448.828 262.667C448.299 264.847 447.835 266.989 448.155 269.288C449.899 268.946 450.317 267.384 450.963 266.208C452.886 262.729 455.292 261.97 458.456 264.545C459.719 265.585 460.371 266.03 461.365 264.785C462.084 263.952 462.517 264.392 463.233 264.8C468.006 267.536 473.186 268.546 478.626 268.384C479.399 268.375 480.031 268.275 480.721 268.784C484.923 271.799 489.782 272.777 494.856 272.949C496.93 273.019 497.322 273.61 496.796 275.574C496.229 277.689 496.176 279.942 495.891 282.241C498.253 281.848 498.471 279.801 499.352 278.364C501.219 275.302 503.584 274.694 506.169 277.168C507.481 278.437 508.284 279.138 509.795 277.816C510.876 276.864 512.093 277.46 512.95 277.959C516.647 280.191 520.767 280.432 524.849 280.608C526.755 280.687 528.107 281.805 529.568 282.52C533.269 284.321 537.03 285.491 541.093 285.122C543.467 284.895 543.257 286.296 543.19 287.573C543.045 289.964 542.681 292.349 542.431 294.927C545.05 294.603 545.374 292.369 545.919 290.95C547.118 287.708 549.081 288.396 551.285 289.418C553.348 290.349 555.065 292.159 557.684 290.809C558.32 290.494 559.653 291.067 560.523 291.516C564.325 293.56 568.411 294.547 572.698 294.778C574.926 294.89 577.027 295.884 579.077 296.865C583.1 298.699 587.372 299.196 591.749 298.479C587.622 296.618 582.765 297.692 578.287 295.088C583.018 294.898 587.181 295.798 591.383 296.762C593.143 297.18 591.665 297.971 591.605 298.603C593.298 300.298 591.361 301.776 591.329 303.333C591.324 304.789 591.152 306.255 591.017 307.784C593.469 307.469 593.882 305.313 594.852 303.953C596.921 301.161 599.054 300.599 601.472 303.082C602.898 304.544 603.879 305.4 605.641 303.551C606.881 302.21 608.693 302.642 610.15 303.572C612.657 305.108 615.248 306.125 618.184 306.264C622.742 306.514 627.114 307.254 631.194 309.697C634.085 311.443 637.319 312.525 640.787 311.295C641.234 314.762 639.651 317.792 640.551 321.218C642.264 320.166 642.926 318.724 643.779 317.387C646.222 313.615 648.609 313.337 652.527 316.384C653.502 313.569 653.182 310.244 656.289 307.892C656.098 309.838 656.067 311.395 655.727 312.869C655.387 314.344 655.206 316.455 652.454 316.041ZM467.8 265.429C475.85 264.564 483.815 265.456 491.542 267.851C483.661 266.441 475.538 267.989 467.8 265.429ZM585.826 293.87C578.872 292.492 571.498 294.943 564.289 291.23C571.889 291.431 578.99 291.228 585.826 293.87ZM538.777 280.615C535.235 279.45 531.561 279.599 527.893 279.318C524.34 279.014 520.675 279.543 516.727 277.838C524.718 276.578 531.731 278.349 538.777 280.615ZM419.986 252.564C426.377 252.549 432.803 251.788 438.917 254.451C432.634 254.063 426.226 254.344 419.986 252.564ZM629.99 306.999C633.953 307.413 638.095 306.957 642.5 309.217C637.399 311.197 633.635 309.217 629.99 306.999ZM667.36 314.043C672.827 315.832 678.057 318.097 683.052 321.649C676.604 321.054 672.193 317.173 667.36 314.043ZM645.865 306.934C645.572 310.904 644.689 314.608 641.692 317.368C642.331 313.544 641.97 309.345 645.865 306.934ZM474.817 263.693C471.635 263.65 468.453 263.607 465.247 263.45C464.487 263.408 463.16 263.43 463.108 262.391C463.034 261.022 464.41 261.228 465.378 261.11C468.771 260.777 471.689 262.423 474.817 263.693ZM544.513 291.059C543.279 287.651 545.194 284.818 545.217 281.855C545.201 281.095 546.449 280.134 547.515 280.473C548.799 280.818 548.013 281.902 547.875 282.621C547.339 285.446 545.877 288.024 544.513 291.059ZM657.011 313.213C663.483 313.922 665.549 314.638 668.662 317.199C663.89 317.54 660.383 315.629 657.011 313.213ZM613.749 303.295C619.296 303.756 624.909 304.18 630.457 304.641C624.866 305.572 619.332 305.061 613.749 303.295ZM570.623 289.58C566.589 289.633 562.453 290.684 557.956 287.535C563.022 287.328 566.878 288.145 570.623 289.58ZM496.734 271.077C492.377 272.339 488.483 270.432 484.452 269.244C488.629 269.067 492.706 269.674 496.734 271.077ZM620.277 302.561C615.824 302.124 611.358 301.737 606.854 301.285C611.524 298.65 615.824 301.098 620.277 302.561ZM498.119 278.034C497.166 274.809 498.511 272.255 499.226 269.586C499.429 268.83 500.104 268.364 500.937 268.749C501.784 269.083 501.376 269.784 501.292 270.301C500.809 272.925 499.556 275.342 498.119 278.034ZM558.905 281.528C558.082 284.6 557.553 286.78 556.856 288.968C556.616 289.659 555.889 290.112 555.054 289.943C554.54 289.805 554.264 289.191 554.488 288.765C555.687 286.55 555.132 283.486 558.905 281.528ZM450.046 265.315C449.635 265.204 449.289 265.058 448.878 264.948C449.499 262.631 450.068 260.3 450.74 257.997C450.943 257.242 450.945 256.001 452.178 256.331C453.051 256.565 453.322 257.61 452.976 258.489C452.02 260.823 451.04 263.044 450.046 265.315ZM606.605 295.227C607.212 298.305 605.899 300.328 604.843 302.42C604.527 302.983 603.979 303.592 603.44 303.34C602.8 303.06 602.386 302.139 602.845 301.453C604.015 299.553 604.481 297.195 606.605 295.227ZM448.713 258.372C443.706 258.974 440.481 258.271 435.511 255.86C440.025 255.45 443.792 257.215 448.713 258.372ZM592.884 303.696C594.042 300.605 593.597 296.924 596.654 294.558C596.496 298.024 594.991 300.968 592.884 303.696ZM521.365 275.734C518.291 276.314 515.664 276.257 512.949 275.908C512.371 275.807 511.53 276.067 511.527 275.257C511.497 274.547 511.956 273.86 512.997 274.085C515.633 274.522 518.42 274.189 521.365 275.734ZM542.972 283.25C539.044 284.141 535.313 283.681 532.086 280.928C535.736 281.69 539.335 282.438 542.972 283.25ZM511.624 269.345C510.515 272.664 510.762 275.646 507.632 277.668C507.406 273.991 509.106 271.963 511.624 269.345ZM549.324 287.49C548.604 286.271 548.901 285.163 549.055 284.179C549.157 283.181 549.124 281.66 550.706 281.922C552.558 282.202 551.458 283.635 551.228 284.491C550.907 285.485 551.084 286.882 549.324 287.49ZM649.025 307.673C648.888 309.418 650.206 311.282 648.114 312.719C647.841 312.916 647.238 312.7 646.8 312.691C646.848 310.868 647.036 309.137 648.303 307.696C648.33 307.595 648.522 307.7 649.025 307.673Z" fill="white"/>
</g>
<g opacity="0.1">
<path d="M29.8579 75.2861C28.1313 75.3196 27.7886 73.8919 28.5874 73.1899C30.9387 71.1099 28.8122 69.9294 27.7922 68.8927C25.1285 66.156 23.4912 63.0072 22.7761 59.2659C22.3324 56.9332 20.1868 55.8239 18.8921 54.1029C16.0822 50.4873 13.8853 46.578 12.7531 42.1141C12.6348 41.7008 12.8657 41.2664 13.0095 40.1599C15.7534 43.4524 17.2762 47.0285 21.2303 49.0804C19.8029 45.1482 16.3404 43.1135 15.3715 39.037C18.5199 41.6745 20.8224 44.6198 22.1888 47.925C23.6925 51.5723 25.5244 54.8495 28.157 57.845C30.5167 60.5766 31.8901 63.9981 32.7458 67.3573C33.3389 69.8445 34.1447 69.2589 35.6418 68.515C37.0486 67.8232 38.5336 67.2668 39.9925 66.6654C40.1438 67.2403 40.2811 67.5824 40.2169 67.6797C35.9188 71.1847 37.0455 74.3874 40.7324 77.4365C41.5699 78.1571 42.1244 79.2217 41.7268 79.9931C40.0655 83.0595 42.1035 84.7125 43.8255 86.548C43.8777 86.6383 44.0462 86.7216 44.0983 86.8119C48.5028 95.5878 54.9201 103.262 58.1664 113.368C59.6114 112.534 61.1466 111.648 62.6367 110.788C63.2237 110.449 63.9253 109.682 64.5109 110.488C65.0444 111.204 64.3811 111.827 63.9956 112.411C63.9314 112.509 63.7959 112.587 63.7317 112.684C60.6724 116.979 60.5439 117.174 64.7434 120.589C66.7815 122.242 66.9607 123.282 64.8976 124.714C63.7306 125.509 63.623 126.052 64.7664 127.198C68.8132 131.184 71.4412 136.048 74.1022 141.074C76.4504 145.559 80.2244 149.28 81.6504 154.357C82.1495 156.055 83.4469 155.487 84.6539 154.971C86.1841 154.388 87.3665 152.682 89.3296 153.475C89.4241 155.829 85.8653 156.86 86.9881 159.222C87.8955 161.107 89.6226 162.638 91.1169 164.184C92.0848 165.13 92.4065 166.209 91.5956 167.098C89.9998 168.923 90.6897 169.909 92.1389 171.481C94.6672 174.296 96.9055 177.338 97.9507 181.13C98.7854 184.14 101.562 186.029 103.1 188.693C103.465 189.325 103.72 190.081 104.195 190.589C105.696 192.251 104.754 195.625 107.097 196.138C108.8 196.48 110.908 195.022 112.968 194.314C112.977 194.851 113.095 195.264 112.948 195.53C111.998 197.222 109.358 198.385 109.774 200.252C110.183 202.003 112.123 203.592 113.585 204.976C114.5 205.832 115.449 206.85 114.8 207.706C112.761 210.328 114.9 211.321 116.195 213.042C117.847 215.279 119.59 217.463 120.708 220.129C121.937 223.092 123.553 225.892 125.809 228.443C128.513 231.457 130.263 235.324 131.143 239.873C133.356 238.595 135.207 237.526 137.059 236.457C137.912 237.831 136.795 238.295 136.365 238.905C133.776 242.868 133.827 244.103 137.392 247.463C138.704 248.693 139.698 249.684 138.212 251.385C136.816 253.034 138.192 254.166 139.205 255.086C143.133 258.658 145.501 263.071 147.359 267.959C148.557 271.181 151.625 273.262 152.92 276.548C153.666 278.466 154.566 280.234 154.181 282.383C153.171 279.173 151.213 276.511 149.183 273.829C150.044 276.885 150.924 279.868 151.792 283.04C149.505 282.313 148.039 281.233 146.919 278.147C144.739 272.181 141.843 266.748 137.722 261.903C136.363 260.279 135.475 258.324 135.394 256.203C135.271 253.384 133.927 253.558 132.05 254.582C130.082 255.657 128.133 256.662 125.839 256.963C125.734 255.218 127.134 254.409 128.106 253.487C130.978 250.745 131.11 248.261 127.84 245.934C126.523 245.009 125.932 244.507 126.884 243.235C127.507 242.333 126.975 242.038 126.404 241.465C122.577 237.654 120.313 233.001 119.112 227.794C118.928 227.057 118.867 226.43 118.205 225.909C114.252 222.713 112.099 218.357 110.667 213.584C110.083 211.633 109.416 211.416 107.655 212.433C105.759 213.528 103.601 214.172 101.458 215.048C101.247 212.701 103.165 211.955 104.33 210.741C106.815 208.162 106.81 205.756 103.782 203.952C102.233 203.041 101.357 202.463 102.254 200.68C102.902 199.403 102.024 198.405 101.329 197.723C98.2573 194.8 96.9984 190.951 95.8108 187.121C95.2596 185.332 93.8453 184.343 92.7923 183.145C90.1337 180.104 88.069 176.841 87.4111 172.886C87.0387 170.572 85.7413 171.14 84.5272 171.54C82.2606 172.307 80.0532 173.281 77.6321 174.197C77.2908 171.624 79.3628 170.729 80.594 169.838C83.4178 167.846 82.2656 166.163 80.7312 164.34C79.3202 162.626 77.1485 161.471 77.7955 158.629C77.9412 157.943 77.0567 156.828 76.4068 156.12C73.4894 153.048 71.5202 149.429 70.2283 145.418C69.5658 143.332 68.0835 141.599 66.6274 139.911C63.8574 136.573 62.3137 132.648 61.9128 128.304C64.7348 131.732 64.9118 136.627 68.5364 140.194C67.5397 135.652 65.6347 131.935 63.6585 128.199C62.8173 126.638 62.4235 128.25 61.8295 128.473C59.7742 127.311 58.8334 129.54 57.3414 129.98C55.9398 130.368 54.5712 130.917 53.1313 131.447C52.8231 129.037 54.7978 128.077 55.8657 126.798C58.0396 124.098 58.0493 121.925 55.0541 120.283C53.2907 119.314 52.2205 118.608 53.5625 116.448C54.5452 114.917 53.6779 113.311 52.4182 112.172C50.314 110.196 48.6874 108.004 47.8215 105.253C46.4444 100.991 44.6418 97.0342 41.2709 93.8027C38.8679 91.5175 37.0188 88.7319 37.339 85.1153C33.8876 85.6028 31.3627 87.9034 27.8383 87.9514C28.4248 86.0475 29.6491 85.0396 30.724 83.8772C33.7488 80.5654 33.4215 78.2257 29.5088 75.307C31.9783 73.6404 35.2611 73.0696 36.7521 69.4995C34.9249 70.1932 33.433 70.6331 32.0974 71.344C30.7619 72.0549 28.7732 72.7816 29.8579 75.2861ZM124.658 237.295C123.485 229.423 120.639 222.096 116.405 215.389C119.729 222.501 120.263 230.621 124.658 237.295ZM67.8306 132.714C70.8915 138.954 70.3693 146.601 75.7439 152.469C73.6554 145.306 72.0795 138.509 67.8306 132.714ZM92.3308 173.898C94.3363 176.955 95.1087 180.483 96.2944 183.892C97.4732 187.185 97.8773 190.805 100.505 194.105C99.7258 186.186 96.2706 179.992 92.3308 173.898ZM148.975 279.308C147.395 273.236 146.527 266.934 142.436 261.83C144.376 267.694 145.704 273.851 148.975 279.308ZM44.1702 94.236C42.7829 90.5817 42.1892 86.5294 38.9138 82.9418C38.278 88.3059 41.1243 91.3587 44.1702 94.236ZM28.0658 60.6069C24.9793 55.8867 21.4934 51.5174 16.8265 47.7096C19.0066 53.6756 23.8453 56.8424 28.0658 60.6069ZM40.2744 79.1459C36.5228 80.469 33.1744 82.2818 31.2631 85.8537C34.787 84.2406 38.9226 83.4785 40.2744 79.1459ZM124.581 230.175C125.416 233.185 126.251 236.195 127.202 239.198C127.431 239.909 127.741 241.175 128.755 240.95C130.093 240.66 129.55 239.408 129.423 238.457C128.898 235.149 126.585 232.811 124.581 230.175ZM80.8394 171.201C84.4299 171.476 86.6821 168.912 89.5305 168.11C90.267 167.925 90.8814 166.487 90.2888 165.565C89.6371 164.436 88.788 165.468 88.1297 165.788C85.542 167.041 83.4234 169.107 80.8394 171.201ZM31.4457 70.2151C29.1491 64.2561 27.9448 62.483 24.701 60.2015C25.5623 64.8218 28.2782 67.6488 31.4457 70.2151ZM51.7883 108.682C49.961 103.536 48.1528 98.3185 46.3255 93.1723C46.8224 98.7254 48.6948 103.846 51.7883 108.682ZM75.754 146.021C76.7088 149.865 76.7275 154.068 80.8819 157.51C79.819 152.645 78.0705 149.199 75.754 146.021ZM112.003 211.308C111.874 215.777 114.682 218.973 116.832 222.488C115.96 218.475 114.359 214.764 112.003 211.308ZM50.8673 102.29C52.399 106.403 53.8855 110.542 55.4432 114.7C56.8173 109.572 53.3873 106.133 50.8673 102.29ZM104.956 211.824C108.299 211.881 110.425 209.931 112.818 208.549C113.495 208.158 113.777 207.394 113.198 206.704C112.664 205.989 112.091 206.561 111.614 206.776C109.207 207.925 107.19 209.751 104.956 211.824ZM86.4327 155.027C83.6783 156.618 81.7105 157.694 79.7759 158.931C79.1698 159.341 78.9147 160.151 79.2867 160.899C79.5474 161.351 80.2075 161.451 80.5617 161.126C82.3972 159.404 85.4873 159.125 86.4327 155.027ZM129.196 254.122C129.404 254.483 129.632 254.773 129.84 255.135C131.917 253.935 134.021 252.781 136.072 251.537C136.749 251.146 137.944 250.817 137.318 249.734C136.875 248.966 135.802 248.984 135.041 249.543C133.03 251.065 131.135 252.581 129.196 254.122ZM61.3417 113.341C58.2256 113.575 56.6037 115.354 54.8516 116.908C54.3879 117.356 53.9382 118.037 54.3153 118.482C54.7445 119.017 55.7347 119.167 56.2817 118.551C57.8202 116.94 59.9755 115.876 61.3417 113.341ZM136.216 253.561C136.885 258.473 138.366 261.35 141.928 265.435C141.197 261.04 138.558 257.928 136.216 253.561ZM56.6045 128.599C59.2928 126.686 62.9508 126.139 64.4679 122.614C61.1679 123.677 58.7072 125.88 56.6045 128.599ZM101.375 189.147C101.583 192.218 102.292 194.698 103.306 197.183C103.547 197.706 103.506 198.573 104.288 198.363C104.979 198.204 105.526 197.587 105.05 196.658C103.972 194.27 103.598 191.536 101.375 189.147ZM88.7462 170.61C88.8673 174.574 90.2407 177.995 93.6981 180.334C92.0539 177.069 90.4356 173.849 88.7462 170.61ZM109.959 196.714C107.037 198.641 104.104 199.191 102.936 202.695C106.535 201.942 108.064 199.794 109.959 196.714ZM83.0784 165.694C84.4317 166.057 85.4251 165.483 86.3352 165.078C87.2713 164.718 88.7442 164.349 88.0976 162.917C87.3657 161.232 86.2597 162.653 85.4921 163.096C84.615 163.663 83.2255 163.863 83.0784 165.694ZM38.7744 76.3393C37.1279 76.9287 35.0033 76.1686 34.1407 78.5329C34.0192 78.8439 34.3772 79.3597 34.4955 79.7731C36.2393 79.2479 37.8598 78.6134 38.9327 77.0306C39.023 76.9785 38.8736 76.8239 38.7744 76.3393Z" fill="white"/>
</g>
<g opacity="0.1">
<path d="M13.8435 47.551C12.9595 49.044 14.0387 50.079 15.0482 49.7418C18.0314 48.7564 18.0113 51.2244 18.4132 52.6505C19.4885 56.3899 21.4322 59.4437 24.3508 61.996C26.1715 63.5855 26.0797 66.0335 26.9442 68.0523C28.7159 72.3722 31.0479 76.3072 34.392 79.5965C34.695 79.9128 35.1892 79.9345 36.2283 80.3786C34.7065 76.2829 32.3323 73.1092 32.4948 68.5938C35.2277 71.8674 35.2935 75.944 38.3796 78.8909C37.631 74.7787 36.1945 71.2478 33.9799 68.3505C31.534 65.1568 29.5742 61.8666 28.2571 58.0212C27.0359 54.5503 24.7229 51.5869 22.2082 49.1084C20.3262 47.3086 21.2374 46.9054 22.6291 45.9791C23.9306 45.1048 25.1523 44.0924 26.4005 43.1261C25.9726 42.6977 25.7413 42.4013 25.6244 42.4074C20.4311 44.3618 18.1873 41.7269 17.3454 36.9316C17.1296 35.8279 16.4728 34.7946 15.6013 34.7451C12.0968 34.619 11.6598 31.985 10.9067 29.5335C10.8535 29.4414 10.864 29.2511 10.8108 29.159C5.31483 20.7867 1.77907 11.2213 -5.45438 3.17669C-4.00943 2.34245 -2.47417 1.45607 -0.984069 0.59576C-0.397059 0.25685 0.620428 0.0378677 0.205492 -0.889383C-0.156263 -1.72452 -1.03026 -1.46556 -1.73166 -1.42907C-1.84856 -1.42299 -1.98403 -1.34478 -2.10093 -1.3387C-7.37202 -0.874719 -7.60582 -0.862556 -8.51451 -6.29482C-8.95155 -8.92884 -9.77288 -9.62146 -12.0467 -8.55433C-13.319 -7.94256 -13.8478 -8.12854 -14.2844 -9.71886C-15.767 -15.311 -18.7212 -20.115 -21.8004 -25.0311C-24.5604 -29.3945 -25.9473 -34.6122 -29.6821 -38.4742C-30.9209 -39.7855 -29.7815 -40.6276 -28.7324 -41.4175C-27.4656 -42.456 -25.3879 -42.6115 -25.11 -44.7371C-27.1219 -46.032 -29.7856 -43.4502 -31.2958 -45.6488C-32.4949 -47.413 -32.9796 -49.7124 -33.5917 -51.8155C-33.9404 -53.1494 -34.7247 -53.9863 -35.9042 -53.7352C-38.2899 -53.279 -38.8112 -54.3904 -39.4685 -56.4674C-40.6792 -60.1286 -42.2326 -63.6534 -45.0317 -66.5203C-47.2514 -68.8007 -47.5294 -72.2021 -49.0983 -74.9195C-49.4706 -75.5643 -50.0049 -76.177 -50.2151 -76.854C-50.9256 -79.023 -54.3429 -79.9364 -53.6319 -82.2506C-53.0881 -83.9157 -50.7692 -85.0089 -49.1306 -86.4462C-49.5957 -86.7304 -49.8987 -87.0467 -50.2042 -87.0545C-52.1544 -87.0954 -54.4784 -85.3852 -55.9058 -86.7105C-57.2349 -87.9697 -57.6639 -90.4856 -58.1511 -92.4765C-58.4466 -93.7183 -58.8671 -95.0723 -59.9378 -94.9454C-63.2401 -94.5127 -63.05 -96.8947 -63.9145 -98.9134C-65.0529 -101.511 -66.1011 -104.161 -67.8797 -106.511C-69.863 -109.112 -71.5117 -111.968 -72.6266 -115.255C-73.9251 -119.172 -76.4403 -122.694 -79.9835 -125.807C-77.7709 -127.085 -75.9196 -128.154 -74.0683 -129.222C-74.8475 -130.676 -75.8062 -129.939 -76.5528 -129.876C-81.3006 -129.653 -82.3557 -130.333 -83.5298 -135.182C-83.9558 -136.963 -84.3311 -138.343 -86.5547 -137.919C-88.6881 -137.547 -88.9971 -139.334 -89.3007 -140.694C-90.4803 -145.97 -93.1686 -150.313 -96.5237 -154.456C-98.7489 -157.163 -99.051 -160.919 -101.284 -163.744C-102.592 -165.384 -103.693 -167.082 -105.763 -167.852C-103.456 -165.315 -102.096 -162.231 -100.756 -159.075C-103.002 -161.401 -105.177 -163.707 -107.521 -166.1C-108.017 -163.726 -107.798 -161.887 -105.653 -159.318C-101.513 -154.338 -98.1949 -149.008 -95.9972 -142.907C-95.2496 -140.882 -93.9787 -139.098 -92.1635 -137.936C-89.7582 -136.376 -90.576 -135.29 -92.4007 -134.175C-94.3158 -133.008 -96.1591 -131.821 -97.5584 -129.969C-96.0833 -128.979 -94.6835 -129.787 -93.3951 -130.162C-89.575 -131.262 -87.3373 -130.098 -86.9208 -126.039C-86.7633 -124.411 -86.6167 -123.636 -85.0333 -123.813C-83.9361 -123.894 -83.9411 -123.277 -83.7228 -122.482C-82.2828 -117.172 -79.3341 -112.795 -75.3735 -109.063C-74.8205 -108.522 -74.3023 -108.146 -74.1743 -107.299C-73.3349 -102.195 -70.5909 -98.068 -67.1244 -94.3581C-65.7076 -92.8425 -65.848 -92.1472 -67.609 -91.1305C-69.5055 -90.0356 -71.1361 -88.48 -72.9634 -87.0566C-71.0152 -85.6635 -69.4137 -86.9566 -67.7746 -87.3503C-64.2891 -88.1958 -62.1869 -86.953 -62.1081 -83.3753C-62.0779 -81.5503 -62.0057 -80.4867 -60.0023 -80.3537C-58.5649 -80.2624 -58.1258 -78.9806 -57.8729 -78.0212C-56.8373 -73.829 -54.0939 -70.7457 -51.3318 -67.7344C-50.0399 -66.331 -49.8743 -64.5842 -49.3475 -63.046C-48.0038 -59.1545 -46.1715 -55.668 -43.0377 -53.0557C-41.1983 -51.5383 -42.3377 -50.6963 -43.2885 -49.8403C-45.0811 -48.2526 -47.0253 -46.8231 -49.0251 -45.1772C-46.9439 -43.5538 -45.1353 -44.9051 -43.746 -45.523C-40.6062 -46.9673 -39.7046 -45.0928 -38.8692 -42.8116C-38.0684 -40.6946 -38.1336 -38.2005 -35.3275 -37.3028C-34.6552 -37.0768 -34.1178 -35.729 -33.8198 -34.7956C-32.577 -30.6617 -30.3859 -27.0752 -27.5175 -23.8798C-26.0208 -22.226 -25.2386 -20.0369 -24.483 -17.8939C-22.9346 -13.7521 -20.2654 -10.3803 -16.664 -7.79227C-18.2656 -12.0262 -22.4595 -14.7019 -23.7851 -19.7093C-20.3056 -16.4982 -17.9977 -12.9178 -15.7082 -9.26525C-14.759 -7.72533 -16.364 -8.21114 -16.8527 -7.80618C-16.8541 -5.41028 -19.2694 -5.73533 -20.3928 -4.65689C-21.4258 -3.63059 -22.5838 -2.7164 -23.7603 -1.73007C-21.804 -0.218818 -19.9873 -1.45193 -18.3402 -1.72739C-14.9024 -2.23832 -12.9968 -1.12768 -13.0429 2.33798C-13.0685 4.37931 -12.9802 5.67937 -10.4269 5.6177C-8.60165 5.54647 -7.62577 7.13245 -7.25297 8.82097C-6.56607 11.6792 -5.45422 14.2307 -3.4764 16.405C-0.429897 19.8046 2.13847 23.4189 3.29651 28.0317C4.10584 31.3106 5.6271 34.3626 8.94902 35.9451C6.81424 38.7129 3.55206 39.7366 1.76547 42.7947C3.72119 43.2622 5.20879 42.7104 6.7576 42.3689C11.1517 41.4287 13.0362 42.92 13.6523 47.8456C16.3325 46.5438 18.4568 43.9663 22.3175 44.5008C20.8064 45.7418 19.683 46.8202 18.4001 47.6223C17.1172 48.4244 15.4972 49.7896 13.8435 47.551ZM-80.9392 -118.807C-74.6345 -113.727 -69.6337 -107.464 -65.8627 -100.306C-70.4385 -106.876 -77.277 -111.526 -80.9392 -118.807ZM-17.5923 -15.2398C-21.5354 -21.131 -28.4823 -24.6124 -30.9544 -32.3354C-25.7229 -26.8196 -20.5581 -21.9409 -17.5923 -15.2398ZM-41.4884 -57.8805C-43.1692 -61.2089 -45.8726 -63.7012 -48.2678 -66.4943C-50.5647 -69.2213 -53.531 -71.4391 -55.1164 -75.4367C-48.5754 -70.6769 -44.8686 -64.4651 -41.4884 -57.8805ZM-105.651 -161.714C-101.122 -157.205 -96.0395 -153.2 -93.6 -146.993C-97.7684 -151.71 -102.497 -156.043 -105.651 -161.714ZM4.3526 25.2726C6.86225 28.3681 10.1129 30.9743 11.6297 35.6871C6.62301 33.4805 5.36162 29.4187 4.3526 25.2726ZM25.7961 56.6785C28.3971 61.8092 30.4934 67.1086 31.514 73.1518C27.3747 68.1722 26.9999 62.3089 25.7961 56.6785ZM15.6234 36.4519C12.6091 39.0519 9.36603 41.0472 5.29556 40.8794C8.45085 38.6278 11.1646 35.4029 15.6234 36.4519ZM-74.7494 -115.073C-76.969 -117.353 -79.1887 -119.634 -81.3446 -122.012C-81.8524 -122.579 -82.8067 -123.502 -82.1083 -124.273C-81.1922 -125.294 -80.3653 -124.174 -79.5972 -123.574C-76.9631 -121.41 -76.0635 -118.183 -74.7494 -115.073ZM-44.8172 -46.4398C-43.2805 -49.7221 -39.9224 -50.3712 -37.8112 -52.4499C-37.2854 -52.9991 -35.7231 -52.7957 -35.2098 -51.8024C-34.545 -50.651 -35.868 -50.4398 -36.4736 -50.0288C-38.8507 -48.4107 -41.7065 -47.6217 -44.8172 -46.4398ZM19.0649 48.7738C23.1405 53.8515 24.0953 55.8181 24.4852 59.8304C20.8702 56.6976 19.7418 52.866 19.0649 48.7738ZM-4.51253 11.1691C-0.915625 15.4178 2.75303 19.6865 6.34993 23.9352C1.73856 20.6407 -1.81319 16.3659 -4.51253 11.1691ZM-25.3095 -29.0235C-28.1989 -31.8383 -31.8666 -34.0196 -32.8204 -39.4258C-29.0911 -35.9905 -26.9426 -32.6864 -25.3095 -29.0235ZM-64.4728 -94.3537C-68.446 -96.5428 -69.8509 -100.645 -71.8613 -104.335C-68.7832 -101.507 -66.3293 -98.1948 -64.4728 -94.3537ZM0.622653 15.2666C-2.21664 11.8087 -5.10109 8.37693 -7.96698 4.87298C-2.80123 6.31216 -1.49167 11.0831 0.622653 15.2666ZM-68.4128 -88.4557C-66.8068 -91.4095 -64.0493 -92.2645 -61.6561 -93.6462C-60.9788 -94.0373 -60.1711 -93.8896 -59.8545 -93.0284C-59.4927 -92.1932 -60.2764 -91.9864 -60.7013 -91.6796C-62.8979 -90.1658 -65.4933 -89.3429 -68.4128 -88.4557ZM-27.9016 -43.0026C-30.656 -41.4123 -32.5711 -40.2453 -34.6111 -39.1903C-35.2698 -38.8714 -36.1042 -39.0652 -36.5748 -39.7761C-36.8407 -40.2366 -36.6019 -40.8658 -36.1423 -41.0083C-33.7276 -41.727 -31.954 -44.2862 -27.9016 -43.0026ZM-93.4117 -131.442C-93.6244 -131.811 -93.7654 -132.159 -93.9781 -132.528C-91.901 -133.727 -89.8505 -134.972 -87.7468 -136.125C-87.0695 -136.516 -86.1905 -137.392 -85.5523 -136.287C-85.1002 -135.504 -85.6471 -134.574 -86.513 -134.197C-88.84 -133.222 -91.1033 -132.345 -93.4117 -131.442ZM-3.85894 0.413227C-5.6059 3.01853 -7.96499 3.52079 -10.1911 4.25334C-10.8128 4.42801 -11.6311 4.47058 -11.8333 3.91179C-12.0886 3.26089 -11.7304 2.31714 -10.9202 2.15638C-8.74971 1.64022 -6.75237 0.302817 -3.85894 0.413227ZM-89.4452 -137.294C-93.4108 -140.409 -95.195 -143.186 -97.0042 -148.406C-93.5223 -145.503 -92.1068 -141.592 -89.4452 -137.294ZM-19.5499 -3.3012C-16.5456 -4.66726 -14.2567 -7.58541 -10.4226 -7.09696C-12.9853 -4.75759 -16.1306 -3.74001 -19.5499 -3.3012ZM-50.3491 -73.6447C-52.9325 -75.408 -54.7507 -77.3059 -56.423 -79.4724C-56.7607 -79.953 -57.5393 -80.3632 -56.9684 -80.9385C-56.4877 -81.4616 -55.6775 -81.6224 -55.1005 -80.7273C-53.5451 -78.5547 -51.339 -76.8192 -50.3491 -73.6447ZM-40.3861 -53.0513C-43.7933 -55.1987 -46.1063 -58.1621 -46.4405 -62.3908C-44.3984 -59.2709 -42.383 -56.1972 -40.3861 -53.0513ZM-52.7194 -85.0497C-55.8511 -83.4873 -57.7842 -81.2044 -61.4272 -81.9874C-58.9869 -84.7474 -56.3513 -84.9794 -52.7194 -85.0497ZM-38.8918 -45.562C-38.5391 -46.9325 -37.5457 -47.506 -36.741 -48.0935C-35.9628 -48.727 -34.9112 -49.8254 -33.978 -48.5219C-32.8667 -47.0141 -34.6573 -46.7786 -35.4249 -46.3354C-36.3546 -45.8601 -37.2176 -44.7477 -38.8918 -45.562ZM17.3359 39.2093C16.0053 40.346 15.6185 42.5958 13.1234 42.1326C12.7913 42.0787 12.5174 41.5 12.2143 41.1836C13.5368 39.9288 14.894 38.8382 16.8095 38.7148C16.8999 38.6627 16.9611 38.873 17.3359 39.2093Z" fill="white"/>
<path d="M264.191 481.164C263.307 482.657 264.386 483.692 265.396 483.355C268.379 482.37 268.359 484.838 268.761 486.264C269.836 490.003 271.78 493.057 274.698 495.609C276.519 497.199 276.427 499.647 277.292 501.665C279.064 505.985 281.396 509.92 284.74 513.21C285.043 513.526 285.537 513.548 286.576 513.992C285.054 509.896 282.68 506.722 282.842 502.207C285.575 505.481 285.641 509.557 288.727 512.504C287.979 508.392 286.542 504.861 284.328 501.964C281.882 498.77 279.922 495.48 278.605 491.634C277.384 488.163 275.071 485.2 272.556 482.722C270.674 480.922 271.585 480.519 272.977 479.592C274.278 478.718 275.5 477.706 276.748 476.739C276.32 476.311 276.089 476.014 275.972 476.021C270.779 477.975 268.535 475.34 267.693 470.545C267.477 469.441 266.82 468.408 265.949 468.358C262.444 468.232 262.007 465.598 261.254 463.147C261.201 463.055 261.212 462.864 261.158 462.772C255.662 454.4 252.127 444.834 244.893 436.79C246.338 435.956 247.873 435.069 249.364 434.209C249.951 433.87 250.968 433.651 250.553 432.724C250.191 431.889 249.317 432.148 248.616 432.184C248.499 432.19 248.364 432.268 248.247 432.274C242.976 432.738 242.742 432.751 241.833 427.318C241.396 424.684 240.575 423.992 238.301 425.059C237.029 425.671 236.5 425.485 236.063 423.894C234.581 418.302 231.626 413.498 228.547 408.582C225.787 404.219 224.4 399.001 220.666 395.139C219.427 393.828 220.566 392.986 221.615 392.196C222.882 391.157 224.96 391.002 225.238 388.876C223.226 387.581 220.562 390.163 219.052 387.964C217.853 386.2 217.368 383.901 216.756 381.798C216.407 380.464 215.623 379.627 214.443 379.878C212.058 380.334 211.536 379.223 210.879 377.146C209.668 373.485 208.115 369.96 205.316 367.093C203.096 364.812 202.818 361.411 201.249 358.694C200.877 358.049 200.343 357.436 200.133 356.759C199.422 354.59 196.005 353.677 196.716 351.363C197.26 349.697 199.578 348.604 201.217 347.167C200.752 346.883 200.449 346.566 200.143 346.559C198.193 346.518 195.869 348.228 194.442 346.903C193.113 345.643 192.684 343.128 192.197 341.137C191.901 339.895 191.481 338.541 190.41 338.668C187.108 339.1 187.298 336.718 186.433 334.7C185.295 332.102 184.247 329.453 182.468 327.102C180.485 324.501 178.836 321.645 177.721 318.359C176.423 314.441 173.907 310.919 170.364 307.806C172.577 306.528 174.428 305.46 176.279 304.391C175.5 302.937 174.541 303.675 173.795 303.737C169.047 303.96 167.992 303.28 166.818 298.431C166.392 296.65 166.017 295.27 163.793 295.694C161.66 296.066 161.351 294.279 161.047 292.919C159.867 287.644 157.179 283.3 153.824 279.157C151.599 276.45 151.297 272.694 149.063 269.869C147.755 268.229 146.655 266.531 144.585 265.761C146.892 268.298 148.251 271.382 149.592 274.539C147.346 272.212 145.171 269.906 142.827 267.513C142.331 269.887 142.55 271.726 144.695 274.295C148.834 279.275 152.153 284.605 154.35 290.706C155.098 292.731 156.369 294.515 158.184 295.678C160.589 297.237 159.772 298.323 157.947 299.438C156.032 300.605 154.189 301.792 152.789 303.644C154.264 304.635 155.664 303.826 156.953 303.451C160.773 302.351 163.01 303.515 163.427 307.574C163.584 309.202 163.731 309.977 165.314 309.8C166.412 309.719 166.407 310.336 166.625 311.132C168.065 316.441 171.014 320.819 174.974 324.55C175.527 325.091 176.045 325.467 176.173 326.314C177.013 331.418 179.757 335.545 183.223 339.255C184.64 340.771 184.5 341.466 182.739 342.483C180.842 343.578 179.212 345.133 177.384 346.557C179.332 347.95 180.934 346.657 182.573 346.263C186.059 345.417 188.161 346.66 188.24 350.238C188.27 352.063 188.342 353.127 190.345 353.26C191.783 353.351 192.222 354.633 192.475 355.592C193.51 359.784 196.254 362.867 199.016 365.879C200.308 367.282 200.473 369.029 201 370.567C202.344 374.459 204.176 377.945 207.31 380.557C209.149 382.075 208.01 382.917 207.059 383.773C205.267 385.361 203.322 386.79 201.323 388.436C203.404 390.059 205.212 388.708 206.602 388.09C209.741 386.646 210.643 388.52 211.478 390.802C212.279 392.919 212.214 395.413 215.02 396.31C215.692 396.536 216.23 397.884 216.528 398.818C217.771 402.951 219.962 406.538 222.83 409.733C224.327 411.387 225.109 413.576 225.865 415.719C227.413 419.861 230.082 423.233 233.684 425.821C232.082 421.587 227.888 418.911 226.563 413.904C230.042 417.115 232.35 420.695 234.639 424.348C235.589 425.888 233.984 425.402 233.495 425.807C233.494 428.203 231.078 427.878 229.955 428.956C228.922 429.983 227.764 430.897 226.587 431.883C228.544 433.394 230.36 432.161 232.007 431.886C235.445 431.375 237.351 432.485 237.305 435.951C237.279 437.992 237.367 439.293 239.921 439.231C241.746 439.16 242.722 440.746 243.095 442.434C243.782 445.292 244.893 447.844 246.871 450.018C249.918 453.418 252.486 457.032 253.644 461.645C254.453 464.924 255.975 467.976 259.297 469.558C257.162 472.326 253.9 473.35 252.113 476.408C254.069 476.875 255.556 476.324 257.105 475.982C261.499 475.042 263.384 476.533 264 481.459C266.68 480.157 268.804 477.579 272.665 478.114C271.154 479.355 270.031 480.433 268.748 481.235C267.465 482.038 265.845 483.403 264.191 481.164ZM169.408 314.806C175.713 319.886 180.714 326.149 184.485 333.307C179.909 326.737 173.071 322.087 169.408 314.806ZM232.755 418.373C228.812 412.482 221.865 409.001 219.393 401.278C224.625 406.794 229.79 411.672 232.755 418.373ZM208.859 375.733C207.178 372.404 204.475 369.912 202.08 367.119C199.783 364.392 196.817 362.174 195.231 358.177C201.772 362.936 205.479 369.148 208.859 375.733ZM144.697 271.899C149.226 276.408 154.308 280.413 156.748 286.62C152.579 281.903 147.85 277.571 144.697 271.899ZM254.7 458.886C257.21 461.981 260.461 464.587 261.977 469.3C256.971 467.094 255.709 463.032 254.7 458.886ZM276.144 490.292C278.745 495.422 280.841 500.722 281.862 506.765C277.722 501.785 277.348 495.922 276.144 490.292ZM265.971 470.065C262.957 472.665 259.714 474.66 255.643 474.493C258.799 472.241 261.512 469.016 265.971 470.065ZM175.598 318.54C173.379 316.26 171.159 313.979 169.003 311.601C168.495 311.034 167.541 310.111 168.239 309.34C169.156 308.319 169.982 309.439 170.75 310.039C173.385 312.203 174.284 315.43 175.598 318.54ZM205.53 387.173C207.067 383.891 210.425 383.242 212.536 381.163C213.062 380.614 214.625 380.817 215.138 381.811C215.803 382.962 214.48 383.173 213.874 383.584C211.497 385.202 208.641 385.991 205.53 387.173ZM269.413 482.387C273.488 487.465 274.443 489.431 274.833 493.444C271.218 490.311 270.089 486.479 269.413 482.387ZM245.835 444.782C249.432 449.031 253.101 453.3 256.698 457.548C252.086 454.254 248.534 449.979 245.835 444.782ZM225.038 404.59C222.149 401.775 218.481 399.594 217.527 394.187C221.257 397.623 223.405 400.927 225.038 404.59ZM185.875 339.259C181.902 337.07 180.497 332.969 178.486 329.278C181.564 332.107 184.018 335.418 185.875 339.259ZM250.97 448.88C248.131 445.422 245.247 441.99 242.381 438.486C247.546 439.925 248.856 444.696 250.97 448.88ZM181.935 345.157C183.541 342.204 186.298 341.349 188.692 339.967C189.369 339.576 190.177 339.724 190.493 340.585C190.855 341.42 190.071 341.627 189.646 341.934C187.45 343.447 184.854 344.27 181.935 345.157ZM222.446 390.611C219.692 392.201 217.777 393.368 215.737 394.423C215.078 394.742 214.243 394.548 213.773 393.837C213.507 393.377 213.746 392.747 214.205 392.605C216.62 391.886 218.394 389.327 222.446 390.611ZM156.936 302.171C156.723 301.802 156.582 301.454 156.37 301.086C158.447 299.886 160.497 298.641 162.601 297.488C163.278 297.097 164.157 296.221 164.795 297.326C165.247 298.109 164.701 299.039 163.835 299.416C161.508 300.391 159.244 301.268 156.936 302.171ZM246.489 434.026C244.742 436.632 242.383 437.134 240.157 437.867C239.535 438.041 238.717 438.084 238.514 437.525C238.259 436.874 238.617 435.93 239.428 435.77C241.598 435.253 243.595 433.916 246.489 434.026ZM160.903 296.319C156.937 293.204 155.153 290.427 153.343 285.208C156.825 288.11 158.241 292.022 160.903 296.319ZM230.798 430.312C233.802 428.946 236.091 426.028 239.925 426.516C237.362 428.856 234.217 429.873 230.798 430.312ZM199.999 359.968C197.415 358.205 195.597 356.307 193.925 354.141C193.587 353.66 192.808 353.25 193.379 352.675C193.86 352.152 194.67 351.991 195.247 352.886C196.803 355.058 199.009 356.794 199.999 359.968ZM209.962 380.562C206.554 378.414 204.241 375.451 203.907 371.222C205.949 374.342 207.965 377.416 209.962 380.562ZM197.628 348.563C194.497 350.126 192.563 352.409 188.92 351.626C191.361 348.866 193.996 348.634 197.628 348.563ZM211.456 388.051C211.809 386.681 212.802 386.107 213.607 385.52C214.385 384.886 215.436 383.788 216.37 385.091C217.481 386.599 215.69 386.835 214.923 387.278C213.993 387.753 213.13 388.865 211.456 388.051ZM267.684 472.822C266.353 473.959 265.966 476.209 263.471 475.746C263.139 475.692 262.865 475.113 262.562 474.797C263.884 473.542 265.242 472.451 267.157 472.328C267.248 472.276 267.309 472.486 267.684 472.822Z" fill="white"/>
</g>
</svg>
