<svg width="18" height="18" viewBox="0 0 18 18" fill="none" xmlns="http://www.w3.org/2000/svg">
<path d="M13.8052 3.11714C13.209 3.11714 12.7252 3.60033 12.7252 4.19676C12.7252 4.79301 13.209 5.27676 13.8052 5.27676C14.4015 5.27676 14.8852 4.79301 14.8852 4.19676C14.8852 3.60051 14.4015 3.11714 13.8052 3.11714Z" fill="white"/>
<path fill-rule="evenodd" clip-rule="evenodd" d="M9.00118 4.37883C6.44875 4.37883 4.37931 6.44827 4.37931 9.00071C4.37931 11.5531 6.44875 13.6216 9.00118 13.6216C11.5536 13.6216 13.6223 11.5531 13.6223 9.00071C13.6223 6.44827 11.5536 4.37883 9.00118 4.37883ZM12.001 9.00035C12.001 7.34342 10.6577 6.00035 9.00099 6.00035C7.34405 6.00035 6.00099 7.34342 6.00099 9.00035C6.00099 10.6571 7.34405 12.0004 9.00099 12.0004C10.6577 12.0004 12.001 10.6571 12.001 9.00035Z" fill="white"/>
<path fill-rule="evenodd" clip-rule="evenodd" d="M9.00075 0C6.5565 0 6.24975 0.0106875 5.28975 0.054375C4.33162 0.09825 3.67762 0.249937 3.10537 0.4725C2.51344 0.702375 2.01131 1.00987 1.51106 1.51031C1.01044 2.01056 0.702937 2.51269 0.472312 3.10444C0.249187 3.67687 0.0973125 4.33106 0.0541875 5.28881C0.01125 6.24881 0 6.55575 0 9C0 11.4442 0.010875 11.7501 0.054375 12.7101C0.0984375 13.6682 0.250125 14.3222 0.4725 14.8944C0.702562 15.4864 1.01006 15.9885 1.5105 16.4887C2.01056 16.9894 2.51269 17.2976 3.10425 17.5275C3.67687 17.7501 4.33106 17.9017 5.289 17.9456C6.249 17.9893 6.55556 18 8.99962 18C11.4441 18 11.7499 17.9893 12.7099 17.9456C13.668 17.9017 14.3227 17.7501 14.8954 17.5275C15.4871 17.2976 15.9885 16.9894 16.4886 16.4887C16.9892 15.9885 17.2967 15.4864 17.5273 14.8946C17.7486 14.3222 17.9004 13.668 17.9454 12.7102C17.9886 11.7502 17.9998 11.4442 17.9998 9C17.9998 6.55575 17.9886 6.249 17.9454 5.289C17.9004 4.33087 17.7486 3.67687 17.5273 3.10462C17.2967 2.51269 16.9892 2.01056 16.4886 1.51031C15.9879 1.00969 15.4873 0.702187 14.8948 0.4725C14.3211 0.249937 13.6667 0.09825 12.7086 0.054375C11.7486 0.0106875 11.4429 0 8.99794 0H9.00075ZM8.19372 1.62268C8.35049 1.62244 8.51913 1.62251 8.70113 1.62259L9.00109 1.62268C11.4041 1.62268 11.6889 1.63131 12.6378 1.67443C13.5153 1.71456 13.9916 1.86118 14.3088 1.98437C14.7288 2.14749 15.0283 2.34249 15.3431 2.65749C15.6581 2.97249 15.8531 3.27249 16.0166 3.69249C16.1398 4.00937 16.2866 4.48562 16.3265 5.36312C16.3697 6.31187 16.379 6.59687 16.379 8.99874C16.379 11.4006 16.3697 11.6856 16.3265 12.6344C16.2864 13.5119 16.1398 13.9881 16.0166 14.305C15.8535 14.725 15.6581 15.0241 15.3431 15.3389C15.0281 15.6539 14.729 15.8489 14.3088 16.012C13.992 16.1357 13.5153 16.282 12.6378 16.3221C11.6891 16.3652 11.4041 16.3746 9.00109 16.3746C6.59791 16.3746 6.31309 16.3652 5.36434 16.3221C4.48684 16.2816 4.01059 16.135 3.69316 16.0118C3.27316 15.8487 2.97316 15.6537 2.65816 15.3387C2.34316 15.0237 2.14816 14.7244 1.98466 14.3042C1.86147 13.9874 1.71466 13.5111 1.67472 12.6336C1.63159 11.6849 1.62297 11.3999 1.62297 8.99649C1.62297 6.59312 1.63159 6.30962 1.67472 5.36087C1.71484 4.48337 1.86147 4.00712 1.98466 3.68987C2.14778 3.26987 2.34316 2.96987 2.65816 2.65487C2.97316 2.33987 3.27316 2.14487 3.69316 1.98137C4.01041 1.85762 4.48684 1.71137 5.36434 1.67106C6.19459 1.63356 6.51634 1.62231 8.19372 1.62043V1.62268Z" fill="white"/>
</svg>
