<svg width="327" height="57" viewBox="0 0 327 57" fill="none" xmlns="http://www.w3.org/2000/svg">
<path d="M196.353 4.86587V42.412H203.77V28.1613C203.77 25.3917 204.224 23.411 205.129 22.219C206.034 20.9921 207.496 20.3785 209.515 20.3785C211.292 20.3785 212.528 20.9395 213.225 22.0614C213.921 23.148 214.268 24.8133 214.268 27.057V42.412H221.686V25.6896C221.686 24.007 221.529 22.4819 221.216 21.1147C220.937 19.7126 220.431 18.5382 219.701 17.5916C218.97 16.61 217.96 15.8562 216.671 15.3303C215.417 14.7695 213.799 14.489 211.813 14.489C210.42 14.489 208.993 14.8572 207.53 15.5932C206.068 16.2945 204.866 17.4337 203.926 19.0113H203.77V4.86587H196.353Z" fill="white"/>
<path d="M251.141 42.3216V15.1703H243.724V29.4024C243.724 32.1684 243.272 34.1639 242.367 35.3892C241.461 36.5797 239.998 37.1749 237.979 37.1749C236.202 37.1749 234.968 36.6321 234.271 35.5469C233.574 34.4265 233.225 32.746 233.225 30.5053V15.1703H225.808V31.8707C225.808 33.5511 225.948 35.0917 226.227 36.4923C226.541 37.8577 227.062 39.0305 227.793 40.0108C228.524 40.956 229.517 41.6913 230.77 42.2165C232.059 42.7417 233.695 43.0042 235.68 43.0042C237.248 43.0042 238.78 42.6543 240.277 41.9539C241.775 41.2537 242.993 40.1158 243.933 38.5403H244.089V42.3216H251.141Z" fill="white"/>
<path d="M255.23 15.1967V42.412H262.665V30.1466C262.665 28.9184 262.788 27.7777 263.033 26.7249C263.277 25.6723 263.677 24.7597 264.237 23.9877C264.831 23.1804 265.599 22.5488 266.541 22.0926C267.483 21.6364 268.637 21.4082 269.997 21.4082C270.452 21.4082 270.923 21.4434 271.412 21.5136C271.901 21.5486 272.32 21.6012 272.668 21.6714V14.7229C272.075 14.5475 271.533 14.4597 271.046 14.4597C270.102 14.4597 269.194 14.6001 268.323 14.8809C267.449 15.1617 266.628 15.5651 265.861 16.0915C265.092 16.5829 264.412 17.1971 263.818 17.934C263.224 18.636 262.753 19.408 262.403 20.2502H262.299V15.1967H255.23Z" fill="white"/>
<path d="M291.807 24.7441H299.063C298.959 22.9951 298.541 21.491 297.811 20.2316C297.081 18.9373 296.124 17.8704 294.94 17.0308C293.79 16.1562 292.467 15.5091 290.971 15.0895C289.51 14.6696 287.979 14.4597 286.377 14.4597C284.184 14.4597 282.234 14.8271 280.528 15.5616C278.823 16.2962 277.38 17.3281 276.196 18.6574C275.012 19.9517 274.107 21.5085 273.481 23.3275C272.889 25.1116 272.592 27.0529 272.592 29.1518C272.592 31.1807 272.923 33.0521 273.585 34.7662C274.246 36.4452 275.169 37.897 276.353 39.1213C277.536 40.3458 278.963 41.3077 280.633 42.0072C282.338 42.6719 284.2 43.0042 286.221 43.0042C289.805 43.0042 292.746 42.0599 295.044 40.1707C297.341 38.2818 298.734 35.5358 299.222 31.9327H292.068C291.823 33.6119 291.215 34.9586 290.24 35.9732C289.301 36.9526 287.943 37.4423 286.169 37.4423C285.019 37.4423 284.044 37.1799 283.243 36.6552C282.443 36.1305 281.8 35.4658 281.313 34.6614C280.859 33.8217 280.528 32.8948 280.32 31.8803C280.111 30.8659 280.007 29.8689 280.007 28.8895C280.007 27.8749 280.111 26.8606 280.32 25.846C280.528 24.7966 280.877 23.8522 281.365 23.0127C281.887 22.1381 282.549 21.4385 283.348 20.9138C284.148 20.354 285.141 20.0741 286.325 20.0741C289.492 20.0741 291.32 21.6309 291.807 24.7441Z" fill="white"/>
<path d="M301.667 4.86587V42.412H309.084V28.1613C309.084 25.3917 309.536 23.411 310.441 22.219C311.346 20.9921 312.81 20.3785 314.829 20.3785C316.606 20.3785 317.842 20.9395 318.537 22.0614C319.233 23.148 319.583 24.8133 319.583 27.057V42.412H327V25.6896C327 24.007 326.843 22.4819 326.53 21.1147C326.251 19.7126 325.745 18.5382 325.015 17.5916C324.284 16.61 323.274 15.8562 321.986 15.3303C320.731 14.7695 319.113 14.489 317.128 14.489C315.735 14.489 314.307 14.8572 312.844 15.5932C311.383 16.2945 310.18 17.4337 309.241 19.0113H309.084V4.86587H301.667Z" fill="white"/>
<path d="M168.069 0C169.6 1.55153 170.408 3.25071 170.812 4.79857C171.551 7.62306 170.947 9.94366 170.947 9.94366C172.822 8.04317 173.612 5.92115 173.906 4.12707C174.812 4.00879 175.751 3.94965 176.722 3.94965C178.774 3.94965 180.705 4.24857 182.513 4.84642C182.646 4.88968 182.779 4.93441 182.91 4.98062C183.764 3.12345 183.853 1.28117 183.729 0C184.163 0.440328 184.539 0.892549 184.865 1.34983C186.274 3.33137 186.727 5.4079 186.82 7.0233C186.918 8.74555 186.606 9.94366 186.606 9.94366C187.212 9.32971 187.705 8.69265 188.104 8.05099C189.258 9.07087 190.229 10.2886 191.016 11.7042C191.955 13.3922 192.547 15.3265 192.79 17.5069H184.861C184.721 16.5573 184.408 15.6957 183.922 14.922C183.435 14.1132 182.826 13.4098 182.096 12.8119C181.365 12.2141 180.531 11.7569 179.592 11.4404C178.687 11.0887 177.731 10.9129 176.722 10.9129C174.879 10.9129 173.314 11.2821 172.027 12.0207C170.741 12.724 169.697 13.6911 168.897 14.922C168.097 16.1177 167.506 17.4893 167.124 19.0367C166.776 20.5841 166.602 22.1842 166.602 23.8371C166.602 25.4196 166.776 26.967 167.124 28.4792C167.506 29.9563 168.097 31.2927 168.897 32.4884C169.697 33.6841 170.741 34.6512 172.027 35.3897C173.314 36.0931 174.879 36.4448 176.722 36.4448C179.226 36.4448 181.174 35.6711 182.565 34.1237C183.991 32.5763 184.861 30.5366 185.174 28.0045H193.103C192.894 30.3607 192.355 32.4884 191.486 34.3874C190.616 36.2865 189.469 37.9042 188.043 39.2406C186.617 40.577 184.948 41.5969 183.035 42.3002C181.122 43.0036 179.018 43.3553 176.722 43.3553C173.871 43.3553 171.297 42.8629 169.002 41.8782C166.741 40.8583 164.828 39.4692 163.263 37.7108C161.698 35.9524 160.498 33.8951 159.664 31.5388C158.829 29.1474 158.412 26.5802 158.412 23.8371C158.412 21.0236 158.829 18.4212 159.664 16.0298C160.498 13.6032 161.698 11.4932 163.263 9.69959C163.88 8.993 164.55 8.34644 165.275 7.75993C167.959 5.14746 168.257 1.93424 168.069 0Z" fill="white"/>
<path d="M8.19531 35.4976V11.9143H14.0418C16.0602 11.9143 17.748 12.2114 19.1051 12.8053C20.4972 13.3642 21.6106 14.1852 22.446 15.2684C23.2811 16.3514 23.8728 17.6616 24.2206 19.199C24.6036 20.7013 24.795 22.3958 24.795 24.2825C24.795 26.3437 24.534 28.0908 24.012 29.5233C23.49 30.9557 22.7938 32.1261 21.924 33.0345C21.0539 33.908 20.0621 34.5368 18.9485 34.9211C17.8348 35.3054 16.6865 35.4976 15.5033 35.4976H8.19531ZM0 4.99653V42.4155H16.0775C18.9312 42.4155 21.402 41.9438 23.49 41.0004C25.6127 40.0221 27.3701 38.6946 28.7621 37.0174C30.1889 35.3405 31.2502 33.3489 31.9463 31.0431C32.6422 28.7371 32.9903 26.2215 32.9903 23.4964C32.9903 20.3869 32.5552 17.6791 31.6853 15.3731C30.8501 13.0674 29.6669 11.1457 28.1356 9.60829C26.6392 8.0711 24.8471 6.91821 22.7591 6.14942C20.7058 5.38082 18.4788 4.99653 16.0775 4.99653H0Z" fill="white"/>
<path d="M43.7121 11.1282V4.99653H36.2893V11.1282H43.7121ZM36.2893 15.3208V42.4155H43.7121V15.3208H36.2893Z" fill="white"/>
<path d="M85.215 11.1282V4.99653H77.7922V11.1282H85.215ZM77.7922 15.3208V42.4155H85.215V15.3208H77.7922Z" fill="white"/>
<path d="M99.7207 15.2885V7.12799H92.3126V15.2885H87.8262V20.2901H92.3126V36.3476C92.3126 37.7166 92.5388 38.8222 92.9909 39.6645C93.443 40.5068 94.0517 41.1561 94.8168 41.6124C95.6168 42.0687 96.521 42.3671 97.5295 42.5075C98.5729 42.683 99.6684 42.7708 100.816 42.7708C101.547 42.7708 102.294 42.7532 103.059 42.718C103.825 42.683 104.52 42.6127 105.146 42.5075V36.7162C104.798 36.7864 104.433 36.839 104.051 36.874C103.668 36.9092 103.268 36.9269 102.851 36.9269C101.599 36.9269 100.764 36.7162 100.347 36.295C99.9292 35.8739 99.7207 35.0314 99.7207 33.768V20.2901H105.146V15.2885H99.7207Z" fill="white"/>
<path d="M107.741 23.6637C107.845 21.9149 108.279 20.4637 109.044 19.3095C109.809 18.1554 110.782 17.2286 111.964 16.5292C113.145 15.8296 114.466 15.3401 115.926 15.0603C117.42 14.7456 118.914 14.5881 120.409 14.5881C121.764 14.5881 123.137 14.6931 124.527 14.9028C125.917 15.0778 127.186 15.445 128.333 16.0046C129.48 16.5641 130.418 17.351 131.148 18.3653C131.878 19.3446 132.243 20.6561 132.243 22.2996V36.4113C132.243 37.6353 132.312 38.8069 132.451 39.926C132.59 41.0452 132.834 41.8845 133.181 42.4442H125.674C125.535 42.0244 125.414 41.6046 125.309 41.1851C125.24 40.7305 125.188 40.2758 125.153 39.8212C123.971 41.0452 122.581 41.902 120.982 42.3915C119.384 42.8813 117.75 43.126 116.082 43.126C114.796 43.126 113.597 42.9688 112.485 42.6538C111.373 42.3391 110.4 41.8496 109.566 41.1851C108.731 40.5206 108.071 39.6813 107.584 38.6669C107.133 37.6528 106.907 36.4462 106.907 35.0474C106.907 33.5085 107.168 32.2494 107.689 31.2702C108.245 30.2561 108.94 29.4516 109.774 28.8571C110.643 28.2625 111.616 27.8254 112.693 27.5456C113.806 27.2309 114.918 26.9861 116.03 26.8113C117.142 26.6363 118.237 26.4964 119.314 26.3915C120.391 26.2867 121.347 26.1292 122.181 25.9194C123.016 25.7095 123.676 25.4123 124.162 25.0276C124.649 24.6079 124.875 24.0133 124.84 23.244C124.84 22.4395 124.701 21.8101 124.423 21.3554C124.18 20.8657 123.832 20.4986 123.38 20.2538C122.963 19.974 122.459 19.7992 121.869 19.7292C121.313 19.6242 120.704 19.5718 120.044 19.5718C118.584 19.5718 117.437 19.8865 116.603 20.5161C115.769 21.1456 115.283 22.1948 115.144 23.6637H107.741ZM124.84 29.1718C124.527 29.4516 124.128 29.679 123.641 29.8538C123.189 29.9938 122.685 30.1161 122.129 30.221C121.608 30.326 121.052 30.4133 120.461 30.4833C119.87 30.5532 119.279 30.6407 118.688 30.7456C118.132 30.8506 117.577 30.9905 117.02 31.1653C116.499 31.3401 116.03 31.5851 115.613 31.8998C115.231 32.1796 114.918 32.5468 114.674 33.0014C114.431 33.4561 114.31 34.0331 114.31 34.7325C114.31 35.397 114.431 35.9567 114.674 36.4113C114.918 36.8659 115.248 37.2331 115.665 37.5129C116.082 37.7577 116.569 37.9327 117.125 38.0375C117.681 38.1423 118.254 38.195 118.845 38.195C120.305 38.195 121.434 37.95 122.234 37.4605C123.033 36.9708 123.624 36.3938 124.006 35.7292C124.388 35.0298 124.614 34.3304 124.684 33.6308C124.788 32.9315 124.84 32.372 124.84 31.9522V29.1718Z" fill="white"/>
<path d="M136.362 4.99653V42.4155H143.785V4.99653H136.362Z" fill="white"/>
<path d="M60.0011 36.1208C62.7964 36.0198 63.2985 35.4815 64.6711 34.3038C65.7861 33.0694 66.6462 31.14 66.6462 28.46C66.6462 25.9424 66.052 23.7384 64.8803 22.2663C63.2985 20.4829 62.152 20.3904 60.0178 20.3063C57.5939 20.3063 55.8505 21.8099 54.9294 24.1001C54.4446 25.3183 54.3017 26.898 54.3017 28.6846C54.3017 30.2276 54.6655 31.5948 55.1826 32.7967C56.0554 34.8253 57.9365 35.9818 60.0011 36.1208ZM58.1352 14.6703C59.4603 14.6703 60.9505 14.7051 61.9362 15.1111C63.6168 15.8096 65.5837 17.2609 66.6179 19.1288V15.3037H73.667V44.7696C73.667 48.1967 73.0934 50.7792 71.946 52.5171C69.9746 55.5057 66.1932 57 60.602 57C57.2246 57 54.4693 56.3341 52.3363 55.0022C50.2032 53.6703 49.0235 51.6806 48.7973 49.0331H56.3116C56.5055 49.8453 56.8206 50.43 57.2569 50.7873C58.0002 51.4208 59.2526 51.7375 61.014 51.7375C63.5026 51.7375 65.167 50.901 66.0073 49.2281C66.5568 48.1561 66.8315 46.3532 66.8315 43.8194V37.8399C65.7758 38.8126 64.6711 39.78 63.6584 40.4361C62.2849 41.4919 60.2602 41.9817 58.0625 41.9817C54.669 41.9817 51.9541 40.7879 49.918 38.4003C47.898 35.9964 46.9009 32.7777 46.9009 28.6846C46.9009 24.7377 47.8657 21.3946 49.821 18.7146C51.7764 16.0184 54.5478 14.6703 58.1352 14.6703Z" fill="white"/>
</svg>
