<svg width="131" height="295" viewBox="0 0 131 295" fill="none" xmlns="http://www.w3.org/2000/svg">
<path d="M130.701 176.306C129.766 174.666 129.205 172.915 128.682 171.126C127.859 168.331 126.176 166.244 123.819 164.53C121.239 162.629 118.209 162.406 115.329 162.07C112.15 161.698 109.158 160.803 106.165 159.909C101.939 158.679 98.1238 156.294 93.9722 154.952C88.3618 153.126 82.7888 151.3 76.8418 150.592C70.446 149.847 64.125 149.251 57.6917 150.294C54.2507 150.853 50.7349 150.63 47.2564 150.481C46.284 150.443 45.5733 150.033 45.4611 148.953C45.2741 146.903 44.152 145.226 43.1796 143.512C41.7583 140.978 41.8705 138.779 43.8528 136.58C44.8253 135.5 45.7229 134.046 47.3312 134.046C51.4081 134.046 55.485 134.382 59.5245 135.09C63.4891 135.798 67.4912 135.649 70.9322 133.301C73.0268 131.885 75.5701 130.655 76.019 127.711C76.2434 126.22 76.8792 125.065 78.0761 124.171C79.1608 123.351 79.647 122.307 79.0486 120.929C78.8242 120.37 78.5623 119.736 79.086 119.177C80.5073 117.686 80.6569 115.86 80.2829 113.96C80.1706 113.326 80.2829 112.805 80.6195 112.208C81.1057 111.351 81.6293 110.42 81.7415 109.488C82.0782 106.991 80.2829 105.799 77.2158 106.208C76.6174 106.283 75.6075 107.028 75.3083 105.91C75.0465 104.904 74.4107 103.712 75.5701 102.817C77.5151 101.327 79.0486 99.5006 80.0958 97.3392C81.3675 94.7306 82.714 92.271 84.7337 90.0723C86.3421 88.3208 87.726 85.8612 87.0153 83.1036C86.1551 79.9359 85.8932 76.7683 86.6039 73.5635C86.7535 72.8927 86.4169 72.4082 86.1176 71.8492C85.22 70.0232 84.5467 68.1972 84.9956 66.0357C85.6314 63.0172 86.7909 60.1477 87.2023 57.0919C87.5015 54.8932 87.2397 52.6572 87.8756 50.5331C88.5488 48.2971 89.1472 46.0611 91.915 45.5021C92.3639 45.3903 92.5883 45.0177 92.8501 44.645C95.2065 41.0302 94.0844 38.4961 89.8953 37.6018C88.9602 37.4154 87.3145 37.2664 87.8008 35.7012C88.661 32.9808 86.1176 32.9435 84.9956 31.8628C83.4995 30.4094 83.7987 32.5708 83.2376 32.9435C81.779 33.9124 80.6195 35.254 79.834 36.8192C78.6371 36.1111 78.9364 35.1422 79.3478 34.3596C79.9088 33.2416 80.6569 32.2354 80.7317 30.9311C80.7691 30.5957 80.9935 30.5957 81.2553 30.5585C83.0506 30.2231 82.3026 29.515 81.5545 28.7697C80.9187 28.1362 79.7592 27.9499 79.7966 26.7573C79.834 25.1922 79.3852 24.2605 77.2906 24.9686C79.086 23.9997 79.086 22.4345 79.3104 20.9811C79.46 19.9749 79.3478 18.9687 78.3753 18.3352C77.4777 17.739 76.5426 17.8508 75.5701 18.3725C74.3359 19.0433 73.1764 20.0867 71.6429 19.9377C68.5759 19.6023 66.7057 21.2047 65.5089 23.7388C65.2096 24.4096 65.0974 24.2978 64.4616 24.0742C62.6663 23.4034 61.2824 22.509 61.2824 20.3476C61.2824 20.0122 61.0206 19.6395 60.7587 19.4159C59.0008 17.7762 59.3374 15.7266 59.8985 13.8633C60.2725 12.6335 60.7961 11.441 61.2076 10.2112C62.4418 6.26103 65.3593 4.435 69.1743 3.61514C69.7353 3.50335 70.7826 3.95054 70.8574 2.94436C70.9322 2.19904 70.072 1.90091 69.5109 1.52825C69.1369 1.26739 68.6133 1.11832 68.127 1.00652C64.6486 0.261203 61.1328 -0.185989 57.5795 0.0748727C56.0834 0.186671 54.4003 0.484799 53.2782 1.67731C50.9219 4.13687 49.164 6.93182 49.164 10.5466C49.164 12.7826 49.0892 15.0185 49.0144 17.2172C48.9395 18.8569 48.1915 19.4532 46.4336 19.1923C43.404 18.7451 40.4118 18.8942 38.9531 22.2854C38.018 24.5214 36.3723 24.7077 34.3526 24.2978C33.6045 24.1487 32.8565 24.0742 32.1458 23.8879C25.3386 22.2109 18.7557 22.6581 12.3225 25.5276C7.42274 27.689 2.59782 29.925 -2.1523 32.3472C-8.36112 35.5521 -13.9341 39.3533 -17.6369 45.5394C-19.4697 48.5952 -20.4047 51.7256 -20.5543 55.1913C-20.5917 55.6012 -20.6665 56.123 -20.1055 56.272C-19.8437 56.3466 -19.3575 56.272 -19.2453 56.123C-17.7117 53.6261 -14.8318 52.5082 -13.1486 50.1977C-12.2884 49.0051 -11.2411 48.1853 -9.85722 47.589C-7.20164 46.3965 -4.69567 44.8686 -2.1523 43.4525C1.43834 41.4402 4.69236 38.9433 8.39521 37.1546C10.7516 35.9993 13.3323 35.9993 15.8009 35.3658C18.6061 34.6205 21.3739 34.3223 24.1791 35.4403C27.9567 36.931 31.4352 38.9806 34.9136 40.993C36.3349 41.8128 36.5219 43.6016 36.9333 45.055C37.1203 45.7257 36.3723 45.8748 35.8487 46.0611C34.3526 46.6201 32.7068 46.9555 31.3604 47.8872C26.124 51.502 21.3365 55.564 17.7458 60.9303C15.9879 63.5389 13.9682 65.9985 12.6591 68.9052C12.0233 70.3213 11.6866 71.9983 10.9012 73.079C9.81651 74.4951 9.21807 76.023 8.50742 77.5509C8.283 78.0354 8.02118 78.6689 8.61963 79.0788C9.14326 79.4142 9.55469 78.9298 9.96611 78.6689C11.6118 77.6627 12.9209 76.2466 14.3796 75.0168C17.8206 72.0728 21.6731 69.6505 24.8523 66.4084C26.5354 64.6941 28.1811 62.9426 30.0139 61.3402C32.5572 59.1415 35.6616 56.8683 38.8409 57.7627C42.3567 58.7688 45.8725 59.1042 49.3884 59.6632C49.9494 59.7378 50.5105 59.9614 51.1463 60.1477C50.9219 60.4458 50.8471 60.6321 50.6975 60.7067C50.3234 60.9303 49.912 61.0793 49.5006 61.2657C43.778 63.3898 38.1302 65.5885 32.8939 68.7934C31.9588 69.3524 30.9489 69.8741 29.9017 70.284C25.6378 72.0356 22.1967 74.756 19.99 78.8552C19.0175 80.644 18.1573 82.5073 17.2596 84.2961C15.0529 88.6189 12.6591 92.7927 9.81651 96.7057C8.43261 98.6062 7.27313 100.656 6.41287 102.817C4.31833 107.997 3.15886 113.475 2.22379 118.953C1.28873 124.394 1.28873 129.947 1.36353 135.462C1.40094 138.295 1.06431 141.164 1.70016 143.996C2.59782 147.984 3.04665 152.008 3.00924 156.108C3.00924 158.865 2.11159 161.735 3.19626 164.381C4.69236 168.033 5.06638 171.759 5.06638 175.635C5.06638 183.126 8.1708 188.865 14.9032 192.479C15.1651 192.628 15.3147 192.926 15.5391 193.15C19.4664 197.361 22.0845 202.429 24.9645 207.348C25.6378 208.541 26.685 209.771 26.7598 211.075C26.8721 214.205 27.7697 217.224 27.6575 220.429C27.5079 223.82 27.2087 227.025 25.5256 230.118C22.7204 235.223 18.4939 239.062 14.3796 242.975C13.7438 243.571 13.2949 243.497 12.9209 242.751C12.3599 241.633 11.4248 240.925 10.4149 240.292C5.47781 237.348 0.241459 236.341 -5.44372 237.646C-9.81982 238.652 -13.8967 240.031 -16.7019 243.832C-17.4125 244.764 -17.6369 244.018 -17.824 243.347C-18.572 240.478 -18.1606 237.534 -18.1606 234.627C-18.1606 233.994 -18.0484 233.286 -18.8338 233.099C-19.5819 232.913 -20.1055 233.397 -20.5169 234.031C-20.891 234.627 -21.0032 235.298 -21.1154 235.969C-21.3024 237.385 -21.5268 238.764 -21.7886 240.143C-22.4245 243.683 -22.6489 247.223 -22.3497 250.838C-21.9756 255.198 -22.1252 259.484 -24.5938 263.359C-25.0052 263.993 -25.2671 264.85 -24.5564 265.409C-23.8458 265.931 -23.2473 265.223 -22.8359 264.775C-21.5642 263.359 -20.2551 261.943 -19.0956 260.415C-17.2255 257.956 -15.5798 255.347 -13.5975 252.962C-10.9045 249.683 -7.42606 247.26 -3.6858 245.248C-3.12477 244.95 -2.41412 244.54 -2.56373 243.906C-2.75074 243.161 -3.611 243.497 -4.20944 243.497C-6.49099 243.534 -8.66034 244.242 -10.9045 244.689C-6.41619 241.186 0.727692 240.515 5.66482 242.863C7.01131 243.496 7.98378 244.503 8.80664 245.695C9.33027 246.441 9.40508 246.925 8.50742 247.67C6.67469 249.161 4.50535 250.055 2.56042 251.36C-0.918018 253.707 -4.92009 255.31 -8.36112 257.769C-12.625 260.788 -17.3751 263.583 -18.946 269.21C-21.1902 277.26 -16.7019 282.141 -9.14657 282.961C-6.5284 283.259 -3.98502 282.551 -1.55386 281.433C3.53288 279.123 8.61962 277.073 12.0233 272.117C16.4367 265.707 17.8954 258.962 16.1375 251.434C15.7635 249.869 15.2025 248.565 17.2222 246.925C19.6908 244.875 22.1219 242.639 24.3661 240.217C26.7224 237.646 28.817 234.851 30.0887 231.758C33.2305 224.118 33.3053 216.106 31.4352 208.131C30.4253 203.92 29.2284 199.746 26.7972 196.02C26.3484 195.349 25.8622 194.305 27.0591 194.082C29.8643 193.485 32.6694 192.591 35.5868 194.194C38.8035 195.945 42.2819 197.473 46.0221 197.436C51.4829 197.361 56.9437 197.436 62.4044 197.287C68.2392 197.138 74.074 197.138 79.8714 196.057C81.1431 195.833 82.4522 195.684 83.9857 195.498C82.714 197.287 81.0683 198.367 79.7966 199.783C77.8891 201.908 76.206 204.218 73.5878 205.783C69.9597 207.945 66.7805 210.777 64.873 214.727C63.4517 217.671 61.9556 220.578 60.4969 223.522C59.8237 224.901 59.1878 226.317 57.4299 227.025C57.5795 225.832 57.2803 225.013 56.1582 224.603C54.9613 224.193 54.4751 225.013 53.9141 225.758C51.6699 228.888 48.9021 231.161 45.0497 232.354C43.7032 232.764 41.9079 233.621 40.8606 235.149C38.205 239.099 39.4393 242.788 42.7681 246.142C45.5359 248.937 45.2367 248.192 43.1048 251.248C42.9925 251.397 42.8429 251.509 42.7307 251.658C42.2071 252.403 41.8705 252.85 40.8232 252.068C39.5141 251.136 38.2424 251.658 37.4944 253.148C37.0455 254.043 36.7463 254.974 36.2601 255.832C35.6991 256.838 35.512 258.068 34.5022 258.85C32.9687 259.968 31.9214 261.757 30.0887 262.39C28.2185 263.024 28.4056 265.372 26.1614 266.005C24.1417 266.601 23.9547 272.303 25.563 273.98C27.8071 276.328 30.3505 278.303 33.4175 279.533C39.4019 281.88 45.3863 284.154 50.9967 287.247C55.7094 289.818 60.3847 292.315 65.4715 294.104C68.3889 295.11 71.3437 295.035 74.2984 294.961C75.3831 294.924 76.4304 294.514 77.4029 293.843C80.0584 292.054 82.6392 290.042 85.8932 289.371C86.7909 289.185 87.6511 288.7 88.6236 289.147C89.5587 289.557 90.5685 290.265 91.4662 289.073C92.4387 287.769 92.6631 286.352 91.8402 284.862C91.0922 283.52 88.7358 283.036 87.8382 284.191C86.6787 285.719 85.22 285.644 83.6865 285.421C80.021 284.899 76.4304 283.744 72.6527 283.856C72.3535 283.856 72.0543 283.669 71.7925 283.595C64.6486 281.322 59.7489 276.44 56.0834 270.104C55.5224 269.135 55.5972 268.055 55.8964 267.011C56.1956 266.005 56.7193 265.111 57.3177 264.216C57.7291 263.62 58.5146 262.8 57.6917 262.055C56.7567 261.235 57.5795 260.9 58.0284 260.751C59.1504 260.341 60.2351 260.117 61.3198 261.123C62.4793 262.167 63.4143 263.322 64.125 264.738C65.06 266.676 66.4439 267.831 68.8751 267.98C71.8673 268.129 74.8221 267.347 77.7769 267.868C81.1805 268.502 84.5467 268.427 87.6137 266.825C89.9701 265.595 92.5509 265.26 94.9446 264.291C95.3935 264.105 95.8049 263.918 96.3659 264.142C98.0865 264.924 98.6849 263.546 99.3207 262.465C99.807 261.645 99.6574 260.676 98.7971 260.154C98.049 259.707 97.114 259.782 96.5903 260.527C95.5431 261.98 94.1966 261.869 92.7753 261.571C90.8304 261.161 88.9228 260.564 86.9405 260.341C78.7493 259.297 73.4008 254.378 69.3239 247.708C68.8003 246.85 68.7255 245.844 69.5109 245.136C71.1566 243.646 72.3909 241.708 74.261 240.441C77.6273 238.093 80.9561 235.782 84.3597 233.509C91.3166 228.851 97.2262 223.075 102.163 216.292C104.146 213.572 106.278 211.038 108.971 208.951C112.075 206.529 115.591 204.516 117.985 201.237C120.154 198.218 123.071 195.535 122.81 191.287C122.772 190.84 123.034 190.281 123.371 189.945C125.315 188.119 126.699 185.809 128.906 184.244C130.44 182.976 131.562 177.834 130.701 176.306ZM11.724 262.539C10.4149 266.341 8.2456 269.396 5.36561 272.042C3.27106 273.943 0.615484 275.024 -1.85308 276.365C-3.79801 277.446 -5.78035 277.744 -7.94969 277.781C-8.47333 277.744 -9.10917 277.707 -9.74501 277.669C-13.7471 277.297 -15.505 274.353 -14.1959 270.477C-13.4105 268.129 -11.7273 266.527 -9.96943 265.036C-6.37879 261.943 -2.56373 259.223 1.66276 256.987C4.43054 255.533 7.01131 253.67 9.59209 251.919C11.3874 250.689 11.911 250.726 12.3973 252.776C13.2201 256.092 12.8461 259.297 11.724 262.539ZM62.4044 126.779C61.6938 125.661 61.0954 124.804 60.6091 123.873C59.9359 122.494 58.739 122.307 57.4673 122.419C56.4575 122.494 55.5224 122.755 56.3452 124.133C56.4949 124.394 56.8315 124.841 56.3826 125.102C55.9338 125.326 55.3728 125.363 55.0736 124.841C54.3629 123.574 53.0538 122.904 51.9317 122.121C51.0341 121.45 50.7349 120.854 50.8845 119.885C51.4455 119.662 51.9691 120.034 52.1936 120.332C53.7271 122.345 55.6346 121.525 57.3551 121.003C58.8886 120.556 60.1977 120.891 61.432 121.562C63.4891 122.643 63.6387 123.686 62.4044 126.779ZM54.5125 111.836C55.9338 112.022 57.2803 112.73 59.0756 112.171C56.9811 114.854 55.8964 112.097 54.5125 111.836ZM62.18 109.003C62.2548 107.774 63.1899 106.879 64.499 106.805C65.8455 106.73 67.4538 107.997 67.1172 108.854C66.5935 110.196 65.2844 109.935 63.938 109.823C63.4891 109.562 62.1052 110.457 62.18 109.003ZM71.5681 130.431C72.5405 129.09 72.8023 127.152 74.8221 126.369C74.9343 128.829 72.7649 129.313 71.5681 130.431ZM77.6273 123.015C76.5052 123.798 75.4205 124.618 73.9618 124.991C75.0465 123.835 74.7099 121.972 76.019 121.003C76.4678 120.668 76.8792 119.587 77.5899 120.593C78.0761 121.338 78.7494 122.233 77.6273 123.015ZM76.954 111.873C77.8891 111.687 78.4501 111.575 77.8143 110.531C77.5899 110.121 77.4403 109.711 77.9639 109.413C78.9364 108.892 78.4501 108.556 77.8517 108.146C77.5899 107.96 77.4403 107.625 77.6647 107.326C77.8891 107.028 78.2257 107.177 78.5249 107.252C80.0958 107.55 80.9561 109.078 80.1706 110.457C79.273 112.059 78.9364 113.587 79.273 115.413C79.6096 117.314 78.5249 118.506 76.1686 119.103C76.2434 117.686 76.9166 116.345 76.2808 114.929C75.7571 113.736 75.2335 113.065 73.7 113.662C71.5681 114.482 69.3613 115.19 67.0424 115.227C66.4065 115.227 65.4715 115.488 65.3218 114.631C65.1348 113.624 65.0974 112.506 65.5463 111.538C65.7707 111.053 66.2195 111.426 66.4065 111.724C67.3416 113.14 68.5385 112.916 70.072 112.805C72.3909 112.73 74.6725 112.32 76.954 111.873ZM71.6055 107.401C72.5779 107.662 72.6901 108.482 72.6901 109.302C72.6901 109.935 72.2787 110.42 71.7177 110.494C70.7826 110.606 70.4834 109.786 70.2216 109.115C69.9972 108.482 69.9598 107.774 69.8475 107.14C69.8102 106.842 69.8102 106.358 69.6605 106.283C69.2491 106.097 68.2018 106.693 68.7255 105.463C69.0621 104.681 69.5109 103.674 70.4086 103.674C71.4933 103.712 72.7649 103.451 73.6626 104.42C74.5603 105.389 74.261 106.469 73.6626 107.625C73.2886 106.805 72.8024 106.246 71.8673 106.283C71.3437 106.32 70.7452 106.395 70.6704 106.917C70.5582 107.55 71.2314 107.289 71.6055 107.401ZM78.0013 26.0866C78.6371 25.9748 78.7868 26.571 78.7494 27.0927C78.7119 27.5772 78.4501 27.8753 77.9639 27.9126C77.3655 27.6145 76.58 27.3909 76.58 26.7573C76.58 25.9375 77.5151 26.1611 78.0013 26.0866ZM77.4777 29.2914C77.0662 30.8566 76.6174 32.3845 76.0564 34.3969C75.1213 31.9746 76.4678 30.6703 77.4777 29.2914ZM75.4205 24.894C76.6548 23.8133 77.4777 22.6953 76.58 20.9811C76.3556 20.5712 76.8418 19.9749 77.3654 19.9377C78.0013 19.9004 78.1883 20.4967 78.1883 20.9438C78.1509 21.9128 78.1883 22.9189 77.2533 23.5897C76.5426 24.1115 75.7945 24.6704 75.9068 25.9748C75.3083 25.453 75.1587 25.0804 75.4205 24.894ZM63.938 36.2229C64.9852 35.6639 65.3967 36.931 66.5561 36.9682C65.4715 37.7508 64.7234 37.8999 63.9754 37.2291C63.7135 36.9682 63.6761 36.3347 63.938 36.2229ZM63.0777 23.8506C61.1328 25.8257 60.6839 27.8381 60.6839 30.2231C59.5245 27.4281 60.1977 25.453 63.0777 23.8506ZM58.1406 45.3158C59.5619 45.0177 60.2725 45.9121 60.5343 46.8065C60.8709 47.8872 59.7115 48.148 58.8512 48.2226C58.0284 48.2971 57.8787 48.5952 57.8787 49.3778C57.8039 51.4647 57.3925 51.7628 54.5873 51.5392C55.6346 50.943 56.1208 50.3467 56.0086 49.4523C56.0086 49.3405 55.7842 49.117 55.672 49.117C55.2232 49.1542 55.2606 49.6387 55.111 49.9741C54.4377 46.881 55.1484 45.9121 58.1406 45.3158ZM43.6284 55.4149C43.591 56.1602 41.0476 56.1602 40.1874 55.4894C38.9531 54.4833 38.1676 52.9181 36.3723 52.5827C36.1853 52.5454 35.9609 52.061 35.9983 51.8001C36.0731 51.1293 36.8959 51.2784 37.1203 51.2784C39.5141 51.2411 41.6087 50.4958 43.4788 49.1542C44.8627 51.2784 43.7032 53.328 43.6284 55.4149ZM48.1915 36.7446C47.6679 38.3098 47.1068 39.8377 46.5458 41.5147C46.3214 41.3656 46.2092 41.3284 46.097 41.2166C44.0772 39.2042 42.9177 36.4838 40.4866 34.8441C40.2248 34.6577 40.2996 34.2851 40.4492 33.9869C40.6362 33.6888 40.8606 33.8751 41.085 33.9497C43.0673 34.9186 45.2367 35.0677 47.3686 35.3658C48.3411 35.5521 48.4533 35.962 48.1915 36.7446ZM48.3411 28.2107C47.7801 26.7201 47.3312 25.1549 46.1344 24.0369C45.9099 23.8133 45.7603 23.5152 45.9473 23.2171C46.1718 22.8444 46.5084 22.8444 46.9198 22.9562C48.3411 23.3289 49.7998 23.6643 50.9967 24.6332C51.8569 25.3412 52.605 26.1983 53.9141 25.7884C54.4003 25.6394 54.5125 26.0866 54.7369 26.8319C54.6995 26.8319 54.4377 27.0182 54.2133 26.9809C52.8294 26.7946 52.5676 27.9871 51.9317 28.7324C50.6975 30.2231 49.0518 29.9995 48.3411 28.2107ZM54.9988 61.2657C57.6917 60.9675 60.4595 60.893 63.1525 60.6694C65.9203 60.4458 69.2491 62.4582 69.9598 65.1041C70.9322 68.8679 73.5504 71.9238 74.2236 75.7994C74.4107 76.8429 74.4481 77.8863 74.5977 78.9298C74.7099 79.6751 74.5977 80.6067 75.7945 80.9421C76.0938 77.9608 77.328 75.0541 75.6823 72.1101C75.4205 71.6629 75.2709 71.0294 75.6823 70.5076C76.9914 68.9425 76.58 67.1164 76.6174 65.3277C76.6922 63.0917 76.4304 60.9303 75.9816 58.7688C75.8694 58.2471 75.7197 57.5763 76.5052 57.39C77.3655 57.2037 77.3655 57.9117 77.4403 58.4335C77.8517 61.2284 78.1883 64.0606 78.5623 66.8556C78.5997 67.2655 78.2631 67.8245 78.9364 67.8618C79.4226 67.899 79.6844 67.4518 79.6844 66.9674C79.9088 63.7252 81.2179 60.7067 81.3675 57.4645C81.4049 56.6819 81.7415 55.8994 82.0782 55.1913C83.4621 52.2473 83.9857 49.0424 85.033 45.9866C85.5192 44.496 86.4917 43.4898 87.8008 42.6327C88.4366 42.2227 88.9228 41.6637 89.4839 41.1793C89.8205 40.8812 90.1945 40.5458 90.0449 40.0986C89.8579 39.5023 89.3343 39.875 88.9228 39.8377C87.4641 39.7259 86.4169 38.8315 85.7062 37.7135C85.1826 36.8564 84.7337 36.7074 83.9483 37.1918C83.088 37.6763 83.2002 38.2353 83.7239 38.8688C84.4345 39.6886 83.9483 40.024 83.2376 40.5458C79.9462 43.0053 76.58 43.0426 73.0268 41.2166C72.0543 40.7321 71.7925 39.6514 71.6429 38.9061C71.3811 37.7136 69.7727 36.3347 71.6055 35.1422C73.1016 32.459 71.4933 29.4032 68.3515 29.0306C67.9774 28.9933 67.5286 29.1051 67.4164 28.6206C67.3042 28.2107 67.6408 27.8381 67.9774 27.7635C69.2117 27.5772 69.9598 26.012 71.4184 26.6083C73.1764 27.3163 73.9244 28.5834 73.8496 30.5585C73.7748 32.1609 74.3733 33.7261 74.9717 35.2167C76.3556 38.7943 80.8065 39.5769 83.2002 37.0428C83.6491 36.5583 84.0979 35.962 84.6589 35.6267C85.2574 35.254 85.407 34.136 86.3795 34.4341C87.3893 34.7695 86.4917 35.6267 86.6787 36.2229C86.9779 37.2664 87.3519 38.0862 88.5488 38.2725C89.2594 38.3843 89.9701 38.6452 90.7182 38.6825C92.2143 38.7943 93.2989 39.5396 93.2615 41.0302C93.2241 42.5954 92.5509 43.9742 90.8678 44.6078C88.9602 45.3531 87.8008 46.881 87.2023 48.7816C85.968 52.62 86.0054 56.7192 84.9208 60.5576C84.5467 61.9365 84.1353 63.3153 83.9109 64.6941C83.5369 66.632 83.4995 68.5698 84.3597 70.5076C85.1452 72.3337 85.3322 74.3088 84.8834 76.3211C84.3971 78.4453 84.3971 80.5695 85.2574 82.6564C86.155 84.8178 85.4818 86.942 83.9857 88.3581C81.5545 90.7431 80.208 93.6498 78.7119 96.5566C78.3005 97.3764 77.6273 98.0472 77.0662 98.7925C76.6174 99.3888 76.206 99.3515 75.6823 98.8298C75.1587 98.3081 75.2709 97.9727 75.6823 97.4137C77.4403 95.1032 78.5997 92.4573 79.5722 89.7369C79.7218 89.327 79.8714 88.8425 79.273 88.6562C78.8242 88.5071 78.6371 88.9171 78.4127 89.2152C78.2257 89.476 78.0013 89.7369 77.9639 89.9978C77.4029 93.389 74.1862 94.9169 72.5779 97.5255C71.8299 98.718 70.5582 96.9665 70.1094 98.8671C69.9598 97.7864 70.9696 97.3764 69.7353 96.8174C68.4637 96.2212 69.3239 94.5442 69.8102 93.7989C70.5582 92.6437 70.2216 91.004 71.5307 90.1468C71.6803 90.035 71.7551 89.6251 71.4559 89.5133C71.2688 89.4388 70.9322 89.476 70.82 89.6251C70.259 90.2214 69.7728 90.8549 69.0995 91.3021C69.2865 90.0723 70.2964 89.476 71.1192 88.4699C69.5483 88.209 68.7629 87.65 70.1842 86.3457C70.4834 86.0476 70.6704 85.5631 70.259 85.414C68.4637 84.706 69.6979 83.8116 70.072 82.9918C70.259 82.6191 70.6704 82.1719 70.2216 81.8365C69.6979 81.4639 69.4735 82.0974 69.2865 82.3955C68.5385 83.6253 67.5286 84.8178 67.2668 86.1221C66.7057 89.1034 64.4616 89.9978 62.1052 90.8549C59.5245 91.7865 56.8315 92.0847 53.8393 92.0101C55.5598 91.2275 56.42 89.0661 58.7764 89.886C59.0008 89.9605 59.5619 89.6996 59.5619 89.5878C59.5993 87.3891 63.0777 87.5009 62.6663 85.0041C64.3868 84.2961 64.499 82.2092 65.5089 81.2775C66.7431 80.1223 65.9203 79.1906 65.9951 78.259C66.0699 77.141 65.7333 76.023 65.9203 74.7932C66.1073 73.638 64.7982 74.3088 64.1624 73.8243C65.4341 73.2281 65.7333 72.4455 64.5738 71.402C63.6013 70.5449 63.6387 68.7561 61.9182 68.5325C62.5915 66.8928 60.5343 66.9674 60.3473 66.0357C60.0855 64.6569 59.0008 64.5451 58.0658 64.3215C57.1307 64.0979 56.1582 63.5016 55.0736 64.2097C54.5499 64.5451 53.6149 64.9923 53.5027 63.5762C53.4278 62.9799 52.792 63.129 52.418 63.3153C51.0715 64.0234 49.3884 63.7252 48.1915 64.8059C47.8175 65.1413 47.2564 65.0295 46.5084 64.8805C48.9021 62.6445 51.8569 61.6383 54.9988 61.2657ZM44.1894 64.8432C40.8232 68.0481 36.4097 69.0543 32.2206 70.5822C35.8861 68.0854 40.0751 66.5202 44.1894 64.8432ZM28.8918 72.2591C28.3682 73.1163 28.3682 73.1163 25.937 74.1224C27.2461 72.6318 27.2461 72.6318 28.8918 72.2591ZM25.4882 111.277C26.6102 109.972 26.2362 108.817 25.75 107.55C25.6004 107.215 25.8622 107.103 26.124 107.066C27.3957 106.917 28.4056 106.283 29.378 105.463C29.7521 105.128 30.6497 104.867 30.9489 105.053C33.0061 106.544 34.39 105.091 35.8487 104.047C38.1676 102.407 40.9354 101.997 43.4788 100.991C45.0871 100.358 46.6954 99.5379 47.406 97.8236C48.0045 96.4075 49.6502 95.9231 50.1364 94.4324C50.2112 94.1716 50.6601 94.507 50.9593 94.6188C51.4829 94.7678 51.4455 95.1405 51.2585 95.4759C50.8471 96.1839 50.5479 96.9665 49.9868 97.5255C46.9946 100.656 43.8154 103.637 39.7011 105.351C37.4196 106.32 35.0258 106.954 32.4824 106.581C31.2481 106.395 31.323 107.326 31.2856 107.997C31.1733 109.674 30.4253 110.494 28.7048 110.42C28.256 110.382 27.5079 110.196 27.5453 110.904C27.5827 111.538 28.443 111.687 28.9292 111.538C30.6871 111.053 32.4824 111.165 34.2404 111.165C37.2326 111.165 40.0377 111.91 41.9079 114.556C42.1697 114.929 42.4315 115.227 42.8429 115.376C45.6855 116.308 48.0045 117.985 49.725 120.407C50.2112 121.078 50.0616 121.488 49.538 122.084C48.4159 119.848 45.5733 119.811 44.3016 117.91C42.2071 114.78 38.6539 114.444 35.5868 113.624C33.4175 113.028 30.9115 112.618 28.5178 113.214C27.9193 113.364 27.2835 113.289 26.6476 113.177C25.563 113.028 25.0767 111.724 25.4882 111.277ZM30.7245 158.716C29.1162 158.754 27.3583 159.052 26.2362 157.375C25.7126 156.629 25.3386 157.822 24.5531 157.449C25.4134 156.629 26.1614 156.07 27.5079 157.077C27.1713 155.81 26.498 155.325 25.75 154.878C25.376 154.654 24.7401 154.543 25.0393 154.021C25.4134 153.387 25.8996 153.984 26.2736 154.244C26.6476 154.468 26.9095 154.841 27.2461 155.139C27.7323 155.623 28.3308 155.921 28.8918 155.4C29.5276 154.766 28.7422 154.468 28.443 154.095C28.2934 153.909 28.1437 153.685 28.0689 153.387C29.0788 154.468 30.7619 153.946 31.7718 155.288C32.2954 155.959 33.9411 155.213 34.0159 154.878C34.2778 153.834 34.4648 154.393 35.0258 154.543C35.9609 154.803 36.7837 155.772 37.9806 155.064C38.6165 154.692 39.1027 154.095 38.7287 153.611C37.644 152.083 37.3448 150.22 36.4845 148.729C35.5494 147.052 35.3998 144.779 33.4549 143.698C33.3053 143.624 33.3427 143.251 33.3053 143.065C34.764 142.096 35.7365 143.549 36.8211 143.884C38.3172 144.294 39.7759 144.22 41.1598 144.145C42.2445 144.071 42.3941 144.443 42.8429 145.114C44.8627 148.282 44.8627 151.934 45.3115 155.511C45.7229 158.791 45.7229 158.828 42.2819 158.53C38.4294 158.157 34.577 158.642 30.7245 158.716ZM57.1681 233.77C56.046 234.739 55.5224 236.118 55.1484 237.422C54.2881 240.292 52.6798 242.751 50.9593 245.062C50.4356 245.77 50.286 246.552 49.8746 247.26C48.6777 249.235 46.7702 250.242 45.1619 251.62C44.2642 252.403 43.4788 253.26 42.3193 253.856C43.2544 252.589 44.0772 251.285 45.0871 250.093C50.0242 244.242 54.1759 237.869 57.5421 230.975C58.178 229.671 58.739 228.292 59.9359 227.36C59.9359 229.894 59.0756 232.056 57.1681 233.77ZM87.6137 198.964C86.0054 200.678 84.4719 202.504 82.6766 204.032C80.3577 205.97 77.7769 207.572 75.2709 209.212C73.1764 210.591 71.3062 212.193 69.3239 213.646C68.0148 214.615 67.6034 216.739 66.4065 217.448C64.125 218.826 64.9104 221.77 62.6663 223.224C61.4694 224.006 61.5816 226.28 60.0107 227.211C61.3198 224.416 62.5915 221.621 63.938 218.826C64.6112 217.448 65.3218 216.106 66.0325 214.727C68.2018 210.479 71.6055 207.572 75.7945 205.411C77.8891 204.33 79.9088 203.063 81.6293 201.498C83.4995 199.821 85.968 199.224 87.7634 197.473C88.2496 198.181 87.9504 198.628 87.6137 198.964ZM118.658 197.1C119.481 195.572 118.134 194.305 118.246 192.852C118.284 192.479 117.835 192.032 118.097 191.622C119.219 189.833 118.583 188.268 117.91 186.479C117.498 185.361 116.825 184.206 117.349 182.567C117.798 181.262 116.114 179.585 115.03 178.318C114.693 177.946 114.394 178.095 114.244 178.579C114.095 179.101 113.758 178.952 113.646 178.654C113.085 177.163 110.766 177.908 110.654 176.008C109.831 176.529 110.579 177.088 110.28 177.498C110.167 177.536 110.055 177.61 109.943 177.61C108.971 177.312 108.11 176.492 106.951 177.088C106.577 177.275 106.278 176.865 106.016 176.604C105.156 175.672 104.333 174.964 103.098 176.12C102.687 176.529 102.201 176.12 101.939 175.859C100.667 174.592 99.2459 175.151 97.7872 175.3C96.8522 175.374 96.0293 175.225 95.0942 174.517C94.2714 173.884 92.6257 174.219 91.354 174.07C90.2319 173.921 89.2221 173.585 88.1374 173.325C84.2101 172.393 80.3577 170.94 76.206 171.275C75.9816 170.455 77.141 170.641 76.9914 169.933C76.3556 169.747 75.7945 170.157 75.4579 170.455C74.4481 171.424 73.7374 171.387 72.8397 170.306C72.2039 169.561 71.0444 170.008 70.1094 169.635C69.2865 169.3 70.2216 170.492 69.7728 170.79C68.0148 169.933 66.3691 168.853 64.4616 168.405C63.8631 168.256 63.6761 168.145 63.5639 168.927C63.3769 170.343 62.4419 170.082 61.806 169.337C61.0954 168.555 60.1603 168.256 59.3374 167.735C59.0756 167.586 58.7764 167.25 58.5146 167.437C55.9338 169.374 53.8767 166.43 51.4829 166.617C51.0341 166.654 50.5105 165.797 49.9494 165.275C49.3884 165.946 50.3982 166.244 50.2486 166.579C48.0045 166.989 45.9847 165.722 43.7406 166.132C42.9551 166.281 42.0949 165.946 41.272 165.722C40.711 165.573 40.2996 165.387 40.2996 166.207C40.2996 166.505 40.2248 166.691 39.9255 166.43C38.8035 165.573 37.6066 165.312 36.1105 165.387C35.138 165.461 33.9785 164.604 33.2305 163.673C34.6144 162.778 34.6144 161.772 33.1557 159.648C36.0357 159.462 38.8035 159.201 41.5712 159.499C43.3666 159.685 45.2367 160.244 46.9198 160.356C49.0892 160.542 51.2211 160.654 53.353 161.101C57.5047 161.996 61.6938 162.592 65.8455 163.635C68.9873 164.455 72.2039 165.201 75.4205 165.797C78.2631 166.319 81.0309 167.362 83.6491 168.592C84.8086 169.151 85.9306 168.89 87.0153 169.225C91.0922 170.455 95.2813 170.79 99.5825 170.79C103.248 170.828 106.839 171.61 110.093 173.623C110.766 174.07 111.963 173.958 112.898 174.331C113.646 174.629 114.469 174.778 115.404 174.778C117.162 174.778 118.77 176.343 120.004 177.871C121.687 179.958 120.939 182.492 121.164 184.803C121.276 186.181 121.538 187.56 121.762 188.939C122.323 192.405 121.201 195.461 118.658 197.1ZM126.4 184.542C125.69 185.138 125.39 185.958 124.829 186.591C124.642 186.815 124.38 187.15 124.081 186.964C123.782 186.778 123.52 186.33 123.67 185.995C124.38 184.579 124.119 182.939 124.904 181.486C125.69 180.032 124.717 177.275 123.782 176.008C123.146 175.113 122.099 174.256 122.248 172.877C122.361 171.871 120.341 172.132 120.977 170.79C119.443 170.082 119.78 168.368 119.593 167.287C119.368 165.909 118.994 166.207 118.172 166.43C117.461 166.617 116.601 167.287 116.376 165.871C116.301 165.387 115.815 165.536 115.441 165.536C113.833 165.573 112.299 164.045 110.616 165.201C110.579 165.201 110.504 165.163 110.467 165.089C108.26 162.704 105.006 162.853 102.238 162.368C99.5826 161.921 97.6376 159.909 94.9446 159.983C93.2241 160.021 91.6532 159.573 90.4937 158.195C90.1197 157.785 89.6335 157.822 89.1098 157.785C88.2496 157.71 87.3519 157.859 86.7161 157.002C86.6039 156.89 86.3795 156.741 86.2299 156.778C83.0132 157.077 81.1431 156.778 77.6647 155.4C76.954 155.102 75.9816 155.064 75.4579 155.102C73.1016 155.4 70.9322 154.729 68.7629 154.207C66.8928 153.76 65.2096 154.841 63.4143 154.393C63.0777 154.319 62.5541 154.617 62.2174 154.133C62.0678 153.946 61.7312 153.648 61.7312 153.648C60.4969 154.878 59.0382 153.052 57.7665 153.984C57.4673 154.207 57.2055 153.984 56.9437 153.834C55.672 153.164 54.3255 152.754 52.6798 153.015C50.9219 153.052 48.9021 152.493 47.1442 153.834C46.845 154.058 46.3962 153.984 46.2092 153.536C45.9473 152.903 45.7229 152.232 45.9847 151.561C46.097 151.226 46.3588 151.077 46.6954 151.151C51.5203 151.859 56.3078 151.598 61.0954 151.077C68.2392 150.331 75.1961 151.487 82.153 152.903C89.8953 154.468 97.114 157.487 104.258 160.617C107.811 162.182 111.626 162.816 115.366 163.635C117.237 164.045 119.181 164.232 121.014 164.828C123.932 165.76 125.764 168.033 126.737 170.753C127.373 172.579 127.971 174.48 128.57 176.38C129.729 179.846 129.131 182.231 126.4 184.542Z" fill="#252525"/>
</svg>
