<svg width="1039" height="22" viewBox="0 0 1039 22" fill="none" xmlns="http://www.w3.org/2000/svg">
<g opacity="0.3">
<path d="M529.711 13.0909C528.877 14.603 527.469 14.1858 527.26 13.143C526.635 10.0668 524.549 11.3181 523.141 11.6831C519.439 12.6216 515.894 12.4652 512.296 11.2139C510.054 10.4318 508.021 11.7353 505.883 11.996C501.347 12.6216 496.863 12.5695 492.431 11.3181C492.014 11.2139 491.753 10.7967 490.866 10.1189C495.09 9.38895 498.948 9.85821 502.702 7.45977C498.583 6.72981 495.09 8.71113 491.075 7.51191C494.933 6.10413 498.635 5.58273 502.181 6.05199C506.091 6.57339 509.845 6.62553 513.756 5.84343C517.301 5.16561 520.951 5.68701 524.288 6.62553C526.739 7.35549 526.635 6.36483 526.739 4.69635C526.843 3.13215 527.104 1.56795 527.312 0.00374399C527.886 0.160164 528.251 0.212304 528.303 0.316584C529.189 5.79129 532.526 6.41697 537.01 4.74849C538.053 4.38351 539.252 4.43565 539.722 5.16561C541.547 8.13759 543.997 7.19907 546.448 6.62553C546.552 6.62553 546.708 6.52125 546.813 6.52125C556.615 7.09479 566.47 5.37417 576.845 7.61619C576.845 5.94771 576.845 4.17495 576.845 2.45433C576.845 1.77651 576.533 0.785845 577.523 0.681565C578.41 0.577285 578.618 1.46367 578.931 2.08935C578.983 2.19363 578.983 2.35005 579.035 2.45433C581.225 7.25121 581.329 7.45977 586.387 5.53059C588.838 4.59207 589.828 4.95705 590.037 7.45977C590.141 8.86755 590.558 9.23253 592.122 8.81541C597.597 7.30335 603.124 7.45977 608.807 7.66833C613.865 7.87689 618.975 6.46911 624.084 7.77261C625.805 8.18973 625.961 6.78195 626.118 5.47845C626.378 3.86211 625.492 1.98507 627.161 0.681565C629.246 1.77651 628.36 5.37417 630.967 5.58273C633.052 5.73915 635.242 5.00919 637.328 4.48779C638.631 4.12281 639.726 4.38351 640.091 5.53059C640.873 7.82475 642.073 7.72047 644.158 7.25121C647.86 6.46911 651.614 6.05199 655.42 7.04265C658.445 7.82475 661.469 6.36483 664.545 6.36483C665.275 6.36483 666.057 6.52125 666.735 6.36483C668.925 5.89557 671.375 8.39829 672.992 6.62553C674.139 5.32203 673.93 2.76717 674.347 0.629425C674.817 0.890125 675.234 0.994405 675.39 1.25511C676.381 2.92359 676.068 5.79129 677.893 6.36483C679.613 6.88623 681.96 5.99985 683.889 5.42631C685.088 5.06133 686.444 4.74849 686.861 5.73915C688.112 8.81541 690.041 7.45977 692.179 7.19907C694.943 6.88623 697.706 6.46911 700.574 6.83409C703.754 7.25121 706.987 7.25121 710.324 6.57339C714.287 5.73915 718.51 6.15627 722.89 7.66833C722.89 5.11347 722.89 2.97573 722.89 0.837985C724.506 0.785845 724.35 1.98507 724.662 2.66289C726.8 6.88623 727.895 7.45977 732.588 6.05199C734.308 5.53059 735.664 5.16561 736.394 7.30335C737.124 9.33681 738.792 8.71113 740.096 8.29401C745.153 6.67767 750.159 6.83409 755.321 7.66833C758.71 8.24187 762.047 6.62553 765.54 7.14693C767.574 7.45977 769.555 7.56405 771.224 8.97183C767.939 8.24187 764.654 8.60685 761.317 9.02397C764.393 9.80608 767.417 10.536 770.598 11.3703C768.825 12.9866 767.157 13.7166 763.924 13.143C757.667 12.0481 751.515 11.8395 745.258 12.9866C743.172 13.3516 741.034 13.143 739.157 12.1524C736.655 10.8489 736.133 12.1002 736.081 14.238C736.029 16.48 735.925 18.6699 735.038 20.8076C733.474 20.0255 733.474 18.4092 733.161 17.1057C732.223 13.2473 730.137 11.8917 726.487 13.5602C725.027 14.238 724.297 14.4987 723.672 13.0388C723.203 12.0481 722.681 12.3609 721.899 12.5695C716.685 13.9773 711.523 13.6123 706.413 12.0481C705.683 11.8395 705.11 11.5788 704.328 11.8917C699.583 13.7166 694.734 13.4037 689.885 12.2567C687.904 11.7874 687.382 12.2567 687.382 14.2901C687.382 16.48 686.861 18.6699 686.548 20.964C684.41 19.9734 684.723 17.9399 684.254 16.3236C683.263 12.8823 681.178 11.6831 678.101 13.4037C676.537 14.2901 675.599 14.7594 674.504 13.0909C673.722 11.8917 672.418 12.1524 671.48 12.4131C667.413 13.6123 663.45 12.7781 659.54 11.8917C657.715 11.4746 656.15 12.2045 654.586 12.5174C650.624 13.2995 646.765 13.4559 643.011 12.0481C640.821 11.2139 640.665 12.6216 640.404 13.873C639.935 16.2193 639.674 18.6177 639.257 21.1726C636.859 20.1819 637.119 17.9399 636.963 16.4279C636.65 12.9866 634.617 13.143 632.27 13.5602C630.08 13.9251 627.995 15.2286 625.857 13.2473C625.336 12.7781 623.928 12.9866 622.989 13.1952C618.87 14.1858 614.751 14.0816 610.632 13.1952C608.494 12.7259 606.252 13.143 604.062 13.5602C599.787 14.2901 595.616 13.6644 591.653 11.8395C596.033 11.1096 600.361 13.4037 605.262 12.0481C600.83 10.6403 596.659 10.4318 592.435 10.2753C590.663 10.2232 591.862 11.3703 591.757 11.996C589.724 13.1952 591.184 15.1244 590.819 16.6364C590.454 18.0442 590.245 19.5041 589.985 21.0162C587.743 20.0777 587.899 17.8878 587.326 16.3236C586.074 13.0909 584.197 11.996 581.277 13.7687C579.557 14.8115 578.41 15.3851 577.21 13.143C576.376 11.5267 574.551 11.4746 572.935 11.996C570.171 12.8302 567.46 13.143 564.645 12.5174C560.265 11.5788 555.937 11.1617 551.453 12.4652C548.273 13.4037 544.936 13.6123 541.964 11.5267C540.66 14.7594 541.39 18.0963 539.67 21.1726C538.314 19.7127 538.053 18.1485 537.584 16.6364C536.228 12.3609 534.038 11.4746 529.554 13.4037C529.346 10.4318 530.493 7.30335 528.147 4.22709C527.834 6.15627 527.469 7.66833 527.417 9.18039C527.365 10.6925 527 12.7781 529.711 13.0909ZM717.415 11.996C710.011 9.07611 702.242 7.87689 694.317 8.18973C702.138 8.86755 709.438 12.4652 717.415 11.996ZM598.431 8.91969C605.366 9.38895 611.727 13.6644 619.496 11.9438C612.249 10.1711 605.575 8.13759 598.431 8.91969ZM646.348 8.29401C649.998 8.08545 653.439 9.18039 656.985 9.85821C660.426 10.4839 663.763 11.9438 667.934 11.3181C660.687 8.03331 653.596 7.92903 646.348 8.29401ZM765.957 11.9438C759.909 10.2753 754.017 7.87689 747.552 8.86755C753.6 10.1189 759.596 12.0481 765.957 11.9438ZM553.278 10.1711C549.42 9.54537 545.614 8.03331 540.869 9.07611C545.196 12.3088 549.263 11.3703 553.278 10.1711ZM516.102 7.30335C510.471 7.61619 504.944 8.45043 499.313 10.5882C505.57 11.6831 510.732 9.07611 516.102 7.30335ZM538.262 5.99985C537.532 9.91035 537.427 13.7166 539.565 17.1578C539.93 13.2995 541.338 9.33681 538.262 5.99985ZM711.21 8.50257C714.234 9.28467 717.259 10.0668 720.335 10.7446C721.065 10.901 722.316 11.266 722.629 10.2753C723.046 8.97183 721.69 8.81541 720.804 8.45043C717.676 7.25121 714.495 8.08545 711.21 8.50257ZM638.266 16.8971C640.3 13.9251 639.205 10.6925 639.935 7.82475C640.143 7.09479 639.205 5.84343 638.11 5.89557C636.806 5.89557 637.276 7.14693 637.224 7.87689C637.015 10.7446 637.745 13.6123 638.266 16.8971ZM526.113 9.18039C519.804 8.18973 517.666 8.34615 514.069 10.0146C518.501 11.5788 522.307 10.6403 526.113 9.18039ZM569.598 10.7967C564.228 9.80608 558.805 8.76327 553.435 7.77261C558.492 10.1189 563.863 11.0574 569.598 10.7967ZM613.917 8.71113C617.723 9.80608 621.373 11.8917 626.431 10.0146C621.686 8.50257 617.828 8.29401 613.917 8.71113ZM688.582 9.96249C692.388 12.3088 696.559 11.4746 700.678 11.3703C696.768 10.1189 692.753 9.64965 688.582 9.96249ZM563.602 8.39829C567.929 9.12825 572.257 9.91035 576.637 10.6403C572.883 6.88623 568.19 8.13759 563.602 8.39829ZM685.505 16.3236C687.226 13.4559 686.6 10.6403 686.6 7.87689C686.6 7.09479 686.079 6.46911 685.192 6.62553C684.306 6.72981 684.515 7.51191 684.462 8.03331C684.254 10.6925 684.827 13.3516 685.505 16.3236ZM627.056 3.96639C627.056 7.14693 627.004 9.38895 627.108 11.6831C627.161 12.4131 627.734 13.0388 628.568 13.0909C629.09 13.0909 629.507 12.5695 629.403 12.1002C628.829 9.64966 630.133 6.83409 627.056 3.96639ZM734.256 16.48C734.673 16.48 735.038 16.4279 735.455 16.4279C735.455 14.0294 735.508 11.631 735.455 9.23253C735.455 8.45043 735.768 7.25121 734.517 7.25121C733.631 7.25121 733.109 8.18973 733.213 9.12825C733.526 11.631 733.891 14.0294 734.256 16.48ZM578.41 4.85277C577.054 7.66833 577.784 9.96249 578.253 12.2567C578.41 12.8823 578.775 13.6123 579.348 13.508C580.026 13.4037 580.652 12.6216 580.391 11.8395C579.765 9.7018 579.922 7.30335 578.41 4.85277ZM737.28 10.1189C741.869 11.996 745.101 12.1524 750.42 11.1096C746.248 9.54538 742.234 10.2753 737.28 10.1189ZM589.255 16.5843C588.942 13.2995 590.298 9.85822 588.003 6.78195C587.273 10.1711 587.951 13.4037 589.255 16.5843ZM664.076 8.08545C666.839 9.44109 669.342 10.0668 672.001 10.4318C672.575 10.4839 673.305 10.9532 673.513 10.1711C673.722 9.49323 673.461 8.71113 672.418 8.65899C669.811 8.39829 667.256 7.35549 664.076 8.08545ZM641.708 9.75393C645.201 11.631 648.851 12.1524 652.605 10.3275C648.955 10.1189 645.357 9.91035 641.708 9.75393ZM674.921 4.43565C675.129 7.92903 674.139 10.7446 676.589 13.508C677.736 10.0146 676.641 7.61619 674.921 4.43565ZM634.617 12.2045C635.607 11.2139 635.607 10.0668 635.711 9.07611C635.868 8.08545 636.285 6.62553 634.721 6.46911C632.896 6.26055 633.574 7.92903 633.574 8.81541C633.626 9.85821 633.104 11.1617 634.617 12.2045ZM535.081 5.89557C534.768 7.61619 533.048 9.07611 534.664 11.0053C534.873 11.266 535.498 11.2139 535.915 11.3181C536.333 9.54537 536.593 7.82475 535.759 6.10413C535.759 5.99985 535.55 6.05199 535.081 5.89557Z" fill="white"/>
<path d="M39.622 13.0911C38.771 14.6031 37.3351 14.186 37.1223 13.1432C36.4841 10.067 34.3568 11.3183 32.9208 11.6833C29.1448 12.6218 25.5282 12.4654 21.8586 11.214C19.5717 10.4319 17.4975 11.7354 15.3169 11.9961C10.69 12.6218 6.11614 12.5697 1.59552 11.3183C1.17004 11.214 0.904126 10.7969 0 10.1191C4.30789 9.38914 8.2435 9.8584 12.0727 7.45995C7.87121 6.72999 4.30789 8.71132 0.212735 7.51209C4.14834 6.10431 7.92439 5.58291 11.5409 6.05217C15.5297 6.57357 19.3589 6.62571 23.3477 5.84361C26.9642 5.16579 30.6871 5.68719 34.0909 6.62571C36.5905 7.35567 36.4841 6.36501 36.5905 4.69653C36.6969 3.13233 36.9628 1.56813 37.1755 0.00392605C37.7605 0.160346 38.1328 0.212486 38.186 0.316766C39.0901 5.79147 42.4939 6.41715 47.0677 4.74867C48.1314 4.38369 49.3546 4.43583 49.8333 5.16579C51.6947 8.13778 54.1943 7.19925 56.694 6.62571C56.8004 6.62571 56.9599 6.52143 57.0663 6.52143C67.0648 7.09497 77.1166 5.37435 87.7002 7.61637C87.7002 5.94789 87.7002 4.17513 87.7002 2.45451C87.7002 1.77669 87.3811 0.786027 88.3916 0.681747C89.2957 0.577467 89.5084 1.46385 89.8275 2.08953C89.8807 2.19381 89.8807 2.35023 89.9339 2.45451C92.1676 7.25139 92.274 7.45995 97.4328 5.53077C99.9325 4.59225 100.943 4.95723 101.156 7.45995C101.262 8.86774 101.688 9.23272 103.283 8.8156C108.867 7.30353 114.505 7.45995 120.302 7.66851C125.461 7.87708 130.673 6.46929 135.885 7.77279C137.64 8.18991 137.799 6.78213 137.959 5.47863C138.225 3.86229 137.321 1.98525 139.023 0.681747C141.15 1.77669 140.246 5.37435 142.905 5.58291C145.032 5.73933 147.266 5.00937 149.393 4.48797C150.723 4.12299 151.84 4.38369 152.212 5.53077C153.01 7.82493 154.233 7.72065 156.361 7.25139C160.137 6.46929 163.966 6.05217 167.848 7.04283C170.933 7.82493 174.018 6.36501 177.155 6.36501C177.9 6.36501 178.698 6.52143 179.389 6.36501C181.623 5.89575 184.122 8.39848 185.771 6.62571C186.941 5.32221 186.729 2.76735 187.154 0.629607C187.633 0.890307 188.058 0.994587 188.218 1.25529C189.228 2.92377 188.909 5.79147 190.77 6.36501C192.526 6.88641 194.919 6.00003 196.887 5.42649C198.11 5.06151 199.493 4.74867 199.918 5.73933C201.195 8.8156 203.162 7.45995 205.343 7.19925C208.162 6.88641 210.98 6.46929 213.905 6.83427C217.15 7.25139 220.447 7.25139 223.851 6.57357C227.893 5.73933 232.201 6.15645 236.668 7.66851C236.668 5.11365 236.668 2.97591 236.668 0.838167C238.317 0.786027 238.157 1.98525 238.476 2.66307C240.657 6.88641 241.774 7.45995 246.56 6.05217C248.315 5.53077 249.698 5.16579 250.443 7.30353C251.187 9.337 252.889 8.71132 254.219 8.2942C259.378 6.67785 264.483 6.83427 269.749 7.66851C273.205 8.24205 276.609 6.62571 280.173 7.14711C282.247 7.45995 284.268 7.56423 285.97 8.97202C282.619 8.24206 279.268 8.60704 275.865 9.02416C279.003 9.80626 282.087 10.5362 285.331 11.3705C283.523 12.9868 281.821 13.7168 278.524 13.1432C272.142 12.0483 265.866 11.8397 259.484 12.9868C257.357 13.3518 255.176 13.1432 253.262 12.1526C250.709 10.8491 250.177 12.1004 250.124 14.2382C250.07 16.4802 249.964 18.6701 249.06 20.8078C247.464 20.0257 247.464 18.4094 247.145 17.1059C246.188 13.2475 244.061 11.8919 240.338 13.5603C238.849 14.2382 238.104 14.4989 237.466 13.0389C236.987 12.0483 236.455 12.3611 235.658 12.5697C230.339 13.9775 225.074 13.6125 219.862 12.0483C219.117 11.8397 218.532 11.579 217.735 11.8919C212.895 13.7168 207.949 13.4039 203.003 12.2568C200.982 11.7876 200.45 12.2568 200.45 14.2903C200.45 16.4802 199.918 18.6701 199.599 20.9642C197.418 19.9736 197.738 17.9401 197.259 16.3238C196.248 12.8825 194.121 11.6833 190.983 13.4039C189.388 14.2903 188.43 14.7596 187.314 13.0911C186.516 11.8919 185.186 12.1526 184.229 12.4133C180.081 13.6125 176.039 12.7782 172.05 11.8919C170.188 11.4747 168.593 12.2047 166.997 12.5175C162.955 13.2996 159.02 13.4561 155.19 12.0483C152.957 11.214 152.797 12.6218 152.531 13.8732C152.053 16.2195 151.787 18.6179 151.361 21.1728C148.915 20.1821 149.181 17.9401 149.021 16.428C148.702 12.9868 146.628 13.1432 144.235 13.5603C142.001 13.9253 139.874 15.2288 137.693 13.2475C137.161 12.7782 135.725 12.9868 134.768 13.1954C130.566 14.186 126.365 14.0817 122.163 13.1954C119.983 12.7261 117.696 13.1432 115.462 13.5603C111.101 14.2903 106.846 13.6646 102.804 11.8397C107.272 11.1098 111.686 13.4039 116.685 12.0483C112.165 10.6405 107.91 10.4319 103.602 10.2755C101.794 10.2234 103.017 11.3705 102.911 11.9961C100.837 13.1954 102.326 15.1245 101.953 16.6366C101.581 18.0444 101.368 19.5043 101.103 21.0164C98.8156 20.0778 98.9752 17.888 98.3901 16.3238C97.1137 13.0911 95.1991 11.9961 92.2208 13.7689C90.4657 14.8117 89.2957 15.3852 88.0725 13.1432C87.2215 11.5269 85.3601 11.4747 83.7114 11.9961C80.8926 12.8304 78.1271 13.1432 75.2551 12.5175C70.7877 11.579 66.3735 11.1619 61.7996 12.4654C58.5554 13.4039 55.1517 13.6125 52.1202 11.5269C50.7906 14.7596 51.5352 18.0965 49.7801 21.1728C48.3973 19.7129 48.1314 18.1487 47.6527 16.6366C46.27 12.3611 44.0362 11.4747 39.4624 13.4039C39.2497 10.4319 40.4197 7.30353 38.0265 4.22727C37.7074 6.15645 37.3351 7.66851 37.2819 9.18058C37.2287 10.6926 36.8564 12.7782 39.622 13.0911ZM231.084 11.9961C223.532 9.0763 215.607 7.87708 207.523 8.18992C215.501 8.86774 222.947 12.4654 231.084 11.9961ZM109.718 8.91988C116.792 9.38914 123.28 13.6646 131.205 11.944C123.812 10.1712 117.004 8.13778 109.718 8.91988ZM158.594 8.2942C162.317 8.08564 165.827 9.18058 169.444 9.8584C172.954 10.4841 176.358 11.944 180.612 11.3183C173.22 8.03349 165.987 7.92921 158.594 8.2942ZM280.598 11.944C274.429 10.2755 268.419 7.87707 261.824 8.86774C267.993 10.1191 274.11 12.0483 280.598 11.944ZM63.6611 10.1712C59.7255 9.54556 55.843 8.03349 51.0033 9.0763C55.4176 12.309 59.5659 11.3705 63.6611 10.1712ZM25.741 7.30353C19.9971 7.61637 14.3596 8.45062 8.61578 10.5884C14.9978 11.6833 20.263 9.0763 25.741 7.30353ZM48.3441 6.00003C47.5995 9.91054 47.4932 13.7168 49.6737 17.158C50.046 13.2996 51.482 9.337 48.3441 6.00003ZM224.755 8.50276C227.84 9.28486 230.924 10.067 234.062 10.7448C234.807 10.9012 236.083 11.2662 236.402 10.2755C236.828 8.97202 235.445 8.8156 234.541 8.45062C231.35 7.25139 228.106 8.08564 224.755 8.50276ZM150.351 16.8973C152.425 13.9253 151.308 10.6926 152.053 7.82493C152.265 7.09497 151.308 5.84361 150.191 5.89575C148.862 5.89575 149.34 7.14711 149.287 7.87707C149.074 10.7448 149.819 13.6125 150.351 16.8973ZM35.9523 9.18058C29.517 8.18992 27.3365 8.34634 23.6668 10.0148C28.1874 11.579 32.0699 10.6405 35.9523 9.18058ZM80.3076 10.7969C74.8297 9.80626 69.2986 8.76346 63.8206 7.77279C68.9795 10.1191 74.4574 11.0576 80.3076 10.7969ZM125.514 8.71132C129.396 9.80626 133.119 11.8919 138.278 10.0148C133.438 8.50276 129.503 8.2942 125.514 8.71132ZM201.673 9.96268C205.556 12.309 209.81 11.4747 214.012 11.3705C210.023 10.1191 205.928 9.64984 201.673 9.96268ZM74.1915 8.39848C78.6057 9.12844 83.02 9.91054 87.4874 10.6405C83.6582 6.88641 78.8717 8.13778 74.1915 8.39848ZM198.535 16.3238C200.29 13.4561 199.652 10.6405 199.652 7.87707C199.652 7.09497 199.12 6.46929 198.216 6.62571C197.312 6.72999 197.525 7.51209 197.472 8.03349C197.259 10.6926 197.844 13.3518 198.535 16.3238ZM138.916 3.96657C138.916 7.14711 138.863 9.38914 138.969 11.6833C139.023 12.4133 139.608 13.0389 140.459 13.0911C140.99 13.0911 141.416 12.5697 141.31 12.1004C140.724 9.64984 142.054 6.83427 138.916 3.96657ZM248.262 16.4802C248.688 16.4802 249.06 16.428 249.485 16.428C249.485 14.0296 249.539 11.6312 249.485 9.23272C249.485 8.45062 249.805 7.25139 248.528 7.25139C247.624 7.25139 247.092 8.18991 247.199 9.12844C247.518 11.6312 247.89 14.0296 248.262 16.4802ZM89.2957 4.85295C87.9129 7.66851 88.6575 9.96268 89.1361 12.2568C89.2957 12.8825 89.668 13.6125 90.253 13.5082C90.9444 13.4039 91.5826 12.6218 91.3167 11.8397C90.6785 9.70198 90.838 7.30353 89.2957 4.85295ZM251.347 10.1191C256.027 11.9961 259.324 12.1526 264.749 11.1098C260.495 9.54556 256.399 10.2755 251.347 10.1191ZM100.358 16.5845C100.039 13.2996 101.422 9.8584 99.0815 6.78213C98.3369 10.1712 99.0283 13.4039 100.358 16.5845ZM176.677 8.08564C179.496 9.44128 182.048 10.067 184.761 10.4319C185.346 10.4841 186.09 10.9533 186.303 10.1712C186.516 9.49342 186.25 8.71132 185.186 8.65918C182.527 8.39848 179.921 7.35567 176.677 8.08564ZM153.861 9.75412C157.424 11.6312 161.147 12.1526 164.976 10.3277C161.253 10.1191 157.584 9.91054 153.861 9.75412ZM187.739 4.43583C187.952 7.92921 186.941 10.7448 189.441 13.5082C190.611 10.0148 189.494 7.61637 187.739 4.43583ZM146.628 12.2047C147.638 11.214 147.638 10.067 147.745 9.0763C147.904 8.08564 148.33 6.62571 146.734 6.46929C144.873 6.26073 145.564 7.92921 145.564 8.8156C145.617 9.8584 145.086 11.1619 146.628 12.2047ZM45.0999 5.89575C44.7808 7.61637 43.0257 9.0763 44.6744 11.0055C44.8872 11.2662 45.5254 11.214 45.9509 11.3183C46.3763 9.54556 46.6422 7.82493 45.7913 6.10431C45.7913 6.00003 45.5786 6.05217 45.0999 5.89575Z" fill="white"/>
<path d="M497.686 13.0873C498.537 14.5994 499.973 14.1822 500.186 13.1394C500.824 10.0632 502.952 11.3145 504.388 11.6795C508.164 12.618 511.78 12.4616 515.45 11.2103C517.737 10.4282 519.811 11.7317 521.991 11.9924C526.618 12.618 531.192 12.5659 535.713 11.3145C536.138 11.2103 536.404 10.7931 537.308 10.1153C533 9.38536 529.065 9.85462 525.236 7.45618C529.437 6.72622 533 8.70754 537.096 7.50832C533.16 6.10054 529.384 5.57914 525.767 6.0484C521.779 6.5698 517.949 6.62194 513.961 5.83984C510.344 5.16202 506.621 5.68342 503.218 6.62194C500.718 7.3519 500.824 6.36124 500.718 4.69276C500.612 3.12855 500.346 1.56435 500.133 0.000150145C499.548 0.15657 499.176 0.20871 499.122 0.31299C498.218 5.7877 494.814 6.41338 490.241 4.7449C489.177 4.37992 487.954 4.43205 487.475 5.16202C485.614 8.134 483.114 7.19548 480.614 6.62194C480.508 6.62194 480.348 6.51766 480.242 6.51766C470.244 7.0912 460.192 5.37058 449.608 7.6126C449.608 5.94412 449.608 4.17135 449.608 2.45073C449.608 1.77291 449.927 0.782251 448.917 0.677971C448.013 0.573691 447.8 1.46007 447.481 2.08575C447.428 2.19003 447.428 2.34645 447.374 2.45073C445.141 7.24762 445.034 7.45618 439.876 5.527C437.376 4.58848 436.365 4.95346 436.153 7.45618C436.046 8.86396 435.621 9.22894 434.025 8.81182C428.441 7.29976 422.804 7.45618 417.007 7.66474C411.848 7.8733 406.636 6.46552 401.424 7.76902C399.669 8.18614 399.509 6.77836 399.349 5.47486C399.084 3.85851 399.988 1.98147 398.286 0.677971C396.158 1.77291 397.063 5.37058 394.403 5.57914C392.276 5.73556 390.042 5.0056 387.915 4.4842C386.585 4.11922 385.468 4.37992 385.096 5.527C384.298 7.82116 383.075 7.71688 380.948 7.24762C377.172 6.46552 373.343 6.0484 369.46 7.03906C366.375 7.82116 363.291 6.36124 360.153 6.36124C359.408 6.36124 358.611 6.51766 357.919 6.36124C355.686 5.89198 353.186 8.3947 351.537 6.62194C350.367 5.31844 350.58 2.76357 350.154 0.625831C349.676 0.886531 349.25 0.990811 349.091 1.25151C348.08 2.91999 348.399 5.7877 346.538 6.36124C344.783 6.88264 342.39 5.99626 340.422 5.42272C339.199 5.05774 337.816 4.7449 337.39 5.73556C336.114 8.81182 334.146 7.45618 331.966 7.19548C329.147 6.88264 326.328 6.46552 323.403 6.8305C320.159 7.24762 316.861 7.24762 313.458 6.5698C309.416 5.73556 305.108 6.15268 300.64 7.66474C300.64 5.10988 300.64 2.97213 300.64 0.834391C298.992 0.782251 299.151 1.98147 298.832 2.65929C296.651 6.88264 295.535 7.45618 290.748 6.0484C288.993 5.527 287.61 5.16202 286.866 7.29976C286.121 9.33322 284.419 8.70754 283.09 8.29042C277.931 6.67408 272.825 6.8305 267.56 7.66474C264.103 8.23828 260.699 6.62194 257.136 7.14334C255.062 7.45618 253.041 7.56046 251.339 8.96824C254.689 8.23828 258.04 8.60326 261.444 9.02038C258.306 9.80248 255.221 10.5324 251.977 11.3667C253.785 12.983 255.487 13.713 258.785 13.1394C265.167 12.0445 271.442 11.8359 277.824 12.983C279.952 13.348 282.132 13.1394 284.047 12.1488C286.6 10.8453 287.132 12.0966 287.185 14.2344C287.238 16.4764 287.344 18.6663 288.248 20.804C289.844 20.0219 289.844 18.4056 290.163 17.1021C291.12 13.2437 293.248 11.8881 296.971 13.5566C298.46 14.2344 299.204 14.4951 299.842 13.0352C300.321 12.0445 300.853 12.3573 301.651 12.5659C306.969 13.9737 312.234 13.6087 317.446 12.0445C318.191 11.8359 318.776 11.5752 319.574 11.8881C324.413 13.713 329.359 13.4001 334.306 12.2531C336.327 11.7838 336.858 12.2531 336.858 14.2865C336.858 16.4764 337.39 18.6663 337.709 20.9605C339.89 19.9698 339.571 17.9363 340.049 16.32C341.06 12.8787 343.187 11.6795 346.325 13.4001C347.921 14.2865 348.878 14.7558 349.995 13.0873C350.793 11.8881 352.122 12.1488 353.08 12.4095C357.228 13.6087 361.27 12.7745 365.259 11.8881C367.12 11.471 368.716 12.2009 370.311 12.5138C374.353 13.2959 378.289 13.4523 382.118 12.0445C384.352 11.2103 384.511 12.618 384.777 13.8694C385.256 16.2157 385.522 18.6141 385.947 21.169C388.394 20.1784 388.128 17.9363 388.287 16.4243C388.606 12.983 390.68 13.1394 393.074 13.5566C395.307 13.9215 397.435 15.225 399.615 13.2437C400.147 12.7745 401.583 12.983 402.54 13.1916C406.742 14.1822 410.944 14.078 415.145 13.1916C417.326 12.7223 419.612 13.1394 421.846 13.5566C426.207 14.2865 430.462 13.6608 434.504 11.8359C430.037 11.106 425.622 13.4001 420.623 12.0445C425.144 10.6367 429.398 10.4282 433.706 10.2717C435.514 10.2196 434.291 11.3667 434.398 11.9924C436.472 13.1916 434.983 15.1208 435.355 16.6328C435.727 18.0406 435.94 19.5005 436.206 21.0126C438.493 20.0741 438.333 17.8842 438.918 16.32C440.195 13.0873 442.109 11.9924 445.088 13.7651C446.843 14.8079 448.013 15.3815 449.236 13.1394C450.087 11.5231 451.948 11.471 453.597 11.9924C456.416 12.8266 459.181 13.1394 462.053 12.5138C466.521 11.5752 470.935 11.1581 475.509 12.4616C478.753 13.4001 482.157 13.6087 485.188 11.5231C486.518 14.7558 485.773 18.0927 487.528 21.169C488.911 19.7091 489.177 18.1449 489.656 16.6328C491.038 12.3573 493.272 11.471 497.846 13.4001C498.059 10.4282 496.889 7.29976 499.282 4.2235C499.601 6.15268 499.973 7.66474 500.026 9.1768C500.08 10.6889 500.452 12.7745 497.686 13.0873ZM306.225 11.9924C313.777 9.07252 321.701 7.8733 329.785 8.18614C321.807 8.86396 314.362 12.4616 306.225 11.9924ZM427.59 8.9161C420.517 9.38536 414.028 13.6608 406.104 11.9402C413.496 10.1675 420.304 8.134 427.59 8.9161ZM378.714 8.29042C374.991 8.08186 371.481 9.1768 367.865 9.85462C364.354 10.4803 360.951 11.9402 356.696 11.3145C364.089 8.02972 371.322 7.92544 378.714 8.29042ZM256.71 11.9402C262.88 10.2717 268.889 7.8733 275.484 8.86396C269.315 10.1153 263.199 12.0445 256.71 11.9402ZM473.647 10.1675C477.583 9.54178 481.465 8.02972 486.305 9.07252C481.891 12.3052 477.742 11.3667 473.647 10.1675ZM511.567 7.29976C517.311 7.6126 522.949 8.44684 528.693 10.5846C522.31 11.6795 517.045 9.07252 511.567 7.29976ZM488.964 5.99626C489.709 9.90676 489.815 13.713 487.635 17.1542C487.262 13.2959 485.826 9.33322 488.964 5.99626ZM312.553 8.49898C309.469 9.28108 306.384 10.0632 303.246 10.741C302.502 10.8974 301.225 11.2624 300.906 10.2717C300.481 8.96824 301.863 8.81182 302.768 8.44684C305.959 7.24762 309.203 8.08186 312.553 8.49898ZM386.958 16.8935C384.883 13.9215 386 10.6889 385.256 7.82116C385.043 7.0912 386 5.83984 387.117 5.89198C388.447 5.89198 387.968 7.14334 388.021 7.8733C388.234 10.741 387.489 13.6087 386.958 16.8935ZM501.356 9.1768C507.791 8.18614 509.972 8.34256 513.642 10.011C509.121 11.5752 505.239 10.6367 501.356 9.1768ZM457.001 10.7931C462.479 9.80248 468.01 8.75968 473.488 7.76902C468.329 10.1153 462.851 11.0538 457.001 10.7931ZM411.794 8.70754C407.912 9.80248 404.189 11.8881 399.03 10.011C403.87 8.49898 407.806 8.29042 411.794 8.70754ZM335.635 9.9589C331.753 12.3052 327.498 11.471 323.297 11.3667C327.285 10.1153 331.38 9.64606 335.635 9.9589ZM463.117 8.3947C458.703 9.12466 454.288 9.90676 449.821 10.6367C453.65 6.88264 458.437 8.134 463.117 8.3947ZM338.773 16.32C337.018 13.4523 337.656 10.6367 337.656 7.8733C337.656 7.0912 338.188 6.46552 339.092 6.62194C339.996 6.72622 339.784 7.50832 339.837 8.02972C340.049 10.6889 339.464 13.348 338.773 16.32ZM398.392 3.96279C398.392 7.14334 398.445 9.38536 398.339 11.6795C398.286 12.4095 397.701 13.0352 396.85 13.0873C396.318 13.0873 395.893 12.5659 395.999 12.0966C396.584 9.64606 395.254 6.8305 398.392 3.96279ZM289.046 16.4764C288.621 16.4764 288.248 16.4243 287.823 16.4243C287.823 14.0258 287.77 11.6274 287.823 9.22894C287.823 8.44684 287.504 7.24762 288.78 7.24762C289.684 7.24762 290.216 8.18614 290.11 9.12466C289.791 11.6274 289.418 14.0258 289.046 16.4764ZM448.013 4.84918C449.395 7.66474 448.651 9.9589 448.172 12.2531C448.013 12.8787 447.64 13.6087 447.055 13.5044C446.364 13.4001 445.726 12.618 445.992 11.8359C446.63 9.6982 446.47 7.29976 448.013 4.84918ZM285.961 10.1153C281.281 11.9924 277.984 12.1488 272.559 11.106C276.814 9.54178 280.909 10.2717 285.961 10.1153ZM436.95 16.5807C437.27 13.2959 435.887 9.85462 438.227 6.77836C438.971 10.1675 438.28 13.4001 436.95 16.5807ZM360.632 8.08186C357.813 9.4375 355.26 10.0632 352.548 10.4282C351.963 10.4803 351.218 10.9496 351.005 10.1675C350.793 9.48964 351.059 8.70754 352.122 8.6554C354.781 8.3947 357.387 7.3519 360.632 8.08186ZM383.448 9.75034C379.884 11.6274 376.161 12.1488 372.332 10.3239C376.055 10.1153 379.725 9.90676 383.448 9.75034ZM349.569 4.43205C349.357 7.92544 350.367 10.741 347.867 13.5044C346.697 10.011 347.814 7.6126 349.569 4.43205ZM390.68 12.2009C389.67 11.2103 389.67 10.0632 389.564 9.07252C389.404 8.08186 388.979 6.62194 390.574 6.46552C392.436 6.25696 391.744 7.92544 391.744 8.81182C391.691 9.85462 392.223 11.1581 390.68 12.2009ZM492.208 5.89198C492.528 7.6126 494.283 9.07252 492.634 11.0017C492.421 11.2624 491.783 11.2103 491.358 11.3145C490.932 9.54178 490.666 7.82116 491.517 6.10054C491.517 5.99626 491.73 6.0484 492.208 5.89198Z" fill="white"/>
<path d="M998.38 13.0872C999.231 14.5992 1000.67 14.1821 1000.88 13.1393C1001.52 10.063 1003.65 11.3144 1005.08 11.6794C1008.86 12.6179 1012.47 12.4615 1016.14 11.2101C1018.43 10.428 1020.5 11.7315 1022.68 11.9922C1027.31 12.6179 1031.89 12.5658 1036.41 11.3144C1036.83 11.2101 1037.1 10.793 1038 10.1152C1033.69 9.38521 1029.76 9.85447 1025.93 7.45603C1030.13 6.72607 1033.69 8.70739 1037.79 7.50817C1033.85 6.10039 1030.08 5.57899 1026.46 6.04825C1022.47 6.56965 1018.64 6.62179 1014.65 5.83969C1011.04 5.16187 1007.31 5.68327 1003.91 6.62179C1001.41 7.35175 1001.52 6.36109 1001.41 4.69261C1001.3 3.1284 1001.04 1.5642 1000.83 0C1000.24 0.15642 999.869 0.20856 999.816 0.31284C998.912 5.78755 995.508 6.41323 990.934 4.74475C989.871 4.37977 988.647 4.43191 988.169 5.16187C986.307 8.13385 983.808 7.19533 981.308 6.62179C981.202 6.62179 981.042 6.51751 980.936 6.51751C970.937 7.09105 960.885 5.37043 950.302 7.61245C950.302 5.94397 950.302 4.1712 950.302 2.45058C950.302 1.77276 950.621 0.782101 949.61 0.677821C948.706 0.573541 948.493 1.45992 948.174 2.0856C948.121 2.18988 948.121 2.3463 948.068 2.45058C945.834 7.24747 945.728 7.45603 940.569 5.52685C938.069 4.58833 937.059 4.95331 936.846 7.45603C936.74 8.86381 936.314 9.22879 934.719 8.81167C929.135 7.29961 923.497 7.45603 917.7 7.66459C912.541 7.87315 907.329 6.46537 902.117 7.76887C900.362 8.18599 900.203 6.77821 900.043 5.47471C899.777 3.85836 900.681 1.98132 898.979 0.677821C896.852 1.77276 897.756 5.37043 895.097 5.57899C892.969 5.73541 890.736 5.00545 888.608 4.48405C887.279 4.11906 886.162 4.37977 885.79 5.52685C884.992 7.82101 883.769 7.71673 881.641 7.24747C877.865 6.46537 874.036 6.04825 870.154 7.03891C867.069 7.82101 863.984 6.36109 860.846 6.36109C860.102 6.36109 859.304 6.51751 858.613 6.36109C856.379 5.89183 853.879 8.39455 852.231 6.62179C851.061 5.31829 851.273 2.76342 850.848 0.625681C850.369 0.886381 849.944 0.990661 849.784 1.25136C848.774 2.91984 849.093 5.78755 847.231 6.36109C845.476 6.88249 843.083 5.99611 841.115 5.42257C839.892 5.05759 838.509 4.74475 838.084 5.73541C836.807 8.81167 834.84 7.45603 832.659 7.19533C829.84 6.88249 827.022 6.46537 824.096 6.83035C820.852 7.24747 817.555 7.24747 814.151 6.56965C810.109 5.73541 805.801 6.15253 801.334 7.66459C801.334 5.10973 801.334 2.97198 801.334 0.834241C799.685 0.782101 799.845 1.98132 799.526 2.65914C797.345 6.88249 796.228 7.45603 791.442 6.04825C789.686 5.52685 788.304 5.16187 787.559 7.29961C786.815 9.33307 785.113 8.70739 783.783 8.29027C778.624 6.67393 773.519 6.83035 768.253 7.66459C764.796 8.23813 761.393 6.62179 757.829 7.14319C755.755 7.45603 753.734 7.56031 752.032 8.96809C755.383 8.23813 758.733 8.60311 762.137 9.02023C758.999 9.80233 755.915 10.5323 752.671 11.3665C754.479 12.9829 756.181 13.7128 759.478 13.1393C765.86 12.0444 772.136 11.8358 778.518 12.9829C780.645 13.3479 782.826 13.1393 784.74 12.1486C787.293 10.8451 787.825 12.0965 787.878 14.2342C787.931 16.4763 788.038 18.6661 788.942 20.8039C790.537 20.0218 790.537 18.4054 790.857 17.1019C791.814 13.2436 793.941 11.8879 797.664 13.5564C799.153 14.2342 799.898 14.4949 800.536 13.035C801.015 12.0444 801.547 12.3572 802.344 12.5658C807.663 13.9735 812.928 13.6086 818.14 12.0444C818.884 11.8358 819.469 11.5751 820.267 11.8879C825.107 13.7128 830.053 13.4 834.999 12.2529C837.02 11.7837 837.552 12.2529 837.552 14.2864C837.552 16.4763 838.084 18.6661 838.403 20.9603C840.583 19.9696 840.264 17.9362 840.743 16.3198C841.753 12.8786 843.881 11.6794 847.019 13.4C848.614 14.2864 849.571 14.7556 850.688 13.0872C851.486 11.8879 852.816 12.1486 853.773 12.4093C857.921 13.6086 861.963 12.7743 865.952 11.8879C867.814 11.4708 869.409 12.2008 871.005 12.5136C875.047 13.2957 878.982 13.4521 882.811 12.0444C885.045 11.2101 885.205 12.6179 885.471 13.8693C885.949 16.2156 886.215 18.614 886.641 21.1689C889.087 20.1782 888.821 17.9362 888.981 16.4241C889.3 12.9829 891.374 13.1393 893.767 13.5564C896.001 13.9214 898.128 15.2249 900.309 13.2436C900.841 12.7743 902.277 12.9829 903.234 13.1914C907.436 14.1821 911.637 14.0778 915.839 13.1914C918.019 12.7222 920.306 13.1393 922.54 13.5564C926.901 14.2864 931.156 13.6607 935.198 11.8358C930.73 11.1058 926.316 13.4 921.317 12.0444C925.837 10.6366 930.092 10.428 934.4 10.2716C936.208 10.2195 934.985 11.3665 935.091 11.9922C937.165 13.1914 935.676 15.1206 936.048 16.6327C936.421 18.0405 936.633 19.5004 936.899 21.0124C939.186 20.0739 939.027 17.884 939.612 16.3198C940.888 13.0872 942.803 11.9922 945.781 13.765C947.536 14.8078 948.706 15.3813 949.929 13.1393C950.78 11.523 952.642 11.4708 954.291 11.9922C957.109 12.8265 959.875 13.1393 962.747 12.5136C967.214 11.5751 971.628 11.158 976.202 12.4615C979.446 13.4 982.85 13.6086 985.882 11.523C987.211 14.7556 986.467 18.0926 988.222 21.1689C989.605 19.7089 989.871 18.1447 990.349 16.6327C991.732 12.3572 993.966 11.4708 998.539 13.4C998.752 10.428 997.582 7.29961 999.975 4.22334C1000.29 6.15253 1000.67 7.66459 1000.72 9.17665C1000.77 10.6887 1001.15 12.7743 998.38 13.0872ZM806.918 11.9922C814.47 9.07237 822.395 7.87315 830.479 8.18599C822.501 8.86381 815.055 12.4615 806.918 11.9922ZM928.284 8.91595C921.21 9.38521 914.722 13.6607 906.797 11.9401C914.19 10.1673 920.997 8.13385 928.284 8.91595ZM879.408 8.29027C875.685 8.08171 872.175 9.17665 868.558 9.85447C865.048 10.4802 861.644 11.9401 857.39 11.3144C864.782 8.02957 872.015 7.92529 879.408 8.29027ZM757.404 11.9401C763.573 10.2716 769.583 7.87315 776.178 8.86381C770.008 10.1152 763.892 12.0444 757.404 11.9401ZM974.341 10.1673C978.276 9.54163 982.159 8.02957 986.999 9.07237C982.584 12.3051 978.436 11.3665 974.341 10.1673ZM1012.26 7.29961C1018 7.61245 1023.64 8.44669 1029.39 10.5844C1023 11.6794 1017.74 9.07237 1012.26 7.29961ZM989.658 5.99611C990.402 9.90661 990.509 13.7128 988.328 17.1541C987.956 13.2957 986.52 9.33307 989.658 5.99611ZM813.247 8.49883C810.162 9.28093 807.078 10.063 803.94 10.7409C803.195 10.8973 801.919 11.2623 801.6 10.2716C801.174 8.96809 802.557 8.81167 803.461 8.44669C806.652 7.24747 809.896 8.08171 813.247 8.49883ZM887.651 16.8934C885.577 13.9214 886.694 10.6887 885.949 7.82101C885.737 7.09105 886.694 5.83969 887.811 5.89183C889.14 5.89183 888.662 7.14319 888.715 7.87315C888.927 10.7409 888.183 13.6086 887.651 16.8934ZM1002.05 9.17665C1008.48 8.18599 1010.67 8.34241 1014.34 10.0109C1009.81 11.5751 1005.93 10.6366 1002.05 9.17665ZM957.694 10.793C963.172 9.80233 968.703 8.75953 974.181 7.76887C969.022 10.1152 963.544 11.0537 957.694 10.793ZM912.488 8.70739C908.606 9.80233 904.883 11.8879 899.724 10.0109C904.564 8.49883 908.499 8.29027 912.488 8.70739ZM836.329 9.95875C832.446 12.3051 828.192 11.4708 823.99 11.3665C827.979 10.1152 832.074 9.64591 836.329 9.95875ZM963.81 8.39455C959.396 9.12451 954.982 9.90661 950.514 10.6366C954.344 6.88249 959.13 8.13385 963.81 8.39455ZM839.467 16.3198C837.711 13.4521 838.35 10.6366 838.35 7.87315C838.35 7.09105 838.882 6.46537 839.786 6.62179C840.69 6.72607 840.477 7.50817 840.53 8.02957C840.743 10.6887 840.158 13.3479 839.467 16.3198ZM899.086 3.96264C899.086 7.14319 899.139 9.38521 899.032 11.6794C898.979 12.4093 898.394 13.035 897.543 13.0872C897.011 13.0872 896.586 12.5658 896.692 12.0965C897.277 9.64591 895.948 6.83035 899.086 3.96264ZM789.74 16.4763C789.314 16.4763 788.942 16.4241 788.516 16.4241C788.516 14.0257 788.463 11.6272 788.516 9.22879C788.516 8.44669 788.197 7.24747 789.474 7.24747C790.378 7.24747 790.91 8.18599 790.803 9.12451C790.484 11.6272 790.112 14.0257 789.74 16.4763ZM948.706 4.84903C950.089 7.66459 949.344 9.95875 948.866 12.2529C948.706 12.8786 948.334 13.6086 947.749 13.5043C947.057 13.4 946.419 12.6179 946.685 11.8358C947.323 9.69805 947.164 7.29961 948.706 4.84903ZM786.655 10.1152C781.975 11.9922 778.677 12.1486 773.253 11.1058C777.507 9.54163 781.602 10.2716 786.655 10.1152ZM937.644 16.5805C937.963 13.2957 936.58 9.85447 938.92 6.77821C939.665 10.1673 938.974 13.4 937.644 16.5805ZM861.325 8.08171C858.506 9.43735 855.954 10.063 853.241 10.428C852.656 10.4802 851.912 10.9494 851.699 10.1673C851.486 9.48949 851.752 8.70739 852.816 8.65525C855.475 8.39455 858.081 7.35175 861.325 8.08171ZM884.141 9.75019C880.578 11.6272 876.855 12.1486 873.026 10.3237C876.748 10.1152 880.418 9.90661 884.141 9.75019ZM850.263 4.4319C850.05 7.92529 851.061 10.7409 848.561 13.5043C847.391 10.0109 848.508 7.61245 850.263 4.4319ZM891.374 12.2008C890.364 11.2101 890.364 10.063 890.257 9.07237C890.098 8.08171 889.672 6.62179 891.268 6.46537C893.129 6.25681 892.438 7.92529 892.438 8.81167C892.385 9.85447 892.916 11.158 891.374 12.2008ZM992.902 5.89183C993.221 7.61245 994.976 9.07237 993.327 11.0016C993.115 11.2623 992.477 11.2101 992.051 11.3144C991.626 9.54163 991.36 7.82101 992.211 6.10039C992.211 5.99611 992.423 6.04825 992.902 5.89183Z" fill="white"/>
</g>
</svg>
