<svg width="151" height="217" viewBox="0 0 151 217" fill="none" xmlns="http://www.w3.org/2000/svg">
<g opacity="0.08">
<path d="M158.597 144.288C154.267 137.126 149.52 130.339 143.108 124.885C140.277 122.47 137.112 120.554 133.74 118.889C134.531 118.181 135.613 118.306 136.113 116.932C131.45 118.514 127.536 116.557 123.538 115.1C119.833 113.767 116.002 112.893 112.047 112.351C108.299 111.852 104.51 111.644 100.596 111.269C101.304 109.811 101.929 108.604 102.512 107.355C103.386 105.523 104.677 104.274 106.675 103.607C108.757 102.941 110.672 101.817 112.088 100.235C113.545 98.5692 116.085 97.4033 115.461 94.447C117.501 93.0313 119.874 91.7822 120.874 89.4504C121.665 87.5767 123.122 86.4525 124.33 84.9952C126.245 82.7467 127.91 80.3317 128.785 77.5419C128.035 77.0423 127.827 78.2081 127.078 77.6252C129.784 75.6266 131.699 73.0034 133.198 70.0887C133.615 69.2559 134.322 68.1317 133.282 67.4655C132.366 66.8826 132.657 66.5911 133.157 66.1747C137.279 62.8437 139.486 58.1386 141.859 53.6C143.399 50.6437 144.607 47.5208 144.94 44.1898C145.023 43.4819 145.065 42.6908 144.315 42.3577C143.441 41.9829 143.15 42.8573 142.775 43.3986C141.193 45.772 139.194 47.8123 136.862 49.4778C130.575 53.9331 124.288 58.2635 116.668 60.3037C110.672 61.886 104.968 64.4259 99.2639 66.8826C99.597 65.6751 100.804 65.6751 101.679 65.3836C103.303 64.8007 103.594 64.1761 102.803 62.5522C98.556 53.7665 91.5609 48.187 82.6089 44.7727C81.8178 44.4812 80.2356 44.3563 80.4021 43.6485C80.6936 42.3577 79.9441 40.6922 80.7352 39.901C82.5673 38.069 82.8171 35.529 84.0246 33.4471C85.7734 30.4908 88.1883 28.3256 90.6033 26.2021C92.477 24.5366 94.1841 22.5796 96.4742 21.2888C97.8482 20.4977 99.0973 19.3318 100.513 18.5407C103.219 17.0001 105.426 14.9598 107.466 12.753C109.673 10.338 110.881 7.42328 110.672 4.00895C110.631 3.42602 110.797 2.55162 110.09 2.4267C109.257 2.26015 109.257 3.13455 109.049 3.67585C107.258 7.96458 104.469 11.1707 99.597 12.0451C98.8058 12.2117 98.098 12.6697 97.4318 13.1693C95.8496 14.2103 94.2257 15.2929 92.477 15.9175C91.436 16.2922 90.3535 16.5004 89.4374 17.125C87.4805 18.499 85.1072 19.1236 83.0253 19.9147C79.8609 21.1222 77.321 23.4956 74.0316 24.2451C73.4903 24.37 73.074 24.9946 72.616 25.4526C72.1579 25.9106 71.7416 26.2437 71.117 26.4936C68.6188 27.4096 62.9561 33.0724 62.0817 35.5707C61.9152 36.0287 61.8735 36.4867 61.3739 36.7365C59.8333 37.5693 58.834 38.8601 58.376 40.5672C58.2511 41.0669 58.0845 41.4417 57.46 41.4833C53.7126 41.6915 50.1318 42.5659 46.4677 43.7734C46.7175 38.7768 49.5489 35.1959 52.0887 31.5318C52.8382 30.4492 53.1297 28.7837 54.1706 28.3256C57.0852 27.0765 58.1678 24.0785 60.4995 22.2881C63.3308 20.1229 65.8291 17.583 68.4939 15.168C71.2836 12.6697 73.99 10.1298 75.7388 6.71543C76.6548 4.96663 77.0295 3.05128 76.6548 1.09428C76.5715 0.594624 76.405 0.136604 75.822 0.0116899C75.3224 -0.0715865 75.0726 0.303157 74.9476 0.719539C74.2398 3.71749 71.5334 5.13318 69.7013 7.25673C68.1191 9.08881 66.2454 10.7127 64.1636 11.712C62.0817 12.7113 60.5411 14.2103 58.834 15.5844C57.2518 15.6676 57.0436 17.5414 55.8777 17.9577C53.5044 18.7905 52.0471 20.9557 49.6321 21.8717C48.1748 22.413 46.7175 23.6622 45.51 24.7031C43.0534 26.785 40.3054 28.6171 38.3484 31.3236C38.0153 31.7816 37.8071 32.2396 37.2659 32.5311C32.8523 34.6546 31.395 39.1932 28.9384 42.8573C28.2722 43.8983 27.3145 44.8976 26.9398 46.1884C26.69 47.1044 26.107 47.9788 26.232 48.9782C26.3985 50.4355 26.0238 51.643 25.3992 53.0171C24.5665 54.8491 23.6504 56.8061 23.9419 58.888C24.1501 60.6368 23.5672 62.0109 22.7344 63.385C20.9857 66.258 20.1529 69.4641 19.3618 72.7119C18.4041 76.7092 18.2792 80.8314 17.6963 84.9119C17.3632 82.6218 17.5298 80.3317 17.9045 78.1249C18.3209 75.5849 17.613 73.4614 16.1557 71.5044C14.865 69.7972 13.5326 68.0484 11.6589 66.9242C9.99339 65.9249 8.91082 64.4259 8.11971 62.6771C7.24533 60.8034 6.49586 58.888 5.82966 56.8894C5.5382 55.9317 5.33001 54.2246 4.16416 54.3911C3.08159 54.516 3.08159 56.2232 3.08159 57.2642C2.99832 61.1365 3.20651 65.0089 4.58054 68.7563C4.74709 69.1727 5.28837 70.0471 4.70545 70.0887C2.79013 70.2969 3.49797 71.6293 3.58124 72.5037C4.08089 77.2505 5.45492 81.7058 7.95316 85.8279C8.45281 86.6191 9.20228 87.3269 8.24462 88.3679C7.86989 88.7426 8.24462 89.3255 8.45281 89.7419C10.8261 94.3221 13.9906 98.3194 17.613 101.942C17.8629 102.192 18.1959 102.358 18.529 102.442C19.112 102.608 19.4034 102.317 19.4867 101.775C20.6526 103.899 20.5693 106.439 21.6102 108.646C21.7351 108.854 21.4853 109.312 21.3188 109.562C20.028 111.227 20.2778 113.059 20.7358 114.891C21.7351 119.055 24.3166 122.178 27.4394 124.926C28.2722 125.676 28.6053 126.134 27.5644 126.966C24.275 129.756 20.8607 132.338 16.8636 134.045C12.9913 135.71 9.36883 135.794 6.16276 132.588C5.41328 131.838 4.62218 131.172 3.91434 130.422C2.91504 129.381 1.7492 129.423 0.708265 130.089C-0.374306 130.797 0.000429973 131.921 0.416803 132.921C0.583353 133.295 0.791539 133.67 0.999726 134.003C4.70545 141.332 15.1981 145.162 22.3597 143.788C24.5248 143.372 26.69 143.164 28.9384 142.581C25.1494 147.952 23.6504 154.781 17.8212 158.736C18.7789 159.361 19.3618 158.611 20.1945 158.695C19.57 160.027 19.112 161.276 18.4458 162.484C15.0731 168.313 14.7401 175.808 8.45281 180.013C9.53538 180.68 10.3681 179.847 11.2841 180.013C9.95175 185.135 8.49445 190.09 8.3279 195.336C8.16135 201.041 7.70334 206.745 10.3681 212.075C12.0753 215.489 14.3237 218.612 18.0294 219.903C23.1924 221.693 28.1889 220.444 32.8523 217.987C37.6822 215.406 41.1798 211.325 44.3858 207.037C48.383 201.79 51.3393 195.878 54.3788 190.048C54.9617 188.924 55.6279 188.424 56.9187 188.466C59.0838 188.549 60.9991 187.883 62.2483 185.926C63.081 184.635 64.2052 184.968 64.9963 185.884C66.4536 187.55 68.2857 188.716 70.1594 189.673C75.2391 192.172 80.4021 192.796 83.5666 185.843C83.8997 185.135 84.316 184.594 85.1904 184.427C88.3132 183.761 90.4367 181.887 91.6859 178.889C92.7684 176.349 92.8933 176.433 95.2667 177.723C100.055 180.347 104.219 180.138 107.175 177.182C109.09 175.308 108.965 173.601 106.842 171.977C104.51 170.228 102.387 168.271 100.43 166.065C96.2243 161.36 91.8941 156.779 86.6061 153.24C80.1523 148.951 73.2822 148.285 66.0373 150.95C62.165 152.366 58.6674 154.573 54.9201 156.738C53.8792 152.491 55.1699 148.993 57.2101 145.704C59.8749 141.415 64.2885 139.416 68.8686 138.292C77.0295 136.252 84.7324 138.209 91.6442 142.706C95.4749 145.204 98.4727 148.743 101.221 152.449C106.092 159.069 109.049 166.564 111.172 174.476C111.838 176.974 111.464 178.39 109.465 180.097C105.759 183.178 102.845 188.341 105.176 194.628C106.092 197.043 107.383 199.25 108.882 201.332C109.756 202.54 109.632 203.039 108.216 203.497C104.302 204.746 100.305 205.538 96.266 206.121C93.851 206.454 91.1862 205.912 89.0211 207.495C85.4403 210.118 82.942 217.363 83.9413 221.776C85.357 228.022 89.9371 232.061 94.0592 236.392C94.1008 236.433 94.1841 236.475 94.2257 236.516C98.556 237.183 101.845 240.264 105.884 241.638C110.09 243.054 119 240.097 121.665 236.6C122.539 235.475 122.914 234.143 122.872 232.686C122.872 232.228 122.497 231.603 123.08 231.395C126.828 229.979 127.91 225.732 131.283 223.858C132.699 223.067 133.49 221.527 133.531 219.861C133.573 218.862 133.948 218.487 134.864 218.112C137.154 217.238 139.028 215.739 139.61 213.241C140.568 209.16 143.982 207.12 146.439 204.164C147.188 205.329 146.606 206.703 148.063 207.869C147.438 202.914 149.645 199.334 152.185 195.878C154.059 193.296 155.807 190.673 157.514 187.966C161.095 182.304 163.427 176.266 164.26 169.604C164.634 166.523 164.51 163.483 164.551 160.485C165.55 160.194 165.925 161.36 166.925 161.068C165.967 159.111 164.26 157.737 163.718 155.697C162.511 151.45 160.762 147.827 158.597 144.288ZM99.014 67.0075C95.808 69.1727 92.6435 71.4211 89.8955 74.1276C92.6435 71.3795 94.9752 68.1317 99.014 67.0075ZM87.5638 77.1255C86.5645 79.1242 85.7734 81.1645 85.1072 83.2464C85.2321 80.9146 85.7734 78.7911 87.5638 77.1255ZM103.594 11.254C106.134 9.58847 108.216 7.50656 109.382 4.63352C108.924 7.96458 106.8 10.213 104.385 12.2949C103.886 12.7113 103.428 12.5031 103.136 12.1284C102.678 11.5871 103.303 11.4622 103.594 11.254ZM98.0147 13.6274C98.5144 12.4199 100.013 12.7113 100.929 12.4615C101.762 12.4199 102.387 12.5864 102.72 13.1693C103.011 13.6274 102.636 14.0021 102.303 14.1687C101.429 14.6683 100.638 15.6676 99.597 15.1263C99.014 14.8349 97.64 14.585 98.0147 13.6274ZM96.5991 14.71C97.4735 14.7932 98.4311 15.0014 98.5144 16.084C98.5977 17.0417 97.7649 17.6663 96.9322 17.583C95.8496 17.4997 94.5588 16.8751 94.4339 15.8758C94.309 15.0431 95.6831 14.8765 96.5991 14.71ZM92.2688 16.667C93.2264 16.8751 94.4756 16.7919 94.4756 18.1243C94.4756 19.1652 93.5595 19.6649 92.5602 19.6233C91.3528 19.5816 89.7705 18.9987 89.6873 18.1243C89.6456 16.9584 91.3111 16.9584 92.2688 16.667ZM84.7741 19.998C85.0655 18.9154 86.4396 18.7489 87.6054 18.8321C87.8969 18.8738 88.1883 18.8321 88.4381 18.9571C89.3125 19.2902 90.3535 19.3734 90.6449 20.5393C90.7698 21.1222 90.52 21.6635 90.062 21.9966C89.146 22.6212 88.23 22.3714 87.3972 21.7884C87.189 21.6219 86.8976 21.5386 86.6894 21.3721C86.0648 20.7891 84.4826 21.039 84.7741 19.998ZM86.1065 22.0383C86.8976 22.6212 87.1474 23.4123 86.6894 24.2035C86.0648 25.3277 84.9822 25.3693 83.983 24.828C82.4424 23.9953 80.8185 23.454 79.0281 22.7878C81.1933 20.7059 83.9413 20.456 86.1065 22.0383ZM82.8171 25.2028C83.4833 25.5775 84.0662 26.1604 83.6915 27.0765C83.3584 27.9509 82.5256 27.9509 81.7762 27.9509C81.4014 27.9509 80.9851 27.7427 80.6103 27.5345C79.5278 26.9099 78.4868 26.2437 77.2793 25.9106C76.0719 25.5359 74.8227 25.9939 73.4487 25.5775C76.8213 22.4963 79.9858 23.7038 82.8171 25.2028ZM78.3619 27.1598C79.2363 27.5761 80.0274 28.1174 80.3605 29.1584C80.9018 30.8656 80.2356 31.8232 78.4036 31.8232C78.1121 31.8232 77.8206 31.8649 77.5708 31.7816C74.4064 30.3659 71.0337 30.3243 67.4113 30.5325C69.3266 26.2854 75.5306 25.7441 78.3619 27.1598ZM75.1975 45.5638C76.8213 45.8969 77.5292 46.3966 77.6957 47.3959C77.9039 48.6034 77.4459 49.5195 76.0302 50.3106C76.405 48.6451 76.8213 47.1877 75.1975 45.5638ZM77.1128 53.2669C77.779 53.142 78.1954 53.5584 78.1954 54.2246C78.1954 55.0157 77.9039 55.6819 77.1544 56.5147C77.0712 55.6403 77.0295 54.9324 76.9463 54.2662C76.9046 53.8915 76.4466 53.3918 77.1128 53.2669ZM63.2059 34.613C63.6223 33.7802 64.2052 33.1557 64.9547 32.6144C67.7444 30.6574 73.8234 30.5325 76.6131 32.4894C77.5708 33.1557 78.4452 34.155 77.9039 35.4458C77.3626 36.7365 76.2384 36.7782 74.906 36.4867C72.5743 35.9871 70.2843 35.0294 68.244 35.2792C66.4536 35.2376 65.1629 35.3208 63.9137 35.6956C63.5807 35.7789 63.2059 35.9038 62.9561 35.5707C62.7895 35.2376 63.0394 34.9461 63.2059 34.613ZM59.0422 41.5249C59.3753 38.3604 61.8319 36.4034 66.0789 36.0703C66.6202 36.0287 67.2031 36.0703 67.7444 36.0703C69.5764 35.9038 71.3252 36.3618 73.0323 36.9447C75.4057 37.7359 75.8637 40.1509 73.99 41.8164C72.9907 42.7324 71.7832 43.2737 70.4092 43.1072C67.0782 42.7324 63.7888 42.5659 60.4579 43.0655C59.1255 43.2321 58.9173 42.6492 59.0422 41.5249ZM56.7938 46.5631C57.335 44.8976 58.5425 43.9399 60.3329 43.815C62.9561 43.6485 65.5793 43.357 68.2024 43.7734C70.8256 44.1898 72.8658 46.1468 72.5743 48.4369C72.0747 52.1843 70.2426 54.1413 67.4113 53.6416C64.2885 52.7672 60.791 53.2669 58.0429 50.8519C56.5856 49.6027 56.2525 48.187 56.7938 46.5631ZM55.7112 53.7249C55.8778 51.1433 56.3358 50.8935 58.5009 52.3092C60.8326 53.8915 63.6223 53.8498 66.2454 54.4328C66.5785 54.516 66.9533 54.4744 67.2864 54.516C70.5341 54.7659 72.033 55.9317 71.9081 58.1386C71.7832 59.929 69.6597 61.2614 66.4536 61.2614C63.1643 60.4703 58.9173 60.6785 56.5439 56.6396C56.0027 55.7235 55.6696 54.8075 55.7112 53.7249ZM69.4932 8.29768C70.9921 6.79871 72.5743 5.38301 74.1149 3.88404C73.4903 6.21577 72.158 7.92294 70.4925 9.38028C70.1177 9.71338 69.7013 10.2963 69.0768 9.75502C68.3273 9.08881 69.1184 8.67243 69.4932 8.29768ZM65.9124 11.3373C66.2038 10.5878 67.0782 10.1714 67.9942 10.338C68.4939 10.4212 69.0351 10.7127 68.9935 11.4205C68.4939 12.0035 68.0775 12.7946 67.2031 12.5448C66.6618 12.4199 65.5376 12.2533 65.9124 11.3373ZM64.2052 12.5031C64.9963 12.3366 65.7042 12.5448 66.0373 13.4608C65.6625 14.6683 64.7881 15.3345 63.6639 15.5011C62.7479 15.6676 61.707 14.9181 61.7486 14.2936C61.8735 13.1277 63.1226 12.7113 64.2052 12.5031ZM57.6265 16.9168C57.9596 16.4588 58.6674 16.2506 58.7091 15.5844C58.8756 15.5844 59.0838 15.6676 59.2504 15.5844C60.1664 15.2096 61.2906 14.7516 61.7486 15.9591C62.165 17.0001 61.1657 17.7079 60.3329 18.2492C59.2504 18.9987 58.376 18.1659 57.46 17.7495C57.0852 17.5414 57.4183 17.1666 57.6265 16.9168ZM56.5023 18.5823C57.4183 18.7489 58.5009 18.7905 58.5009 19.9564C58.5009 20.9973 57.6682 21.7884 56.5856 21.7468C55.4614 21.6635 53.671 21.2471 53.671 20.4144C53.6293 19.0403 55.3365 18.8738 56.5023 18.5823ZM53.671 21.7052C54.5453 21.9966 55.5446 22.4547 54.8368 23.5789C54.2955 24.4533 53.6293 25.9106 52.172 24.9946C51.1311 24.37 50.0485 23.8704 48.7994 23.3291C50.2151 21.8301 51.7556 21.0806 53.671 21.7052ZM50.2151 24.9113C51.1727 25.3693 51.9638 25.9939 51.2976 27.1598C50.7564 28.0342 50.0069 28.9086 48.7578 28.2007C47.2588 27.3263 45.6766 27.1181 43.7613 27.2847C45.2186 24.6615 47.8834 23.7871 50.2151 24.9113ZM46.4677 28.2424C47.6336 28.5338 48.4247 29.1584 48.0916 30.4075C47.8001 31.615 46.9257 32.3229 45.635 31.9898C44.5524 31.74 43.4282 31.74 42.3456 31.6983C41.3047 31.6567 40.347 31.1987 38.9313 31.6983C40.6801 28.8669 43.7613 27.5761 46.4677 28.2424ZM44.5524 53.4751C44.3442 53.0587 43.9278 52.6007 44.7606 52.4341C45.3019 52.3508 45.635 52.7256 45.7182 53.2669C45.8431 54.3495 45.7599 55.3904 44.594 56.7229C44.9688 55.2655 44.9688 54.3495 44.5524 53.4751ZM42.4289 44.9393C45.4684 46.1468 45.8015 48.8949 43.2616 51.4348C43.8862 48.9782 43.8862 46.9795 42.4289 44.9393ZM43.1367 32.6144C44.1777 32.9891 44.5524 33.7802 44.3026 34.7379C44.0111 36.0703 43.1784 36.9864 41.6378 36.8615C38.9314 36.6533 36.2666 36.8615 33.3936 37.5693C34.7676 33.697 39.5143 31.3652 43.1367 32.6144ZM29.6462 42.441C30.479 40.4423 31.7697 38.9017 33.9765 38.2772C36.0167 37.6526 38.057 37.6942 40.1388 37.6942C41.1798 37.6942 41.8043 38.1939 42.1791 39.1516C42.5538 40.1092 42.3456 40.8171 41.6378 41.5666C40.8883 42.3577 39.9723 42.899 38.9313 42.9823C36.1 43.1488 33.2687 42.8157 30.8121 43.6901C29.3964 43.8567 29.3548 43.2321 29.6462 42.441ZM29.3131 44.9809C31.3533 44.3147 33.4352 43.815 35.642 43.815C38.9313 43.815 40.6385 45.314 40.6801 48.4369C40.7218 51.5181 38.4317 53.8915 35.4754 53.8915C35.2673 53.8915 35.0591 53.8915 34.8509 53.8915C31.9779 53.8498 29.3548 53.1836 27.5227 50.727C26.0654 48.8116 27.0231 45.7304 29.3131 44.9809ZM25.7323 54.0164C26.107 51.8928 26.6483 51.643 28.3971 52.9338C30.1875 54.2662 32.1861 54.8075 34.3929 54.7659C35.1007 54.7659 35.7669 54.7659 36.4747 54.8075C38.8481 54.9324 40.0972 55.8485 40.1805 57.5556C40.2637 59.3877 38.9313 60.9699 36.8911 61.428C36.2249 61.5945 35.5171 61.6362 35.4338 61.6362C31.2701 61.5529 28.4387 60.1788 26.4401 57.1392C25.8572 56.1816 25.5241 55.1822 25.7323 54.0164ZM18.1127 92.8648C18.2792 95.7794 19.4451 98.4859 19.3618 101.442C18.8205 98.6108 17.613 95.8627 18.1127 92.8648ZM20.8191 83.288C21.1106 79.832 22.2348 76.6259 24.1501 73.7945C26.6483 70.0887 31.3533 69.8805 34.5178 73.2116C36.2249 75.002 37.5573 76.959 38.3484 79.3324C39.0146 81.3727 39.8474 83.3713 40.5968 85.3699C40.7634 85.8696 40.7634 86.619 41.5545 86.4941C42.1374 86.4109 42.0541 85.7447 42.1374 85.2866C42.6371 81.7057 43.5115 78.1665 45.4268 75.0853C47.4254 71.8375 49.5489 68.673 53.0464 66.7577C56.9187 64.5925 62.9561 65.1754 66.2454 68.1733C70.7839 72.3372 72.7825 77.8334 74.3647 83.5795C75.3224 87.1603 75.7804 90.7829 75.822 94.4887C75.8637 97.8614 74.6146 100.609 72.2412 103.024C64.3718 111.102 54.6286 113.559 43.7613 112.976C43.1367 112.934 42.2623 113.018 42.304 112.227C42.304 111.352 43.22 111.435 43.9278 111.352C46.1762 111.186 47.9667 110.311 48.7994 108.104C49.6321 105.814 49.0076 103.899 47.3005 102.233C47.1339 102.108 46.9674 101.984 46.8008 101.9C46.6759 101.859 46.551 101.859 46.3012 101.859C46.2179 102.691 46.9257 103.024 47.3421 103.483C48.9659 105.523 48.5912 108.396 46.4677 109.645C46.1346 109.853 45.5517 110.228 45.3435 110.103C43.1784 108.687 42.4705 110.936 41.1381 111.685C39.7641 112.435 38.2651 112.976 36.8078 112.102C35.4338 111.269 35.642 109.687 35.6836 108.313C35.7669 105.231 37.0577 102.566 38.4733 99.9016C39.431 98.1528 40.6801 96.4457 40.3887 93.7808C39.3061 95.1549 39.6392 96.6122 38.3484 97.7364C38.3068 96.862 38.2235 96.1542 38.2235 95.488C37.9737 90.1999 37.3491 84.9952 35.6004 79.957C34.8509 77.7501 33.7267 75.7931 31.6864 74.5024C29.1466 72.8785 26.2736 73.7112 24.8163 76.3344C23.6504 78.4163 23.4006 80.7064 23.1924 82.9549C22.6095 89.617 23.0259 96.1126 26.232 102.192C27.606 104.815 29.6462 106.356 32.5608 106.022C34.8092 105.773 35.2256 106.522 34.7676 108.437C34.6843 108.812 34.726 109.27 34.6843 110.02C31.4366 108.354 28.3971 106.689 24.8579 106.98C24.0668 107.022 24.0252 106.439 23.9003 105.898C21.6935 98.4443 20.1945 90.9911 20.8191 83.288ZM35.3505 104.19C35.0174 104.898 34.268 104.981 33.6018 105.065C30.479 105.481 28.3971 104.399 27.0647 101.567C24.5248 96.2375 23.817 92.8648 23.8586 86.2859C23.9419 83.7044 24.0252 80.873 24.9412 78.1249C25.5658 76.2928 26.6067 75.0436 28.4804 74.7938C30.3957 74.5024 31.8114 75.5017 32.8939 77.0006C35.3505 80.4566 36.0167 84.4955 36.5164 88.5344C36.8078 90.9911 36.8911 93.531 37.3491 95.946C37.8904 99.0272 36.5997 101.567 35.3505 104.19ZM29.5213 126.217C31.9363 124.177 34.5594 122.636 37.7239 122.136C37.3075 122.469 36.8911 122.803 36.4747 123.136C38.0986 121.762 39.8474 123.261 41.5129 123.052C39.6808 124.177 38.1819 125.801 35.8918 126.3C34.8925 126.508 33.8932 127.175 33.1021 128.007C27.8142 133.712 21.1106 136.168 13.4909 136.377C13.2827 136.377 13.0746 136.335 12.8664 136.252C12.7831 136.21 12.6998 136.085 12.5333 135.877C19.6116 134.961 24.4832 130.422 29.5213 126.217ZM29.9793 116.973C28.9384 116.182 28.6469 115.016 28.6469 113.601C29.8128 113.767 30.7288 114.225 31.6032 114.725C32.6025 115.308 32.6441 116.224 32.1445 117.015C31.5615 117.931 30.6455 117.473 29.9793 116.973ZM36.558 116.557C37.8904 116.932 38.973 117.39 40.0556 117.556C41.0132 117.723 41.5961 117.973 41.5961 119.014C41.5961 119.888 41.5961 120.637 40.6801 121.095C39.6808 121.553 38.7648 121.47 38.057 120.637C37.2242 119.555 36.7246 118.264 36.558 116.557ZM7.82825 139.791C5.03855 138.167 2.91504 136.002 1.33282 133.254C0.874814 132.463 0.416803 131.505 1.29119 130.797C2.24885 130.048 2.99832 130.631 3.74779 131.422C5.28837 133.046 7.03714 134.336 8.91082 135.544C13.2827 138.292 17.7379 137.251 22.1515 135.919C27.0231 134.461 30.937 131.255 35.0591 128.507C37.0993 127.175 39.1395 125.884 41.0965 124.468C42.8453 123.177 44.9688 123.136 46.8841 122.345C47.0923 122.261 47.5086 122.261 47.6752 122.386C49.9652 124.052 52.1304 122.844 54.4621 122.345C57.46 121.678 59.9166 123.427 62.0817 125.343C63.1643 126.3 63.9554 127.424 63.997 128.882C63.997 129.381 64.0387 130.422 63.9137 130.339C63.1226 129.59 62.1233 131.338 61.4988 130.048C61.3739 129.798 61.1657 129.631 60.666 129.048C60.9575 130.256 61.1657 130.797 59.8333 130.797C56.7938 130.797 56.8354 130.922 55.3781 127.924C54.9201 127.008 53.1713 126.758 52.8799 127.258C52.2969 128.174 51.5891 127.841 50.9645 128.049C47.4254 129.381 43.7196 130.256 41.1381 133.545C39.7641 135.294 37.3908 136.252 35.2673 137.751C35.184 136.668 36.1416 136.876 36.1416 136.252C35.9751 136.044 35.8085 136.127 35.642 136.252C34.6011 136.918 33.6018 137.543 32.8939 138.667C32.2694 139.708 31.0203 140.291 29.8128 140.707C22.4013 143.289 15.0315 143.996 7.82825 139.791ZM48.7161 119.18C48.7161 119.055 48.7161 118.847 48.7994 118.805C50.34 118.056 52.0055 118.431 53.6293 118.306C54.5454 118.264 54.2539 119.513 54.1706 120.221C54.0041 121.678 52.9631 122.095 51.8806 122.095C50.2567 122.095 48.6329 120.471 48.7161 119.18ZM65.7458 117.973C65.3294 119.014 64.4134 119.305 63.4141 119.388C62.0817 119.472 61.249 118.722 60.9575 117.556C60.7077 116.349 61.9984 116.599 62.623 116.182C62.7895 116.057 62.9977 115.974 63.2059 115.932C63.9554 115.849 64.6632 114.725 65.4127 115.558C65.954 116.182 66.0789 117.14 65.7458 117.973ZM67.1615 125.467C68.244 125.426 69.9512 127.216 69.7013 128.34C69.285 130.214 67.4113 129.798 66.1622 130.048C64.6216 130.381 65.3711 128.84 64.9963 128.257C65.0796 126.758 65.4127 125.509 67.1615 125.467ZM39.6808 178.723C38.6399 180.347 37.6406 182.012 36.5164 183.803C35.6004 182.553 35.9751 181.096 34.9758 180.222C34.3512 180.638 34.5594 181.054 34.6427 181.471C35.184 184.427 34.6011 186.967 32.8107 189.465C30.479 192.713 28.3138 196.127 25.2743 198.792C23.3173 200.499 20.3611 201.374 18.6956 200.624C20.7775 200.916 22.4846 200.041 24.1085 198.959C25.0245 198.376 25.8989 197.751 25.8156 196.377C25.2743 186.676 28.2722 177.807 32.311 169.229C34.3929 164.774 36.8911 160.568 39.5975 156.488C40.5552 156.654 40.1805 157.82 41.263 158.07C40.5968 152.407 45.3851 149.742 47.9667 145.454C48.9243 148.951 49.7571 152.116 50.5898 155.28C50.6731 155.613 50.6731 155.988 50.798 156.28C51.3393 157.737 52.7133 159.069 50.9645 160.735C49.7987 161.859 49.1325 163.275 47.3837 163.941C44.6773 164.982 43.1784 167.522 42.9702 170.312C42.762 173.601 41.3047 176.141 39.6808 178.723ZM53.4628 184.927C50.9229 185.51 49.299 184.302 47.925 182.803C45.3851 180.055 43.678 176.807 43.8029 172.935C43.8446 171.519 43.678 170.062 45.4684 169.312C46.2595 168.979 46.1762 167.897 46.1762 166.523C46.1762 165.815 47.0506 165.274 47.9667 165.149C45.635 174.809 50.3816 180.471 58.5009 184.427C56.6689 183.469 55.0034 184.552 53.4628 184.927ZM60.7493 185.676C60.208 186.384 59.4169 186.509 58.376 186.676C58.834 185.884 59.6667 185.718 59.7084 184.968C59.75 184.219 60.208 184.219 60.7077 184.469C61.3322 184.802 61.0408 185.26 60.7493 185.676ZM62.7479 157.321C60.0831 156.779 57.5849 157.695 54.5453 158.736C57.3767 156.238 60.208 155.155 63.3308 154.739C63.9554 154.656 64.9963 155.072 65.1212 154.156C65.2878 152.99 64.0387 153.532 63.4141 153.115C71.6167 149.16 79.4445 149.118 87.0225 154.489C92.2688 158.195 96.4325 163.067 100.804 167.689C102.428 169.396 104.26 170.895 106.051 172.394C107.924 173.976 107.841 174.975 106.009 176.599C103.636 178.639 100.68 178.473 98.4311 176.266C97.1404 175.017 95.5998 174.059 94.1425 173.101C92.2271 171.852 92.3937 170.02 91.8524 168.396C91.6026 167.605 91.6026 167.022 90.7698 166.481C89.7289 165.815 88.8545 164.774 88.3132 163.483C87.3972 161.276 81.9844 158.611 79.5694 159.111C79.6527 160.027 80.4854 160.027 81.0267 160.277C85.5652 162.4 89.146 165.523 91.0197 170.312C92.9766 175.267 90.3118 181.263 85.6484 182.553C84.5242 182.845 84.2744 182.72 84.1495 181.512C83.7331 178.181 83.2751 174.809 80.6103 172.352C80.1939 171.977 79.9441 171.311 79.0697 171.686C78.4452 171.936 78.0704 171.394 77.8623 170.853C76.863 168.605 75.1142 167.605 72.6992 167.605C72.3245 167.605 71.8665 167.106 71.6167 167.647C71.3668 168.23 71.9081 168.521 72.2829 168.771C73.6569 169.687 75.1558 170.478 76.405 171.561C79.4861 174.184 82.3591 177.015 82.9837 181.304C83.5249 184.885 81.1932 188.882 77.6957 189.632C76.4882 189.882 74.7811 190.465 73.6153 189.091C73.532 189.007 73.3654 188.924 73.2405 188.924C70.201 188.924 68.5771 186.301 66.1622 185.177C65.3294 184.802 65.4127 183.844 65.8291 183.178C66.4953 182.179 67.5778 181.304 68.7853 181.929C70.4508 182.762 72.0747 183.761 73.3238 185.177C74.2814 186.259 74.1982 186.301 75.6555 185.593C73.99 184.011 71.8665 183.095 70.5341 181.179C70.2426 180.763 68.702 180.888 68.1608 179.889C68.3273 179.805 68.4939 179.68 68.6188 179.597C67.6611 178.306 66.2871 177.64 64.8714 177.015C64.7881 176.974 64.8714 177.473 64.9963 177.682C64.1219 177.723 63.4974 175.85 62.7895 176.932C62.0817 178.098 63.7472 178.223 64.455 178.764C65.2878 179.389 66.1622 179.93 67.1615 180.638C66.0789 181.346 65.2878 182.22 64.455 183.011C63.7056 183.719 62.2483 182.762 61.4155 182.179C59.9582 181.138 58.7507 179.889 56.7938 180.596C56.7521 180.596 56.6689 180.555 56.5856 180.513C54.3372 178.889 51.256 178.473 49.7987 175.683C48.2165 172.685 47.5086 169.562 48.841 166.314C50.7564 161.568 52.1304 161.11 56.7105 163.483C57.2518 163.775 57.8763 164.357 58.2511 163.441C58.5425 162.692 57.8763 162.317 57.2934 162.109C55.8777 161.609 54.4621 161.193 52.9631 160.693C55.961 158.778 59.2087 158.486 62.5814 158.945C63.2059 159.028 63.9554 159.403 64.1636 158.57C64.2885 157.612 63.3725 157.446 62.7479 157.321ZM91.2695 108.854C90.52 113.392 89.0211 117.681 86.9808 121.803C86.1065 123.594 84.2328 124.426 83.1502 126.05C82.2758 127.341 80.8185 128.257 79.6943 129.298C74.9477 133.629 69.0768 134.087 63.2892 135.003C60.9575 135.377 58.6258 135.669 56.2941 135.211C55.5863 135.086 54.7535 135.419 54.2955 134.503C54.0873 134.128 53.4628 134.087 53.1713 134.378C51.7973 135.752 50.2983 134.711 49.2158 134.253C47.8417 133.629 46.3844 132.962 44.8022 131.963C46.9257 130.464 48.5496 129.465 51.256 130.339C59.5418 133.004 67.6611 131.963 75.364 127.882C80.4854 125.176 82.7755 120.221 85.1904 115.391C86.8559 112.102 87.6054 108.646 87.1058 104.94C86.8559 103.066 86.3146 101.317 84.3161 100.693C82.3591 100.068 80.7769 101.151 79.4861 102.442C76.6964 105.231 74.2814 108.354 71.0337 110.728C65.038 115.141 58.4176 117.473 50.9229 117.306C49.3407 117.265 47.7168 117.931 46.1762 117.431C43.4282 116.557 40.5552 116.807 37.7239 115.849C34.6843 114.808 31.6864 113.725 28.6469 112.643C27.5644 112.268 26.6067 112.643 25.8572 113.517C25.1077 114.392 25.3159 115.224 25.8156 116.182C26.9814 118.389 28.2722 120.513 30.479 121.887C30.9786 122.178 32.2277 122.303 31.6448 123.386C30.9786 124.635 29.2715 124.926 28.3555 124.093C26.8149 122.678 25.3576 121.179 24.3999 119.305C23.359 117.223 22.3597 115.1 22.0266 112.685C21.6518 109.895 24.275 107.771 26.69 108.188C30.021 108.729 33.2687 109.77 35.642 112.476C36.1833 113.101 36.8911 113.392 37.6406 113.434C44.5524 114.017 51.4226 114.433 58.2094 112.476C65.0796 110.519 70.4925 106.522 74.906 101.109C76.3633 99.3187 77.9455 97.7364 79.7776 96.3207C83.0669 93.8641 86.9808 94.4887 89.3542 97.903C91.7275 101.276 91.8941 105.023 91.2695 108.854ZM71.9498 111.227C73.1989 110.061 74.3231 108.562 75.822 107.938C76.5715 107.646 77.1128 109.395 77.321 110.353C77.2793 111.81 76.7797 112.726 75.4473 113.143C74.0316 113.559 73.0323 113.018 72.1996 111.977C72.0747 111.727 71.9081 111.31 71.9498 111.227ZM77.4043 120.471C77.4875 119.388 78.0704 118.68 79.0281 118.264C79.0697 118.222 79.153 118.222 79.3196 118.222C80.2772 118.847 81.4014 119.596 81.1516 120.887C80.9018 122.053 80.0274 123.094 79.153 123.968C78.9865 124.135 78.4868 124.218 78.4452 124.135C77.5708 123.052 77.321 121.803 77.4043 120.471ZM95.6414 78.8327C99.4304 75.1269 103.719 72.0873 108.716 70.2553C108.799 70.2136 108.965 70.2969 109.34 70.4218C105.967 72.0873 102.72 73.6696 99.9301 75.9181C97.6816 77.7085 95.2667 79.374 94.2674 82.372C94.0175 83.1214 93.9343 83.5378 94.8087 83.6211C94.6421 84.5788 94.1425 85.3699 93.6845 86.2443C93.0183 84.0375 93.7677 80.6232 95.6414 78.8327ZM97.5567 81.6641C96.4742 81.9556 95.7663 82.7051 94.9752 83.4129C95.3916 82.1638 96.0161 81.1228 97.5151 80.9979C98.8475 80.873 99.7219 81.4976 100.471 83.1631C99.3471 82.2887 98.7226 81.3727 97.5567 81.6641ZM106.301 185.801C109.215 179.722 114.17 176.724 120.874 176.641C122.706 176.641 124.454 176.891 126.203 177.473C129.867 178.723 131.699 180.971 131.283 184.76C130.242 194.587 122.497 201.707 111.297 197.959C106.009 196.169 103.886 190.881 106.301 185.801ZM119.833 169.854C120.541 171.686 121.04 173.56 120.707 175.558C120.416 173.684 120.124 171.769 119.833 169.854ZM132.241 193.463C133.615 193.463 132.449 194.462 132.99 194.837C133.323 194.545 133.656 194.254 133.989 193.962C134.364 194.962 133.198 195.544 133.24 196.669C134.614 196.002 134.697 194.628 135.405 193.629C134.614 200.666 125.995 206.662 117.876 205.746C118.958 205.329 120.124 205.912 121.373 204.788C119.916 205.08 119.25 204.455 119.083 203.581C118.917 202.665 119.916 202.665 120.499 202.415C120.874 202.248 120.957 202.082 120.749 201.624C120.457 201.041 120.291 200.416 119.541 200.374C118.375 200.333 117.251 200.374 116.085 200.291C124.496 200.541 129.159 195.753 131.949 188.424C132.49 189.007 132.074 189.465 131.908 189.882C131.699 190.381 131.366 190.839 131.158 191.381C130.825 192.38 130.742 193.463 132.241 193.463ZM132.157 210.118C131.741 210.368 131.366 210.368 131.075 209.993C130.7 209.535 131.033 209.202 131.325 208.952C132.99 207.661 134.656 206.412 136.321 205.121C135.988 207.786 134.073 208.952 132.157 210.118ZM137.32 208.119C136.529 209.66 135.322 210.659 133.989 211.534C133.698 211.7 133.323 211.825 133.032 211.534C132.907 211.45 132.824 211.076 132.865 210.992C134.281 209.91 135.405 208.327 137.32 208.119ZM133.864 203.622C134.156 203.414 134.531 203.289 134.822 203.539C135.155 203.83 135.155 204.247 134.947 204.663C134.156 206.412 131.45 207.744 129.284 207.203C130.867 205.996 132.366 204.788 133.864 203.622ZM128.493 205.454C128.243 204.996 128.743 204.705 129.076 204.538C130.658 203.622 131.866 201.998 134.198 201.249C133.032 203.539 131.408 204.58 129.784 205.579C129.326 205.871 128.785 205.954 128.493 205.454ZM108.507 198.584C112.546 198.667 112.838 201.998 114.087 204.455C111.672 203.081 110.131 200.916 108.507 198.584ZM89.604 223.359C89.0627 225.108 89.146 226.94 88.8545 228.73C88.3965 225.774 89.0211 222.984 90.1036 220.236C90.4784 221.36 89.8955 222.359 89.604 223.359ZM127.952 223.609C127.577 224.733 127.494 225.857 125.953 226.357C124.871 226.731 124.038 227.897 123.247 228.855C122.497 229.729 122.123 230.271 120.582 229.729C119 229.188 116.876 229.854 115.169 230.437C114.337 230.729 115.627 230.729 115.669 231.062C114.003 231.52 112.754 231.062 111.963 229.438C111.089 227.647 113.087 226.815 113.254 225.191C112.588 224.983 111.422 226.898 111.047 224.566C111.339 227.856 109.382 230.146 108.716 233.019C109.84 231.77 110.631 231.811 111.838 232.852C113.629 234.393 116.627 233.976 118.542 232.519C119.125 232.103 120.041 231.437 120.79 232.019C121.457 232.519 121.623 233.56 121.248 234.31C120.707 235.351 120.249 236.683 118.625 236.392C118.167 236.308 117.751 236.558 117.543 236.85C114.919 239.972 109.34 241.346 105.676 239.931C97.5984 236.808 97.5151 231.395 100.763 224.275C101.179 223.359 102.054 222.568 101.637 221.443C101.596 221.318 101.262 221.152 101.138 221.194C99.8884 221.61 100.055 222.859 99.6802 223.775C99.1389 225.108 98.6809 226.523 98.4727 227.939C98.3062 228.98 96.7656 228.73 96.8905 230.229C97.0987 232.228 97.4734 234.101 98.3062 235.933C94.0592 235.684 90.9364 232.894 90.52 228.772C90.2286 225.899 90.6033 223.109 92.0606 220.527C92.477 219.82 92.7684 219.028 93.1015 218.279C93.3097 217.863 93.4346 217.446 93.0183 217.196C92.3937 216.822 92.2271 217.404 91.9357 217.779C91.3111 218.57 91.436 219.861 90.2702 220.236C90.2286 219.944 90.4784 219.07 89.8955 219.986C88.8962 221.485 88.4381 223.275 88.3549 225.108C88.3132 225.982 88.3549 226.856 88.3549 227.897C85.0655 224.983 83.9413 218.945 85.7317 214.49C86.1481 213.449 86.6894 212.491 87.1058 211.45C88.23 208.702 90.3118 207.495 93.2264 207.328C97.9315 207.037 102.553 206.245 107.092 204.788C107.55 204.622 108.008 204.538 108.466 204.33C110.839 203.414 111.214 203.539 112.838 206.037C111.13 206.703 109.423 207.161 107.633 207.245C106.883 207.286 105.509 207.12 105.634 208.119C105.759 209.368 106.967 208.536 107.675 208.411C108.882 208.244 110.09 207.911 111.339 207.911C109.382 208.952 107.425 209.91 105.509 210.992C104.802 211.409 103.677 212.116 104.385 213.074C105.051 213.949 106.009 213.241 106.759 212.699C109.382 210.701 112.255 208.994 115.461 207.162C115.086 208.577 114.337 209.368 113.754 210.201C113.337 210.784 112.879 211.284 112.505 211.867C112.047 212.616 111.339 213.699 112.38 214.198C113.379 214.656 113.795 213.449 114.17 212.658C114.586 211.7 114.961 210.742 115.461 209.826C117.21 206.62 121.04 206.329 123.33 209.243C124.538 210.784 125.745 212.408 126.62 214.157C127.494 215.822 128.618 217.363 127.869 219.695C127.369 220.486 128.452 222.11 127.952 223.609ZM130.742 219.028C130.533 219.237 129.243 218.321 129.076 217.738C128.368 215.031 126.953 212.658 125.329 210.368C124.829 209.66 124.954 208.702 125.412 208.619C126.328 208.411 125.412 207.037 126.411 207.203C127.286 206.912 127.619 207.453 127.994 207.994C129.701 210.368 130.867 213.032 131.991 215.739C132.615 217.28 131.574 218.112 130.742 219.028ZM133.989 215.822C135.447 215.031 136.654 214.073 137.737 212.783C137.82 215.489 136.071 216.905 133.989 215.822ZM132.407 213.782C134.322 212.366 136.155 211.034 137.945 209.701C137.112 213.116 135.28 214.365 132.407 213.782ZM148.104 167.522C147.438 171.269 146.106 174.559 142.733 176.682C142.275 176.974 141.734 177.182 141.567 177.932C142.359 178.556 143.108 177.682 143.982 178.098C142.317 181.804 139.735 184.843 137.195 187.925C136.571 188.716 136.113 188.466 135.738 187.55C135.072 186.009 134.239 184.594 133.656 183.011C132.49 179.93 130.117 178.098 127.244 176.891C126.37 176.516 126.162 176.141 126.203 175.225C126.411 165.981 130.159 158.07 135.114 150.575C136.113 149.076 137.154 147.619 138.32 146.203C138.944 145.454 138.653 144.996 138.111 144.454C136.613 143.122 135.114 141.748 133.656 140.374C133.115 139.833 132.657 139.416 131.949 140.166C126.578 145.62 121.457 151.241 119.083 158.778C118.5 160.61 118.542 162.442 119.042 164.316C118.126 162.442 118.084 160.402 117.668 158.445C116.002 150.034 112.838 142.164 109.132 134.461C107.924 131.921 107.924 131.921 110.756 132.13C116.585 132.588 122.373 133.629 127.661 136.002C135.239 139.375 140.485 145.454 144.732 152.491C147.438 157.154 149.104 161.984 148.104 167.522Z" fill="white"/>
<path d="M168.673 86.4943C171.754 88.2848 174.377 89.9087 177 91.6991C170.047 80.2486 159.554 72.1708 150.061 62.9688C149.603 63.9265 150.061 64.551 150.186 65.2173C150.893 68.8398 152.85 72.0459 153.891 75.5435C156.056 82.7469 158.055 90.0336 160.637 97.1121C160.845 97.7366 160.803 98.7776 161.594 98.736C162.469 98.6943 162.135 97.6534 162.219 97.0288C162.593 94.239 162.968 91.4493 163.385 88.3681C165.217 89.7421 165.55 91.5742 166.382 93.1148C168.548 96.9455 170.088 100.818 169.547 105.481C168.631 113.226 164.759 118.681 158.222 122.636C155.432 124.302 152.392 125.551 149.436 126.883C148.812 127.175 147.521 127.591 148.312 128.632C149.436 130.131 150.768 131.422 152.059 132.754C152.725 133.462 153.308 132.796 153.891 132.421C157.555 130.173 161.303 128.091 164.467 125.176C167.59 122.345 171.129 119.68 172.795 115.724C175.834 108.438 176.334 100.984 172.586 93.6145C171.462 91.366 170.005 89.2008 168.673 86.4943Z" fill="white"/>
<path d="M112.338 238.765C108.924 239.764 105.843 238.973 102.97 237.141C104.802 239.972 109.632 240.805 112.338 238.765Z" fill="white"/>
<path d="M56.5435 105.148C61.2069 108.354 66.7446 105.065 67.8689 100.943C68.9514 96.9038 69.4927 92.8232 69.0347 88.3263C68.9514 87.1605 68.8265 85.7031 68.7016 84.2458C68.2852 79.7072 67.1194 75.5018 64.2464 71.7543C60.2908 66.5496 54.4616 68.0485 51.9217 72.7953C48.216 79.6656 48.7157 87.0772 50.0064 94.4888C50.7975 98.9441 52.7129 102.525 56.5435 105.148ZM52.1716 74.4192C54.3783 69.381 59.2916 68.3816 63.0806 72.3373C65.2873 74.669 66.6197 77.4171 67.1194 80.54C68.0354 86.2861 68.8681 92.0321 67.7439 97.8615C67.3692 99.6935 66.8696 101.484 65.5788 102.941C62.8307 106.064 59.583 106.314 56.252 103.816C53.3374 101.651 52.0467 98.5693 51.2555 95.2383C50.5061 91.9905 50.1313 88.7011 50.2563 85.2867C50.173 81.5809 50.631 77.9584 52.1716 74.4192Z" fill="white"/>
<path d="M120.54 184.885C119.749 185.385 118.708 185.926 118.708 187.134C122.997 186.551 126.244 183.928 129.742 181.679C126.328 181.887 123.288 183.095 120.54 184.885Z" fill="white"/>
<path d="M117.75 188.716C118.5 189.091 118.5 189.84 118.75 190.465C119.707 192.713 121.206 194.379 123.496 195.336C122.497 193.046 120.998 191.089 119.499 189.174C118.999 188.591 118.541 188.05 118.666 187.217C118.125 187.092 117.459 186.676 117.084 187.425C116.751 188.008 117.209 188.466 117.75 188.716Z" fill="white"/>
<path d="M118.667 187.175C118.708 187.175 118.708 187.134 118.708 187.134C118.666 187.134 118.667 187.133 118.667 187.175C118.625 187.175 118.625 187.133 118.667 187.175C118.625 187.175 118.625 187.175 118.667 187.175C118.667 187.217 118.667 187.217 118.667 187.175C118.708 187.217 118.667 187.217 118.667 187.175Z" fill="white"/>
<path d="M33.0183 79.3739C31.7275 77.2087 29.0211 76.7923 27.8969 78.5411C26.3147 81.0394 26.4812 83.8291 26.6478 86.6189C26.7311 88.1595 28.5631 87.993 29.3542 88.909C29.4791 89.0756 29.6873 89.1588 29.8539 89.3254C32.1856 91.2407 32.1439 91.2407 29.5208 92.823C28.688 93.3227 27.3556 93.4892 27.4805 94.8633C27.7304 97.2783 27.9802 99.6933 29.4791 101.734C30.5201 103.149 31.9774 103.524 33.6845 103.274C35.3916 103.024 35.8913 101.734 36.0995 100.318C36.266 99.4435 36.266 98.5274 36.3077 97.6114C35.9746 93.4059 35.5998 89.2005 34.8087 85.0367C34.3923 83.0797 34.0592 81.1227 33.0183 79.3739Z" fill="white"/>
<path d="M56.0025 86.1612C57.668 86.9524 59.2919 87.8268 61.3737 88.8677C60.5826 89.2841 60.2079 89.4923 59.8331 89.6588C54.6701 92.0739 54.6701 92.0739 56.1274 97.5701C56.8769 100.401 58.8755 101.984 61.457 101.776C63.872 101.609 65.4958 99.7353 65.7456 96.779C66.0787 93.0315 65.9955 89.3257 65.5791 85.5783C65.246 82.7053 64.9545 79.7906 63.7887 77.0841C62.8727 74.8773 60.8324 73.42 59.0837 73.5865C57.0434 73.7531 55.5029 75.3353 54.9199 77.8752C54.4203 79.9155 54.5868 81.9974 54.6285 84.0793C54.6701 85.1203 55.0865 85.7032 56.0025 86.1612Z" fill="white"/>
</g>
</svg>
