<svg width="130" height="237" viewBox="0 0 130 237" fill="none" xmlns="http://www.w3.org/2000/svg">
<g opacity="0.08">
<path d="M67.0299 168.659C66.9877 168.659 66.9877 168.701 66.9455 168.701C66.9877 168.659 67.0299 168.659 67.0299 168.659Z" fill="white"/>
<path d="M43.3688 162.247C38.4764 160.728 33.584 159.167 28.6493 157.944C25.1487 157.1 21.5216 156.552 17.9366 156.341C14.0142 156.088 10.0496 156.298 5.91637 156.298C3.93408 153.556 1.99397 150.392 1.90962 146.385C1.86745 144.697 1.10828 143.01 0.517807 141.407C0.306931 140.816 -0.199173 140.352 -0.916168 139.466C-1.54881 143.01 -1.88623 145.879 0.517807 148.41C0.349106 148.494 0.138245 148.578 -0.0304565 148.663C-5.09161 142.926 -10.1949 137.188 -15.2561 131.451C-15.5513 131.662 -15.8044 131.873 -16.0996 132.042C-14.8343 137.146 -12.3037 141.66 -8.97182 145.836C-9.1827 146.005 -9.43576 146.174 -9.64664 146.343C-13.9908 142.082 -18.3771 137.821 -23.0165 133.307C-23.0165 134.024 -23.0587 134.277 -23.0165 134.488C-22.89 135.037 -22.8056 135.585 -22.5947 136.091C-20.5281 141.196 -19.4315 146.807 -14.9187 150.983C-17.6601 149.591 -20.1063 148.283 -22.5947 147.018C-22.7634 147.313 -22.9743 147.608 -23.143 147.903C-21.1607 149.633 -19.0519 151.278 -17.1962 153.177C-15.9731 154.442 -15.2982 156.341 -13.9908 157.522C-12.7255 158.661 -10.9963 159.209 -9.47794 160.011C-10.3215 160.137 -11.0806 160.011 -11.7976 159.8C-15.0452 158.998 -18.1662 159.167 -21.3294 160.39C-25.8845 162.162 -30.4395 163.976 -35.4585 164.187C-36.0489 164.229 -36.6394 164.904 -37.1877 165.284C-41.0257 164.693 -45.0325 164.483 -49.0392 164.44C-54.2269 164.356 -59.4989 164.904 -64.3492 162.204C-64.9396 161.867 -65.6988 161.909 -66.4158 161.74C-66.458 161.867 -66.5001 161.994 -66.5423 162.162C-65.9097 162.669 -65.3192 163.175 -64.6866 163.639C-64.7287 163.765 -64.8131 163.85 -64.8553 163.976C-65.6144 163.765 -66.3736 163.597 -67.175 163.386C-67.2171 163.512 -67.2593 163.597 -67.3015 163.723C-66.4158 164.272 -65.5301 164.82 -64.6022 165.411C-64.6866 165.537 -64.7709 165.706 -64.8553 165.832C-65.5723 165.706 -66.2471 165.622 -66.9641 165.495C-62.5778 168.406 -57.7697 170.009 -52.7507 170.979C-41.8271 173.004 -30.9034 172.16 -19.9376 170.853C-17.8288 170.599 -15.6357 170.81 -13.4847 170.81C-13.4847 171.063 -13.4847 171.317 -13.4847 171.57C-14.3282 171.612 -15.1295 171.696 -16.184 171.738C-15.9309 173.806 -15.72 175.746 -15.3826 177.644C-15.003 180.091 -13.4847 181.863 -11.165 182.243C-7.15825 182.96 -4.12155 184.9 -1.92839 188.528C-1.46445 187.221 -1.08487 186.208 -0.705276 185.196C-0.452225 186.63 -0.4944 187.938 -0.663101 189.246C-1.16922 192.578 -1.59099 195.911 -2.30799 199.201C-2.89845 201.817 -3.82633 204.348 -4.62768 206.921C-5.68208 210.381 -4.71203 213.249 -1.67534 215.148C1.31917 217.004 4.4402 218.649 7.56125 220.294C13.5924 223.458 20.0876 225.441 26.6671 227.002C28.7759 227.508 30.3364 228.478 31.2643 230.335C32.0656 231.98 32.6561 233.667 33.3731 235.355C33.6261 235.945 34.0057 236.452 34.3431 237C34.4697 236.916 34.5962 236.831 34.7649 236.789C34.6384 235.945 34.4697 235.059 34.3431 234.216C34.4697 234.174 34.5962 234.131 34.7649 234.089C35.1445 234.764 35.524 235.439 35.9036 236.114C36.0723 232.149 34.9758 228.647 33.1622 225.314C33.0357 225.061 32.7404 224.85 32.4874 224.682C29.535 222.446 26.5405 220.252 23.5882 218.016C19.3284 214.81 15.153 211.562 10.6823 208.103C10.9775 207.807 11.821 207.301 12.3693 206.584C14.689 203.336 16.84 199.961 19.2862 196.755C22.7447 192.241 22.7868 187.685 20.0454 182.833C19.7502 182.285 19.7502 181.526 19.6236 180.893C22.9977 184.31 23.5038 188.402 22.3651 192.494C21.7324 194.688 21.859 196.417 22.7868 198.316C23.2508 199.328 23.6725 200.34 24.0943 201.353C26.4562 206.584 29.4928 211.182 35.2288 213.334C40.7117 215.359 46.1525 217.426 51.6354 219.451C56.1904 221.18 59.9019 223.711 60.9985 228.9C61.125 229.575 61.7155 230.166 62.095 230.799C62.1794 230.714 62.3059 230.672 62.3903 230.588C62.1372 229.617 61.842 228.647 61.5889 227.677C61.7576 227.635 61.9263 227.55 62.095 227.508C62.559 228.478 63.0651 229.449 63.529 230.419C63.7399 230.335 63.9086 230.25 64.1195 230.166C63.6556 224.85 63.6134 219.366 58.4257 215.823C54.7564 213.334 51.1292 210.845 47.4177 208.44C45.0559 206.921 42.3144 205.782 40.3321 203.884C38.8138 202.408 38.0968 200.045 37.1689 197.978C36.4941 196.459 36.0723 194.856 35.6928 193.253C35.4397 192.241 35.3553 191.102 35.3975 190.047C35.5662 187.938 36.1145 185.829 36.0723 183.719C36.0302 181.737 34.9758 180.302 32.5295 180.724C31.0956 180.977 29.5772 180.977 28.101 181.104C28.101 180.851 28.101 180.598 28.101 180.344C37.0002 179.332 45.8994 182.285 54.8829 180.935C54.3346 180.302 53.702 179.88 53.0272 179.754C50.0748 179.121 47.1647 178.53 44.2124 177.982C40.6696 177.307 37.0846 175.999 33.4574 177.307C29.3663 178.784 25.2331 178.573 21.0576 178.362C19.6658 178.277 18.3162 177.56 16.9243 177.096C17.0087 176.885 17.0509 176.674 17.1352 176.463C21.6903 177.982 26.2875 177.94 31.0956 177.054C25.0222 175.915 20.9733 172.329 17.6414 166.55C24.7691 167.182 31.3486 167.815 37.9281 168.406C38.8138 168.49 39.7417 168.364 40.5852 168.617C41.7661 168.996 42.8205 169.967 43.9593 170.093C50.1592 170.684 56.4013 171.148 62.6012 171.528C63.8243 171.612 65.4692 171.823 65.427 169.629C65.427 169.334 66.4392 169.039 67.0297 168.743C65.3426 168.575 63.5291 168.659 61.9264 168.153C55.6843 166.254 49.5266 164.187 43.3688 162.247ZM3.38579 171.738C1.65657 169.882 -0.0304565 168.068 -1.75969 166.212C-1.59099 166.043 -1.38011 165.832 -1.21141 165.664C0.517807 167.478 2.28922 169.334 4.01843 171.148C3.80756 171.359 3.59666 171.57 3.38579 171.738ZM10.7666 169.798C9.24828 168.237 7.68776 166.676 6.16942 165.115C6.42249 164.862 6.67555 164.609 6.92862 164.398C8.40479 166.001 9.88094 167.604 11.3571 169.207C11.1462 169.376 10.9353 169.587 10.7666 169.798Z" fill="white"/>
<path d="M1.52936 36.1111C0.43277 36.2798 -0.368576 36.4064 -1.16992 36.5329C-1.16992 36.8704 -1.16992 37.1657 -1.16992 37.5032C10.5972 38.6844 22.3644 40.0344 34.1737 40.9624C39.0661 41.3421 43.9586 40.2875 48.4293 38.3469C45.8565 42.8608 47.5436 47.0372 52.8156 48.6403C52.183 49.6105 51.719 50.7917 50.9177 51.5089C44.0851 57.4993 37.4635 63.7428 31.7697 70.83C29.2813 73.9518 28.733 76.6095 30.8418 79.9843C32.1071 81.9671 34.005 83.6545 35.9029 85.0466C38.7709 87.1137 41.9341 88.7168 44.8443 90.7417C47.417 92.5557 48.0075 95.0025 46.9953 97.9977C46.8688 98.3352 46.8688 98.7149 46.7844 99.3476C47.5014 98.968 47.9653 98.757 48.5558 98.4196C48.4715 99.0945 48.4293 99.5164 48.3871 99.8961C48.598 100.023 48.8089 100.107 49.0197 100.234C49.6524 99.432 50.3694 98.6727 50.8755 97.7868C52.8578 94.3697 52.1408 91.037 50.285 87.9575C47.881 83.9498 45.2239 80.1109 42.7777 76.4407C42.9464 76.5251 43.5368 76.7782 43.6212 76.8204C49.315 72.0112 54.6713 67.4973 59.9012 63.0678C58.1298 61.0851 56.5271 59.3133 54.9244 57.4993C55.0931 57.4149 55.2196 57.2884 55.3883 57.204C57.1597 57.879 58.9733 58.5539 60.7447 59.2711C60.8291 58.3852 60.9556 57.4571 61.0399 56.529C61.2508 56.529 61.4617 56.5712 61.7148 56.5712C61.5461 60.0304 61.0399 63.4897 61.293 66.9067C61.7569 73.5299 62.6427 80.1109 63.444 86.6919C64.2875 93.8213 66.4807 100.318 71.3731 105.844C73.9037 108.713 76.0968 112.088 75.2955 116.517C75.7594 115.8 76.2234 115.083 77.0247 113.775C76.7717 115.463 76.6451 116.433 76.3921 118.036C79.4709 115.083 80.4832 112.046 79.724 108.586C78.2478 101.921 76.603 95.2556 75.0846 88.8434C75.6751 88.2106 76.3499 87.7887 76.5186 87.2403C77.6574 83.7811 78.8805 80.364 79.6818 76.8204C81.2002 70.3238 83.6886 63.8694 80.9471 57.1196C79.9771 54.715 78.9227 52.3104 77.8682 49.948C76.8982 47.7966 75.8438 45.7295 78.9226 43.4514C76.9404 43.7467 75.7594 43.9155 74.5785 44.0842C74.4942 43.8733 74.452 43.6202 74.3676 43.4092C75.0846 43.1983 75.8016 42.8608 76.5186 42.8608C80.3145 43.0296 84.0681 43.2827 87.864 43.4936C90.5633 43.6623 93.2625 44.0842 95.8775 43.7889C97.6489 43.578 98.7876 43.8311 100.179 44.8857C103.849 47.7122 106.253 51.4245 108.446 55.4322C110.47 59.1024 112.874 62.5616 115.11 66.1052C115.236 65.8099 115.363 65.5146 115.447 65.2193C116.375 64.8818 117.303 64.5865 118.315 64.2068C115.827 58.8492 113.17 53.3229 110.681 47.7122C107.265 39.9922 101.149 35.858 93.136 34.5502C86.8518 33.5377 80.441 32.9893 74.1146 32.2722C72.9336 32.1456 71.7949 32.0191 70.2344 31.8925C69.6439 28.5176 68.6317 24.8896 68.463 21.2617C68.2943 17.6759 68.9691 14.0901 69.3065 10.4621C68.9269 10.3777 68.5895 10.3355 68.2099 10.2512C67.0711 13.6682 65.9746 17.0853 64.8358 20.5023C64.5827 15.4822 59.0999 1.94055 56.0632 0C56.3584 2.99519 56.7802 5.82165 56.8223 8.6481C56.8645 11.4324 56.4427 14.1744 56.2319 16.9587C56.0632 16.9587 55.8945 16.9587 55.7257 16.9165C53.153 11.5589 50.5803 6.2435 48.0075 0.885903C47.7545 0.970274 47.4592 1.05465 47.2062 1.13902C47.8388 7.04503 48.4293 12.9511 49.1041 19.3633C47.7966 17.9712 46.9109 16.8743 45.8565 15.9462C44.8443 15.0603 43.7055 14.4276 42.6089 13.6682C42.4824 13.837 42.3981 14.0057 42.2715 14.1323C45.1395 19.068 48.0075 23.9616 50.749 28.6864C46.8266 29.4457 43.4103 30.0785 39.9519 30.7535C36.156 31.4706 32.4023 32.694 28.6065 32.8628C20.0869 33.2424 11.5251 33.0315 2.96333 33.1159C2.16199 33.1159 1.36066 33.3268 0.517136 33.4534C0.559311 33.6221 0.559311 33.7909 0.601486 33.9596C1.1076 34.044 1.57153 34.0862 2.49942 34.2549C1.48718 34.7189 0.854523 34.9721 0.264053 35.2674C0.559296 35.4361 0.938889 35.6892 1.52936 36.1111ZM63.5705 38.3891C63.5283 39.1485 63.5283 39.5281 63.4862 39.9078C62.5161 44.5904 65.0045 47.5434 68.5473 49.9902C69.1378 50.4121 69.4752 51.2136 69.9391 51.8464C69.7282 52.0151 69.4752 52.1417 69.2643 52.3104C62.3896 49.2731 60.0699 43.9998 63.5705 38.3891ZM59.7747 29.6145C59.859 29.3613 59.9434 29.1082 59.9855 28.8551C60.4495 29.7832 60.9134 30.7535 61.5882 32.1034C59.1842 30.0785 58.5515 30.1629 58.0033 32.4831C57.2863 31.091 56.7802 30.1207 56.3162 29.2348C57.5393 29.3613 58.6781 29.4879 59.7747 29.6145Z" fill="white"/>
<path d="M-78.8163 39.8658C-79.5755 39.4861 -80.0394 39.233 -81.0095 38.769C-78.5211 38.6424 -77.0028 39.1908 -75.7375 40.7939C-74.0083 42.9454 -72.7008 45.7297 -69.3689 45.9828C-69.3689 45.9828 -69.3689 46.1937 -69.3689 46.3624C-70.0015 46.4468 -70.6342 46.489 -71.309 46.5734C-70.5076 48.6827 -69.5376 50.5388 -69.158 52.5216C-68.6519 55.0105 -67.5975 58.0057 -68.4832 60.0307C-71.1403 66.1476 -74.5144 71.9692 -77.8463 77.7909C-80.166 81.8829 -80.0394 84.4563 -76.0327 87.0718C-71.1403 90.2357 -66.0791 93.1887 -60.8915 95.8464C-56.8847 97.9135 -56.6739 97.8713 -56.716 102.343C-56.716 102.596 -56.5895 102.849 -56.3786 103.524C-55.999 102.723 -55.7881 102.343 -55.5351 101.795C-55.3242 102.554 -55.1977 103.102 -55.029 103.777C-52.7515 100.529 -52.5828 97.0276 -54.6072 94.2012C-56.0412 92.2184 -57.6439 90.3623 -59.4153 88.6748C-62.4098 85.8062 -65.573 83.1063 -67.1757 81.672C-66.7961 80.4908 -66.7118 79.0987 -65.9948 78.1706C-62.5785 73.6567 -60.301 68.2569 -55.6616 65.4304C-54.3542 65.5992 -53.4685 65.7257 -52.5828 65.7679C-51.8236 65.8101 -51.0644 65.6414 -50.3474 65.8101C-49.6304 65.9789 -48.9556 66.4007 -47.9012 66.8648C-47.9434 65.5148 -48.0277 64.5445 -48.0699 63.5321C-47.3107 63.9539 -46.5937 64.3336 -45.8346 64.7133C-45.6659 64.6289 -45.4972 64.5024 -45.3285 64.418C-45.6659 63.279 -46.0454 62.0978 -46.425 60.8322C-39.466 62.7305 -32.5491 64.6289 -25.4635 66.5695C-25.6744 68.4678 -25.8852 70.5771 -26.1383 72.6864C-26.6866 77.2003 -27.4036 81.7142 -27.741 86.2702C-27.9519 89.1811 -25.1261 92.9778 -22.6798 93.5262C-23.1438 92.6403 -23.5655 91.881 -23.9451 91.1216C-23.6921 90.8685 -23.439 90.6576 -23.1438 90.4045C-22.6377 91.4591 -22.1316 92.5137 -21.5833 93.5684C-21.3302 93.3575 -21.0772 93.1465 -20.8241 92.8934C-20.9084 92.5559 -20.9506 92.1763 -21.1615 91.881C-23.0173 89.0123 -23.1438 85.8906 -22.0894 82.7688C-20.4023 77.8331 -18.5044 72.9817 -16.7752 68.0882C-16.1425 66.3163 -15.6364 64.418 -15.5521 62.604C-15.5099 61.6337 -16.2691 60.115 -17.1126 59.7354C-21.288 57.7526 -25.5478 55.8121 -29.9342 54.2934C-34.4048 52.7325 -38.6224 51.0451 -41.2374 46.7843C-41.9544 45.6453 -42.8401 44.6328 -43.6836 43.6204C-44.738 42.3548 -45.8346 41.1736 -46.8468 39.9924C-47.0999 37.2081 -47.3529 34.3817 -47.606 31.513C-47.3107 31.4708 -47.0155 31.4287 -46.7624 31.3865C-45.1598 33.8332 -12.6419 37.419 -3.02575 36.1957C-2.60399 36.1535 -2.2244 35.9425 -1.63394 35.7738C-2.18223 35.4785 -2.51962 35.2676 -3.23662 34.8879C-2.26657 34.7192 -1.71829 34.6348 -1.0013 34.5082C-1.5074 34.1707 -1.88698 33.9598 -2.43527 33.6223C-1.59175 33.4114 -1.04346 33.2848 -0.452988 33.1583C-0.452988 32.9473 -0.452988 32.7364 -0.452988 32.4833C-5.47195 31.4287 -10.4487 30.3318 -15.4677 29.3194C-19.0527 28.6022 -22.6798 28.1803 -26.5179 30.3318C-26.0118 29.4037 -25.7587 28.9819 -25.2526 28.1382C-36.1762 26.7882 -46.8046 25.4383 -58.0235 24.0461C-60.6806 20.2916 -59.1622 14.8918 -60.4697 9.32327C-61.3132 11.8966 -61.9459 13.8372 -62.705 16.2418C-65.9948 10.842 -69.0315 5.82185 -72.0682 0.801734C-72.3212 0.928292 -72.5743 1.05485 -72.8273 1.18141C-72.026 6.15934 -71.2246 11.0951 -70.4233 16.073C-70.6763 16.1574 -70.9294 16.2839 -71.1403 16.4105C-74.177 12.8247 -77.2558 9.28109 -80.2925 5.69529C-80.6299 5.86404 -80.9252 6.03278 -81.2626 6.20152C-79.449 11.6857 -77.5932 17.1698 -75.7375 22.8227C-77.7198 22.4431 -79.4068 22.1056 -81.136 21.7681C-79.2381 25.2695 -74.8518 25.5226 -73.7552 28.8553C-91.2583 34.9301 -107.243 42.9876 -119.221 56.6558C-118.209 57.4995 -117.534 58.0901 -116.606 58.8495C-105.261 51.0873 -93.1984 43.536 -78.8163 39.8658ZM-64.856 24.6367C-64.3077 25.4383 -63.886 26.1132 -63.6751 26.4085C-65.1934 26.9991 -66.6274 27.5897 -68.1458 28.2225C-68.2723 27.7585 -68.4832 27.0413 -68.7362 26.1976C-66.4165 27.2101 -65.9104 26.9991 -64.856 24.6367Z" fill="white"/>
<path d="M-102.729 151.785L-102.771 151.743H-102.814L-102.729 151.785Z" fill="white"/>
<path d="M-68.4409 160.517C-72.0681 157.142 -75.8639 153.894 -79.4911 150.519C-81.5999 148.536 -83.8774 146.638 -85.5645 144.318C-90.8787 137.062 -95.9398 129.637 -101.212 122.339C-102.351 120.778 -103.869 119.513 -105.219 118.078C-105.767 118.711 -106.104 119.091 -106.906 120.019C-106.653 118.669 -106.737 117.994 -106.442 117.488C-104.755 114.661 -102.983 111.877 -101.254 109.093C-100.621 108.08 -99.9887 107.026 -99.3983 105.971C-99.6935 105.76 -99.9465 105.549 -100.242 105.296C-102.013 106.941 -103.785 108.544 -105.556 110.189C-103.363 104.537 -101.085 98.8837 -98.9765 93.2308C-98.4704 91.8808 -98.4282 90.4043 -98.1751 88.97C-98.386 88.9278 -98.5969 88.8856 -98.85 88.8434C-101.802 92.5558 -104.712 96.2681 -107.665 99.9383C-107.833 99.8961 -107.96 99.8117 -108.129 99.7696C-107.159 94.3276 -106.189 88.9278 -105.176 83.4858C-105.429 83.4015 -105.683 83.3171 -105.936 83.2327C-108.93 88.6747 -111.967 94.0323 -114.835 99.0524C-115.088 97.5337 -115.467 95.4244 -115.847 93.3151C-116.269 93.3573 -116.648 93.3995 -117.07 93.3995C-117.281 99.3055 -117.45 105.212 -117.661 111.371C-118.251 109.261 -118.841 107.447 -119.305 105.549C-121.541 97.2806 -124.662 89.0544 -121.92 80.2797C-121.878 80.1531 -121.92 79.9422 -121.878 79.8157C-120.655 73.4878 -119.432 67.1599 -118.293 61.3805C-118.251 61.3383 -118.715 61.8445 -119.685 62.857C-119.685 61.1273 -119.685 60.0727 -119.685 58.9759C-119.896 58.9759 -120.149 58.9759 -120.36 58.9337C-132.97 77.9173 -132.296 97.7447 -123.607 118.163C-124.156 117.361 -124.746 116.56 -125.379 115.631C-126.981 119.934 -127.319 123.858 -124.873 127.865C-123.86 129.511 -123.565 131.704 -123.228 133.729C-122.764 136.471 -122.68 139.256 -122.258 141.955C-121.119 148.958 -120.36 156.045 -116.353 162.289C-114.54 165.115 -113.148 168.195 -111.545 171.148C-109.436 175.029 -106.906 178.741 -105.303 182.833C-102.055 191.144 -99.3139 199.623 -96.3194 208.018C-95.4759 210.381 -96.3616 211.984 -98.386 213.207C-99.4826 213.882 -100.579 214.515 -101.676 215.19C-101.634 215.317 -101.549 215.443 -101.507 215.528C-100.621 215.443 -99.7778 215.359 -98.4282 215.274C-99.2296 215.949 -99.6935 216.329 -100.284 216.835C-94.8011 217.046 -91.3004 213.629 -92.0174 208.989C-92.6922 204.39 -93.2827 199.75 -94.2528 195.194C-95.1806 190.891 -96.3616 186.546 -97.8377 182.412C-99.9044 176.759 -102.351 171.275 -104.712 165.748C-104.923 165.284 -105.725 165.115 -106.189 164.862C-105.05 162.837 -104.586 160.728 -104.502 158.661C-104.502 160.264 -104.502 161.867 -104.459 163.47C-104.459 164.145 -104.08 164.778 -103.7 165.833C-101.381 160.897 -101.634 156.341 -102.772 151.743C-103.321 151.405 -103.911 151.068 -104.459 150.73C-104.459 152.924 -104.459 155.117 -104.459 157.269C-104.586 154.274 -105.345 151.236 -106.02 148.157C-105.851 148.072 -105.683 147.988 -105.472 147.904C-104.544 149.169 -103.616 150.435 -102.688 151.7C-102.477 151.785 -102.266 151.827 -102.14 151.996C-97.8799 156.678 -93.7045 161.361 -89.4025 166.044C-88.2637 167.267 -86.9985 168.364 -85.8175 169.503C-85.5645 169.292 -85.3536 169.123 -85.1005 168.912C-86.2393 167.183 -87.1672 165.284 -88.4746 163.723C-92.6501 158.788 -96.952 153.894 -101.254 149.085C-103.911 146.132 -103.911 142.63 -103.363 139.129C-103.11 137.568 -102.308 136.092 -101.802 134.742C-101.296 135.923 -101.17 136.935 -100.579 137.526C-96.1507 141.998 -91.6378 146.427 -87.125 150.814C-84.5522 153.346 -81.9373 155.835 -79.1537 158.155C-77.1714 159.842 -74.9782 161.277 -72.7851 162.669C-71.2667 163.639 -69.5797 164.356 -68.0192 165.158C-67.8083 163.934 -67.5552 163.175 -67.5974 162.416C-67.7661 161.783 -67.977 160.939 -68.4409 160.517Z" fill="white"/>
<path d="M66.9876 168.659C67.0298 168.659 67.0298 168.617 67.0298 168.617C67.0298 168.659 66.9876 168.659 66.9876 168.659Z" fill="white"/>
<path d="M120.931 106.941C122.744 104.241 124.684 101.668 126.456 98.9679C128.691 95.5931 130.589 91.9651 129.83 87.7887C128.269 79.4781 124.01 72.4752 119.033 65.2615C119.201 66.4849 119.328 67.202 119.497 68.5941C118.484 67.4551 117.894 66.7802 117.304 66.1052C117.219 66.1896 117.135 66.2317 117.05 66.3161C117.304 66.9911 117.599 67.6661 117.852 68.3832C117.683 68.552 117.472 68.6785 117.304 68.8473C116.966 68.2988 116.671 67.7082 116.333 67.1598C116.46 68.5098 116.84 69.691 117.304 70.8722C119.033 75.2173 120.846 79.4781 122.533 83.8232C124.389 88.5902 123.039 92.9354 120.256 96.8165C117.008 101.373 113.381 105.675 109.923 110.105C109.67 104.958 109.417 99.6007 109.163 94.2853C108.868 94.2853 108.615 94.2853 108.32 94.3275C108.151 96.6899 107.983 99.0523 107.814 101.415C106.506 95.5931 105.325 89.7293 102.964 84.2873C102.753 84.3295 102.584 84.3717 102.373 84.4138C102.373 89.3074 102.373 94.2431 102.373 99.9382C100.053 96.0993 98.029 92.8088 96.0467 89.5183C95.7515 89.6449 95.4984 89.7714 95.2032 89.898C95.9624 96.479 96.7215 103.102 97.5229 110.189C95.8358 108.797 94.5284 107.743 92.9257 106.477C93.1366 109.388 98.3242 117.53 99.463 117.192C99.8847 116.77 100.264 116.306 100.686 115.884C98.7038 120.567 96.595 125.123 94.2331 129.553C92.6304 132.632 92.2509 134.826 93.8957 138.243C95.4984 133.687 96.8481 129.721 98.4508 125.165C98.1555 129.468 97.1011 132.843 95.3719 136.218C92.9257 141.027 90.9434 146.09 88.7502 151.067C88.5815 151.405 88.3707 152.08 88.202 152.038C85.6292 151.785 85.334 154.316 83.9843 155.497C80.0619 159.041 76.3504 162.795 72.3015 166.212C70.8675 167.436 68.7591 167.9 66.9455 168.701C66.6925 168.996 66.439 169.292 66.1438 169.629C66.439 169.714 66.8186 169.882 67.2825 170.051C66.8186 170.389 66.3969 170.684 65.6377 171.19C66.6921 171.19 67.3247 171.19 68.59 171.19C67.6199 171.823 67.156 172.118 66.6499 172.413C66.7764 172.667 66.903 172.92 67.0295 173.173C69.8131 171.865 72.7655 170.853 75.2538 169.165C78.0375 167.267 80.315 164.693 82.8456 162.373C84.9544 164.82 87.6958 163.976 90.2686 163.639C92.04 163.386 93.7692 162.711 95.5406 162.247C94.444 163.175 93.1787 163.554 91.9556 164.061C91.0699 164.44 90.3107 165.031 91.4495 165.917C93.1366 167.267 94.9501 166.929 96.595 166.086C96.8059 166.887 96.8481 167.815 97.2698 168.49C99.8004 172.667 102.415 176.801 105.115 180.893C106.296 182.665 107.898 184.141 108.995 185.913C113.339 193.169 117.599 200.425 121.774 207.807C122.407 208.904 122.618 210.507 122.365 211.731C121.816 213.882 120.762 215.907 119.918 217.974C120.003 218.016 120.045 218.059 120.129 218.101C120.635 217.468 121.184 216.835 121.69 216.245C121.774 216.287 121.901 216.371 121.985 216.413C121.816 216.92 121.648 217.426 121.479 217.932C121.648 218.016 121.816 218.101 122.027 218.185C123.377 215.612 124.895 213.165 125.95 210.507C126.456 209.157 126.54 207.259 125.992 205.951C123.377 199.497 120.551 193.169 117.683 186.841C117.219 185.786 115.954 185.111 115.532 184.099C113.929 180.176 112.495 176.168 111.019 172.16C109.796 168.828 108.615 165.495 107.308 162.205C107.097 161.614 106.464 161.192 106.253 160.939C106.253 157.944 106.253 154.991 106.253 151.996C111.694 158.281 116.924 164.229 123.672 168.786C123.419 167.393 122.955 166.128 122.196 165.158C117.641 159.505 113.002 153.894 108.447 148.241C107.856 147.524 107.055 146.554 107.181 145.836C107.645 142.082 107.055 138.243 108.826 134.615C110.007 132.168 110.513 129.384 111.272 126.726C111.61 125.587 111.778 124.364 112.031 123.183C112.2 123.225 112.411 123.225 112.58 123.267C112.495 124.279 112.411 125.292 112.327 126.304C113.887 123.351 115.068 120.314 116.123 117.192C116.376 116.349 115.743 115.167 116.165 114.45C117.641 111.75 119.286 109.346 120.931 106.941ZM106 130.65C102.457 138.58 98.7038 146.385 93.2209 153.177C90.606 156.425 87.4006 159.167 84.4061 162.078C84.1109 162.373 83.4782 162.289 82.9721 162.331C86.4305 158.83 90.3108 155.666 93.1787 151.742C96.0045 147.904 97.7338 143.263 100.096 139.045C100.939 137.526 102.458 136.387 103.217 134.826C104.271 132.632 104.862 130.27 105.663 127.95C106.127 126.557 106.633 125.165 107.097 123.815C107.35 123.9 107.603 123.942 107.814 124.026C107.223 126.262 106.886 128.582 106 130.65ZM109.29 123.351C108.7 121.073 108.067 118.416 107.434 115.927C109.332 117.192 109.923 119.597 109.29 123.351ZM111.652 120.609C111.188 118.247 110.724 115.884 110.26 113.522C110.555 113.48 110.851 113.396 111.146 113.353C111.525 115.716 111.863 118.12 112.242 120.483C112.031 120.567 111.821 120.609 111.652 120.609Z" fill="white"/>
<path d="M76.9408 161.403C80.2306 158.113 83.436 154.654 86.6414 151.279C86.4727 151.068 86.304 150.857 86.1353 150.646C83.4781 150.393 80.8632 150.013 78.2061 149.844C72.7654 149.549 67.3247 149.465 61.9261 149.085C56.7806 148.705 54.0813 152.122 56.1058 156.847C57.1602 159.378 58.552 161.783 59.8595 164.188C61.6309 167.436 64.0349 168.111 67.9151 166.508C66.7342 163.639 67.3669 159.8 63.1914 158.366C67.2403 159.125 70.9518 160.264 74.7055 161.319C75.4225 161.572 76.6034 161.783 76.9408 161.403Z" fill="white"/>
<path d="M-117.956 160.644C-120.022 167.478 -122.089 174.017 -123.987 180.598C-126.56 189.414 -127.951 198.442 -127.909 207.681C-127.909 208.567 -127.783 209.959 -127.234 210.296C-124.746 211.857 -122.089 213.123 -119.474 214.473C-119.348 214.22 -119.221 214.009 -119.137 213.756C-119.896 213.292 -120.697 212.827 -121.456 212.363C-121.414 212.237 -121.33 212.11 -121.288 211.984C-120.613 212.11 -119.938 212.279 -119.263 212.406C-120.022 211.14 -121.203 210.381 -121.92 209.284C-122.89 207.807 -123.945 206.162 -124.156 204.517C-125.041 198.358 -121.119 193.338 -119.727 187.685C-118.884 184.352 -116.395 181.315 -114.329 178.404C-112.178 175.451 -111.165 172.92 -113.738 169.503C-115.594 166.971 -116.522 163.723 -117.956 160.644Z" fill="white"/>
<path d="M64.1194 172.329C67.6622 177.602 69.0962 183.424 69.2227 189.667C69.518 189.625 69.771 189.583 70.0663 189.499C70.2771 188.697 70.5302 187.938 70.8255 186.799C71.1207 187.685 71.2894 188.107 71.5003 188.739C73.6934 182.074 73.3982 178.066 70.3615 172.92C68.3792 172.751 66.1439 175.113 64.1194 172.329Z" fill="white"/>
<path d="M-56.0412 76.6517C-53.8902 78.3391 -51.9079 80.2797 -50.0943 82.3046C-49.2508 83.2749 -48.9134 84.7092 -48.3229 85.8904C-47.7746 85.2576 -47.6481 84.7514 -47.6903 84.2452C-47.9011 81.0812 -49.5038 78.5079 -51.6548 76.3986C-54.4385 73.7409 -56.3785 70.9566 -55.535 66.5271C-59.7105 69.6067 -59.6261 73.8674 -56.0412 76.6517Z" fill="white"/>
<path d="M100.179 80.1529C94.0633 77.5796 86.8512 77.0312 82.6758 70.4924C81.8744 74.1203 81.8744 74.4578 84.7424 75.6812C90.394 78.128 96.13 80.3217 101.95 82.6841C102.794 80.1529 100.98 80.4904 100.179 80.1529Z" fill="white"/>
<path d="M-102.729 151.785L-102.814 151.7V151.743C-102.814 151.785 -102.771 151.785 -102.729 151.785Z" fill="white"/>
</g>
</svg>
