<svg width="172" height="67" viewBox="0 0 172 67" fill="none" xmlns="http://www.w3.org/2000/svg">
<path opacity="0.08" d="M171.874 42.1822C171.618 41.7096 171.071 41.3461 170.487 41.6005C170.012 41.8186 169.574 42.1822 169.172 42.5457C167.091 44.654 164.718 46.3262 161.98 47.4168C157.672 49.1253 153.619 49.307 150.078 45.5628C149.202 44.654 148.873 44.3996 150.334 43.6362C156.577 40.5463 161.798 36.1842 165.594 30.2589C166.142 29.3865 166.617 28.4413 165.485 27.7507C164.426 27.0963 164.025 28.1505 163.55 28.8049C163.404 28.9866 163.294 29.2411 163.185 29.4228C159.534 34.5484 155.043 38.6924 149.348 41.4915C147.924 42.1822 146.354 42.5457 144.784 41.7459C142.959 40.8008 141.133 39.8193 139.308 38.9105C138.249 38.4016 138.176 37.9654 139.198 37.3111C141.498 35.8207 143.47 33.9668 145.368 31.9674C146.062 31.2404 146.61 30.0045 147.449 29.75C148.508 29.4228 149.165 30.8042 150.042 31.3858C150.078 31.4222 150.151 31.4585 150.188 31.4949C150.772 31.8947 151.356 31.8947 151.831 31.3858C152.378 30.8042 152.269 30.1862 151.721 29.6409C151.283 29.2047 150.881 28.7685 150.37 28.4413C149.311 27.7143 149.019 26.9509 149.823 25.7513C150.553 24.6608 150.991 23.3522 151.429 22.1162C151.721 21.3528 151.721 20.4804 150.699 20.1896C149.786 19.9351 149.421 20.5531 149.092 21.2801C148.618 22.3707 148.07 23.4612 147.559 24.5518C147.157 25.4242 146.646 25.4605 145.843 24.9516C143.579 23.4249 141.279 21.9708 138.943 20.5531C138.14 20.0442 137.848 19.608 138.286 18.6628C139.052 16.9907 139.49 15.2458 139.746 13.4646C139.892 12.5922 139.637 11.8288 138.651 11.6834C137.702 11.538 137.409 12.265 137.263 13.0284C136.971 14.4461 136.716 15.8638 136.205 17.2451C135.803 18.2993 135.365 18.6265 134.197 18.0449C130.217 15.9728 126.092 14.1916 121.93 12.5195C118.388 11.1018 118.461 11.1018 119.228 7.43027C119.447 6.44878 120.396 4.92202 118.68 4.48581C116.855 4.01324 117.001 5.90351 116.672 6.92135C115.723 10.0476 115.796 10.1203 112.693 9.21148C108.02 7.86648 103.31 6.70324 98.4908 6.12162C97.1399 5.97621 96.3367 5.43094 96.9574 3.86784C97.2494 3.14081 97.3225 2.34108 97.4685 1.5777C97.578 0.814322 97.286 0.2327 96.5193 0.0509434C95.6796 -0.167165 95.2414 0.341754 95.0954 1.06878C94.8763 2.01392 94.6573 2.95905 94.5843 3.90419C94.4747 5.21283 93.8906 5.64905 92.5763 5.46729C86.9904 4.84932 81.4045 4.84932 75.8186 5.35824C74.8329 5.46729 74.4678 5.10378 74.6138 4.12229C74.7233 3.21351 74.7598 2.30473 74.8329 1.39594C74.8694 0.596214 74.4678 0.0872948 73.7011 0.0509434C73.0074 -0.0217593 72.5693 0.450808 72.4598 1.14148C72.3137 2.23202 72.1312 3.28621 72.0947 4.37675C72.0582 5.24919 71.8026 5.6854 70.8534 5.83081C65.9246 6.48513 61.0324 7.46662 56.2497 8.84797C55.264 9.13878 55.1545 8.73892 54.9719 7.97554C54.6798 6.59419 54.7164 5.21284 54.7529 3.79513C54.7894 2.9227 54.3513 2.30473 53.5481 2.26838C52.7083 2.23202 52.3068 2.85 52.3068 3.72243C52.3433 5.24919 52.1607 6.77594 52.4163 8.26635C52.6718 9.75675 51.9782 10.193 50.8464 10.5565C46.9764 11.8288 43.216 13.3919 39.6016 15.2458C39.1635 15.4639 37.2285 15.2458 38.5063 16.8816C38.6889 17.1361 38.2507 17.3905 37.9587 17.4269C37.338 17.5723 37.0094 17.9358 36.8999 18.5174C36.8269 18.8446 36.6809 19.0991 36.3158 19.0263C35.9507 18.9536 35.8777 18.5901 35.9142 18.2993C36.2427 15.7184 34.8189 13.3919 34.7459 10.8473C34.7094 9.93851 34.3808 9.28419 33.3585 9.32054C32.1902 9.35689 32.2998 10.302 32.3363 11.0654C32.4823 13.0647 32.9204 15.0277 33.5411 16.918C33.8331 17.7904 33.6506 18.2266 32.8839 18.6992C28.9409 21.0257 25.071 23.5703 21.4566 26.442C20.5803 27.1327 20.0692 26.8055 19.6676 25.9331C19.193 24.8789 18.9739 23.752 18.8644 22.6251C18.7914 21.7891 18.2073 21.3528 17.331 21.4619C16.4913 21.5709 16.4548 22.2253 16.4913 22.8432C16.5278 23.7884 16.4548 24.8426 16.9659 25.6786C18.3533 27.8597 18.4993 29.75 15.8707 31.095C15.7611 31.1313 15.7246 31.2768 15.6151 31.3495C15.1405 31.9311 15.25 32.44 15.6881 32.9853C16.1992 33.5305 16.7104 33.6032 17.258 33.0943C17.7691 32.6581 18.3168 32.2582 18.7549 31.7857C19.6676 30.8405 20.4343 30.6224 21.4931 31.6766C22.5883 32.8035 24.0487 33.5305 25.4361 34.2212C26.9694 34.9846 28.6123 35.6026 30.4013 36.3296C27.4806 38.1835 24.6329 39.7103 22.1502 41.6732C19.7771 43.5272 17.4406 44.1451 14.4468 43.5635C9.55459 42.582 4.88143 41.5278 2.39881 36.5477C2.03372 35.857 1.34005 35.7116 0.646375 36.0024C-0.0472977 36.2932 -0.120316 36.9112 0.135248 37.5292C0.974957 39.6376 2.39881 41.2734 4.29728 42.4366C5.72114 43.3091 6.99896 44.7995 9.00696 43.818C9.1895 43.7453 9.5911 43.7816 9.70063 43.927C10.9419 45.7082 12.8769 45.6355 14.7024 45.9991C15.5786 46.1808 15.4326 46.617 14.9214 47.1259C13.8627 48.0711 12.7674 48.9072 11.8182 49.925C9.07998 52.7968 5.68463 55.1232 3.82267 58.7584C2.83692 60.6486 2.65438 62.5753 3.93219 64.4292C5.24652 66.3195 7.21801 66.7557 9.40856 66.6103C10.4673 66.5376 11.4166 66.065 12.2928 65.5197C15.031 63.7385 18.2438 63.7385 21.2375 63.7749C25.4361 63.8112 29.4521 65.2653 33.2855 67.0101C33.9792 67.3373 34.3443 67.7372 34.4903 68.4642C34.8554 70.2454 35.2935 71.9903 35.6586 73.7715C35.7681 74.2077 36.2062 74.753 35.7316 75.1165C35.2205 75.5527 34.7094 75.0801 34.2347 74.862C32.2267 74.0259 30.2187 73.1535 28.2107 72.2811C27.4806 71.9539 26.6409 71.5177 26.2027 72.5355C25.8011 73.4807 26.3488 74.0986 27.2615 74.4985C29.7441 75.5527 32.1902 76.7523 34.7459 77.7338C36.0602 78.2427 36.3523 79.0061 36.2062 80.242C36.0602 81.4416 35.9872 82.6412 35.9142 83.8772C35.8777 84.6769 36.0602 85.3676 37.0459 85.3676C37.9587 85.3676 38.2873 84.8223 38.3238 83.9499C38.3603 82.7866 38.5063 81.6597 38.5428 80.4965C38.5793 79.5877 39.0174 79.3332 39.8571 79.624C44.4573 81.2599 49.167 82.4595 53.8766 83.5863C54.8989 83.8408 55.264 84.4224 55.2275 85.4039C55.191 87.585 55.191 89.7661 55.191 91.9472C55.191 92.8196 54.8624 93.9828 56.2497 94.0192C57.7101 94.0919 57.5641 92.8923 57.6006 91.9108C57.6736 90.0932 57.8196 88.2757 57.6736 86.4581C57.5276 84.6769 58.2212 84.3497 59.7546 84.6769C64.0992 85.622 68.5168 86.0219 72.9344 86.5308C74.2487 86.6762 74.7598 87.2942 74.8694 88.4574C75.1249 90.7476 75.344 93.0377 75.5995 95.2915C75.6726 96.0185 75.417 97 76.6583 97C77.8266 97 78.0457 96.2003 78.0092 95.2551C77.8631 92.965 77.8631 90.6749 77.352 88.4211C77.0964 87.3669 77.352 86.7853 78.5933 86.8943C83.9966 87.4032 89.4 87.5123 94.8033 87.2578C95.8256 87.2215 96.1907 87.7667 96.4097 88.6028C96.8113 90.2023 96.8844 91.8381 96.8478 93.4739C96.8113 94.3463 97.1764 94.8553 98.1257 94.8553C99.0019 94.8553 99.2939 94.31 99.2939 93.583C99.367 92.1289 99.3305 90.6749 99.0749 89.2572C98.6733 87.0397 98.7098 87.0034 100.9 86.858C105.208 86.6035 109.48 85.9128 113.715 85.0768C117.475 84.3497 117.475 84.2407 118.607 88.0212C119.264 87.1488 121.199 87.5486 120.323 85.7311C119.556 84.168 120.287 83.5864 121.857 83.1138C124.23 82.3868 127.077 82.4958 128.72 80.0239C128.83 79.8422 129.377 79.6968 129.523 79.8058C131.203 80.8963 132.554 79.6968 133.941 79.1515C137.044 77.9882 137.263 78.0609 137.738 81.4053C137.775 81.587 137.775 81.7688 137.775 81.9505C137.848 82.823 138.286 83.3319 139.198 83.2228C140.111 83.1138 140.44 82.4595 140.294 81.6597C140.111 80.5328 139.892 79.4059 139.527 78.3154C139.198 77.3703 139.344 76.9341 140.294 76.4978C142.338 75.5891 144.346 74.5349 146.318 73.517C147.048 73.1535 147.705 72.6082 147.23 71.6631C146.719 70.6453 145.953 70.9724 145.222 71.3359C143.251 72.3174 141.279 73.2626 139.381 74.3168C138.395 74.862 137.811 74.8257 137.117 73.8442C135.876 72.0266 134.27 70.5362 132.371 69.4093C132.006 69.1912 131.495 69.0458 131.531 68.5369C131.568 68.0643 132.116 67.9916 132.517 67.8462C137.044 65.9559 141.681 64.2474 145.88 61.6665C146.391 61.3393 146.902 61.303 147.449 61.5211C151.977 63.1205 156.102 65.1562 157.526 70.3181C157.782 71.1905 158.22 72.172 159.461 71.6995C160.739 71.2269 160.191 70.3181 159.899 69.4457C158.329 64.9018 155.299 61.8482 150.772 60.2488C149.384 59.7399 149.494 59.2673 150.516 58.4676C152.086 57.1953 153.51 55.8139 154.788 54.2508C155.262 53.6692 155.737 53.1603 155.372 52.3242C154.897 51.27 155.664 51.1973 156.358 51.2337C158.658 51.3064 160.775 50.652 162.893 49.7796C166.142 48.3982 168.953 46.4716 171.363 43.927C171.838 43.3454 172.203 42.8001 171.874 42.1822ZM135.657 23.3158C136.387 22.2616 137.008 22.0072 138.103 22.7705C140.148 24.1882 142.229 25.4969 144.31 26.8419C145.186 27.4235 145.441 27.9324 144.711 28.8776C142.849 31.1677 140.878 33.3851 138.395 35.0936C136.351 36.475 134.233 36.8022 131.86 35.7843C128.939 34.512 125.909 33.4578 122.952 32.2946C122.952 32.1492 122.988 31.9674 122.988 31.822C124.266 31.3131 125.507 30.7678 126.785 30.2953C130.473 28.8776 133.393 26.5147 135.657 23.3158ZM117.402 14.9913C117.841 13.8645 118.571 13.7554 119.52 14.1189C124.12 15.9365 128.684 17.8268 133.101 20.0442C134.087 20.5531 134.16 21.0257 133.466 21.9708C130.655 25.8968 126.822 28.2232 122.222 29.4592C121.053 29.75 119.885 30.1499 118.717 30.477C118.242 30.368 117.768 30.2589 117.329 30.1135C114.518 29.2047 111.707 28.2596 108.859 27.3508C108.531 27.2418 108.056 27.3508 107.947 26.9509C107.837 26.5147 108.275 26.333 108.567 26.1512C112.948 23.5703 115.577 19.5716 117.402 14.9913ZM79.5425 57.7769C78.9219 57.8859 78.7758 57.377 78.6298 56.9045C81.4045 55.5231 81.8791 52.9422 82.1712 50.2522C82.2077 49.7796 82.2077 49.2707 82.2077 48.7981C82.2077 47.344 82.7553 46.6534 84.3617 46.6897C87.0999 46.7261 87.0634 46.617 87.6841 49.1616C88.6698 53.0876 89.6556 56.9772 90.7143 60.9031C90.9334 61.6665 90.8238 62.1027 89.9841 62.1754C87.246 62.3935 84.5443 62.648 81.8061 62.8661C80.6013 62.9751 80.1267 62.3935 80.4553 61.1939C80.6013 60.685 80.6378 60.1397 80.7473 59.5945C80.8934 58.5766 81.222 57.5224 79.5425 57.7769ZM89.8746 46.3262C89.7651 44.9812 91.3715 44.8722 92.3937 44.2905C93.343 43.7089 93.635 44.7268 94.0366 45.2357C96.8843 48.9072 99.5495 52.7241 102.215 56.5773C102.945 57.6315 102.762 58.1404 101.631 58.613C99.586 59.5218 97.4685 60.2851 95.351 60.9395C94.0731 61.3393 93.416 60.9031 92.9414 59.7762C91.9191 57.2316 91.8461 54.4689 90.9334 51.888C90.3492 50.2158 90.0937 48.4709 89.8746 46.3262ZM89.2174 28.3323C89.7651 26.8419 90.3857 25.5696 92.2112 26.333C94.4017 26.2966 96.3002 27.0963 98.3082 27.2418C99.1114 27.3145 99.4765 27.7507 99.367 28.6231C98.9654 32.44 97.651 35.8934 95.0954 38.8378C94.4017 39.6376 93.8541 39.7103 92.9414 39.0923C89.1079 36.6204 87.6841 32.5127 89.2174 28.3323ZM95.7526 43.3454C95.278 42.7274 95.1319 42.2185 95.7891 41.6369C96.3732 41.0916 96.9209 40.5463 97.3955 39.892C97.8701 39.2377 98.4177 39.2741 98.9654 39.5649C103.346 41.8913 107.874 43.9634 111.89 46.9442C113.131 47.8893 113.277 48.6527 112.328 49.8886C110.648 52.0697 108.786 54.0327 106.559 55.6322C106.231 55.8866 105.866 56.1047 105.61 56.2501C104.916 56.3228 104.77 55.8503 104.551 55.5231C101.594 51.4881 98.7098 47.4168 95.7526 43.3454ZM100.754 37.7836C99.586 37.1657 99.44 36.5841 100.024 35.5299C100.973 33.7486 101.448 31.7857 101.74 29.8227C101.923 28.6231 102.507 28.405 103.419 28.6231C105.537 29.0957 107.655 29.6409 109.736 30.2589C111.598 30.8042 113.386 31.6403 115.248 32.0765C117.001 32.5127 117.293 33.5305 117.11 34.4393C116.782 38.2926 116.234 41.4915 115.102 44.545C114.847 45.272 114.628 45.9991 113.606 45.2357C109.699 42.1095 105.135 40.0738 100.754 37.7836ZM95.8256 11.7197C95.8621 11.4653 95.9716 11.2472 96.0081 11.0291C96.4827 7.93919 96.4462 8.15729 99.659 8.70256C104.186 9.50229 108.64 10.6292 113.058 11.8651C115.431 12.5195 115.504 12.6649 114.628 14.955C112.693 19.9715 109.115 23.3885 104.259 25.5332C103.858 25.715 103.492 25.8604 102.835 25.824C99.513 25.0243 95.8986 24.4427 92.3207 23.8247C91.2985 23.643 91.8096 22.9523 92.0652 22.4434C93.8906 19.0627 95.1319 15.4639 95.8256 11.7197ZM74.2852 9.06608C74.3217 7.90284 75.1614 7.72108 76.0377 7.68473C78.7758 7.64837 81.514 7.68473 84.2522 7.68473C86.9904 7.68473 89.7286 7.68473 92.4668 7.68473C93.416 7.68473 94.2192 7.93919 93.9271 9.17513C92.9049 13.5736 91.8096 17.9722 89.5095 21.9708C88.9619 22.8796 88.3412 23.3522 87.2094 23.2431C84.1427 22.8796 81.0394 22.8069 77.9361 22.8796C77.0234 22.8796 76.4393 22.5888 76.1107 21.7527C74.4313 17.645 74.1392 13.3919 74.2852 9.06608ZM74.9424 46.1445C75.2345 45.3447 75.7091 45.1266 76.4758 45.4174C76.5488 45.4538 76.5853 45.4538 76.6583 45.4901C80.0172 46.508 79.6886 46.4716 79.506 50.1068C79.3965 52.4332 78.3012 54.578 78.5568 56.9045C78.0457 58.2495 77.8996 59.6672 77.8996 61.1212C77.8996 62.1391 77.4615 62.5389 76.4393 62.3572C74.1757 61.9936 71.9486 61.4484 69.7216 60.794C68.6993 60.4669 68.6628 59.9216 69.1009 59.1946C71.4375 55.0142 73.2995 50.6157 74.9424 46.1445ZM64.6468 30.1499C64.7563 32.7308 64.7564 32.8035 62.0182 33.5305C58.4768 34.4757 54.7894 34.9482 51.321 36.2932C50.5178 36.5841 50.0067 36.4386 50.0432 35.4572C50.0432 35.1663 50.0432 34.8392 50.0067 34.5484C49.6416 30.9132 49.6051 30.8405 53.0369 29.7136C56.2497 28.6231 59.499 27.7507 62.8214 27.06C64.3913 26.7328 65.0119 27.0236 64.6833 28.6595C64.5738 29.0593 64.6468 29.4955 64.6468 30.1499ZM51.9417 38.7288C55.5561 37.82 59.2435 37.0566 62.7849 35.857C64.8659 35.1663 65.7786 35.4935 66.6913 37.4928C67.8596 40.1101 68.0057 40.0011 65.5961 41.6005C62.1277 43.927 58.5863 46.1445 55.5195 48.9799C55.1179 49.3434 54.7163 49.8159 54.2417 49.0526C52.4893 46.2535 51.5401 43.1636 50.8829 40.51C50.6273 39.0923 51.248 38.9105 51.9417 38.7288ZM57.2355 50.8338C60.9229 47.3804 65.2675 44.8358 69.4295 42.0731C70.4883 41.3461 71.182 42.9455 72.1312 43.3818C72.8614 43.7089 72.9709 44.3632 72.7153 45.0903C70.9994 49.5978 69.174 54.0691 66.8009 58.2858C66.5818 58.6857 66.3262 59.1219 65.8516 59.1946C65.523 59.0492 65.304 58.9401 65.0849 58.8311C62.1642 57.3407 59.4625 55.5231 57.1625 53.1239C56.3593 52.2151 56.3958 51.6335 57.2355 50.8338ZM56.8704 11.2472C61.2515 10.0476 65.7056 9.17513 70.1597 8.41175C71.328 8.19365 71.9121 8.48446 71.8026 9.75675C71.7296 10.3384 71.8026 10.9563 71.8026 11.5743C71.9121 14.955 72.0947 18.3357 73.336 21.5346C73.7376 22.5888 73.4455 22.8796 72.3868 23.025C69.7946 23.3158 67.2025 23.6793 64.6468 24.1155C63.9531 24.2246 63.4785 24.0065 63.0039 23.6066C59.3895 20.8439 57.345 17.0634 55.9942 12.8466C55.6656 12.0469 55.9577 11.5016 56.8704 11.2472ZM38.8714 18.372C43.0334 16.1909 47.451 14.4824 51.8321 12.8466C52.7449 12.4831 53.2925 12.6649 53.5846 13.6827C54.7163 17.645 56.6513 21.1347 59.5721 24.0792C59.9372 24.4791 60.4848 24.9516 59.5355 25.2424C55.7751 26.442 52.0147 27.5689 48.2908 28.7322C48.1812 28.7685 48.0352 28.7685 47.7796 28.8049C46.1002 28.2232 44.2382 27.7143 42.6683 26.4784C40.9159 25.1334 39.8206 23.2431 38.0682 21.8618C36.8634 20.9166 37.411 19.0991 38.8714 18.372ZM22.9169 29.75C22.3328 29.3138 22.2963 28.9866 22.8804 28.514C26.4218 25.6786 30.2187 23.2068 34.1252 20.9166C34.7824 20.5531 35.1475 20.8076 35.4395 21.3892C37.192 24.8789 39.7111 27.6416 43.143 29.5682C43.7271 29.8954 44.0192 30.3316 43.1795 30.6951C40.2953 31.9674 37.411 33.2034 34.5268 34.4393C34.3808 34.4757 34.1617 34.4757 34.0522 34.4757C29.9632 33.6759 26.1662 32.3309 22.9169 29.75ZM16.3818 61.4484C13.7896 61.9209 11.5626 63.3023 9.153 64.2474C8.93394 64.3201 8.67838 64.3201 8.60536 64.3201C6.52434 64.3201 5.10048 62.6116 5.68463 60.794C6.59736 57.8859 9.22601 56.2865 11.1245 54.1418C11.38 53.8509 11.8182 53.9964 12.1467 54.1418C14.8119 55.3414 16.5278 57.268 16.8929 60.2488C16.9294 60.7577 17.0025 61.3393 16.3818 61.4484ZM54.2052 80.7873C53.5481 81.6234 52.1972 80.6055 51.175 80.3874C47.4145 79.515 43.6906 78.3517 40.0397 77.0795C39.3095 76.825 38.6523 76.6432 38.5793 75.6981C38.3968 73.8078 37.7761 72.063 37.3015 70.2454C37.192 69.8092 36.8634 69.0822 37.9587 69.1549C38.3238 69.3003 38.7619 69.482 39.2 69.7001C42.6683 71.1542 46.0637 72.79 49.7146 73.6988C51.8686 74.244 52.7814 75.6618 53.4385 77.4793C53.8401 78.5699 54.9354 79.8785 54.2052 80.7873ZM72.7153 83.6954C72.3868 84.4224 71.6201 83.8408 71.0359 83.9862C66.8739 83.4409 62.6753 82.8957 58.5133 82.0596C57.8926 81.9505 57.418 81.7324 57.2355 81.0054C56.8704 79.6241 56.3593 78.2427 55.9212 76.8614C55.6291 75.9526 55.9577 75.5891 56.9069 75.8072C60.8134 76.7159 64.7198 77.4793 68.6628 78.17C69.8676 78.3881 70.1962 79.7695 70.9264 80.6419C71.3645 81.1508 71.7296 81.6961 72.0582 82.2777C72.3137 82.7503 72.9709 83.1501 72.7153 83.6954ZM93.5985 84.8223C90.9334 84.8223 88.2682 84.8223 85.6031 84.8223C85.6031 84.7496 85.6031 84.7132 85.6031 84.6405C83.1204 84.6405 80.6378 84.6405 78.1552 84.6405C76.9139 84.6405 75.9646 84.277 75.417 83.0047C75.0154 82.0596 74.3582 81.2599 73.8106 80.3874C73.555 79.9876 73.0439 79.6241 73.2995 79.1151C73.5916 78.5335 74.2852 78.788 74.7963 78.8243C78.3742 79.1878 81.9156 79.4059 85.4935 79.3332C86.0412 79.3332 86.6253 79.4059 87.1364 79.2969C90.8969 78.4245 92.6493 80.9327 94.3652 83.4773C95.0224 84.4588 94.5478 84.8223 93.5985 84.8223ZM114.445 82.6412C110.575 83.3682 106.669 83.9499 102.762 84.277C101.558 84.3861 100.353 84.4951 98.9654 84.6405C98.6368 84.6405 98.0526 84.8223 97.7606 84.3497C96.7383 82.7139 95.7161 81.0781 94.5478 79.5513C94.0366 78.897 94.7668 78.7516 95.2414 78.6789C99.8051 78.0246 104.332 77.2612 108.786 76.0253C109.224 75.9162 109.626 76.0616 109.991 76.2797C112.145 77.6247 113.752 79.515 115.248 81.478C116.088 82.5685 115.029 82.5322 114.445 82.6412ZM134.927 74.862C135.109 75.1165 135.255 75.3709 135.365 75.5163C135.401 76.207 134.89 76.3161 134.525 76.4615C129.706 78.5699 124.741 80.3147 119.593 81.587C118.936 81.7688 118.534 81.5143 118.206 81.0418C116.782 79.2242 115.358 77.443 113.642 75.8799C112.839 75.1892 113.167 74.7166 114.007 74.4985C118.315 73.1899 122.514 71.6268 126.676 70.0273C127.881 69.5547 128.939 70.2818 129.998 70.6816C132.079 71.5541 133.649 73.0445 134.927 74.862ZM152.086 53.5238C147.888 58.1041 142.667 61.1576 137.008 63.4477C126.822 67.5191 116.709 71.8812 105.939 74.3168C98.3082 76.0253 90.6413 77.1158 82.8284 77.0795C66.9469 76.7523 51.7956 73.1899 37.4841 66.3195C33.176 64.2474 28.7584 62.0663 23.9392 61.7392C20.7629 61.5211 19.0835 60.685 18.6089 57.377C18.3168 55.3414 16.6739 53.9236 14.8119 52.9785C13.3881 52.2515 13.6071 51.6699 14.6294 50.7611C21.8947 44.2178 30.1457 39.165 39.0539 35.1663C41.135 34.2212 43.289 33.3488 45.4065 32.44C46.6113 31.9311 47.305 31.8584 47.4145 33.6396C48.1082 42.8728 50.9559 51.1609 58.2942 57.377C62.6388 61.0849 67.7501 63.1569 73.336 64.2474C78.2282 65.2289 83.1569 65.338 88.0492 64.829C96.7018 63.9203 104.624 60.9395 111.196 55.1959C116.599 50.4703 118.68 44.0724 119.483 37.1657C119.557 36.4023 119.557 35.6026 119.666 34.8028C119.739 34.2212 119.958 33.7123 120.725 34.0031C130.4 37.6382 140.44 40.51 148.545 47.4168C149.896 48.5436 151.027 49.925 152.269 51.1609C152.999 51.9607 152.889 52.6513 152.086 53.5238Z" fill="white"/>
</svg>
