<svg width="650" height="335" viewBox="0 0 650 335" fill="none" xmlns="http://www.w3.org/2000/svg">
<g opacity="0.25">
<path d="M394.342 -45.1595C395.348 -44.2112 396.319 -44.8737 396.223 -45.7196C395.947 -48.2176 397.843 -47.7742 399.005 -47.8406C402.057 -48.0313 404.721 -49.0183 407.157 -50.8527C408.674 -51.9976 410.544 -51.5017 412.237 -51.8262C415.848 -52.4595 419.253 -53.5968 422.325 -55.6354C422.617 -55.8169 422.714 -56.1987 423.224 -56.9323C419.826 -56.455 416.999 -55.153 413.551 -56.0624C416.512 -57.6269 419.66 -56.9717 422.426 -58.8685C419.141 -58.9972 416.191 -58.4885 413.604 -57.2631C410.751 -55.9085 407.902 -54.9499 404.73 -54.589C401.861 -54.2378 399.207 -52.9471 396.893 -51.415C395.204 -50.2588 395.041 -51.0394 394.553 -52.2857C394.09 -53.4525 393.509 -54.581 392.967 -55.7222C392.568 -55.4626 392.303 -55.3335 392.288 -55.2413C392.953 -50.8513 390.562 -49.5576 386.736 -49.7319C385.852 -49.7549 384.95 -49.4216 384.771 -48.7504C384.108 -46.0383 382.01 -46.1539 380.002 -45.9913C379.922 -45.9658 379.778 -46.007 379.698 -45.9814C372.367 -43.1451 364.434 -42.0447 357.074 -37.7961C356.665 -39.0679 356.232 -40.4192 355.81 -41.7308C355.645 -42.2474 355.64 -43.0791 354.86 -42.9161C354.159 -42.7787 354.217 -42.052 354.131 -41.4985C354.117 -41.4063 354.155 -41.287 354.141 -41.1948C353.646 -37.0024 353.618 -36.8179 349.29 -37.0505C347.193 -37.1661 346.527 -36.6454 346.98 -34.6867C347.245 -33.5881 347.017 -33.2078 345.722 -33.1429C341.179 -32.9555 337.005 -31.4835 332.724 -29.9335C328.92 -28.5367 324.68 -28.3591 321.104 -26.1149C319.895 -25.3758 319.431 -26.4106 318.993 -27.3659C318.399 -28.5342 318.615 -30.1819 317.024 -30.7671C315.702 -29.422 317.258 -26.8967 315.322 -26.0996C313.771 -25.4699 311.923 -25.4903 310.206 -25.3773C309.123 -25.3365 308.352 -24.8698 308.354 -23.9061C308.32 -21.9659 307.38 -21.7519 305.675 -21.5991C302.662 -21.2892 299.699 -20.6883 297.04 -19.0016C294.926 -17.6653 292.264 -18.0379 289.919 -17.285C289.362 -17.1063 288.805 -16.7957 288.25 -16.749C286.465 -16.5707 285.21 -14.0632 283.544 -15.0189C282.351 -15.7317 281.884 -17.7302 281.043 -19.2576C280.749 -18.944 280.457 -18.7625 280.401 -18.5255C280.055 -17.0112 280.995 -14.9019 279.744 -14.018C278.56 -13.1995 276.555 -13.3008 274.944 -13.2658C273.941 -13.2505 272.831 -13.1572 272.755 -12.3C272.554 -9.64881 270.752 -10.21 269.059 -9.88546C266.876 -9.44755 264.667 -9.08914 262.571 -8.10904C260.249 -7.01264 257.784 -6.22142 255.075 -5.92134C251.85 -5.58737 248.733 -4.23572 245.765 -2.01119C245.139 -3.95863 244.616 -5.58811 244.093 -7.2176C242.848 -6.86173 243.261 -5.98591 243.188 -5.39268C242.593 -1.65022 241.898 -0.945047 237.977 -0.869584C236.538 -0.845885 235.415 -0.792289 235.382 1.01586C235.323 2.74452 233.898 2.67597 232.802 2.67706C228.552 2.68288 224.775 4.02723 221.044 5.92653C218.601 7.19321 215.662 6.7779 213.127 8.03036C211.653 8.76652 210.169 9.33095 209.241 10.8124C211.567 9.45201 214.16 8.92623 216.806 8.42744C214.652 9.77653 212.526 11.0731 210.305 12.4875C212.052 13.2856 213.503 13.4337 215.826 12.2053C220.328 9.83926 224.966 8.17441 230.016 7.51738C231.696 7.28512 233.274 6.60293 234.462 5.38838C236.051 3.78224 236.755 4.60846 237.318 6.22519C237.906 7.9214 238.522 9.56511 239.72 10.9776C240.721 9.99864 240.326 8.7666 240.245 7.69644C240.016 4.5257 241.274 2.9819 244.464 3.36039C245.743 3.51973 246.363 3.53979 246.483 2.27383C246.598 1.40384 247.072 1.51469 247.719 1.48224C252.038 1.27916 255.884 -0.262443 259.396 -2.70539C259.901 -3.04302 260.274 -3.38212 260.947 -3.33508C265.01 -3.10536 268.63 -4.53065 272.045 -6.59184C273.441 -7.43447 273.953 -7.20439 274.451 -5.65439C274.987 -3.98516 275.92 -2.44355 276.72 -0.7714C278.107 -2.04975 277.371 -3.52318 277.333 -4.87009C277.246 -7.73564 278.542 -9.1602 281.308 -8.6016C282.718 -8.3088 283.548 -8.18082 283.974 -9.72061C284.277 -10.8261 285.334 -10.9465 286.113 -10.9774C289.507 -11.0587 292.323 -12.6645 295.087 -14.2973C296.376 -15.0619 297.747 -14.8883 299.016 -15.0327C302.228 -15.4064 305.207 -16.2316 307.724 -18.2235C309.189 -19.3954 309.653 -18.3606 310.158 -17.4705C311.09 -15.7969 311.875 -14.0325 312.819 -12.1872C314.404 -13.5293 313.657 -15.1745 313.406 -16.3654C312.802 -19.065 314.391 -19.4435 316.281 -19.6998C318.04 -19.9576 319.949 -19.4745 321.093 -21.5079C321.376 -21.9933 322.5 -22.1788 323.266 -22.2496C326.648 -22.5026 329.763 -23.5903 332.685 -25.2741C334.2 -26.155 336.011 -26.3858 337.782 -26.6038C341.22 -27.0939 344.246 -28.5917 346.82 -30.9526C343.303 -30.4371 340.566 -27.6291 336.498 -27.4629C339.532 -29.6207 342.66 -30.8006 345.841 -31.9535C347.18 -32.4271 346.546 -31.2593 346.779 -30.8079C348.623 -30.3915 347.982 -28.5636 348.63 -27.5004C349.253 -26.5167 349.769 -25.4549 350.338 -24.3661C351.817 -25.6303 351.162 -27.2612 351.217 -28.5939C351.379 -31.3643 352.542 -32.6583 355.201 -32.0217C356.768 -31.6479 357.783 -31.4915 358.148 -33.494C358.389 -34.9302 359.767 -35.4166 361.127 -35.4148C363.437 -35.4553 365.58 -35.8804 367.573 -37.0465C370.682 -38.8338 373.879 -40.211 377.616 -40.3149C380.27 -40.378 382.864 -41.0357 384.619 -43.3529C386.404 -41.2078 386.665 -38.4856 388.729 -36.5618C389.405 -38.0064 389.221 -39.2626 389.208 -40.53C389.195 -44.1208 390.648 -45.3324 394.538 -44.9594C393.969 -47.2758 392.329 -49.3797 393.365 -52.2988C394.075 -50.9049 394.724 -49.8416 395.134 -48.7018C395.543 -47.562 396.332 -46.0616 394.342 -45.1595ZM250.997 -0.0524337C255.926 -4.09022 261.554 -6.9058 267.672 -8.6071C261.876 -6.1762 257.193 -1.64727 250.997 -0.0524337ZM340.939 -31.5193C335.768 -29.4643 331.966 -24.6484 325.623 -24.0584C330.713 -27.1836 335.303 -30.3671 340.939 -31.5193ZM304.261 -20.2683C301.428 -19.5339 299.073 -17.8571 296.537 -16.4726C294.067 -15.1534 291.88 -13.2239 288.548 -12.6799C293.268 -16.9576 298.648 -18.7726 304.261 -20.2683ZM213.983 11.7889C218.185 9.03672 222.089 5.76646 227.26 4.93915C222.956 7.37334 218.857 10.3114 213.983 11.7889ZM375.663 -41.617C378.451 -43.0382 380.982 -45.1224 384.854 -45.4888C382.347 -41.9655 379.017 -41.6855 375.663 -41.617ZM403.299 -52.9019C407.667 -54.0417 412.084 -54.7585 416.9 -54.5072C412.399 -52.1412 407.826 -52.865 403.299 -52.9019ZM386.088 -48.4718C387.602 -45.6697 388.613 -42.7939 387.826 -39.6476C386.603 -42.4993 384.56 -45.1753 386.088 -48.4718ZM254.871 -4.23389C252.758 -2.89756 250.644 -1.56123 248.465 -0.291634C247.947 0.00626155 247.082 0.590746 246.602 -0.0878168C245.965 -0.979313 246.96 -1.43035 247.546 -1.9255C249.637 -3.60529 252.266 -3.74785 254.871 -4.23389ZM312.527 -15.6886C310.25 -17.4563 310.293 -20.1884 309.035 -22.1956C308.697 -22.701 309.107 -23.8846 309.954 -24.1128C310.948 -24.4319 310.896 -23.3632 311.115 -22.8195C311.975 -20.6847 312.121 -18.3201 312.527 -15.6886ZM396.127 -49.0209C400.694 -51.3201 402.361 -51.7241 405.512 -51.3329C402.517 -49.0559 399.386 -48.8396 396.127 -49.0209ZM363.377 -37.1456C367.228 -39.2152 371.106 -41.3373 374.957 -43.4069C371.676 -40.3805 367.812 -38.3507 363.377 -37.1456ZM329.084 -27.888C326.451 -26.1218 324.179 -23.6388 319.865 -23.8317C323.111 -26.1455 326.001 -27.2489 329.084 -27.888ZM272.478 -8.65959C270.151 -5.93953 266.767 -5.55451 263.602 -4.62583C266.276 -6.5368 269.221 -7.87713 272.478 -8.65959ZM367.36 -40.4414C364.24 -38.8258 361.133 -37.1704 357.973 -35.5421C359.916 -39.3224 363.799 -39.5171 367.36 -40.4414ZM276.379 -4.56381C274.366 -6.32858 274.154 -8.62787 273.477 -10.7343C273.286 -11.3304 273.53 -11.935 274.244 -12.0327C274.945 -12.1701 274.978 -11.523 275.145 -11.1383C275.955 -9.1624 276.169 -6.9951 276.379 -4.56381ZM317.907 -28.2888C318.686 -25.8644 319.274 -24.1682 319.756 -22.394C319.895 -21.8248 319.611 -21.2075 318.988 -20.9636C318.591 -20.836 318.145 -21.1313 318.11 -21.5145C317.947 -23.5228 316.264 -25.35 317.907 -28.2888ZM239.257 7.48751C238.939 7.5896 238.648 7.63919 238.33 7.74128C237.743 5.91307 237.117 4.09763 236.569 2.25666C236.378 1.66051 235.846 0.822978 236.8 0.516699C237.475 0.299749 238.103 0.887519 238.253 1.62843C238.627 3.61269 238.936 5.53022 239.257 7.48751ZM355.205 -39.5197C356.928 -37.7054 356.933 -35.778 357.137 -33.9144C357.17 -33.3992 357.071 -32.7535 356.608 -32.6926C356.066 -32.6062 355.398 -33.0492 355.405 -33.7091C355.359 -35.4918 354.652 -37.2817 355.205 -39.5197ZM235.395 3.37896C232.357 5.93275 229.931 6.8432 225.622 7.35001C228.419 5.13678 231.658 4.71055 235.395 3.37896ZM349.81 -27.923C349.244 -30.5034 347.369 -32.7947 348.364 -35.7011C349.75 -33.2964 350.025 -30.6664 349.81 -27.923ZM290.698 -16.0883C288.923 -14.3786 287.168 -13.2891 285.231 -12.3601C284.806 -12.18 284.365 -11.6436 284.014 -12.1887C283.69 -12.6543 283.697 -13.3143 284.479 -13.6093C286.402 -14.4461 288.095 -15.8663 290.698 -16.0883ZM308.156 -20.2912C305.953 -18.0054 303.298 -16.7147 299.99 -17.1869C302.721 -18.2392 305.412 -19.2787 308.156 -20.2912ZM281.538 -16.216C282.234 -13.5021 283.678 -11.5984 282.486 -8.89219C280.757 -11.2743 281.005 -13.3705 281.538 -16.216ZM314.161 -20.1589C313.163 -20.6715 312.883 -21.5459 312.561 -22.2755C312.199 -22.9923 311.524 -24.0031 312.678 -24.5051C314.018 -25.1108 313.909 -23.6731 314.126 -22.9974C314.342 -22.1898 315.058 -21.3238 314.161 -20.1589ZM388.487 -49.3297C389.147 -48.0948 390.816 -47.4031 390.056 -45.5369C389.961 -45.2872 389.471 -45.1738 389.179 -44.9922C388.427 -46.2414 387.807 -47.4891 388.022 -49.0048C387.996 -49.0843 388.168 -49.0956 388.487 -49.3297Z" fill="white"/>
<path d="M37.1031 69.5492C36.8246 70.91 35.6279 70.9435 35.2105 70.2007C33.9711 68.012 32.6559 69.4866 31.6506 70.1162C29.002 71.7558 26.2071 72.5218 23.1036 72.4661C21.169 72.4297 19.907 73.9309 18.3087 74.6634C14.9349 76.2728 11.4358 77.3525 7.68368 77.5051C7.33385 77.5297 7.02906 77.2769 6.17399 76.9815C9.27901 75.3707 12.3938 74.7651 14.7256 71.9997C11.3443 72.4716 9.11311 74.854 5.69807 74.9423C8.35341 72.9059 11.1041 71.5843 13.9756 71.0568C17.1437 70.478 20.0752 69.5805 22.9243 68.008C25.515 66.6062 28.4804 66.0924 31.3046 65.9747C33.3886 65.9193 33.0651 65.1903 32.7378 63.8924C32.436 62.6741 32.2559 61.4167 32.0352 60.1723C32.5194 60.1484 32.8159 60.097 32.882 60.1634C34.9111 64.1152 37.6588 63.7591 40.7368 61.3678C41.4582 60.8293 42.4034 60.5696 42.9469 61.0089C45.0932 62.8187 46.7688 61.4915 48.5338 60.4425C48.6149 60.4165 48.711 60.2979 48.792 60.2719C56.5538 58.2618 63.7946 54.4901 72.4106 53.6087C72.0023 52.3369 71.5684 50.9856 71.1472 49.674C70.9813 49.1574 70.4956 48.4804 71.2403 48.1535C71.904 47.8528 72.2831 48.4763 72.6795 48.8752C72.7455 48.9416 72.7838 49.0609 72.8499 49.1273C75.7266 52.237 75.8587 52.37 79.3188 49.6368C80.9945 48.3096 81.8541 48.3405 82.6288 50.1961C83.0544 51.2432 83.4681 51.4172 84.5821 50.7088C88.4687 48.1894 92.8041 46.9288 97.2739 45.6689C101.257 44.5653 104.886 42.2165 109.177 41.9344C110.617 41.8228 110.394 40.7107 110.197 39.678C110.004 38.3809 108.855 37.1714 109.834 35.7613C111.723 36.0752 111.915 39.0388 113.993 38.5469C115.653 38.1455 117.176 37.0424 118.67 36.1242C119.595 35.5206 120.51 35.446 121.074 36.2292C122.244 37.7827 123.151 37.4038 124.657 36.5254C127.344 35.0051 130.161 33.7499 133.363 33.5548C135.906 33.3959 137.9 31.5281 140.291 30.7601C140.859 30.5779 141.505 30.5018 141.994 30.2134C143.582 29.309 146.1 30.6049 146.922 28.8501C147.495 27.5701 146.708 25.6747 146.509 23.9411C146.938 24.0227 147.287 23.998 147.473 24.1577C148.651 25.1822 149.11 27.4462 150.669 27.4277C152.135 27.3956 153.742 26.1342 155.102 25.2154C155.945 24.6378 156.922 24.0609 157.489 24.7119C159.215 26.7443 160.383 25.2294 161.981 24.497C164.053 23.5686 166.1 22.5607 168.419 22.123C170.994 21.6469 173.507 20.8399 175.936 19.4901C178.813 17.8649 182.198 17.1285 185.974 17.1876C185.348 15.2402 184.825 13.6107 184.302 11.9812C185.546 11.5379 185.718 12.4911 186.127 12.9296C188.823 15.6152 189.814 15.779 193.118 13.5344C194.329 12.7074 195.293 12.0907 196.384 13.538C197.449 14.9057 198.593 14.0123 199.505 13.3689C203.042 10.8742 206.972 9.74378 211.189 9.09098C213.965 8.68205 216.164 6.61691 219.007 6.14221C220.665 5.873 222.231 5.45784 223.873 6.11437C221.14 6.37803 218.675 7.47632 216.183 8.62735C218.766 8.4555 221.296 8.25693 223.973 8.09878C222.991 9.77341 221.872 10.7464 219.218 11.1162C214.085 11.8437 209.251 13.2207 204.667 15.6571C203.135 16.456 201.421 16.8307 199.72 16.5442C197.455 16.1755 197.355 17.2595 197.838 18.902C198.346 20.624 198.801 22.3192 198.635 24.17C197.228 23.9644 196.832 22.7323 196.27 21.8168C194.596 19.1101 192.642 18.5975 190.213 20.7805C189.244 21.6616 188.74 22.0426 187.896 21.0859C187.289 20.448 186.96 20.8166 186.403 21.1708C182.694 23.5456 178.591 24.5561 174.235 24.6395C173.617 24.6627 173.107 24.6072 172.575 25.0409C169.333 27.6165 165.486 28.5886 161.435 28.9248C159.78 29.0618 159.49 29.5497 159.987 31.0997C160.523 32.7689 160.654 34.5683 160.972 36.3951C159.068 36.1737 158.813 34.5456 158.053 33.4307C156.44 31.0549 154.525 30.6615 152.554 32.7411C151.555 33.8072 150.94 34.3992 149.681 33.4008C148.779 32.6819 147.829 33.2061 147.163 33.6391C144.295 35.5685 141.01 35.9219 137.752 36.2226C136.231 36.3602 135.194 37.3071 134.054 37.9361C131.165 39.5216 128.203 40.6041 124.94 40.4682C123.033 40.379 123.256 41.4912 123.359 42.5101C123.569 44.4157 123.953 46.309 124.254 48.3606C122.147 48.2042 121.801 46.4302 121.309 45.3167C120.224 42.7717 118.681 43.3986 116.959 44.3023C115.345 45.1272 114.043 46.6415 111.896 45.6649C111.376 45.4374 110.332 45.9478 109.653 46.3411C106.693 48.1246 103.465 49.0735 100.046 49.4262C98.2686 49.6022 96.6275 50.4799 95.0269 51.3445C91.8814 52.9683 88.4851 53.5328 84.9575 53.131C88.1841 51.4812 92.1104 52.1495 95.5892 49.8926C91.7988 49.9259 88.5047 50.8083 85.1827 51.7435C83.7916 52.1463 85.0048 52.7213 85.0768 53.2242C83.7893 54.646 85.3966 55.752 85.4829 56.9957C85.5437 58.1599 85.7389 59.3248 85.9062 60.5425C83.9333 60.3868 83.519 58.6785 82.6902 57.6294C80.926 55.4777 79.1986 55.1117 77.3623 57.192C76.2798 58.4164 75.5283 59.1399 74.0471 57.7304C73.0029 56.7066 71.5713 57.1224 70.4422 57.9234C68.4978 59.2492 66.4663 60.1646 64.124 60.3906C60.489 60.7686 57.0222 61.5311 53.8548 63.6441C51.6117 65.1536 49.0682 66.1456 46.247 65.2979C46.0247 68.0874 47.409 70.4487 46.8242 73.2232C45.4128 72.4488 44.8273 71.3216 44.0923 70.2862C41.9919 67.3656 40.0723 67.2367 37.0581 69.8267C36.1685 67.6134 36.2947 64.9424 33.7175 63.1833C33.9464 64.7319 34.0327 65.9756 34.3623 67.1412C34.6918 68.3067 34.9185 69.9876 37.1031 69.5492ZM182.776 21.8531C176.305 21.4759 169.971 22.5013 163.886 24.7184C170.133 23.2825 176.689 24.2024 182.776 21.8531ZM89.5129 49.2132C95.0195 47.8396 101.012 49.5105 106.631 46.2594C100.562 46.7175 94.8754 46.8337 89.5129 49.2132ZM126.615 36.7736C129.402 35.7034 132.346 35.6789 135.268 35.3104C138.097 34.9282 141.049 35.2079 144.139 33.6896C137.7 32.9952 132.161 34.686 126.615 36.7736ZM220.506 9.69448C215.395 9.93266 210.227 9.57539 205.442 11.9446C210.451 11.3885 215.585 11.3621 220.506 9.69448ZM54.7122 61.4398C51.5592 61.9262 48.2297 61.7238 44.7959 63.7033C48.9519 65.0869 51.8842 63.3562 54.7122 61.4398ZM25.1059 68.5351C20.8042 70.1794 16.7112 72.1951 12.8562 75.2304C17.9889 74.503 21.3642 71.2271 25.1059 68.5351ZM42.016 62.0092C42.4056 65.1722 43.2561 68.0996 45.7604 70.1889C45.0999 67.1568 45.2245 63.7848 42.016 62.0092ZM177.097 20.7393C179.64 20.5805 182.183 20.4216 184.74 20.1703C185.346 20.1073 186.408 20.0731 186.409 19.2399C186.414 18.1421 185.322 18.3614 184.544 18.3044C181.818 18.1714 179.549 19.6013 177.097 20.7393ZM122.437 45.3489C123.291 42.5759 121.648 40.3851 121.514 38.017C121.498 37.4085 120.462 36.689 119.623 37.0021C118.61 37.3275 119.281 38.1642 119.419 38.7336C119.959 40.9716 121.228 42.9752 122.437 45.3489ZM33.3488 67.4666C28.2011 68.2865 26.5773 68.9394 24.1884 71.1094C28.0171 71.1953 30.7468 69.5296 33.3488 67.4666ZM67.5541 57.8424C63.1361 58.428 58.6648 58.9869 54.2468 59.5726C58.7534 60.0984 63.1586 59.473 67.5541 57.8424ZM101.502 45.1881C104.729 45.0725 108.078 45.7511 111.55 43.0576C107.491 43.0896 104.44 43.8939 101.502 45.1881ZM159.86 27.5015C163.394 28.3398 166.433 26.6625 169.61 25.5547C166.263 25.5771 163.027 26.2217 159.86 27.5015ZM62.3051 57.5112C65.8485 56.9871 69.4047 56.5029 72.9886 55.9659C69.151 54.0415 65.8087 56.1669 62.3051 57.5112ZM159.026 33.1183C159.661 30.5028 158.486 28.5129 157.81 26.4065C157.618 25.8103 157.06 25.4635 156.409 25.8041C155.745 26.1048 156.099 26.6489 156.186 27.0594C156.674 29.1384 157.771 31.0221 159.026 33.1183ZM110.557 38.2912C111.335 40.7155 111.843 42.4375 112.486 44.1602C112.705 44.7036 113.304 45.0373 113.966 44.8688C114.371 44.7386 114.568 44.2371 114.372 43.9054C113.326 42.1806 113.65 39.7091 110.557 38.2912ZM196.968 21.0666C197.292 20.9624 197.563 20.8316 197.888 20.7274C197.301 18.8992 196.754 17.058 196.127 15.2428C195.935 14.6466 195.885 13.6544 194.912 13.9668C194.223 14.1881 194.047 15.0337 194.358 15.723C195.214 17.5526 196.084 19.2897 196.968 21.0666ZM72.9504 51.1117C72.5855 53.5963 73.7146 55.1628 74.641 56.7944C74.9157 57.2323 75.3782 57.6975 75.7986 57.4749C76.3001 57.2262 76.5951 56.4738 76.201 55.9427C75.1913 54.4695 74.7259 52.6022 72.9504 51.1117ZM197.762 15.4628C201.789 15.7481 204.341 15.0603 208.221 12.9377C204.595 12.7867 201.652 14.3454 197.762 15.4628ZM84.254 57.3465C83.2067 54.9208 83.4185 51.9592 80.8818 50.1871C81.1438 52.9527 82.462 55.2476 84.254 57.3465ZM140.348 32.1888C142.828 32.5322 144.927 32.3843 147.084 31.9987C147.543 31.8952 148.225 32.0707 148.196 31.4225C148.192 30.8537 147.798 30.3226 146.974 30.5432C144.884 30.9954 142.642 30.8383 140.348 32.1888ZM123.365 39.0449C126.54 39.6035 129.506 39.0898 131.978 36.7615C129.089 37.5138 126.241 38.253 123.365 39.0449ZM147.886 26.6992C148.904 29.31 148.823 31.7034 151.404 33.198C151.441 30.2488 150.003 28.694 147.886 26.6992ZM118.451 42.6832C118.979 41.6807 118.698 40.8064 118.537 40.0252C118.416 39.231 118.383 38.0141 117.128 38.2854C115.658 38.582 116.594 39.6846 116.811 40.3602C117.107 41.142 117.02 42.2658 118.451 42.6832ZM39.5176 62.7238C39.6955 64.1134 38.715 65.6558 40.4439 66.7228C40.6699 66.8695 41.1436 66.6735 41.4934 66.6489C41.3838 65.1934 41.1654 63.8168 40.0956 62.7135C40.0701 62.6341 39.9207 62.7259 39.5176 62.7238Z" fill="white"/>
<path d="M-7.99979 83.8936C-6.98107 84.8379 -5.98861 84.1685 -6.08168 83.3215C-6.34815 80.8204 -4.4203 81.2536 -3.23641 81.1803C-0.128414 80.9715 2.58997 79.9671 5.0809 78.1151C6.63266 76.9592 8.53273 77.4451 10.2586 77.1102C13.9387 76.4546 17.4123 75.2954 20.5519 73.2351C20.8507 73.0515 20.9513 72.6684 21.4745 71.9305C18.0122 72.4284 15.1271 73.7494 11.6213 72.8584C14.6452 71.2737 17.8463 71.9118 20.6743 69.9954C17.3298 69.8855 14.3239 70.4123 11.6821 71.6552C8.76928 73.0289 5.86322 74.0059 2.63136 74.386C-0.291213 74.7545 -3.00134 76.0631 -5.36615 77.6116C-7.09283 78.7798 -7.25422 77.9986 -7.74367 76.7529C-8.20759 75.5866 -8.79314 74.4594 -9.33814 73.3191C-9.74579 73.5816 -10.0168 73.7124 -10.0318 73.8049C-9.38102 78.1993 -11.8224 79.5093 -15.7171 79.357C-16.6172 79.3391 -17.5369 79.6783 -17.7231 80.3518C-18.4145 83.0728 -20.5496 82.9692 -22.5953 83.1438C-22.6764 83.1699 -22.8235 83.1294 -22.9046 83.1555C-30.3856 86.0399 -38.4687 87.1886 -45.9872 91.4879C-46.3956 90.2161 -46.8295 88.8648 -47.2506 87.5533C-47.4165 87.0366 -47.4158 86.2034 -48.2115 86.3712C-48.9262 86.513 -48.8714 87.2408 -48.9615 87.7958C-48.9765 87.8883 -48.9383 88.0075 -48.9533 88.1C-49.4819 92.3032 -49.5119 92.4882 -53.9164 92.2803C-56.0514 92.1767 -56.7323 92.7022 -56.2819 94.662C-56.0184 95.7611 -56.2534 96.1435 -57.5717 96.216C-62.1984 96.4303 -66.4573 97.9293 -70.825 99.5071C-74.7063 100.929 -79.0237 101.131 -82.6775 103.401C-83.9132 104.148 -84.3794 103.114 -84.82 102.16C-85.4183 100.993 -85.1886 99.3405 -86.8049 98.7635C-88.1584 100.119 -86.5887 102.64 -88.5647 103.45C-90.1479 104.09 -92.0292 104.08 -93.7784 104.203C-94.8812 104.25 -95.6688 104.722 -95.6718 105.688C-95.7184 107.632 -96.6763 107.852 -98.4127 108.015C-101.482 108.343 -104.503 108.962 -107.22 110.667C-109.38 112.019 -112.089 111.661 -114.48 112.429C-115.048 112.611 -115.618 112.926 -116.183 112.976C-118.001 113.165 -119.293 115.684 -120.984 114.736C-122.195 114.029 -122.658 112.03 -123.506 110.504C-123.807 110.82 -124.105 111.004 -124.163 111.241C-124.525 112.761 -123.58 114.868 -124.859 115.761C-126.069 116.588 -128.11 116.498 -129.75 116.543C-130.772 116.564 -131.903 116.664 -131.984 117.523C-132.204 120.18 -134.036 119.629 -135.762 119.964C-137.987 120.415 -140.238 120.787 -142.378 121.781C-144.749 122.893 -147.262 123.7 -150.023 124.017C-153.308 124.37 -156.49 125.742 -159.525 127.988C-160.15 126.041 -160.673 124.412 -161.197 122.782C-162.466 123.146 -162.051 124.021 -162.128 124.616C-162.757 128.369 -163.468 129.079 -167.461 129.178C-168.926 129.21 -170.07 129.27 -170.114 131.082C-170.184 132.814 -171.634 132.754 -172.75 132.761C-177.078 132.792 -180.931 134.161 -184.74 136.085C-187.235 137.368 -190.225 136.969 -192.814 138.239C-194.318 138.985 -195.833 139.559 -196.786 141.049C-194.41 139.672 -191.767 139.131 -189.07 138.615C-191.271 139.98 -193.443 141.291 -195.712 142.721C-193.938 143.51 -192.462 143.65 -190.089 142.406C-185.493 140.009 -180.76 138.314 -175.614 137.627C-173.904 137.384 -172.293 136.691 -171.076 135.468C-169.449 133.849 -168.737 134.673 -168.173 136.289C-167.584 137.985 -166.967 139.629 -165.755 141.037C-164.73 140.05 -165.125 138.818 -165.201 137.746C-165.416 134.571 -164.126 133.017 -160.88 133.378C-159.579 133.53 -158.948 133.546 -158.818 132.277C-158.696 131.405 -158.214 131.513 -157.555 131.477C-153.157 131.248 -149.232 129.682 -145.642 127.214C-145.126 126.872 -144.744 126.53 -144.059 126.574C-139.923 126.78 -136.23 125.331 -132.74 123.246C-131.315 122.394 -130.795 122.621 -130.297 124.171C-129.761 125.841 -128.82 127.38 -128.015 129.05C-126.595 127.761 -127.336 126.289 -127.367 124.94C-127.439 122.07 -126.111 120.635 -123.298 121.179C-121.865 121.464 -121.02 121.587 -120.577 120.042C-120.263 118.933 -119.185 118.806 -118.392 118.77C-114.936 118.669 -112.059 117.044 -109.236 115.392C-107.919 114.618 -106.524 114.784 -105.232 114.632C-101.959 114.239 -98.921 113.395 -96.3468 111.385C-94.8483 110.202 -94.3821 111.236 -93.8731 112.125C-92.934 113.796 -92.1443 115.559 -91.1947 117.403C-89.5723 116.049 -90.3238 114.405 -90.5722 113.213C-91.1713 110.512 -89.552 110.124 -87.6256 109.856C-85.8336 109.587 -83.893 110.06 -82.7158 108.016C-82.4253 107.528 -81.2797 107.336 -80.4989 107.261C-77.0539 106.987 -73.8768 105.88 -70.8911 104.176C-69.3439 103.284 -67.4986 103.042 -65.6939 102.814C-62.191 102.303 -59.101 100.784 -56.4667 98.404C-60.0506 98.941 -62.8539 101.77 -66.9964 101.96C-63.8951 99.7809 -60.703 98.5806 -57.4576 97.407C-56.092 96.9246 -56.7437 98.0984 -56.5095 98.5493C-54.6349 98.9557 -55.2978 100.791 -54.644 101.852C-54.0156 102.834 -53.4962 103.895 -52.9234 104.982C-51.4099 103.707 -52.0675 102.077 -52.0044 100.742C-51.8227 97.965 -50.6313 96.6618 -47.9272 97.2841C-46.3342 97.6494 -45.3019 97.8002 -44.9183 95.7919C-44.6653 94.3515 -43.2591 93.8562 -41.8748 93.8501C-39.522 93.7961 -37.3374 93.3577 -35.3014 92.1778C-32.1259 90.369 -28.8632 88.9706 -25.0578 88.8448C-22.3552 88.7661 -19.7096 88.092 -17.9094 85.7603C-16.1047 87.899 -15.8555 90.6248 -13.7647 92.5401C-13.068 91.0888 -13.2482 89.8314 -13.2534 88.5617C-13.2459 84.9643 -11.7602 83.7419 -7.8016 84.093C-8.36685 81.7755 -10.0244 79.6773 -8.95308 76.7466C-8.23767 78.1391 -7.58381 79.2005 -7.17318 80.3401C-6.76256 81.4796 -5.96832 82.9782 -7.99979 83.8936ZM-154.209 129.92C-149.167 125.846 -143.42 122.993 -137.182 121.253C-143.097 123.722 -147.892 128.286 -154.209 129.92ZM-62.4514 97.8706C-67.7283 99.9595 -71.6276 104.807 -78.0891 105.435C-72.888 102.274 -68.1967 99.0578 -62.4514 97.8706ZM-99.8601 109.356C-102.749 110.109 -105.157 111.802 -107.747 113.204C-110.27 114.54 -112.507 116.486 -115.903 117.051C-111.072 112.737 -105.584 110.888 -99.8601 109.356ZM-191.964 142C-187.67 139.218 -183.676 135.919 -178.406 135.06C-182.803 137.523 -186.992 140.491 -191.964 142ZM-27.0382 87.5516C-24.1914 86.1115 -21.6021 84.0087 -17.6578 83.619C-20.2314 87.1635 -23.6231 87.4634 -27.0382 87.5516ZM1.16441 76.0846C5.61922 74.9172 10.1206 74.1733 15.022 74.3969C10.4253 76.7936 5.77385 76.0951 1.16441 76.0846ZM-16.3838 80.6232C-14.8591 83.4218 -13.8465 86.297 -14.6663 89.4538C-15.8944 86.6039 -17.9589 83.9348 -16.3838 80.6232ZM-150.24 125.709C-152.4 127.06 -154.56 128.411 -156.785 129.696C-157.315 129.997 -158.198 130.588 -158.684 129.911C-159.327 129.021 -158.312 128.563 -157.712 128.064C-155.573 126.369 -152.896 126.211 -150.24 125.709ZM-91.4709 113.896C-93.7793 112.139 -93.7192 109.401 -94.9886 107.398C-95.3295 106.893 -94.906 105.705 -94.0419 105.471C-93.0285 105.146 -93.087 106.217 -92.8678 106.76C-92.0038 108.894 -91.8695 111.262 -91.4709 113.896ZM-6.1597 80.0146C-1.49692 77.6844 0.20347 77.27 3.40905 77.6436C0.34606 79.9423 -2.84301 80.1772 -6.1597 80.0146ZM-39.5738 92.1029C-35.6407 90.007 -31.6799 87.8584 -27.7468 85.7625C-31.1049 88.8136 -35.0507 90.8698 -39.5738 92.1029ZM-74.5426 101.578C-77.234 103.363 -79.5613 105.863 -83.953 105.695C-80.634 103.358 -77.6852 102.236 -74.5426 101.578ZM-132.289 121.172C-134.674 123.911 -138.121 124.316 -141.349 125.265C-138.615 123.335 -135.608 121.975 -132.289 121.172ZM-35.4988 88.7777C-38.6849 90.4146 -41.8583 92.0911 -45.0849 93.741C-43.0849 89.9422 -39.1301 89.7245 -35.4988 88.7777ZM-128.34 125.253C-130.379 123.496 -130.582 121.194 -131.258 119.088C-131.45 118.491 -131.198 117.884 -130.47 117.782C-129.756 117.64 -129.726 118.289 -129.558 118.673C-128.745 120.648 -128.54 122.818 -128.34 125.253ZM-85.9198 101.241C-85.1414 103.666 -84.5521 105.362 -84.0716 107.136C-83.9335 107.706 -84.2263 108.326 -84.8622 108.574C-85.2676 108.704 -85.7195 108.411 -85.7533 108.027C-85.9071 106.016 -87.6097 104.195 -85.9198 101.241ZM-166.206 137.543C-166.53 137.647 -166.827 137.698 -167.151 137.803C-167.738 135.974 -168.365 134.159 -168.912 132.318C-169.103 131.722 -169.64 130.886 -168.667 130.573C-167.978 130.352 -167.343 130.937 -167.194 131.679C-166.825 133.664 -166.522 135.584 -166.206 137.543ZM-47.8798 89.772C-46.1366 91.5797 -46.1427 93.5107 -45.946 95.3766C-45.9145 95.8925 -46.0196 96.5401 -46.491 96.6038C-47.0436 96.6935 -47.7215 96.2536 -47.7102 95.5923C-47.747 93.8066 -48.4556 92.0175 -47.8798 89.772ZM-170.114 133.449C-173.222 136.025 -175.697 136.952 -180.087 137.485C-177.227 135.251 -173.927 134.805 -170.114 133.449ZM-53.4406 101.422C-54.0013 98.8399 -55.8976 96.5553 -54.8668 93.6377C-53.4697 96.0388 -53.2055 98.6721 -53.4406 101.422ZM-113.695 113.623C-115.511 115.346 -117.304 116.448 -119.282 117.39C-119.715 117.573 -120.168 118.113 -120.522 117.569C-120.85 117.104 -120.838 116.443 -120.04 116.143C-118.077 115.294 -116.346 113.861 -113.695 113.623ZM-95.8948 109.311C-98.1515 111.614 -100.862 112.922 -104.227 112.468C-101.44 111.398 -98.6943 110.341 -95.8948 109.311ZM-123.02 113.549C-122.327 116.264 -120.868 118.162 -122.097 120.881C-123.844 118.504 -123.579 116.403 -123.02 113.549ZM-89.7817 109.408C-90.7944 108.9 -91.0751 108.026 -91.3987 107.297C-91.7628 106.581 -92.4444 105.572 -91.2665 105.063C-89.8987 104.448 -90.0173 105.889 -89.8004 106.565C-89.5857 107.372 -88.8613 108.236 -89.7817 109.408ZM-13.9364 79.7497C-13.2721 80.9832 -11.5769 81.6664 -12.3615 83.5405C-12.4598 83.7912 -12.9591 83.9077 -13.2579 84.0913C-14.0161 82.8442 -14.6399 81.5977 -14.4124 80.0779C-14.4379 79.9984 -14.263 79.9861 -13.9364 79.7497Z" fill="white"/>
</g>
</svg>
