<svg width="650" height="401" viewBox="0 0 650 401" fill="none" xmlns="http://www.w3.org/2000/svg">
<g opacity="0.25">
<path d="M614.122 103.343C613.142 104.327 612.124 103.697 612.183 102.847C612.351 100.337 610.442 100.846 609.256 100.819C606.142 100.733 603.386 99.8366 600.824 98.0841C599.228 96.9902 597.349 97.5506 595.611 97.2838C591.908 96.7737 588.391 95.7522 585.173 93.8171C584.867 93.6454 584.752 93.2666 584.2 92.5498C587.679 92.9111 590.614 94.1174 594.082 93.089C590.998 91.6246 587.825 92.3883 584.923 90.5847C588.261 90.3433 591.285 90.7513 593.974 91.8891C596.939 93.1471 599.881 94.0089 603.125 94.2614C606.06 94.5145 608.82 95.7154 611.243 97.1696C613.015 98.2689 613.145 97.482 613.585 96.2179C614.003 95.0343 614.544 93.8849 615.043 92.7241C615.461 92.9702 615.737 93.0903 615.756 93.1822C615.278 97.5987 617.769 98.8116 621.655 98.506C622.554 98.4527 623.486 98.7554 623.699 99.4211C624.497 102.113 626.626 101.925 628.677 102.019C628.759 102.042 628.905 101.996 628.987 102.019C636.575 104.606 644.697 105.436 652.379 109.436C652.737 108.149 653.118 106.781 653.487 105.454C653.632 104.931 653.599 104.099 654.401 104.235C655.12 104.349 655.094 105.078 655.206 105.629C655.225 105.721 655.191 105.842 655.21 105.933C655.903 110.113 655.941 110.296 660.334 109.915C662.463 109.728 663.164 110.226 662.791 112.202C662.571 113.31 662.821 113.683 664.141 113.704C668.773 113.736 673.087 115.066 677.514 116.47C681.448 117.738 685.77 117.771 689.51 119.894C690.775 120.592 691.2 119.541 691.602 118.57C692.154 117.38 691.86 115.738 693.452 115.098C694.858 116.399 693.389 118.98 695.395 119.711C697.002 120.288 698.882 120.205 700.634 120.259C701.738 120.263 702.544 120.703 702.585 121.668C702.708 123.609 703.674 123.791 705.415 123.885C708.495 124.092 711.538 124.592 714.32 126.189C716.532 127.454 719.224 126.99 721.644 127.663C722.219 127.823 722.8 128.115 723.367 128.142C725.191 128.26 726.582 130.726 728.234 129.713C729.416 128.958 729.8 126.942 730.587 125.385C730.9 125.688 731.206 125.86 731.273 126.095C731.694 127.599 730.833 129.742 732.145 130.584C733.387 131.363 735.423 131.193 737.064 131.172C738.086 131.153 739.22 131.209 739.335 132.064C739.66 134.711 741.468 134.087 743.206 134.354C745.447 134.718 747.711 135.001 749.889 135.91C752.301 136.927 754.845 137.635 757.615 137.842C760.912 138.066 764.145 139.312 767.266 141.437C767.814 139.466 768.273 137.818 768.732 136.169C770.015 136.482 769.634 137.373 769.735 137.964C770.511 141.689 771.249 142.371 775.243 142.313C776.708 142.287 777.853 142.302 777.969 144.111C778.107 145.839 779.554 145.721 780.669 145.685C784.995 145.545 788.899 146.761 792.781 148.534C795.324 149.718 798.296 149.202 800.933 150.369C802.466 151.055 804.002 151.569 805.013 153.02C802.585 151.738 799.922 151.301 797.208 150.892C799.46 152.169 801.682 153.393 804.006 154.733C802.264 155.592 800.795 155.789 798.375 154.64C793.687 152.426 788.892 150.919 783.723 150.434C782.004 150.259 780.367 149.63 779.103 148.456C777.413 146.902 776.735 147.753 776.235 149.391C775.713 151.109 775.161 152.775 774.005 154.23C772.942 153.284 773.289 152.038 773.323 150.964C773.412 147.782 772.062 146.28 768.833 146.769C767.539 146.972 766.908 147.013 766.729 145.75C766.573 144.883 766.095 145.011 765.435 145C761.031 144.945 757.049 143.534 753.364 141.209C752.835 140.889 752.439 140.562 751.757 140.632C747.633 141.001 743.885 139.699 740.316 137.753C738.858 136.957 738.347 137.205 737.911 138.774C737.441 140.463 736.561 142.038 735.823 143.739C734.353 142.507 735.036 141.007 735.013 139.657C734.972 136.786 733.589 135.405 730.799 136.059C729.379 136.4 728.539 136.557 728.036 135.03C727.678 133.934 726.597 133.85 725.802 133.846C722.345 133.881 719.407 132.37 716.52 130.83C715.174 130.109 713.787 130.33 712.489 130.229C709.204 129.965 706.135 129.241 703.483 127.334C701.94 126.211 701.514 127.263 701.041 128.171C700.168 129.878 699.449 131.671 698.572 133.55C696.898 132.261 697.584 130.589 697.785 129.388C698.278 126.666 696.644 126.341 694.709 126.15C692.908 125.952 690.987 126.501 689.73 124.505C689.421 124.029 688.269 123.882 687.486 123.837C684.032 123.7 680.814 122.718 677.764 121.133C676.183 120.303 674.329 120.134 672.517 119.976C668.997 119.604 665.849 118.208 663.123 115.934C666.725 116.329 669.638 119.046 673.785 119.073C670.6 117.017 667.363 115.943 664.074 114.898C662.691 114.47 663.388 115.617 663.172 116.077C661.315 116.557 662.049 118.364 661.438 119.451C660.848 120.457 660.371 121.537 659.842 122.646C658.279 121.432 658.872 119.777 658.756 118.445C658.465 115.678 657.224 114.423 654.546 115.151C652.969 115.579 651.943 115.77 651.481 113.778C651.171 112.349 649.747 111.909 648.363 111.958C646.01 111.997 643.81 111.644 641.729 110.546C638.485 108.863 635.17 107.595 631.362 107.619C628.659 107.646 625.989 107.077 624.098 104.818C622.379 107.026 622.237 109.76 620.223 111.756C619.47 110.333 619.601 109.07 619.556 107.801C619.407 104.206 617.874 103.043 613.932 103.55C614.406 101.212 615.979 99.0502 614.794 96.1641C614.134 97.5836 613.522 98.6699 613.157 99.8248C612.791 100.98 612.057 102.508 614.122 103.343ZM762.031 143.577C756.832 139.704 750.978 137.079 744.675 135.586C750.683 137.82 755.654 142.193 762.031 143.577ZM669.082 115.165C674.437 117.044 678.524 121.734 685.006 122.107C679.684 119.154 674.87 116.125 669.082 115.165ZM706.914 125.169C709.83 125.807 712.303 127.404 714.947 128.703C717.52 129.939 719.832 131.795 723.248 132.225C718.251 128.106 712.694 126.473 706.914 125.169ZM800.232 154.16C795.831 151.549 791.711 148.41 786.412 147.759C790.902 150.048 795.205 152.848 800.232 154.16ZM633.29 106.249C630.389 104.922 627.719 102.922 623.762 102.688C626.473 106.129 629.874 106.295 633.29 106.249ZM604.658 95.9009C600.161 94.9099 595.633 94.3438 590.745 94.7603C595.432 96.9741 600.052 96.093 604.658 95.9009ZM622.371 99.745C620.958 102.601 620.059 105.514 621.003 108.636C622.118 105.74 624.075 102.992 622.371 99.745ZM757.899 139.524C760.11 140.789 762.322 142.054 764.596 143.25C765.137 143.531 766.043 144.086 766.502 143.391C767.11 142.477 766.077 142.059 765.458 141.584C763.254 139.974 760.573 139.922 757.899 139.524ZM698.71 130.036C700.948 128.188 700.78 125.455 701.969 123.403C702.29 122.886 701.82 121.715 700.948 121.516C699.922 121.231 700.023 122.299 699.825 122.85C699.046 125.016 699.005 127.388 698.71 130.036ZM612.131 99.5395C607.38 97.3947 605.665 97.0475 602.476 97.5471C605.627 99.7235 608.823 99.8326 612.131 99.5395ZM645.995 110.303C641.983 108.363 637.94 106.372 633.928 104.433C637.403 107.349 641.427 109.249 645.995 110.303ZM681.31 118.393C684.07 120.071 686.494 122.478 690.875 122.137C687.467 119.932 684.476 118.927 681.31 118.393ZM739.783 135.698C742.274 138.341 745.734 138.61 748.997 139.431C746.189 137.61 743.131 136.37 739.783 135.698ZM641.792 107.141C645.041 108.651 648.277 110.201 651.567 111.722C649.419 108.005 645.458 107.944 641.792 107.141ZM735.998 139.931C737.967 138.096 738.079 135.787 738.671 133.656C738.839 133.053 738.563 132.456 737.832 132.383C737.113 132.269 737.109 132.918 736.956 133.309C736.221 135.314 736.102 137.491 735.998 139.931ZM692.665 117.609C691.983 120.062 691.461 121.78 691.051 123.572C690.935 124.147 691.252 124.755 691.897 124.977C692.307 125.092 692.747 124.781 692.766 124.396C692.841 122.38 694.47 120.494 692.665 117.609ZM774.318 150.721C774.646 150.812 774.945 150.852 775.273 150.943C775.787 149.093 776.343 147.255 776.817 145.393C776.984 144.79 777.488 143.934 776.503 143.66C775.806 143.466 775.194 144.076 775.075 144.822C774.784 146.821 774.557 148.751 774.318 150.721ZM654.203 107.646C652.532 109.521 652.614 111.451 652.491 113.323C652.48 113.84 652.611 114.483 653.084 114.528C653.64 114.596 654.3 114.129 654.263 113.469C654.229 111.683 654.867 109.868 654.203 107.646ZM778.062 146.476C781.269 148.928 783.779 149.756 788.187 150.116C785.241 147.997 781.926 147.681 778.062 146.476ZM660.218 119.068C660.677 116.466 662.482 114.109 661.337 111.234C660.035 113.688 659.875 116.33 660.218 119.068ZM720.906 128.887C722.789 130.538 724.624 131.568 726.638 132.432C727.078 132.597 727.551 133.119 727.883 132.561C728.193 132.084 728.155 131.424 727.346 131.156C725.351 130.384 723.565 129.02 720.906 128.887ZM702.95 125.279C705.296 127.491 708.055 128.692 711.4 128.106C708.574 127.147 705.788 126.199 702.95 125.279ZM730.221 128.446C729.636 131.186 728.252 133.141 729.587 135.808C731.239 133.365 730.892 131.275 730.221 128.446ZM696.846 125.617C697.838 125.07 698.084 124.185 698.378 123.444C698.714 122.714 699.355 121.68 698.158 121.217C696.767 120.656 696.943 122.092 696.752 122.775C696.57 123.591 695.88 124.482 696.846 125.617ZM619.891 98.9686C619.276 100.227 617.609 100.977 618.467 102.818C618.575 103.065 619.078 103.162 619.384 103.334C620.093 102.057 620.667 100.787 620.38 99.2778C620.402 99.1973 620.227 99.1919 619.891 98.9686Z" fill="white"/>
<path d="M568.56 90.5326C568.892 91.8814 570.089 91.8678 570.477 91.1091C571.629 88.8733 573.002 90.2949 574.031 90.8845C576.742 92.4185 579.565 93.0738 582.664 92.896C584.595 92.7834 585.916 94.2338 587.541 94.9027C590.976 96.378 594.515 97.3191 598.27 97.3239C598.621 97.3347 598.915 97.07 599.758 96.7412C596.592 95.2539 593.456 94.7715 591.017 92.1C594.414 92.4385 596.737 94.7312 600.153 94.6848C597.42 92.7546 594.619 91.5423 591.729 91.1283C588.541 90.6747 585.576 89.8933 582.667 88.4343C580.023 87.1356 577.04 86.739 574.213 86.7326C572.129 86.7593 572.423 86.018 572.699 84.7083C572.953 83.4791 573.083 82.2155 573.255 80.9634C572.77 80.9586 572.472 80.9189 572.408 80.9879C570.537 85.0166 567.777 84.7689 564.607 82.5007C563.865 81.9909 562.91 81.7687 562.385 82.229C560.311 84.1219 558.585 82.8618 556.78 81.8831C556.698 81.8603 556.597 81.7456 556.515 81.7228C548.68 80.02 541.296 76.5363 532.652 75.9948C533.01 74.7079 533.391 73.3406 533.76 72.0135C533.905 71.4907 534.364 70.7951 533.607 70.4978C532.932 70.2234 532.578 70.8614 532.197 71.2756C532.134 71.3446 532.1 71.4652 532.037 71.5342C529.285 74.7548 529.158 74.8928 525.593 72.298C523.867 71.0379 523.009 71.1026 522.308 72.9873C521.924 74.0503 521.517 74.2405 520.376 73.5764C516.393 71.2121 512.012 70.1232 507.496 69.0403C503.472 68.0943 499.754 65.8903 495.454 65.7774C494.011 65.7226 494.19 64.6026 494.347 63.563C494.488 62.2592 495.589 61.0055 494.556 59.6349C492.68 60.023 492.605 62.9919 490.509 62.5822C488.835 62.2464 487.269 61.2042 485.74 60.3456C484.793 59.7788 483.875 59.7403 483.342 60.5451C482.235 62.1434 481.314 61.8006 479.773 60.9822C477.029 59.5688 474.165 58.4255 470.958 58.3567C468.411 58.2981 466.345 56.5102 463.925 55.837C463.35 55.6772 462.701 55.6267 462.202 55.3578C460.58 54.5166 458.115 55.9106 457.223 54.1896C456.601 52.9331 457.313 51.0082 457.443 49.2681C457.018 49.3665 456.668 49.3556 456.489 49.5225C455.351 50.5926 454.982 52.8729 453.423 52.9159C451.958 52.9415 450.302 51.7443 448.907 50.8798C448.042 50.3358 447.043 49.7979 446.502 50.4707C444.858 52.5695 443.631 51.1017 442.005 50.4328C439.898 49.5868 437.813 48.6603 435.479 48.3142C432.887 47.9399 430.344 47.2324 427.864 45.9793C424.925 44.4687 421.513 43.8662 417.743 44.0739C418.291 42.1034 418.75 40.4545 419.209 38.8057C417.948 38.4118 417.814 39.3709 417.422 39.8253C414.834 42.6149 413.85 42.8176 410.46 40.7049C409.218 39.9262 408.23 39.348 407.197 40.8371C406.187 42.2457 405.008 41.398 404.072 40.791C400.44 38.4375 396.468 37.4627 392.228 36.9765C389.439 36.6772 387.161 34.7002 384.3 34.3379C382.633 34.1342 381.052 33.781 379.438 34.5017C382.178 34.6575 384.684 35.6579 387.22 36.7099C384.632 36.6399 382.096 36.5411 379.415 36.4885C380.463 38.1231 381.619 39.0513 384.285 39.3164C389.443 39.8411 394.328 41.0267 399.004 43.2807C400.567 44.0187 402.293 44.3256 403.983 43.9723C406.231 43.5146 406.373 44.5939 405.955 46.2542C405.515 47.9948 405.128 49.7067 405.366 51.5495C406.765 51.2886 407.112 50.0419 407.637 49.105C409.203 46.3344 411.135 45.7453 413.649 47.8309C414.652 48.6732 415.17 49.034 415.976 48.0449C416.557 47.3835 416.9 47.7389 417.471 48.071C421.271 50.2978 425.41 51.146 429.766 51.0578C430.385 51.0566 430.892 50.9811 431.44 51.3935C434.782 53.8394 438.664 54.6593 442.725 54.8358C444.384 54.9074 444.694 55.3835 444.257 56.9519C443.787 58.6409 443.728 60.4441 443.482 62.282C445.376 61.9858 445.566 60.3489 446.282 59.2049C447.8 56.7675 449.698 56.299 451.749 58.2993C452.79 59.3253 453.427 59.8926 454.647 58.8453C455.519 58.0916 456.489 58.5779 457.171 58.9844C460.114 60.7993 463.41 61.0231 466.677 61.1952C468.202 61.2729 469.276 62.1782 470.439 62.7618C473.389 64.2323 476.391 65.1973 479.647 64.933C481.548 64.7688 481.37 65.8889 481.306 66.9111C481.172 68.8235 480.862 70.7304 480.642 72.7923C482.742 72.5531 483.018 70.7668 483.465 69.6348C484.45 67.049 486.016 67.6147 487.772 68.4499C489.417 69.2106 490.778 70.6724 492.885 69.6121C493.396 69.3643 494.459 69.8332 495.152 70.1995C498.18 71.865 501.443 72.686 504.874 72.9038C506.657 73.0097 508.331 73.822 509.964 74.623C513.172 76.1217 516.587 76.552 520.096 76.0116C516.807 74.4901 512.91 75.3125 509.345 73.1943C513.134 73.0784 516.461 73.8304 519.817 74.634C521.223 74.9818 520.033 75.604 519.981 76.1095C521.323 77.4794 519.761 78.6479 519.724 79.894C519.709 81.0597 519.56 82.2314 519.44 83.4547C521.405 83.2214 521.752 81.4982 522.539 80.4172C524.217 78.1977 525.929 77.764 527.846 79.7703C528.976 80.9512 529.755 81.6446 531.179 80.1777C532.183 79.1136 533.629 79.4728 534.789 80.2287C536.784 81.4769 538.85 82.3115 541.2 82.4451C544.847 82.6797 548.341 83.3051 551.589 85.2918C553.89 86.7117 556.47 87.6029 559.256 86.6446C559.588 89.4233 558.298 91.8373 558.991 94.5865C560.371 93.7572 560.912 92.6078 561.605 91.5442C563.589 88.5433 565.502 88.3388 568.616 90.8081C569.418 88.5615 569.187 85.8975 571.693 84.0383C571.525 85.5947 571.487 86.8409 571.204 88.0185C570.921 89.1962 570.76 90.8847 568.56 90.5326ZM421.122 48.6099C427.573 47.9781 433.942 48.7534 440.11 50.7291C433.812 49.5403 427.297 50.7177 421.122 48.6099ZM515.39 72.2762C509.834 71.1205 503.912 73.0261 498.169 69.9988C504.251 70.2175 509.938 70.1097 515.39 72.2762ZM477.827 61.3073C475 60.3477 472.058 60.4391 469.123 60.186C466.281 59.9154 463.343 60.3112 460.196 58.9158C466.602 57.9683 472.203 59.4397 477.827 61.3073ZM382.943 37.9464C388.059 37.9831 393.209 37.4226 398.083 39.6017C393.056 39.2432 387.925 39.4189 382.943 37.9464ZM550.645 83.1229C553.815 83.4847 557.134 83.1515 560.643 84.9941C556.545 86.5404 553.547 84.9265 550.645 83.1229ZM580.508 89.0469C584.871 90.5205 589.04 92.3735 593.012 95.2546C587.855 94.7299 584.353 91.5895 580.508 89.0469ZM563.354 83.192C563.09 86.3679 562.355 89.3264 559.935 91.5128C560.475 88.457 560.218 85.0925 563.354 83.192ZM426.753 47.2733C424.206 47.2147 421.659 47.1562 419.093 47.0057C418.485 46.9666 417.422 46.9743 417.389 46.1417C417.34 45.0451 418.44 45.2211 419.216 45.1336C421.935 44.8933 424.258 46.2327 426.753 47.2733ZM482.339 69.7114C481.377 66.9741 482.932 64.7204 482.973 62.3488C482.966 61.7402 483.972 60.9804 484.823 61.2602C485.848 61.5455 485.21 62.408 485.095 62.9824C484.644 65.2399 483.454 67.292 482.339 69.7114ZM572.23 88.3038C577.406 88.9204 579.054 89.5089 581.526 91.5831C577.704 91.8196 574.911 90.2628 572.23 88.3038ZM537.672 80.034C542.109 80.4452 546.599 80.8276 551.037 81.2388C546.555 81.9417 542.128 81.4903 537.672 80.034ZM503.252 68.7264C500.023 68.7379 496.704 69.5478 493.127 66.9932C497.185 66.8653 500.265 67.5489 503.252 68.7264ZM444.242 53.3516C440.744 54.3283 437.642 52.772 434.424 51.7901C437.769 51.6807 441.028 52.1974 444.242 53.3516ZM542.904 79.4963C539.342 79.1123 535.77 78.7684 532.168 78.3729C535.927 76.299 539.35 78.2911 542.904 79.4963ZM445.298 58.9311C444.559 56.3427 445.656 54.308 446.249 52.1766C446.416 51.5733 446.961 51.2048 447.625 51.5195C448.3 51.7939 447.968 52.3515 447.897 52.765C447.49 54.8617 446.469 56.7871 445.298 58.9311ZM493.933 62.1913C493.25 64.6444 492.81 66.3851 492.236 68.1318C492.039 68.6834 491.453 69.0404 490.786 68.8981C490.375 68.784 490.159 68.2905 490.342 67.9514C491.319 66.1868 490.897 63.7299 493.933 62.1913ZM406.91 48.3828C406.582 48.2915 406.306 48.1714 405.978 48.0801C406.492 46.2302 406.966 44.3689 407.522 42.5304C407.689 41.9272 407.701 40.9338 408.685 41.2076C409.382 41.4016 409.591 42.2396 409.308 42.9406C408.525 44.8025 407.723 46.5725 406.91 48.3828ZM532.015 73.5211C532.477 75.9894 531.411 77.5991 530.549 79.2659C530.292 79.7142 529.848 80.1974 529.419 79.9914C528.908 79.7627 528.584 79.0225 528.957 78.4763C529.908 76.9644 530.299 75.0803 532.015 73.5211ZM405.896 42.8147C401.883 43.2583 399.306 42.6715 395.346 40.7033C398.963 40.4097 401.965 41.8513 405.896 42.8147ZM520.965 80.1961C521.916 77.731 521.588 74.7801 524.053 72.9095C523.9 75.6832 522.673 78.0282 520.965 80.1961ZM463.925 57.2668C461.46 57.7076 459.356 57.6425 457.186 57.3421C456.724 57.2568 456.049 57.459 456.052 56.8101C456.034 56.2416 456.407 55.6955 457.238 55.8835C459.345 56.2529 461.579 56.0077 463.925 57.2668ZM481.164 63.4488C478.013 64.1321 475.03 63.7355 472.468 61.5064C475.384 62.1443 478.259 62.7707 481.164 63.4488ZM456.175 52.0783C455.262 54.7271 455.437 57.1155 452.916 58.7106C452.763 55.7652 454.139 54.1549 456.175 52.0783ZM486.217 66.8908C485.651 65.9099 485.897 65.0252 486.027 64.2383C486.117 63.4399 486.102 62.2226 487.366 62.4443C488.846 62.6828 487.955 63.8214 487.765 64.505C487.5 65.2979 487.631 66.4174 486.217 66.8908ZM565.879 83.8076C565.756 85.2032 566.796 86.7057 565.111 87.84C564.891 87.9954 564.41 87.8183 564.059 87.8074C564.111 86.3488 564.275 84.9646 565.301 83.8201C565.323 83.7397 565.476 83.8255 565.879 83.8076Z" fill="white"/>
<path d="M215.26 -7.74441C214.28 -6.76074 213.262 -7.39055 213.321 -8.2405C213.489 -10.7501 211.58 -10.2414 210.394 -10.268C207.28 -10.3542 204.524 -11.2508 201.962 -13.0033C200.366 -14.0972 198.487 -13.5368 196.749 -13.8036C193.046 -14.3137 189.529 -15.3352 186.311 -17.2703C186.005 -17.442 185.89 -17.8208 185.338 -18.5376C188.817 -18.1763 191.752 -16.97 195.22 -17.9984C192.136 -19.4628 188.963 -18.6991 186.061 -20.5027C189.399 -20.7441 192.423 -20.3361 195.112 -19.1983C198.076 -17.9403 201.019 -17.0786 204.263 -16.826C207.198 -16.5729 209.957 -15.372 212.381 -13.9178C214.153 -12.8185 214.283 -13.6054 214.723 -14.8695C215.141 -16.0531 215.682 -17.2025 216.181 -18.3633C216.599 -18.1172 216.875 -17.9971 216.894 -17.9052C216.416 -13.4887 218.907 -12.2758 222.793 -12.5814C223.692 -12.6347 224.624 -12.332 224.837 -11.6663C225.635 -8.97466 227.764 -9.16224 229.815 -9.06831C229.897 -9.04549 230.043 -9.09168 230.125 -9.06886C237.713 -6.4813 245.835 -5.6518 253.517 -1.65183C253.875 -2.93872 254.256 -4.30604 254.625 -5.63315C254.77 -6.15595 254.737 -6.9885 255.538 -6.85213C256.258 -6.73858 256.232 -6.00928 256.344 -5.45823C256.363 -5.36639 256.329 -5.24574 256.348 -5.1539C257.041 -0.974849 257.079 -0.791167 261.472 -1.17231C263.601 -1.35988 264.302 -0.861575 263.929 1.1144C263.709 2.22304 263.959 2.59583 265.279 2.61642C269.911 2.64829 274.225 3.97846 278.652 5.38308C282.586 6.65077 286.908 6.6832 290.648 8.80682C291.912 9.50509 292.338 8.45351 292.74 7.48236C293.292 6.29274 292.998 4.65101 294.59 4.01076C295.996 5.31171 294.527 7.89259 296.533 8.62398C298.14 9.20105 300.02 9.11728 301.772 9.17155C302.876 9.17531 303.682 9.61601 303.723 10.5806C303.846 12.5213 304.812 12.7033 306.553 12.7977C309.633 13.0047 312.676 13.5045 315.458 15.1016C317.67 16.3666 320.362 15.9024 322.782 16.5756C323.356 16.7354 323.938 17.0272 324.505 17.0549C326.329 17.1722 327.72 19.6388 329.372 18.6252C330.554 17.8709 330.938 15.8547 331.725 14.2971C332.038 14.6009 332.344 14.7726 332.411 15.0079C332.832 16.5116 331.971 18.655 333.283 19.4968C334.525 20.2755 336.561 20.1053 338.202 20.0851C339.224 20.066 340.358 20.1214 340.473 20.9768C340.798 23.6233 342.606 22.9999 344.344 23.2667C346.585 23.6302 348.849 23.9132 351.027 24.8223C353.439 25.8401 355.983 26.5475 358.753 26.755C362.05 26.9788 365.283 28.2248 368.404 30.3495C368.952 28.3789 369.411 26.7301 369.87 25.0813C371.153 25.3948 370.772 26.2855 370.873 26.8768C371.649 30.6021 372.387 31.284 376.381 31.2252C377.846 31.1996 378.991 31.2147 379.107 33.0233C379.245 34.7515 380.692 34.634 381.807 34.5976C386.133 34.4577 390.037 35.6738 393.919 37.4469C396.462 38.6309 399.434 38.1145 402.071 39.2812C403.603 39.9675 405.14 40.4815 406.151 41.9325C403.723 40.6506 401.06 40.2133 398.345 39.8047C400.598 41.0812 402.82 42.306 405.144 43.6455C403.402 44.5042 401.933 44.7021 399.513 43.5522C394.825 41.3384 390.03 39.8311 384.861 39.3466C383.142 39.1717 381.505 38.543 380.241 37.3681C378.551 35.815 377.873 36.6661 377.373 38.3035C376.851 40.0213 376.299 41.6876 375.143 43.1424C374.08 42.1969 374.427 40.9502 374.461 39.8763C374.55 36.695 373.2 35.193 369.971 35.6811C368.677 35.8844 368.046 35.9258 367.867 34.6628C367.711 33.796 367.233 33.9232 366.573 33.9129C362.169 33.8577 358.187 32.4465 354.502 30.1218C353.973 29.8012 353.577 29.4746 352.895 29.5447C348.771 29.9139 345.023 28.6114 341.454 26.6655C339.996 25.87 339.485 26.1178 339.049 27.6862C338.579 29.3752 337.699 30.9502 336.96 32.6512C335.491 31.4193 336.174 29.9193 336.151 28.57C336.11 25.699 334.727 24.3176 331.937 24.9715C330.516 25.3128 329.677 25.4693 329.174 23.9428C328.816 22.8467 327.735 22.7625 326.94 22.7582C323.483 22.7931 320.545 21.2825 317.658 19.743C316.312 19.0219 314.925 19.2426 313.627 19.1416C310.342 18.8776 307.273 18.1539 304.621 16.2465C303.078 15.1238 302.652 16.1754 302.179 17.0835C301.306 18.7905 300.587 20.5834 299.71 22.4626C298.036 21.1737 298.722 19.5015 298.923 18.301C299.416 15.5783 297.782 15.2539 295.847 15.0622C294.046 14.8644 292.125 15.4134 290.868 13.4174C290.559 12.9413 289.407 12.7941 288.623 12.7496C285.17 12.6122 281.952 11.6304 278.902 10.0453C277.32 9.2155 275.467 9.04657 273.655 8.88905C270.134 8.51639 266.987 7.12096 264.261 4.84622C267.863 5.24169 270.776 7.95825 274.923 7.98525C271.738 5.92953 268.501 4.85582 265.212 3.81092C263.828 3.38274 264.526 4.52992 264.31 4.98969C262.452 5.46962 263.187 7.27709 262.576 8.36346C261.986 9.36939 261.509 10.4498 260.98 11.559C259.417 10.3444 260.01 8.68963 259.894 7.35765C259.603 4.59045 258.362 3.33515 255.684 4.06347C254.107 4.49123 253.081 4.68257 252.619 2.69086C252.309 1.26162 250.885 0.82203 249.501 0.870456C247.148 0.909138 244.948 0.55708 242.867 -0.541677C239.623 -2.22404 236.308 -3.49285 232.5 -3.46878C229.797 -3.44095 227.126 -4.01036 225.236 -6.26938C223.517 -4.0613 223.375 -1.32777 221.361 0.668383C220.608 -0.754321 220.739 -2.01783 220.694 -3.28677C220.545 -6.8811 219.012 -8.04401 215.07 -7.53735C215.544 -9.87527 217.117 -12.0372 215.932 -14.9233C215.271 -13.5038 214.66 -12.4175 214.294 -11.2626C213.929 -10.1078 213.194 -8.57906 215.26 -7.74441ZM363.169 32.4892C357.97 28.6169 352.115 25.9917 345.813 24.4986C351.821 26.733 356.792 31.1054 363.169 32.4892ZM270.22 4.07754C275.575 5.95709 279.662 10.6468 286.144 11.0199C280.822 8.06652 276.008 5.03756 270.22 4.07754ZM308.052 14.0813C310.968 14.7192 313.441 16.3168 316.085 17.6155C318.658 18.8512 320.97 20.7075 324.386 21.1378C319.389 17.0181 313.832 15.3859 308.052 14.0813ZM401.37 43.0723C396.969 40.4618 392.849 37.3225 387.55 36.6717C392.04 38.9604 396.343 41.7606 401.37 43.0723ZM234.428 -4.83888C231.527 -6.16585 228.857 -8.16506 224.9 -8.39912C227.611 -4.95869 231.012 -4.79254 234.428 -4.83888ZM205.796 -15.1865C201.298 -16.1775 196.771 -16.7436 191.882 -16.3271C196.57 -14.1133 201.19 -14.9945 205.796 -15.1865ZM223.509 -11.3424C222.096 -8.48596 221.197 -5.57306 222.141 -2.45102C223.256 -5.34707 225.213 -8.09535 223.509 -11.3424ZM359.037 28.437C361.248 29.702 363.46 30.967 365.734 32.1631C366.275 32.4435 367.181 32.9988 367.64 32.3032C368.248 31.3891 367.215 30.9718 366.596 30.4963C364.392 28.8867 361.711 28.8341 359.037 28.437ZM299.848 18.9482C302.086 17.1009 301.918 14.368 303.107 12.3159C303.428 11.7985 302.958 10.6279 302.086 10.4285C301.06 10.1433 301.161 11.2111 300.963 11.7627C300.184 13.9289 300.143 16.3005 299.848 18.9482ZM213.269 -11.5479C208.518 -13.6927 206.803 -14.0399 203.614 -13.5403C206.765 -11.3639 209.961 -11.2548 213.269 -11.5479ZM247.133 -0.784774C243.121 -2.72416 239.078 -4.71517 235.066 -6.65455C238.541 -3.73803 242.565 -1.83886 247.133 -0.784774ZM282.448 7.30563C285.208 8.98312 287.631 11.3905 292.013 11.0496C288.605 8.84495 285.614 7.8397 282.448 7.30563ZM340.921 24.6108C343.412 27.2534 346.872 27.5228 350.135 28.3439C347.327 26.5229 344.269 25.2823 340.921 24.6108ZM242.93 -3.9469C246.179 -2.4368 249.415 -0.886494 252.704 0.635011C250.556 -3.08205 246.596 -3.14384 242.93 -3.9469ZM337.136 28.8438C339.105 27.0085 339.216 24.7 339.809 22.5686C339.977 21.9653 339.701 21.3686 338.97 21.2953C338.251 21.1818 338.247 21.8306 338.094 22.2214C337.359 24.2267 337.24 26.4032 337.136 28.8438ZM293.803 6.52151C293.121 8.97464 292.599 10.6925 292.188 12.4848C292.073 13.0592 292.39 13.6673 293.035 13.8901C293.445 14.0042 293.885 13.6933 293.904 13.3086C293.978 11.2929 295.608 9.40657 293.803 6.52151ZM375.456 39.6334C375.784 39.7247 376.083 39.7643 376.411 39.8556C376.925 38.0057 377.481 36.1672 377.955 34.3059C378.122 33.7027 378.626 32.8462 377.641 32.5723C376.944 32.3783 376.332 32.9881 376.213 33.7348C375.922 35.7336 375.695 37.6634 375.456 39.6334ZM255.341 -3.44093C253.67 -1.56598 253.752 0.363245 253.629 2.23541C253.618 2.75223 253.749 3.39512 254.222 3.4402C254.778 3.50811 255.438 3.04181 255.401 2.38153C255.367 0.595772 256.005 -1.2199 255.341 -3.44093ZM379.2 35.3889C382.407 37.8408 384.917 38.6689 389.325 39.0285C386.379 36.9092 383.064 36.5936 379.2 35.3889ZM261.356 7.98092C261.815 5.37889 263.62 3.02136 262.475 0.146591C261.173 2.60084 261.013 5.24252 261.356 7.98092ZM322.044 17.8C323.927 19.4504 325.762 20.4807 327.776 21.3441C328.216 21.5099 328.689 22.0316 329.021 21.474C329.331 20.9968 329.293 20.3365 328.484 20.0681C326.489 19.2965 324.703 17.9331 322.044 17.8ZM304.088 14.1918C306.434 16.404 309.193 17.6049 312.538 17.019C309.712 16.0594 306.926 15.1112 304.088 14.1918ZM331.359 17.3584C330.774 20.0984 329.39 22.0533 330.725 24.721C332.377 22.2776 332.03 20.1881 331.359 17.3584ZM297.984 14.5301C298.975 13.9828 299.222 13.098 299.516 12.3568C299.852 11.6269 300.493 10.5922 299.296 10.1292C297.905 9.56897 298.08 11.0042 297.89 11.6879C297.708 12.5036 297.018 13.3949 297.984 14.5301ZM221.029 -12.1188C220.414 -10.8602 218.747 -10.1107 219.605 -8.26902C219.713 -8.0223 220.216 -7.92559 220.522 -7.75387C221.231 -9.02991 221.805 -10.3 221.518 -11.8096C221.54 -11.8901 221.365 -11.8955 221.029 -12.1188Z" fill="white"/>
</g>
</svg>
