<svg width="552" height="645" viewBox="0 0 552 645" fill="none" xmlns="http://www.w3.org/2000/svg">
<g opacity="0.25">
<path d="M638.448 227.691C639.83 227.651 640.048 226.495 639.381 225.965C637.42 224.394 639.074 223.367 639.849 222.498C641.872 220.206 643.058 217.624 643.483 214.604C643.747 212.721 645.419 211.75 646.387 210.324C648.493 207.323 650.096 204.111 650.827 200.497C650.905 200.162 650.704 199.823 650.545 198.944C648.48 201.684 647.402 204.604 644.321 206.399C645.308 203.199 647.998 201.436 648.613 198.139C646.198 200.371 644.473 202.816 643.509 205.513C642.45 208.488 641.113 211.18 639.125 213.678C637.345 215.955 636.381 218.745 635.828 221.464C635.451 223.476 634.784 223.04 633.558 222.503C632.406 222.005 631.197 221.618 630.006 221.195C629.908 221.66 629.812 221.939 629.867 222.014C633.441 224.649 632.665 227.254 629.836 229.836C629.195 230.445 628.793 231.318 629.141 231.92C630.59 234.306 629.025 235.708 627.719 237.243C627.681 237.317 627.55 237.391 627.512 237.465C624.333 244.655 619.502 251.042 617.302 259.251C616.114 258.64 614.851 257.991 613.626 257.362C613.144 257.114 612.553 256.528 612.116 257.196C611.717 257.789 612.272 258.261 612.603 258.713C612.658 258.788 612.77 258.846 612.825 258.921C615.439 262.236 615.55 262.386 612.325 265.282C610.76 266.683 610.658 267.522 612.363 268.586C613.328 269.176 613.435 269.606 612.565 270.567C609.485 273.913 607.574 277.905 605.643 282.028C603.941 285.706 601.069 288.829 600.127 292.945C599.795 294.322 598.735 293.919 597.75 293.553C596.503 293.147 595.491 291.829 593.952 292.54C593.969 294.426 596.855 295.111 596.05 297.044C595.398 298.586 594.077 299.879 592.942 301.173C592.205 301.967 591.99 302.843 592.674 303.522C594.021 304.919 593.508 305.734 592.411 307.048C590.499 309.397 588.828 311.918 588.141 314.991C587.591 317.43 585.445 319.049 584.32 321.24C584.052 321.76 583.878 322.374 583.518 322.799C582.383 324.187 583.268 326.848 581.414 327.35C580.066 327.69 578.324 326.606 576.649 326.121C576.663 326.551 576.584 326.886 576.713 327.092C577.538 328.408 579.695 329.235 579.435 330.744C579.177 332.16 577.687 333.507 576.573 334.67C575.874 335.391 575.155 336.242 575.708 336.901C577.441 338.918 575.769 339.796 574.802 341.222C573.568 343.076 572.259 344.891 571.47 347.066C570.603 349.484 569.42 351.785 567.717 353.913C565.673 356.43 564.424 359.59 563.898 363.262C562.079 362.327 560.557 361.545 559.035 360.762C558.406 361.894 559.317 362.222 559.685 362.692C561.91 365.76 561.918 366.75 559.198 369.576C558.198 370.61 557.442 371.442 558.697 372.744C559.878 374.008 558.822 374.967 558.048 375.742C555.046 378.752 553.326 382.374 552.031 386.355C551.199 388.978 548.827 390.762 547.92 393.441C547.399 395.003 546.748 396.452 547.14 398.155C547.822 395.549 549.284 393.344 550.802 391.12C550.233 393.597 549.646 396.017 549.077 398.587C550.876 397.916 552.007 396.996 552.781 394.484C554.291 389.628 556.394 385.171 559.5 381.135C560.523 379.784 561.157 378.185 561.138 376.486C561.126 374.227 562.208 374.314 563.749 375.059C565.365 375.842 566.962 376.569 568.809 376.72C568.824 375.32 567.673 374.729 566.859 374.029C564.456 371.949 564.253 369.968 566.777 367.979C567.794 367.188 568.247 366.763 567.436 365.784C566.902 365.087 567.316 364.83 567.751 364.35C570.661 361.152 572.29 357.343 573.046 353.132C573.164 352.536 573.189 352.032 573.698 351.59C576.733 348.879 578.285 345.312 579.242 341.439C579.633 339.857 580.158 339.657 581.606 340.401C583.165 341.203 584.916 341.633 586.664 342.25C586.74 340.365 585.178 339.844 584.199 338.918C582.111 336.953 582.02 335.029 584.371 333.469C585.575 332.679 586.252 332.182 585.465 330.792C584.897 329.797 585.56 328.964 586.089 328.391C588.431 325.934 589.287 322.807 590.087 319.698C590.457 318.246 591.549 317.399 592.345 316.4C594.352 313.865 595.875 311.174 596.246 307.986C596.453 306.122 597.513 306.525 598.499 306.798C600.342 307.322 602.145 308.014 604.117 308.652C604.289 306.582 602.597 305.947 601.578 305.282C599.242 303.8 600.097 302.409 601.253 300.891C602.314 299.466 604.006 298.457 603.377 296.21C603.234 295.667 603.897 294.741 604.389 294.149C606.602 291.579 608.035 288.608 608.911 285.35C609.359 283.656 610.477 282.212 611.575 280.806C613.659 278.028 614.74 274.829 614.891 271.34C612.768 274.191 612.818 278.112 610.059 281.106C610.679 277.435 612.057 274.389 613.491 271.324C614.102 270.043 614.48 271.317 614.964 271.471C616.562 270.462 617.401 272.208 618.611 272.501C619.747 272.756 620.863 273.142 622.035 273.51C622.187 271.57 620.571 270.88 619.667 269.899C617.823 267.825 617.73 266.088 620.061 264.658C621.433 263.814 622.261 263.207 621.104 261.533C620.258 260.347 620.889 259.029 621.851 258.069C623.457 256.406 624.671 254.59 625.256 252.356C626.191 248.894 627.477 245.66 630.046 242.944C631.878 241.023 633.248 238.723 632.85 235.844C635.629 236.098 637.738 237.839 640.558 237.74C640.015 236.24 638.996 235.482 638.091 234.595C635.543 232.065 635.713 230.181 638.728 227.694C636.688 226.458 634.04 226.13 632.708 223.334C634.197 223.817 635.407 224.111 636.503 224.627C637.598 225.143 639.217 225.646 638.448 227.691ZM568.983 360.947C569.613 354.607 571.602 348.636 574.725 343.107C572.346 348.924 572.236 355.438 568.983 360.947ZM610.331 275.098C608.128 280.208 608.844 286.302 604.777 291.204C606.166 285.394 607.16 279.898 610.331 275.098ZM592.352 308.989C590.868 311.511 590.388 314.362 589.574 317.135C588.76 319.814 588.578 322.724 586.606 325.466C586.919 319.103 589.44 314.016 592.352 308.989ZM551.183 395.493C552.208 390.576 552.656 385.503 555.728 381.261C554.405 386.026 553.585 391.002 551.183 395.493ZM627.745 243.404C628.711 240.428 629.027 237.164 631.506 234.167C632.224 238.432 630.068 240.984 627.745 243.404ZM639.306 215.883C641.59 211.988 644.206 208.358 647.789 205.131C646.279 209.986 642.534 212.708 639.306 215.883ZM630.269 231.185C633.321 232.096 636.069 233.415 637.738 236.196C634.857 235.044 631.52 234.597 630.269 231.185ZM568.766 355.251C568.216 357.69 567.667 360.13 567.023 362.568C566.868 363.145 566.67 364.17 565.85 364.03C564.769 363.85 565.154 362.828 565.218 362.063C565.509 359.396 567.267 357.437 568.766 355.251ZM601.435 306.382C598.575 306.742 596.674 304.78 594.364 304.25C593.768 304.132 593.221 303.005 593.659 302.245C594.136 301.317 594.855 302.109 595.394 302.339C597.512 303.24 599.287 304.809 601.435 306.382ZM636.98 223.699C638.583 218.844 639.476 217.379 641.981 215.428C641.473 219.156 639.412 221.523 636.98 223.699ZM622.218 255.254C623.478 251.067 624.72 246.824 625.98 242.638C625.8 247.098 624.503 251.265 622.218 255.254ZM604.516 286.048C603.903 289.159 604.053 292.521 600.865 295.436C601.525 291.504 602.788 288.68 604.516 286.048ZM578.086 339.672C578.364 343.241 576.243 345.905 574.662 348.8C575.202 345.558 576.337 342.527 578.086 339.672ZM622.705 250.107C621.641 253.455 620.614 256.823 619.531 260.209C618.232 256.162 620.84 253.278 622.705 250.107ZM583.741 339.809C581.069 339.985 579.293 338.509 577.326 337.498C576.769 337.212 576.514 336.611 576.95 336.037C577.348 335.444 577.829 335.879 578.219 336.033C580.189 336.857 581.873 338.239 583.741 339.809ZM596.33 293.668C598.594 294.832 600.21 295.615 601.805 296.529C602.306 296.833 602.542 297.47 602.274 298.084C602.083 298.455 601.559 298.561 601.263 298.315C599.728 297.01 597.246 296.908 596.33 293.668ZM566.013 374.58C565.861 374.877 565.69 375.118 565.537 375.415C563.83 374.537 562.103 373.696 560.414 372.782C559.857 372.495 558.889 372.279 559.346 371.388C559.671 370.757 560.53 370.729 561.16 371.147C562.828 372.286 564.402 373.423 566.013 374.58ZM614.762 259.353C617.263 259.418 618.629 260.777 620.091 261.951C620.479 262.291 620.865 262.818 620.581 263.189C620.259 263.633 619.473 263.792 619.012 263.321C617.718 262.093 615.953 261.327 614.762 259.353ZM560.377 374.405C560.035 378.359 558.963 380.719 556.275 384.124C556.687 380.581 558.676 377.99 560.377 374.405ZM619.147 271.368C616.922 269.944 613.976 269.65 612.625 266.89C615.305 267.611 617.359 269.276 619.147 271.368ZM585.716 321.535C585.671 323.999 585.2 326.01 584.487 328.037C584.314 328.465 584.381 329.156 583.748 329.018C583.189 328.919 582.728 328.447 583.072 327.685C583.84 325.734 584.033 323.533 585.716 321.535ZM595.089 306.218C595.148 309.393 594.183 312.182 591.51 314.188C592.697 311.513 593.865 308.875 595.089 306.218ZM579.149 327.922C581.56 329.349 583.928 329.674 584.999 332.43C582.091 331.968 580.784 330.311 579.149 327.922ZM599.429 302.066C598.361 302.409 597.544 301.989 596.801 301.701C596.038 301.45 594.846 301.213 595.307 300.042C595.826 298.666 596.766 299.759 597.398 300.083C598.121 300.502 599.24 300.608 599.429 302.066ZM631.359 228.882C632.699 229.289 634.368 228.598 635.15 230.455C635.259 230.699 634.993 231.125 634.915 231.461C633.5 231.109 632.179 230.665 631.259 229.441C631.185 229.403 631.299 229.274 631.359 228.882Z" fill="white"/>
<path d="M466.953 561.408C467.718 562.568 466.896 563.438 466.075 563.207C463.651 562.536 463.764 564.509 463.498 565.665C462.785 568.697 461.35 571.215 459.116 573.37C457.723 574.712 457.892 576.666 457.279 578.314C456.032 581.838 454.321 585.076 451.776 587.837C451.546 588.102 451.152 588.138 450.338 588.534C451.395 585.2 453.169 582.569 452.862 578.965C450.805 581.689 450.912 584.952 448.56 587.429C448.997 584.111 450.008 581.232 451.665 578.828C453.496 576.179 454.934 573.471 455.837 570.345C456.678 567.522 458.411 565.061 460.325 562.981C461.76 561.468 461.015 561.182 459.866 560.495C458.791 559.847 457.775 559.085 456.739 558.362C457.064 558.002 457.238 557.756 457.331 557.757C461.56 559.116 463.252 556.921 463.737 553.054C463.866 552.163 464.351 551.311 465.046 551.237C467.843 550.999 468.09 548.876 468.596 546.886C468.635 546.811 468.619 546.659 468.658 546.583C472.725 539.673 475.178 531.886 480.647 525.171C479.459 524.56 478.197 523.911 476.972 523.282C476.489 523.034 475.667 522.899 475.963 522.141C476.219 521.459 476.928 521.632 477.49 521.633C477.584 521.634 477.695 521.691 477.789 521.691C482.022 521.856 482.21 521.857 482.724 517.477C482.97 515.354 483.6 514.768 485.46 515.532C486.501 515.972 486.917 515.802 487.203 514.514C488.17 509.984 490.344 506.027 492.614 501.975C494.65 498.378 495.555 494.152 498.391 490.918C499.33 489.821 498.386 489.192 497.516 488.601C496.462 487.82 494.795 487.777 494.489 486.089C496.048 484.974 498.279 486.935 499.4 485.117C500.29 483.66 500.587 481.802 500.995 480.097C501.221 479.016 501.816 478.317 502.769 478.471C504.694 478.743 505.067 477.833 505.512 476.147C506.337 473.172 507.441 470.293 509.567 467.891C511.253 465.98 511.342 463.25 512.49 461.015C512.762 460.485 513.166 459.974 513.307 459.425C513.791 457.663 516.487 456.799 515.828 454.976C515.328 453.666 513.431 452.882 512.065 451.797C512.425 451.552 512.655 451.287 512.899 451.269C514.457 451.16 516.382 452.436 517.472 451.321C518.485 450.262 518.73 448.233 519.042 446.622C519.229 445.618 519.513 444.519 520.374 444.578C523.031 444.795 522.786 442.898 523.398 441.25C524.207 439.128 524.941 436.968 526.272 435.019C527.756 432.861 528.962 430.514 529.725 427.842C530.61 424.658 532.484 421.744 535.195 419.116C533.376 418.181 531.854 417.399 530.331 416.616C530.898 415.423 531.693 415.976 532.293 415.997C536.098 415.989 536.915 415.404 537.664 411.481C537.935 410.04 538.181 408.922 539.976 409.174C541.696 409.388 541.873 407.947 542.063 406.848C542.8 402.583 544.779 399.005 547.3 395.561C548.973 393.309 549.068 390.294 550.743 387.947C551.725 386.585 552.539 385.184 554.164 384.487C552.418 386.606 551.452 389.125 550.503 391.702C552.208 389.754 553.857 387.824 555.638 385.819C556.127 387.698 556.024 389.177 554.409 391.315C551.294 395.459 548.849 399.852 547.331 404.816C546.812 406.464 545.866 407.94 544.46 408.941C542.598 410.282 543.294 411.119 544.797 411.939C546.374 412.797 547.894 413.674 549.085 415.1C547.945 415.95 546.794 415.359 545.749 415.109C542.651 414.379 540.907 415.397 540.733 418.659C540.671 419.967 540.584 420.593 539.311 420.513C538.43 420.491 538.459 420.984 538.315 421.629C537.372 425.931 535.185 429.547 532.164 432.685C531.743 433.139 531.343 433.46 531.274 434.143C530.803 438.257 528.77 441.664 526.143 444.766C525.07 446.034 525.209 446.584 526.657 447.328C528.216 448.13 529.581 449.31 531.098 450.376C529.595 451.567 528.264 450.595 526.937 450.345C524.117 449.805 522.485 450.881 522.562 453.745C522.609 455.205 522.593 456.059 520.996 456.243C519.851 456.373 519.55 457.415 519.385 458.192C518.721 461.585 516.648 464.157 514.557 466.673C513.579 467.846 513.515 469.249 513.154 470.5C512.232 473.664 510.903 476.524 508.499 478.735C507.088 480.021 508.032 480.649 508.826 481.297C510.321 482.496 511.932 483.563 513.595 484.801C511.995 486.18 510.496 485.171 509.36 484.731C506.793 483.699 506.146 485.233 505.567 487.09C505.01 488.814 505.159 490.806 502.951 491.633C502.422 491.84 502.045 492.939 501.843 493.697C501.011 497.051 499.399 500.005 497.231 502.672C496.099 504.053 495.559 505.834 495.039 507.578C493.963 510.95 491.96 513.751 489.182 515.961C490.297 512.513 493.545 510.209 494.409 506.153C491.753 508.857 490.047 511.81 488.36 514.821C487.661 516.089 488.925 515.638 489.332 515.942C489.427 517.858 491.345 517.504 492.286 518.322C493.152 519.102 494.114 519.788 495.093 520.531C493.588 521.816 492.087 520.901 490.759 520.745C487.99 520.471 486.51 521.434 486.683 524.203C486.783 525.834 486.763 526.877 484.719 526.928C483.257 526.942 482.538 528.249 482.306 529.614C481.869 531.926 481.08 534.01 479.583 535.826C477.28 538.663 475.368 541.654 474.623 545.388C474.104 548.041 473.007 550.541 470.412 551.937C472.228 554.066 474.876 554.757 476.425 557.133C474.879 557.583 473.668 557.2 472.416 556.987C468.866 556.408 467.417 557.674 467.117 561.637C464.923 560.701 463.124 558.723 460.057 559.301C461.314 560.234 462.255 561.053 463.312 561.644C464.369 562.235 465.718 563.263 466.953 561.408ZM536.233 424.676C531.391 428.985 527.637 434.189 524.902 440.059C528.303 434.627 533.59 430.642 536.233 424.676ZM489.632 509.969C492.555 505.104 497.974 502.049 499.648 495.777C495.681 500.392 491.742 504.495 489.632 509.969ZM507.072 474.938C508.285 472.211 510.35 470.112 512.156 467.785C513.886 465.514 516.171 463.625 517.282 460.366C512.238 464.428 509.517 469.54 507.072 474.938ZM554.314 389.4C550.869 393.182 546.962 396.584 545.254 401.642C548.403 397.707 552.014 394.058 554.314 389.4ZM473.67 543.223C471.785 545.796 469.287 548.007 468.259 551.835C472.176 549.875 473.026 546.578 473.67 543.223ZM457.752 569.175C455.873 573.379 454.405 577.699 453.825 582.571C456.94 578.427 457.01 573.724 457.752 569.175ZM465.095 552.603C467.607 554.564 470.279 556.033 473.527 555.739C470.916 554.062 468.62 551.59 465.095 552.603ZM531.43 427.904C533.115 425.994 534.801 424.083 536.432 422.097C536.816 421.624 537.543 420.849 536.954 420.259C536.182 419.479 535.564 420.407 534.974 420.917C532.952 422.75 532.359 425.366 531.43 427.904ZM510.181 483.956C508.824 481.391 506.113 481.004 504.344 479.424C503.902 479.006 502.661 479.229 502.289 480.044C501.802 480.991 502.869 481.108 503.369 481.413C505.333 482.613 507.648 483.133 510.181 483.956ZM462.826 562.591C459.765 566.81 459.079 568.42 458.924 571.644C461.692 568.997 462.444 565.889 462.826 562.591ZM480.207 531.598C477.497 535.137 474.731 538.693 472.021 542.232C475.579 539.417 478.252 535.86 480.207 531.598ZM495.264 498.646C497.464 496.282 500.312 494.394 500.863 490.034C498.015 492.927 496.426 495.653 495.264 498.646ZM524.023 444.874C527.115 442.968 528.077 439.633 529.541 436.603C527.19 438.985 525.357 441.73 524.023 444.874ZM476.261 535.076C478.396 532.2 480.568 529.343 482.723 526.429C478.649 527.782 477.788 531.648 476.261 535.076ZM527.405 449.436C526.005 447.137 523.766 446.561 521.799 445.55C521.242 445.263 520.602 445.413 520.382 446.114C520.126 446.796 520.76 446.931 521.112 447.16C522.928 448.284 525.035 448.841 527.405 449.436ZM496.79 487.366C499.054 488.53 500.631 489.388 502.304 490.152C502.843 490.381 503.503 490.194 503.851 489.607C504.046 489.228 503.83 488.734 503.457 488.638C501.498 488.158 499.98 486.181 496.79 487.366ZM545.712 414.085C545.868 413.782 545.967 413.497 546.123 413.194C544.415 412.317 542.726 411.401 540.999 410.562C540.442 410.275 539.705 409.609 539.238 410.518C538.907 411.162 539.381 411.884 540.088 412.152C541.987 412.84 543.831 413.453 545.712 414.085ZM479.263 523.023C480.762 525.038 482.668 525.348 484.477 525.846C484.981 525.962 485.637 525.964 485.777 525.509C485.956 524.978 485.632 524.238 484.978 524.141C483.222 523.813 481.573 522.822 479.263 523.023ZM542.311 409.56C545.36 406.915 546.678 404.624 547.921 400.38C545.25 402.837 544.271 406.02 542.311 409.56ZM491.665 519.439C489.209 518.464 487.265 516.221 484.218 516.761C486.359 518.532 488.914 519.222 491.665 519.439ZM513.54 461.986C515.537 460.475 516.916 458.886 518.169 457.088C518.42 456.691 519.027 456.332 518.547 455.895C518.143 455.495 517.488 455.398 517.062 456.136C515.903 457.935 514.207 459.409 513.54 461.986ZM506.379 478.843C509.02 476.992 510.753 474.532 510.855 471.138C509.344 473.712 507.853 476.249 506.379 478.843ZM514.989 452.773C517.554 453.9 519.189 455.65 522.072 454.881C520.012 452.77 517.896 452.687 514.989 452.773ZM505.477 484.89C505.142 483.808 504.325 483.388 503.659 482.95C503.011 482.474 502.128 481.636 501.432 482.715C500.603 483.964 502.044 484.083 502.675 484.407C503.437 484.751 504.171 485.606 505.477 484.89ZM463.834 554.875C464.942 555.732 465.34 557.516 467.317 557.048C467.58 556.992 467.776 556.518 468.006 556.253C466.9 555.302 465.772 554.483 464.235 554.459C464.161 554.421 464.12 554.591 463.834 554.875Z" fill="white"/>
<path d="M445.203 603.444C446.591 603.392 446.82 602.216 446.155 601.683C444.198 600.103 445.868 599.046 446.653 598.157C448.703 595.812 449.915 593.18 450.367 590.109C450.647 588.194 452.334 587.194 453.317 585.737C455.456 582.671 457.093 579.395 457.856 575.718C457.937 575.377 457.737 575.035 457.586 574.143C455.49 576.944 454.384 579.918 451.275 581.767C452.292 578.508 455.007 576.696 455.651 573.341C453.209 575.628 451.456 578.126 450.467 580.873C449.378 583.904 448.014 586.65 445.998 589.204C444.192 591.531 443.201 594.373 442.624 597.14C442.229 599.187 441.562 598.749 440.335 598.214C439.182 597.717 437.971 597.334 436.78 596.913C436.677 597.387 436.578 597.671 436.633 597.747C440.2 600.394 439.4 603.047 436.539 605.693C435.889 606.317 435.479 607.207 435.824 607.815C437.259 610.228 435.676 611.665 434.353 613.235C434.314 613.31 434.181 613.386 434.142 613.462C430.892 620.791 425.989 627.319 423.712 635.675C422.524 635.065 421.262 634.416 420.037 633.787C419.554 633.538 418.965 632.949 418.521 633.63C418.116 634.236 418.67 634.712 418.998 635.168C419.053 635.244 419.164 635.301 419.219 635.377C421.818 638.723 421.927 638.875 418.666 641.842C417.083 643.279 416.973 644.132 418.677 645.199C419.641 645.79 419.745 646.227 418.864 647.21C415.744 650.633 413.792 654.705 411.82 658.909C410.08 662.658 407.171 665.855 406.192 670.043C405.847 671.445 404.786 671.044 403.799 670.68C402.551 670.278 401.545 668.948 399.994 669.682C399.996 671.598 402.888 672.271 402.064 674.24C401.397 675.812 400.059 677.136 398.91 678.46C398.163 679.273 397.94 680.164 398.621 680.849C399.962 682.256 399.441 683.089 398.328 684.432C396.389 686.835 394.691 689.409 393.976 692.536C393.404 695.018 391.236 696.681 390.088 698.915C389.815 699.445 389.635 700.07 389.27 700.505C388.119 701.924 388.986 704.62 387.12 705.145C385.764 705.501 384.023 704.415 382.345 703.936C382.355 704.372 382.274 704.713 382.401 704.922C383.22 706.252 385.378 707.074 385.106 708.61C384.835 710.05 383.328 711.43 382.199 712.621C381.492 713.359 380.763 714.229 381.313 714.894C383.036 716.929 381.351 717.834 380.367 719.291C379.113 721.184 377.785 723.038 376.974 725.255C376.084 727.717 374.877 730.065 373.149 732.241C371.076 734.814 369.797 738.034 369.239 741.768C367.42 740.833 365.897 740.051 364.375 739.269C363.735 740.424 364.647 740.749 365.013 741.224C367.222 744.322 367.222 745.328 364.468 748.221C363.455 749.28 362.689 750.131 363.938 751.443C365.114 752.717 364.046 753.7 363.262 754.494C360.223 757.576 358.467 761.269 357.134 765.324C356.277 767.995 353.881 769.827 352.948 772.555C352.412 774.147 351.747 775.624 352.126 777.351C352.833 774.698 354.319 772.446 355.861 770.175C355.27 772.695 354.661 775.159 354.068 777.774C355.88 777.078 357.023 776.133 357.821 773.575C359.377 768.63 361.525 764.085 364.677 759.961C365.715 758.579 366.365 756.95 366.36 755.225C366.366 752.93 367.451 753.009 368.993 753.753C370.609 754.536 372.207 755.262 374.06 755.4C374.087 753.978 372.936 753.386 372.125 752.682C369.728 750.589 369.541 748.578 372.091 746.537C373.119 745.725 373.577 745.29 372.771 744.302C372.241 743.598 372.658 743.334 373.098 742.842C376.047 739.57 377.714 735.688 378.507 731.404C378.631 730.798 378.659 730.286 379.174 729.832C382.245 727.054 383.832 723.417 384.825 719.476C385.23 717.865 385.759 717.658 387.207 718.402C388.766 719.203 390.52 719.626 392.27 720.238C392.363 718.323 390.798 717.806 389.822 716.874C387.742 714.895 387.666 712.941 390.04 711.337C391.255 710.525 391.939 710.015 391.16 708.609C390.598 707.602 391.27 706.751 391.806 706.165C394.178 703.65 395.063 700.466 395.891 697.302C396.275 695.824 397.379 694.955 398.186 693.933C400.222 691.341 401.773 688.596 402.172 685.354C402.395 683.458 403.456 683.86 404.444 684.128C406.29 684.646 408.095 685.334 410.07 685.966C410.26 683.862 408.566 683.231 407.548 682.564C405.214 681.077 406.085 679.658 407.257 678.106C408.335 676.649 410.041 675.611 409.428 673.334C409.289 672.783 409.963 671.837 410.462 671.232C412.705 668.603 414.168 665.573 415.074 662.257C415.538 660.532 416.672 659.056 417.786 657.619C419.902 654.78 421.013 651.522 421.193 647.976C419.038 650.89 419.056 654.873 416.262 657.936C416.913 654.202 418.322 651.096 419.787 647.972C420.411 646.665 420.781 647.956 421.265 648.109C422.878 647.071 423.707 648.837 424.92 649.125C426.058 649.375 427.176 649.758 428.35 650.122C428.518 648.15 426.9 647.462 426.001 646.473C424.166 644.382 424.087 642.618 426.439 641.146C427.824 640.278 428.66 639.654 427.511 637.963C426.672 636.765 427.316 635.421 428.29 634.438C429.916 632.736 431.151 630.881 431.756 628.607C432.722 625.083 434.041 621.787 436.643 619.007C438.498 617.04 439.892 614.693 439.516 611.771C442.305 612.007 444.408 613.759 447.241 613.635C446.707 612.116 445.691 611.354 444.789 610.46C442.251 607.911 442.437 605.996 445.484 603.445C443.446 602.206 440.79 601.894 439.476 599.065C440.966 599.543 442.179 599.832 443.275 600.347C444.371 600.862 445.993 601.36 445.203 603.444ZM374.364 739.376C375.048 732.93 377.094 726.848 380.275 721.206C377.838 727.135 377.675 733.753 374.364 739.376ZM416.583 651.831C414.329 657.039 414.999 663.224 410.875 668.237C412.317 662.324 413.36 656.733 416.583 651.831ZM398.253 686.404C396.742 688.979 396.238 691.879 395.397 694.702C394.558 697.43 394.352 700.388 392.35 703.189C392.716 696.723 395.288 691.535 398.253 686.404ZM356.208 774.613C357.278 769.61 357.769 764.453 360.888 760.12C359.521 764.971 358.657 770.031 356.208 774.613ZM434.328 619.493C435.322 616.462 435.666 613.144 438.18 610.079C438.866 614.405 436.68 617.016 434.328 619.493ZM446.162 591.442C448.486 587.467 451.143 583.758 454.767 580.45C453.211 585.395 449.428 588.19 446.162 591.442ZM436.962 607.06C440.019 607.961 442.769 609.278 444.421 612.09C441.537 610.943 438.19 610.515 436.962 607.06ZM374.192 733.591C373.62 736.073 373.048 738.556 372.383 741.038C372.222 741.626 372.015 742.668 371.192 742.533C370.109 742.359 370.503 741.317 370.574 740.54C370.888 737.829 372.669 735.824 374.192 733.591ZM407.396 683.682C404.52 684.072 402.627 682.094 400.313 681.574C399.715 681.459 399.174 680.319 399.62 679.543C400.107 678.596 400.823 679.395 401.362 679.624C403.482 680.522 405.251 682.102 407.396 683.682ZM443.762 599.4C445.411 594.455 446.32 592.96 448.851 590.957C448.311 594.749 446.222 597.17 443.762 599.4ZM428.682 631.575C429.981 627.312 431.263 622.992 432.562 618.729C432.345 623.261 431.008 627.505 428.682 631.575ZM410.655 663.002C410.014 666.167 410.137 669.581 406.913 672.567C407.607 668.568 408.898 665.689 410.655 663.002ZM383.678 717.689C383.928 721.312 381.777 724.037 380.165 726.99C380.734 723.692 381.898 720.605 383.678 717.689ZM429.212 626.343C428.117 629.753 427.058 633.182 425.943 636.63C424.671 632.53 427.314 629.58 429.212 626.343ZM389.355 717.783C386.671 717.983 384.9 716.498 382.932 715.487C382.375 715.201 382.124 714.593 382.567 714.007C382.972 713.401 383.451 713.839 383.841 713.992C385.813 714.813 387.492 716.203 389.355 717.783ZM402.372 670.809C404.637 671.972 406.253 672.755 407.848 673.67C408.348 673.975 408.579 674.621 408.305 675.246C408.11 675.624 407.584 675.737 407.288 675.489C405.757 674.176 403.266 674.092 402.372 670.809ZM371.271 753.248C371.115 753.551 370.942 753.797 370.786 754.1C369.078 753.223 367.351 752.383 365.662 751.467C365.106 751.181 364.135 750.97 364.602 750.061C364.933 749.417 365.796 749.382 366.425 749.801C368.09 750.944 369.662 752.087 371.271 753.248ZM421.161 635.8C423.671 635.846 425.033 637.216 426.491 638.396C426.878 638.738 427.262 639.271 426.973 639.649C426.646 640.103 425.856 640.271 425.396 639.796C424.107 638.559 422.341 637.795 421.161 635.8ZM365.612 753.117C365.236 757.137 364.141 759.542 361.414 763.023C361.857 759.421 363.875 756.772 365.612 753.117ZM425.466 647.97C423.244 646.541 420.288 646.266 418.953 643.474C421.639 644.184 423.688 645.859 425.466 647.97ZM391.488 699.204C391.422 701.707 390.933 703.753 390.201 705.818C390.024 706.254 390.085 706.956 389.451 706.821C388.89 706.725 388.43 706.249 388.783 705.473C389.57 703.484 389.781 701.247 391.488 699.204ZM401.025 683.568C401.057 686.792 400.066 689.634 397.366 691.693C398.58 688.965 399.774 686.276 401.025 683.568ZM384.841 705.745C387.251 707.175 389.625 707.486 390.678 710.277C387.763 709.831 386.464 708.159 384.841 705.745ZM405.416 679.314C404.341 679.671 403.524 679.252 402.78 678.965C402.016 678.716 400.821 678.485 401.294 677.291C401.826 675.89 402.761 676.992 403.392 677.317C404.115 677.736 405.238 677.834 405.416 679.314ZM438.075 604.712C439.417 605.114 441.099 604.399 441.869 606.279C441.977 606.526 441.707 606.961 441.625 607.302C440.207 606.956 438.885 606.516 437.971 605.28C437.897 605.242 438.012 605.11 438.075 604.712Z" fill="white"/>
</g>
</svg>
