<svg width="15" height="13" viewBox="0 0 15 13" fill="none" xmlns="http://www.w3.org/2000/svg">
<path fill-rule="evenodd" clip-rule="evenodd" d="M4.02493 4.11672C2.74281 4.71753 1.42549 5.33488 0.220887 6.04701C-0.40811 6.54131 0.42787 6.89096 1.21218 7.21893C1.33686 7.27107 1.46021 7.32264 1.5762 7.37415C1.67272 7.40603 1.77085 7.43957 1.87031 7.47357C2.7426 7.77183 3.7152 8.10443 4.56205 7.60413C5.95317 6.74644 7.26596 5.75488 8.57778 4.76406C9.00755 4.43941 9.43722 4.11489 9.8695 3.79516C9.88976 3.78125 9.91259 3.76534 9.9376 3.748C10.3058 3.49175 11.1341 2.91555 10.8277 3.70954C10.1033 4.55984 9.32731 5.3125 8.54717 6.06933C8.02135 6.57937 7.49362 7.09129 6.97847 7.63618C6.52981 8.02745 6.06388 8.81428 6.56629 9.3622C7.72346 10.2316 8.89871 11.08 10.0733 11.9279C10.4555 12.2038 10.8377 12.4796 11.2191 12.7562C11.8655 13.3101 12.8758 12.862 13.018 11.9964C13.0811 11.5983 13.1446 11.2001 13.2081 10.8019C13.5588 8.60136 13.9095 6.39999 14.2194 4.19227C14.2616 3.84593 14.3093 3.49965 14.3571 3.1532C14.4729 2.31349 14.5888 1.47274 14.625 0.628504C14.5317 -0.214015 13.5799 -0.0287414 13.0502 0.160711C10.3277 1.27258 7.63238 2.46688 4.94772 3.68224C4.64359 3.82681 4.3353 3.97128 4.02493 4.11672Z" fill="white"/>
</svg>
