<svg width="129" height="130" viewBox="0 0 129 130" fill="none" xmlns="http://www.w3.org/2000/svg">
<g opacity="0.1">
<path d="M77.1913 24.2266C78.4512 25.7905 79.7545 26.7897 81.1012 27.7889C81.9266 28.3971 82.1004 29.0053 81.7963 30.0045C80.9274 32.7414 80.1889 35.5218 79.32 38.5628C81.5356 36.3906 83.5775 34.4791 85.489 32.4807C86.3578 31.5684 87.0529 31.3078 88.2693 31.8725C92.0054 33.5234 96.0456 34.0881 99.9555 35.0004C106.689 36.5209 108.774 39.0406 108.905 45.8612C108.948 48.0333 111.033 48.5112 112.337 50.0317C113.293 47.1645 113.857 44.6013 113.206 41.9079C112.815 40.3439 113.293 39.4316 114.379 38.3456C116.247 36.5209 117.897 34.5226 119.418 32.7848C117.202 33.4365 114.509 34.1316 111.859 34.957C110.729 35.3045 109.904 35.2611 108.948 34.3488C106.298 31.7856 102.779 31.0037 99.2604 30.352C93.2218 29.2659 87.4873 27.5282 82.6217 23.5315C80.7971 21.9241 79.1897 24.1397 77.1913 24.2266Z" fill="white"/>
<path d="M37.3992 49.814C35.2705 47.5984 33.3155 45.4697 31.2737 43.4279C30.6655 42.8197 30.318 42.2549 30.709 41.3426C32.5336 37.4328 33.0983 33.1753 34.0541 29.0482C35.5311 22.4883 38.2246 20.2728 44.828 20.2728C46.1747 20.2728 46.8263 19.708 48.8247 16.7973C46.0878 15.8416 43.3509 15.3202 40.5705 16.0588C39.3107 16.3629 38.6156 15.9719 37.7467 15.1465C35.7918 13.235 33.7065 11.4538 31.8385 9.80298C32.4032 11.8448 33.0114 14.3645 33.7934 16.8408C34.2713 18.2744 34.2279 19.2736 33.0983 20.49C30.6655 23.14 29.927 26.6154 29.3188 30.0474C28.2327 35.9991 26.5819 41.7336 22.4982 46.4689C21.9769 47.0771 21.8466 47.6853 22.1072 48.4673C22.5417 49.5968 22.8892 50.7698 23.3237 52.0296C24.6269 51.0739 25.5392 49.9878 26.3647 48.7714C27.2335 47.5116 28.1024 47.164 29.6229 47.6853C32.186 48.4673 34.7926 49.0755 37.3992 49.814Z" fill="white"/>
<path d="M32.5406 93.7782C32.0627 92.3012 31.8455 91.0413 31.2807 90.0421C30.1512 88.1307 30.8463 86.9577 32.3234 85.6544C34.1045 84.0035 35.712 82.1355 37.4062 80.3109C34.6693 81.0929 31.889 81.8749 29.1521 82.6568C28.457 82.874 27.7619 83.1347 27.1971 82.3527C24.3733 78.356 20.3766 75.4887 16.988 72.0567C12.9913 68.0599 12.6002 64.1935 15.6412 59.4148C16.3798 58.2853 16.1626 57.2426 14.6855 54.0713C12.4265 55.9393 10.7322 58.1115 9.90677 60.8484C9.55923 62.0648 8.90758 62.5861 7.73462 62.8468C5.17148 63.4116 2.60832 64.1066 0.00173555 65.2362C2.43455 65.8878 4.91081 66.5829 7.34362 67.1042C8.7338 67.4083 9.55921 67.8862 9.99364 69.4501C10.8191 72.4043 12.9043 74.5764 15.1634 76.5314C20.2028 80.9191 24.9815 85.4372 27.4143 91.9971C28.1094 93.8217 30.5422 93.1266 32.5406 93.7782Z" fill="white"/>
<path d="M90.8884 80.2694C92.8433 82.3112 94.6679 84.353 96.6228 86.2645C97.5786 87.1768 97.8827 87.9154 97.2745 89.2621C95.5802 93.1285 95.0154 97.299 94.1031 101.383C92.7129 107.508 89.7588 109.854 83.4596 109.811C82.5038 109.811 79.7669 111.939 79.5932 112.852C79.4194 113.677 80.1145 113.547 80.5489 113.677C82.8079 114.242 85.1104 114.763 87.3694 114.111C88.8465 113.677 89.7588 114.198 90.758 115.241C92.6261 117.109 94.6679 118.847 96.4491 120.498C95.7974 118.195 95.1023 115.589 94.3203 112.982C93.9728 111.809 93.9294 110.897 94.9285 109.898C97.4482 107.291 98.2302 103.859 98.8819 100.427C100.011 94.3015 101.662 88.4367 105.833 83.6145C106.311 83.0497 106.398 82.485 106.18 81.8333C105.789 80.6603 105.398 79.5308 104.964 78.2275C103.487 79.2702 102.488 80.6169 101.532 81.9202C100.837 82.8325 100.185 82.9628 99.1425 82.6587C96.4056 81.7899 93.7121 81.0948 90.8884 80.2694Z" fill="white"/>
<path d="M51.1758 105.726C50.1331 104.77 49.4381 103.901 48.5258 103.38C46.3536 102.164 46.1364 100.6 47.0053 98.3842C47.8741 96.2555 48.3086 93.9964 48.9168 91.6939C46.7881 93.7358 44.7028 95.6473 42.7478 97.6456C41.879 98.5579 41.1404 98.7317 39.924 98.2104C36.0576 96.5161 31.887 95.9514 27.8034 95.0391C21.6345 93.6489 19.2451 90.6947 19.332 84.4389C19.3754 82.2668 17.464 81.702 16.2476 80.5725C15.6394 80.0512 15.5525 81.0069 15.4656 81.4414C14.8574 83.7438 14.3795 86.1332 15.0746 88.4791C15.4222 89.7824 15.0311 90.5644 14.1188 91.4767C12.1639 93.3882 10.3827 95.4735 8.68845 97.3415C11.0344 96.6899 13.7279 95.9514 16.3779 95.1259C17.5074 94.7784 18.3328 94.8653 19.2451 95.7776C21.9386 98.3407 25.4141 99.1227 28.933 99.7743C34.9715 100.86 40.7929 102.511 45.5282 106.682C46.1798 107.247 46.788 107.247 47.5266 106.986C48.6561 106.551 49.7422 106.204 51.1758 105.726Z" fill="white"/>
<path d="M79.4501 91.9971C80.1452 94.5168 80.9272 97.2971 81.7092 100.034C81.9264 100.859 82.1436 101.511 81.2747 102.119C77.3214 104.9 74.5411 108.853 71.1525 112.198C67.1558 116.195 63.2893 116.586 58.5106 113.588C56.5991 112.372 55.0351 114.023 53.0368 114.327C55.0351 116.76 57.2073 118.497 59.9877 119.279C61.2475 119.627 61.7254 120.322 61.986 121.495C62.5943 124.058 63.2459 126.621 64.4188 129.228C65.0705 126.621 65.7656 124.058 66.3738 121.451C66.6344 120.322 67.1557 119.627 68.3722 119.279C71.4566 118.41 73.7591 116.238 75.8009 113.892C80.1452 108.896 84.6199 104.205 91.0929 101.815C92.9609 101.12 92.2224 98.6873 92.9609 96.6455C91.3535 97.1668 90.0937 97.4274 89.0076 98.0356C87.2699 98.9914 86.1838 98.4701 84.9674 97.1233C83.1862 95.2119 81.1879 93.6045 79.4501 91.9971Z" fill="white"/>
<path d="M63.8593 0.896961C63.2076 3.50354 62.556 6.15357 61.9043 8.76016C61.6871 9.58557 61.5134 10.411 60.4707 10.6716C56.9084 11.5405 54.4321 14.0168 52.1297 16.6234C47.9157 21.489 43.5279 25.9202 37.2721 28.2661C35.3172 29.0046 36.1426 31.394 35.3172 33.262C37.2721 33.0014 38.7927 32.4366 40.2263 31.7415C41.182 31.3071 41.7902 31.4809 42.4853 32.176C44.5271 34.2178 46.6558 36.1727 48.828 38.2145C48.046 35.5211 47.3075 32.7842 46.5255 30.0907C46.3083 29.3087 45.9607 28.6136 46.8296 27.962C50.7395 25.2251 53.5198 21.3586 56.8215 18.057C61.0789 13.7561 64.6847 13.3651 69.7675 16.5365C70.5495 17.0143 73.9815 16.5365 74.6332 15.8414C75.2414 15.2332 74.5897 14.9291 74.2856 14.6684C72.5045 12.9307 70.5929 11.3667 68.1601 10.7585C66.9872 10.4544 66.5093 9.80279 66.2487 8.71671C65.6404 6.11013 64.9454 3.50354 64.2937 0.853516C64.2068 0.896959 64.0331 0.896961 63.8593 0.896961Z" fill="white"/>
<path d="M95.9652 36.3475C96.0086 37.8246 96.3996 38.9976 97.0078 40.0402C98.0939 41.9517 97.4422 43.1247 96.0086 44.4279C94.184 46.0788 92.6201 47.9468 90.8823 49.7714C93.6627 48.9895 96.3996 48.2075 99.18 47.4255C99.875 47.2083 100.57 46.9042 101.135 47.6862C104.002 51.7698 108.042 54.6371 111.518 58.1125C115.384 62.0224 115.732 65.9323 112.734 70.5807C111.996 71.7102 112.169 72.7963 113.646 75.9676C115.906 74.0995 117.6 71.9274 118.425 69.1905C118.816 67.9741 119.424 67.4528 120.597 67.1921C123.161 66.5839 125.724 65.9323 128.852 65.1503C125.984 63.9339 123.465 63.5863 120.988 62.9347C119.642 62.5871 118.773 62.1527 118.338 60.5888C117.513 57.5477 115.297 55.3322 112.995 53.3338C107.999 48.9895 103.307 44.4714 100.918 38.0418C100.179 36.2606 97.7463 36.9557 95.9652 36.3475Z" fill="white"/>
<path d="M22.2818 73.8382C22.9334 72.7522 23.1506 71.4489 23.1506 70.3193C23.1506 68.1037 24.1933 67.3652 26.1916 67.0177C28.4941 66.6267 30.7097 65.8882 32.9688 64.8455C30.3622 64.1939 27.7122 63.5422 25.1056 62.8906C24.2367 62.6734 23.4547 62.4996 23.3678 61.3266C22.9769 56.8086 21.2391 52.638 19.8924 48.3806C18.7629 44.7314 18.8063 41.2125 21.5867 38.2584C22.2383 37.5633 22.9769 36.8247 23.8023 36.5641C26.7564 35.6083 26.4089 33.219 26.7999 30.873C23.7154 31.5247 21.1088 32.4804 19.0235 34.5223C18.1981 35.3042 17.4596 35.3477 16.5038 35.087C13.7669 34.2616 11.03 33.5231 8.68407 32.828C10.4218 34.7395 12.2899 36.8247 14.2014 38.8666C14.7661 39.4748 15.4178 39.9526 15.1137 41.0822C14.1579 44.6011 15.0268 47.9462 16.1563 51.2913C17.4162 55.0708 18.8063 58.8069 19.1104 62.8037C19.2407 64.3242 19.2842 65.8447 19.1104 67.3652C18.6325 71.362 18.676 71.4054 22.2818 73.8382Z" fill="white"/>
<path d="M73.207 106.984C71.5128 106.202 70.0357 105.941 68.5152 105.854C67.2119 105.811 66.6037 105.203 66.343 103.986C65.7348 101.336 65.0397 98.7296 63.9102 96.123C63.2586 98.7296 62.6069 101.336 61.9987 103.986C61.7815 104.942 61.5643 105.724 60.3044 105.854C56.438 106.158 52.8322 107.549 49.2265 108.722C47.2281 109.373 45.2297 110.025 43.101 109.938C39.7559 109.808 37.019 108.374 35.7591 105.42C34.5427 102.639 32.414 102.77 30.0247 102.422C30.5894 105.333 31.5017 107.94 33.4566 109.938C34.4558 110.937 34.4558 111.806 34.1083 113.022C33.2828 115.629 32.5877 118.279 31.9361 120.625C33.9345 118.8 36.0198 116.845 38.1485 114.89C38.6698 114.413 39.0173 113.761 39.9731 114.022C44.187 115.151 48.1404 113.891 52.0503 112.501C57.5675 110.546 63.1717 109.417 69.0799 110.372C71.2087 110.633 71.5562 108.026 73.207 106.984Z" fill="white"/>
<path d="M95.2257 65.3226C97.8758 65.9742 100.482 66.6259 103.132 67.2775C103.958 67.4948 104.783 67.6685 104.914 68.8415C105.305 73.3596 107.042 77.5301 108.346 81.7875C109.518 85.6105 109.388 89.2163 106.347 92.2573C105.826 92.7786 105.261 93.3434 104.609 93.5606C101.655 94.386 101.786 96.7754 101.438 99.2951C104.392 98.7303 106.999 97.7746 109.041 95.7762C109.996 94.8639 110.822 94.8204 111.951 95.168C114.558 95.95 117.208 96.6885 119.945 97.4705C117.99 95.4286 116.209 93.4737 114.297 91.6057C113.341 90.6933 112.864 89.8245 113.211 88.4343C114.08 84.8285 112.994 81.3965 111.778 78.0514C109.692 72.2735 108.302 66.4087 109.432 60.2398C109.562 59.4578 109.301 59.0234 108.78 58.5889C107.911 57.8504 107.086 57.0684 106.043 56.1561C105.261 57.5029 105.087 58.8496 105.044 60.1529C105 62.0209 104.175 62.7595 102.394 63.0636C100.004 63.498 97.6585 64.2365 95.2692 64.8447C95.2692 64.9751 95.2692 65.1488 95.2257 65.3226Z" fill="white"/>
<path d="M55.34 23.2276C56.6867 23.8358 58.0335 24.0965 59.3802 24.1399C60.9441 24.1833 61.6827 24.835 61.9868 26.3555C62.5081 28.8752 63.2032 31.3949 63.9851 34.4359C65.2015 31.5252 65.636 28.9186 66.2007 26.3989C66.5483 24.8784 67.1999 24.2702 68.7639 24.1399C72.891 23.7489 76.7139 22.0981 80.6238 20.8817C83.9255 19.839 87.1403 19.6218 90.1379 21.8374C91.1371 22.576 92.2231 23.4014 92.5707 24.5743C93.4395 27.4416 95.7855 27.4416 98.2617 27.7457C97.7838 24.7915 96.7847 22.2284 94.7863 20.1866C93.874 19.2308 93.8305 18.4054 94.1781 17.2759C94.96 14.6259 95.6986 11.9324 96.3502 9.7168C94.3953 11.498 92.2666 13.4095 90.1813 15.3644C89.5731 15.9292 89.0952 16.3636 88.1395 16.1029C84.7075 15.1906 81.4058 16.016 78.1476 17.1021C74.2377 18.4054 70.3713 19.839 66.2007 20.0997C64.854 20.1866 63.3769 20.4038 62.1171 20.0563C58.9458 19.1005 56.9039 20.4038 55.34 23.2276Z" fill="white"/>
</g>
</svg>
