<svg width="108" height="108" viewBox="0 0 108 108" fill="none" xmlns="http://www.w3.org/2000/svg">
<path opacity="0.45" d="M107.859 46.9657C107.574 46.4395 106.963 46.0348 106.311 46.3181C105.781 46.561 105.292 46.9657 104.844 47.3704C102.521 49.7179 99.8715 51.5797 96.815 52.7939C92.006 54.6962 87.4822 54.8985 83.529 50.7298C82.5509 49.7179 82.1842 49.4346 83.8143 48.5846C90.7833 45.1444 96.6112 40.2876 100.85 33.6903C101.461 32.719 101.991 31.6667 100.727 30.8977C99.5455 30.1691 99.0972 31.3429 98.5674 32.0714C98.4044 32.2738 98.2821 32.5571 98.1599 32.7594C94.0844 38.4662 89.0716 43.0802 82.714 46.1967C81.1245 46.9657 79.3721 47.3704 77.6197 46.48C75.5819 45.4277 73.5442 44.3349 71.5065 43.3231C70.3246 42.7564 70.2431 42.2708 71.3842 41.5422C73.9518 39.8828 76.1525 37.8187 78.2717 35.5926C79.0461 34.7831 79.6574 33.407 80.5947 33.1237C81.7766 32.7594 82.5102 34.2974 83.4883 34.945C83.529 34.9855 83.6105 35.026 83.6513 35.0664C84.3034 35.5117 84.9555 35.5117 85.4853 34.945C86.0966 34.2974 85.9743 33.6094 85.363 33.0023C84.8739 32.5166 84.4256 32.0309 83.8551 31.6667C82.6732 30.8572 82.3472 30.0072 83.2438 28.6716C84.0589 27.4574 84.5479 26.0003 85.037 24.6242C85.363 23.7743 85.363 22.8029 84.2219 22.4791C83.203 22.1958 82.7955 22.8839 82.4287 23.6933C81.8989 24.9076 81.2876 26.1218 80.717 27.336C80.2687 28.3073 79.6981 28.3478 78.8015 27.7812C76.2748 26.0813 73.7072 24.4623 71.099 22.8839C70.2024 22.3172 69.8763 21.8316 70.3654 20.7792C71.2212 18.9174 71.7103 16.9747 71.9956 14.9915C72.1586 14.0201 71.8733 13.1702 70.7729 13.0083C69.7133 12.8464 69.3873 13.6559 69.2243 14.5058C68.8982 16.0843 68.6129 17.6628 68.0424 19.2008C67.5941 20.3745 67.105 20.7388 65.8009 20.0912C61.3587 17.7842 56.7534 15.801 52.1074 13.9392C48.1543 12.3607 48.2358 12.3607 49.0916 8.27288C49.3362 7.18009 50.3958 5.48019 48.4803 4.99451C46.4426 4.46835 46.6056 6.57298 46.2388 7.70624C45.1792 11.187 45.2607 11.2679 41.7966 10.2561C36.58 8.75856 31.3227 7.4634 25.9432 6.81582C24.4352 6.65393 23.5387 6.04682 24.2315 4.30646C24.5575 3.49698 24.639 2.60656 24.802 1.75661C24.9243 0.906668 24.5983 0.259089 23.7424 0.0567205C22.8051 -0.186122 22.316 0.38051 22.153 1.18998C21.9085 2.2423 21.664 3.29461 21.5824 4.34693C21.4602 5.80398 20.8081 6.28967 19.341 6.0873C13.1055 5.39924 6.87013 5.39924 0.63472 5.96588C-0.465645 6.0873 -0.873192 5.68256 -0.710175 4.58977C-0.587914 3.57793 -0.547157 2.56609 -0.465645 1.55425C-0.424889 0.663826 -0.873192 0.0971942 -1.72903 0.0567205C-2.50336 -0.0242268 -2.99242 0.501931 -3.11468 1.27093C-3.27769 2.48514 -3.48146 3.65888 -3.52222 4.87309C-3.56297 5.84446 -3.84825 6.33014 -4.90787 6.49203C-10.4097 7.22056 -15.8708 8.31335 -21.2096 9.85135C-22.31 10.1751 -22.4322 9.72993 -22.636 8.87998C-22.962 7.34198 -22.9213 5.80398 -22.8805 4.22551C-22.8398 3.25414 -23.3288 2.56609 -24.2254 2.52561C-25.1628 2.48514 -25.6111 3.17319 -25.6111 4.14456C-25.5703 5.84445 -25.7741 7.54435 -25.4888 9.20377C-25.2035 10.8632 -25.9779 11.3489 -27.2412 11.7536C-31.5612 13.1702 -35.7589 14.9106 -39.7936 16.9747C-40.2826 17.2176 -42.4426 16.9747 -41.0162 18.796C-40.8124 19.0793 -41.3015 19.3627 -41.6275 19.4031C-42.3204 19.565 -42.6871 19.9698 -42.8094 20.6173C-42.8909 20.9816 -43.0539 21.2649 -43.4615 21.184C-43.869 21.103 -43.9505 20.6983 -43.9098 20.3745C-43.543 17.5009 -45.1324 14.9106 -45.2139 12.0774C-45.2547 11.0656 -45.6215 10.337 -46.7626 10.3775C-48.0667 10.418 -47.9445 11.4703 -47.9037 12.3202C-47.7407 14.5463 -47.2516 16.7319 -46.5588 18.8365C-46.2328 19.8079 -46.4365 20.2936 -47.2924 20.8197C-51.6939 23.41 -56.0138 26.2432 -60.0485 29.4406C-61.0266 30.2096 -61.5972 29.8453 -62.0455 28.874C-62.5753 27.7002 -62.8198 26.4456 -62.9421 25.1909C-63.0236 24.26 -63.6756 23.7743 -64.6537 23.8957C-65.5911 24.0171 -65.6318 24.7457 -65.5911 25.4337C-65.5503 26.486 -65.6318 27.6598 -65.0613 28.5907C-63.5126 31.0191 -63.3496 33.1237 -66.2839 34.6212C-66.4062 34.6617 -66.4469 34.8236 -66.5692 34.9046C-67.099 35.5521 -66.9767 36.1188 -66.4877 36.7259C-65.9171 37.333 -65.3466 37.4139 -64.7352 36.8473C-64.1647 36.3616 -63.5534 35.9164 -63.0643 35.3902C-62.0455 34.3379 -61.1896 34.0951 -60.0077 35.2688C-58.7851 36.5235 -57.1549 37.333 -55.6063 38.102C-53.8946 38.9519 -52.0606 39.64 -50.0637 40.4494C-53.324 42.5136 -56.5029 44.2135 -59.2742 46.3991C-61.9232 48.4632 -64.5315 49.1513 -67.8733 48.5037C-73.3344 47.4109 -78.551 46.2372 -81.3223 40.6923C-81.7298 39.9233 -82.5041 39.7614 -83.2785 40.0852C-84.0528 40.409 -84.1343 41.097 -83.849 41.7851C-82.9117 44.1325 -81.3223 45.9539 -79.203 47.249C-77.6136 48.2204 -76.1872 49.8798 -73.9457 48.787C-73.7419 48.7061 -73.2937 48.7465 -73.1714 48.9084C-71.7857 50.8917 -69.6258 50.8107 -67.588 51.2154C-66.6099 51.4178 -66.773 51.9035 -67.3435 52.4701C-68.5254 53.5224 -69.748 54.4533 -70.8076 55.5866C-73.8642 58.784 -77.6544 61.3743 -79.7328 65.4217C-80.8332 67.5263 -81.037 69.6714 -79.6106 71.7356C-78.1434 73.8402 -75.9427 74.3259 -73.4974 74.164C-72.3155 74.0831 -71.2559 73.5569 -70.2778 72.9498C-67.2213 70.9666 -63.6349 70.9666 -60.293 71.0071C-55.6063 71.0475 -51.1233 72.6665 -46.8441 74.6092C-46.0698 74.9735 -45.6622 75.4187 -45.4992 76.2282C-45.0916 78.2114 -44.6026 80.1541 -44.1951 82.1373C-44.0728 82.623 -43.5837 83.2301 -44.1135 83.6348C-44.6841 84.1205 -45.2547 83.5944 -45.7845 83.3515C-48.026 82.4206 -50.2675 81.4493 -52.5089 80.4779C-53.324 80.1136 -54.2614 79.628 -54.7504 80.7612C-55.1987 81.8135 -54.5874 82.5016 -53.5686 82.9468C-50.7973 84.1205 -48.0667 85.4562 -45.2139 86.549C-43.7468 87.1156 -43.4207 87.9655 -43.5837 89.3416C-43.7468 90.6773 -43.8283 92.0129 -43.9098 93.389C-43.9505 94.2794 -43.7468 95.0484 -42.6464 95.0484C-41.6275 95.0484 -41.2607 94.4413 -41.22 93.47C-41.1792 92.1748 -41.0162 90.9201 -40.9755 89.625C-40.9347 88.6131 -40.4457 88.3298 -39.5083 88.6536C-34.3733 90.4749 -29.1159 91.8105 -23.8586 93.0652C-22.7175 93.3485 -22.31 93.9961 -22.3507 95.0889C-22.3915 97.5173 -22.3915 99.9457 -22.3915 102.374C-22.3915 103.346 -22.7583 104.641 -21.2096 104.681C-19.5794 104.762 -19.7424 103.426 -19.7017 102.334C-19.6202 100.31 -19.4572 98.2863 -19.6202 96.2626C-19.7832 94.2794 -19.0089 93.9152 -17.2972 94.2794C-12.4474 95.3317 -7.51614 95.7769 -2.58487 96.3436C-1.11771 96.5055 -0.547157 97.1935 -0.424896 98.4887C-0.139618 101.039 0.104912 103.588 0.39019 106.098C0.471703 106.907 0.186424 108 1.57207 108C2.87621 108 3.12074 107.11 3.07998 106.057C2.91696 103.507 2.91697 100.958 2.34641 98.4482C2.06113 97.2745 2.34641 96.6269 3.73206 96.7483C9.76369 97.315 15.7953 97.4364 21.827 97.1531C22.9681 97.1126 23.3756 97.7197 23.6202 98.6506C24.0685 100.431 24.15 102.253 24.1092 104.074C24.0685 105.045 24.476 105.612 25.5356 105.612C26.5137 105.612 26.8398 105.005 26.8398 104.195C26.9213 102.577 26.8805 100.958 26.5952 99.3791C26.1469 96.9102 26.1877 96.8697 28.6329 96.7078C33.442 96.4245 38.2102 95.6555 42.9377 94.7246C47.1354 93.9152 47.1354 93.7937 48.3988 98.003C49.1324 97.0316 51.2924 97.4768 50.3143 95.4532C49.4584 93.7128 50.2735 93.0652 52.0259 92.5391C54.675 91.7296 57.8538 91.851 59.6877 89.0988C59.81 88.8964 60.4213 88.7345 60.5844 88.856C62.459 90.0702 63.967 88.7345 65.5156 88.1274C68.9797 86.8323 69.2243 86.9132 69.7541 90.6368C69.7948 90.8392 69.7948 91.0415 69.7948 91.2439C69.8763 92.2153 70.3654 92.7819 71.3842 92.6605C72.4031 92.5391 72.7699 91.8105 72.6069 90.9201C72.4031 89.6654 72.1586 88.4107 71.751 87.1965C71.3842 86.1442 71.5473 85.6585 72.6069 85.1729C74.8891 84.161 77.1306 82.9873 79.3313 81.854C80.1464 81.4493 80.88 80.8422 80.3502 79.7899C79.7796 78.6566 78.9238 79.0209 78.1087 79.4256C75.908 80.5184 73.7073 81.5707 71.588 82.7444C70.4877 83.3515 69.8356 83.3111 69.0612 82.2183C67.6756 80.1946 65.8824 78.5352 63.7632 77.2805C63.3556 77.0376 62.7851 76.8757 62.8258 76.3091C62.8666 75.783 63.4779 75.702 63.9262 75.5401C68.9797 73.4355 74.1555 71.5332 78.8423 68.6596C79.4128 68.2953 79.9834 68.2549 80.5947 68.4977C85.6483 70.2785 90.2535 72.5451 91.8429 78.2923C92.1282 79.2637 92.6173 80.3565 94.0029 79.8303C95.4293 79.3042 94.818 78.2923 94.492 77.321C92.7395 72.2617 89.3569 68.862 84.3034 67.0811C82.7547 66.5145 82.877 65.9883 84.0181 65.0979C85.7705 63.6813 87.3599 62.1433 88.7863 60.403C89.3161 59.7554 89.846 59.1888 89.4384 58.2579C88.9086 57.0841 89.7645 57.0032 90.5388 57.0437C93.1063 57.1246 95.4701 56.3961 97.8338 55.4247C101.461 53.8867 104.599 51.7416 107.289 48.9084C107.819 48.2609 108.226 47.6538 107.859 46.9657ZM67.4311 25.9599C68.2462 24.7861 68.939 24.5028 70.1616 25.3528C72.4439 26.9312 74.7669 28.3883 77.0899 29.8858C78.068 30.5334 78.3533 31.1 77.5382 32.1523C75.4597 34.7022 73.259 37.1711 70.4877 39.0733C68.2054 40.6113 65.8417 40.9756 63.1926 39.8423C59.9323 38.4258 56.5497 37.252 53.2486 35.9569C53.2486 35.795 53.2893 35.5926 53.2893 35.4307C54.7157 34.8641 56.1014 34.257 57.5278 33.7308C61.644 32.1523 64.9043 29.5216 67.4311 25.9599ZM47.0539 16.6914C47.543 15.4367 48.358 15.3153 49.4177 15.72C54.5527 17.7437 59.647 19.8483 64.5783 22.3172C65.6786 22.8839 65.7601 23.41 64.9858 24.4623C61.8477 28.8335 57.5685 31.4238 52.4335 32.7999C51.1293 33.1237 49.8252 33.5689 48.5211 33.9332C47.9913 33.8118 47.4615 33.6903 46.9724 33.5284C43.8343 32.5166 40.6962 31.4643 37.5174 30.4524C37.1506 30.331 36.6208 30.4524 36.4985 30.0072C36.3763 29.5216 36.8653 29.3192 37.1914 29.1168C42.0819 26.2432 45.0162 21.7911 47.0539 16.6914ZM4.79166 64.3289C4.09884 64.4503 3.93582 63.8837 3.7728 63.3575C6.87013 61.8195 7.39994 58.9459 7.72598 55.9509C7.76673 55.4247 7.76673 54.8581 7.76673 54.3319C7.76673 52.713 8.37804 51.944 10.1712 51.9844C13.2278 52.0249 13.1871 51.9035 13.8799 54.7366C14.9802 59.1078 16.0806 63.4385 17.2625 67.8096C17.507 68.6596 17.3848 69.1453 16.4474 69.2262C13.3908 69.4691 10.375 69.7524 7.31843 69.9952C5.97353 70.1166 5.44373 69.4691 5.81052 68.1334C5.97354 67.5668 6.0143 66.9597 6.13656 66.3526C6.29958 65.2193 6.66637 64.0456 4.79166 64.3289ZM16.3251 51.5797C16.2029 50.0822 17.9961 49.9608 19.1372 49.3132C20.1968 48.6656 20.5228 49.7989 20.9711 50.3655C24.15 54.4533 27.125 58.7031 30.1001 62.9933C30.9152 64.167 30.7114 64.7336 29.448 65.2598C27.1658 66.2716 24.802 67.1216 22.4383 67.8501C21.0119 68.2953 20.2783 67.8096 19.7485 66.555C18.6074 63.7218 18.5259 60.6458 17.507 57.7722C16.8549 55.9104 16.5697 53.9676 16.3251 51.5797ZM15.5916 31.5452C16.2029 29.8858 16.8957 28.4692 18.9334 29.3192C21.3787 29.2787 23.4979 30.1691 25.7394 30.331C26.636 30.412 27.0435 30.8977 26.9213 31.869C26.473 36.1188 25.0058 39.9638 22.153 43.2421C21.3787 44.1325 20.7674 44.2135 19.7485 43.5254C15.4693 40.7732 13.8799 36.1997 15.5916 31.5452ZM22.8866 48.2609C22.3568 47.5728 22.1938 47.0062 22.9273 46.3586C23.5794 45.7515 24.1907 45.1444 24.7205 44.4159C25.2503 43.6873 25.8616 43.7278 26.473 44.0516C31.3635 46.6419 36.417 48.9489 40.9 52.2678C42.2856 53.3201 42.4487 54.17 41.3891 55.5461C39.5144 57.9745 37.4359 60.1601 34.9499 61.941C34.5831 62.2243 34.1755 62.4671 33.8903 62.629C33.1159 62.71 32.9529 62.1838 32.7084 61.8195C29.4073 57.327 26.1877 52.7939 22.8866 48.2609ZM28.4699 42.0684C27.1658 41.3803 27.0028 40.7328 27.6548 39.559C28.7145 37.5758 29.2443 35.3902 29.5703 33.2047C29.7741 31.869 30.4261 31.6262 31.445 31.869C33.8088 32.3952 36.1725 33.0023 38.4955 33.6903C40.574 34.2974 42.5709 35.2283 44.6494 35.714C46.6056 36.1997 46.9316 37.333 46.7279 38.3448C46.3611 42.635 45.7498 46.1967 44.4864 49.5965C44.2011 50.406 43.9566 51.2154 42.8155 50.3655C38.4547 46.8848 33.3604 44.6182 28.4699 42.0684ZM22.9681 13.0488C23.0088 12.7655 23.1311 12.5226 23.1719 12.2798C23.7017 8.83951 23.6609 9.08235 27.2473 9.68945C32.3008 10.5799 37.2729 11.8346 42.2041 13.2107C44.8532 13.9392 44.9347 14.1011 43.9566 16.6509C41.7966 22.2363 37.8027 26.0408 32.3823 28.4288C31.934 28.6311 31.5265 28.793 30.7929 28.7526C27.0843 27.8621 23.0496 27.2146 19.0557 26.5265C17.9146 26.3241 18.4851 25.5551 18.7704 24.9885C20.8081 21.2244 22.1938 17.2176 22.9681 13.0488ZM-1.07696 10.0942C-1.0362 8.79903 -0.0988541 8.59666 0.87925 8.55619C3.93582 8.51572 6.9924 8.55619 10.049 8.55619C13.1055 8.55619 16.1621 8.55619 19.2187 8.55619C20.2783 8.55619 21.1749 8.83951 20.8489 10.2156C19.7077 15.1129 18.4851 20.0102 15.9176 24.4623C15.3063 25.4742 14.6135 26.0003 13.3501 25.8789C9.92671 25.4742 6.46259 25.3932 2.99847 25.4742C1.97961 25.4742 1.32755 25.1504 0.960754 24.2195C-0.913948 19.646 -1.23997 14.9106 -1.07696 10.0942ZM-0.343376 51.3773C-0.0173416 50.4869 0.512459 50.2441 1.3683 50.5679C1.44981 50.6083 1.49056 50.6083 1.57207 50.6488C5.32147 51.7821 4.95469 51.7416 4.75092 55.789C4.62865 58.3793 3.40602 60.7672 3.6913 63.3575C3.12074 64.8551 2.95772 66.4335 2.95772 68.0525C2.95772 69.1858 2.46867 69.631 1.32755 69.4286C-1.19923 69.0238 -3.68523 68.4167 -6.17125 67.6882C-7.31237 67.324 -7.35313 66.7169 -6.86407 65.9074C-4.2558 61.2529 -2.17732 56.3556 -0.343376 51.3773ZM-11.8361 33.5689C-11.7138 36.4426 -11.7138 36.5235 -14.7704 37.333C-18.7236 38.3853 -22.8398 38.9114 -26.7114 40.409C-27.608 40.7328 -28.1786 40.5709 -28.1378 39.4781C-28.1378 39.1543 -28.1378 38.79 -28.1786 38.4662C-28.5861 34.4189 -28.6269 34.3379 -24.796 33.0832C-21.2096 31.869 -17.5825 30.8977 -13.8738 30.1287C-12.1214 29.7644 -11.4286 30.0882 -11.7953 31.9095C-11.9176 32.3547 -11.8361 32.8404 -11.8361 33.5689ZM-26.0186 43.1207C-21.9839 42.1089 -17.8677 41.2589 -13.9146 39.9233C-11.5916 39.1543 -10.5727 39.5186 -9.55386 41.7446C-8.24973 44.6587 -8.08671 44.5373 -10.7765 46.3181C-14.6482 48.9084 -18.6013 51.3773 -22.0247 54.5343C-22.473 54.939 -22.9213 55.4652 -23.4511 54.6152C-25.4073 51.4988 -26.4669 48.0585 -27.2005 45.1039C-27.4858 43.5254 -26.7929 43.3231 -26.0186 43.1207ZM-20.1092 56.5984C-15.993 52.7534 -11.1433 49.9203 -6.49728 46.8443C-5.31541 46.0348 -4.54108 47.8157 -3.48147 48.3013C-2.66638 48.6656 -2.54412 49.3941 -2.8294 50.2036C-4.74485 55.2223 -6.78257 60.2006 -9.4316 64.8955C-9.67613 65.3408 -9.9614 65.8264 -10.4912 65.9074C-10.858 65.7455 -11.1025 65.6241 -11.3471 65.5026C-14.6074 63.8432 -17.6232 61.8195 -20.1907 59.1483C-21.0873 58.1364 -21.0466 57.4889 -20.1092 56.5984ZM-20.5168 12.5226C-15.6263 11.187 -10.6542 10.2156 -5.6822 9.36566C-4.37806 9.12282 -3.726 9.44661 -3.84826 10.8632C-3.92977 11.5108 -3.84826 12.1988 -3.84826 12.8869C-3.726 16.6509 -3.52222 20.415 -2.13657 23.9767C-1.68828 25.1504 -2.01431 25.4742 -3.19618 25.6361C-6.08974 25.9599 -8.9833 26.3646 -11.8361 26.8503C-12.6104 26.9717 -13.1402 26.7289 -13.6701 26.2837C-17.7047 23.2077 -19.987 18.9984 -21.4949 14.3035C-21.8617 13.413 -21.5356 12.8059 -20.5168 12.5226ZM-40.6087 20.4555C-35.9627 18.027 -31.0314 16.1248 -26.1409 14.3035C-25.122 13.8987 -24.5107 14.1011 -24.1847 15.2343C-22.9213 19.646 -20.7613 23.5314 -17.501 26.8098C-17.0934 27.255 -16.4821 27.7812 -17.5417 28.105C-21.7394 29.4406 -25.9371 30.6953 -30.094 31.9904C-30.2163 32.0309 -30.3793 32.0309 -30.6646 32.0714C-32.5393 31.4238 -34.6178 30.8572 -36.3702 29.4811C-38.3264 27.9836 -39.5491 25.8789 -41.5053 24.3409C-42.8502 23.2886 -42.2388 21.2649 -40.6087 20.4555ZM-58.4183 33.1237C-59.0704 32.638 -59.1111 32.2738 -58.4591 31.7476C-54.5059 28.5907 -50.2674 25.8384 -45.9067 23.2886C-45.1732 22.8839 -44.7656 23.1672 -44.4396 23.8148C-42.4834 27.7002 -39.6713 30.7762 -35.8404 32.9213C-35.1883 33.2856 -34.8623 33.7713 -35.7997 34.176C-39.0193 35.5926 -42.2388 36.9687 -45.4584 38.3448C-45.6215 38.3853 -45.866 38.3853 -45.9882 38.3853C-50.5527 37.4949 -54.7912 35.9973 -58.4183 33.1237ZM-65.7133 68.4167C-68.6069 68.9429 -71.0929 70.4809 -73.7827 71.5332C-74.0272 71.6142 -74.3125 71.6142 -74.394 71.6142C-76.717 71.6142 -78.3064 69.7119 -77.6544 67.6882C-76.6355 64.4503 -73.7012 62.6695 -71.582 60.2815C-71.2967 59.9578 -70.8076 60.1197 -70.4408 60.2815C-67.4658 61.6172 -65.5503 63.7623 -65.1428 67.0811C-65.102 67.6478 -65.0205 68.2953 -65.7133 68.4167ZM-23.4918 89.9487C-24.2254 90.8796 -25.7333 89.7464 -26.8745 89.5035C-31.0722 88.5322 -35.2291 87.237 -39.3045 85.8204C-40.1196 85.5371 -40.8532 85.3347 -40.9347 84.2824C-41.1385 82.1778 -41.8313 80.2351 -42.3611 78.2114C-42.4834 77.7257 -42.8502 76.9162 -41.6275 76.9972C-41.22 77.1591 -40.7309 77.3614 -40.2419 77.6043C-36.3702 79.2232 -32.5801 81.0445 -28.5046 82.0564C-26.1001 82.6635 -25.0813 84.242 -24.3477 86.2656C-23.8994 87.4799 -22.6768 88.9369 -23.4918 89.9487ZM-2.8294 93.1866C-3.19619 93.9961 -4.05203 93.3485 -4.7041 93.5104C-9.3501 92.9033 -14.0368 92.2962 -18.6828 91.3653C-19.3757 91.2439 -19.9055 91.0011 -20.1092 90.1916C-20.5168 88.6536 -21.0873 87.1156 -21.5764 85.5776C-21.9024 84.5658 -21.5356 84.161 -20.476 84.4038C-16.1153 85.4157 -11.7546 86.2656 -7.35313 87.0346C-6.00824 87.2775 -5.64144 88.8155 -4.82635 89.7868C-4.3373 90.3535 -3.92976 90.9606 -3.56297 91.6082C-3.27769 92.1343 -2.54412 92.5795 -2.8294 93.1866ZM20.4821 94.4413C17.507 94.4413 14.532 94.4413 11.5569 94.4413C11.5569 94.3604 11.5569 94.3199 11.5569 94.239C8.78559 94.239 6.01429 94.239 3.243 94.239C1.85735 94.239 0.797737 93.8342 0.186424 92.4176C-0.261871 91.3653 -0.995453 90.4749 -1.60677 89.5035C-1.89204 89.0583 -2.4626 88.6536 -2.17732 88.087C-1.85129 87.4394 -1.07697 87.7227 -0.506401 87.7632C3.48753 88.1679 7.4407 88.4107 11.4346 88.3298C12.0459 88.3298 12.698 88.4107 13.2686 88.2893C17.4663 87.318 19.4225 90.1106 21.3379 92.9438C22.0715 94.0366 21.5417 94.4413 20.4821 94.4413ZM43.7528 92.0129C39.4328 92.8224 35.0721 93.4699 30.7114 93.8342C29.3665 93.9556 28.0216 94.0771 26.473 94.239C26.1062 94.239 25.4541 94.4413 25.1281 93.9152C23.987 92.0938 22.8458 90.2725 21.5417 88.5726C20.9711 87.8441 21.7862 87.6822 22.316 87.6013C27.4103 86.8727 32.4639 86.0228 37.4359 84.6467C37.9249 84.5253 38.3732 84.6872 38.7808 84.93C41.1853 86.4275 42.9785 88.5322 44.6494 90.7177C45.5867 91.932 44.4049 91.8915 43.7528 92.0129ZM66.616 83.3515C66.8197 83.6349 66.9828 83.9182 67.105 84.0801C67.1458 84.8491 66.5752 84.9705 66.1677 85.1324C60.7881 87.4799 55.2455 89.4226 49.4992 90.8392C48.7656 91.0415 48.3173 90.7582 47.9505 90.2321C46.3611 88.2084 44.7717 86.2252 42.8562 84.4848C41.9596 83.7158 42.3264 83.1896 43.2638 82.9468C48.0728 81.4897 52.7595 79.7494 57.4055 77.9685C58.7504 77.4424 59.9323 78.2519 61.1142 78.6971C63.4371 79.6684 65.1896 81.3279 66.616 83.3515ZM85.7705 59.5935C81.0838 64.6932 75.2559 68.093 68.939 70.6428C57.5685 75.1758 46.2796 80.0327 34.257 82.7444C25.7394 84.6467 17.181 85.8609 8.45956 85.8204C-9.26859 85.4562 -26.1816 81.4897 -42.1573 73.8402C-46.9664 71.5332 -51.8976 69.1048 -57.2772 68.7405C-60.8228 68.4977 -62.6975 67.5668 -63.2273 63.8837C-63.5534 61.6172 -65.3873 60.0387 -67.4658 58.9864C-69.0552 58.1769 -68.8107 57.5293 -67.6696 56.5175C-59.5594 49.2322 -50.349 43.6064 -40.4049 39.1543C-38.0819 38.102 -35.6774 37.1306 -33.3136 36.1188C-31.9688 35.5521 -31.1944 35.4712 -31.0722 37.4544C-30.2978 47.7347 -27.119 56.9627 -18.9274 63.8837C-14.0776 68.012 -8.37199 70.319 -2.13657 71.5332C3.32451 72.626 8.82634 72.7474 14.2874 72.1808C23.9462 71.169 32.7899 67.8501 40.1257 61.4553C46.1573 56.1937 48.4803 49.0703 49.3769 41.3803C49.4584 40.5304 49.4584 39.64 49.5807 38.7495C49.6622 38.102 49.9067 37.5353 50.7626 37.8591C61.5625 41.9065 72.7699 45.1039 81.8174 52.7939C83.3253 54.0486 84.5887 55.5866 85.9743 56.9627C86.7894 57.8531 86.6671 58.6221 85.7705 59.5935Z" fill="#717171"/>
</svg>
