<svg width="21" height="11" viewBox="0 0 21 11" fill="none" xmlns="http://www.w3.org/2000/svg">
<path fill-rule="evenodd" clip-rule="evenodd" d="M11.0723 10.954C11.0723 10.954 11.4363 10.9154 11.6227 10.7239C11.7934 10.5485 11.7874 10.2175 11.7874 10.2175C11.7874 10.2175 11.7648 8.67184 12.5154 8.44362C13.2551 8.21917 14.205 9.93836 15.213 10.5994C15.9745 11.0993 16.5525 10.9899 16.5525 10.9899L19.2462 10.954C19.2462 10.954 20.6547 10.871 19.987 9.81199C19.9318 9.72523 19.5974 9.02831 17.9847 7.59676C16.2951 6.09825 16.5219 6.34061 18.5558 3.74816C19.7947 2.16949 20.2898 1.20569 20.1349 0.79358C19.988 0.399384 19.0766 0.504063 19.0766 0.504063L16.0445 0.521981C16.0445 0.521981 15.8197 0.492747 15.653 0.587995C15.4902 0.681357 15.3847 0.899202 15.3847 0.899202C15.3847 0.899202 14.9053 2.12045 14.2652 3.1597C12.9148 5.35135 12.3753 5.46735 12.1544 5.33155C11.6405 5.01374 11.7687 4.05654 11.7687 3.3766C11.7687 1.2519 12.106 0.366378 11.1128 0.137216C10.7833 0.0608288 10.5407 0.010847 9.69736 0.00235955C8.61533 -0.00801403 7.7 0.00613177 7.18118 0.248496C6.83595 0.409758 6.56964 0.770004 6.73239 0.790751C6.93262 0.816213 7.38634 0.90769 7.62701 1.22078C7.93771 1.62535 7.92686 2.53257 7.92686 2.53257C7.92686 2.53257 8.10539 5.03354 7.50963 5.34381C7.10128 5.55694 6.54103 5.12219 5.3367 3.13329C4.72023 2.1148 4.25467 0.988792 4.25467 0.988792C4.25467 0.988792 4.16491 0.778491 4.00414 0.665325C3.80982 0.528583 3.53858 0.486145 3.53858 0.486145L0.657442 0.504063C0.657442 0.504063 0.224433 0.51538 0.0656303 0.695503C-0.0754181 0.854879 0.0547804 1.18589 0.0547804 1.18589C0.0547804 1.18589 2.31057 6.23216 4.86522 8.77557C7.20781 11.1068 9.86701 10.954 9.86701 10.954H11.0723Z" fill="white"/>
</svg>
