<svg width="16" height="16" viewBox="0 0 16 16" fill="none" xmlns="http://www.w3.org/2000/svg">
<path fill-rule="evenodd" clip-rule="evenodd" d="M16 7.93417C15.9982 12.3046 12.4259 15.8607 8.03349 15.8625H8.0302C6.69689 15.8621 5.38679 15.5291 4.22319 14.8975L0 16L1.1302 11.8916C0.433036 10.6892 0.066194 9.32527 0.0667918 7.92791C0.0685395 3.5565 3.64233 0 8.03342 0C10.1646 0.000915378 12.1648 0.826592 13.6689 2.32523C15.173 3.82379 16.0008 5.81574 16 7.93417ZM1.91282 13.9996L4.41892 13.3454L4.66071 13.4882C5.67734 14.0886 6.84271 14.4063 8.03088 14.4067H8.03356C11.6831 14.4067 14.6535 11.4505 14.655 7.81691C14.6556 6.05609 13.9676 4.40047 12.7174 3.15486C11.4673 1.90925 9.80476 1.22294 8.03617 1.22233C4.38379 1.22233 1.41337 4.17826 1.41192 7.81157C1.41141 9.05674 1.76148 10.2694 2.4243 11.3186L2.58174 11.5679L1.91282 13.9996Z" fill="white"/>
<path fill-rule="evenodd" clip-rule="evenodd" d="M12.0471 9.70284C11.9973 9.6202 11.8646 9.57062 11.6656 9.47143C11.4665 9.37228 10.4879 8.89308 10.3054 8.8269C10.1229 8.76082 9.99019 8.7278 9.85751 8.92606C9.72483 9.12435 9.34335 9.57062 9.22722 9.70284C9.1111 9.83501 8.99498 9.85161 8.796 9.75241C8.59694 9.65326 7.95554 9.44409 7.19521 8.76914C6.60345 8.24383 6.20395 7.59513 6.08784 7.39679C5.97172 7.19846 6.07546 7.09128 6.17511 6.9925C6.26467 6.90371 6.37418 6.76106 6.4737 6.64541C6.57322 6.52977 6.6064 6.44708 6.67275 6.31496C6.7391 6.18269 6.70593 6.06704 6.65616 5.96788C6.6064 5.86871 6.20831 4.8936 6.04243 4.49693C5.88084 4.11064 5.71674 4.16297 5.59456 4.15687C5.47859 4.15107 5.34574 4.14985 5.21305 4.14985C5.08036 4.14985 4.86469 4.19943 4.68223 4.39777C4.49978 4.5961 3.98555 5.07538 3.98555 6.05041C3.98555 7.02553 4.69881 7.96753 4.79835 8.09973C4.89787 8.232 6.20197 10.2329 8.19882 11.091C8.67374 11.2952 9.04449 11.417 9.33361 11.5083C9.81044 11.6591 10.2444 11.6379 10.5874 11.5868C10.9698 11.53 11.7651 11.1076 11.931 10.6449C12.0968 10.1821 12.0968 9.78543 12.0471 9.70284Z" fill="white"/>
</svg>
